<?xml version="1.0" encoding="UTF-8" standalone="no"?>
<svg
   xmlns:dc="http://purl.org/dc/elements/1.1/"
   xmlns:cc="http://creativecommons.org/ns#"
   xmlns:rdf="http://www.w3.org/1999/02/22-rdf-syntax-ns#"
   xmlns:svg="http://www.w3.org/2000/svg"
   xmlns="http://www.w3.org/2000/svg"
   xmlns:sodipodi="http://sodipodi.sourceforge.net/DTD/sodipodi-0.dtd"
   xmlns:inkscape="http://www.inkscape.org/namespaces/inkscape"
   version="1.0"
   width="425.19684"
   height="425.19684"
   viewBox="0 0 340.15747 340.15747"
   preserveAspectRatio="xMidYMid meet"
   id="svg2"
   inkscape:version="0.48.5 r10040"
   sodipodi:docname="newyear.svg">
  <defs
     id="defs74" />
  <sodipodi:namedview
     pagecolor="#ffffff"
     bordercolor="#666666"
     borderopacity="1"
     objecttolerance="10"
     gridtolerance="10"
     guidetolerance="10"
     inkscape:pageopacity="0"
     inkscape:pageshadow="2"
     inkscape:window-width="1920"
     inkscape:window-height="1057"
     id="namedview72"
     showgrid="false"
     inkscape:zoom="1.0606602"
     inkscape:cx="119.52063"
     inkscape:cy="247.67909"
     inkscape:window-x="-8"
     inkscape:window-y="-8"
     inkscape:window-maximized="1"
     inkscape:current-layer="svg2"
     units="cm" />
  <metadata
     id="metadata4">
Created by potrace 1.11, written by Peter Selinger 2001-2013
<rdf:RDF>
  <cc:Work
     rdf:about="">
    <dc:format>image/svg+xml</dc:format>
    <dc:type
       rdf:resource="http://purl.org/dc/dcmitype/StillImage" />
    <dc:title></dc:title>
  </cc:Work>
</rdf:RDF>
</metadata>
  <path
     style="fill:#000000;stroke:none"
     d="m 211.66829,19.700319 c -7.71976,0.391315 -13.85717,6.793512 -13.85717,14.610522 0,3.484129 1.22813,6.6736 3.26454,9.177234 -1.29767,1.2031 -2.70855,2.527207 -4.36032,4.109209 -10.88591,10.735081 -12.54431,13.013409 -11.93954,16.642297 0.45358,3.931144 0.15303,4.234312 -3.17322,3.629802 -2.72148,-0.453839 -5.14068,0.603597 -9.22289,4.383157 l -5.43329,4.976709 8.60651,8.766314 8.76631,8.62934 5.29632,-5.13651 c 4.23339,-4.081818 5.29892,-6.053325 4.54295,-8.926119 -0.75595,-3.175049 -0.44981,-3.48187 2.87645,-2.876447 3.02387,0.604511 5.89337,-1.510362 16.77927,-12.396114 11.0371,-11.037336 13.0065,-13.746675 12.09934,-16.619469 -0.90717,-2.872794 -0.601,-3.193312 2.87645,-2.739473 2.72146,0.302256 5.29185,-1.059262 9.22289,-4.839735 l 5.27348,-5.136512 -7.85315,-8.012958 c -4.38461,-4.384982 -8.61251,-8.012957 -9.51967,-8.012957 -0.71516,0 -2.56967,1.242568 -4.42881,2.944933 -2.49284,-1.978893 -5.63304,-3.173223 -9.06309,-3.173223 -0.25217,0 -0.50434,-0.01262 -0.75336,0 z m 1.00448,4.885393 c 2.08571,0 4.01573,0.642632 5.61591,1.735 -1.75729,2.316432 -2.23289,4.203905 -1.75782,6.46059 0.60476,3.628891 0.30421,3.937535 -3.17323,3.333025 -2.29207,-0.417189 -4.29621,0.386701 -8.78914,4.246183 -1.17223,-1.634824 -1.87197,-3.631175 -1.87197,-5.798551 0,-5.51393 4.46231,-9.976247 9.97625,-9.976247 z m 0.73052,17.098876 c 0.37976,0.0127 0.76739,0.06529 1.16428,0.159803 2.1167,0.605424 4.23496,1.831794 4.83973,2.739473 2.87267,4.535654 0.75847,8.298776 -9.97624,18.126178 -10.12995,9.071308 -11.63532,9.999076 -15.11276,8.789143 -7.25728,-2.872794 -5.76063,-7.574643 5.73006,-19.518744 8.06993,-8.202667 10.69665,-10.384768 13.35493,-10.295853 z"
     id="path20"
     inkscape:connector-curvature="0" />
  <path
     style="fill:#000000;stroke:none"
     d="m 53.393935,122.16595 c -8.069168,0 -14.610521,6.54134 -14.610521,14.61052 0,3.14657 1.02189,6.05965 2.716644,8.4467 -1.300027,0.7364 -2.949263,1.94627 -4.428815,3.33303 -3.175058,3.17505 -5.140282,7.7171 -8.012958,18.14901 -2.267891,8.92063 -4.377933,14.05715 -5.889866,14.3594 -1.209542,0.30226 -3.327803,4.37403 -4.839736,9.81645 l -2.57967,9.54249 14.062627,0 c 12.549032,0 14.060016,0.30682 14.815982,2.87645 0.302383,1.51219 2.586053,4.07268 4.702762,5.43329 4.989375,3.32663 10.56496,1.3533 13.286443,-4.54296 1.663126,-3.62889 2.284163,-3.76678 15.135588,-3.76678 9.978752,0 13.309272,-0.4511 13.309272,-1.96329 0,-4.83791 -4.851731,-17.69243 -6.666051,-17.69243 -1.209554,0 -3.330797,-4.99679 -5.296314,-12.55591 -4.535792,-15.87525 -6.63356,-19.95341 -12.076509,-22.37236 -0.506922,-0.22178 -1.038367,-0.52149 -1.552368,-0.84467 1.594435,-2.34064 2.534012,-5.17276 2.534012,-8.21842 0,-8.06918 -6.541353,-14.61052 -14.610522,-14.61052 z m 0.251119,4.88539 c 5.513933,0 9.976247,4.46231 9.976247,9.97625 0,1.90238 -0.538784,3.67021 -1.461052,5.18216 -0.510949,-0.5753 -0.92611,-1.14448 -1.187105,-1.66651 -1.663126,-3.77956 -5.754446,-5.14655 -10.592629,-3.33302 -1.965517,0.60542 -3.769779,2.58332 -4.223354,4.24618 -0.136153,0.49942 -0.368534,0.95355 -0.616381,1.36974 -1.171771,-1.63528 -1.871973,-3.63118 -1.871973,-5.79855 0,-5.51394 4.462316,-9.97625 9.976247,-9.97625 z m -2.054605,21.96144 c 0.800445,-0.008 1.672512,0 2.57967,0 6.6525,0 10.265197,0.76523 12.533089,2.57967 1.814326,1.51219 4.386544,7.09889 6.049669,12.69289 1.663123,5.594 3.321812,11.49483 3.926578,13.30927 0.90716,3.17505 0.614613,3.17322 -22.669138,3.17322 -21.771814,0 -23.584907,-0.1461 -22.82894,-2.71664 7.795897,-27.07284 8.402397,-28.916 20.409072,-29.03841 z m -6.095327,37.80472 c 2.529532,-0.0124 5.359038,0 8.515195,0 28.877901,0 29.181383,-0.0164 30.088543,3.3102 0.453584,1.96512 0.913158,3.93754 0.913158,4.54296 0,0.75609 -13.916869,1.20993 -31.001701,1.20993 -32.657722,0 -32.658826,0.009 -30.088543,-6.64322 0.66147,-1.85211 3.866622,-2.33307 21.573348,-2.41987 z"
     id="path26"
     inkscape:connector-curvature="0" />
  <path
     style="fill:#000000;stroke:none"
     d="m 284.37752,6.51092 c -8.06917,0 -14.61052,6.541349 -14.61052,14.610521 0,4.316006 1.8869,8.191956 4.86257,10.866576 -0.15011,3.728334 -0.78967,4.52013 -2.96777,4.52013 -3.32625,0 -4.3936,5.288096 -1.36973,6.346446 1.36074,0.452926 1.36074,1.370649 0,3.789604 -2.4191,4.687238 -2.11071,11.335938 0.91316,15.569337 2.41909,3.477306 2.42731,3.622496 -1.05014,5.889867 -1.96551,1.360604 -4.70315,3.638933 -5.91269,4.999538 -2.11671,2.570538 -2.40381,2.407083 -5.73007,-0.616382 -2.41909,-2.268283 -3.49282,-4.980361 -3.49282,-9.063089 0,-4.686328 -0.44314,-5.752893 -3.01342,-5.752893 -1.81432,0 -3.03625,1.059262 -3.03625,2.419868 0,2.116699 -0.45436,2.105741 -2.41987,0.593552 -1.81433,-1.66286 -2.70581,-1.64551 -4.52013,0.319605 -2.1167,2.116702 -1.36141,3.164091 6.80302,11.026378 l 9.2229,8.766316 -0.91316,8.01296 c -2.57028,20.713146 17.9842,36.301656 37.9417,28.741626 12.54903,-4.83791 18.75339,-15.74192 16.93907,-30.408146 -0.60477,-6.50077 -0.45946,-6.9336 8.30973,-15.249729 8.01325,-7.710703 8.78276,-8.772703 6.66606,-10.889405 -1.81432,-1.965115 -2.72864,-1.982465 -4.54296,-0.319605 -1.96552,1.512189 -2.41987,1.523147 -2.41987,-0.593552 0,-1.360606 -1.1991,-2.419868 -3.01342,-2.419868 -2.57028,0 -3.03625,1.066565 -3.03625,5.752893 0,3.931143 -1.04791,6.792066 -3.01342,8.60651 -2.87268,2.570539 -3.02059,2.432652 -7.55638,-1.346907 -2.72147,-2.1167 -5.29371,-3.949407 -6.04967,-3.949407 -0.60477,0 0.14036,-2.723033 1.80349,-6.049669 2.57028,-5.140164 2.72186,-6.645048 1.20993,-11.482957 -1.51193,-4.384983 -1.51193,-5.736456 0,-6.643222 2.87268,-1.663772 0.61521,-6.049669 -3.01342,-6.049669 -2.23016,0 -2.88399,-0.693113 -3.01342,-4.72559 2.84755,-2.666044 4.63428,-6.452534 4.63428,-10.661116 0,-8.069172 -6.54136,-14.610521 -14.61053,-14.610521 z m 0.25112,4.885393 c 5.51393,0 9.97625,4.462316 9.97625,9.976247 0,0.795733 -0.0983,1.564043 -0.27395,2.305723 l 0,-0.776184 -9.81644,0 -9.72513,0 c -0.0768,-0.499219 -0.13697,-1.008678 -0.13697,-1.529539 0,-5.513931 4.4623,-9.976247 9.97624,-9.976247 z m 0.41092,31.161503 c 5.40817,0 9.91492,3.804215 10.95789,8.903287 l -4.26901,0 c -0.0979,-1.357865 -1.21942,-2.419868 -2.6025,-2.419868 -1.38223,0 -2.50339,1.062916 -2.6025,2.419868 l -2.96776,0 c -0.27515,-1.152405 -1.29691,-1.986118 -2.53401,-1.986118 -1.23711,0 -2.25886,0.833713 -2.53401,1.986118 l -4.40599,0 c 1.04297,-5.099072 5.54973,-8.903287 10.95789,-8.903287 z m -11.07203,9.7023 4.45164,0 c 0.0979,1.357865 1.21942,2.419868 2.6025,2.419868 1.38223,0 2.52622,-1.062916 2.62533,-2.419868 l 2.94493,0 c 0.27515,1.152405 1.29691,2.054605 2.53401,2.054605 1.23711,0 2.25886,-0.9022 2.53402,-2.054605 l 4.45164,0 c 0.064,0.483974 0.11414,0.981644 0.11414,1.483881 0,6.180251 -5.00541,11.186181 -11.18618,11.186181 -6.18076,0 -11.18618,-5.00593 -11.18618,-11.186181 0,-0.502237 0.0502,-0.999907 0.11415,-1.483881 z m 11.30032,17.966376 0.45658,0 c 3.82708,0.01826 7.62453,1.098529 11.02638,3.310196 9.22278,6.047846 12.41139,19.663936 6.66605,29.038412 -4.26105,7.05505 -11.21453,10.60632 -18.14901,10.77526 l 0,-7.89882 c 2.04227,-0.19724 3.6298,-1.87836 3.6298,-3.97223 0,-2.09387 -1.58753,-3.81974 -3.6298,-4.0179 l 0,-8.538016 c 2.04227,-0.19816 3.6298,-1.90119 3.6298,-3.99506 0,-2.09387 -1.58753,-3.775 -3.6298,-3.97224 l 0,-10.729602 z m -0.79901,0.02283 0,10.706773 c -2.03308,0.20637 -3.6298,1.88476 -3.6298,3.97224 0,2.08747 1.59672,3.78869 3.6298,3.99506 l 0,8.538015 c -2.03308,0.20638 -3.6298,1.93042 -3.6298,4.0179 0,2.08748 1.59672,3.76586 3.6298,3.97223 l 0,7.89882 c -7.8041,-0.10136 -15.45634,-4.48178 -19.15348,-12.89835 -3.62863,-8.316126 -2.74053,-14.974875 2.85362,-21.778805 4.42,-5.215047 10.33289,-8.101538 16.29986,-8.423883 z"
     id="path10-4"
     inkscape:connector-curvature="0" />
  <path
     style="fill:#000000;stroke:none"
     d="m 164.23154,91.966036 c -8.06917,0 -14.61052,6.54135 -14.61052,14.610524 0,3.59711 1.30836,6.88349 3.47,9.42835 -1.79095,1.76132 -3.68591,3.61745 -5.68441,5.61592 l -15.86611,15.88894 5.29632,0 5.13651,0 -10.13605,10.27303 c -5.59415,5.594 -10.13605,10.74056 -10.13605,11.34598 0,0.60451 2.11826,1.05013 4.83973,1.05013 l 4.83974,0 -8.14993,8.30974 -8.17276,8.33256 18.44578,0 18.44578,0 0,12.09934 0,12.07651 12.09934,0 12.09934,0 0,-12.07651 0,-12.09934 18.44578,0 18.44579,0 -8.17276,-8.33256 -8.17276,-8.30974 4.99953,0 4.99954,0 -10.29585,-11.02638 -10.43283,-10.8894 5.13652,-0.45658 5.15934,-0.59355 -15.72914,-15.72914 c -1.86911,-1.86898 -3.62245,-3.62659 -5.31915,-5.29632 2.25444,-2.56681 3.62981,-5.92582 3.62981,-9.61098 0,-8.069174 -6.54136,-14.610524 -14.61053,-14.610524 z m 0.25112,4.88539 c 5.51393,0 9.97625,4.462324 9.97625,9.976254 0,2.43161 -0.86237,4.66239 -2.30572,6.3921 -4.49926,-4.37253 -7.81328,-7.46506 -8.10428,-7.46506 -0.27882,0 -3.3666,2.85683 -7.60203,6.96283 -1.21229,-1.65182 -1.94046,-3.68166 -1.94046,-5.88987 0,-5.51393 4.4623,-9.976254 9.97624,-9.976254 z m -0.43375,17.966384 c 0.45358,0 4.5415,3.6371 8.92612,8.17276 l 8.14993,8.30973 -4.67993,0.45658 -4.83974,0.45658 9.97625,10.8894 9.97625,11.02638 -4.97671,0 -4.99954,0 8.17276,8.33257 8.14993,8.30973 -32.80519,0 c -17.99198,0 -32.80518,-0.46845 -32.80518,-1.07296 0,-0.60542 3.16877,-4.37859 7.0998,-8.30973 l 7.12263,-7.25961 -5.9127,0 -5.88987,0 11.18618,-11.32315 11.18619,-11.34598 -5.13652,0 -5.13651,0 8.17276,-8.30974 c 4.53579,-4.53657 8.60951,-8.33256 9.06309,-8.33256 z"
     id="path12-0"
     inkscape:connector-curvature="0" />
  <path
     style="fill:#000000;stroke:none"
     d="m 299.93117,237.61043 c -0.20465,0 -0.43918,0.0557 -0.68487,0.11414 -4.3846,0.7561 -4.53878,12.70659 -0.45658,18.14901 2.87268,3.93114 3.01004,4.99497 1.34691,8.92612 -1.20954,3.32663 -2.40903,4.22609 -4.22335,3.47 -0.34261,-0.14828 -0.67121,-0.27301 -1.00447,-0.41093 1.47538,-2.28217 2.32855,-5.00188 2.32855,-7.92164 0,-8.06917 -6.54136,-14.61052 -14.61052,-14.61052 -8.06918,0 -14.61053,6.54135 -14.61053,14.61052 0,2.9966 0.89522,5.78586 2.4427,8.10428 -0.4282,0.17261 -0.85711,0.3374 -1.30125,0.52506 -0.90716,0.45384 -2.57145,-1.34782 -3.6298,-3.76677 -1.51193,-3.93115 -1.36596,-4.99498 1.50671,-8.92612 4.08222,-5.44242 3.93663,-17.39291 -0.29678,-18.14901 -0.26459,-0.0548 -0.53424,-0.0685 -0.75335,-0.0685 -1.5338,-0.0457 -1.96329,1.19989 -1.96329,4.77125 0,10.28124 -3.19122,13.30379 -5.9127,5.59309 -1.51193,-4.53657 -5.43368,-6.04237 -6.64322,-2.71665 -0.30239,1.05835 0.29716,3.7823 1.50671,6.04967 1.81432,3.78047 1.82554,4.22335 -0.59355,4.22335 -1.36074,0 -4.53514,-1.81901 -6.80302,-4.08638 -3.32626,-3.17504 -4.68893,-3.62067 -6.04967,-2.26006 -3.93102,3.93114 4.08348,12.0829 12.85269,12.98967 4.08222,0.45384 8.30074,3.18144 6.94,4.54296 -0.30239,0.30225 -4.22191,-0.14337 -8.60651,-1.05014 -9.52518,-1.96602 -10.88941,-0.90676 -10.88941,9.2229 0,8.92063 3.63175,16.16745 9.67947,19.03933 3.62864,1.66378 5.43369,3.93936 6.64322,8.17276 4.23341,13.75855 23.14188,33.72017 29.03842,30.54512 9.52517,-5.14107 25.55419,-26.62402 25.70538,-34.33472 0,-1.05835 2.26385,-2.86275 5.13651,-4.22336 2.69881,-1.28481 4.88306,-3.29284 6.52908,-5.88986 0.009,-0.0183 0.0364,-0.0365 0.0457,-0.0457 2.20911,-3.50744 3.40151,-8.06866 3.40151,-13.26361 0,-10.12966 -1.36423,-11.18892 -10.8894,-9.2229 -4.38461,0.90677 -8.30413,1.35239 -8.60651,1.05014 -1.36075,-1.36152 2.85778,-4.08912 6.93999,-4.54296 8.76921,-0.90677 16.78372,-9.05853 12.8527,-12.98967 -1.36074,-1.36061 -2.72342,-0.91498 -6.04967,2.26006 -2.2679,2.26737 -5.44228,4.08638 -6.80303,4.08638 -2.41909,0 -2.40787,-0.44288 -0.59355,-4.22335 1.20956,-2.26737 1.8091,-4.99132 1.50671,-6.04967 -1.20954,-3.32572 -5.13129,-1.81992 -6.64322,2.71665 -2.72147,7.7107 -5.91269,4.68815 -5.91269,-5.59309 0,-3.57136 -0.43948,-4.83974 -1.87198,-4.79408 l 0,-0.0228 z M 282.87795,250.212 c 5.51393,0 9.97625,4.46232 9.97625,9.97625 0,2.31744 -0.79983,4.44828 -2.12309,6.14099 -5.49318,-1.6913 -9.99467,-1.65034 -15.66065,0.0685 -1.35433,-1.70305 -2.16875,-3.86207 -2.16875,-6.20947 0,-5.51393 4.46231,-9.97625 9.97624,-9.97625 z m -10.0219,38.62657 c 1.88943,0 3.44717,1.51219 3.44717,3.40151 0,1.89024 -1.55774,3.44717 -3.44717,3.44717 -1.88943,0 -3.40151,-1.55693 -3.40151,-3.44717 0,-1.88932 1.51208,-3.40151 3.40151,-3.40151 z m 19.35894,0 c 1.88943,0 3.42434,1.51219 3.42434,3.40151 0,1.89024 -1.53491,3.44717 -3.42434,3.44717 -1.88943,0 -3.40151,-1.55693 -3.40151,-3.44717 0,-1.88932 1.51208,-3.40151 3.40151,-3.40151 z m -10.5698,12.98967 c 4.43804,0 8.03579,3.59774 8.03579,8.03578 0,1.45665 -0.3953,2.81696 -1.07296,3.99507 -0.0966,0.16792 -0.18869,0.34224 -0.29678,0.50224 -0.0147,0.0229 -0.0308,0.0458 -0.0457,0.0685 -0.13084,0.18944 -0.2647,0.37073 -0.41092,0.5479 -1.28539,1.62465 -3.19882,2.70425 -5.38763,2.87644 -0.20281,0.0206 -0.40939,0.0404 -0.61638,0.0457 -0.0701,0 -0.13581,0.002 -0.20546,0 -4.43804,0 -8.03579,-3.59774 -8.03579,-8.03579 0,-4.43804 3.59775,-8.03578 8.03579,-8.03578 z"
     id="path14-9"
     inkscape:connector-curvature="0" />
  <path
     style="fill:#000000;stroke:none"
     d="m 167.04705,217.67068 c -8.06917,0 -14.61052,6.54135 -14.61052,14.61052 0,0.21399 0.0137,0.42746 0.0228,0.63921 -0.57066,0.0834 -1.06666,0.5101 -1.66652,1.20993 -1.81432,2.1167 -0.8996,3.49283 5.7529,10.29586 9.82755,9.97898 10.57308,15.55655 3.01342,20.54604 -4.83819,3.02438 -4.98388,3.0326 -9.51967,0.15981 -3.32626,-2.1167 -5.13429,-5.14747 -7.0998,-11.34599 -3.62864,-12.54952 -3.94458,-12.83808 -6.66605,-11.77973 -2.4191,0.90768 -2.40189,2.86183 0.3196,12.23631 l 1.05013,3.6298 -4.99953,-2.55684 c -4.08222,-2.1167 -5.12829,-2.27102 -6.18665,-0.45658 -1.96551,3.02347 -1.67656,3.61976 2.55684,5.43329 4.83819,2.26828 3.63047,4.22335 -3.17322,5.43329 -5.74534,1.20993 -8.01218,3.33394 -5.59309,5.75289 1.20954,1.20902 4.68787,0.90129 11.64276,-0.91316 8.9204,-2.26737 10.27719,-2.25367 14.3594,-0.13697 3.93103,1.96511 4.54296,3.16957 4.54296,8.30973 0,5.14108 -0.61193,6.34371 -4.54296,8.30974 -4.08221,2.1167 -5.439,2.13131 -14.3594,-0.13698 -6.95489,-1.81444 -10.43322,-2.12309 -11.64276,-0.91315 -2.41909,2.41895 -0.15225,4.54387 5.59309,5.75289 6.80369,1.20993 8.01141,3.165 3.17322,5.43329 -4.2334,1.81444 -4.52235,2.40982 -2.55684,5.43329 1.05836,1.81444 2.10443,1.68294 6.18665,-0.43375 l 4.99953,-2.57968 -1.05013,3.62981 c -2.72149,9.37356 -2.7387,11.32954 -0.3196,12.23631 2.72147,1.05835 3.03741,0.76888 6.66605,-11.77973 1.81432,-6.04785 3.77055,-9.23477 6.64322,-11.04921 3.77984,-2.26829 4.53029,-2.25915 9.51967,0.1598 4.3846,2.1167 5.29631,3.31476 5.29631,7.39658 0,3.93114 -1.65423,6.50259 -7.85315,12.85269 -6.6525,6.80394 -7.56722,8.17915 -5.7529,10.29585 1.81432,2.1167 2.5614,1.80805 7.85316,-3.33302 l 5.75289,-5.59309 0,5.59309 c 0,4.53565 0.61716,5.59309 3.03625,5.59309 2.41909,0 3.01342,-1.05744 3.01342,-5.59309 l 0,-5.59309 5.75289,5.59309 c 5.29176,5.14107 6.03884,5.44972 7.85316,3.33302 1.81433,-2.1167 0.89961,-3.49191 -5.75289,-10.29585 -6.19893,-6.3501 -7.85316,-8.92155 -7.85316,-12.85269 0,-4.08182 0.9117,-5.27988 5.29631,-7.39658 4.98937,-2.41895 5.73984,-2.42809 9.51967,-0.1598 2.87267,1.81444 4.85173,5.00136 6.66605,11.04921 3.62864,12.54861 3.91314,12.83808 6.48342,11.77973 1.96551,-0.60451 2.28551,-2.11853 1.52954,-6.04967 -0.45357,-2.87279 -1.37273,-6.19578 -1.82631,-7.55638 -0.75597,-1.96603 -0.14703,-1.94868 4.08638,0.31961 4.08221,2.11669 5.12828,2.24819 6.18664,0.43375 1.96551,-3.02347 1.67656,-3.61885 -2.55684,-5.43329 -4.83819,-2.26829 -3.63047,-4.22336 3.17322,-5.43329 5.74534,-1.20902 8.01218,-3.33394 5.59309,-5.75289 -1.20954,-1.20994 -4.68787,-0.90129 -11.64276,0.91315 -8.9204,2.26829 -10.27719,2.25368 -14.3594,0.13698 -3.93103,-1.96603 -4.54296,-3.16866 -4.54296,-8.30974 0,-5.14016 0.61193,-6.34462 4.54296,-8.30973 4.08221,-2.1167 5.439,-2.1304 14.3594,0.13697 6.95489,1.81445 10.43322,2.12218 11.64276,0.91316 2.41909,-2.41895 0.15225,-4.54296 -5.59309,-5.75289 -6.80369,-1.20994 -8.01141,-3.16501 -3.17322,-5.43329 4.2334,-1.81353 4.52235,-2.40982 2.55684,-5.43329 -1.05836,-1.81444 -2.10443,-1.66012 -6.18664,0.45658 l -4.99954,2.55684 1.07296,-3.6298 c 2.72147,-9.37448 2.71587,-11.32863 0.29678,-12.23631 -2.72148,-1.05835 -3.01459,-0.76979 -6.64323,11.77973 -1.96551,6.19852 -3.79637,9.22929 -7.12263,11.34599 -4.53579,2.87279 -4.68148,2.86457 -9.51966,-0.15981 -7.55966,-4.98949 -6.81414,-10.56706 3.01342,-20.54604 6.6525,-6.80303 7.56722,-8.17916 5.75289,-10.29586 -0.83947,-0.97938 -1.45659,-1.43761 -2.39704,-1.14144 0.0111,-0.23412 0,-0.47082 0,-0.7077 0,-8.06917 -6.54136,-14.61052 -14.61052,-14.61052 z m 0.25112,4.88539 c 5.51393,0 9.97624,4.46232 9.97624,9.97625 0,2.0019 -0.58486,3.87185 -1.59802,5.43329 l -3.17322,3.0819 c -0.63956,0.39117 -1.3305,0.71834 -2.05461,0.95882 l 0,-4.54296 c 0,-4.53565 -0.59433,-5.59309 -3.01342,-5.59309 -2.41909,0 -3.03625,1.05744 -3.03625,5.59309 l 0,4.63427 c -0.59975,-0.1816 -1.16618,-0.42213 -1.71217,-0.70769 l -4.04072,-3.92658 c -0.0173,-0.0168 -0.0285,-0.029 -0.0457,-0.0457 -0.80744,-1.44087 -1.27842,-3.11466 -1.27842,-4.88539 0,-5.51393 4.46231,-9.97625 9.97625,-9.97625 z m -0.0685,45.81768 c 1.81432,0 3.67062,1.00219 6.3921,2.96777 3.32626,2.26828 4.38316,4.2334 4.38316,8.01295 0,4.08273 -0.91171,5.43421 -5.29631,7.85316 -5.14057,2.72121 -5.42924,2.72121 -10.5698,0 -4.38461,-2.41895 -5.29632,-3.77043 -5.29632,-7.85316 0,-3.62797 1.0483,-5.74467 4.22336,-8.01295 2.57028,-1.96558 4.34949,-2.96777 6.16381,-2.96777 z"
     id="path18-8"
     inkscape:connector-curvature="0" />
  <path
     style="fill:#000000;stroke:none"
     d="m 53.702157,222.806 c -7.529183,0 -13.65737,5.95305 -13.955164,13.40919 -4.457319,-1.15877 -8.671838,-1.41323 -9.82758,-0.17472 -2.748115,2.74823 -0.869213,8.38796 4.193101,13.01609 l 5.350571,4.91379 -11.137925,0 -11.137924,0 0,36.1655 0,36.14365 37.606874,0 37.606875,0 0,-36.14365 0,-36.1655 -11.137925,0 -11.137924,0 5.503445,-5.06667 c 4.194484,-3.76068 5.347707,-5.77163 4.913791,-8.95402 -0.433917,-3.75981 -0.864689,-4.0542 -7.228732,-3.90919 -2.045278,0 -3.877566,0.21793 -5.63448,0.67702 C 67.643776,229.02842 61.399528,222.806 53.702157,222.806 z m 0.24023,4.67355 c 5.274842,0 9.543672,4.26883 9.543672,9.54368 0,0.46777 -0.04433,0.9262 -0.109195,1.37586 -0.868419,0.44904 -1.737686,0.95791 -2.642527,1.55057 l -5.940227,3.88736 -5.787353,-3.75632 c -1.284175,-0.85614 -2.859684,-1.63297 -4.564365,-2.31494 -0.01872,-0.24441 -0.04368,-0.49328 -0.04368,-0.74253 0,-5.27485 4.268821,-9.54368 9.543672,-9.54368 z m -30.967798,32.27815 13.016085,0 13.016083,0 0,12.2954 0,12.29539 -13.016083,0 -13.016085,0 0,-12.29539 0,-12.2954 z m 37.606874,0 13.016085,0 13.016084,0 0,12.2954 0,12.29539 -13.016084,0 -13.016085,0 0,-12.29539 0,-12.2954 z m -37.606874,36.1655 13.016085,0 13.016083,0 0,12.29539 0,12.2954 -13.016083,0 -13.016085,0 0,-12.2954 0,-12.29539 z m 37.606874,0 13.016085,0 13.016084,0 0,12.29539 0,12.2954 -13.016084,0 -13.016085,0 0,-12.2954 0,-12.29539 z"
     id="path22-2"
     inkscape:connector-curvature="0" />
  <path
     style="fill:#000000;stroke:none"
     d="m 268.87493,121.85469 c -8.06917,0 -14.61052,6.54135 -14.61052,14.61053 0,4.39413 1.95239,8.32514 5.02237,11.00354 -0.16886,3.52272 -0.83686,4.29185 -2.96776,4.29185 -3.32625,0 -4.3936,5.31092 -1.36974,6.36927 1.36074,0.45384 1.36074,1.34782 0,3.76677 -2.41908,4.68724 -2.11071,11.33594 0.91316,15.56934 2.41908,3.47731 2.42731,3.64533 -1.05013,5.9127 -1.96551,1.36152 -4.68032,3.6161 -5.88987,4.97671 -2.1167,2.57054 -2.42664,2.42991 -5.75289,-0.59356 -2.41908,-2.26828 -3.47,-5.0041 -3.47,-9.08591 0,-4.68724 -0.46597,-5.73007 -3.03625,-5.73007 -1.81433,0 -3.01342,1.05926 -3.01342,2.41987 0,2.1167 -0.45435,2.10574 -2.41987,0.59355 -1.81431,-1.66286 -2.72864,-1.66925 -4.54296,0.29678 -2.11671,2.1167 -1.36141,3.18783 6.80303,11.04921 l 9.22289,8.76631 -0.91316,8.01296 c -2.57028,20.71315 18.00705,36.27884 37.96453,28.7188 12.54903,-4.83791 18.73057,-15.72001 16.91624,-30.38532 -0.60476,-6.50168 -0.43663,-6.95734 8.33257,-15.27256 8.01324,-7.7107 8.75993,-8.7727 6.64322,-10.8894 -1.81432,-1.96603 -2.72864,-1.95964 -4.54296,-0.29678 -1.96551,1.51219 -2.41987,1.52315 -2.41987,-0.59355 0,-1.36061 -1.19909,-2.41987 -3.01342,-2.41987 -2.57028,0 -3.03625,1.04283 -3.03625,5.73007 0,3.93114 -1.0479,6.81489 -3.01342,8.62934 -2.87266,2.57053 -3.02058,2.40982 -7.55638,-1.36974 -2.72147,-2.1167 -5.2937,-3.92658 -6.04967,-3.92658 -0.60477,0 0.14037,-2.72303 1.80349,-6.04967 2.57028,-5.14016 2.72186,-6.64505 1.20993,-11.48296 -1.51193,-4.38498 -1.51193,-5.75928 0,-6.66605 2.87267,-1.66286 0.61522,-6.04966 -3.01342,-6.04966 -2.24899,0 -2.86863,-0.69271 -2.99059,-4.81691 2.73268,-2.6549 4.45165,-6.36756 4.45165,-10.47848 0,-8.06918 -6.54136,-14.61053 -14.61053,-14.61053 z m 0.25112,4.8854 c 5.51393,0 9.97625,4.46231 9.97625,9.97624 0,0.48832 -0.0465,0.96876 -0.11414,1.43823 -1.6e-4,9.1e-4 -0.0226,-9.2e-4 -0.0228,0 l -9.79362,0 -9.83927,0 0,0.43375 c -0.1153,-0.60734 -0.18263,-1.23086 -0.18263,-1.87198 0,-5.51393 4.46231,-9.97624 9.97624,-9.97624 z m -5.38763,36.54913 c 1.78137,0 3.19605,1.43731 3.19605,3.21888 0,1.78157 -1.41468,3.21888 -3.19605,3.21888 -1.78137,0 -3.21888,-1.43731 -3.21888,-3.21888 0,-1.78157 1.43751,-3.21888 3.21888,-3.21888 z m 12.07651,0 c 1.78138,0 3.21888,1.43731 3.21888,3.21888 0,1.78157 -1.4375,3.21888 -3.21888,3.21888 -1.78137,0 -3.19605,-1.43731 -3.19605,-3.21888 0,-1.78157 1.41468,-3.21888 3.19605,-3.21888 z m -5.70723,4.40599 0,0.0228 c 0.97156,0.0548 2.10466,1.32134 2.53401,2.80796 0.0279,0.0977 0.0872,0.20181 0.0913,0.22829 0.003,0.0274 -0.0152,0.0995 0,0.20546 0.0502,0.34883 0.0352,0.71044 -0.0457,1.00448 -0.0691,0.2502 -0.14906,0.34791 -0.34244,0.52506 -0.2566,0.23651 -0.24366,0.23286 -0.82184,0.59356 -0.56505,0.35247 -1.28887,0.75426 -1.87197,1.0273 -0.10614,0.0548 -0.30546,0.12145 -0.43375,0.18263 -0.12806,0.0639 -0.28034,0.14154 -0.31961,0.1598 -0.23307,0.10867 -0.31894,0.16346 -0.36526,0.18263 -0.11898,0.0457 -0.39785,0.1799 -0.50224,0.22829 -0.14711,0.0731 -0.20647,0.0667 -0.4794,0.18263 -0.12595,0.0548 -0.26245,0.1452 -0.29678,0.15981 -0.0343,0.0183 -0.13168,0.032 -0.22829,0.0685 -0.33417,0.1452 -0.71693,0.31596 -0.79901,0.34244 -0.0298,0.009 -0.11399,0.0411 -0.18263,0.0685 -0.1536,0.0639 -0.81604,0.31596 -0.89033,0.34244 -0.0295,0.009 -0.0739,0.0274 -0.11415,0.0457 -0.0404,0.0183 -0.0729,0.0228 -0.0913,0.0228 -0.0182,0 -0.0681,0.0274 -0.11415,0.0457 -0.10191,0.0457 -0.51203,0.21642 -0.73052,0.29678 -0.088,0.0274 -0.1924,0.0502 -0.25112,0.0685 -0.0588,0.0183 -0.21493,0.073 -0.31961,0.11414 -0.23891,0.0922 -0.37339,0.16985 -0.68487,0.27395 -0.13698,0.0457 -0.37595,0.12327 -0.54789,0.18263 -0.42953,0.14976 -0.59439,0.17898 -0.75336,0.22829 -0.0747,0.0183 -0.18152,0.0593 -0.20546,0.0685 -0.042,0.009 -0.0573,0.0183 -0.36526,0.11414 -0.078,0.0274 -0.22851,0.0831 -0.3196,0.11415 -0.0909,0.0274 -0.19908,0.0822 -0.25112,0.0913 -0.0519,0.0183 -0.16975,0.0411 -0.29678,0.0685 -0.12685,0.0365 -0.34267,0.0913 -0.43375,0.11414 -0.0907,0.0274 -0.18886,0.0137 -0.22829,0.0228 -0.0836,0.009 -0.0858,0.0639 -0.18263,0.0913 -0.0417,0.009 -0.19588,0.0411 -0.34243,0.0685 -0.14635,0.0274 -0.31581,0.0502 -0.41092,0.0685 -0.0949,0.0183 -0.21255,0.0548 -0.22829,0.0457 -0.0155,0 -0.0304,-0.009 -0.0457,0 -0.0572,0.0365 -0.62593,0.0502 -0.75336,0.0228 -0.0727,-0.009 -0.13062,0 -0.13697,0 -0.0154,0.009 -0.13153,-0.074 -0.1598,-0.11415 -0.0121,-0.0183 -0.0429,-0.074 -0.0457,-0.11414 -9.1e-4,-0.0365 0.0341,-0.0831 0.0457,-0.11415 0.012,-0.0274 0.0311,-0.0731 0.0457,-0.11414 0.0244,-0.0639 0.10339,-0.17533 0.34243,-0.52507 0.0433,-0.0639 0.0971,-0.14975 0.11414,-0.1598 0.0171,-0.009 0.0106,-0.005 0.0228,-0.0228 0.031,-0.0548 0.24381,-0.30591 0.3881,-0.45658 0.0662,-0.073 0.14508,-0.13788 0.18263,-0.18263 0.0376,-0.0457 0.094,-0.0995 0.11414,-0.11414 0.02,-0.0183 0.0387,-0.0365 0.0457,-0.0457 0.006,-0.009 0.0351,-0.0411 0.0685,-0.0685 0.0336,-0.0274 0.0858,-0.0831 0.11414,-0.11414 0.0289,-0.0274 0.0655,-0.0548 0.0685,-0.0457 0.003,0 0.0311,-0.005 0.0457,-0.0228 0.0152,-0.0274 0.0798,-0.10684 0.1598,-0.18263 0.0798,-0.0731 0.16502,-0.1872 0.18263,-0.20546 0.0178,-0.0183 0.0993,-0.0584 0.18263,-0.13697 0.0832,-0.0731 0.28204,-0.29404 0.45658,-0.45658 0.53912,-0.50407 0.62012,-0.56068 0.63921,-0.52507 0.0106,0.0183 0.0692,0.0776 0.11414,0.13697 0.45668,0.60451 0.72796,0.89307 0.79902,0.8675 0.0397,-0.0183 0.0274,-0.18537 -0.0457,-0.34243 -0.0235,-0.0548 -0.05,-0.0959 -0.0685,-0.13697 -0.0186,-0.0365 -0.10432,-0.1662 -0.1598,-0.27395 -0.0555,-0.10775 -0.11506,-0.25295 -0.13697,-0.29678 -0.0217,-0.0456 -0.0768,-0.11779 -0.11415,-0.18263 l -0.0457,-0.11414 0.0685,-0.0913 c 0.0417,-0.0365 0.28644,-0.23651 0.57072,-0.47941 0.28428,-0.2429 0.57737,-0.4721 0.61639,-0.50223 0.0387,-0.0274 0.1474,-0.11506 0.22829,-0.18264 0.19841,-0.16619 0.26524,-0.22737 0.41092,-0.34243 0.068,-0.0548 0.18514,-0.13971 0.29677,-0.22829 0.11189,-0.0913 0.22734,-0.18172 0.22829,-0.18263 0.003,0 0.0461,0.0731 0.11415,0.1598 0.29984,0.37257 0.63574,0.71409 0.79901,0.82184 0.0881,0.0548 0.10703,0.0731 0.13697,0.0457 0.0853,-0.0731 0.0132,-0.37896 -0.3196,-1.07296 -0.096,-0.20089 -0.20617,-0.36252 -0.20546,-0.36526 9.1e-4,0 0.37307,-0.29586 0.52506,-0.41092 0.0445,-0.0365 0.12578,-0.0831 0.15981,-0.11415 0.0342,-0.0274 0.11036,-0.074 0.1598,-0.11414 0.0496,-0.0365 0.0955,-0.0831 0.13697,-0.11415 l 0.0913,-0.0913 0.0685,0.11414 c 0.0306,0.0457 0.0392,0.0913 0.0457,0.0913 0.006,0 0.0695,0.0867 0.13698,0.18263 0.2158,0.30408 0.65165,0.92229 0.75335,1.05013 0.30851,0.38718 0.51149,0.63465 0.57072,0.68487 0.0993,0.0822 0.14106,0.095 0.15981,0.0685 0.0689,-0.0913 -0.34954,-0.93964 -1.18711,-2.41987 l -0.0685,-0.11415 0.18263,-0.13697 c 0.15983,-0.12054 0.43798,-0.33878 1.09579,-0.79901 0.0657,-0.0457 0.22195,-0.14793 0.34243,-0.22829 0.20217,-0.13332 0.25386,-0.14519 0.27395,-0.11415 0.0106,0.0183 0.0265,0.0502 0.0457,0.0685 0.0191,0.0274 0.10492,0.15615 0.20546,0.29678 0.10069,0.14062 0.25548,0.38991 0.34243,0.50223 0.0869,0.11232 0.187,0.2429 0.22829,0.29678 0.12443,0.16437 0.35344,0.38718 0.38809,0.38809 0.0503,0 0.0514,-0.053 0,-0.20546 -0.0478,-0.13971 -0.39679,-0.81362 -0.68487,-1.34691 -0.0847,-0.15706 -0.1619,-0.28855 -0.1598,-0.29677 0.006,-0.0183 1.23364,-0.73601 1.25559,-0.73053 0.0106,0 0.0877,0.0931 0.18263,0.22829 0.2675,0.38079 0.3274,0.47393 0.61639,0.8675 0.6444,0.87663 0.95048,1.15332 0.86749,0.84467 -0.0399,-0.14884 -0.39546,-0.80632 -0.73052,-1.41539 -0.0978,-0.17807 -0.19578,-0.42188 -0.25112,-0.52507 -0.0553,-0.10227 -0.14544,-0.20272 -0.1598,-0.22829 -0.0257,-0.0457 -0.002,-0.032 0.0913,-0.0685 0.38099,-0.16071 0.56899,-0.24107 0.77619,-0.22828 z m -0.13698,26.02499 c 3.1174,0 5.66158,2.52123 5.66158,5.63875 0,3.11752 -2.54418,5.66157 -5.66158,5.66157 -3.11741,0 -5.63874,-2.54405 -5.63874,-5.66157 0,-3.11752 2.52133,-5.63875 5.63874,-5.63875 z m 0,19.35894 c 3.1174,0 5.66158,2.52123 5.66158,5.63875 0,3.11752 -2.54418,5.66157 -5.66158,5.66157 -3.11741,0 -5.63874,-2.54405 -5.63874,-5.66157 0,-3.11752 2.52133,-5.63875 5.63874,-5.63875 z"
     id="path10-5"
     inkscape:connector-curvature="0" />
  <path
     style="fill:#000000;stroke:none"
     d="m 133.87309,15.024899 c -1.41713,-0.0062 -2.84271,0.202381 -4.26901,0.63921 -6.96226,2.132315 -11.15069,9.057519 -10.02191,16.048746 l -0.20546,0 -9.08592,13.902824 c -4.98937,7.710703 -11.632311,17.400218 -14.656177,21.482033 -6.198916,8.316126 -7.415242,15.572994 -3.333025,19.655714 3.47745,3.62798 53.686222,3.62798 57.163672,0 4.08221,-4.08272 2.85989,-10.439214 -4.24619,-20.568872 -3.62864,-5.291748 -7.70234,-11.337765 -9.06309,-13.606048 l -2.57967,-3.926578 6.96283,-4.839735 7.0998,-4.839735 4.99954,2.716643 c 4.68698,2.418955 5.28887,2.427173 8.76631,0.159803 8.20223,-5.291748 4.23413,-16.599379 -3.97223,-16.710784 -1.17234,-0.01826 -2.42101,0.193589 -3.74395,0.684868 -1.81432,0.756094 -3.76978,2.269197 -4.22335,3.629801 -0.20665,0.495974 -0.60958,0.876036 -1.30125,1.187105 0.14848,-1.775765 -0.0168,-3.624616 -0.57073,-5.433287 -1.89292,-6.180641 -7.5793,-10.154994 -13.72019,-10.181708 z m -0.13697,4.337499 c 4.60425,0.01929 8.85332,2.989384 10.27302,7.624866 0.45307,1.479335 0.56062,2.98397 0.38809,4.428814 -2.34803,0.222353 -5.65659,0.296777 -10.50131,0.296777 l -10.86658,0 c -0.76849,-5.194139 2.31329,-10.286236 7.4879,-11.871049 1.06972,-0.327622 2.15636,-0.483859 3.21888,-0.479408 z m 8.1271,14.610522 0,5.182169 -0.1598,-0.02283 -4.40599,2.967762 -4.36033,3.036249 0.52507,0.799013 -8.14993,-11.345983 7.80749,0 c 5.03021,0 7.53472,-0.155237 8.74349,-0.616381 z M 121.34,40.091076 c 0.0572,0.01141 0.0992,0.04566 0.13698,0.09132 0.75597,0.756095 5.45206,7.713443 10.59262,15.272561 l 9.3827,14.062628 -20.56888,0 -20.56887,0 4.38315,-6.506248 c 2.4191,-3.477305 6.95239,-10.283068 9.97625,-15.272561 2.77818,-4.233399 5.45606,-7.40023 6.48342,-7.624866 0.0734,-0.01826 0.12538,-0.03424 0.18263,-0.02283 z m -0.61638,33.946634 c 21.62062,0 24.94942,0.303168 25.70539,2.419868 0.60477,1.360608 0.60477,3.793258 0,5.456118 -0.75597,2.57054 -2.41604,2.72303 -26.00217,2.41987 -22.981355,-0.45293 -25.251801,-0.75336 -25.705385,-3.17323 -1.360736,-6.803021 -0.30544,-7.122626 26.002165,-7.122626 z"
     id="path3231"
     inkscape:connector-curvature="0" />
  <path
     style="fill:#000000;stroke:none"
     d="m 43.984843,17.344898 c -1.417128,-0.0062 -2.86554,0.20238 -4.291841,0.63921 -7.606941,2.329758 -11.872255,10.382263 -9.542497,17.989205 0.0089,0.02897 0.01379,0.06243 0.02283,0.09132 l 0.273948,0 c 0.503176,1.599157 1.486107,3.709632 2.944933,6.392103 3.175058,5.745588 3.323638,6.044188 0.753355,7.556379 -11.1883,6.19851 -22.21256,23.725657 -22.21256,35.065249 0,15.270736 10.26958,21.330446 35.065252,20.272096 19.201532,-0.60451 24.944588,-3.33668 28.422031,-13.012498 1.814327,-5.291744 1.831538,-7.549983 0.319605,-13.446241 C 73.320806,69.517245 64.853773,57.116564 57.294115,51.9764 l -5.752893,-4.08638 3.629802,-5.296314 C 58.446568,37.679901 59.498315,34.617015 58.27576,33.074038 58.441683,31.263098 58.2479,29.39649 57.682207,27.549434 55.789278,21.368793 50.125731,17.371611 43.984843,17.344898 z m -0.136973,4.337498 c 4.604258,0.01929 8.853326,3.012214 10.273023,7.647695 0.260904,0.851885 0.410491,1.705054 0.456579,2.556842 -0.202404,-0.0032 -0.39917,-0.02827 -0.616382,-0.02283 -2.721484,0 -6.809416,-0.445621 -8.926116,-1.050132 -2.570283,-0.60451 -4.380544,-0.304994 -5.136511,0.753355 -0.604776,1.05835 -2.734633,1.357866 -5.456117,0.753355 -0.538461,-0.116461 -1.000079,-0.186424 -1.438223,-0.228289 0.163072,-4.469944 3.105672,-8.546507 7.624866,-9.930589 1.069726,-0.327622 2.15636,-0.483859 3.218881,-0.479408 z m 0.41092,30.339662 c 3.571787,0.08537 7.25352,1.723185 11.368813,4.794077 5.896532,4.535654 13.150245,15.424146 15.569337,23.28552 1.965517,6.955521 0.155244,13.007927 -5.136512,16.939077 -4.686982,3.478208 -22.085082,5.124638 -33.878147,3.310188 C 13.283133,97.629712 11.464652,80.087044 28.095901,61.792844 34.020783,55.059962 39.038488,51.89728 44.25879,52.022058 z"
     id="path3233"
     inkscape:connector-curvature="0" />
</svg>
