<?xml version="1.0" encoding="UTF-8" standalone="no"?>
<!-- Created with Inkscape (http://www.inkscape.org/) -->

<svg
   xmlns:dc="http://purl.org/dc/elements/1.1/"
   xmlns:cc="http://creativecommons.org/ns#"
   xmlns:rdf="http://www.w3.org/1999/02/22-rdf-syntax-ns#"
   xmlns:svg="http://www.w3.org/2000/svg"
   xmlns="http://www.w3.org/2000/svg"
   xmlns:sodipodi="http://sodipodi.sourceforge.net/DTD/sodipodi-0.dtd"
   xmlns:inkscape="http://www.inkscape.org/namespaces/inkscape"
   id="svg2"
   version="1.1"
   inkscape:version="0.48.4 r9939"
   width="374.95657"
   height="483.1875"
   sodipodi:docname="api.png">
  <metadata
     id="metadata8">
    <rdf:RDF>
      <cc:Work
         rdf:about="">
        <dc:format>image/svg+xml</dc:format>
        <dc:type
           rdf:resource="http://purl.org/dc/dcmitype/StillImage" />
        <dc:title></dc:title>
      </cc:Work>
    </rdf:RDF>
  </metadata>
  <defs
     id="defs6" />
  <sodipodi:namedview
     pagecolor="#ffffff"
     bordercolor="#666666"
     borderopacity="1"
     objecttolerance="10"
     gridtolerance="10"
     guidetolerance="10"
     inkscape:pageopacity="0"
     inkscape:pageshadow="2"
     inkscape:window-width="1855"
     inkscape:window-height="1056"
     id="namedview4"
     showgrid="false"
     fit-margin-top="0"
     fit-margin-left="0"
     fit-margin-right="0"
     fit-margin-bottom="0"
     inkscape:zoom="0.94969819"
     inkscape:cx="368.04767"
     inkscape:cy="145.33504"
     inkscape:window-x="65"
     inkscape:window-y="24"
     inkscape:window-maximized="1"
     inkscape:current-layer="svg2" />
  <g
     id="g3135"
     transform="translate(150.04767,89.707631)">
    <g
       id="g3114">
      <g
         id="g3092">
        <g
           id="g3082">
          <rect
             ry="12.551365"
             y="38.959743"
             x="195.95233"
             height="226.38771"
             width="28.956568"
             id="rect2989"
             style="fill:#ff7f2a;stroke:none" />
          <rect
             style="fill:#ff7f2a;stroke:none"
             id="rect2991"
             width="28.956568"
             height="226.38771"
             x="49.303467"
             y="-6.7487092"
             ry="12.551365"
             transform="matrix(0.50704594,-0.86191903,0.86191903,0.50704594,0,0)" />
          <rect
             transform="matrix(-0.50704594,-0.86191903,-0.86191903,0.50704594,0,0)"
             ry="12.551365"
             y="-65.499245"
             x="-340.28079"
             height="226.38771"
             width="28.956568"
             id="rect2997"
             style="fill:#ff7f2a;stroke:none" />
        </g>
        <g
           id="g3087">
          <rect
             style="fill:#ff7f2a;stroke:none"
             id="rect2987"
             width="28.956568"
             height="226.38771"
             x="-150.04767"
             y="38.959743"
             ry="12.551365" />
          <rect
             transform="matrix(-0.50704594,-0.86191903,-0.86191903,0.50704594,0,0)"
             ry="12.551365"
             y="-75.853142"
             x="8.6514635"
             height="226.38771"
             width="28.956568"
             id="rect2993"
             style="fill:#ff7f2a;stroke:none" />
          <rect
             style="fill:#ff7f2a;stroke:none"
             id="rect2999"
             width="28.956568"
             height="226.38771"
             x="-299.62741"
             y="3.6051116"
             ry="12.551365"
             transform="matrix(0.50704594,-0.86191903,0.86191903,0.50704594,0,0)" />
        </g>
      </g>
      <g
         id="g3102">
        <g
           transform="translate(-177.95127,-96.872881)"
           id="g3027">
          <path
             sodipodi:type="arc"
             style="fill:#ff7f2a;stroke:none"
             id="path3010"
             sodipodi:cx="222.43909"
             sodipodi:cy="70.285484"
             sodipodi:rx="46.067268"
             sodipodi:ry="46.067268"
             d="m 268.50636,70.285484 c 0,25.44225 -20.62502,46.067266 -46.06727,46.067266 -25.44225,0 -46.06727,-20.625016 -46.06727,-46.067266 0,-25.442249 20.62502,-46.067268 46.06727,-46.067268 25.44225,0 46.06727,20.625019 46.06727,46.067268 z"
             transform="matrix(1.0114286,0,0,1.0114286,-8.542161,-17.329746)" />
          <g
             id="g3016"
             style="fill:#ffffff">
            <path
               sodipodi:type="arc"
               style="fill:#ffffff;stroke:none"
               id="path3014"
               sodipodi:cx="222.43909"
               sodipodi:cy="70.285484"
               sodipodi:rx="46.067268"
               sodipodi:ry="46.067268"
               d="m 268.50636,70.285484 c 0,25.44225 -20.62502,46.067266 -46.06727,46.067266 -25.44225,0 -46.06727,-20.625016 -46.06727,-46.067266 0,-25.442249 20.62502,-46.067268 46.06727,-46.067268 25.44225,0 46.06727,20.625019 46.06727,46.067268 z"
               transform="matrix(0.78857146,0,0,0.78857146,40.972244,-1.6083908)" />
          </g>
        </g>
      </g>
      <g
         id="g3108">
        <g
           transform="translate(-177.95127,-96.872881)"
           id="g3032">
          <path
             transform="matrix(1.0114286,0,0,1.0114286,-8.5421611,372.67025)"
             d="m 268.50636,70.285484 c 0,25.44225 -20.62502,46.067266 -46.06727,46.067266 -25.44225,0 -46.06727,-20.625016 -46.06727,-46.067266 0,-25.442249 20.62502,-46.067268 46.06727,-46.067268 25.44225,0 46.06727,20.625019 46.06727,46.067268 z"
             sodipodi:ry="46.067268"
             sodipodi:rx="46.067268"
             sodipodi:cy="70.285484"
             sodipodi:cx="222.43909"
             id="path3012"
             style="fill:#ff7f2a;stroke:none"
             sodipodi:type="arc" />
          <g
             id="g3019"
             transform="translate(0,390)">
            <path
               transform="matrix(0.78857146,0,0,0.78857146,40.972244,-1.6083908)"
               d="m 268.50636,70.285484 c 0,25.44225 -20.62502,46.067266 -46.06727,46.067266 -25.44225,0 -46.06727,-20.625016 -46.06727,-46.067266 0,-25.442249 20.62502,-46.067268 46.06727,-46.067268 25.44225,0 46.06727,20.625019 46.06727,46.067268 z"
               sodipodi:ry="46.067268"
               sodipodi:rx="46.067268"
               sodipodi:cy="70.285484"
               sodipodi:cx="222.43909"
               id="path3021"
               style="fill:#ffffff;stroke:none"
               sodipodi:type="arc" />
          </g>
        </g>
      </g>
    </g>
    <text
       transform="scale(0.92511508,1.0809466)"
       sodipodi:linespacing="125%"
       id="text3023"
       y="204.56412"
       x="-118.47269"
       style="font-size:176.10958862px;font-style:normal;font-variant:normal;font-weight:normal;font-stretch:normal;line-height:125%;letter-spacing:0px;word-spacing:0px;fill:#ff7f2a;fill-opacity:1;stroke:none;font-family:SODA;-inkscape-font-specification:SODA"
       xml:space="preserve"><tspan
         y="204.56412"
         x="-118.47269"
         id="tspan3025"
         sodipodi:role="line">API</tspan></text>
  </g>
</svg>
