<?xml version="1.0" encoding="UTF-8" standalone="no"?>
<!-- Created with Inkscape (http://www.inkscape.org/) -->

<svg
   xmlns:dc="http://purl.org/dc/elements/1.1/"
   xmlns:cc="http://creativecommons.org/ns#"
   xmlns:rdf="http://www.w3.org/1999/02/22-rdf-syntax-ns#"
   xmlns:svg="http://www.w3.org/2000/svg"
   xmlns="http://www.w3.org/2000/svg"
   xmlns:sodipodi="http://sodipodi.sourceforge.net/DTD/sodipodi-0.dtd"
   xmlns:inkscape="http://www.inkscape.org/namespaces/inkscape"
   id="svg2"
   version="1.1"
   inkscape:version="0.48.4 r9939"
   width="374.95657"
   height="483.1875"
   sodipodi:docname="api.svg">
  <metadata
     id="metadata8">
    <rdf:RDF>
      <cc:Work
         rdf:about="">
        <dc:format>image/svg+xml</dc:format>
        <dc:type
           rdf:resource="http://purl.org/dc/dcmitype/StillImage" />
        <dc:title />
      </cc:Work>
    </rdf:RDF>
  </metadata>
  <defs
     id="defs6" />
  <sodipodi:namedview
     pagecolor="#ffffff"
     bordercolor="#666666"
     borderopacity="1"
     objecttolerance="10"
     gridtolerance="10"
     guidetolerance="10"
     inkscape:pageopacity="0"
     inkscape:pageshadow="2"
     inkscape:window-width="1920"
     inkscape:window-height="1017"
     id="namedview4"
     showgrid="false"
     fit-margin-top="0"
     fit-margin-left="0"
     fit-margin-right="0"
     fit-margin-bottom="0"
     inkscape:zoom="1.3430761"
     inkscape:cx="187.46398"
     inkscape:cy="239.14953"
     inkscape:window-x="-8"
     inkscape:window-y="-8"
     inkscape:window-maximized="1"
     inkscape:current-layer="svg2" />
  <rect
     style="fill:#800080;fill-opacity:1;fill-rule:nonzero;stroke:none"
     id="rect3004"
     width="757.08264"
     height="642.30933"
     x="-213.75212"
     y="-78.043434" />
  <g
     id="g3082"
     transform="translate(150.04767,89.707631)">
    <rect
       style="fill:#ff7f2a;stroke:none"
       id="rect2989"
       width="28.956568"
       height="226.38771"
       x="195.95233"
       y="38.959743"
       ry="12.551365" />
    <rect
       transform="matrix(0.50704594,-0.86191903,0.86191903,0.50704594,0,0)"
       ry="12.551365"
       y="-6.7487092"
       x="49.303467"
       height="226.38771"
       width="28.956568"
       id="rect2991"
       style="fill:#ff7f2a;stroke:none" />
    <rect
       style="fill:#ff7f2a;stroke:none"
       id="rect2997"
       width="28.956568"
       height="226.38771"
       x="-340.28079"
       y="-65.499245"
       ry="12.551365"
       transform="matrix(-0.50704594,-0.86191903,-0.86191903,0.50704594,0,0)" />
  </g>
  <g
     id="g3087"
     transform="translate(150.04767,89.707631)">
    <rect
       ry="12.551365"
       y="38.959743"
       x="-150.04767"
       height="226.38771"
       width="28.956568"
       id="rect2987"
       style="fill:#ff7f2a;stroke:none" />
    <rect
       style="fill:#ff7f2a;stroke:none"
       id="rect2993"
       width="28.956568"
       height="226.38771"
       x="8.6514635"
       y="-75.853142"
       ry="12.551365"
       transform="matrix(-0.50704594,-0.86191903,-0.86191903,0.50704594,0,0)" />
    <rect
       transform="matrix(0.50704594,-0.86191903,0.86191903,0.50704594,0,0)"
       ry="12.551365"
       y="3.6051116"
       x="-299.62741"
       height="226.38771"
       width="28.956568"
       id="rect2999"
       style="fill:#ff7f2a;stroke:none" />
  </g>
  <g
     id="g3102"
     transform="translate(150.04767,89.707631)">
    <g
       transform="translate(-177.95127,-96.872881)"
       id="g3027">
      <path
         sodipodi:type="arc"
         style="fill:#ff7f2a;stroke:none"
         id="path3010"
         sodipodi:cx="222.43909"
         sodipodi:cy="70.285484"
         sodipodi:rx="46.067268"
         sodipodi:ry="46.067268"
         d="m 268.50636,70.285484 c 0,25.44225 -20.62502,46.067266 -46.06727,46.067266 -25.44225,0 -46.06727,-20.625016 -46.06727,-46.067266 0,-25.442249 20.62502,-46.067268 46.06727,-46.067268 25.44225,0 46.06727,20.625019 46.06727,46.067268 z"
         transform="matrix(1.0114286,0,0,1.0114286,-8.542161,-17.329746)" />
      <g
         id="g3016"
         style="fill:#ffffff">
        <path
           sodipodi:type="arc"
           style="fill:#ffffff;stroke:none"
           id="path3014"
           sodipodi:cx="222.43909"
           sodipodi:cy="70.285484"
           sodipodi:rx="46.067268"
           sodipodi:ry="46.067268"
           d="m 268.50636,70.285484 c 0,25.44225 -20.62502,46.067266 -46.06727,46.067266 -25.44225,0 -46.06727,-20.625016 -46.06727,-46.067266 0,-25.442249 20.62502,-46.067268 46.06727,-46.067268 25.44225,0 46.06727,20.625019 46.06727,46.067268 z"
           transform="matrix(0.78857146,0,0,0.78857146,40.972244,-1.6083908)" />
      </g>
    </g>
  </g>
  <text
     xml:space="preserve"
     style="font-size:176.10958862px;font-style:normal;font-variant:normal;font-weight:normal;font-stretch:normal;line-height:125%;letter-spacing:0px;word-spacing:0px;fill:#ff7f2a;fill-opacity:1;stroke:none;font-family:SODA;-inkscape-font-specification:SODA"
     x="67.501648"
     y="287.55399"
     id="text3023"
     sodipodi:linespacing="125%"
     transform="scale(0.92511508,1.0809466)"><tspan
       sodipodi:role="line"
       id="tspan3025"
       x="67.501648"
       y="287.55399">API</tspan></text>
  <path
     sodipodi:type="arc"
     style="fill:#000000;stroke:none;fill-rule:evenodd;fill-opacity:1"
     id="path3829"
     sodipodi:cx="222.43909"
     sodipodi:cy="70.285484"
     sodipodi:rx="46.067268"
     sodipodi:ry="46.067268"
     d="m 268.50636,70.285484 a 46.067268,46.067268 0 1 1 -92.13454,0 46.067268,46.067268 0 1 1 92.13454,0 z"
     transform="matrix(1.0114286,0,0,1.0114286,512.14958,348.65754)" />
  <g
     style="fill:#e09797;fill-opacity:1;fill-rule:evenodd;stroke:none"
     transform="translate(520.69174,365.98729)"
     id="g3831">
    <path
       sodipodi:type="arc"
       style="fill:#e09797;fill-opacity:1;stroke:none;fill-rule:evenodd"
       id="path3833"
       sodipodi:cx="222.43909"
       sodipodi:cy="70.285484"
       sodipodi:rx="46.067268"
       sodipodi:ry="46.067268"
       d="m 268.50636,70.285484 c 0,25.44225 -20.62502,46.067266 -46.06727,46.067266 -25.44225,0 -46.06727,-20.625016 -46.06727,-46.067266 0,-25.442249 20.62502,-46.067268 46.06727,-46.067268 25.44225,0 46.06727,20.625019 46.06727,46.067268 z"
       transform="matrix(0.78857146,0,0,0.78857146,40.972244,-1.6083908)" />
  </g>
  <path
     inkscape:connector-curvature="0"
     style="fill:#e96a19;fill-opacity:1;fill-rule:nonzero;stroke:none"
     d="m 189.95443,390.63824 c -25.52355,0 -46.1875,20.6952 -46.1875,46.21875 0,25.52355 20.66395,46.21875 46.1875,46.21875 25.52355,0 46.21875,-20.6952 46.21875,-46.21875 0,-25.52355 -20.6952,-46.21875 -46.21875,-46.21875 z m -0.0937,9.15625 c 20.50252,0 37.125,16.62248 37.125,37.125 0,20.50252 -16.62248,37.125 -37.125,37.125 -20.50252,0 -37.125,-16.62248 -37.125,-37.125 0,-20.50252 16.62248,-37.125 37.125,-37.125 z"
     id="path2996" />
</svg>
