<?xml version="1.0" encoding="UTF-8" standalone="no"?>
<svg
   xmlns:osb="http://www.openswatchbook.org/uri/2009/osb"
   xmlns:dc="http://purl.org/dc/elements/1.1/"
   xmlns:cc="http://creativecommons.org/ns#"
   xmlns:rdf="http://www.w3.org/1999/02/22-rdf-syntax-ns#"
   xmlns:svg="http://www.w3.org/2000/svg"
   xmlns="http://www.w3.org/2000/svg"
   xmlns:sodipodi="http://sodipodi.sourceforge.net/DTD/sodipodi-0.dtd"
   xmlns:inkscape="http://www.inkscape.org/namespaces/inkscape"
   version="1.1"
   width="720px"
   height="490px"
   preserveAspectRatio="xMinYMin meet"
   viewport="0 0 720 490"
   id="svg2"
   inkscape:version="0.48.4 r9939"
   sodipodi:docname="arduino.svg"
   inkscape:export-filename="C:\git\UI-UX\Pictures\alphabet\arduino.png"
   inkscape:export-xdpi="90"
   inkscape:export-ydpi="90">
  <metadata
     id="metadata26">
    <rdf:RDF>
      <cc:Work
         rdf:about="">
        <dc:format>image/svg+xml</dc:format>
        <dc:type
           rdf:resource="http://purl.org/dc/dcmitype/StillImage" />
        <dc:title></dc:title>
      </cc:Work>
    </rdf:RDF>
  </metadata>
  <defs
     id="defs24">
    <linearGradient
       inkscape:collect="always"
       id="linearGradient3842"
       osb:paint="gradient">
      <stop
         style="stop-color:#000000;stop-opacity:1;"
         offset="0"
         id="stop3844" />
      <stop
         style="stop-color:#000000;stop-opacity:0;"
         offset="1"
         id="stop3846" />
    </linearGradient>
  </defs>
  <sodipodi:namedview
     pagecolor="#ffffff"
     bordercolor="#666666"
     borderopacity="1"
     objecttolerance="10"
     gridtolerance="10"
     guidetolerance="10"
     inkscape:pageopacity="0"
     inkscape:pageshadow="2"
     inkscape:window-width="1920"
     inkscape:window-height="1017"
     id="namedview22"
     showgrid="false"
     inkscape:zoom="0.43576851"
     inkscape:cx="-170.735"
     inkscape:cy="245"
     inkscape:window-x="-8"
     inkscape:window-y="-8"
     inkscape:window-maximized="1"
     inkscape:current-layer="svg2" />
  <g
     id="g3826"
     style="stroke:none;stroke-opacity:1;fill-opacity:1;fill-rule:evenodd;">
    <path
       inkscape:connector-curvature="0"
       d="M 165.60697,-1.5739384 C 141.07544,0.201608 118.21075,6.5066094 96.614307,17.377301 63.132576,34.26311 36.897972,60.062885 19.939693,92.747433 12.98245,106.15462 8.0906384,120.03287 4.6482526,136.08526 l -1.5218969,7.06595 -0.1449425,24.38658 -0.1087069,24.42282 0.9421266,5.58029 c 4.130863,24.56777 14.6029631,49.24424 29.7856961,70.07973 16.306038,22.42986 37.540123,40.3665 62.977542,53.26639 16.668399,8.44291 35.692109,14.53049 53.809929,17.21193 12.64624,1.88425 34.35138,2.82638 47.43245,2.06543 32.39466,-1.88425 59.71633,-10.72575 85.80599,-27.82897 27.03179,-17.71923 51.70826,-44.42489 77.83416,-84.32033 1.41319,-2.13791 2.6452,-3.84098 2.79014,-3.76851 0.14495,0.0362 2.86262,3.94968 6.05136,8.66032 10.50833,15.58132 20.25572,28.48121 30.18428,39.96791 5.50782,6.34124 18.62512,19.49477 24.38659,24.42282 22.35739,19.13242 46.41785,31.70619 72.83364,38.08366 17.64675,4.2758 31.77865,5.50782 54.20851,4.7831 14.0232,-0.47106 19.56725,-0.94212 28.58992,-2.46402 24.78518,-4.13086 48.37458,-13.37095 69.42749,-27.17673 22.39363,-14.71167 42.28699,-35.83705 55.29559,-58.84668 25.11129,-44.35242 28.80733,-96.56798 10.18221,-143.85549 C 698.0897,63.831392 661.81782,28.066815 616.74068,10.528765 593.76729,1.5785623 570.54024,-2.4435937 545.35647,-1.8638235 514.80983,-1.1391107 487.70557,5.238362 462.55804,17.594715 427.91676,34.661702 398.74707,61.693489 368.2729,105.03131 l -4.02216,5.689 -3.73227,-5.32664 C 339.42933,75.245618 318.30395,52.489637 296.05527,36.00242 286.16294,28.682821 277.10403,23.138768 266.16087,17.775893 244.52819,7.1226152 222.60563,1.107499 196.58844,-1.2478176 190.71826,-1.7913522 171.18725,-2.008766 165.60697,-1.5739384 z m 30.80029,61.0208174 c 22.17621,2.717673 40.33027,9.31256 57.79585,20.9442 24.02422,16.016153 46.01926,41.236161 72.43504,83.124561 l 2.1379,3.36991 -6.305,10.03727 c -11.41423,18.26277 -21.16161,32.61208 -29.49581,43.4103 -29.67699,38.51849 -57.75961,56.16524 -94.35761,59.28151 -6.88477,0.57977 -27.68403,0.25365 -34.46009,-0.57977 -14.38555,-1.70308 -27.39414,-5.58029 -39.8592,-11.84906 -12.13894,-6.08758 -20.50938,-12.1027 -29.930643,-21.48773 -3.442386,-3.36992 -7.573248,-7.86313 -9.203852,-9.9648 -18.733826,-23.87929 -26.488253,-52.68662 -22.248683,-82.43608 0.797184,-5.47158 3.333679,-15.32768 5.435346,-21.01667 0.942126,-2.60897 3.080029,-7.42831 4.746869,-10.76199 17.393107,-34.822449 52.867803,-58.593029 93.234303,-62.57895 5.36287,-0.543534 24.31411,-0.217413 30.07558,0.507299 z m 366.5235,-0.362356 c 22.39362,2.391552 42.21452,10.109744 59.75257,23.335752 27.79273,20.980435 44.06254,52.940275 44.06254,86.639415 0,17.10322 -3.94969,33.26432 -11.92153,48.77317 -16.23357,31.59748 -47.83104,54.28099 -83.92174,60.25987 -8.66032,1.44943 -11.95776,1.6306 -27.17673,1.66684 -16.01615,0 -18.69759,-0.21741 -28.22756,-2.21037 -28.80734,-6.08759 -52.50545,-22.61104 -77.39933,-53.95487 -9.42127,-11.88529 -18.77006,-25.47366 -31.81489,-46.30915 l -6.55865,-10.43586 3.29744,-5.14546 c 31.19888,-48.80941 55.44053,-74.319302 84.9001,-89.248386 14.78414,-7.464542 31.16265,-11.993997 48.91812,-13.515894 6.19629,-0.507299 20.54561,-0.434827 26.08966,0.144943 z"
       id="path8"
       style="stroke:none;stroke-opacity:1;fill-opacity:1;fill-rule:evenodd;" />
    <path
       inkscape:connector-curvature="0"
       d="m 122.37785,151.19552 c -0.14495,0.10871 -0.25365,6.08759 -0.25365,13.22601 l 0,12.97236 60.69469,0 60.6947,0 -0.0725,-13.15354 -0.10871,-13.1173 -60.36857,-0.10871 c -33.19185,-0.0362 -60.47729,0.0362 -60.58599,0.18118 z"
       id="path10"
       style="stroke:none;stroke-opacity:1;fill-opacity:1;fill-rule:evenodd;" />
    <path
       inkscape:connector-curvature="0"
       d="m 524.3398,130.83109 0,16.48722 -16.30604,0 -16.30603,0 0,16.84957 0,16.84957 16.30603,0 16.30604,0 0,16.48722 0,16.48721 17.03075,0 17.03075,0 0,-16.48721 0,-16.48722 16.48722,0 16.48722,0 0,-16.84957 0,-16.84957 -16.48722,0 -16.48722,0 0,-16.48722 0,-16.48722 -17.03075,0 -17.03075,0 0,16.48722 z"
       id="path12"
       style="stroke:none;stroke-opacity:1;fill-opacity:1;fill-rule:evenodd;" />
    <path
       inkscape:connector-curvature="0"
       d="m 683.0519,12.702904 0,1.630604 2.71768,0 2.71767,0 0,6.884771 0,6.884772 1.81178,0 1.81178,0 0,-6.884772 0,-6.884771 2.5365,0 2.53649,0 0,-1.630604 0,-1.630604 -7.06595,0 -7.06595,0 0,1.630604 z"
       id="path14"
       style="stroke:none;stroke-opacity:1;fill-opacity:1;fill-rule:evenodd;" />
    <path
       inkscape:connector-curvature="0"
       d="m 698.27087,19.587675 0,8.515376 1.63061,0 1.6306,0 0.0362,-5.362875 0.0362,-5.326639 1.70308,5.254168 1.70307,5.254168 1.59437,0 1.59437,0 1.48566,-4.855576 1.44943,-4.81934 0.18117,4.81934 0.18118,4.855576 1.73931,0.108707 1.70308,0.108706 0,-8.551611 0,-8.551611 -2.42779,0.108707 -2.46402,0.108707 -1.63061,5.326639 c -0.90589,2.971323 -1.70307,5.362875 -1.84801,5.362875 -0.10871,0 -0.97837,-2.464024 -1.92049,-5.435346 l -1.70308,-5.435346 -2.31908,0 -2.35532,0 0,8.515375 z"
       id="path16"
       style="stroke:none;stroke-opacity:1;fill-opacity:1;fill-rule:evenodd;" />
    <path
       inkscape:connector-curvature="0"
       d="m 672.36239,369.84137 c -24.0967,3.26121 -39.13449,20.98044 -42.21452,49.60659 -0.54353,4.81934 -0.54353,17.82794 0,22.93716 3.26121,31.81489 19.53101,48.44705 47.46869,48.44705 19.60348,0 34.67751,-8.91396 42.93923,-25.32871 3.11627,-6.26876 5.50782,-14.38555 6.52242,-22.24868 0.76095,-5.83394 0.72471,-21.70515 0,-27.79274 -3.22497,-25.83601 -15.18274,-40.76509 -36.05446,-44.96843 -4.0584,-0.83342 -14.71167,-1.19577 -18.66136,-0.65224 z m 12.64624,22.28492 c 6.70359,1.73931 11.37799,6.8123 13.95072,15.18273 3.6598,11.84906 3.58733,35.18481 -0.10871,46.09174 -1.44942,4.20333 -3.44238,7.68195 -5.83393,10.07351 -3.94969,3.94968 -7.86314,5.39911 -14.49426,5.32663 -10.68951,-0.0725 -16.92204,-5.21793 -20.25572,-16.81333 -1.55814,-5.39911 -2.10167,-9.9648 -2.28285,-19.56725 -0.25365,-12.32012 0.57977,-19.67595 3.00756,-26.37954 2.6452,-7.39207 7.39207,-12.24765 13.58836,-13.91449 2.71768,-0.72471 9.60245,-0.72471 12.42883,0 z"
       id="path18"
       style="stroke:none;stroke-opacity:1;fill-opacity:1;fill-rule:evenodd;" />
    <path
       inkscape:connector-curvature="0"
       d="m 27.585413,429.66641 c -9.856094,32.14102 -17.9004064,58.59303 -17.9366421,58.81045 -0.036236,0.21741 4.2758051,0.36235 12.2838821,0.36235 l 12.320117,0 2.608967,-8.87773 c 1.449425,-4.89181 2.971322,-9.9648 3.369914,-11.30552 l 0.760949,-2.46402 19.85713,0 19.857131,0 3.261208,11.30552 3.261207,11.34175 13.660834,0.10871 c 7.50078,0.0362 13.6246,-0.0362 13.6246,-0.14494 0,-0.10871 -7.9356,-26.08966 -17.610518,-57.72338 -9.711151,-31.59747 -17.791699,-58.01326 -17.972877,-58.6655 l -0.326121,-1.15954 -16.559688,0 -16.595923,0 -17.86417,58.41185 z m 40.511445,-7.46454 6.776065,23.51693 -13.733308,0.10871 c -7.573248,0.0362 -13.805778,0.0362 -13.87825,-0.0362 -0.07247,-0.0362 2.898851,-10.36339 6.594887,-22.90092 3.659799,-12.57377 6.776064,-23.19081 6.884771,-23.66187 0.144943,-0.47107 0.289885,-0.76095 0.398592,-0.68848 0.07247,0.10871 3.188737,10.72575 6.957243,23.66187 z"
       id="path20"
       style="stroke:none;stroke-opacity:1;fill-opacity:1;fill-rule:evenodd;" />
    <path
       inkscape:connector-curvature="0"
       d="m 124.11716,371.65315 c -0.10871,0.28989 -0.14494,26.74191 -0.10871,58.84668 l 0.10871,58.33938 12.32012,0 12.32011,0 0.10871,-23.84305 0.0725,-23.80681 2.28285,0 c 6.59488,0 11.41422,2.31908 14.45802,6.95724 0.72471,1.05083 5.25416,10.68951 10.0735,21.37903 l 8.8415,19.49477 14.42179,0 c 7.9356,0 14.42178,-0.10871 14.42178,-0.25365 0,-0.39859 -19.89337,-40.62015 -21.66891,-43.77265 -2.82638,-5.07299 -6.23253,-9.20385 -9.09515,-11.08811 -0.86965,-0.54353 -0.83342,-0.57977 1.99296,-1.55813 8.22549,-2.89885 13.80578,-7.68196 17.03075,-14.53049 2.17414,-4.6744 2.50026,-6.48618 2.46403,-13.95072 0,-6.23253 -0.0725,-6.92101 -0.97837,-9.89233 -1.66684,-5.47158 -3.47862,-8.51538 -7.28336,-12.24765 -5.00052,-4.96428 -12.5013,-8.08055 -23.19081,-9.60244 -5.68899,-0.83342 -48.30211,-1.23201 -48.59199,-0.47107 z m 43.22912,21.12538 c 6.921,1.77555 10.0735,5.00052 10.94316,11.16058 0.97836,6.8123 -1.99296,12.46506 -8.08055,15.36391 -3.87721,1.84802 -6.77606,2.35532 -14.45802,2.57273 l -6.8123,0.21741 0,-15.14649 0,-15.11026 8.08055,0.18117 c 5.72523,0.10871 8.69655,0.32612 10.32716,0.76095 z"
       id="path22"
       style="stroke:none;stroke-opacity:1;fill-opacity:1;fill-rule:evenodd;" />
    <path
       inkscape:connector-curvature="0"
       d="m 222.93175,430.02877 0.1087,58.81044 14.31308,0.10871 c 29.38711,0.21741 38.7359,-1.1233 50.91108,-7.24713 10.79822,-5.43534 18.84253,-14.89285 23.04586,-26.95931 2.42779,-6.99348 3.51486,-13.69708 3.84098,-23.33576 0.65224,-20.0383 -3.84098,-35.43845 -13.1173,-45.25831 -7.28336,-7.71819 -16.74087,-12.1027 -30.25676,-14.02319 -3.36991,-0.47107 -8.40667,-0.61601 -26.56072,-0.76095 l -22.35739,-0.18118 0.0725,58.84668 z m 42.32323,-37.57636 c 12.32011,1.84802 19.45853,8.87773 22.0675,21.74138 1.6306,8.04432 1.88425,20.07455 0.54353,27.72027 -1.95672,11.37799 -6.59488,18.62512 -14.63919,22.79222 -5.07299,2.6452 -10.50834,3.6598 -19.8209,3.6598 l -5.54405,0 0,-38.2286 0,-38.2286 6.99348,0 c 4.23957,0 8.29796,0.21741 10.39963,0.54353 z"
       id="path24"
       style="stroke:none;stroke-opacity:1;fill-opacity:1;fill-rule:evenodd;" />
    <path
       inkscape:connector-curvature="0"
       d="m 325.8772,414.08509 c 0.14494,46.85268 0.0362,44.78725 2.28285,52.10685 4.02215,13.15354 13.58836,20.90796 29.31463,23.77058 5.1817,0.94212 18.55265,0.94212 23.19081,0.0362 9.63868,-1.92049 16.23357,-5.10922 21.88633,-10.54457 5.9064,-5.72523 9.60244,-12.89989 11.48669,-22.50233 0.61601,-3.00756 0.68848,-6.63112 0.76095,-44.49737 l 0.14494,-41.19992 -12.32011,0 -12.32012,0 -0.14494,40.83757 c -0.14495,44.13501 -0.10871,42.79429 -2.10167,48.12093 -1.08707,2.89885 -2.06543,4.38451 -4.09463,6.26876 -3.40615,3.11627 -7.9356,4.31204 -15.36391,3.98592 -9.34879,-0.43482 -14.49426,-4.23957 -16.81334,-12.46506 l -0.83342,-2.86261 -0.18117,-41.85217 -0.18118,-41.85216 -12.42883,-0.10871 -12.42882,-0.0725 0.14494,42.83053 z"
       id="path26"
       style="stroke:none;stroke-opacity:1;fill-opacity:1;fill-rule:evenodd;" />
    <path
       inkscape:connector-curvature="0"
       d="m 434.47541,381.40054 0,10.14598 13.04483,0 13.04484,0 0,38.59096 0,38.59095 -13.04484,0 -13.04483,0 0,10.14598 0,10.14598 38.77214,0 38.77213,0 0,-10.14598 0,-10.14598 -13.04483,0 -13.04483,0 0,-38.59095 0,-38.59096 13.04483,0 13.04483,0 0,-10.14598 0,-10.14598 -38.77213,0 -38.77214,0 0,10.14598 z"
       id="path28"
       style="stroke:none;stroke-opacity:1;fill-opacity:1;fill-rule:evenodd;" />
    <path
       inkscape:connector-curvature="0"
       d="m 532.02176,430.02877 0.1087,58.81044 11.30552,0.10871 11.34176,0.0725 0.0725,-39.38814 0.10871,-39.42438 2.42779,5.43535 c 1.34071,2.97132 9.52997,20.69055 18.15405,39.31567 l 15.72627,33.88032 14.6392,0 14.6392,0 0.1087,-58.81044 0.0725,-58.77421 -11.41422,0 -11.41423,0 -0.0725,38.84461 -0.10871,38.88084 -1.37695,-3.26121 c -0.76095,-1.81178 -8.91397,-19.27736 -18.11782,-38.88084 l -16.74087,-35.5834 -14.7479,0 -14.78414,0 0.0725,58.77421 z"
       id="path30"
       style="stroke:none;stroke-opacity:1;fill-opacity:1;fill-rule:evenodd;" />
    <g
       style="stroke:none;stroke-opacity:1;fill-opacity:1;fill-rule:evenodd;"
       fill="none"
       stroke="rgb(0, 151, 156)"
       stroke-width="60"
       stroke-opacity="100%"
       id="g4">
      <path
         style="stroke:none;stroke-opacity:1;fill-opacity:1;fill-rule:evenodd;"
         id="path6"
         d=" M 174 30  a 10.50 10.10 0 0 0 0 280  c 190 10 170 -280 370 -280  a 10.50 10.10 0 0 1 0 280  c -190 10 -170 -280 -370 -280 " />
    </g>
  </g>
</svg>
