<?xml version="1.0" encoding="UTF-8" standalone="no"?>
<!-- Created with Inkscape (http://www.inkscape.org/) -->

<svg
   xmlns:dc="http://purl.org/dc/elements/1.1/"
   xmlns:cc="http://creativecommons.org/ns#"
   xmlns:rdf="http://www.w3.org/1999/02/22-rdf-syntax-ns#"
   xmlns:svg="http://www.w3.org/2000/svg"
   xmlns="http://www.w3.org/2000/svg"
   xmlns:sodipodi="http://sodipodi.sourceforge.net/DTD/sodipodi-0.dtd"
   xmlns:inkscape="http://www.inkscape.org/namespaces/inkscape"
   width="162.14316"
   height="162.14316"
   id="svg2"
   sodipodi:version="0.32"
   inkscape:version="0.48.4 r9939"
   sodipodi:docname="code.svg"
   version="1.0"
   inkscape:output_extension="org.inkscape.output.svg.inkscape"
   inkscape:export-filename="C:\git\UI-UX\Pictures\alphabet\code.png"
   inkscape:export-xdpi="90"
   inkscape:export-ydpi="90">
  <defs
     id="defs4" />
  <sodipodi:namedview
     id="base"
     pagecolor="#ffffff"
     bordercolor="#666666"
     borderopacity="1.0"
     inkscape:pageopacity="0.0"
     inkscape:pageshadow="2"
     inkscape:zoom="4"
     inkscape:cx="66.07015"
     inkscape:cy="95.014561"
     inkscape:document-units="mm"
     inkscape:current-layer="layer1"
     inkscape:window-width="1920"
     inkscape:window-height="1017"
     inkscape:window-x="-8"
     inkscape:window-y="-8"
     showgrid="true"
     inkscape:window-maximized="1"
     fit-margin-top="0"
     fit-margin-left="0"
     fit-margin-right="0"
     fit-margin-bottom="0"
     width="762mm"
     showborder="true"
     borderlayer="false"
     units="mm">
    <inkscape:grid
       type="xygrid"
       id="grid2998"
       empspacing="5"
       visible="true"
       enabled="true"
       snapvisiblegridlinesonly="true" />
  </sodipodi:namedview>
  <metadata
     id="metadata7">
    <rdf:RDF>
      <cc:Work
         rdf:about="">
        <dc:format>image/svg+xml</dc:format>
        <dc:type
           rdf:resource="http://purl.org/dc/dcmitype/StillImage" />
        <dc:title></dc:title>
        <dc:creator>
          <cc:Agent>
            <dc:title />
          </cc:Agent>
        </dc:creator>
        <dc:subject>
          <rdf:Bag />
        </dc:subject>
        <cc:license
           rdf:resource="http://creativecommons.org/licenses/publicdomain/" />
        <dc:description />
        <dc:contributor>
          <cc:Agent>
            <dc:title />
          </cc:Agent>
        </dc:contributor>
      </cc:Work>
      <cc:License
         rdf:about="http://creativecommons.org/licenses/publicdomain/">
        <cc:permits
           rdf:resource="http://creativecommons.org/ns#Reproduction" />
        <cc:permits
           rdf:resource="http://creativecommons.org/ns#Distribution" />
        <cc:permits
           rdf:resource="http://creativecommons.org/ns#DerivativeWorks" />
      </cc:License>
    </rdf:RDF>
  </metadata>
  <g
     inkscape:label="Layer 1"
     inkscape:groupmode="layer"
     id="layer1"
     transform="translate(-480.50334,-389.93131)">
    <path
       style="fill:#000000"
       d="m 520.06584,413.90006 c -9.70059,0 -17.5,7.79941 -17.5,17.5 l 0,79.53125 c 0,9.70059 7.79941,17.5 17.5,17.5 l 79.53125,0 c 9.70059,0 17.5,-7.79941 17.5,-17.5 l 0,-79.53125 c 0,-9.70059 -7.79941,-17.5 -17.5,-17.5 l -79.53125,0 z m -2.90625,20.09375 c 1.0249,-0.0412 2.05813,0.30869 2.875,1.0625 l 16.625,15.34375 c 1.01296,0.93477 1.43345,2.26804 1.25,3.53125 -10e-4,0.0101 0.002,0.0211 0,0.0312 0.17646,1.25874 -0.23737,2.56554 -1.25,3.5 l -16.625,15.34375 c -1.63373,1.50761 -4.14864,1.41498 -5.65625,-0.21875 -1.50761,-1.63373 -1.41498,-4.14864 0.21875,-5.65625 l 14.0625,-13 -14.0625,-12.96875 c -1.63373,-1.50761 -1.72636,-4.02252 -0.21875,-5.65625 0.7538,-0.81687 1.75634,-1.27135 2.78125,-1.3125 z m 39.875,30.96875 11.6875,0 c 2.02096,0 3.65625,1.63529 3.65625,3.65625 0,2.02096 -1.63529,3.625 -3.65625,3.625 l -11.6875,0 c -2.02096,0 -3.625,-1.60404 -3.625,-3.625 0,-2.02096 1.60404,-3.65625 3.625,-3.65625 z"
       id="rect3000"
       inkscape:connector-curvature="0" />
  </g>
</svg>
