<?xml version="1.0" encoding="UTF-8" standalone="no"?>
<svg
   xmlns:dc="http://purl.org/dc/elements/1.1/"
   xmlns:cc="http://creativecommons.org/ns#"
   xmlns:rdf="http://www.w3.org/1999/02/22-rdf-syntax-ns#"
   xmlns:svg="http://www.w3.org/2000/svg"
   xmlns="http://www.w3.org/2000/svg"
   xmlns:sodipodi="http://sodipodi.sourceforge.net/DTD/sodipodi-0.dtd"
   xmlns:inkscape="http://www.inkscape.org/namespaces/inkscape"
   enable-background="new 0 0 17.132 28.711"
   height="28.711px"
   id="Capa_1"
   version="1.1"
   viewBox="0 0 17.132 28.711"
   width="17.132px"
   xml:space="preserve"
   inkscape:version="0.48.4 r9939"
   sodipodi:docname="smartphone.svg"><metadata
     id="metadata9"><rdf:RDF><cc:Work
         rdf:about=""><dc:format>image/svg+xml</dc:format><dc:type
           rdf:resource="http://purl.org/dc/dcmitype/StillImage" /><dc:title></dc:title></cc:Work></rdf:RDF></metadata><defs
     id="defs7" /><sodipodi:namedview
     pagecolor="#ffffff"
     bordercolor="#666666"
     borderopacity="1"
     objecttolerance="10"
     gridtolerance="10"
     guidetolerance="10"
     inkscape:pageopacity="0"
     inkscape:pageshadow="2"
     inkscape:window-width="640"
     inkscape:window-height="480"
     id="namedview5"
     showgrid="false"
     inkscape:zoom="8.2198459"
     inkscape:cx="8.566"
     inkscape:cy="14.3555"
     inkscape:window-x="0"
     inkscape:window-y="0"
     inkscape:window-maximized="0"
     inkscape:current-layer="Capa_1" /><path
     d="M16.003,0H1.128C0.505,0,0,0.504,0,1.128v26.458c0,0.621,0.505,1.127,1.128,1.127h14.875c0.623,0,1.127-0.506,1.127-1.127  V1.128h0.002C17.132,0.504,16.626,0,16.003,0z M8.559,27.524c-0.733,0-1.328-0.594-1.328-1.327c0-0.731,0.595-1.325,1.328-1.325  c0.733,0,1.327,0.594,1.327,1.325C9.886,26.93,9.292,27.524,8.559,27.524z M14.394,21.875H2.739V3.701h11.655V21.875z"
     id="path3" /><g
     transform="matrix(0.095699,0,0,0.095699,-26.709824,0.88631038)"
     id="g3016"><path
       d="m 383.5,73.9 c -8,3.7 -14.5,13 -14.5,20.6 0,3.6 0.1,3.6 3.3,3 C 383,95.2 391,86.1 391,76 c 0,-4.7 -1.2,-5 -7.5,-2.1 z"
       id="path10"
       inkscape:connector-curvature="0"
       style="fill:#000000;stroke:none" /><path
       d="m 341.6,98.6 c -6.8,2.1 -14.6,10.1 -17.2,17.4 -2.5,7.3 -2.5,22.1 0,30.5 3.8,13 14.6,29.4 21.7,33 3.9,2.1 9.4,1.9 15.7,-0.5 6.6,-2.5 12.8,-2.5 19.4,0 7.7,2.9 12.6,2.6 17.6,-1 4.9,-3.5 11,-11.4 15.1,-19.5 l 3,-6 -2.2,-1.5 c -9.5,-6.5 -13.1,-12.6 -13.2,-22 0,-5.3 0.5,-7.3 2.7,-11.2 1.6,-2.5 4.4,-6 6.4,-7.6 l 3.5,-2.9 -4,-3.5 c -7.9,-6.8 -18.7,-8.4 -30.7,-4.7 -8.6,2.7 -9.8,2.7 -16.8,0 -6.6,-2.4 -14,-2.6 -21,-0.5 z"
       id="path14"
       inkscape:connector-curvature="0"
       style="fill:#000000;stroke:none" /></g></svg>