<?xml version="1.0" encoding="UTF-8" standalone="no"?>
<svg
   xmlns:dc="http://purl.org/dc/elements/1.1/"
   xmlns:cc="http://creativecommons.org/ns#"
   xmlns:rdf="http://www.w3.org/1999/02/22-rdf-syntax-ns#"
   xmlns:svg="http://www.w3.org/2000/svg"
   xmlns="http://www.w3.org/2000/svg"
   xmlns:sodipodi="http://sodipodi.sourceforge.net/DTD/sodipodi-0.dtd"
   xmlns:inkscape="http://www.inkscape.org/namespaces/inkscape"
   version="1.0"
   width="512.000000pt"
   height="512.000000pt"
   viewBox="0 0 512.000000 512.000000"
   preserveAspectRatio="xMidYMid meet"
   id="svg2"
   inkscape:version="0.48.4 r9939"
   sodipodi:docname="Notebook.svg"
   inkscape:export-filename="C:\git\UI-UX\Pictures\alphabet\Notebook.png"
   inkscape:export-xdpi="90"
   inkscape:export-ydpi="90">
  <defs
     id="defs14" />
  <sodipodi:namedview
     pagecolor="#ffffff"
     bordercolor="#666666"
     borderopacity="1"
     objecttolerance="10"
     gridtolerance="10"
     guidetolerance="10"
     inkscape:pageopacity="0"
     inkscape:pageshadow="2"
     inkscape:window-width="640"
     inkscape:window-height="480"
     id="namedview12"
     showgrid="false"
     inkscape:zoom="0.36875"
     inkscape:cx="320"
     inkscape:cy="320"
     inkscape:window-x="0"
     inkscape:window-y="0"
     inkscape:window-maximized="0"
     inkscape:current-layer="svg2" />
  <metadata
     id="metadata4">
Created by potrace 1.11, written by Peter Selinger 2001-2013
<rdf:RDF>
  <cc:Work
     rdf:about="">
    <dc:format>image/svg+xml</dc:format>
    <dc:type
       rdf:resource="http://purl.org/dc/dcmitype/StillImage" />
    <dc:title></dc:title>
  </cc:Work>
</rdf:RDF>
</metadata>
  <g
     transform="translate(0.000000,512.000000) scale(0.100000,-0.100000)"
     fill="#000000"
     stroke="none"
     id="g6">
    <path
       d="M905 4720 c-130 -18 -265 -88 -353 -185 -63 -68 -94 -122 -129 -221 l-28 -79 0 -1080 c0 -1020 1 -1083 18 -1140 23 -74 59 -146 103 -206 l34 -47 -30 -12 c-34 -14 -91 -74 -115 -121 -14 -26 -347 -880 -391 -1002 l-13 -37 911 2 912 3 47 124 c53 137 83 182 154 226 l48 30 461 3 c315 2 474 -1 501 -8 54 -15 131 -73 158 -118 12 -20 40 -86 63 -147 l41 -110 911 -3 912 -2 -18 47 c-10 27 -101 263 -203 526 -197 512 -209 536 -291 578 l-39 20 34 47 c45 61 81 133 104 207 17 57 18 120 18 1140 l0 1080 -31 85 c-37 104 -88 183 -159 248 -68 63 -122 94 -221 129 l-79 28 -1635 1 c-899 1 -1662 -2 -1695 -6z m3333 -418 c17 -13 44 -40 60 -59 l27 -36 3 -1031 c2 -713 0 -1042 -8 -1068 -14 -50 -56 -97 -105 -119 -38 -18 -110 -19 -1653 -19 -1433 0 -1617 2 -1650 15 -49 21 -81 52 -103 100 -18 38 -19 90 -19 1068 0 1126 -3 1061 58 1120 64 61 -70 57 1722 54 l1635 -2 33 -23z m-2723 -2769 c-4 -21 -9 -41 -11 -45 -6 -9 -364 -11 -364 -3 0 3 9 24 20 45 l20 40 171 0 171 0 -7 -37z m625 23 c0 -7 -3 -28 -6 -45 l-6 -31 -215 0 c-199 0 -214 1 -209 18 3 9 8 29 12 45 l6 27 209 0 c171 0 209 -3 209 -14z m655 -13 c15 -69 38 -63 -226 -63 l-239 0 0 29 c0 63 -9 61 236 61 l224 0 5 -27z m609 0 c4 -16 9 -36 12 -45 5 -17 -9 -18 -205 -18 -172 0 -211 3 -211 14 0 7 -3 28 -6 45 l-6 31 205 0 205 0 6 -27z m556 -13 c11 -21 20 -42 20 -45 0 -8 -358 -6 -364 3 -2 4 -7 24 -11 45 l-7 37 171 0 171 0 20 -40z m-2510 -256 c0 -3 -5 -25 -11 -50 l-11 -44 -219 0 c-121 0 -219 2 -219 5 0 2 10 25 22 50 l22 45 208 0 c114 0 208 -3 208 -6z m650 -28 c0 -69 12 -66 -241 -66 -177 0 -229 3 -229 13 0 6 5 29 11 50 l10 37 224 0 225 0 0 -34z m740 27 c1 -5 5 -27 9 -50 l8 -43 -285 0 -285 0 7 38 c3 20 6 43 6 50 0 9 61 12 270 12 149 0 270 -3 270 -7z m639 -30 c19 -67 31 -63 -208 -63 l-218 0 -7 38 c-3 20 -6 43 -6 50 0 9 50 12 215 12 l214 0 10 -37z m629 -8 c12 -25 22 -48 22 -50 0 -3 -98 -5 -219 -5 l-219 0 -11 44 c-6 25 -11 47 -11 50 0 3 94 6 208 6 l208 0 22 -45z"
       id="path8" />
    <path
       d="M2 261 c3 -125 4 -131 33 -172 17 -23 50 -53 74 -66 l44 -23 2396 0 c1717 0 2407 3 2436 11 51 14 110 73 124 124 6 22 11 88 11 148 l0 107 -2561 0 -2561 0 4 -129z"
       id="path10" />
  </g>
</svg>
