<?xml version="1.0" encoding="UTF-8" standalone="no"?>
<svg
   xmlns:dc="http://purl.org/dc/elements/1.1/"
   xmlns:cc="http://creativecommons.org/ns#"
   xmlns:rdf="http://www.w3.org/1999/02/22-rdf-syntax-ns#"
   xmlns:svg="http://www.w3.org/2000/svg"
   xmlns="http://www.w3.org/2000/svg"
   xmlns:sodipodi="http://sodipodi.sourceforge.net/DTD/sodipodi-0.dtd"
   xmlns:inkscape="http://www.inkscape.org/namespaces/inkscape"
   version="1.0"
   width="400.000000pt"
   height="300.000000pt"
   viewBox="0 0 400.000000 300.000000"
   preserveAspectRatio="xMidYMid meet"
   id="svg2"
   inkscape:version="0.48.4 r9939"
   sodipodi:docname="projector.svg"
   inkscape:export-filename="C:\git\UI-UX\Pictures\alphabet\projector.png"
   inkscape:export-xdpi="90"
   inkscape:export-ydpi="90">
  <defs
     id="defs26" />
  <sodipodi:namedview
     pagecolor="#ffffff"
     bordercolor="#666666"
     borderopacity="1"
     objecttolerance="10"
     gridtolerance="10"
     guidetolerance="10"
     inkscape:pageopacity="0"
     inkscape:pageshadow="2"
     inkscape:window-width="640"
     inkscape:window-height="480"
     id="namedview24"
     showgrid="false"
     inkscape:zoom="0.62933333"
     inkscape:cx="250"
     inkscape:cy="187.5"
     inkscape:window-x="0"
     inkscape:window-y="0"
     inkscape:window-maximized="0"
     inkscape:current-layer="svg2" />
  <metadata
     id="metadata4">
Created by potrace 1.11, written by Peter Selinger 2001-2013
<rdf:RDF>
  <cc:Work
     rdf:about="">
    <dc:format>image/svg+xml</dc:format>
    <dc:type
       rdf:resource="http://purl.org/dc/dcmitype/StillImage" />
    <dc:title></dc:title>
  </cc:Work>
</rdf:RDF>
</metadata>
  <g
     id="g3011">
    <path
       d="m 176.22203,65.09492 c -29.6,8.2 -42.2,43.3 -24.5,68.4 2.3,3.4 3.1,5.5 3.2,9.7 0.2,5.1 0,5.4 -2.5,5.7 -1.5,0.2 -3,1.2 -3.6,2.5 -0.7,1.7 -1.7,2.2 -4.7,2.1 -3.5,0 -3.8,-0.3 -3.8,-2.8 0,-1.5 -0.6,-3.2 -1.2,-3.7 -1.8,-1.4 -14.4,-3.7 -16.3,-2.9 -1.3,0.4 -1.5,3.7 -1.5,21.4 0,24.7 -0.3,23.9 9.2,22.1 8.5,-1.6 9.8,-2.4 9.8,-5.9 0,-2.8 0.2,-3 3.9,-3 3.1,0 4.1,0.4 4.6,2 0.4,1.2 1.8,2.3 3.4,2.6 2.6,0.6 2.7,0.8 2.8,7.2 l 0,6.7 80.1,0.3 80.2,0.2 0,-30.1 c 0,-28.6 0.1,-30.2 2,-32.9 21.4,-30.1 1,-71 -35.4,-71 -3.9,0 -8.7,0.5 -10.6,1.1 -5.9,1.8 -60.7,2.1 -71.7,0.4 -11,-1.8 -17.1,-1.8 -23.4,-0.1 z m 24.8,8.8 c 5.8,2.1 14.3,9.2 17.8,14.8 12.9,20.5 1.3,48.5 -22.5,54.6 -21.5,5.4 -43.3,-10.2 -45.4,-32.5 -0.9,-10.2 3.1,-20.9 10.9,-28.6 10.5,-10.6 24.9,-13.7 39.2,-8.3 z m 95.6,0.1 c 11.1,5.1 19.3,15.3 21.7,27.1 3.2,15.9 -5.4,32.7 -20.6,40.2 -5.3,2.6 -6.9,2.9 -15.9,2.9 -9,0 -10.6,-0.3 -15.9,-2.9 -15.3,-7.5 -23.9,-24.3 -20.6,-40.2 1.6,-7.7 4.2,-12.6 9.8,-18.6 4.8,-5.2 11.4,-9.1 17.9,-10.8 6.6,-1.6 17.3,-0.6 23.6,2.3 z m -46.3,2.8 c -2.8,2.7 -6.2,7.2 -7.5,10 l -2.5,4.9 -5.9,0 -5.8,0 -1.9,-4.2 c -1,-2.3 -4.4,-6.8 -7.4,-10 l -5.6,-5.8 20.9,0 20.8,0 -5.1,5.1 z m 7,83.4 0,11.5 -22,0 -22,0 0,-11.5 0,-11.5 22,0 22,0 0,11.5 z"
       id="path8"
       inkscape:connector-curvature="0"
       style="fill:#000000;stroke:none" />
    <path
       d="m 176.92203,77.59492 c -10.7,4.4 -17.2,11.3 -20.3,22 -4.4,15.1 4.5,32.5 19.4,38.1 7.6,2.9 18.6,2.4 25.3,-0.9 23.8,-12.1 24.1,-46.1 0.5,-57.6 -7.4,-3.6 -18.1,-4.3 -24.9,-1.6 z m 29.8,14.4 c 10.1,13.2 6.1,30.7 -8.7,38.3 -1.7,0.9 -5.7,1.9 -8.9,2.1 -13.9,1.3 -27.2,-11.4 -26.4,-25.4 0.1,-2.4 0.5,-4.6 0.9,-4.9 0.3,-0.3 2.8,0.6 5.6,2.2 4.2,2.2 5.3,3.4 6.1,6.5 2.1,7.5 10.6,11.6 17.5,8.3 6.4,-3 9.2,-10.4 6.2,-16.4 -1.5,-2.9 -1.4,-3.5 0.5,-8.5 1.1,-3 2.7,-5.5 3.4,-5.5 0.7,0 2.4,1.5 3.8,3.3 z"
       id="path10"
       inkscape:connector-curvature="0"
       style="fill:#000000;stroke:none" />
    <path
       d="m 266.42203,80.19492 c -7,3.7 -12.1,8.1 -12.1,10.2 0,1.7 20,13.4 22.5,13.1 1.9,-0.3 2,-1.1 2,-13.3 l 0,-13 -3,-0.3 c -1.9,-0.1 -5.3,1.1 -9.4,3.3 z"
       id="path12"
       inkscape:connector-curvature="0"
       style="fill:#000000;stroke:none" />
    <path
       d="m 284.72203,77.99492 c -0.2,0.7 -0.3,6.7 -0.2,13.2 0.3,10.6 0.5,12 2.1,12.3 2.2,0.4 21.6,-10.4 22.4,-12.6 0.8,-2.1 -5.3,-7.3 -13,-11.2 -6.4,-3.2 -10.5,-3.8 -11.3,-1.7 z"
       id="path14"
       inkscape:connector-curvature="0"
       style="fill:#000000;stroke:none" />
    <path
       d="m 249.92203,104.49492 c -0.8,2.3 2.8,16.6 5.2,20.6 3.1,5.3 4.9,4.5 14,-5.4 4.5,-5 8.2,-9.5 8.2,-10 0,-1.5 -2.9,-2.6 -12.8,-4.9 -11.5,-2.6 -13.9,-2.6 -14.6,-0.3 z"
       id="path16"
       inkscape:connector-curvature="0"
       style="fill:#000000;stroke:none" />
    <path
       d="m 297.52203,105.39492 c -5.9,1.4 -10.6,3.1 -10.9,3.9 -0.7,1.8 15.4,19.4 17.8,19.4 1,0 2.6,-1.2 3.6,-2.6 2.4,-3.8 6,-17 5.5,-20.4 -0.5,-3.7 -1.7,-3.7 -16,-0.3 z"
       id="path18"
       inkscape:connector-curvature="0"
       style="fill:#000000;stroke:none" />
    <path
       d="m 274.02203,124.19492 c -3.2,5.8 -5.7,11.3 -5.5,12.2 0.5,2.5 6.2,3.6 15.3,3 9.4,-0.6 11.5,-1.3 11.5,-3.8 0,-3 -11.9,-21.9 -13.8,-21.9 -1.1,0 -3.7,3.6 -7.5,10.5 z"
       id="path20"
       inkscape:connector-curvature="0"
       style="fill:#000000;stroke:none" />
    <path
       d="m 222.02203,155.49492 c -1.3,0.3 -1.7,1.4 -1.7,5.3 l 0,4.9 5.3,0.1 c 5.7,0.1 18.9,0.1 22.5,0 2,-0.1 2.2,-0.6 2.2,-5.4 l 0,-5.2 -13.3,0 c -7.3,0 -14,0.1 -15,0.3 z"
       id="path22"
       inkscape:connector-curvature="0"
       style="fill:#000000;stroke:none" />
  </g>
</svg>
