<?xml version="1.0" encoding="UTF-8" standalone="no"?>
<svg
   xmlns:dc="http://purl.org/dc/elements/1.1/"
   xmlns:cc="http://creativecommons.org/ns#"
   xmlns:rdf="http://www.w3.org/1999/02/22-rdf-syntax-ns#"
   xmlns:svg="http://www.w3.org/2000/svg"
   xmlns="http://www.w3.org/2000/svg"
   xmlns:sodipodi="http://sodipodi.sourceforge.net/DTD/sodipodi-0.dtd"
   xmlns:inkscape="http://www.inkscape.org/namespaces/inkscape"
   version="1.0"
   width="480.71875"
   height="316.37521"
   viewBox="0 0 384.575 253.10017"
   preserveAspectRatio="xMidYMid meet"
   id="svg2"
   inkscape:version="0.48.4 r9939"
   sodipodi:docname="dribbbleapi.svg"
   inkscape:export-filename="C:\Users\Максим\Downloads\sapi.png"
   inkscape:export-xdpi="90"
   inkscape:export-ydpi="90">
  <defs
     id="defs16" />
  <sodipodi:namedview
     pagecolor="#ffffff"
     bordercolor="#666666"
     borderopacity="1"
     objecttolerance="10"
     gridtolerance="10"
     guidetolerance="10"
     inkscape:pageopacity="0"
     inkscape:pageshadow="2"
     inkscape:window-width="640"
     inkscape:window-height="480"
     id="namedview14"
     showgrid="false"
     fit-margin-top="0"
     fit-margin-left="0"
     fit-margin-right="0"
     fit-margin-bottom="0"
     inkscape:zoom="0.70710678"
     inkscape:cx="250"
     inkscape:cy="142.75"
     inkscape:window-x="1051"
     inkscape:window-y="51"
     inkscape:window-maximized="0"
     inkscape:current-layer="svg2" />
  <metadata
     id="metadata4">
Created by potrace 1.11, written by Peter Selinger 2001-2013
<rdf:RDF>
  <cc:Work
     rdf:about="">
    <dc:format>image/svg+xml</dc:format>
    <dc:type
       rdf:resource="http://purl.org/dc/dcmitype/StillImage" />
    <dc:title></dc:title>
  </cc:Work>
</rdf:RDF>
</metadata>
  <path
     style="fill:#000000;stroke:none"
     d="m 12.5,1.6071143e-4 c -1.1,0 -4.4,0.79999999857 -7.3,1.59999998857 -5.1,1.5 -5.2,1.6 -5.2,5.4 0,2.2 0.1,3.9000003 0.3,3.9000003 0.1,0 2.7,-0.7 5.7,-1.5000003 l 5.5,-1.5 21.2,21.3000003 21.3,21.2 -7.6,28.5 c -4.2,15.7 -7.9,28.799999 -8.3,29.299999 -0.6,0.6 -8.3,2.8 -33.9,9.6 l -4.2,1.2 0,10.4 c 0,5.8 0.1,10.5 0.3,10.5 0.1,0 9.9,-2.7 21.7,-5.9 l 21.5,-5.9 21.3,21.2 21.4,21.3 -7.7,28.9 c -4.3,15.9 -7.9,29 -8,29.2 -0.2,0.2 -13.3,3.8 -29.1,8.1 l -28.9,7.8 -6.3,-6.1 -6.2,-6 0,5.5 c 0,5.2 0.2,5.7 4.9,10.3 l 4.9,4.8 32.8,-8.8 c 18.1,-4.8 33.2,-9 33.7,-9.4 0.4,-0.3 2.4,-6.9 4.5,-14.6 l 3.7,-13.9 24.8,-0.3 c 23.8,-0.2 24.9,-0.1 29.5,2 3.1,1.5 7.2,2.3 12.3,2.6 6.4,0.3 8.4,0 13.7,-2.2 l 6.1,-2.6 40.5,0 40.5,0 4.7,2.5 c 6.6,3.5 16.1,3.5 22.2,0 2.4,-1.4 4.8,-2.3 5.2,-2 0.4,0.3 1.1,2 1.4,3.8 1,5.4 6,12.4 10.5,14.7 5.4,2.7 14.7,2.7 20.2,0 5.1,-2.6 9.5,-8.8 10.3,-14.5 l 0.7,-4.5 36.5,0 20.975,0 0,-130.824999 c -2.81128,-3.529832 -7.165,-5.175 -13.375,-5.175 -7.5,0 -11.6,1.6 -17,6.4 l -3.9,3.6 -40.6,0 -40.6,0 -1.1,-4.3 c -4.4,-17.1 -11,-26.7 -19.5,-28.3 -11.7,-2.2 -26.2,5.3 -33.4,17.2 -1.7,2.7 -1.7,3.3 -0.5,4.6 1.2,1.1 1.2,2.1 0.1,5.8 l -1.3,4.5 -15.4,0.3 -15.4,0.3 -24.2,-24.2 -24.2,-24.2 -32.9,8.7 c -18,4.9 -33.1,9.1 -33.5,9.5 -0.4,0.3 -2.5,7.1 -4.6,15.1 -3.8,13.9 -4,14.5 -6.7,14.8 -2.2,0.3 -2.6,0 -2.1,-1.5 1.9,-6.4 7.6,-28.3 7.6,-29.4 0,-2.3 -47.2,-48.90000029 -49.5,-48.80000028857 z M 131.5,40.100161 l 21.4,21.3 21.3,21.2 -7.7,29.199999 c -5.7,21 -8.3,29.2 -9.4,29.5 -0.9,0.3 -13.9,3.7 -28.9,7.7 l -27.3,7.3 -21.5,-21.5 -21.4,-21.4 7.6,-28.499999 c 4.2,-15.7 7.8,-28.7 8,-28.9 0.2,-0.2 13.3,-3.9 29.1,-8.2 l 28.8,-7.7 z m 111.75,14.25 c 0.76875,-0.01 1.525,0.0375 2.25,0.15 1.6,0.2 4.4,1.8 6.2,3.6 8.5,8.2 11.2,22.8 15.8,83.299999 2.3,31.5 4.9,42 11.2,46 3.6,2.2 4,4.2 1.8,8.5 -3.2,6.3 -10.5,9.2 -17.5,7.1 -7,-2.1 -12.7,-11.4 -15.9,-26.3 l -1.8,-8.3 -6.4,-0.8 c -6.5,-0.8 -37.3,-0.2 -41.9,0.9 -1.4,0.3 -3.7,2.2 -5,4.2 -4.5,6.5 -20.4,22.5 -26.3,26.3 -6.8,4.4 -12.9,5.7 -19.2,3.9 -5.7,-1.6 -9.5,-5.6 -10.2,-10.9 -0.7,-5.1 1.3,-10.5 3.6,-9.6 4.9,1.9 7.3,1.7 13.5,-1.4 15.3,-7.5 39,-39.5 57.6,-77.6 8.3,-16.999999 12,-27.199999 12,-32.999999 0,-3.7 0.6,-5 3.5,-7.9 5.075,-5.075 11.36875,-8.080274 16.75,-8.15 z m 127.65,22.6 c 2.51718,0.05584 4.86875,0.756248 6.5,2.05 3.7,2.9 3.5,7.4 -0.6,13.5 -4.3,6.3 -10.6,9.699999 -16.8,9.099999 -4.7,-0.5 -8,-3.299999 -8,-6.899999 0,-4.8 7.5,-14.5 13,-16.7 1.88125,-0.743752 3.94218,-1.093408 5.9,-1.05 z m -76.975,34.074999 c 2.01504,0.061 4.0375,0.8375 5.875,2.375 1.6,1.3 3.5,3.8 4.2,5.5 l 1.2,3 2.2,-3.2 c 4.6,-6.7 11.1,-9 19.1,-6.8 8.4,2.4 14.7,10.6 18.1,24 2.3,9.2 1.6,29.3 -1.4,37 -4.8,12.2 -12.4,17.4 -25.5,17.3 l -7.9,-0.1 0.6,5 c 1,7.5 3.4,12.7 6.2,13.4 2.9,0.8 3,2.3 0.3,5.8 -6.6,8.4 -18.6,7 -22.9,-2.7 -3.2,-7.2 -4,-16.2 -4,-44.6 0,-29.9 -0.9,-38.2 -4.6,-43.7 l -2.5,-3.6 2.1,-3.2 c 2.25,-3.6875 5.5666,-5.57656 8.925,-5.475 z m 69.875,0 c 1.71797,-0.12246 3.4,0.325 4.9,1.375 4.2,3 5.3,9.9 5.4,34.9 0.1,12.7 0.4,24.2 0.8,25.6 0.4,1.4 1.7,2.9 2.9,3.5 3.1,1.4 2.8,5.1 -0.7,8.6 -6,5.9 -16.2,2.8 -19.3,-5.9 -1,-2.8 -1.2,-9.6 -1,-27 0.3,-20.4 0.1,-24 -1.4,-28.3 -1.8,-4.8 -1.8,-5 0.2,-7.6 2.375,-3.1875 5.33672,-4.9709 8.2,-5.175 z"
     id="path8"
     inkscape:connector-curvature="0" />
  <path
     style="fill:#000000;stroke:none"
     inkscape:connector-curvature="0"
     id="path10"
     d="m 236.1,94.200161 c -3.7,9.499999 -17,35.899999 -24.5,48.399999 -3.6,6.1 -6.6,11.3 -6.6,11.5 0,0.2 8.8,0.3 19.6,0.3 l 19.6,0 -0.6,-5 c -0.3,-2.8 -0.8,-10 -1.1,-16 -1.2,-22.6 -2.7,-41.799999 -3.3,-43.599999 -0.6,-1.4 -1.3,-0.4 -3.1,4.4 z" />
  <path
     style="fill:#000000;stroke:none"
     inkscape:connector-curvature="0"
     id="path12"
     d="m 312.1,130.70016 c -1.9,3.6 -3.1,14.9 -3.1,30.3 0,16.8 0.3,17.9 5.3,17.9 7.5,0 9.2,-4.4 9.1,-23 -0.1,-7.4 -0.7,-15.5 -1.4,-18 -2,-7.6 -7.6,-11.6 -9.9,-7.2 z" />
</svg>
