<?xml version="1.0" encoding="UTF-8" standalone="no"?>
<svg
   xmlns:dc="http://purl.org/dc/elements/1.1/"
   xmlns:cc="http://creativecommons.org/ns#"
   xmlns:rdf="http://www.w3.org/1999/02/22-rdf-syntax-ns#"
   xmlns:svg="http://www.w3.org/2000/svg"
   xmlns="http://www.w3.org/2000/svg"
   xmlns:sodipodi="http://sodipodi.sourceforge.net/DTD/sodipodi-0.dtd"
   xmlns:inkscape="http://www.inkscape.org/namespaces/inkscape"
   enable-background="new 0 0 17.132 28.711"
   height="28.711px"
   id="Capa_1"
   version="1.1"
   viewBox="0 0 17.132 28.711"
   width="17.132px"
   xml:space="preserve"
   inkscape:version="0.48.4 r9939"
   sodipodi:docname="1410817648_smartphone6.svg"><metadata
     id="metadata9"><rdf:RDF><cc:Work
         rdf:about=""><dc:format>image/svg+xml</dc:format><dc:type
           rdf:resource="http://purl.org/dc/dcmitype/StillImage" /><dc:title></dc:title></cc:Work></rdf:RDF></metadata><defs
     id="defs7" /><sodipodi:namedview
     pagecolor="#ffffff"
     bordercolor="#666666"
     borderopacity="1"
     objecttolerance="10"
     gridtolerance="10"
     guidetolerance="10"
     inkscape:pageopacity="0"
     inkscape:pageshadow="2"
     inkscape:window-width="640"
     inkscape:window-height="480"
     id="namedview5"
     showgrid="false"
     inkscape:zoom="8.2198459"
     inkscape:cx="8.566"
     inkscape:cy="14.3555"
     inkscape:window-x="0"
     inkscape:window-y="0"
     inkscape:window-maximized="0"
     inkscape:current-layer="Capa_1" /><path
     d="M16.003,0H1.128C0.505,0,0,0.504,0,1.128v26.458c0,0.621,0.505,1.127,1.128,1.127h14.875c0.623,0,1.127-0.506,1.127-1.127  V1.128h0.002C17.132,0.504,16.626,0,16.003,0z M8.559,27.524c-0.733,0-1.328-0.594-1.328-1.327c0-0.731,0.595-1.325,1.328-1.325  c0.733,0,1.327,0.594,1.327,1.325C9.886,26.93,9.292,27.524,8.559,27.524z M14.394,21.875H2.739V3.701h11.655V21.875z"
     id="path3" /></svg>