<?xml version="1.0" encoding="UTF-8" standalone="no"?>
<svg
   xmlns:dc="http://purl.org/dc/elements/1.1/"
   xmlns:cc="http://creativecommons.org/ns#"
   xmlns:rdf="http://www.w3.org/1999/02/22-rdf-syntax-ns#"
   xmlns:svg="http://www.w3.org/2000/svg"
   xmlns="http://www.w3.org/2000/svg"
   xmlns:sodipodi="http://sodipodi.sourceforge.net/DTD/sodipodi-0.dtd"
   xmlns:inkscape="http://www.inkscape.org/namespaces/inkscape"
   viewBox="0 0 266.6 323.6125125"
   id="svg2"
   version="1.1"
   inkscape:version="0.48.4 r9939"
   width="100%"
   height="100%"
   sodipodi:docname="soldering.svg"
   inkscape:export-filename="C:\git\UI-UX\Pictures\alphabet\soldering.png"
   inkscape:export-xdpi="90"
   inkscape:export-ydpi="90">
  <metadata
     id="metadata36">
    <rdf:RDF>
      <cc:Work
         rdf:about="">
        <dc:format>image/svg+xml</dc:format>
        <dc:type
           rdf:resource="http://purl.org/dc/dcmitype/StillImage" />
        <dc:title></dc:title>
      </cc:Work>
    </rdf:RDF>
  </metadata>
  <defs
     id="defs34" />
  <sodipodi:namedview
     pagecolor="#ffffff"
     bordercolor="#666666"
     borderopacity="1"
     objecttolerance="10"
     gridtolerance="10"
     guidetolerance="10"
     inkscape:pageopacity="0"
     inkscape:pageshadow="2"
     inkscape:window-width="1920"
     inkscape:window-height="1017"
     id="namedview32"
     showgrid="false"
     inkscape:zoom="2.0626792"
     inkscape:cx="133.3"
     inkscape:cy="161.80626"
     inkscape:window-x="-8"
     inkscape:window-y="-8"
     inkscape:window-maximized="1"
     inkscape:current-layer="svg2" />
  <g
     id="g3018">
    <path
       style="fill:#000000"
       id="path14"
       transform="matrix(.64445,-4.723902e-2,5.642674e-2,.75398,-48.99922,12.78636)"
       fill="#007100"
       d="m225.05527,352.327a62.29648,27.33166 0 1,1 -124.59296,0 62.29648,27.33166 0 1,1 124.59296,0z" />
    <path
       inkscape:connector-curvature="0"
       style="fill:#ffffff"
       id="path16"
       d="m 115.56414,265.09018 a 20.659248,38.32259 85.460615 0 1 -76.418339,5.88565 20.659248,38.32259 85.460615 1 1 76.418339,-5.88565 z" />
    <path
       style="fill:#000000"
       id="path12"
       transform="matrix(.64445,-4.723902e-2,5.642674e-2,.75398,-52.65948,-35.51329)"
       fill="#009f00"
       d="m225.05527,352.327a62.29648,27.33166 0 1,1 -124.59296,0 62.29648,27.33166 0 1,1 124.59296,0z" />
    <path
       style="fill:#000000"
       id="path4"
       transform="matrix(.51501,-.85719,.83082,.55654,0,0)"
       fill="#d5ded5"
       d="m-72.90969,229.51425h55.82809a19.03032,11.12208 0 0,1 19.03031,11.12208 19.03032,11.12208 0 0,1 -19.03031,11.12208h-55.82809a19.03032,11.12208 0 0,1 -19.03032-11.12208 19.03032,11.12208 0 0,1 19.03032-11.12208" />
    <g
       transform="translate(-2,2)"
       id="g3013">
      <path
         d="m 209.27278,111.67958 c 7.25365,-22.33338 -3.76716,-22.31086 4.1476,-42.26665 7.91476,-19.95579 17.64472,-24.323053 24.6026,-31.738843 5.43443,-8.712263 3.23278,-4.213915 3.50063,-5.72748 0.73676,-4.163293 8.52263,-8.277679 4.70127,2.824643 -15.16188,15.56678 -19.59669,17.60072 -27.51145,37.5565 -7.91476,19.95578 4.63301,22.86681 -4.14761,42.26666 -8.94232,19.75713 -2.61333,1.89869 -4.07951,1.09128 -1.46618,-0.80741 -8.42777,18.20592 -1.21353,-4.00611 z"
         id="path6"
         inkscape:connector-curvature="0"
         style="fill:#000000"
         sodipodi:nodetypes="sscscssss" />
      <path
         inkscape:connector-curvature="0"
         d="m 191.66832,131.96528 15.58421,-19.87483 c 1.2153,-1.96381 3.85049,-2.54054 5.90848,-1.29312 2.05799,1.24742 2.73641,3.83264 1.52111,5.79646 l -8.98553,20.35026 c -1.2153,1.96381 -3.07816,-3.11682 -6.82753,-4.62083 -5.60045,-2.24654 -8.41603,1.60588 -7.20074,-0.35794 z"
         id="path8"
         style="fill:#000000" />
    </g>
    <path
       style="fill:#000000"
       id="path18"
       fill="#a7b6d1"
       d="m109.09807,264.21958c-.22047,12.07727-13.22367,16.55169-31.56788,18.8488s-35.47867-3.73508-36.09835-18.25631c-.57897-13.28972-1.15207-18.17109-1.68133-25.61828 13.34914,5.7659 38.29693,13.596 67.78062-5.49322 .49683,15.7551 1.06898,24.80595 1.51259,28.01161 4.50256,2.23314 42.85239,15.10941 49.55396,15.5578 1.35438.09062.77924,2.63677-.33682,2.50663-13.43612-1.56676-45.80481-14.86636-45.73613-14.0751s-3.4761-1.86864-3.42666-1.48193z" />
    <path
       style="fill:#000000"
       id="path20"
       transform="matrix(.53713,-.8435,.84849,.52921,0,0)"
       fill="#f68931"
       d="m-101.70267,229.68478h6.377a17.98419,12.88042 0 0,1 17.98419,12.88042 17.98419,12.88042 0 0,1 -17.98419,12.88042h-6.377a17.98419,12.88042 0 0,1 -17.98419-12.88042 17.98419,12.88042 0 0,1 17.98419-12.88042" />
    <path
       style="fill:#000000"
       id="path22"
       transform="matrix(.26602,-.39137,.45212,.301,-62.94606,282.0846)"
       fill="#dd7623"
       d="m367.3769,257.77423a23.63819,25.36181 0 1,1 -47.27638,0 23.63819,25.36181 0 1,1 47.27638,0z" />
    <path
       style="fill:#000000"
       id="path24"
       transform="matrix(.17411,-.49517,.58829,.22701,-68.56528,339.6141)"
       fill="#f9872b"
       d="m367.3769,257.77423a23.63819,25.36181 0 1,1 -47.27638,0 23.63819,25.36181 0 1,1 47.27638,0z" />
    <path
       style="fill:#000000"
       id="path26"
       transform="matrix(.51335,-.85818,.86282,.50552,0,0)"
       fill="#9cab9c"
       d="m-165.52753,235.19353h36.40139a7.14042,4.34451 0 0,1 7.14042,4.34451 7.14042,4.34451 0 0,1 -7.14042,4.34451h-36.40139a7.14042,4.34451 0 0,1 -7.14042-4.34451 7.14042,4.34451 0 0,1 7.14042-4.34451" />
    <path
       style="fill:#000000"
       id="path28"
       fill="#627162"
       d="m140.20623,241.28629c.90167,5.37525-19.24415,36.09576-21.2994,37.8835-15.10095,13.13548-17.58106,27.4848-21.9486,25.74433-3.96256-1.57909 9.47392-13.73841 11.33577-31.05721 .38664-3.59647 17.92211-29.68671 22.34122-36.42773 1.48927-2.27177 8.87357-.20393 9.57101,3.85711z" />
    <path
       style="fill:#ffffff"
       id="path30"
       transform="matrix(.25928,-2.003419e-2,2.270176e-2,.31976,22.56179,113.4721)"
       fill="#327632"
       d="m225.05527,352.327a62.29648,27.33166 0 1,1 -124.59296,0 62.29648,27.33166 0 1,1 124.59296,0z" />
  </g>
</svg>
