<?xml version="1.0" encoding="UTF-8" standalone="no"?>
<svg
   xmlns:dc="http://purl.org/dc/elements/1.1/"
   xmlns:cc="http://creativecommons.org/ns#"
   xmlns:rdf="http://www.w3.org/1999/02/22-rdf-syntax-ns#"
   xmlns:svg="http://www.w3.org/2000/svg"
   xmlns="http://www.w3.org/2000/svg"
   xmlns:sodipodi="http://sodipodi.sourceforge.net/DTD/sodipodi-0.dtd"
   xmlns:inkscape="http://www.inkscape.org/namespaces/inkscape"
   version="1.0"
   width="321.91989"
   height="154.08592"
   viewBox="0 0 257.53591 123.26874"
   preserveAspectRatio="xMidYMid meet"
   id="svg2"
   inkscape:version="0.48.4 r9939"
   sodipodi:docname="s4.svg">
  <defs
     id="defs28" />
  <sodipodi:namedview
     pagecolor="#ffffff"
     bordercolor="#666666"
     borderopacity="1"
     objecttolerance="10"
     gridtolerance="10"
     guidetolerance="10"
     inkscape:pageopacity="0"
     inkscape:pageshadow="2"
     inkscape:window-width="1594"
     inkscape:window-height="1027"
     id="namedview26"
     showgrid="false"
     fit-margin-top="0"
     fit-margin-left="0"
     fit-margin-right="0"
     fit-margin-bottom="0"
     inkscape:zoom="1.7800235"
     inkscape:cx="249.2899"
     inkscape:cy="102.15459"
     inkscape:window-x="65"
     inkscape:window-y="24"
     inkscape:window-maximized="0"
     inkscape:current-layer="svg2" />
  <metadata
     id="metadata4">
Created by potrace 1.11, written by Peter Selinger 2001-2013
<rdf:RDF>
  <cc:Work
     rdf:about="">
    <dc:format>image/svg+xml</dc:format>
    <dc:type
       rdf:resource="http://purl.org/dc/dcmitype/StillImage" />
  </cc:Work>
</rdf:RDF>
</metadata>
  <g
     id="g2998">
    <g
       transform="translate(-148.7431,-224.99595)"
       id="g3795">
      <g
         id="g3786"
         transform="translate(-22.921046,-16.628994)"
         style="fill:#008000">
        <path
           d="m 236.4,243 c -2.6,1 -6.2,5.5 -7,8.7 -0.8,2.9 -0.3,2.8 -25.3,5.2 -17.7,1.7 -20.6,1.8 -21.8,0.5 -3.7,-3.7 -9.2,0.7 -10,8 -0.6,5 0.7,7.6 3.8,7.6 1.1,0 2.8,0.6 4,1.2 1.7,1.1 2.2,1 3.5,-0.6 1.4,-1.9 1.5,-1.9 4.7,1.2 l 3.3,3.2 3.2,-3.2 3.2,-3.2 3.2,3.1 3.3,3.2 3.5,-2.9 3.4,-2.8 3.4,3 3.4,3 3.4,-3.3 3.4,-3.3 2.5,2.4 2.5,2.3 2.5,-2.3 c 2.3,-2.1 2.6,-2.2 4.9,-0.7 2.1,1.4 2.6,1.4 3.6,0.2 0.7,-0.8 2.5,-1.3 4.8,-1 5,0.4 5.1,0.5 2.3,1.6 -1.3,0.5 -3.2,0.7 -4.1,0.4 -0.9,-0.3 -2.3,0.2 -3,1 -1.2,1.4 -1.5,1.4 -3.7,-0.1 -2.3,-1.5 -2.6,-1.4 -4.9,0.7 l -2.4,2.2 -2.5,-2.3 -2.5,-2.4 -2.3,2.3 -2.2,2.3 2.2,-1.3 c 2,-1.2 2.5,-1.1 4,0.4 1.7,1.7 1.6,1.8 -2.7,1.7 -2.5,-0.1 -7.4,0.2 -11,0.6 l -6.5,0.7 1.9,-2.2 c 2.3,-2.6 3.3,-2.6 6,-0.4 1.6,1.3 1.5,1.1 -0.3,-0.9 l -2.4,-2.7 -3.7,2.9 -3.6,2.9 -3.2,-3.2 -3.2,-3.2 -3.2,3.3 -3.2,3.2 -3.1,-3 c -3.1,-3 -3.2,-3 -6.4,-1.4 -7,3.5 -6,9.8 2.3,13.5 8.3,3.6 20.8,4.3 46.1,2.5 28.6,-2 26.5,-2 26.5,0.5 0,1.2 0.9,3.7 2.1,5.5 l 2,3.3 -2.5,0.6 c -1.4,0.3 -3.7,0.7 -5.1,1 -3.7,0.8 -4.3,3.4 -1.4,5.8 1.9,1.5 3.4,1.8 7.1,1.4 9.6,-1.2 15.4,-5.9 12.9,-10.5 -0.6,-1.1 -1.1,-3.4 -1.1,-5.1 l 0,-3.1 9.8,0 c 5.3,0 20.8,0.3 34.4,0.7 24,0.6 24.8,0.7 25.4,2.7 0.4,1.2 1.4,2.9 2.2,3.9 1.4,1.6 1.4,1.9 0.2,2.7 -0.8,0.6 -2.5,1 -3.8,1 -3.1,0 -6.2,1.7 -6.2,3.5 0,2.1 4,4.5 7.5,4.5 4.4,0 12,-2.7 14.1,-5.1 1.5,-1.7 1.6,-2.4 0.6,-5.3 -0.7,-1.8 -1.2,-4.4 -1.2,-5.8 0,-2.5 0.3,-2.6 7.3,-3.3 28.1,-2.6 52.4,-12.6 62.8,-25.7 5.2,-6.6 5.8,-9.2 2.8,-12.4 -2,-2.1 -2.4,-2.2 -3.9,-0.9 -2.1,1.9 -3.4,1.9 -5,0 -1.2,-1.4 -1.5,-1.4 -3,0 -2.3,2.1 -3.3,1.9 -6,-1 l -2.4,-2.5 -2.8,2.7 -2.8,2.7 -3,-2.9 -3,-2.9 -3,2.9 -3,2.9 -2.8,-2.7 -2.8,-2.7 -2.4,2.5 c -3.1,3.3 -4,3.2 -8,-1 l -3.4,-3.5 -3.6,3.5 c -2,1.9 -4,3.5 -4.6,3.5 -0.6,0 -2.5,-1.6 -4.4,-3.5 l -3.4,-3.5 -3.8,3.7 -3.8,3.7 -3.8,-3.7 -3.8,-3.7 -3.4,3.5 c -1.9,1.9 -3.9,3.5 -4.5,3.5 -0.6,0 -3.1,-2 -5.5,-4.5 l -4.4,-4.5 -4.6,4.5 c -2.5,2.5 -5,4.5 -5.6,4.5 -0.5,0 -3,-2 -5.4,-4.5 l -4.4,-4.5 -4.8,4.7 -4.8,4.7 -4.8,-4.7 -4.8,-4.7 -4.4,4.5 c -2.4,2.5 -4.9,4.5 -5.5,4.5 -0.6,0 -3.1,-2 -5.5,-4.5 l -4.4,-4.5 -3.6,3.5 -3.6,3.6 -1.2,-2.6 c -2.4,-5.1 -10.8,-7.9 -16.8,-5.5 z m 9.1,3.4 c 6.3,2.6 7.5,9.7 2.6,14.7 -3.7,3.7 -7.9,3.8 -12,0.3 -5.2,-4.3 -4,-12.2 2.2,-14.9 4,-1.8 3.2,-1.7 7.2,-0.1 z m 4.3,22.8 c 1.6,1.6 1.6,3.1 0,2.2 -1.9,-1.2 -7.6,-0.8 -9.3,0.6 -1.3,1.1 -1.9,1.1 -3.2,-0.3 -1.4,-1.4 -1.8,-1.4 -4.4,0.6 l -2.9,2.1 -2.9,-2.1 -2.8,-2.1 -3.1,3.1 -3.2,3.1 -3.3,-3.2 -3.3,-3.2 -3.2,3.2 -3.2,3.3 -3.2,-3.3 -3.2,-3.2 -3.3,3.2 -3.3,3.2 -3.2,-3.2 -3.3,-3.2 4.5,-0.1 c 2.5,-0.1 10.4,-0.5 17.5,-0.8 22.6,-1.3 41,-1.2 42.3,0.1 z"
           id="path8"
           inkscape:connector-curvature="0"
           style="fill:#008000;stroke:#000000;stroke-opacity:1" />
        <path
           transform="matrix(0.8,0,0,0.8,1.9067797,-4.6080509)"
           d="m 223.64937,331.99814 c 0,1.04211 -0.93373,1.88692 -2.08554,1.88692 -1.15181,0 -2.08554,-0.84481 -2.08554,-1.88692 0,-1.04212 0.93373,-1.88692 2.08554,-1.88692 1.15181,0 2.08554,0.8448 2.08554,1.88692 z"
           sodipodi:ry="1.8869174"
           sodipodi:rx="2.0855403"
           sodipodi:cy="331.99814"
           sodipodi:cx="221.56383"
           id="path3782"
           style="fill:#008000;stroke:#000000;stroke-opacity:1"
           sodipodi:type="arc" />
        <path
           transform="scale(0.8,0.8)"
           d="m 301.50954,318.49179 c 0,1.15181 -0.88926,2.08554 -1.98622,2.08554 -1.09697,0 -1.98623,-0.93373 -1.98623,-2.08554 0,-1.15181 0.88926,-2.08554 1.98623,-2.08554 1.09696,0 1.98622,0.93373 1.98622,2.08554 z"
           sodipodi:ry="2.0855403"
           sodipodi:rx="1.9862288"
           sodipodi:cy="318.49179"
           sodipodi:cx="299.52332"
           id="path3784"
           style="fill:#008000;stroke:#000000;stroke-opacity:1"
           sodipodi:type="arc" />
      </g>
      <rect
         style="fill:#008000;stroke:none"
         id="rect3793"
         width="69.505272"
         height="13.890862"
         x="160.05667"
         y="250.46982"
         ry="6.9454312" />
    </g>
    <text
       sodipodi:linespacing="125%"
       id="text3802"
       y="122.59649"
       x="8.9797392"
       style="font-size:57.41585159px;font-style:normal;font-variant:normal;font-weight:bold;font-stretch:normal;line-height:125%;letter-spacing:0px;word-spacing:0px;fill:#008000;fill-opacity:1;stroke:#000000;stroke-opacity:1;font-family:Soft Sugar plain;-inkscape-font-specification:Soft Sugar plain Bold"
       xml:space="preserve"><tspan
         y="122.59649"
         x="8.9797392"
         id="tspan3804"
         sodipodi:role="line">appigator</tspan></text>
  </g>
</svg>
