<?xml version="1.0" encoding="UTF-8" standalone="no"?>
<svg
   xmlns:dc="http://purl.org/dc/elements/1.1/"
   xmlns:cc="http://creativecommons.org/ns#"
   xmlns:rdf="http://www.w3.org/1999/02/22-rdf-syntax-ns#"
   xmlns:svg="http://www.w3.org/2000/svg"
   xmlns="http://www.w3.org/2000/svg"
   xmlns:sodipodi="http://sodipodi.sourceforge.net/DTD/sodipodi-0.dtd"
   xmlns:inkscape="http://www.inkscape.org/namespaces/inkscape"
   version="1.0"
   width="325.000000pt"
   height="260.000000pt"
   viewBox="0 0 325.000000 260.000000"
   preserveAspectRatio="xMidYMid meet"
   id="svg2"
   inkscape:version="0.48.4 r9939"
   sodipodi:docname="s1.svg">
  <defs
     id="defs16" />
  <sodipodi:namedview
     pagecolor="#ffffff"
     bordercolor="#666666"
     borderopacity="1"
     objecttolerance="10"
     gridtolerance="10"
     guidetolerance="10"
     inkscape:pageopacity="0"
     inkscape:pageshadow="2"
     inkscape:window-width="1855"
     inkscape:window-height="1056"
     id="namedview14"
     showgrid="false"
     inkscape:zoom="1.0269366"
     inkscape:cx="203.125"
     inkscape:cy="162.5"
     inkscape:window-x="65"
     inkscape:window-y="24"
     inkscape:window-maximized="1"
     inkscape:current-layer="svg2" />
  <metadata
     id="metadata4">
Created by potrace 1.11, written by Peter Selinger 2001-2013
<rdf:RDF>
  <cc:Work
     rdf:about="">
    <dc:format>image/svg+xml</dc:format>
    <dc:type
       rdf:resource="http://purl.org/dc/dcmitype/StillImage" />
    <dc:title></dc:title>
  </cc:Work>
</rdf:RDF>
</metadata>
  <rect
     style="fill:#000000;stroke:none"
     id="rect3009"
     width="324.84967"
     height="260.58084"
     x="0"
     y="-0.58083391"
     ry="32.610168" />
  <path
     id="path12"
     style="fill:#00ff00;stroke:none"
     d="m 153.7,75 c -5.9,1.5 -12.9,5.5 -17.6,10 -3.7,3.6 -4.1,4.4 -2.9,5.8 1.1,1.4 1.1,1.5 -0.5,0.9 -1.5,-0.6 -2.3,0.4 -4.5,5.1 -2.3,4.9 -2.7,7 -2.7,15.2 0.1,8.5 0.4,10.2 3.1,16 5.9,12.5 12.1,17.6 30,24.5 6.5,2.5 12.7,5.4 13.8,6.3 8.1,7.3 3,19.7 -7.9,19 -3.7,-0.3 -4,-0.5 -4.6,-3.8 -1.6,-9.9 -10.9,-18 -20.7,-18 -7.6,0 -16.2,8 -16.2,15.1 0,2.8 3.6,5.9 6.8,5.9 5.9,0 8.5,-7 4.3,-11.4 -1.9,-2 -2,-2.4 -0.6,-2.9 2.3,-0.9 5.9,0.8 8.4,3.9 2.5,3.1 2.8,9.1 0.6,12 -0.8,1 -1.5,2.2 -1.5,2.6 0,0.4 2.8,2 6.3,3.7 6.9,3.4 18.6,5.4 17.1,3 -0.6,-1.2 -0.5,-1.2 0.8,-0.1 2,1.6 6.7,0.7 14.4,-2.9 19.7,-9.2 26.9,-32.9 16.1,-53.2 -3.1,-5.9 -10.6,-13.6 -16.1,-16.4 -4.4,-2.3 -13.7,-5.3 -14.6,-4.8 -0.5,0.3 -1,0.1 -1.2,-0.4 -0.1,-0.4 -2.7,-2 -5.5,-3.5 -2.9,-1.4 -6,-3.8 -7,-5.2 -3.7,-5.7 -0.8,-13.8 5.7,-16 3.6,-1.2 8,-0.7 8.5,1 0.1,0.6 0.8,3 1.4,5.4 1.9,6.9 10.8,15.3 14.7,13.8 0.7,-0.3 1.6,-0.1 1.9,0.4 1.6,2.6 11.1,-0.3 15.2,-4.6 6.3,-6.7 5,-15.4 -2.2,-15.4 -1.8,0 -4.1,0.7 -4.9,1.6 -2.3,2.3 -2.1,8.1 0.4,9.6 2.4,1.5 2.5,2.4 0.4,3.2 -2,0.8 -6.8,-1.8 -8.8,-4.6 -2,-2.8 -2.1,-8.8 -0.1,-11.4 0.8,-1 1.5,-2.2 1.5,-2.6 0,-0.4 -2.9,-2.1 -6.4,-3.8 -7,-3.5 -17.8,-4.8 -24.9,-3 z M 144,60 c -33.8,8.8 -56.8,40.5 -54.7,75.6 1.5,23.4 12.8,43.7 31.4,56.4 8.7,5.9 21.4,11.5 24.4,10.7 1,-0.3 2,0 2.2,0.6 0.5,1.7 22.5,2.2 29.9,0.7 3.4,-0.6 7.3,-1.6 8.7,-2.2 1.4,-0.6 2.8,-1.2 3.1,-1.3 3.4,-0.8 8,-2.8 8,-3.5 0,-0.4 1,-1 2.3,-1.4 3.1,-0.7 11.9,-7.5 11.2,-8.5 -0.2,-0.5 0.3,-0.8 1.2,-0.7 2.7,0.2 13.1,-13.2 17.8,-22.9 20.3,-42.1 -2.8,-91.9 -48,-103.5 -10.5,-2.7 -27,-2.7 -37.5,0 z m 35.6,2 c 4.3,1.1 11.7,3.9 16.4,6.2 6.9,3.4 10.2,5.8 17.5,13.2 7.4,7.4 9.9,10.7 13.2,17.6 9.3,19 10.5,36.4 3.9,56 -3.5,10.4 -8,17.4 -17.1,26.5 -9.1,9.1 -17.4,14.4 -29,18.2 -7.1,2.4 -9.5,2.7 -21.5,2.7 -12,0 -14.4,-0.3 -21.5,-2.7 -4.4,-1.5 -11,-4.4 -14.7,-6.6 -3.7,-2.1 -6.9,-3.7 -7.2,-3.5 -0.3,0.2 -0.5,0.2 -0.3,-0.1 0.2,-0.2 -2.9,-3.7 -6.8,-7.7 -12.2,-12.5 -18.5,-25.4 -20.6,-42 -3.9,-30.4 13,-60.2 41.7,-73.5 14.1,-6.4 31.1,-8.1 46,-4.3 z m -19.8,-25.4 -2.6,2.7 -3.6,-2.2 -3.6,-2.3 -2.6,3.1 -2.5,3 -3.5,-1.7 -3.6,-1.7 -2.8,3.5 c -2.6,3.2 -3,3.3 -5.4,2.2 -4.1,-1.8 -5.1,-1.5 -6.5,2.3 -1.1,3.2 -1.5,3.4 -4.4,2.8 -1.8,-0.3 -3.6,-0.6 -4.1,-0.7 -0.5,0 -1.4,1.6 -1.9,3.7 -0.9,3.7 -1,3.8 -5,3.5 -4,-0.2 -4.2,-0.1 -5,3.4 -0.8,3.2 -1.3,3.6 -4.8,4.2 -3.7,0.6 -3.9,0.8 -3.9,4.1 0,3.6 -0.3,3.8 -5.2,4.9 -2.5,0.6 -2.8,1.1 -2.8,4.5 0,3.6 -0.3,4 -3.5,5.1 -3.5,1.2 -3.6,1.3 -3,5.4 0.6,4.1 0.6,4.2 -3,5.5 -2.8,1 -3.5,1.7 -3,2.9 1.7,4.5 1.7,7 -0.1,8.1 -4.6,2.6 -4.6,2.6 -2.7,6.6 l 1.8,3.7 -3.2,2.7 -3.1,2.6 2.4,3.5 2.4,3.4 -2.5,2.6 c -3.1,3.2 -3.1,3.8 0,7 l 2.5,2.6 -2.5,3.4 -2.5,3.4 3.2,2.7 3.3,2.7 -1.7,3.5 -1.7,3.5 3.4,2.6 c 3.4,2.6 3.4,2.7 1.9,6.1 -1.8,4.5 -2,4.2 2.2,5.5 3.5,1.2 3.6,1.3 3,5.5 -0.7,4.1 -0.6,4.2 2.6,5.1 3,0.9 3.3,1.4 3.6,5.2 0.3,4 0.5,4.2 4.3,4.8 3.7,0.6 3.9,0.8 3.9,4.4 0,3.6 0.2,3.8 3.9,4.4 3.9,0.6 5.1,2 5.1,5.9 0,2 0.4,2.2 4.4,1.9 4.3,-0.4 4.4,-0.3 5.3,3.5 0.5,2.1 1.4,3.7 1.9,3.7 0.5,-0.1 2.3,-0.5 4,-0.8 2.8,-0.6 3.2,-0.4 4.4,2.4 1.6,4 2.1,4.2 6,2.8 3.1,-1 3.5,-0.9 6,2.2 l 2.6,3.2 3.4,-1.7 3.4,-1.8 2.8,3.2 2.9,3.2 2.8,-2.1 c 3.7,-2.6 3.9,-2.5 7.3,0.7 l 2.8,2.7 2.8,-2.7 c 3.4,-3.2 3.6,-3.3 7.3,-0.7 l 2.8,2.1 2.9,-3.2 2.8,-3.2 3.4,1.8 3.4,1.7 2.6,-3.2 c 2.5,-3.1 2.9,-3.2 6,-2.2 3.9,1.4 4.4,1.2 6,-2.8 1.1,-2.8 1.6,-3 4.6,-2.4 2.5,0.5 3.4,0.3 3.4,-0.7 0,-1.1 0.2,-1.1 0.9,0 0.7,1.1 1.1,0.5 1.6,-2.3 0.8,-3.8 0.8,-3.8 5.1,-3.4 4.1,0.3 4.4,0.2 4.4,-2.2 0,-3.9 1.5,-5.3 5.4,-5.4 3.5,-0.1 3.6,-0.2 3.6,-4.2 0,-4 0.1,-4.2 3.9,-4.8 3.8,-0.6 4,-0.8 4.3,-4.8 0.3,-3.8 0.6,-4.3 3.6,-5 3.3,-0.9 3.3,-1 2.7,-5.2 -0.7,-4.3 -0.7,-4.4 3,-5.6 2.8,-0.9 3.5,-1.6 2.9,-2.9 -1.7,-3.9 -1.6,-6.9 0.2,-8 4.6,-2.6 4.6,-2.6 2.7,-6.6 l -1.8,-3.7 3.3,-2.7 3.2,-2.7 -2.5,-3.4 -2.5,-3.4 2.5,-2.6 c 1.4,-1.4 2.5,-3 2.5,-3.5 0,-0.5 -1.1,-2.1 -2.5,-3.5 l -2.5,-2.6 2.5,-3.5 2.6,-3.4 -3.3,-2.7 -3.3,-2.6 1.8,-3.8 c 1.9,-3.9 1.9,-3.9 -2.7,-6.5 -1.8,-1.1 -1.8,-3.6 -0.1,-8.1 0.5,-1.2 -0.2,-1.9 -3,-2.9 -3.6,-1.3 -3.6,-1.4 -3,-5.5 0.6,-4.1 0.5,-4.2 -3,-5.4 -3.2,-1.1 -3.5,-1.5 -3.5,-5 0,-3.6 -0.2,-3.9 -3.7,-4.7 -3.5,-0.8 -3.8,-1.2 -4.1,-4.6 -0.3,-3.5 -0.6,-3.7 -4.3,-4.3 -3.2,-0.5 -4,-1.1 -4.5,-3.3 -1.1,-4.9 -1.1,-4.9 -5.1,-4.4 -3.8,0.5 -3.9,0.4 -4.9,-3.3 -0.5,-2.2 -1.4,-3.8 -1.9,-3.8 -0.6,0.1 -2.4,0.4 -4.1,0.7 -2.8,0.5 -3.3,0.2 -4.8,-3 -1.7,-3.6 -2.6,-3.8 -7.9,-1.7 -1.1,0.4 -2.3,-0.6 -3.9,-2.9 l -2.2,-3.5 -3.7,1.9 -3.8,1.9 -2.5,-3.1 -2.6,-3.1 -3.6,2.2 -3.5,2.2 -2.8,-2.6 c -1.5,-1.4 -2.9,-2.6 -3.2,-2.6 -0.2,0 -1.6,1.2 -3.1,2.6 z M 182.5,58 c 19,4.9 37.1,18.9 47,36.5 10.8,19.2 12.4,43.5 4.3,65.2 -5,13.5 -20.9,31.3 -34.4,38.5 -11.3,6 -23,9 -35.9,9 -7.1,0.1 -13.1,-0.5 -16.9,-1.5 -3.3,-0.9 -6.4,-1.3 -6.9,-1 -0.5,0.3 -1.2,0.2 -1.6,-0.3 -0.3,-0.5 -4.5,-2.8 -9.3,-5.2 -10.6,-5.2 -22.9,-16.3 -29.9,-27 -2.6,-3.9 -4.9,-6.9 -5.2,-6.5 -0.2,0.5 -0.2,0.2 -0.1,-0.4 0.2,-0.7 -0.7,-4.1 -2,-7.5 -7.5,-20.3 -5.6,-44.6 4.9,-63.3 11.9,-21 33.8,-35.6 58.5,-38.8 6,-0.8 19.8,0.3 27.5,2.3 z" />
</svg>
