<?xml version="1.0" encoding="UTF-8" standalone="no"?>
<svg
   xmlns:dc="http://purl.org/dc/elements/1.1/"
   xmlns:cc="http://creativecommons.org/ns#"
   xmlns:rdf="http://www.w3.org/1999/02/22-rdf-syntax-ns#"
   xmlns:svg="http://www.w3.org/2000/svg"
   xmlns="http://www.w3.org/2000/svg"
   xmlns:sodipodi="http://sodipodi.sourceforge.net/DTD/sodipodi-0.dtd"
   xmlns:inkscape="http://www.inkscape.org/namespaces/inkscape"
   version="1.0"
   width="100.000000pt"
   height="100.000000pt"
   viewBox="0 0 100.000000 100.000000"
   preserveAspectRatio="xMidYMid meet"
   id="svg2"
   inkscape:version="0.48.4 r9939"
   sodipodi:docname="s2.svg">
  <defs
     id="defs12" />
  <sodipodi:namedview
     pagecolor="#ffffff"
     bordercolor="#666666"
     borderopacity="1"
     objecttolerance="10"
     gridtolerance="10"
     guidetolerance="10"
     inkscape:pageopacity="0"
     inkscape:pageshadow="2"
     inkscape:window-width="1855"
     inkscape:window-height="1056"
     id="namedview10"
     showgrid="false"
     inkscape:zoom="2.6700352"
     inkscape:cx="62.5"
     inkscape:cy="38.393338"
     inkscape:window-x="65"
     inkscape:window-y="24"
     inkscape:window-maximized="1"
     inkscape:current-layer="svg2" />
  <metadata
     id="metadata4">
Created by potrace 1.11, written by Peter Selinger 2001-2013
<rdf:RDF>
  <cc:Work
     rdf:about="">
    <dc:format>image/svg+xml</dc:format>
    <dc:type
       rdf:resource="http://purl.org/dc/dcmitype/StillImage" />
  </cc:Work>
</rdf:RDF>
</metadata>
  <g
     id="g2992">
    <rect
       ry="18.505085"
       y="0.12426325"
       x="-0.094914883"
       height="100.0876"
       width="100.00001"
       id="rect2990"
       style="fill:#ff00ff;stroke:none" />
    <path
       d="M 37.3,1.5 C 29,3.8 22.1,7.8 15.4,14.2 -5.2,34 -5.2,66 15.4,85.8 c 20.3,19.5 51.1,19 70.4,-1.2 19.1,-19.8 19.1,-49.4 0,-69.2 C 73.3,2.4 54.3,-3.1 37.3,1.5 z m 6.2,14.6 c 0.4,0.5 0,1.8 -0.9,2.7 -2.4,2.7 -4.6,8.8 -4.6,12.6 0,5.5 1.6,8.4 9.6,17.8 9.8,11.6 11.4,14.3 11.4,19.9 0,11 -11,17.8 -21.5,13.4 -3.4,-1.4 -5.4,-3.9 -4.1,-5.2 0.3,-0.3 2.5,0.4 4.9,1.7 7.9,4.2 16.2,-0.1 17.4,-8.9 0.7,-4.8 0.1,-5.8 -10.5,-18.5 -9.2,-11 -10.5,-14.1 -10,-22.2 0.3,-4.8 1,-7.1 3.2,-10.3 3,-4.2 4,-4.9 5.1,-3 z m 19,1.4 c 3.4,1.4 5.4,3.9 4.1,5.2 -0.3,0.4 -2.5,-0.4 -4.7,-1.6 -3,-1.7 -5,-2.2 -7.6,-1.8 -6.7,1.1 -11.6,8.5 -9.9,15 0.3,1.3 4.4,7 9.2,12.7 4.8,5.7 9.3,11.8 10,13.6 2.9,6.9 1.4,16.3 -3.5,22.4 -1.6,2 -2.3,2.2 -3.2,1.3 -1,-1 -0.9,-1.6 0.4,-3.1 4.2,-4.6 5.8,-13.1 3.6,-18.9 C 60.4,60.8 56.5,55.6 52.4,50.8 42.6,39.2 41,36.5 41,30.9 41,19.9 52,13.1 62.5,17.5 z m -0.4,7.4 c 3.3,3.3 3.9,8.2 1.4,11.5 -2.1,2.8 -4.2,0.7 -2.5,-2.4 2.7,-5.1 -2.3,-10.6 -7.5,-8.2 -1.3,0.6 -2.7,2.3 -3.1,3.7 -0.7,2.9 0,4 11.7,18.4 6.7,8.3 8.9,13 8.9,19.5 C 71,69.9 70.6,71 69.5,71 68.4,71 68,69.9 68,67.2 67.9,61.5 65.1,56.5 55.6,45.2 48.1,36.1 47,34.3 47,31 c 0,-3 0.6,-4.4 3.1,-6.4 4.1,-3.5 8.3,-3.4 12,0.3 z M 32,32.7 c 0.1,5.8 2.9,10.8 12.4,22.1 7.5,9.1 8.6,10.9 8.6,14.2 0,3 -0.6,4.4 -3.1,6.4 -4.1,3.5 -8.3,3.4 -12,-0.3 -3.3,-3.3 -3.9,-8.2 -1.4,-11.5 2.2,-2.9 4,-0.8 2.4,2.7 -0.9,2 -0.9,3.3 -0.1,5.2 2.2,4.8 9.5,4.1 10.8,-1.1 0.7,-2.8 -0.1,-4 -11.7,-18.3 C 31.2,43.8 29,39.1 29,32.6 29,30.1 29.4,29 30.5,29 c 1.1,0 1.5,1.1 1.5,3.7 z"
       id="path8"
       inkscape:connector-curvature="0"
       style="fill:#000000;stroke:none" />
  </g>
</svg>
