<?xml version="1.0" encoding="UTF-8" standalone="no"?>
<svg
   xmlns:dc="http://purl.org/dc/elements/1.1/"
   xmlns:cc="http://creativecommons.org/ns#"
   xmlns:rdf="http://www.w3.org/1999/02/22-rdf-syntax-ns#"
   xmlns:svg="http://www.w3.org/2000/svg"
   xmlns="http://www.w3.org/2000/svg"
   xmlns:sodipodi="http://sodipodi.sourceforge.net/DTD/sodipodi-0.dtd"
   xmlns:inkscape="http://www.inkscape.org/namespaces/inkscape"
   version="1.0"
   width="603.4621"
   height="356.39096"
   viewBox="0 0 482.76968 285.11277"
   preserveAspectRatio="xMidYMid meet"
   id="svg2"
   inkscape:version="0.48.4 r9939"
   sodipodi:docname="time.svg"
   inkscape:export-filename="C:\git\UI-UX\Pictures\time.png"
   inkscape:export-xdpi="90"
   inkscape:export-ydpi="90">
  <defs
     id="defs16">
    <inkscape:path-effect
       effect="spiro"
       id="path-effect3795"
       is_visible="true" />
    <inkscape:path-effect
       is_visible="true"
       id="path-effect3791"
       effect="spiro" />
    <inkscape:path-effect
       effect="spiro"
       id="path-effect3787"
       is_visible="true" />
    <inkscape:path-effect
       is_visible="true"
       id="path-effect3783"
       effect="spiro" />
    <inkscape:path-effect
       effect="spiro"
       id="path-effect3009"
       is_visible="true" />
  </defs>
  <sodipodi:namedview
     pagecolor="#ffffff"
     bordercolor="#666666"
     borderopacity="1"
     objecttolerance="10"
     gridtolerance="10"
     guidetolerance="10"
     inkscape:pageopacity="0"
     inkscape:pageshadow="2"
     inkscape:window-width="1920"
     inkscape:window-height="1057"
     id="namedview14"
     showgrid="false"
     inkscape:zoom="1.2594506"
     inkscape:cx="111.41366"
     inkscape:cy="162.49999"
     inkscape:window-x="-8"
     inkscape:window-y="-8"
     inkscape:window-maximized="1"
     inkscape:current-layer="svg2"
     fit-margin-top="0"
     fit-margin-left="0"
     fit-margin-right="0"
     fit-margin-bottom="0" />
  <metadata
     id="metadata4">
Created by potrace 1.11, written by Peter Selinger 2001-2013
<rdf:RDF>
  <cc:Work
     rdf:about="">
    <dc:format>image/svg+xml</dc:format>
    <dc:type
       rdf:resource="http://purl.org/dc/dcmitype/StillImage" />
    <dc:title></dc:title>
  </cc:Work>
</rdf:RDF>
</metadata>
  <g
     id="g3839"
     transform="translate(-62.730307,-56.887232)">
    <g
       id="g3834">
      <path
         style="fill:#000000;stroke:none"
         d="m 377.25,113.75 c -211.875,0 -267.25,0.375 -269.75,1.625 -2.5,1.25 -3.25,2.875 -4.125,8.375 -1.25,9.25 -0.5,258.75 0.875,261.625 3,6.125 -11.25,5.875 274.5,5.875 291,0 270.625,0.5 275.75,-7.125 2.25,-3.375 2.375,-7.875 2.375,-131.625 0,-122.125 -0.125,-128.375 -2.25,-131.75 -5,-7.5 13.25,-7 -277.375,-7 z"
         id="path12"
         transform="scale(0.8,0.8)"
         inkscape:connector-curvature="0" />
      <path
         style="fill:#000000;stroke:none"
         inkscape:connector-curvature="0"
         id="path8"
         d="m 112.5,58.2 c -0.2,0.7 -0.6,3.9 -0.7,7 L 111.5,71 97.9,71.4 C 87.6,71.8 83,72.4 78.8,74 71,76.9 65.2,83.6 63.7,91.5 c -0.4,1.6 -0.8,50.9 -0.9,109.5 -0.2,83.6 0,107.4 1,110.7 2.4,7.9 7.1,13.5 14.5,17.2 l 6.7,3.5 17,0.4 17,0.5 0,3.1 c 0,1.8 0.5,3.7 1.2,4.4 0.9,0.9 11.7,1.2 42.4,1.2 22.7,0 41.9,-0.3 42.8,-0.6 1.1,-0.4 1.6,-1.9 1.6,-4.5 l 0,-3.9 97,0 97,0 0,3.9 c 0,2.6 0.5,4.1 1.6,4.5 2,0.8 82.8,0.8 84.8,0 1.1,-0.4 1.6,-1.9 1.6,-4.4 l 0,-3.8 17.3,-0.4 c 16.4,-0.3 17.4,-0.4 22.3,-3 6.6,-3.5 12.8,-10.5 15.1,-17.1 1.7,-4.9 1.8,-11.6 1.8,-110.7 0,-98.7 -0.1,-105.8 -1.8,-110.6 C 538.7,77 526.2,71.1 500.3,71 l -9.2,0 -0.3,-6.8 -0.3,-6.7 -30.9,-0.3 c -21.9,-0.2 -31.3,0.1 -32.2,0.9 -0.9,0.7 -1.4,3.3 -1.4,7 0,4.6 -0.3,5.9 -1.5,5.9 -1.2,0 -1.5,-1.3 -1.5,-5.9 0,-3.7 -0.5,-6.3 -1.4,-7 -0.9,-0.8 -10.3,-1.1 -32.2,-0.9 l -30.9,0.3 -0.3,6.7 -0.3,6.8 -90.4,0.2 -90.5,0.3 0,-6 c 0,-3.4 -0.5,-6.6 -1.2,-7.3 -1.8,-1.8 -62.7,-1.7 -63.3,0 z m 39.5,8.7 c 0,2.2 -0.4,4.1 -1,4.3 -0.5,0.1 -8.4,0.2 -17.5,0 l -16.5,-0.3 0,-3.3 c 0,-1.8 0.3,-3.6 0.7,-3.9 0.3,-0.4 8.2,-0.7 17.5,-0.7 l 16.8,0 0,3.9 z m 246,0.1 0,4 -17.5,0 -17.5,0 0,-3.3 c 0,-1.9 0.3,-3.7 0.7,-4 0.3,-0.4 8.2,-0.7 17.5,-0.7 l 16.8,0 0,4 z m 69,0.1 0,3.9 -16.5,0 c -9.1,0 -16.8,0.1 -17.2,0.2 -0.5,0.2 -0.9,-1.6 -1.1,-4 l -0.3,-4.3 17.5,0.1 17.6,0.2 0,3.9 z m 57.2,10.2 c 6.7,2.6 13.3,8.8 15.5,14.5 1.7,4.4 1.8,10.5 1.8,110.7 l 0,106 -2.4,5.3 c -2.9,6.4 -8.6,11.5 -15.5,13.9 -4.8,1.6 -18.9,1.7 -219.1,1.4 C 170.1,329 88.8,328.5 86,327.9 80.5,326.7 75,323.2 71.6,318.8 65.9,311.3 66,312.7 66,201.9 66,137.3 66.4,98.3 67,94.9 67.6,92 68.9,88 69.9,86 72.1,81.6 79.2,77.1 85.6,76 88.3,75.6 187,75.3 305,75.4 c 205.1,0.1 214.7,0.2 219.2,1.9 z M 204,338 c 0,1.4 -80.7,1.4 -81.5,0 -0.4,-0.7 13.3,-1 40.4,-1 26.7,0 41.1,0.3 41.1,1 z" />
      <path
         style="fill:#000000;stroke:none"
         inkscape:connector-curvature="0"
         id="path10"
         d="m 84,81.9 c -4.2,1.3 -7,3.4 -9.3,7.1 l -2.2,3.5 -0.3,105 c -0.2,75.7 0,106.5 0.8,110.3 1.4,6.2 4.9,10.8 10.5,13.3 3.8,1.8 12.6,1.9 218.5,1.9 148.2,0 215.7,-0.3 218.3,-1.1 2.1,-0.6 5.6,-2.6 7.7,-4.5 7.4,-6.7 7,-0.5 7,-116.6 C 535,116 534.8,96.3 533.7,93.7 531.8,89.3 525,83.4 520.3,82.1 515.8,80.8 88.1,80.7 84,81.9 z M 520.7,91 c 1.8,1 4,3.1 5,4.7 1.7,2.6 1.8,8.1 1.8,105.8 0,112.4 0.3,105.7 -5.5,111 -2.2,2 -3.9,2 -218.3,2.3 C 108,315 87.4,314.9 85.3,313.4 79.8,309.9 80,313.5 80,200.6 80,125.9 80.3,95.4 81.1,93.6 81.7,92.3 83.2,90.7 84.4,90.2 85.8,89.5 155.7,89.1 302,89.1 513.9,89 517.6,89 520.7,91 z" />
    </g>
    <g
       id="g3822">
      <flowRoot
         xml:space="preserve"
         id="flowRoot3011"
         style="font-size:40px;font-style:normal;font-variant:normal;font-weight:normal;font-stretch:normal;line-height:125%;letter-spacing:0px;word-spacing:0px;fill:#3ed5aa;fill-opacity:1;stroke:none;font-family:a_LCDNovaObl;-inkscape-font-specification:a_LCDNovaObl"
         transform="matrix(0.8,0,0,0.8,510.69887,3.175988)"><flowRegion
           id="flowRegion3013"><rect
             id="rect3015"
             width="525.62604"
             height="79.399704"
             x="-508.95209"
             y="106.0056"
             style="fill:#3ed5aa;fill-opacity:1" /></flowRegion><flowPara
           id="flowPara3017">TIME TO : ___________</flowPara></flowRoot>      <flowRoot
         xml:space="preserve"
         id="flowRoot3024"
         style="font-size:40px;font-style:normal;font-variant:normal;font-weight:normal;font-stretch:normal;line-height:125%;letter-spacing:0px;word-spacing:0px;fill:#3ed5aa;fill-opacity:1;stroke:none;font-family:a_LCDNovaObl;-inkscape-font-specification:a_LCDNovaObl"
         transform="matrix(4.4629728,0,0,4.4629728,-452.40844,-786.8345)"><flowRegion
           id="flowRegion3026"><rect
             id="rect3028"
             width="515.30408"
             height="183.41331"
             x="121.48154"
             y="191.75728"
             style="fill:#3ed5aa;fill-opacity:1" /></flowRegion><flowPara
           id="flowPara3030"><flowSpan
   style="fill:#ffffff;fill-opacity:1"
   id="flowSpan3032">ле</flowSpan>:н<flowSpan
   style="fill:#ffffff"
   id="flowSpan3820">ь</flowSpan></flowPara></flowRoot>    </g>
  </g>
</svg>
