<?xml version="1.0" encoding="UTF-8" standalone="no"?>
<!-- Created with Inkscape (http://www.inkscape.org/) -->

<svg
   xmlns:dc="http://purl.org/dc/elements/1.1/"
   xmlns:cc="http://creativecommons.org/ns#"
   xmlns:rdf="http://www.w3.org/1999/02/22-rdf-syntax-ns#"
   xmlns:svg="http://www.w3.org/2000/svg"
   xmlns="http://www.w3.org/2000/svg"
   xmlns:sodipodi="http://sodipodi.sourceforge.net/DTD/sodipodi-0.dtd"
   xmlns:inkscape="http://www.inkscape.org/namespaces/inkscape"
   id="svg2"
   version="1.1"
   inkscape:version="0.48.4 r9939"
   width="365.46609"
   height="238.98305"
   sodipodi:docname="dna2.jpg">
  <metadata
     id="metadata8">
    <rdf:RDF>
      <cc:Work
         rdf:about="">
        <dc:format>image/svg+xml</dc:format>
        <dc:type
           rdf:resource="http://purl.org/dc/dcmitype/StillImage" />
        <dc:title></dc:title>
      </cc:Work>
    </rdf:RDF>
  </metadata>
  <defs
     id="defs6" />
  <sodipodi:namedview
     pagecolor="#ffffff"
     bordercolor="#666666"
     borderopacity="1"
     objecttolerance="10"
     gridtolerance="10"
     guidetolerance="10"
     inkscape:pageopacity="0"
     inkscape:pageshadow="2"
     inkscape:window-width="1920"
     inkscape:window-height="1003"
     id="namedview4"
     showgrid="false"
     fit-margin-top="0"
     fit-margin-left="0"
     fit-margin-right="0"
     fit-margin-bottom="0"
     inkscape:zoom="1.5733333"
     inkscape:cx="123.90661"
     inkscape:cy="175.33339"
     inkscape:window-x="-9"
     inkscape:window-y="-9"
     inkscape:window-maximized="1"
     inkscape:current-layer="svg2" />
  <g
     id="g3078">
    <rect
       ry="21.416851"
       y="0"
       x="0"
       height="238.98305"
       width="365.46609"
       id="rect3076"
       style="fill:#000000;fill-opacity:1;stroke:none" />
    <g
       transform="translate(-14.618642,-33.050848)"
       id="g3063">
      <path
         style="fill:#00ff00;stroke:none"
         inkscape:connector-curvature="0"
         id="path8"
         d="m 191.71978,88.430691 c -0.99091,1.585454 -0.79273,1.585454 11.09818,7.927279 5.84637,3.071821 10.70182,6.04455 10.99909,6.73818 0.19819,0.79273 -1.38727,1.1891 -5.45,1.28818 -7.53091,0.19818 -7.63,0.19818 -15.1609,-2.17999 -3.56728,-1.1891 -7.13455,-2.279093 -7.92728,-2.378188 -0.79273,-0.198181 -4.55818,-1.684549 -8.42274,-3.270001 -6.83727,-2.873632 -10.00818,-2.774547 -7.5309,0.19818 0.69363,0.792732 2.08091,1.783632 3.07182,2.080908 1.98181,0.594552 10.90001,8.422731 10.90001,9.512731 0,0.99092 -5.84637,2.27909 -8.9182,1.98182 -1.28817,-0.19818 -5.35091,-1.38728 -9.01727,-2.67545 -10.60273,-3.86455 -12.78273,-2.87365 -5.84636,2.57636 2.17999,1.68455 3.96363,3.66637 3.96363,4.36 0,0.69364 -2.67545,2.97273 -5.94546,4.95454 -26.2591,16.25092 -32.7991,45.58185 -12.78272,56.58095 4.65726,2.57637 6.44091,2.87364 13.27818,2.97273 13.08,0 16.05274,-1.88273 41.61819,-25.86275 18.43092,-17.34091 19.62001,-17.93546 20.8091,-10.60273 0.89182,5.45 1.28818,6.24273 2.77455,6.24273 1.38727,0 3.66636,-8.42273 3.66636,-13.37728 0,-2.87363 2.97273,-5.45 7.03545,-6.04454 5.94547,-0.89183 6.34183,0.0991 3.66637,11.09818 -3.46819,14.36819 -2.27909,17.14273 3.56728,8.02637 1.78363,-2.77455 4.2609,-7.13455 5.54909,-9.61183 2.67545,-5.3509 3.66636,-6.14363 6.14364,-4.65727 1.68454,1.09 5.74727,8.12546 5.74727,10.00819 0,0.39636 -2.97273,3.86454 -6.54,7.63 -5.05363,5.15273 -6.24273,6.93637 -5.05363,7.33273 0.79272,0.39637 2.97272,-0.0991 4.65726,-0.99091 1.78365,-0.89182 3.3691,-1.38727 3.66638,-1.18909 0.59454,0.69364 -1.48637,4.65728 -3.96364,7.33273 l -1.98183,2.18 -2.57636,-2.77455 c -1.48636,-1.58546 -3.17091,-3.96363 -3.86455,-5.45 -0.89182,-2.08091 -1.78363,-2.57637 -4.75636,-2.57637 -2.57637,0 -4.26092,-0.69363 -5.94546,-2.47727 -1.78364,-1.98181 -3.17091,-2.47727 -6.54,-2.37818 -2.37819,0.0991 -6.14364,-0.49546 -8.42274,-1.1891 -3.66636,-1.08999 -4.65726,-1.08999 -7.72909,0.39638 -5.84637,2.77454 -4.55818,4.65727 3.07183,4.65727 12.58454,0 26.75455,5.64818 30.6191,12.08909 1.58545,2.67546 1.58545,2.97274 0,4.75637 -2.57637,2.87364 -14.07092,8.42274 -24.27729,11.79183 -13.97182,4.55818 -24.17818,6.04455 -41.61819,6.04455 -15.45819,0 -23.38546,-0.89182 -30.91638,-3.56728 -5.25181,-1.78364 -5.74727,-1.78364 -5.74727,0.59455 0,2.87363 5.94546,8.32364 10.60273,9.71091 2.18001,0.69364 6.6391,1.1891 9.81001,1.1891 4.55818,0 7.63,0.79272 13.77364,3.56726 12.28728,5.5491 26.85364,11.29637 29.23183,11.49455 5.25181,0.59455 2.27909,-2.27909 -8.12545,-7.72909 -6.04455,-3.27 -11.29637,-6.54 -11.49456,-7.23364 -0.29727,-0.9909 1.48637,-1.18909 8.32364,-0.89182 7.43181,0.39636 10.80091,1.1891 21.20546,4.95456 6.83727,2.57635 13.08,4.75636 13.87272,4.95454 3.27001,0.69363 1.09001,-2.27909 -5.3509,-7.23364 -3.76546,-2.97273 -7.03546,-5.84636 -7.23364,-6.54 -0.29728,-0.69364 1.28818,-1.48637 3.86454,-2.08091 3.56728,-0.69364 5.5491,-0.39636 12.38638,1.98181 12.08909,4.16182 14.36818,3.46819 7.23363,-2.17999 -2.17999,-1.68455 -3.96364,-3.66637 -3.96364,-4.36 0,-0.69364 2.67546,-2.97273 5.94547,-4.95455 8.02636,-4.95455 15.75545,-12.68365 19.71909,-19.8182 4.06273,-7.23364 5.45001,-17.44001 3.46818,-24.37637 -2.08091,-7.03546 -10.80091,-14.76455 -14.86363,-13.1791 -1.09001,0.39636 -1.48637,0.29728 -1.09001,-0.39636 0.99091,-1.58545 -6.34182,-2.67546 -11.99001,-1.78364 -5.25181,0.79273 -14.07091,4.26091 -14.07091,5.54909 0,0.49545 -0.59454,0.89183 -1.18909,0.89183 -0.69364,0 -7.03546,5.3509 -14.17,11.8909 -23.08818,21.20547 -25.16909,22.9891 -26.65546,22.49366 -0.79272,-0.29728 -1.78364,-2.57637 -2.08091,-5.05365 -0.89182,-5.74728 -3.07183,-7.82819 -4.36,-4.26091 -0.49546,1.38728 -1.28818,5.15273 -1.68455,8.52182 -0.69364,6.6391 -2.08091,8.42274 -7.33273,9.41365 -6.04455,0.99091 -6.34182,0.0991 -3.86455,-10.40456 4.16182,-17.63818 1.28818,-18.62909 -7.13454,-2.37818 -4.16182,7.92727 -5.84637,9.51274 -8.32364,7.63 -1.98182,-1.38727 -3.56728,-3.96363 -4.4591,-7.13455 -0.89182,-3.07181 -0.59454,-3.56727 5.45001,-9.90909 3.56727,-3.56727 6.44091,-6.93637 6.44091,-7.23364 0,-1.18909 -2.97273,-0.79273 -6.04455,0.89182 -1.68455,0.79272 -3.27,1.28818 -3.56728,1.09 -0.59454,-0.69364 1.48637,-4.65728 3.96364,-7.33273 l 1.98183,-2.18 2.57635,2.77454 c 1.48637,1.58546 3.17092,3.96364 3.86456,5.45001 0.89181,2.08091 1.78363,2.57637 4.75636,2.57637 2.57636,0 4.26091,0.69363 5.94545,2.47727 1.78365,1.98181 3.17092,2.47727 6.54001,2.37817 2.37818,-0.0991 6.14363,0.49546 8.42272,1.1891 3.66638,1.09 4.65728,1.09 7.7291,-0.39636 5.45,-2.57637 4.55818,-4.4591 -2.37818,-4.55819 -13.27818,-0.19818 -25.96183,-5.15273 -31.21364,-12.18818 -1.78365,-2.57637 -1.78365,-2.87364 -0.29728,-4.55819 2.77455,-2.97273 16.64728,-9.81 25.46637,-12.48545 14.36819,-4.26092 24.17819,-5.64819 40.4291,-5.64819 9.51273,0 15.06182,-0.39636 15.06182,-0.99091 0,-0.59454 0.69364,-0.29727 1.58546,0.49545 0.79273,0.89182 2.57636,1.58546 3.86455,1.58546 1.28818,0 5.15272,0.89181 8.62091,1.98182 7.7291,2.37818 7.7291,2.37818 7.7291,0 0,-1.09001 -0.39637,-1.98182 -0.89183,-1.98182 -0.49545,0 -1.28818,-0.89182 -1.58545,-1.98182 -1.09,-3.3691 -7.82819,-6.04455 -17.34091,-6.93636 -7.13456,-0.69364 -10.30547,-1.58546 -19.42183,-5.648192 -18.53001,-8.422725 -25.66455,-10.899996 -26.65546,-9.215457 z" />
      <g
         id="g3047">
        <path
           sodipodi:nodetypes="sssssssss"
           inkscape:connector-curvature="0"
           id="path3036"
           d="m 217.89777,85.194412 c 0,0.89951 0.93147,1.994759 -0.92323,2.584236 -1.85469,0.589476 -5.8214,0.167568 -8.65157,0.167568 -2.83017,0 -6.79688,-0.926389 -8.65157,-1.515865 -1.85469,-0.589477 -4.79957,-2.752127 -4.79957,-3.651638 0,-0.89951 0.30446,-1.601506 2.15916,-2.190982 1.85469,-0.589476 5.25961,-0.897896 8.08978,-0.897896 2.83016,0 6.06655,0.701673 7.92124,1.291149 1.85469,0.589477 4.85576,3.313918 4.85576,4.213428 z"
           style="fill:#00ff00;fill-opacity:1;stroke:none" />
        <path
           style="fill:#00ff00;fill-opacity:1;stroke:none"
           d="m 169.94842,88.767424 c 0,0.89951 0.92244,2.388013 2.77714,2.97749 1.85469,0.589476 4.24838,0.167568 7.07855,0.167568 2.83017,0 5.84184,-2.106149 7.69653,-2.695625 1.85469,-0.589477 2.27151,-3.76335 2.27151,-4.662861 0,-0.89951 -0.1921,-1.882401 -2.0468,-2.471877 -1.85469,-0.589476 -2.39448,-0.223747 -5.16847,0.450401 -2.75011,0.668345 -5.61712,2.106149 -7.47181,2.695625 -1.85469,0.589477 -5.13665,2.639769 -5.13665,3.539279 z"
           id="path3039"
           inkscape:connector-curvature="0"
           sodipodi:nodetypes="sssssssss" />
        <path
           sodipodi:nodetypes="sssss"
           inkscape:connector-curvature="0"
           id="path3041"
           d="m 163.69054,98.797288 c 0,3.312832 -0.87812,6.855862 -2.21641,6.855862 -1.3383,0 -3.1787,-3.04815 -3.1787,-6.360979 0,-3.312831 0.38726,-5.987526 1.72556,-5.987526 1.33829,0 3.66955,2.179812 3.66955,5.492643 z"
           style="fill:#00ff00;fill-opacity:1;stroke:none"
           transform="matrix(0.63212346,0.77486768,-0.77486768,0.63212346,134.99253,-89.576127)" />
        <path
           sodipodi:nodetypes="sssssccss"
           inkscape:connector-curvature="0"
           id="rect3044"
           d="m 150.307,108.87892 c 0.94925,0 1.3384,1.86321 1.0955,2.78086 l -2.02245,7.64035 c -0.24291,0.91765 -0.76421,1.71346 -1.71346,1.71346 -0.94926,0 -1.93282,-0.78989 -1.71347,-1.71346 l -0.28089,-3.08985 0.73032,-2.97748 1.68537,-2.92131 c 0.47437,-0.82224 1.26982,-1.43257 2.21908,-1.43257 z"
           style="fill:#00ff00;fill-opacity:1;stroke:none" />
      </g>
      <g
         id="g3053"
         transform="matrix(-1,0,0,-1,397.8039,302.70342)">
        <path
           style="fill:#00ff00;fill-opacity:1;stroke:none"
           d="m 217.89777,85.194412 c 0,0.89951 0.93147,1.994759 -0.92323,2.584236 -1.85469,0.589476 -5.8214,0.167568 -8.65157,0.167568 -2.83017,0 -6.79688,-0.926389 -8.65157,-1.515865 -1.85469,-0.589477 -4.79957,-2.752127 -4.79957,-3.651638 0,-0.89951 0.30446,-1.601506 2.15916,-2.190982 1.85469,-0.589476 5.25961,-0.897896 8.08978,-0.897896 2.83016,0 6.06655,0.701673 7.92124,1.291149 1.85469,0.589477 4.85576,3.313918 4.85576,4.213428 z"
           id="path3055"
           inkscape:connector-curvature="0"
           sodipodi:nodetypes="sssssssss" />
        <path
           sodipodi:nodetypes="sssssssss"
           inkscape:connector-curvature="0"
           id="path3057"
           d="m 169.94842,88.767424 c 0,0.89951 0.92244,2.388013 2.77714,2.97749 1.85469,0.589476 4.24838,0.167568 7.07855,0.167568 2.83017,0 5.84184,-2.106149 7.69653,-2.695625 1.85469,-0.589477 2.27151,-3.76335 2.27151,-4.662861 0,-0.89951 -0.1921,-1.882401 -2.0468,-2.471877 -1.85469,-0.589476 -2.39448,-0.223747 -5.16847,0.450401 -2.75011,0.668345 -5.61712,2.106149 -7.47181,2.695625 -1.85469,0.589477 -5.13665,2.639769 -5.13665,3.539279 z"
           style="fill:#00ff00;fill-opacity:1;stroke:none" />
        <path
           transform="matrix(0.63212346,0.77486768,-0.77486768,0.63212346,134.99253,-89.576127)"
           style="fill:#00ff00;fill-opacity:1;stroke:none"
           d="m 163.69054,98.797288 c 0,3.312832 -0.87812,6.855862 -2.21641,6.855862 -1.3383,0 -3.1787,-3.04815 -3.1787,-6.360979 0,-3.312831 0.38726,-5.987526 1.72556,-5.987526 1.33829,0 3.66955,2.179812 3.66955,5.492643 z"
           id="path3059"
           inkscape:connector-curvature="0"
           sodipodi:nodetypes="sssss" />
        <path
           style="fill:#00ff00;fill-opacity:1;stroke:none"
           d="m 150.307,108.87892 c 0.94925,0 1.3384,1.86321 1.0955,2.78086 l -2.02245,7.64035 c -0.24291,0.91765 -0.76421,1.71346 -1.71346,1.71346 -0.94926,0 -1.93282,-0.78989 -1.71347,-1.71346 l -0.28089,-3.08985 0.73032,-2.97748 1.68537,-2.92131 c 0.47437,-0.82224 1.26982,-1.43257 2.21908,-1.43257 z"
           id="path3061"
           inkscape:connector-curvature="0"
           sodipodi:nodetypes="sssssccss" />
      </g>
    </g>
  </g>
</svg>
