<?xml version="1.0" encoding="UTF-8" standalone="no"?>
<svg
   xmlns:dc="http://purl.org/dc/elements/1.1/"
   xmlns:cc="http://creativecommons.org/ns#"
   xmlns:rdf="http://www.w3.org/1999/02/22-rdf-syntax-ns#"
   xmlns:svg="http://www.w3.org/2000/svg"
   xmlns="http://www.w3.org/2000/svg"
   xmlns:sodipodi="http://sodipodi.sourceforge.net/DTD/sodipodi-0.dtd"
   xmlns:inkscape="http://www.inkscape.org/namespaces/inkscape"
   version="1.0"
   width="1052.3622"
   height="744.09448"
   viewBox="0 0 841.88975 595.27559"
   preserveAspectRatio="xMidYMid meet"
   id="svg2"
   inkscape:version="0.48.4 r9939"
   sodipodi:docname="2014-09-21_16-46-57_202_-_Microsoft_Word.svg"
   inkscape:export-filename="C:\Users\Максим\Downloads\2014-09-21_16-46-57_202_-_Microsoft_Word.png"
   inkscape:export-xdpi="90"
   inkscape:export-ydpi="90">
  <defs
     id="defs36" />
  <sodipodi:namedview
     pagecolor="#ffffff"
     bordercolor="#666666"
     borderopacity="1"
     objecttolerance="10"
     gridtolerance="10"
     guidetolerance="10"
     inkscape:pageopacity="0"
     inkscape:pageshadow="2"
     inkscape:window-width="1920"
     inkscape:window-height="1017"
     id="namedview34"
     showgrid="false"
     inkscape:zoom="0.88388348"
     inkscape:cx="49.201422"
     inkscape:cy="299.69489"
     inkscape:window-x="-8"
     inkscape:window-y="-8"
     inkscape:window-maximized="1"
     inkscape:current-layer="svg2" />
  <metadata
     id="metadata4">
Created by potrace 1.11, written by Peter Selinger 2001-2013
<rdf:RDF>
  <cc:Work
     rdf:about="">
    <dc:format>image/svg+xml</dc:format>
    <dc:type
       rdf:resource="http://purl.org/dc/dcmitype/StillImage" />
    <dc:title></dc:title>
  </cc:Work>
</rdf:RDF>
</metadata>
  <g
     id="g3118"
     inkscape:export-xdpi="90"
     inkscape:export-ydpi="90">
    <g
       transform="matrix(0.98202568,0,0,0.98202568,-0.0080874,10.125628)"
       id="g3053">
      <g
         id="g3031">
        <path
           d="m -0.44994199,42.96619 0,3.636877 3.63687699,0 3.6368771,0 L 6.935716,293.74288 C 6.9916381,429.70613 7.1595238,537.3577 7.2154757,532.9375 l 0.2238079,-7.94518 10.0153994,0 10.015408,0 0.223807,7.94518 0.167856,8.00113 0.111904,-8.00113 0.111904,-7.94518 44.761575,0 44.705613,0 0.2238,7.94518 0.16786,8.00113 0.1119,-8.00113 0.11191,-7.94518 20.42247,0 20.36651,0 0.22381,7.94518 0.16785,8.00113 0.11191,-8.00113 0.1119,-7.94518 9.23207,0 9.17613,0 0.22381,7.94518 0.16786,8.00113 0.1119,-8.00113 0.1119,-7.94518 9.23208,0 9.17612,0 0.2238,7.94518 0.16786,8.00113 0.1119,-8.00113 0.11191,-7.94518 9.23207,0 9.17612,0 0.22381,7.94518 0.16785,8.00113 0.11191,-8.00113 0.1119,-7.94518 9.23208,0 9.17612,0 0.22381,7.94518 0.16786,8.00113 0.1119,-8.00113 0.1119,-7.94518 9.23208,0 9.17612,0 0.2238,7.94518 0.16786,8.00113 0.1119,-8.00113 0.11191,-7.94518 9.23207,0 9.17613,0 0.22381,7.94518 0.16785,8.00113 0.11191,-8.00113 0.1119,-7.94518 9.51183,0 9.45588,0 0.22381,7.94518 0.16786,8.00113 0.1119,-8.00113 0.1119,-7.94518 9.23208,0 9.17612,0 0.22381,7.94518 0.16785,8.00113 0.11191,-8.00113 0.1119,-7.94518 9.23208,0 9.17612,0 0.22381,7.94518 0.16785,8.00113 0.11191,-8.00113 0.1119,-7.94518 10.35111,0 10.29516,0 0.22381,7.94518 0.16786,8.00113 0.1119,-8.00113 0.1119,-7.94518 10.35112,0 10.29516,0 0.22381,7.94518 0.16786,8.00113 0.1119,-8.00113 0.1119,-7.94518 10.63088,0 10.57491,0 0.22381,7.94518 0.16786,8.00113 0.1119,-8.00113 0.11191,-7.94518 10.35111,0 10.29516,0 0.22381,7.94518 0.16786,8.00113 0.1119,-8.00113 0.11191,-7.94518 10.63087,0 10.57492,0 0.2238,7.94518 0.16786,8.00113 0.1119,-8.00113 0.11191,-7.94518 10.35112,0 10.29517,0 0.22381,7.94518 0.16786,8.00113 0.1119,-8.00113 0.1119,-7.94518 10.35111,0 10.29516,0 0.22381,7.94518 0.16786,8.00113 0.1119,-8.00113 0.11191,-7.94518 10.63087,0 10.57492,0 0.22381,7.94518 0.16786,8.00113 0.1119,-8.00113 0.11191,-7.94518 10.35111,0 10.29516,0 0.2238,7.94518 0.16786,8.00113 0.1119,-8.00113 0.11191,-7.94518 10.63087,0 10.57492,0 0.22381,7.94518 0.16785,8.00113 0.11191,-8.00113 0.1119,-7.94518 10.35112,0 10.29516,0 0.22381,7.94518 0.16785,8.00113 0.11191,-8.00113 0.1119,-7.94518 10.35111,0 10.29518,0 0.22377,7.94518 0.16791,8.00113 0.11185,-8.00113 0.11192,-7.94518 10.63087,0 10.57495,0 0.22376,7.94518 0.16791,8.00113 0.11185,-8.00113 0.11192,-7.94518 10.35111,0 10.29519,0 0.22376,7.94518 0.16792,8.00113 0.11184,-8.00113 0.11192,-7.94518 10.63087,0 10.57495,0 0.22376,7.94518 0.16792,8.00113 0.11184,-8.00113 0.11192,-7.94518 10.35111,0 10.29519,0 0.22384,7.94518 0.16784,8.00113 0.11192,-8.00113 0.11185,-7.94518 10.35111,0 10.29519,0 0.22384,7.94518 0.16784,8.00113 0.11192,-8.00113 0.11185,-7.94518 10.63087,0 10.57495,0 0.22383,7.94518 0.16784,8.00113 0.11192,-8.00113 0.11185,-7.94518 10.35111,0 10.29515,0 0.22384,7.94518 0.16784,8.00113 0.11192,-8.00113 0.11184,-7.94518 10.63091,0 10.57495,0 0.22384,7.94518 0.16784,8.00113 0.11192,-8.00113 0.11184,-7.94518 10.35119,0 10.29511,0 0.22384,7.94518 0.16784,8.00113 0.11192,-8.00113 0.11192,-7.94518 10.35111,0 10.29512,0 0.22383,7.94518 0.16784,8.00113 0.11192,-8.00113 0.11192,-7.94518 8.3928,0 8.33679,0 0.22384,7.94518 0.16784,8.00113 0.11192,-8.00113 0.11192,-7.94518 8.11303,0 8.05704,0 0.22384,7.94518 c 0.0558,4.4202 0.22376,-59.14122 0.27976,-141.27871 0.0558,-99.03495 0.27976,-149.22386 0.67143,-149.22386 0.33569,0 0.55952,-2.9095 0.55952,-7.55351 0,-4.64401 -0.22383,-7.55352 -0.55952,-7.55352 -0.39167,0 -0.55952,-30.49382 -0.55952,-90.36241 l 0,-90.362423 -415.44337,0 -415.4433279,0 0,-3.636877 0,-3.636877 -3.6368771,0 -3.63687699,0 0,3.636877 z m 27.97598499,19.58318 0,15.38679 -10.07136,0 -10.0713514,0 0,-15.38679 0,-15.386783 10.0713514,0 10.07136,0 0,15.386783 z m 90.082657,0 0,15.38679 -44.761563,0 -44.761575,0 0,-15.38679 0,-15.386783 44.761575,0 44.761563,0 0,15.386783 z m 41.40445,0 0,15.38679 -20.42246,0 -20.42247,0 0,-15.38679 0,-15.386783 20.42247,0 20.42246,0 0,15.386783 z m 19.02367,0 0,15.38679 -9.23208,0 -9.23207,0 0,-15.38679 0,-15.386783 9.23207,0 9.23208,0 0,15.386783 z m 19.02367,0 0,15.38679 -9.23207,0 -9.23208,0 0,-15.38679 0,-15.386783 9.23208,0 9.23207,0 0,15.386783 z m 19.02366,0 0,15.38679 -9.23207,0 -9.23207,0 0,-15.38679 0,-15.386783 9.23207,0 9.23207,0 0,15.386783 z m 19.02367,0 0,15.38679 -9.23207,0 -9.23208,0 0,-15.38679 0,-15.386783 9.23208,0 9.23207,0 0,15.386783 z m 19.02367,0 0,15.38679 -9.23207,0 -9.23208,0 0,-15.38679 0,-15.386783 9.23208,0 9.23207,0 0,15.386783 z m 19.02367,0 0,15.38679 -9.23208,0 -9.23207,0 0,-15.38679 0,-15.386783 9.23207,0 9.23208,0 0,15.386783 z m 19.58319,0 0,15.38679 -9.51184,0 -9.51183,0 0,-15.38679 0,-15.386783 9.51183,0 9.51184,0 0,15.386783 z m 19.02366,0 0,15.38679 -9.23207,0 -9.23208,0 0,-15.38679 0,-15.386783 9.23208,0 9.23207,0 0,15.386783 z m 19.02367,0 0,15.38679 -9.23207,0 -9.23208,0 0,-15.38679 0,-15.386783 9.23208,0 9.23207,0 0,15.386783 z m 21.26174,0 0,15.38679 -10.35111,0 -10.35111,0 0,-15.38679 0,-15.386783 10.35111,0 10.35111,0 0,15.386783 z m 21.26175,0 0,15.38679 -10.35111,0 -10.35112,0 0,-15.38679 0,-15.386783 10.35112,0 10.35111,0 0,15.386783 z m 21.82127,0 0,15.38679 -10.63087,0 -10.63088,0 0,-15.38679 0,-15.386783 10.63088,0 10.63087,0 0,15.386783 z m 21.26175,0 0,15.38679 -10.35112,0 -10.35111,0 0,-15.38679 0,-15.386783 10.35111,0 10.35112,0 0,15.386783 z m 21.82126,0 0,15.38679 -10.63087,0 -10.63087,0 0,-15.38679 0,-15.386783 10.63087,0 10.63087,0 0,15.386783 z m 21.26176,0 0,15.38679 -10.35112,0 -10.35112,0 0,-15.38679 0,-15.386783 10.35112,0 10.35112,0 0,15.386783 z m 21.26175,0 0,15.38679 -10.35112,0 -10.35111,0 0,-15.38679 0,-15.386783 10.35111,0 10.35112,0 0,15.386783 z m 21.82127,0 0,15.38679 -10.63088,0 -10.63087,0 0,-15.38679 0,-15.386783 10.63087,0 10.63088,0 0,15.386783 z m 21.26174,0 0,15.38679 -10.35111,0 -10.35111,0 0,-15.38679 0,-15.386783 10.35111,0 10.35111,0 0,15.386783 z m 21.82126,0 0,15.38679 -10.63087,0 -10.63087,0 0,-15.38679 0,-15.386783 10.63087,0 10.63087,0 0,15.386783 z m 21.26175,0 0,15.38679 -10.35111,0 -10.35112,0 0,-15.38679 0,-15.386783 10.35112,0 10.35111,0 0,15.386783 z m 21.26174,0 0,15.38679 -10.35111,0 -10.35111,0 0,-15.38679 0,-15.386783 10.35111,0 10.35111,0 0,15.386783 z m 21.82126,0 0,15.38679 -10.63087,0 -10.63087,0 0,-15.38679 0,-15.386783 10.63087,0 10.63087,0 0,15.386783 z m 21.26174,0 0,15.38679 -10.35111,0 -10.35111,0 0,-15.38679 0,-15.386783 10.35111,0 10.35111,0 0,15.386783 z m 21.82126,0 0,15.38679 -10.63087,0 -10.63087,0 0,-15.38679 0,-15.386783 10.63087,0 10.63087,0 0,15.386783 z m 21.26175,0 0,15.38679 -10.35112,0 -10.35111,0 0,-15.38679 0,-15.386783 10.35111,0 10.35112,0 0,15.386783 z m 21.26175,0 0,15.38679 -10.35112,0 -10.35111,0 0,-15.38679 0,-15.386783 10.35111,0 10.35112,0 0,15.386783 z m 21.82126,0 0,15.38679 -10.63087,0 -10.63087,0 0,-15.38679 0,-15.386783 10.63087,0 10.63087,0 0,15.386783 z m 21.2617,0 0,15.38679 -10.35107,0 -10.35111,0 0,-15.38679 0,-15.386783 10.35111,0 10.35107,0 0,15.386783 z m 21.8213,0 0,15.38679 -10.63087,0 -10.63091,0 0,-15.38679 0,-15.386783 10.63091,0 10.63087,0 0,15.386783 z m 21.26182,0 0,15.38679 -10.35111,0 -10.35119,0 0,-15.38679 0,-15.386783 10.35119,0 10.35111,0 0,15.386783 z m 21.26174,0 0,15.38679 -10.35111,0 -10.35111,0 0,-15.38679 0,-15.386783 10.35111,0 10.35111,0 0,15.386783 z m 17.34511,0 0,15.38679 -8.39279,0 -8.3928,0 0,-15.38679 0,-15.386783 8.3928,0 8.39279,0 0,15.386783 z m 16.78558,0 0,15.38679 -8.11303,0 -8.11303,0 0,-15.38679 0,-15.386783 8.11303,0 8.11303,0 0,15.386783 z m -809.624947,40.28542 0,24.3391 -10.07136,0 -10.0713514,0 0,-24.3391 0,-24.3391 10.0713514,0 10.07136,0 0,24.3391 z m 90.082657,0 0,24.3391 -44.761563,0 -44.761575,0 0,-24.3391 0,-24.3391 44.761575,0 44.761563,0 0,24.3391 z m 41.40445,0 0,24.3391 -20.42246,0 -20.42247,0 0,-24.3391 0,-24.3391 20.42247,0 20.42246,0 0,24.3391 z m 19.02367,0 0,24.3391 -9.23208,0 -9.23207,0 0,-24.3391 0,-24.3391 9.23207,0 9.23208,0 0,24.3391 z m 19.02367,0 0,24.3391 -9.23207,0 -9.23208,0 0,-24.3391 0,-24.3391 9.23208,0 9.23207,0 0,24.3391 z m 19.02366,0 0,24.3391 -9.23207,0 -9.23207,0 0,-24.3391 0,-24.3391 9.23207,0 9.23207,0 0,24.3391 z m 19.02367,0 0,24.3391 -9.23207,0 -9.23208,0 0,-24.3391 0,-24.3391 9.23208,0 9.23207,0 0,24.3391 z m 19.02367,0 0,24.3391 -9.23207,0 -9.23208,0 0,-24.3391 0,-24.3391 9.23208,0 9.23207,0 0,24.3391 z m 19.02367,0 0,24.3391 -9.23208,0 -9.23207,0 0,-24.3391 0,-24.3391 9.23207,0 9.23208,0 0,24.3391 z m 19.58319,0 0,24.3391 -9.51184,0 -9.51183,0 0,-24.3391 0,-24.3391 9.51183,0 9.51184,0 0,24.3391 z m 19.02366,0 0,24.3391 -9.23207,0 -9.23208,0 0,-24.3391 0,-24.3391 9.23208,0 9.23207,0 0,24.3391 z m 19.02367,0 0,24.3391 -9.23207,0 -9.23208,0 0,-24.3391 0,-24.3391 9.23208,0 9.23207,0 0,24.3391 z m 21.26174,0 0,24.3391 -10.35111,0 -10.35111,0 0,-24.3391 0,-24.3391 10.35111,0 10.35111,0 0,24.3391 z m 21.26175,0 0,24.3391 -10.35111,0 -10.35112,0 0,-24.3391 0,-24.3391 10.35112,0 10.35111,0 0,24.3391 z m 21.82127,0 0,24.3391 -10.63087,0 -10.63088,0 0,-24.3391 0,-24.3391 10.63088,0 10.63087,0 0,24.3391 z m 21.26175,0 0,24.3391 -10.35112,0 -10.35111,0 0,-24.3391 0,-24.3391 10.35111,0 10.35112,0 0,24.3391 z m 21.82126,0 0,24.3391 -10.63087,0 -10.63087,0 0,-24.3391 0,-24.3391 10.63087,0 10.63087,0 0,24.3391 z m 21.26176,0 0,24.3391 -10.35112,0 -10.35112,0 0,-24.3391 0,-24.3391 10.35112,0 10.35112,0 0,24.3391 z m 21.26175,0 0,24.3391 -10.35112,0 -10.35111,0 0,-24.3391 0,-24.3391 10.35111,0 10.35112,0 0,24.3391 z m 21.82127,0 0,24.3391 -10.63088,0 -10.63087,0 0,-24.3391 0,-24.3391 10.63087,0 10.63088,0 0,24.3391 z m 21.26174,0 0,24.3391 -10.35111,0 -10.35111,0 0,-24.3391 0,-24.3391 10.35111,0 10.35111,0 0,24.3391 z m 21.82126,0 0,24.3391 -10.63087,0 -10.63087,0 0,-24.3391 0,-24.3391 10.63087,0 10.63087,0 0,24.3391 z m 21.26175,0 0,24.3391 -10.35111,0 -10.35112,0 0,-24.3391 0,-24.3391 10.35112,0 10.35111,0 0,24.3391 z m 21.26174,0 0,24.3391 -10.35111,0 -10.35111,0 0,-24.3391 0,-24.3391 10.35111,0 10.35111,0 0,24.3391 z m 21.82126,0 0,24.3391 -10.63087,0 -10.63087,0 0,-24.3391 0,-24.3391 10.63087,0 10.63087,0 0,24.3391 z m 21.26174,0 0,24.3391 -10.35111,0 -10.35111,0 0,-24.3391 0,-24.3391 10.35111,0 10.35111,0 0,24.3391 z m 21.82126,0 0,24.3391 -10.63087,0 -10.63087,0 0,-24.3391 0,-24.3391 10.63087,0 10.63087,0 0,24.3391 z m 21.26175,0 0,24.3391 -10.35112,0 -10.35111,0 0,-24.3391 0,-24.3391 10.35111,0 10.35112,0 0,24.3391 z m 21.26175,0 0,24.3391 -10.35112,0 -10.35111,0 0,-24.3391 0,-24.3391 10.35111,0 10.35112,0 0,24.3391 z m 21.82126,0 0,24.3391 -10.63087,0 -10.63087,0 0,-24.3391 0,-24.3391 10.63087,0 10.63087,0 0,24.3391 z m 21.2617,0 0,24.3391 -10.35107,0 -10.35111,0 0,-24.3391 0,-24.3391 10.35111,0 10.35107,0 0,24.3391 z m 21.8213,0 0,24.3391 -10.63087,0 -10.63091,0 0,-24.3391 0,-24.3391 10.63091,0 10.63087,0 0,24.3391 z m 21.26182,0 0,24.3391 -10.35111,0 -10.35119,0 0,-24.3391 0,-24.3391 10.35119,0 10.35111,0 0,24.3391 z m 21.26174,0 0,24.3391 -10.35111,0 -10.35111,0 0,-24.3391 0,-24.3391 10.35111,0 10.35111,0 0,24.3391 z m 17.34511,0 0,24.3391 -8.39279,0 -8.3928,0 0,-24.3391 0,-24.3391 8.3928,0 8.39279,0 0,24.3391 z m 16.78558,0 0,24.3391 -8.11303,0 -8.11303,0 0,-24.3391 0,-24.3391 8.11303,0 8.11303,0 0,24.3391 z m -809.624947,49.51749 0,24.61886 -10.07136,0 -10.0713514,0 0,-24.61886 0,-24.61887 10.0713514,0 10.07136,0 0,24.61887 z m 90.082657,0 0,24.61886 -44.761563,0 -44.761575,0 0,-24.61886 0,-24.61887 44.761575,0 44.761563,0 0,24.61887 z m 41.40445,0 0,24.61886 -20.42246,0 -20.42247,0 0,-24.61886 0,-24.61887 20.42247,0 20.42246,0 0,24.61887 z m 19.02367,0 0,24.61886 -9.23208,0 -9.23207,0 0,-24.61886 0,-24.61887 9.23207,0 9.23208,0 0,24.61887 z m 19.02367,0 0,24.61886 -9.23207,0 -9.23208,0 0,-24.61886 0,-24.61887 9.23208,0 9.23207,0 0,24.61887 z m 19.02366,0 0,24.61886 -9.23207,0 -9.23207,0 0,-24.61886 0,-24.61887 9.23207,0 9.23207,0 0,24.61887 z m 19.02367,0 0,24.61886 -9.23207,0 -9.23208,0 0,-24.61886 0,-24.61887 9.23208,0 9.23207,0 0,24.61887 z m 19.02367,0 0,24.61886 -9.23207,0 -9.23208,0 0,-24.61886 0,-24.61887 9.23208,0 9.23207,0 0,24.61887 z m 19.02367,0 0,24.61886 -9.23208,0 -9.23207,0 0,-24.61886 0,-24.61887 9.23207,0 9.23208,0 0,24.61887 z m 19.58319,0 0,24.61886 -9.51184,0 -9.51183,0 0,-24.61886 0,-24.61887 9.51183,0 9.51184,0 0,24.61887 z m 19.02366,0 0,24.61886 -9.23207,0 -9.23208,0 0,-24.61886 0,-24.61887 9.23208,0 9.23207,0 0,24.61887 z m 19.02367,0 0,24.61886 -9.23207,0 -9.23208,0 0,-24.61886 0,-24.61887 9.23208,0 9.23207,0 0,24.61887 z m 21.26174,0 0,24.61886 -10.35111,0 -10.35111,0 0,-24.61886 0,-24.61887 10.35111,0 10.35111,0 0,24.61887 z m 21.26175,0 0,24.61886 -10.35111,0 -10.35112,0 0,-24.61886 0,-24.61887 10.35112,0 10.35111,0 0,24.61887 z m 21.82127,0 0,24.61886 -10.63087,0 -10.63088,0 0,-24.61886 0,-24.61887 10.63088,0 10.63087,0 0,24.61887 z m 21.26175,0 0,24.61886 -10.35112,0 -10.35111,0 0,-24.61886 0,-24.61887 10.35111,0 10.35112,0 0,24.61887 z m 21.82126,0 0,24.61886 -10.63087,0 -10.63087,0 0,-24.61886 0,-24.61887 10.63087,0 10.63087,0 0,24.61887 z m 21.26176,0 0,24.61886 -10.35112,0 -10.35112,0 0,-24.61886 0,-24.61887 10.35112,0 10.35112,0 0,24.61887 z m 21.26175,0 0,24.61886 -10.35112,0 -10.35111,0 0,-24.61886 0,-24.61887 10.35111,0 10.35112,0 0,24.61887 z m 21.82127,0 0,24.61886 -10.63088,0 -10.63087,0 0,-24.61886 0,-24.61887 10.63087,0 10.63088,0 0,24.61887 z m 21.26174,0 0,24.61886 -10.35111,0 -10.35111,0 0,-24.61886 0,-24.61887 10.35111,0 10.35111,0 0,24.61887 z m 21.82126,0 0,24.61886 -10.63087,0 -10.63087,0 0,-24.61886 0,-24.61887 10.63087,0 10.63087,0 0,24.61887 z m 21.26175,0 0,24.61886 -10.35111,0 -10.35112,0 0,-24.61886 0,-24.61887 10.35112,0 10.35111,0 0,24.61887 z m 21.26174,0 0,24.61886 -10.35111,0 -10.35111,0 0,-24.61886 0,-24.61887 10.35111,0 10.35111,0 0,24.61887 z m 21.82126,0 0,24.61886 -10.63087,0 -10.63087,0 0,-24.61886 0,-24.61887 10.63087,0 10.63087,0 0,24.61887 z m 21.26174,0 0,24.61886 -10.35111,0 -10.35111,0 0,-24.61886 0,-24.61887 10.35111,0 10.35111,0 0,24.61887 z m 21.82126,0 0,24.61886 -10.63087,0 -10.63087,0 0,-24.61886 0,-24.61887 10.63087,0 10.63087,0 0,24.61887 z m 21.26175,0 0,24.61886 -10.35112,0 -10.35111,0 0,-24.61886 0,-24.61887 10.35111,0 10.35112,0 0,24.61887 z m 21.26175,0 0,24.61886 -10.35112,0 -10.35111,0 0,-24.61886 0,-24.61887 10.35111,0 10.35112,0 0,24.61887 z m 21.82126,0 0,24.61886 -10.63087,0 -10.63087,0 0,-24.61886 0,-24.61887 10.63087,0 10.63087,0 0,24.61887 z m 21.2617,0 0,24.61886 -10.35107,0 -10.35111,0 0,-24.61886 0,-24.61887 10.35111,0 10.35107,0 0,24.61887 z m 21.8213,0 0,24.61886 -10.63087,0 -10.63091,0 0,-24.61886 0,-24.61887 10.63091,0 10.63087,0 0,24.61887 z m 21.26182,0 0,24.61886 -10.35111,0 -10.35119,0 0,-24.61886 0,-24.61887 10.35119,0 10.35111,0 0,24.61887 z m 21.26174,0 0,24.61886 -10.35111,0 -10.35111,0 0,-24.61886 0,-24.61887 10.35111,0 10.35111,0 0,24.61887 z m 17.34511,0 0,24.61886 -8.39279,0 -8.3928,0 0,-24.61886 0,-24.61887 8.3928,0 8.39279,0 0,24.61887 z m 16.78558,0 0,24.61886 -8.11303,0 -8.11303,0 0,-24.61886 0,-24.61887 8.11303,0 8.11303,0 0,24.61887 z m -809.624947,49.79724 0,24.61886 -10.07136,0 -10.0713514,0 0,-24.61886 0,-24.61886 10.0713514,0 10.07136,0 0,24.61886 z m 90.082657,0 0,24.61886 -44.761563,0 -44.761575,0 0,-24.61886 0,-24.61886 44.761575,0 44.761563,0 0,24.61886 z m 41.40445,0 0,24.61886 -20.42246,0 -20.42247,0 0,-24.61886 0,-24.61886 20.42247,0 20.42246,0 0,24.61886 z m 19.02367,0 0,24.61886 -9.23208,0 -9.23207,0 0,-24.61886 0,-24.61886 9.23207,0 9.23208,0 0,24.61886 z m 19.02367,0 0,24.61886 -9.23207,0 -9.23208,0 0,-24.61886 0,-24.61886 9.23208,0 9.23207,0 0,24.61886 z m 19.02366,0 0,24.61886 -9.23207,0 -9.23207,0 0,-24.61886 0,-24.61886 9.23207,0 9.23207,0 0,24.61886 z m 19.02367,0 0,24.61886 -9.23207,0 -9.23208,0 0,-24.61886 0,-24.61886 9.23208,0 9.23207,0 0,24.61886 z m 19.02367,0 0,24.61886 -9.23207,0 -9.23208,0 0,-24.61886 0,-24.61886 9.23208,0 9.23207,0 0,24.61886 z m 19.02367,0 0,24.61886 -9.23208,0 -9.23207,0 0,-24.61886 0,-24.61886 9.23207,0 9.23208,0 0,24.61886 z m 19.58319,0 0,24.61886 -9.51184,0 -9.51183,0 0,-24.61886 0,-24.61886 9.51183,0 9.51184,0 0,24.61886 z m 19.02366,0 0,24.61886 -9.23207,0 -9.23208,0 0,-24.61886 0,-24.61886 9.23208,0 9.23207,0 0,24.61886 z m 19.02367,0 0,24.61886 -9.23207,0 -9.23208,0 0,-24.61886 0,-24.61886 9.23208,0 9.23207,0 0,24.61886 z m 21.26174,0 0,24.61886 -10.35111,0 -10.35111,0 0,-24.61886 0,-24.61886 10.35111,0 10.35111,0 0,24.61886 z m 21.26175,0 0,24.61886 -10.35111,0 -10.35112,0 0,-24.61886 0,-24.61886 10.35112,0 10.35111,0 0,24.61886 z m 21.82127,0 0,24.61886 -10.63087,0 -10.63088,0 0,-24.61886 0,-24.61886 10.63088,0 10.63087,0 0,24.61886 z m 21.26175,0 0,24.61886 -10.35112,0 -10.35111,0 0,-24.61886 0,-24.61886 10.35111,0 10.35112,0 0,24.61886 z m 21.82126,0 0,24.61886 -10.63087,0 -10.63087,0 0,-24.61886 0,-24.61886 10.63087,0 10.63087,0 0,24.61886 z m 21.26176,0 0,24.61886 -10.35112,0 -10.35112,0 0,-24.61886 0,-24.61886 10.35112,0 10.35112,0 0,24.61886 z m 21.26175,0 0,24.61886 -10.35112,0 -10.35111,0 0,-24.61886 0,-24.61886 10.35111,0 10.35112,0 0,24.61886 z m 21.82127,0 0,24.61886 -10.63088,0 -10.63087,0 0,-24.61886 0,-24.61886 10.63087,0 10.63088,0 0,24.61886 z m 21.26174,0 0,24.61886 -10.35111,0 -10.35111,0 0,-24.61886 0,-24.61886 10.35111,0 10.35111,0 0,24.61886 z m 21.82126,0 0,24.61886 -10.63087,0 -10.63087,0 0,-24.61886 0,-24.61886 10.63087,0 10.63087,0 0,24.61886 z m 21.26175,0 0,24.61886 -10.35111,0 -10.35112,0 0,-24.61886 0,-24.61886 10.35112,0 10.35111,0 0,24.61886 z m 21.26174,0 0,24.61886 -10.35111,0 -10.35111,0 0,-24.61886 0,-24.61886 10.35111,0 10.35111,0 0,24.61886 z m 21.82126,0 0,24.61886 -10.63087,0 -10.63087,0 0,-24.61886 0,-24.61886 10.63087,0 10.63087,0 0,24.61886 z m 21.26174,0 0,24.61886 -10.35111,0 -10.35111,0 0,-24.61886 0,-24.61886 10.35111,0 10.35111,0 0,24.61886 z m 21.82126,0 0,24.61886 -10.63087,0 -10.63087,0 0,-24.61886 0,-24.61886 10.63087,0 10.63087,0 0,24.61886 z m 21.26175,0 0,24.61886 -10.35112,0 -10.35111,0 0,-24.61886 0,-24.61886 10.35111,0 10.35112,0 0,24.61886 z m 21.26175,0 0,24.61886 -10.35112,0 -10.35111,0 0,-24.61886 0,-24.61886 10.35111,0 10.35112,0 0,24.61886 z m 21.82126,0 0,24.61886 -10.63087,0 -10.63087,0 0,-24.61886 0,-24.61886 10.63087,0 10.63087,0 0,24.61886 z m 21.2617,0 0,24.61886 -10.35107,0 -10.35111,0 0,-24.61886 0,-24.61886 10.35111,0 10.35107,0 0,24.61886 z m 21.8213,0 0,24.61886 -10.63087,0 -10.63091,0 0,-24.61886 0,-24.61886 10.63091,0 10.63087,0 0,24.61886 z m 21.26182,0 0,24.61886 -10.35111,0 -10.35119,0 0,-24.61886 0,-24.61886 10.35119,0 10.35111,0 0,24.61886 z m 21.26174,0 0,24.61886 -10.35111,0 -10.35111,0 0,-24.61886 0,-24.61886 10.35111,0 10.35111,0 0,24.61886 z m 17.34511,0 0,24.61886 -8.39279,0 -8.3928,0 0,-24.61886 0,-24.61886 8.3928,0 8.39279,0 0,24.61886 z m 16.78558,0 0,24.61886 -8.11303,0 -8.11303,0 0,-24.61886 0,-24.61886 8.11303,0 8.11303,0 0,24.61886 z m -809.624947,49.79724 0,24.61887 -10.07136,0 -10.0713514,0 0,-24.61887 0,-24.61886 10.0713514,0 10.07136,0 0,24.61886 z m 90.082657,0 0,24.61887 -44.761563,0 -44.761575,0 0,-24.61887 0,-24.61886 44.761575,0 44.761563,0 0,24.61886 z m 41.40445,0 0,24.61887 -20.42246,0 -20.42247,0 0,-24.61887 0,-24.61886 20.42247,0 20.42246,0 0,24.61886 z m 19.02367,0 0,24.61887 -9.23208,0 -9.23207,0 0,-24.61887 0,-24.61886 9.23207,0 9.23208,0 0,24.61886 z m 19.02367,0 0,24.61887 -9.23207,0 -9.23208,0 0,-24.61887 0,-24.61886 9.23208,0 9.23207,0 0,24.61886 z m 19.02366,0 0,24.61887 -9.23207,0 -9.23207,0 0,-24.61887 0,-24.61886 9.23207,0 9.23207,0 0,24.61886 z m 19.02367,0 0,24.61887 -9.23207,0 -9.23208,0 0,-24.61887 0,-24.61886 9.23208,0 9.23207,0 0,24.61886 z m 19.02367,0 0,24.61887 -9.23207,0 -9.23208,0 0,-24.61887 0,-24.61886 9.23208,0 9.23207,0 0,24.61886 z m 19.02367,0 0,24.61887 -9.23208,0 -9.23207,0 0,-24.61887 0,-24.61886 9.23207,0 9.23208,0 0,24.61886 z m 19.58319,0 0,24.61887 -9.51184,0 -9.51183,0 0,-24.61887 0,-24.61886 9.51183,0 9.51184,0 0,24.61886 z m 19.02366,0 0,24.61887 -9.23207,0 -9.23208,0 0,-24.61887 0,-24.61886 9.23208,0 9.23207,0 0,24.61886 z m 19.02367,0 0,24.61887 -9.23207,0 -9.23208,0 0,-24.61887 0,-24.61886 9.23208,0 9.23207,0 0,24.61886 z m 21.26174,0 0,24.61887 -10.35111,0 -10.35111,0 0,-24.61887 0,-24.61886 10.35111,0 10.35111,0 0,24.61886 z m 21.26175,0 0,24.61887 -10.35111,0 -10.35112,0 0,-24.61887 0,-24.61886 10.35112,0 10.35111,0 0,24.61886 z m 21.82127,0 0,24.61887 -10.63087,0 -10.63088,0 0,-24.61887 0,-24.61886 10.63088,0 10.63087,0 0,24.61886 z m 21.26175,0 0,24.61887 -10.35112,0 -10.35111,0 0,-24.61887 0,-24.61886 10.35111,0 10.35112,0 0,24.61886 z m 21.82126,0 0,24.61887 -10.63087,0 -10.63087,0 0,-24.61887 0,-24.61886 10.63087,0 10.63087,0 0,24.61886 z m 21.26176,0 0,24.61887 -10.35112,0 -10.35112,0 0,-24.61887 0,-24.61886 10.35112,0 10.35112,0 0,24.61886 z m 21.26175,0 0,24.61887 -10.35112,0 -10.35111,0 0,-24.61887 0,-24.61886 10.35111,0 10.35112,0 0,24.61886 z m 21.82127,0 0,24.61887 -10.63088,0 -10.63087,0 0,-24.61887 0,-24.61886 10.63087,0 10.63088,0 0,24.61886 z m 21.26174,0 0,24.61887 -10.35111,0 -10.35111,0 0,-24.61887 0,-24.61886 10.35111,0 10.35111,0 0,24.61886 z m 21.82126,0 0,24.61887 -10.63087,0 -10.63087,0 0,-24.61887 0,-24.61886 10.63087,0 10.63087,0 0,24.61886 z m 21.26175,0 0,24.61887 -10.35111,0 -10.35112,0 0,-24.61887 0,-24.61886 10.35112,0 10.35111,0 0,24.61886 z m 21.26174,0 0,24.61887 -10.35111,0 -10.35111,0 0,-24.61887 0,-24.61886 10.35111,0 10.35111,0 0,24.61886 z m 21.82126,0 0,24.61887 -10.63087,0 -10.63087,0 0,-24.61887 0,-24.61886 10.63087,0 10.63087,0 0,24.61886 z m 21.26174,0 0,24.61887 -10.35111,0 -10.35111,0 0,-24.61887 0,-24.61886 10.35111,0 10.35111,0 0,24.61886 z m 21.82126,0 0,24.61887 -10.63087,0 -10.63087,0 0,-24.61887 0,-24.61886 10.63087,0 10.63087,0 0,24.61886 z m 21.26175,0 0,24.61887 -10.35112,0 -10.35111,0 0,-24.61887 0,-24.61886 10.35111,0 10.35112,0 0,24.61886 z m 21.26175,0 0,24.61887 -10.35112,0 -10.35111,0 0,-24.61887 0,-24.61886 10.35111,0 10.35112,0 0,24.61886 z m 21.82126,0 0,24.61887 -10.63087,0 -10.63087,0 0,-24.61887 0,-24.61886 10.63087,0 10.63087,0 0,24.61886 z m 21.2617,0 0,24.61887 -10.35107,0 -10.35111,0 0,-24.61887 0,-24.61886 10.35111,0 10.35107,0 0,24.61886 z m 21.8213,0 0,24.61887 -10.63087,0 -10.63091,0 0,-24.61887 0,-24.61886 10.63091,0 10.63087,0 0,24.61886 z m 21.26182,0 0,24.61887 -10.35111,0 -10.35119,0 0,-24.61887 0,-24.61886 10.35119,0 10.35111,0 0,24.61886 z m 21.26174,0 0,24.61887 -10.35111,0 -10.35111,0 0,-24.61887 0,-24.61886 10.35111,0 10.35111,0 0,24.61886 z m 17.34511,0 0,24.61887 -8.39279,0 -8.3928,0 0,-24.61887 0,-24.61886 8.3928,0 8.39279,0 0,24.61886 z m 16.78558,0 0,24.61887 -8.11303,0 -8.11303,0 0,-24.61887 0,-24.61886 8.11303,0 8.11303,0 0,24.61886 z m -809.624947,49.51749 0,24.33911 -10.07136,0 -10.0713514,0 0,-24.33911 0,-24.3391 10.0713514,0 10.07136,0 0,24.3391 z m 90.082657,0 0,24.33911 -44.761563,0 -44.761575,0 0,-24.33911 0,-24.3391 44.761575,0 44.761563,0 0,24.3391 z m 41.40445,0 0,24.33911 -20.42246,0 -20.42247,0 0,-24.33911 0,-24.3391 20.42247,0 20.42246,0 0,24.3391 z m 19.02367,0 0,24.33911 -9.23208,0 -9.23207,0 0,-24.33911 0,-24.3391 9.23207,0 9.23208,0 0,24.3391 z m 19.02367,0 0,24.33911 -9.23207,0 -9.23208,0 0,-24.33911 0,-24.3391 9.23208,0 9.23207,0 0,24.3391 z m 19.02366,0 0,24.33911 -9.23207,0 -9.23207,0 0,-24.33911 0,-24.3391 9.23207,0 9.23207,0 0,24.3391 z m 19.02367,0 0,24.33911 -9.23207,0 -9.23208,0 0,-24.33911 0,-24.3391 9.23208,0 9.23207,0 0,24.3391 z m 19.02367,0 0,24.33911 -9.23207,0 -9.23208,0 0,-24.33911 0,-24.3391 9.23208,0 9.23207,0 0,24.3391 z m 19.02367,0 0,24.33911 -9.23208,0 -9.23207,0 0,-24.33911 0,-24.3391 9.23207,0 9.23208,0 0,24.3391 z m 19.58319,0 0,24.33911 -9.51184,0 -9.51183,0 0,-24.33911 0,-24.3391 9.51183,0 9.51184,0 0,24.3391 z m 19.02366,0 0,24.33911 -9.23207,0 -9.23208,0 0,-24.33911 0,-24.3391 9.23208,0 9.23207,0 0,24.3391 z m 19.02367,0 0,24.33911 -9.23207,0 -9.23208,0 0,-24.33911 0,-24.3391 9.23208,0 9.23207,0 0,24.3391 z m 21.26174,0 0,24.33911 -10.35111,0 -10.35111,0 0,-24.33911 0,-24.3391 10.35111,0 10.35111,0 0,24.3391 z m 21.26175,0 0,24.33911 -10.35111,0 -10.35112,0 0,-24.33911 0,-24.3391 10.35112,0 10.35111,0 0,24.3391 z m 21.82127,0 0,24.33911 -10.63087,0 -10.63088,0 0,-24.33911 0,-24.3391 10.63088,0 10.63087,0 0,24.3391 z m 21.26175,0 0,24.33911 -10.35112,0 -10.35111,0 0,-24.33911 0,-24.3391 10.35111,0 10.35112,0 0,24.3391 z m 21.82126,0 0,24.33911 -10.63087,0 -10.63087,0 0,-24.33911 0,-24.3391 10.63087,0 10.63087,0 0,24.3391 z m 21.26176,0 0,24.33911 -10.35112,0 -10.35112,0 0,-24.33911 0,-24.3391 10.35112,0 10.35112,0 0,24.3391 z m 21.26175,0 0,24.33911 -10.35112,0 -10.35111,0 0,-24.33911 0,-24.3391 10.35111,0 10.35112,0 0,24.3391 z m 21.82127,0 0,24.33911 -10.63088,0 -10.63087,0 0,-24.33911 0,-24.3391 10.63087,0 10.63088,0 0,24.3391 z m 21.26174,0 0,24.33911 -10.35111,0 -10.35111,0 0,-24.33911 0,-24.3391 10.35111,0 10.35111,0 0,24.3391 z m 21.82126,0 0,24.33911 -10.63087,0 -10.63087,0 0,-24.33911 0,-24.3391 10.63087,0 10.63087,0 0,24.3391 z m 21.26175,0 0,24.33911 -10.35111,0 -10.35112,0 0,-24.33911 0,-24.3391 10.35112,0 10.35111,0 0,24.3391 z m 21.26174,0 0,24.33911 -10.35111,0 -10.35111,0 0,-24.33911 0,-24.3391 10.35111,0 10.35111,0 0,24.3391 z m 21.82126,0 0,24.33911 -10.63087,0 -10.63087,0 0,-24.33911 0,-24.3391 10.63087,0 10.63087,0 0,24.3391 z m 21.26174,0 0,24.33911 -10.35111,0 -10.35111,0 0,-24.33911 0,-24.3391 10.35111,0 10.35111,0 0,24.3391 z m 21.82126,0 0,24.33911 -10.63087,0 -10.63087,0 0,-24.33911 0,-24.3391 10.63087,0 10.63087,0 0,24.3391 z m 21.26175,0 0,24.33911 -10.35112,0 -10.35111,0 0,-24.33911 0,-24.3391 10.35111,0 10.35112,0 0,24.3391 z m 21.26175,0 0,24.33911 -10.35112,0 -10.35111,0 0,-24.33911 0,-24.3391 10.35111,0 10.35112,0 0,24.3391 z m 21.82126,0 0,24.33911 -10.63087,0 -10.63087,0 0,-24.33911 0,-24.3391 10.63087,0 10.63087,0 0,24.3391 z m 21.2617,0 0,24.33911 -10.35107,0 -10.35111,0 0,-24.33911 0,-24.3391 10.35111,0 10.35107,0 0,24.3391 z m 21.8213,0 0,24.33911 -10.63087,0 -10.63091,0 0,-24.33911 0,-24.3391 10.63091,0 10.63087,0 0,24.3391 z m 21.26182,0 0,24.33911 -10.35111,0 -10.35119,0 0,-24.33911 0,-24.3391 10.35119,0 10.35111,0 0,24.3391 z m 21.26174,0 0,24.33911 -10.35111,0 -10.35111,0 0,-24.33911 0,-24.3391 10.35111,0 10.35111,0 0,24.3391 z m 17.34511,0 0,24.33911 -8.39279,0 -8.3928,0 0,-24.33911 0,-24.3391 8.3928,0 8.39279,0 0,24.3391 z m 16.78558,0 0,24.33911 -8.11303,0 -8.11303,0 0,-24.33911 0,-24.3391 8.11303,0 8.11303,0 0,24.3391 z m -809.624947,49.51749 0,24.61886 -10.07136,0 -10.0713514,0 0,-24.61886 0,-24.61886 10.0713514,0 10.07136,0 0,24.61886 z m 90.082657,0 0,24.61886 -44.761563,0 -44.761575,0 0,-24.61886 0,-24.61886 44.761575,0 44.761563,0 0,24.61886 z m 41.40445,0 0,24.61886 -20.42246,0 -20.42247,0 0,-24.61886 0,-24.61886 20.42247,0 20.42246,0 0,24.61886 z m 19.02367,0 0,24.61886 -9.23208,0 -9.23207,0 0,-24.61886 0,-24.61886 9.23207,0 9.23208,0 0,24.61886 z m 19.02367,0 0,24.61886 -9.23207,0 -9.23208,0 0,-24.61886 0,-24.61886 9.23208,0 9.23207,0 0,24.61886 z m 19.02366,0 0,24.61886 -9.23207,0 -9.23207,0 0,-24.61886 0,-24.61886 9.23207,0 9.23207,0 0,24.61886 z m 19.02367,0 0,24.61886 -9.23207,0 -9.23208,0 0,-24.61886 0,-24.61886 9.23208,0 9.23207,0 0,24.61886 z m 19.02367,0 0,24.61886 -9.23207,0 -9.23208,0 0,-24.61886 0,-24.61886 9.23208,0 9.23207,0 0,24.61886 z m 19.02367,0 0,24.61886 -9.23208,0 -9.23207,0 0,-24.61886 0,-24.61886 9.23207,0 9.23208,0 0,24.61886 z m 19.58319,0 0,24.61886 -9.51184,0 -9.51183,0 0,-24.61886 0,-24.61886 9.51183,0 9.51184,0 0,24.61886 z m 19.02366,0 0,24.61886 -9.23207,0 -9.23208,0 0,-24.61886 0,-24.61886 9.23208,0 9.23207,0 0,24.61886 z m 19.02367,0 0,24.61886 -9.23207,0 -9.23208,0 0,-24.61886 0,-24.61886 9.23208,0 9.23207,0 0,24.61886 z m 21.26174,0 0,24.61886 -10.35111,0 -10.35111,0 0,-24.61886 0,-24.61886 10.35111,0 10.35111,0 0,24.61886 z m 21.26175,0 0,24.61886 -10.35111,0 -10.35112,0 0,-24.61886 0,-24.61886 10.35112,0 10.35111,0 0,24.61886 z m 21.82127,0 0,24.61886 -10.63087,0 -10.63088,0 0,-24.61886 0,-24.61886 10.63088,0 10.63087,0 0,24.61886 z m 21.26175,0 0,24.61886 -10.35112,0 -10.35111,0 0,-24.61886 0,-24.61886 10.35111,0 10.35112,0 0,24.61886 z m 21.82126,0 0,24.61886 -10.63087,0 -10.63087,0 0,-24.61886 0,-24.61886 10.63087,0 10.63087,0 0,24.61886 z m 21.26176,0 0,24.61886 -10.35112,0 -10.35112,0 0,-24.61886 0,-24.61886 10.35112,0 10.35112,0 0,24.61886 z m 21.26175,0 0,24.61886 -10.35112,0 -10.35111,0 0,-24.61886 0,-24.61886 10.35111,0 10.35112,0 0,24.61886 z m 21.82127,0 0,24.61886 -10.63088,0 -10.63087,0 0,-24.61886 0,-24.61886 10.63087,0 10.63088,0 0,24.61886 z m 21.26174,0 0,24.61886 -10.35111,0 -10.35111,0 0,-24.61886 0,-24.61886 10.35111,0 10.35111,0 0,24.61886 z m 21.82126,0 0,24.61886 -10.63087,0 -10.63087,0 0,-24.61886 0,-24.61886 10.63087,0 10.63087,0 0,24.61886 z m 21.26175,0 0,24.61886 -10.35111,0 -10.35112,0 0,-24.61886 0,-24.61886 10.35112,0 10.35111,0 0,24.61886 z m 21.26174,0 0,24.61886 -10.35111,0 -10.35111,0 0,-24.61886 0,-24.61886 10.35111,0 10.35111,0 0,24.61886 z m 21.82126,0 0,24.61886 -10.63087,0 -10.63087,0 0,-24.61886 0,-24.61886 10.63087,0 10.63087,0 0,24.61886 z m 21.26174,0 0,24.61886 -10.35111,0 -10.35111,0 0,-24.61886 0,-24.61886 10.35111,0 10.35111,0 0,24.61886 z m 21.82126,0 0,24.61886 -10.63087,0 -10.63087,0 0,-24.61886 0,-24.61886 10.63087,0 10.63087,0 0,24.61886 z m 21.26175,0 0,24.61886 -10.35112,0 -10.35111,0 0,-24.61886 0,-24.61886 10.35111,0 10.35112,0 0,24.61886 z m 21.26175,0 0,24.61886 -10.35112,0 -10.35111,0 0,-24.61886 0,-24.61886 10.35111,0 10.35112,0 0,24.61886 z m 21.82126,0 0,24.61886 -10.63087,0 -10.63087,0 0,-24.61886 0,-24.61886 10.63087,0 10.63087,0 0,24.61886 z m 21.2617,0 0,24.61886 -10.35107,0 -10.35111,0 0,-24.61886 0,-24.61886 10.35111,0 10.35107,0 0,24.61886 z m 21.8213,0 0,24.61886 -10.63087,0 -10.63091,0 0,-24.61886 0,-24.61886 10.63091,0 10.63087,0 0,24.61886 z m 21.26182,0 0,24.61886 -10.35111,0 -10.35119,0 0,-24.61886 0,-24.61886 10.35119,0 10.35111,0 0,24.61886 z m 21.26174,0 0,24.61886 -10.35111,0 -10.35111,0 0,-24.61886 0,-24.61886 10.35111,0 10.35111,0 0,24.61886 z m 17.34511,0 0,24.61886 -8.39279,0 -8.3928,0 0,-24.61886 0,-24.61886 8.3928,0 8.39279,0 0,24.61886 z m 16.78558,0 0,24.61886 -8.11303,0 -8.11303,0 0,-24.61886 0,-24.61886 8.11303,0 8.11303,0 0,24.61886 z m -809.624947,49.79722 0,24.61887 -10.07136,0 -10.0713514,0 0,-24.61887 0,-24.61884 10.0713514,0 10.07136,0 0,24.61884 z m 90.082657,0 0,24.61887 -44.761563,0 -44.761575,0 0,-24.61887 0,-24.61884 44.761575,0 44.761563,0 0,24.61884 z m 41.40445,0 0,24.61887 -20.42246,0 -20.42247,0 0,-24.61887 0,-24.61884 20.42247,0 20.42246,0 0,24.61884 z m 19.02367,0 0,24.61887 -9.23208,0 -9.23207,0 0,-24.61887 0,-24.61884 9.23207,0 9.23208,0 0,24.61884 z m 19.02367,0 0,24.61887 -9.23207,0 -9.23208,0 0,-24.61887 0,-24.61884 9.23208,0 9.23207,0 0,24.61884 z m 19.02366,0 0,24.61887 -9.23207,0 -9.23207,0 0,-24.61887 0,-24.61884 9.23207,0 9.23207,0 0,24.61884 z m 19.02367,0 0,24.61887 -9.23207,0 -9.23208,0 0,-24.61887 0,-24.61884 9.23208,0 9.23207,0 0,24.61884 z m 19.02367,0 0,24.61887 -9.23207,0 -9.23208,0 0,-24.61887 0,-24.61884 9.23208,0 9.23207,0 0,24.61884 z m 19.02367,0 0,24.61887 -9.23208,0 -9.23207,0 0,-24.61887 0,-24.61884 9.23207,0 9.23208,0 0,24.61884 z m 19.58319,0 0,24.61887 -9.51184,0 -9.51183,0 0,-24.61887 0,-24.61884 9.51183,0 9.51184,0 0,24.61884 z m 19.02366,0 0,24.61887 -9.23207,0 -9.23208,0 0,-24.61887 0,-24.61884 9.23208,0 9.23207,0 0,24.61884 z m 19.02367,0 0,24.61887 -9.23207,0 -9.23208,0 0,-24.61887 0,-24.61884 9.23208,0 9.23207,0 0,24.61884 z m 21.26174,0 0,24.61887 -10.35111,0 -10.35111,0 0,-24.61887 0,-24.61884 10.35111,0 10.35111,0 0,24.61884 z m 21.26175,0 0,24.61887 -10.35111,0 -10.35112,0 0,-24.61887 0,-24.61884 10.35112,0 10.35111,0 0,24.61884 z m 21.82127,0 0,24.61887 -10.63087,0 -10.63088,0 0,-24.61887 0,-24.61884 10.63088,0 10.63087,0 0,24.61884 z m 21.26175,0 0,24.61887 -10.35112,0 -10.35111,0 0,-24.61887 0,-24.61884 10.35111,0 10.35112,0 0,24.61884 z m 21.82126,0 0,24.61887 -10.63087,0 -10.63087,0 0,-24.61887 0,-24.61884 10.63087,0 10.63087,0 0,24.61884 z m 21.26176,0 0,24.61887 -10.35112,0 -10.35112,0 0,-24.61887 0,-24.61884 10.35112,0 10.35112,0 0,24.61884 z m 21.26175,0 0,24.61887 -10.35112,0 -10.35111,0 0,-24.61887 0,-24.61884 10.35111,0 10.35112,0 0,24.61884 z m 21.82127,0 0,24.61887 -10.63088,0 -10.63087,0 0,-24.61887 0,-24.61884 10.63087,0 10.63088,0 0,24.61884 z m 21.26174,0 0,24.61887 -10.35111,0 -10.35111,0 0,-24.61887 0,-24.61884 10.35111,0 10.35111,0 0,24.61884 z m 21.82126,0 0,24.61887 -10.63087,0 -10.63087,0 0,-24.61887 0,-24.61884 10.63087,0 10.63087,0 0,24.61884 z m 21.26175,0 0,24.61887 -10.35111,0 -10.35112,0 0,-24.61887 0,-24.61884 10.35112,0 10.35111,0 0,24.61884 z m 21.26174,0 0,24.61887 -10.35111,0 -10.35111,0 0,-24.61887 0,-24.61884 10.35111,0 10.35111,0 0,24.61884 z m 21.82126,0 0,24.61887 -10.63087,0 -10.63087,0 0,-24.61887 0,-24.61884 10.63087,0 10.63087,0 0,24.61884 z m 21.26174,0 0,24.61887 -10.35111,0 -10.35111,0 0,-24.61887 0,-24.61884 10.35111,0 10.35111,0 0,24.61884 z m 21.82126,0 0,24.61887 -10.63087,0 -10.63087,0 0,-24.61887 0,-24.61884 10.63087,0 10.63087,0 0,24.61884 z m 21.26175,0 0,24.61887 -10.35112,0 -10.35111,0 0,-24.61887 0,-24.61884 10.35111,0 10.35112,0 0,24.61884 z m 21.26175,0 0,24.61887 -10.35112,0 -10.35111,0 0,-24.61887 0,-24.61884 10.35111,0 10.35112,0 0,24.61884 z m 21.82126,0 0,24.61887 -10.63087,0 -10.63087,0 0,-24.61887 0,-24.61884 10.63087,0 10.63087,0 0,24.61884 z m 21.2617,0 0,24.61887 -10.35107,0 -10.35111,0 0,-24.61887 0,-24.61884 10.35111,0 10.35107,0 0,24.61884 z m 21.8213,0 0,24.61887 -10.63087,0 -10.63091,0 0,-24.61887 0,-24.61884 10.63091,0 10.63087,0 0,24.61884 z m 21.26182,0 0,24.61887 -10.35111,0 -10.35119,0 0,-24.61887 0,-24.61884 10.35119,0 10.35111,0 0,24.61884 z m 21.26174,0 0,24.61887 -10.35111,0 -10.35111,0 0,-24.61887 0,-24.61884 10.35111,0 10.35111,0 0,24.61884 z m 17.34511,0 0,24.61887 -8.39279,0 -8.3928,0 0,-24.61887 0,-24.61884 8.3928,0 8.39279,0 0,24.61884 z m 16.78558,0 0,24.61887 -8.11303,0 -8.11303,0 0,-24.61887 0,-24.61884 8.11303,0 8.11303,0 0,24.61884 z m -809.624947,49.51749 0,24.33911 -10.07136,0 -10.0713514,0 0,-24.33911 0,-24.3391 10.0713514,0 10.07136,0 0,24.3391 z m 90.082657,0 0,24.33911 -44.761563,0 -44.761575,0 0,-24.33911 0,-24.3391 44.761575,0 44.761563,0 0,24.3391 z m 41.40445,0 0,24.33911 -20.42246,0 -20.42247,0 0,-24.33911 0,-24.3391 20.42247,0 20.42246,0 0,24.3391 z m 19.02367,0 0,24.33911 -9.23208,0 -9.23207,0 0,-24.33911 0,-24.3391 9.23207,0 9.23208,0 0,24.3391 z m 19.02367,0 0,24.33911 -9.23207,0 -9.23208,0 0,-24.33911 0,-24.3391 9.23208,0 9.23207,0 0,24.3391 z m 19.02366,0 0,24.33911 -9.23207,0 -9.23207,0 0,-24.33911 0,-24.3391 9.23207,0 9.23207,0 0,24.3391 z m 19.02367,0 0,24.33911 -9.23207,0 -9.23208,0 0,-24.33911 0,-24.3391 9.23208,0 9.23207,0 0,24.3391 z m 19.02367,0 0,24.33911 -9.23207,0 -9.23208,0 0,-24.33911 0,-24.3391 9.23208,0 9.23207,0 0,24.3391 z m 19.02367,0 0,24.33911 -9.23208,0 -9.23207,0 0,-24.33911 0,-24.3391 9.23207,0 9.23208,0 0,24.3391 z m 19.58319,0 0,24.33911 -9.51184,0 -9.51183,0 0,-24.33911 0,-24.3391 9.51183,0 9.51184,0 0,24.3391 z m 19.02366,0 0,24.33911 -9.23207,0 -9.23208,0 0,-24.33911 0,-24.3391 9.23208,0 9.23207,0 0,24.3391 z m 19.02367,0 0,24.33911 -9.23207,0 -9.23208,0 0,-24.33911 0,-24.3391 9.23208,0 9.23207,0 0,24.3391 z m 21.26174,0 0,24.33911 -10.35111,0 -10.35111,0 0,-24.33911 0,-24.3391 10.35111,0 10.35111,0 0,24.3391 z m 21.26175,0 0,24.33911 -10.35111,0 -10.35112,0 0,-24.33911 0,-24.3391 10.35112,0 10.35111,0 0,24.3391 z m 21.82127,0 0,24.33911 -10.63087,0 -10.63088,0 0,-24.33911 0,-24.3391 10.63088,0 10.63087,0 0,24.3391 z m 21.26175,0 0,24.33911 -10.35112,0 -10.35111,0 0,-24.33911 0,-24.3391 10.35111,0 10.35112,0 0,24.3391 z m 21.82126,0 0,24.33911 -10.63087,0 -10.63087,0 0,-24.33911 0,-24.3391 10.63087,0 10.63087,0 0,24.3391 z m 21.26176,0 0,24.33911 -10.35112,0 -10.35112,0 0,-24.33911 0,-24.3391 10.35112,0 10.35112,0 0,24.3391 z m 21.26175,0 0,24.33911 -10.35112,0 -10.35111,0 0,-24.33911 0,-24.3391 10.35111,0 10.35112,0 0,24.3391 z m 21.82127,0 0,24.33911 -10.63088,0 -10.63087,0 0,-24.33911 0,-24.3391 10.63087,0 10.63088,0 0,24.3391 z m 21.26174,0 0,24.33911 -10.35111,0 -10.35111,0 0,-24.33911 0,-24.3391 10.35111,0 10.35111,0 0,24.3391 z m 21.82126,0 0,24.33911 -10.63087,0 -10.63087,0 0,-24.33911 0,-24.3391 10.63087,0 10.63087,0 0,24.3391 z m 21.26175,0 0,24.33911 -10.35111,0 -10.35112,0 0,-24.33911 0,-24.3391 10.35112,0 10.35111,0 0,24.3391 z m 21.26174,0 0,24.33911 -10.35111,0 -10.35111,0 0,-24.33911 0,-24.3391 10.35111,0 10.35111,0 0,24.3391 z m 21.82126,0 0,24.33911 -10.63087,0 -10.63087,0 0,-24.33911 0,-24.3391 10.63087,0 10.63087,0 0,24.3391 z m 21.26174,0 0,24.33911 -10.35111,0 -10.35111,0 0,-24.33911 0,-24.3391 10.35111,0 10.35111,0 0,24.3391 z m 21.82126,0 0,24.33911 -10.63087,0 -10.63087,0 0,-24.33911 0,-24.3391 10.63087,0 10.63087,0 0,24.3391 z m 21.26175,0 0,24.33911 -10.35112,0 -10.35111,0 0,-24.33911 0,-24.3391 10.35111,0 10.35112,0 0,24.3391 z m 21.26175,0 0,24.33911 -10.35112,0 -10.35111,0 0,-24.33911 0,-24.3391 10.35111,0 10.35112,0 0,24.3391 z m 21.82126,0 0,24.33911 -10.63087,0 -10.63087,0 0,-24.33911 0,-24.3391 10.63087,0 10.63087,0 0,24.3391 z m 21.2617,0 0,24.33911 -10.35107,0 -10.35111,0 0,-24.33911 0,-24.3391 10.35111,0 10.35107,0 0,24.3391 z m 21.8213,0 0,24.33911 -10.63087,0 -10.63091,0 0,-24.33911 0,-24.3391 10.63091,0 10.63087,0 0,24.3391 z m 21.26182,0 0,24.33911 -10.35111,0 -10.35119,0 0,-24.33911 0,-24.3391 10.35119,0 10.35111,0 0,24.3391 z m 21.26174,0 0,24.33911 -10.35111,0 -10.35111,0 0,-24.33911 0,-24.3391 10.35111,0 10.35111,0 0,24.3391 z m 17.34511,0 0,24.33911 -8.39279,0 -8.3928,0 0,-24.33911 0,-24.3391 8.3928,0 8.39279,0 0,24.3391 z m 16.78558,0 0,24.33911 -8.11303,0 -8.11303,0 0,-24.33911 0,-24.3391 8.11303,0 8.11303,0 0,24.3391 z m -809.624947,49.51749 0,24.61886 -10.07136,0 -10.0713514,0 0,-24.61886 0,-24.61886 10.0713514,0 10.07136,0 0,24.61886 z m 90.082657,0 0,24.61886 -44.761563,0 -44.761575,0 0,-24.61886 0,-24.61886 44.761575,0 44.761563,0 0,24.61886 z m 41.40445,0 0,24.61886 -20.42246,0 -20.42247,0 0,-24.61886 0,-24.61886 20.42247,0 20.42246,0 0,24.61886 z m 19.02367,0 0,24.61886 -9.23208,0 -9.23207,0 0,-24.61886 0,-24.61886 9.23207,0 9.23208,0 0,24.61886 z m 19.02367,0 0,24.61886 -9.23207,0 -9.23208,0 0,-24.61886 0,-24.61886 9.23208,0 9.23207,0 0,24.61886 z m 19.02366,0 0,24.61886 -9.23207,0 -9.23207,0 0,-24.61886 0,-24.61886 9.23207,0 9.23207,0 0,24.61886 z m 19.02367,0 0,24.61886 -9.23207,0 -9.23208,0 0,-24.61886 0,-24.61886 9.23208,0 9.23207,0 0,24.61886 z m 19.02367,0 0,24.61886 -9.23207,0 -9.23208,0 0,-24.61886 0,-24.61886 9.23208,0 9.23207,0 0,24.61886 z m 19.02367,0 0,24.61886 -9.23208,0 -9.23207,0 0,-24.61886 0,-24.61886 9.23207,0 9.23208,0 0,24.61886 z m 19.58319,0 0,24.61886 -9.51184,0 -9.51183,0 0,-24.61886 0,-24.61886 9.51183,0 9.51184,0 0,24.61886 z m 19.02366,0 0,24.61886 -9.23207,0 -9.23208,0 0,-24.61886 0,-24.61886 9.23208,0 9.23207,0 0,24.61886 z m 19.02367,0 0,24.61886 -9.23207,0 -9.23208,0 0,-24.61886 0,-24.61886 9.23208,0 9.23207,0 0,24.61886 z m 21.26174,0 0,24.61886 -10.35111,0 -10.35111,0 0,-24.61886 0,-24.61886 10.35111,0 10.35111,0 0,24.61886 z m 21.26175,0 0,24.61886 -10.35111,0 -10.35112,0 0,-24.61886 0,-24.61886 10.35112,0 10.35111,0 0,24.61886 z m 21.82127,0 0,24.61886 -10.63087,0 -10.63088,0 0,-24.61886 0,-24.61886 10.63088,0 10.63087,0 0,24.61886 z m 21.26175,0 0,24.61886 -10.35112,0 -10.35111,0 0,-24.61886 0,-24.61886 10.35111,0 10.35112,0 0,24.61886 z m 21.82126,0 0,24.61886 -10.63087,0 -10.63087,0 0,-24.61886 0,-24.61886 10.63087,0 10.63087,0 0,24.61886 z m 21.26176,0 0,24.61886 -10.35112,0 -10.35112,0 0,-24.61886 0,-24.61886 10.35112,0 10.35112,0 0,24.61886 z m 21.26175,0 0,24.61886 -10.35112,0 -10.35111,0 0,-24.61886 0,-24.61886 10.35111,0 10.35112,0 0,24.61886 z m 21.82127,0 0,24.61886 -10.63088,0 -10.63087,0 0,-24.61886 0,-24.61886 10.63087,0 10.63088,0 0,24.61886 z m 21.26174,0 0,24.61886 -10.35111,0 -10.35111,0 0,-24.61886 0,-24.61886 10.35111,0 10.35111,0 0,24.61886 z m 21.82126,0 0,24.61886 -10.63087,0 -10.63087,0 0,-24.61886 0,-24.61886 10.63087,0 10.63087,0 0,24.61886 z m 21.26175,0 0,24.61886 -10.35111,0 -10.35112,0 0,-24.61886 0,-24.61886 10.35112,0 10.35111,0 0,24.61886 z m 21.26174,0 0,24.61886 -10.35111,0 -10.35111,0 0,-24.61886 0,-24.61886 10.35111,0 10.35111,0 0,24.61886 z m 21.82126,0 0,24.61886 -10.63087,0 -10.63087,0 0,-24.61886 0,-24.61886 10.63087,0 10.63087,0 0,24.61886 z m 21.26174,0 0,24.61886 -10.35111,0 -10.35111,0 0,-24.61886 0,-24.61886 10.35111,0 10.35111,0 0,24.61886 z m 21.82126,0 0,24.61886 -10.63087,0 -10.63087,0 0,-24.61886 0,-24.61886 10.63087,0 10.63087,0 0,24.61886 z m 21.26175,0 0,24.61886 -10.35112,0 -10.35111,0 0,-24.61886 0,-24.61886 10.35111,0 10.35112,0 0,24.61886 z m 21.26175,0 0,24.61886 -10.35112,0 -10.35111,0 0,-24.61886 0,-24.61886 10.35111,0 10.35112,0 0,24.61886 z m 21.82126,0 0,24.61886 -10.63087,0 -10.63087,0 0,-24.61886 0,-24.61886 10.63087,0 10.63087,0 0,24.61886 z m 21.2617,0 0,24.61886 -10.35107,0 -10.35111,0 0,-24.61886 0,-24.61886 10.35111,0 10.35107,0 0,24.61886 z m 21.8213,0 0,24.61886 -10.63087,0 -10.63091,0 0,-24.61886 0,-24.61886 10.63091,0 10.63087,0 0,24.61886 z m 21.26182,0 0,24.61886 -10.35111,0 -10.35119,0 0,-24.61886 0,-24.61886 10.35119,0 10.35111,0 0,24.61886 z m 21.26174,0 0,24.61886 -10.35111,0 -10.35111,0 0,-24.61886 0,-24.61886 10.35111,0 10.35111,0 0,24.61886 z m 17.34511,0 0,24.61886 -8.39279,0 -8.3928,0 0,-24.61886 0,-24.61886 8.3928,0 8.39279,0 0,24.61886 z m 16.78558,0 0,24.61886 -8.11303,0 -8.11303,0 0,-24.61886 0,-24.61886 8.11303,0 8.11303,0 0,24.61886 z"
           id="path26"
           inkscape:connector-curvature="0"
           style="fill:#000000;stroke:none" />
        <path
           style="fill:#000000;stroke:none"
           inkscape:connector-curvature="0"
           id="path3026"
           d="m -0.44994199,559.70175 0,-3.63687 3.63687699,0 3.6368771,0 L 6.935716,308.92506 C 6.9916381,172.96181 7.1595238,65.310243 7.2154757,69.730443 l 0.2238079,7.94518 10.0153994,0 10.015408,0 0.223807,-7.94518 0.167856,-8.00113 0.111904,8.00113 0.111904,7.94518 44.761575,0 44.705613,0 0.2238,-7.94518 0.16786,-8.00113 0.1119,8.00113 0.11191,7.94518 20.42247,0 20.36651,0 0.22381,-7.94518 0.16785,-8.00113 0.11191,8.00113 0.1119,7.94518 9.23207,0 9.17613,0 0.22381,-7.94518 0.16786,-8.00113 0.1119,8.00113 0.1119,7.94518 9.23208,0 9.17612,0 0.2238,-7.94518 0.16786,-8.00113 0.1119,8.00113 0.11191,7.94518 9.23207,0 9.17612,0 0.22381,-7.94518 0.16785,-8.00113 0.11191,8.00113 0.1119,7.94518 9.23208,0 9.17612,0 0.22381,-7.94518 0.16786,-8.00113 0.1119,8.00113 0.1119,7.94518 9.23208,0 9.17612,0 0.2238,-7.94518 0.16786,-8.00113 0.1119,8.00113 0.11191,7.94518 9.23207,0 9.17613,0 0.22381,-7.94518 0.16785,-8.00113 0.11191,8.00113 0.1119,7.94518 9.51183,0 9.45588,0 0.22381,-7.94518 0.16786,-8.00113 0.1119,8.00113 0.1119,7.94518 9.23208,0 9.17612,0 0.22381,-7.94518 0.16785,-8.00113 0.11191,8.00113 0.1119,7.94518 9.23208,0 9.17612,0 0.22381,-7.94518 0.16785,-8.00113 0.11191,8.00113 0.1119,7.94518 10.35111,0 10.29516,0 0.22381,-7.94518 0.16786,-8.00113 0.1119,8.00113 0.1119,7.94518 10.35112,0 10.29516,0 0.22381,-7.94518 0.16786,-8.00113 0.1119,8.00113 0.1119,7.94518 10.63088,0 10.57491,0 0.22381,-7.94518 0.16786,-8.00113 0.1119,8.00113 0.11191,7.94518 10.35111,0 10.29516,0 0.22381,-7.94518 0.16786,-8.00113 0.1119,8.00113 0.11191,7.94518 10.63087,0 10.57492,0 0.2238,-7.94518 0.16786,-8.00113 0.1119,8.00113 0.11191,7.94518 10.35112,0 10.29517,0 0.22381,-7.94518 0.16786,-8.00113 0.1119,8.00113 0.1119,7.94518 10.35111,0 10.29516,0 0.22381,-7.94518 0.16786,-8.00113 0.1119,8.00113 0.11191,7.94518 10.63087,0 10.57492,0 0.22381,-7.94518 0.16786,-8.00113 0.1119,8.00113 0.11191,7.94518 10.35111,0 10.29516,0 0.2238,-7.94518 0.16786,-8.00113 0.1119,8.00113 0.11191,7.94518 10.63087,0 10.57492,0 0.22381,-7.94518 0.16785,-8.00113 0.11191,8.00113 0.1119,7.94518 10.35112,0 10.29516,0 0.22381,-7.94518 0.16785,-8.00113 0.11191,8.00113 0.1119,7.94518 10.35111,0 10.29518,0 0.22377,-7.94518 0.16791,-8.00113 0.11185,8.00113 0.11192,7.94518 10.63087,0 10.57495,0 0.22376,-7.94518 0.16791,-8.00113 0.11185,8.00113 0.11192,7.94518 10.35111,0 10.29519,0 0.22376,-7.94518 0.16792,-8.00113 0.11184,8.00113 0.11192,7.94518 10.63087,0 10.57495,0 0.22376,-7.94518 0.16792,-8.00113 0.11184,8.00113 0.11192,7.94518 10.35111,0 10.29519,0 0.22384,-7.94518 0.16784,-8.00113 0.11192,8.00113 0.11185,7.94518 10.35111,0 10.29519,0 0.22384,-7.94518 0.16784,-8.00113 0.11192,8.00113 0.11185,7.94518 10.63087,0 10.57495,0 0.22383,-7.94518 0.16784,-8.00113 0.11192,8.00113 0.11185,7.94518 10.35111,0 10.29515,0 0.22384,-7.94518 0.16784,-8.00113 0.11192,8.00113 0.11184,7.94518 10.63091,0 10.57495,0 0.22384,-7.94518 0.16784,-8.00113 0.11192,8.00113 0.11184,7.94518 10.35119,0 10.29511,0 0.22384,-7.94518 0.16784,-8.00113 0.11192,8.00113 0.11192,7.94518 10.35111,0 10.29512,0 0.22383,-7.94518 0.16784,-8.00113 0.11192,8.00113 0.11192,7.94518 8.3928,0 8.33679,0 0.22384,-7.94518 0.16784,-8.00113 0.11192,8.00113 0.11192,7.94518 8.11303,0 8.05704,0 0.22384,-7.94518 c 0.0558,-4.4202 0.22376,59.141217 0.27976,141.278707 0.0558,99.03495 0.27976,149.22386 0.67143,149.22386 0.33569,0 0.55952,2.9095 0.55952,7.55351 0,4.64401 -0.22383,7.55352 -0.55952,7.55352 -0.39167,0 -0.55952,30.49382 -0.55952,90.36241 l 0,90.36243 -415.44337,0 -415.4433279,0 0,3.63687 0,3.63688 -3.6368771,0 -3.63687699,0 0,-3.63688 z m 27.97598499,-19.58318 0,-15.38679 -10.07136,0 -10.0713514,0 0,15.38679 0,15.38679 10.0713514,0 10.07136,0 0,-15.38679 z m 90.082657,0 0,-15.38679 -44.761563,0 -44.761575,0 0,15.38679 0,15.38679 44.761575,0 44.761563,0 0,-15.38679 z m 41.40445,0 0,-15.38679 -20.42246,0 -20.42247,0 0,15.38679 0,15.38679 20.42247,0 20.42246,0 0,-15.38679 z m 19.02367,0 0,-15.38679 -9.23208,0 -9.23207,0 0,15.38679 0,15.38679 9.23207,0 9.23208,0 0,-15.38679 z m 19.02367,0 0,-15.38679 -9.23207,0 -9.23208,0 0,15.38679 0,15.38679 9.23208,0 9.23207,0 0,-15.38679 z m 19.02366,0 0,-15.38679 -9.23207,0 -9.23207,0 0,15.38679 0,15.38679 9.23207,0 9.23207,0 0,-15.38679 z m 19.02367,0 0,-15.38679 -9.23207,0 -9.23208,0 0,15.38679 0,15.38679 9.23208,0 9.23207,0 0,-15.38679 z m 19.02367,0 0,-15.38679 -9.23207,0 -9.23208,0 0,15.38679 0,15.38679 9.23208,0 9.23207,0 0,-15.38679 z m 19.02367,0 0,-15.38679 -9.23208,0 -9.23207,0 0,15.38679 0,15.38679 9.23207,0 9.23208,0 0,-15.38679 z m 19.58319,0 0,-15.38679 -9.51184,0 -9.51183,0 0,15.38679 0,15.38679 9.51183,0 9.51184,0 0,-15.38679 z m 19.02366,0 0,-15.38679 -9.23207,0 -9.23208,0 0,15.38679 0,15.38679 9.23208,0 9.23207,0 0,-15.38679 z m 19.02367,0 0,-15.38679 -9.23207,0 -9.23208,0 0,15.38679 0,15.38679 9.23208,0 9.23207,0 0,-15.38679 z m 21.26174,0 0,-15.38679 -10.35111,0 -10.35111,0 0,15.38679 0,15.38679 10.35111,0 10.35111,0 0,-15.38679 z m 21.26175,0 0,-15.38679 -10.35111,0 -10.35112,0 0,15.38679 0,15.38679 10.35112,0 10.35111,0 0,-15.38679 z m 21.82127,0 0,-15.38679 -10.63087,0 -10.63088,0 0,15.38679 0,15.38679 10.63088,0 10.63087,0 0,-15.38679 z m 21.26175,0 0,-15.38679 -10.35112,0 -10.35111,0 0,15.38679 0,15.38679 10.35111,0 10.35112,0 0,-15.38679 z m 21.82126,0 0,-15.38679 -10.63087,0 -10.63087,0 0,15.38679 0,15.38679 10.63087,0 10.63087,0 0,-15.38679 z m 21.26176,0 0,-15.38679 -10.35112,0 -10.35112,0 0,15.38679 0,15.38679 10.35112,0 10.35112,0 0,-15.38679 z m 21.26175,0 0,-15.38679 -10.35112,0 -10.35111,0 0,15.38679 0,15.38679 10.35111,0 10.35112,0 0,-15.38679 z m 21.82127,0 0,-15.38679 -10.63088,0 -10.63087,0 0,15.38679 0,15.38679 10.63087,0 10.63088,0 0,-15.38679 z m 21.26174,0 0,-15.38679 -10.35111,0 -10.35111,0 0,15.38679 0,15.38679 10.35111,0 10.35111,0 0,-15.38679 z m 21.82126,0 0,-15.38679 -10.63087,0 -10.63087,0 0,15.38679 0,15.38679 10.63087,0 10.63087,0 0,-15.38679 z m 21.26175,0 0,-15.38679 -10.35111,0 -10.35112,0 0,15.38679 0,15.38679 10.35112,0 10.35111,0 0,-15.38679 z m 21.26174,0 0,-15.38679 -10.35111,0 -10.35111,0 0,15.38679 0,15.38679 10.35111,0 10.35111,0 0,-15.38679 z m 21.82126,0 0,-15.38679 -10.63087,0 -10.63087,0 0,15.38679 0,15.38679 10.63087,0 10.63087,0 0,-15.38679 z m 21.26174,0 0,-15.38679 -10.35111,0 -10.35111,0 0,15.38679 0,15.38679 10.35111,0 10.35111,0 0,-15.38679 z m 21.82126,0 0,-15.38679 -10.63087,0 -10.63087,0 0,15.38679 0,15.38679 10.63087,0 10.63087,0 0,-15.38679 z m 21.26175,0 0,-15.38679 -10.35112,0 -10.35111,0 0,15.38679 0,15.38679 10.35111,0 10.35112,0 0,-15.38679 z m 21.26175,0 0,-15.38679 -10.35112,0 -10.35111,0 0,15.38679 0,15.38679 10.35111,0 10.35112,0 0,-15.38679 z m 21.82126,0 0,-15.38679 -10.63087,0 -10.63087,0 0,15.38679 0,15.38679 10.63087,0 10.63087,0 0,-15.38679 z m 21.2617,0 0,-15.38679 -10.35107,0 -10.35111,0 0,15.38679 0,15.38679 10.35111,0 10.35107,0 0,-15.38679 z m 21.8213,0 0,-15.38679 -10.63087,0 -10.63091,0 0,15.38679 0,15.38679 10.63091,0 10.63087,0 0,-15.38679 z m 21.26182,0 0,-15.38679 -10.35111,0 -10.35119,0 0,15.38679 0,15.38679 10.35119,0 10.35111,0 0,-15.38679 z m 21.26174,0 0,-15.38679 -10.35111,0 -10.35111,0 0,15.38679 0,15.38679 10.35111,0 10.35111,0 0,-15.38679 z m 17.34511,0 0,-15.38679 -8.39279,0 -8.3928,0 0,15.38679 0,15.38679 8.3928,0 8.39279,0 0,-15.38679 z m 16.78558,0 0,-15.38679 -8.11303,0 -8.11303,0 0,15.38679 0,15.38679 8.11303,0 8.11303,0 0,-15.38679 z m -809.624947,-40.28542 0,-24.3391 -10.07136,0 -10.0713514,0 0,24.3391 0,24.3391 10.0713514,0 10.07136,0 0,-24.3391 z m 90.082657,0 0,-24.3391 -44.761563,0 -44.761575,0 0,24.3391 0,24.3391 44.761575,0 44.761563,0 0,-24.3391 z m 41.40445,0 0,-24.3391 -20.42246,0 -20.42247,0 0,24.3391 0,24.3391 20.42247,0 20.42246,0 0,-24.3391 z m 19.02367,0 0,-24.3391 -9.23208,0 -9.23207,0 0,24.3391 0,24.3391 9.23207,0 9.23208,0 0,-24.3391 z m 19.02367,0 0,-24.3391 -9.23207,0 -9.23208,0 0,24.3391 0,24.3391 9.23208,0 9.23207,0 0,-24.3391 z m 19.02366,0 0,-24.3391 -9.23207,0 -9.23207,0 0,24.3391 0,24.3391 9.23207,0 9.23207,0 0,-24.3391 z m 19.02367,0 0,-24.3391 -9.23207,0 -9.23208,0 0,24.3391 0,24.3391 9.23208,0 9.23207,0 0,-24.3391 z m 19.02367,0 0,-24.3391 -9.23207,0 -9.23208,0 0,24.3391 0,24.3391 9.23208,0 9.23207,0 0,-24.3391 z m 19.02367,0 0,-24.3391 -9.23208,0 -9.23207,0 0,24.3391 0,24.3391 9.23207,0 9.23208,0 0,-24.3391 z m 19.58319,0 0,-24.3391 -9.51184,0 -9.51183,0 0,24.3391 0,24.3391 9.51183,0 9.51184,0 0,-24.3391 z m 19.02366,0 0,-24.3391 -9.23207,0 -9.23208,0 0,24.3391 0,24.3391 9.23208,0 9.23207,0 0,-24.3391 z m 19.02367,0 0,-24.3391 -9.23207,0 -9.23208,0 0,24.3391 0,24.3391 9.23208,0 9.23207,0 0,-24.3391 z m 21.26174,0 0,-24.3391 -10.35111,0 -10.35111,0 0,24.3391 0,24.3391 10.35111,0 10.35111,0 0,-24.3391 z m 21.26175,0 0,-24.3391 -10.35111,0 -10.35112,0 0,24.3391 0,24.3391 10.35112,0 10.35111,0 0,-24.3391 z m 21.82127,0 0,-24.3391 -10.63087,0 -10.63088,0 0,24.3391 0,24.3391 10.63088,0 10.63087,0 0,-24.3391 z m 21.26175,0 0,-24.3391 -10.35112,0 -10.35111,0 0,24.3391 0,24.3391 10.35111,0 10.35112,0 0,-24.3391 z m 21.82126,0 0,-24.3391 -10.63087,0 -10.63087,0 0,24.3391 0,24.3391 10.63087,0 10.63087,0 0,-24.3391 z m 21.26176,0 0,-24.3391 -10.35112,0 -10.35112,0 0,24.3391 0,24.3391 10.35112,0 10.35112,0 0,-24.3391 z m 21.26175,0 0,-24.3391 -10.35112,0 -10.35111,0 0,24.3391 0,24.3391 10.35111,0 10.35112,0 0,-24.3391 z m 21.82127,0 0,-24.3391 -10.63088,0 -10.63087,0 0,24.3391 0,24.3391 10.63087,0 10.63088,0 0,-24.3391 z m 21.26174,0 0,-24.3391 -10.35111,0 -10.35111,0 0,24.3391 0,24.3391 10.35111,0 10.35111,0 0,-24.3391 z m 21.82126,0 0,-24.3391 -10.63087,0 -10.63087,0 0,24.3391 0,24.3391 10.63087,0 10.63087,0 0,-24.3391 z m 21.26175,0 0,-24.3391 -10.35111,0 -10.35112,0 0,24.3391 0,24.3391 10.35112,0 10.35111,0 0,-24.3391 z m 21.26174,0 0,-24.3391 -10.35111,0 -10.35111,0 0,24.3391 0,24.3391 10.35111,0 10.35111,0 0,-24.3391 z m 21.82126,0 0,-24.3391 -10.63087,0 -10.63087,0 0,24.3391 0,24.3391 10.63087,0 10.63087,0 0,-24.3391 z m 21.26174,0 0,-24.3391 -10.35111,0 -10.35111,0 0,24.3391 0,24.3391 10.35111,0 10.35111,0 0,-24.3391 z m 21.82126,0 0,-24.3391 -10.63087,0 -10.63087,0 0,24.3391 0,24.3391 10.63087,0 10.63087,0 0,-24.3391 z m 21.26175,0 0,-24.3391 -10.35112,0 -10.35111,0 0,24.3391 0,24.3391 10.35111,0 10.35112,0 0,-24.3391 z m 21.26175,0 0,-24.3391 -10.35112,0 -10.35111,0 0,24.3391 0,24.3391 10.35111,0 10.35112,0 0,-24.3391 z m 21.82126,0 0,-24.3391 -10.63087,0 -10.63087,0 0,24.3391 0,24.3391 10.63087,0 10.63087,0 0,-24.3391 z m 21.2617,0 0,-24.3391 -10.35107,0 -10.35111,0 0,24.3391 0,24.3391 10.35111,0 10.35107,0 0,-24.3391 z m 21.8213,0 0,-24.3391 -10.63087,0 -10.63091,0 0,24.3391 0,24.3391 10.63091,0 10.63087,0 0,-24.3391 z m 21.26182,0 0,-24.3391 -10.35111,0 -10.35119,0 0,24.3391 0,24.3391 10.35119,0 10.35111,0 0,-24.3391 z m 21.26174,0 0,-24.3391 -10.35111,0 -10.35111,0 0,24.3391 0,24.3391 10.35111,0 10.35111,0 0,-24.3391 z m 17.34511,0 0,-24.3391 -8.39279,0 -8.3928,0 0,24.3391 0,24.3391 8.3928,0 8.39279,0 0,-24.3391 z m 16.78558,0 0,-24.3391 -8.11303,0 -8.11303,0 0,24.3391 0,24.3391 8.11303,0 8.11303,0 0,-24.3391 z m -809.624947,-49.51749 0,-24.61886 -10.07136,0 -10.0713514,0 0,24.61886 0,24.61887 10.0713514,0 10.07136,0 0,-24.61887 z m 90.082657,0 0,-24.61886 -44.761563,0 -44.761575,0 0,24.61886 0,24.61887 44.761575,0 44.761563,0 0,-24.61887 z m 41.40445,0 0,-24.61886 -20.42246,0 -20.42247,0 0,24.61886 0,24.61887 20.42247,0 20.42246,0 0,-24.61887 z m 19.02367,0 0,-24.61886 -9.23208,0 -9.23207,0 0,24.61886 0,24.61887 9.23207,0 9.23208,0 0,-24.61887 z m 19.02367,0 0,-24.61886 -9.23207,0 -9.23208,0 0,24.61886 0,24.61887 9.23208,0 9.23207,0 0,-24.61887 z m 19.02366,0 0,-24.61886 -9.23207,0 -9.23207,0 0,24.61886 0,24.61887 9.23207,0 9.23207,0 0,-24.61887 z m 19.02367,0 0,-24.61886 -9.23207,0 -9.23208,0 0,24.61886 0,24.61887 9.23208,0 9.23207,0 0,-24.61887 z m 19.02367,0 0,-24.61886 -9.23207,0 -9.23208,0 0,24.61886 0,24.61887 9.23208,0 9.23207,0 0,-24.61887 z m 19.02367,0 0,-24.61886 -9.23208,0 -9.23207,0 0,24.61886 0,24.61887 9.23207,0 9.23208,0 0,-24.61887 z m 19.58319,0 0,-24.61886 -9.51184,0 -9.51183,0 0,24.61886 0,24.61887 9.51183,0 9.51184,0 0,-24.61887 z m 19.02366,0 0,-24.61886 -9.23207,0 -9.23208,0 0,24.61886 0,24.61887 9.23208,0 9.23207,0 0,-24.61887 z m 19.02367,0 0,-24.61886 -9.23207,0 -9.23208,0 0,24.61886 0,24.61887 9.23208,0 9.23207,0 0,-24.61887 z m 21.26174,0 0,-24.61886 -10.35111,0 -10.35111,0 0,24.61886 0,24.61887 10.35111,0 10.35111,0 0,-24.61887 z m 21.26175,0 0,-24.61886 -10.35111,0 -10.35112,0 0,24.61886 0,24.61887 10.35112,0 10.35111,0 0,-24.61887 z m 21.82127,0 0,-24.61886 -10.63087,0 -10.63088,0 0,24.61886 0,24.61887 10.63088,0 10.63087,0 0,-24.61887 z m 21.26175,0 0,-24.61886 -10.35112,0 -10.35111,0 0,24.61886 0,24.61887 10.35111,0 10.35112,0 0,-24.61887 z m 21.82126,0 0,-24.61886 -10.63087,0 -10.63087,0 0,24.61886 0,24.61887 10.63087,0 10.63087,0 0,-24.61887 z m 21.26176,0 0,-24.61886 -10.35112,0 -10.35112,0 0,24.61886 0,24.61887 10.35112,0 10.35112,0 0,-24.61887 z m 21.26175,0 0,-24.61886 -10.35112,0 -10.35111,0 0,24.61886 0,24.61887 10.35111,0 10.35112,0 0,-24.61887 z m 21.82127,0 0,-24.61886 -10.63088,0 -10.63087,0 0,24.61886 0,24.61887 10.63087,0 10.63088,0 0,-24.61887 z m 21.26174,0 0,-24.61886 -10.35111,0 -10.35111,0 0,24.61886 0,24.61887 10.35111,0 10.35111,0 0,-24.61887 z m 21.82126,0 0,-24.61886 -10.63087,0 -10.63087,0 0,24.61886 0,24.61887 10.63087,0 10.63087,0 0,-24.61887 z m 21.26175,0 0,-24.61886 -10.35111,0 -10.35112,0 0,24.61886 0,24.61887 10.35112,0 10.35111,0 0,-24.61887 z m 21.26174,0 0,-24.61886 -10.35111,0 -10.35111,0 0,24.61886 0,24.61887 10.35111,0 10.35111,0 0,-24.61887 z m 21.82126,0 0,-24.61886 -10.63087,0 -10.63087,0 0,24.61886 0,24.61887 10.63087,0 10.63087,0 0,-24.61887 z m 21.26174,0 0,-24.61886 -10.35111,0 -10.35111,0 0,24.61886 0,24.61887 10.35111,0 10.35111,0 0,-24.61887 z m 21.82126,0 0,-24.61886 -10.63087,0 -10.63087,0 0,24.61886 0,24.61887 10.63087,0 10.63087,0 0,-24.61887 z m 21.26175,0 0,-24.61886 -10.35112,0 -10.35111,0 0,24.61886 0,24.61887 10.35111,0 10.35112,0 0,-24.61887 z m 21.26175,0 0,-24.61886 -10.35112,0 -10.35111,0 0,24.61886 0,24.61887 10.35111,0 10.35112,0 0,-24.61887 z m 21.82126,0 0,-24.61886 -10.63087,0 -10.63087,0 0,24.61886 0,24.61887 10.63087,0 10.63087,0 0,-24.61887 z m 21.2617,0 0,-24.61886 -10.35107,0 -10.35111,0 0,24.61886 0,24.61887 10.35111,0 10.35107,0 0,-24.61887 z m 21.8213,0 0,-24.61886 -10.63087,0 -10.63091,0 0,24.61886 0,24.61887 10.63091,0 10.63087,0 0,-24.61887 z m 21.26182,0 0,-24.61886 -10.35111,0 -10.35119,0 0,24.61886 0,24.61887 10.35119,0 10.35111,0 0,-24.61887 z m 21.26174,0 0,-24.61886 -10.35111,0 -10.35111,0 0,24.61886 0,24.61887 10.35111,0 10.35111,0 0,-24.61887 z m 17.34511,0 0,-24.61886 -8.39279,0 -8.3928,0 0,24.61886 0,24.61887 8.3928,0 8.39279,0 0,-24.61887 z m 16.78558,0 0,-24.61886 -8.11303,0 -8.11303,0 0,24.61886 0,24.61887 8.11303,0 8.11303,0 0,-24.61887 z m -809.624947,-49.79724 0,-24.61886 -10.07136,0 -10.0713514,0 0,24.61886 0,24.61886 10.0713514,0 10.07136,0 0,-24.61886 z m 90.082657,0 0,-24.61886 -44.761563,0 -44.761575,0 0,24.61886 0,24.61886 44.761575,0 44.761563,0 0,-24.61886 z m 41.40445,0 0,-24.61886 -20.42246,0 -20.42247,0 0,24.61886 0,24.61886 20.42247,0 20.42246,0 0,-24.61886 z m 19.02367,0 0,-24.61886 -9.23208,0 -9.23207,0 0,24.61886 0,24.61886 9.23207,0 9.23208,0 0,-24.61886 z m 19.02367,0 0,-24.61886 -9.23207,0 -9.23208,0 0,24.61886 0,24.61886 9.23208,0 9.23207,0 0,-24.61886 z m 19.02366,0 0,-24.61886 -9.23207,0 -9.23207,0 0,24.61886 0,24.61886 9.23207,0 9.23207,0 0,-24.61886 z m 19.02367,0 0,-24.61886 -9.23207,0 -9.23208,0 0,24.61886 0,24.61886 9.23208,0 9.23207,0 0,-24.61886 z m 19.02367,0 0,-24.61886 -9.23207,0 -9.23208,0 0,24.61886 0,24.61886 9.23208,0 9.23207,0 0,-24.61886 z m 19.02367,0 0,-24.61886 -9.23208,0 -9.23207,0 0,24.61886 0,24.61886 9.23207,0 9.23208,0 0,-24.61886 z m 19.58319,0 0,-24.61886 -9.51184,0 -9.51183,0 0,24.61886 0,24.61886 9.51183,0 9.51184,0 0,-24.61886 z m 19.02366,0 0,-24.61886 -9.23207,0 -9.23208,0 0,24.61886 0,24.61886 9.23208,0 9.23207,0 0,-24.61886 z m 19.02367,0 0,-24.61886 -9.23207,0 -9.23208,0 0,24.61886 0,24.61886 9.23208,0 9.23207,0 0,-24.61886 z m 21.26174,0 0,-24.61886 -10.35111,0 -10.35111,0 0,24.61886 0,24.61886 10.35111,0 10.35111,0 0,-24.61886 z m 21.26175,0 0,-24.61886 -10.35111,0 -10.35112,0 0,24.61886 0,24.61886 10.35112,0 10.35111,0 0,-24.61886 z m 21.82127,0 0,-24.61886 -10.63087,0 -10.63088,0 0,24.61886 0,24.61886 10.63088,0 10.63087,0 0,-24.61886 z m 21.26175,0 0,-24.61886 -10.35112,0 -10.35111,0 0,24.61886 0,24.61886 10.35111,0 10.35112,0 0,-24.61886 z m 21.82126,0 0,-24.61886 -10.63087,0 -10.63087,0 0,24.61886 0,24.61886 10.63087,0 10.63087,0 0,-24.61886 z m 21.26176,0 0,-24.61886 -10.35112,0 -10.35112,0 0,24.61886 0,24.61886 10.35112,0 10.35112,0 0,-24.61886 z m 21.26175,0 0,-24.61886 -10.35112,0 -10.35111,0 0,24.61886 0,24.61886 10.35111,0 10.35112,0 0,-24.61886 z m 21.82127,0 0,-24.61886 -10.63088,0 -10.63087,0 0,24.61886 0,24.61886 10.63087,0 10.63088,0 0,-24.61886 z m 21.26174,0 0,-24.61886 -10.35111,0 -10.35111,0 0,24.61886 0,24.61886 10.35111,0 10.35111,0 0,-24.61886 z m 21.82126,0 0,-24.61886 -10.63087,0 -10.63087,0 0,24.61886 0,24.61886 10.63087,0 10.63087,0 0,-24.61886 z m 21.26175,0 0,-24.61886 -10.35111,0 -10.35112,0 0,24.61886 0,24.61886 10.35112,0 10.35111,0 0,-24.61886 z m 21.26174,0 0,-24.61886 -10.35111,0 -10.35111,0 0,24.61886 0,24.61886 10.35111,0 10.35111,0 0,-24.61886 z m 21.82126,0 0,-24.61886 -10.63087,0 -10.63087,0 0,24.61886 0,24.61886 10.63087,0 10.63087,0 0,-24.61886 z m 21.26174,0 0,-24.61886 -10.35111,0 -10.35111,0 0,24.61886 0,24.61886 10.35111,0 10.35111,0 0,-24.61886 z m 21.82126,0 0,-24.61886 -10.63087,0 -10.63087,0 0,24.61886 0,24.61886 10.63087,0 10.63087,0 0,-24.61886 z m 21.26175,0 0,-24.61886 -10.35112,0 -10.35111,0 0,24.61886 0,24.61886 10.35111,0 10.35112,0 0,-24.61886 z m 21.26175,0 0,-24.61886 -10.35112,0 -10.35111,0 0,24.61886 0,24.61886 10.35111,0 10.35112,0 0,-24.61886 z m 21.82126,0 0,-24.61886 -10.63087,0 -10.63087,0 0,24.61886 0,24.61886 10.63087,0 10.63087,0 0,-24.61886 z m 21.2617,0 0,-24.61886 -10.35107,0 -10.35111,0 0,24.61886 0,24.61886 10.35111,0 10.35107,0 0,-24.61886 z m 21.8213,0 0,-24.61886 -10.63087,0 -10.63091,0 0,24.61886 0,24.61886 10.63091,0 10.63087,0 0,-24.61886 z m 21.26182,0 0,-24.61886 -10.35111,0 -10.35119,0 0,24.61886 0,24.61886 10.35119,0 10.35111,0 0,-24.61886 z m 21.26174,0 0,-24.61886 -10.35111,0 -10.35111,0 0,24.61886 0,24.61886 10.35111,0 10.35111,0 0,-24.61886 z m 17.34511,0 0,-24.61886 -8.39279,0 -8.3928,0 0,24.61886 0,24.61886 8.3928,0 8.39279,0 0,-24.61886 z m 16.78558,0 0,-24.61886 -8.11303,0 -8.11303,0 0,24.61886 0,24.61886 8.11303,0 8.11303,0 0,-24.61886 z m -809.624947,-49.79724 0,-24.61887 -10.07136,0 -10.0713514,0 0,24.61887 0,24.61886 10.0713514,0 10.07136,0 0,-24.61886 z m 90.082657,0 0,-24.61887 -44.761563,0 -44.761575,0 0,24.61887 0,24.61886 44.761575,0 44.761563,0 0,-24.61886 z m 41.40445,0 0,-24.61887 -20.42246,0 -20.42247,0 0,24.61887 0,24.61886 20.42247,0 20.42246,0 0,-24.61886 z m 19.02367,0 0,-24.61887 -9.23208,0 -9.23207,0 0,24.61887 0,24.61886 9.23207,0 9.23208,0 0,-24.61886 z m 19.02367,0 0,-24.61887 -9.23207,0 -9.23208,0 0,24.61887 0,24.61886 9.23208,0 9.23207,0 0,-24.61886 z m 19.02366,0 0,-24.61887 -9.23207,0 -9.23207,0 0,24.61887 0,24.61886 9.23207,0 9.23207,0 0,-24.61886 z m 19.02367,0 0,-24.61887 -9.23207,0 -9.23208,0 0,24.61887 0,24.61886 9.23208,0 9.23207,0 0,-24.61886 z m 19.02367,0 0,-24.61887 -9.23207,0 -9.23208,0 0,24.61887 0,24.61886 9.23208,0 9.23207,0 0,-24.61886 z m 19.02367,0 0,-24.61887 -9.23208,0 -9.23207,0 0,24.61887 0,24.61886 9.23207,0 9.23208,0 0,-24.61886 z m 19.58319,0 0,-24.61887 -9.51184,0 -9.51183,0 0,24.61887 0,24.61886 9.51183,0 9.51184,0 0,-24.61886 z m 19.02366,0 0,-24.61887 -9.23207,0 -9.23208,0 0,24.61887 0,24.61886 9.23208,0 9.23207,0 0,-24.61886 z m 19.02367,0 0,-24.61887 -9.23207,0 -9.23208,0 0,24.61887 0,24.61886 9.23208,0 9.23207,0 0,-24.61886 z m 21.26174,0 0,-24.61887 -10.35111,0 -10.35111,0 0,24.61887 0,24.61886 10.35111,0 10.35111,0 0,-24.61886 z m 21.26175,0 0,-24.61887 -10.35111,0 -10.35112,0 0,24.61887 0,24.61886 10.35112,0 10.35111,0 0,-24.61886 z m 21.82127,0 0,-24.61887 -10.63087,0 -10.63088,0 0,24.61887 0,24.61886 10.63088,0 10.63087,0 0,-24.61886 z m 21.26175,0 0,-24.61887 -10.35112,0 -10.35111,0 0,24.61887 0,24.61886 10.35111,0 10.35112,0 0,-24.61886 z m 21.82126,0 0,-24.61887 -10.63087,0 -10.63087,0 0,24.61887 0,24.61886 10.63087,0 10.63087,0 0,-24.61886 z m 21.26176,0 0,-24.61887 -10.35112,0 -10.35112,0 0,24.61887 0,24.61886 10.35112,0 10.35112,0 0,-24.61886 z m 21.26175,0 0,-24.61887 -10.35112,0 -10.35111,0 0,24.61887 0,24.61886 10.35111,0 10.35112,0 0,-24.61886 z m 21.82127,0 0,-24.61887 -10.63088,0 -10.63087,0 0,24.61887 0,24.61886 10.63087,0 10.63088,0 0,-24.61886 z m 21.26174,0 0,-24.61887 -10.35111,0 -10.35111,0 0,24.61887 0,24.61886 10.35111,0 10.35111,0 0,-24.61886 z m 21.82126,0 0,-24.61887 -10.63087,0 -10.63087,0 0,24.61887 0,24.61886 10.63087,0 10.63087,0 0,-24.61886 z m 21.26175,0 0,-24.61887 -10.35111,0 -10.35112,0 0,24.61887 0,24.61886 10.35112,0 10.35111,0 0,-24.61886 z m 21.26174,0 0,-24.61887 -10.35111,0 -10.35111,0 0,24.61887 0,24.61886 10.35111,0 10.35111,0 0,-24.61886 z m 21.82126,0 0,-24.61887 -10.63087,0 -10.63087,0 0,24.61887 0,24.61886 10.63087,0 10.63087,0 0,-24.61886 z m 21.26174,0 0,-24.61887 -10.35111,0 -10.35111,0 0,24.61887 0,24.61886 10.35111,0 10.35111,0 0,-24.61886 z m 21.82126,0 0,-24.61887 -10.63087,0 -10.63087,0 0,24.61887 0,24.61886 10.63087,0 10.63087,0 0,-24.61886 z m 21.26175,0 0,-24.61887 -10.35112,0 -10.35111,0 0,24.61887 0,24.61886 10.35111,0 10.35112,0 0,-24.61886 z m 21.26175,0 0,-24.61887 -10.35112,0 -10.35111,0 0,24.61887 0,24.61886 10.35111,0 10.35112,0 0,-24.61886 z m 21.82126,0 0,-24.61887 -10.63087,0 -10.63087,0 0,24.61887 0,24.61886 10.63087,0 10.63087,0 0,-24.61886 z m 21.2617,0 0,-24.61887 -10.35107,0 -10.35111,0 0,24.61887 0,24.61886 10.35111,0 10.35107,0 0,-24.61886 z m 21.8213,0 0,-24.61887 -10.63087,0 -10.63091,0 0,24.61887 0,24.61886 10.63091,0 10.63087,0 0,-24.61886 z m 21.26182,0 0,-24.61887 -10.35111,0 -10.35119,0 0,24.61887 0,24.61886 10.35119,0 10.35111,0 0,-24.61886 z m 21.26174,0 0,-24.61887 -10.35111,0 -10.35111,0 0,24.61887 0,24.61886 10.35111,0 10.35111,0 0,-24.61886 z m 17.34511,0 0,-24.61887 -8.39279,0 -8.3928,0 0,24.61887 0,24.61886 8.3928,0 8.39279,0 0,-24.61886 z m 16.78558,0 0,-24.61887 -8.11303,0 -8.11303,0 0,24.61887 0,24.61886 8.11303,0 8.11303,0 0,-24.61886 z m -809.624947,-49.51749 0,-24.33911 -10.07136,0 -10.0713514,0 0,24.33911 0,24.3391 10.0713514,0 10.07136,0 0,-24.3391 z m 90.082657,0 0,-24.33911 -44.761563,0 -44.761575,0 0,24.33911 0,24.3391 44.761575,0 44.761563,0 0,-24.3391 z m 41.40445,0 0,-24.33911 -20.42246,0 -20.42247,0 0,24.33911 0,24.3391 20.42247,0 20.42246,0 0,-24.3391 z m 19.02367,0 0,-24.33911 -9.23208,0 -9.23207,0 0,24.33911 0,24.3391 9.23207,0 9.23208,0 0,-24.3391 z m 19.02367,0 0,-24.33911 -9.23207,0 -9.23208,0 0,24.33911 0,24.3391 9.23208,0 9.23207,0 0,-24.3391 z m 19.02366,0 0,-24.33911 -9.23207,0 -9.23207,0 0,24.33911 0,24.3391 9.23207,0 9.23207,0 0,-24.3391 z m 19.02367,0 0,-24.33911 -9.23207,0 -9.23208,0 0,24.33911 0,24.3391 9.23208,0 9.23207,0 0,-24.3391 z m 19.02367,0 0,-24.33911 -9.23207,0 -9.23208,0 0,24.33911 0,24.3391 9.23208,0 9.23207,0 0,-24.3391 z m 19.02367,0 0,-24.33911 -9.23208,0 -9.23207,0 0,24.33911 0,24.3391 9.23207,0 9.23208,0 0,-24.3391 z m 19.58319,0 0,-24.33911 -9.51184,0 -9.51183,0 0,24.33911 0,24.3391 9.51183,0 9.51184,0 0,-24.3391 z m 19.02366,0 0,-24.33911 -9.23207,0 -9.23208,0 0,24.33911 0,24.3391 9.23208,0 9.23207,0 0,-24.3391 z m 19.02367,0 0,-24.33911 -9.23207,0 -9.23208,0 0,24.33911 0,24.3391 9.23208,0 9.23207,0 0,-24.3391 z m 21.26174,0 0,-24.33911 -10.35111,0 -10.35111,0 0,24.33911 0,24.3391 10.35111,0 10.35111,0 0,-24.3391 z m 21.26175,0 0,-24.33911 -10.35111,0 -10.35112,0 0,24.33911 0,24.3391 10.35112,0 10.35111,0 0,-24.3391 z m 21.82127,0 0,-24.33911 -10.63087,0 -10.63088,0 0,24.33911 0,24.3391 10.63088,0 10.63087,0 0,-24.3391 z m 21.26175,0 0,-24.33911 -10.35112,0 -10.35111,0 0,24.33911 0,24.3391 10.35111,0 10.35112,0 0,-24.3391 z m 21.82126,0 0,-24.33911 -10.63087,0 -10.63087,0 0,24.33911 0,24.3391 10.63087,0 10.63087,0 0,-24.3391 z m 21.26176,0 0,-24.33911 -10.35112,0 -10.35112,0 0,24.33911 0,24.3391 10.35112,0 10.35112,0 0,-24.3391 z m 21.26175,0 0,-24.33911 -10.35112,0 -10.35111,0 0,24.33911 0,24.3391 10.35111,0 10.35112,0 0,-24.3391 z m 21.82127,0 0,-24.33911 -10.63088,0 -10.63087,0 0,24.33911 0,24.3391 10.63087,0 10.63088,0 0,-24.3391 z m 21.26174,0 0,-24.33911 -10.35111,0 -10.35111,0 0,24.33911 0,24.3391 10.35111,0 10.35111,0 0,-24.3391 z m 21.82126,0 0,-24.33911 -10.63087,0 -10.63087,0 0,24.33911 0,24.3391 10.63087,0 10.63087,0 0,-24.3391 z m 21.26175,0 0,-24.33911 -10.35111,0 -10.35112,0 0,24.33911 0,24.3391 10.35112,0 10.35111,0 0,-24.3391 z m 21.26174,0 0,-24.33911 -10.35111,0 -10.35111,0 0,24.33911 0,24.3391 10.35111,0 10.35111,0 0,-24.3391 z m 21.82126,0 0,-24.33911 -10.63087,0 -10.63087,0 0,24.33911 0,24.3391 10.63087,0 10.63087,0 0,-24.3391 z m 21.26174,0 0,-24.33911 -10.35111,0 -10.35111,0 0,24.33911 0,24.3391 10.35111,0 10.35111,0 0,-24.3391 z m 21.82126,0 0,-24.33911 -10.63087,0 -10.63087,0 0,24.33911 0,24.3391 10.63087,0 10.63087,0 0,-24.3391 z m 21.26175,0 0,-24.33911 -10.35112,0 -10.35111,0 0,24.33911 0,24.3391 10.35111,0 10.35112,0 0,-24.3391 z m 21.26175,0 0,-24.33911 -10.35112,0 -10.35111,0 0,24.33911 0,24.3391 10.35111,0 10.35112,0 0,-24.3391 z m 21.82126,0 0,-24.33911 -10.63087,0 -10.63087,0 0,24.33911 0,24.3391 10.63087,0 10.63087,0 0,-24.3391 z m 21.2617,0 0,-24.33911 -10.35107,0 -10.35111,0 0,24.33911 0,24.3391 10.35111,0 10.35107,0 0,-24.3391 z m 21.8213,0 0,-24.33911 -10.63087,0 -10.63091,0 0,24.33911 0,24.3391 10.63091,0 10.63087,0 0,-24.3391 z m 21.26182,0 0,-24.33911 -10.35111,0 -10.35119,0 0,24.33911 0,24.3391 10.35119,0 10.35111,0 0,-24.3391 z m 21.26174,0 0,-24.33911 -10.35111,0 -10.35111,0 0,24.33911 0,24.3391 10.35111,0 10.35111,0 0,-24.3391 z m 17.34511,0 0,-24.33911 -8.39279,0 -8.3928,0 0,24.33911 0,24.3391 8.3928,0 8.39279,0 0,-24.3391 z m 16.78558,0 0,-24.33911 -8.11303,0 -8.11303,0 0,24.33911 0,24.3391 8.11303,0 8.11303,0 0,-24.3391 z M 27.526043,251.6862 l 0,-24.61886 -10.07136,0 -10.0713514,0 0,24.61886 0,24.61886 10.0713514,0 10.07136,0 0,-24.61886 z m 90.082657,0 0,-24.61886 -44.761563,0 -44.761575,0 0,24.61886 0,24.61886 44.761575,0 44.761563,0 0,-24.61886 z m 41.40445,0 0,-24.61886 -20.42246,0 -20.42247,0 0,24.61886 0,24.61886 20.42247,0 20.42246,0 0,-24.61886 z m 19.02367,0 0,-24.61886 -9.23208,0 -9.23207,0 0,24.61886 0,24.61886 9.23207,0 9.23208,0 0,-24.61886 z m 19.02367,0 0,-24.61886 -9.23207,0 -9.23208,0 0,24.61886 0,24.61886 9.23208,0 9.23207,0 0,-24.61886 z m 19.02366,0 0,-24.61886 -9.23207,0 -9.23207,0 0,24.61886 0,24.61886 9.23207,0 9.23207,0 0,-24.61886 z m 19.02367,0 0,-24.61886 -9.23207,0 -9.23208,0 0,24.61886 0,24.61886 9.23208,0 9.23207,0 0,-24.61886 z m 19.02367,0 0,-24.61886 -9.23207,0 -9.23208,0 0,24.61886 0,24.61886 9.23208,0 9.23207,0 0,-24.61886 z m 19.02367,0 0,-24.61886 -9.23208,0 -9.23207,0 0,24.61886 0,24.61886 9.23207,0 9.23208,0 0,-24.61886 z m 19.58319,0 0,-24.61886 -9.51184,0 -9.51183,0 0,24.61886 0,24.61886 9.51183,0 9.51184,0 0,-24.61886 z m 19.02366,0 0,-24.61886 -9.23207,0 -9.23208,0 0,24.61886 0,24.61886 9.23208,0 9.23207,0 0,-24.61886 z m 19.02367,0 0,-24.61886 -9.23207,0 -9.23208,0 0,24.61886 0,24.61886 9.23208,0 9.23207,0 0,-24.61886 z m 21.26174,0 0,-24.61886 -10.35111,0 -10.35111,0 0,24.61886 0,24.61886 10.35111,0 10.35111,0 0,-24.61886 z m 21.26175,0 0,-24.61886 -10.35111,0 -10.35112,0 0,24.61886 0,24.61886 10.35112,0 10.35111,0 0,-24.61886 z m 21.82127,0 0,-24.61886 -10.63087,0 -10.63088,0 0,24.61886 0,24.61886 10.63088,0 10.63087,0 0,-24.61886 z m 21.26175,0 0,-24.61886 -10.35112,0 -10.35111,0 0,24.61886 0,24.61886 10.35111,0 10.35112,0 0,-24.61886 z m 21.82126,0 0,-24.61886 -10.63087,0 -10.63087,0 0,24.61886 0,24.61886 10.63087,0 10.63087,0 0,-24.61886 z m 21.26176,0 0,-24.61886 -10.35112,0 -10.35112,0 0,24.61886 0,24.61886 10.35112,0 10.35112,0 0,-24.61886 z m 21.26175,0 0,-24.61886 -10.35112,0 -10.35111,0 0,24.61886 0,24.61886 10.35111,0 10.35112,0 0,-24.61886 z m 21.82127,0 0,-24.61886 -10.63088,0 -10.63087,0 0,24.61886 0,24.61886 10.63087,0 10.63088,0 0,-24.61886 z m 21.26174,0 0,-24.61886 -10.35111,0 -10.35111,0 0,24.61886 0,24.61886 10.35111,0 10.35111,0 0,-24.61886 z m 21.82126,0 0,-24.61886 -10.63087,0 -10.63087,0 0,24.61886 0,24.61886 10.63087,0 10.63087,0 0,-24.61886 z m 21.26175,0 0,-24.61886 -10.35111,0 -10.35112,0 0,24.61886 0,24.61886 10.35112,0 10.35111,0 0,-24.61886 z m 21.26174,0 0,-24.61886 -10.35111,0 -10.35111,0 0,24.61886 0,24.61886 10.35111,0 10.35111,0 0,-24.61886 z m 21.82126,0 0,-24.61886 -10.63087,0 -10.63087,0 0,24.61886 0,24.61886 10.63087,0 10.63087,0 0,-24.61886 z m 21.26174,0 0,-24.61886 -10.35111,0 -10.35111,0 0,24.61886 0,24.61886 10.35111,0 10.35111,0 0,-24.61886 z m 21.82126,0 0,-24.61886 -10.63087,0 -10.63087,0 0,24.61886 0,24.61886 10.63087,0 10.63087,0 0,-24.61886 z m 21.26175,0 0,-24.61886 -10.35112,0 -10.35111,0 0,24.61886 0,24.61886 10.35111,0 10.35112,0 0,-24.61886 z m 21.26175,0 0,-24.61886 -10.35112,0 -10.35111,0 0,24.61886 0,24.61886 10.35111,0 10.35112,0 0,-24.61886 z m 21.82126,0 0,-24.61886 -10.63087,0 -10.63087,0 0,24.61886 0,24.61886 10.63087,0 10.63087,0 0,-24.61886 z m 21.2617,0 0,-24.61886 -10.35107,0 -10.35111,0 0,24.61886 0,24.61886 10.35111,0 10.35107,0 0,-24.61886 z m 21.8213,0 0,-24.61886 -10.63087,0 -10.63091,0 0,24.61886 0,24.61886 10.63091,0 10.63087,0 0,-24.61886 z m 21.26182,0 0,-24.61886 -10.35111,0 -10.35119,0 0,24.61886 0,24.61886 10.35119,0 10.35111,0 0,-24.61886 z m 21.26174,0 0,-24.61886 -10.35111,0 -10.35111,0 0,24.61886 0,24.61886 10.35111,0 10.35111,0 0,-24.61886 z m 17.34511,0 0,-24.61886 -8.39279,0 -8.3928,0 0,24.61886 0,24.61886 8.3928,0 8.39279,0 0,-24.61886 z m 16.78558,0 0,-24.61886 -8.11303,0 -8.11303,0 0,24.61886 0,24.61886 8.11303,0 8.11303,0 0,-24.61886 z m -809.624947,-49.79722 0,-24.61887 -10.07136,0 -10.0713514,0 0,24.61887 0,24.61884 10.0713514,0 10.07136,0 0,-24.61884 z m 90.082657,0 0,-24.61887 -44.761563,0 -44.761575,0 0,24.61887 0,24.61884 44.761575,0 44.761563,0 0,-24.61884 z m 41.40445,0 0,-24.61887 -20.42246,0 -20.42247,0 0,24.61887 0,24.61884 20.42247,0 20.42246,0 0,-24.61884 z m 19.02367,0 0,-24.61887 -9.23208,0 -9.23207,0 0,24.61887 0,24.61884 9.23207,0 9.23208,0 0,-24.61884 z m 19.02367,0 0,-24.61887 -9.23207,0 -9.23208,0 0,24.61887 0,24.61884 9.23208,0 9.23207,0 0,-24.61884 z m 19.02366,0 0,-24.61887 -9.23207,0 -9.23207,0 0,24.61887 0,24.61884 9.23207,0 9.23207,0 0,-24.61884 z m 19.02367,0 0,-24.61887 -9.23207,0 -9.23208,0 0,24.61887 0,24.61884 9.23208,0 9.23207,0 0,-24.61884 z m 19.02367,0 0,-24.61887 -9.23207,0 -9.23208,0 0,24.61887 0,24.61884 9.23208,0 9.23207,0 0,-24.61884 z m 19.02367,0 0,-24.61887 -9.23208,0 -9.23207,0 0,24.61887 0,24.61884 9.23207,0 9.23208,0 0,-24.61884 z m 19.58319,0 0,-24.61887 -9.51184,0 -9.51183,0 0,24.61887 0,24.61884 9.51183,0 9.51184,0 0,-24.61884 z m 19.02366,0 0,-24.61887 -9.23207,0 -9.23208,0 0,24.61887 0,24.61884 9.23208,0 9.23207,0 0,-24.61884 z m 19.02367,0 0,-24.61887 -9.23207,0 -9.23208,0 0,24.61887 0,24.61884 9.23208,0 9.23207,0 0,-24.61884 z m 21.26174,0 0,-24.61887 -10.35111,0 -10.35111,0 0,24.61887 0,24.61884 10.35111,0 10.35111,0 0,-24.61884 z m 21.26175,0 0,-24.61887 -10.35111,0 -10.35112,0 0,24.61887 0,24.61884 10.35112,0 10.35111,0 0,-24.61884 z m 21.82127,0 0,-24.61887 -10.63087,0 -10.63088,0 0,24.61887 0,24.61884 10.63088,0 10.63087,0 0,-24.61884 z m 21.26175,0 0,-24.61887 -10.35112,0 -10.35111,0 0,24.61887 0,24.61884 10.35111,0 10.35112,0 0,-24.61884 z m 21.82126,0 0,-24.61887 -10.63087,0 -10.63087,0 0,24.61887 0,24.61884 10.63087,0 10.63087,0 0,-24.61884 z m 21.26176,0 0,-24.61887 -10.35112,0 -10.35112,0 0,24.61887 0,24.61884 10.35112,0 10.35112,0 0,-24.61884 z m 21.26175,0 0,-24.61887 -10.35112,0 -10.35111,0 0,24.61887 0,24.61884 10.35111,0 10.35112,0 0,-24.61884 z m 21.82127,0 0,-24.61887 -10.63088,0 -10.63087,0 0,24.61887 0,24.61884 10.63087,0 10.63088,0 0,-24.61884 z m 21.26174,0 0,-24.61887 -10.35111,0 -10.35111,0 0,24.61887 0,24.61884 10.35111,0 10.35111,0 0,-24.61884 z m 21.82126,0 0,-24.61887 -10.63087,0 -10.63087,0 0,24.61887 0,24.61884 10.63087,0 10.63087,0 0,-24.61884 z m 21.26175,0 0,-24.61887 -10.35111,0 -10.35112,0 0,24.61887 0,24.61884 10.35112,0 10.35111,0 0,-24.61884 z m 21.26174,0 0,-24.61887 -10.35111,0 -10.35111,0 0,24.61887 0,24.61884 10.35111,0 10.35111,0 0,-24.61884 z m 21.82126,0 0,-24.61887 -10.63087,0 -10.63087,0 0,24.61887 0,24.61884 10.63087,0 10.63087,0 0,-24.61884 z m 21.26174,0 0,-24.61887 -10.35111,0 -10.35111,0 0,24.61887 0,24.61884 10.35111,0 10.35111,0 0,-24.61884 z m 21.82126,0 0,-24.61887 -10.63087,0 -10.63087,0 0,24.61887 0,24.61884 10.63087,0 10.63087,0 0,-24.61884 z m 21.26175,0 0,-24.61887 -10.35112,0 -10.35111,0 0,24.61887 0,24.61884 10.35111,0 10.35112,0 0,-24.61884 z m 21.26175,0 0,-24.61887 -10.35112,0 -10.35111,0 0,24.61887 0,24.61884 10.35111,0 10.35112,0 0,-24.61884 z m 21.82126,0 0,-24.61887 -10.63087,0 -10.63087,0 0,24.61887 0,24.61884 10.63087,0 10.63087,0 0,-24.61884 z m 21.2617,0 0,-24.61887 -10.35107,0 -10.35111,0 0,24.61887 0,24.61884 10.35111,0 10.35107,0 0,-24.61884 z m 21.8213,0 0,-24.61887 -10.63087,0 -10.63091,0 0,24.61887 0,24.61884 10.63091,0 10.63087,0 0,-24.61884 z m 21.26182,0 0,-24.61887 -10.35111,0 -10.35119,0 0,24.61887 0,24.61884 10.35119,0 10.35111,0 0,-24.61884 z m 21.26174,0 0,-24.61887 -10.35111,0 -10.35111,0 0,24.61887 0,24.61884 10.35111,0 10.35111,0 0,-24.61884 z m 17.34511,0 0,-24.61887 -8.39279,0 -8.3928,0 0,24.61887 0,24.61884 8.3928,0 8.39279,0 0,-24.61884 z m 16.78558,0 0,-24.61887 -8.11303,0 -8.11303,0 0,24.61887 0,24.61884 8.11303,0 8.11303,0 0,-24.61884 z m -809.624947,-49.51749 0,-24.33911 -10.07136,0 -10.0713514,0 0,24.33911 0,24.3391 10.0713514,0 10.07136,0 0,-24.3391 z m 90.082657,0 0,-24.33911 -44.761563,0 -44.761575,0 0,24.33911 0,24.3391 44.761575,0 44.761563,0 0,-24.3391 z m 41.40445,0 0,-24.33911 -20.42246,0 -20.42247,0 0,24.33911 0,24.3391 20.42247,0 20.42246,0 0,-24.3391 z m 19.02367,0 0,-24.33911 -9.23208,0 -9.23207,0 0,24.33911 0,24.3391 9.23207,0 9.23208,0 0,-24.3391 z m 19.02367,0 0,-24.33911 -9.23207,0 -9.23208,0 0,24.33911 0,24.3391 9.23208,0 9.23207,0 0,-24.3391 z m 19.02366,0 0,-24.33911 -9.23207,0 -9.23207,0 0,24.33911 0,24.3391 9.23207,0 9.23207,0 0,-24.3391 z m 19.02367,0 0,-24.33911 -9.23207,0 -9.23208,0 0,24.33911 0,24.3391 9.23208,0 9.23207,0 0,-24.3391 z m 19.02367,0 0,-24.33911 -9.23207,0 -9.23208,0 0,24.33911 0,24.3391 9.23208,0 9.23207,0 0,-24.3391 z m 19.02367,0 0,-24.33911 -9.23208,0 -9.23207,0 0,24.33911 0,24.3391 9.23207,0 9.23208,0 0,-24.3391 z m 19.58319,0 0,-24.33911 -9.51184,0 -9.51183,0 0,24.33911 0,24.3391 9.51183,0 9.51184,0 0,-24.3391 z m 19.02366,0 0,-24.33911 -9.23207,0 -9.23208,0 0,24.33911 0,24.3391 9.23208,0 9.23207,0 0,-24.3391 z m 19.02367,0 0,-24.33911 -9.23207,0 -9.23208,0 0,24.33911 0,24.3391 9.23208,0 9.23207,0 0,-24.3391 z m 21.26174,0 0,-24.33911 -10.35111,0 -10.35111,0 0,24.33911 0,24.3391 10.35111,0 10.35111,0 0,-24.3391 z m 21.26175,0 0,-24.33911 -10.35111,0 -10.35112,0 0,24.33911 0,24.3391 10.35112,0 10.35111,0 0,-24.3391 z m 21.82127,0 0,-24.33911 -10.63087,0 -10.63088,0 0,24.33911 0,24.3391 10.63088,0 10.63087,0 0,-24.3391 z m 21.26175,0 0,-24.33911 -10.35112,0 -10.35111,0 0,24.33911 0,24.3391 10.35111,0 10.35112,0 0,-24.3391 z m 21.82126,0 0,-24.33911 -10.63087,0 -10.63087,0 0,24.33911 0,24.3391 10.63087,0 10.63087,0 0,-24.3391 z m 21.26176,0 0,-24.33911 -10.35112,0 -10.35112,0 0,24.33911 0,24.3391 10.35112,0 10.35112,0 0,-24.3391 z m 21.26175,0 0,-24.33911 -10.35112,0 -10.35111,0 0,24.33911 0,24.3391 10.35111,0 10.35112,0 0,-24.3391 z m 21.82127,0 0,-24.33911 -10.63088,0 -10.63087,0 0,24.33911 0,24.3391 10.63087,0 10.63088,0 0,-24.3391 z m 21.26174,0 0,-24.33911 -10.35111,0 -10.35111,0 0,24.33911 0,24.3391 10.35111,0 10.35111,0 0,-24.3391 z m 21.82126,0 0,-24.33911 -10.63087,0 -10.63087,0 0,24.33911 0,24.3391 10.63087,0 10.63087,0 0,-24.3391 z m 21.26175,0 0,-24.33911 -10.35111,0 -10.35112,0 0,24.33911 0,24.3391 10.35112,0 10.35111,0 0,-24.3391 z m 21.26174,0 0,-24.33911 -10.35111,0 -10.35111,0 0,24.33911 0,24.3391 10.35111,0 10.35111,0 0,-24.3391 z m 21.82126,0 0,-24.33911 -10.63087,0 -10.63087,0 0,24.33911 0,24.3391 10.63087,0 10.63087,0 0,-24.3391 z m 21.26174,0 0,-24.33911 -10.35111,0 -10.35111,0 0,24.33911 0,24.3391 10.35111,0 10.35111,0 0,-24.3391 z m 21.82126,0 0,-24.33911 -10.63087,0 -10.63087,0 0,24.33911 0,24.3391 10.63087,0 10.63087,0 0,-24.3391 z m 21.26175,0 0,-24.33911 -10.35112,0 -10.35111,0 0,24.33911 0,24.3391 10.35111,0 10.35112,0 0,-24.3391 z m 21.26175,0 0,-24.33911 -10.35112,0 -10.35111,0 0,24.33911 0,24.3391 10.35111,0 10.35112,0 0,-24.3391 z m 21.82126,0 0,-24.33911 -10.63087,0 -10.63087,0 0,24.33911 0,24.3391 10.63087,0 10.63087,0 0,-24.3391 z m 21.2617,0 0,-24.33911 -10.35107,0 -10.35111,0 0,24.33911 0,24.3391 10.35111,0 10.35107,0 0,-24.3391 z m 21.8213,0 0,-24.33911 -10.63087,0 -10.63091,0 0,24.33911 0,24.3391 10.63091,0 10.63087,0 0,-24.3391 z m 21.26182,0 0,-24.33911 -10.35111,0 -10.35119,0 0,24.33911 0,24.3391 10.35119,0 10.35111,0 0,-24.3391 z m 21.26174,0 0,-24.33911 -10.35111,0 -10.35111,0 0,24.33911 0,24.3391 10.35111,0 10.35111,0 0,-24.3391 z m 17.34511,0 0,-24.33911 -8.39279,0 -8.3928,0 0,24.33911 0,24.3391 8.3928,0 8.39279,0 0,-24.3391 z m 16.78558,0 0,-24.33911 -8.11303,0 -8.11303,0 0,24.33911 0,24.3391 8.11303,0 8.11303,0 0,-24.3391 z M 27.526043,102.854 l 0,-24.618857 -10.07136,0 -10.0713514,0 0,24.618857 0,24.61886 10.0713514,0 10.07136,0 0,-24.61886 z m 90.082657,0 0,-24.618857 -44.761563,0 -44.761575,0 0,24.618857 0,24.61886 44.761575,0 44.761563,0 0,-24.61886 z m 41.40445,0 0,-24.618857 -20.42246,0 -20.42247,0 0,24.618857 0,24.61886 20.42247,0 20.42246,0 0,-24.61886 z m 19.02367,0 0,-24.618857 -9.23208,0 -9.23207,0 0,24.618857 0,24.61886 9.23207,0 9.23208,0 0,-24.61886 z m 19.02367,0 0,-24.618857 -9.23207,0 -9.23208,0 0,24.618857 0,24.61886 9.23208,0 9.23207,0 0,-24.61886 z m 19.02366,0 0,-24.618857 -9.23207,0 -9.23207,0 0,24.618857 0,24.61886 9.23207,0 9.23207,0 0,-24.61886 z m 19.02367,0 0,-24.618857 -9.23207,0 -9.23208,0 0,24.618857 0,24.61886 9.23208,0 9.23207,0 0,-24.61886 z m 19.02367,0 0,-24.618857 -9.23207,0 -9.23208,0 0,24.618857 0,24.61886 9.23208,0 9.23207,0 0,-24.61886 z m 19.02367,0 0,-24.618857 -9.23208,0 -9.23207,0 0,24.618857 0,24.61886 9.23207,0 9.23208,0 0,-24.61886 z m 19.58319,0 0,-24.618857 -9.51184,0 -9.51183,0 0,24.618857 0,24.61886 9.51183,0 9.51184,0 0,-24.61886 z m 19.02366,0 0,-24.618857 -9.23207,0 -9.23208,0 0,24.618857 0,24.61886 9.23208,0 9.23207,0 0,-24.61886 z m 19.02367,0 0,-24.618857 -9.23207,0 -9.23208,0 0,24.618857 0,24.61886 9.23208,0 9.23207,0 0,-24.61886 z m 21.26174,0 0,-24.618857 -10.35111,0 -10.35111,0 0,24.618857 0,24.61886 10.35111,0 10.35111,0 0,-24.61886 z m 21.26175,0 0,-24.618857 -10.35111,0 -10.35112,0 0,24.618857 0,24.61886 10.35112,0 10.35111,0 0,-24.61886 z m 21.82127,0 0,-24.618857 -10.63087,0 -10.63088,0 0,24.618857 0,24.61886 10.63088,0 10.63087,0 0,-24.61886 z m 21.26175,0 0,-24.618857 -10.35112,0 -10.35111,0 0,24.618857 0,24.61886 10.35111,0 10.35112,0 0,-24.61886 z m 21.82126,0 0,-24.618857 -10.63087,0 -10.63087,0 0,24.618857 0,24.61886 10.63087,0 10.63087,0 0,-24.61886 z m 21.26176,0 0,-24.618857 -10.35112,0 -10.35112,0 0,24.618857 0,24.61886 10.35112,0 10.35112,0 0,-24.61886 z m 21.26175,0 0,-24.618857 -10.35112,0 -10.35111,0 0,24.618857 0,24.61886 10.35111,0 10.35112,0 0,-24.61886 z m 21.82127,0 0,-24.618857 -10.63088,0 -10.63087,0 0,24.618857 0,24.61886 10.63087,0 10.63088,0 0,-24.61886 z m 21.26174,0 0,-24.618857 -10.35111,0 -10.35111,0 0,24.618857 0,24.61886 10.35111,0 10.35111,0 0,-24.61886 z m 21.82126,0 0,-24.618857 -10.63087,0 -10.63087,0 0,24.618857 0,24.61886 10.63087,0 10.63087,0 0,-24.61886 z m 21.26175,0 0,-24.618857 -10.35111,0 -10.35112,0 0,24.618857 0,24.61886 10.35112,0 10.35111,0 0,-24.61886 z m 21.26174,0 0,-24.618857 -10.35111,0 -10.35111,0 0,24.618857 0,24.61886 10.35111,0 10.35111,0 0,-24.61886 z m 21.82126,0 0,-24.618857 -10.63087,0 -10.63087,0 0,24.618857 0,24.61886 10.63087,0 10.63087,0 0,-24.61886 z m 21.26174,0 0,-24.618857 -10.35111,0 -10.35111,0 0,24.618857 0,24.61886 10.35111,0 10.35111,0 0,-24.61886 z m 21.82126,0 0,-24.618857 -10.63087,0 -10.63087,0 0,24.618857 0,24.61886 10.63087,0 10.63087,0 0,-24.61886 z m 21.26175,0 0,-24.618857 -10.35112,0 -10.35111,0 0,24.618857 0,24.61886 10.35111,0 10.35112,0 0,-24.61886 z m 21.26175,0 0,-24.618857 -10.35112,0 -10.35111,0 0,24.618857 0,24.61886 10.35111,0 10.35112,0 0,-24.61886 z m 21.82126,0 0,-24.618857 -10.63087,0 -10.63087,0 0,24.618857 0,24.61886 10.63087,0 10.63087,0 0,-24.61886 z m 21.2617,0 0,-24.618857 -10.35107,0 -10.35111,0 0,24.618857 0,24.61886 10.35111,0 10.35107,0 0,-24.61886 z m 21.8213,0 0,-24.618857 -10.63087,0 -10.63091,0 0,24.618857 0,24.61886 10.63091,0 10.63087,0 0,-24.61886 z m 21.26182,0 0,-24.618857 -10.35111,0 -10.35119,0 0,24.618857 0,24.61886 10.35119,0 10.35111,0 0,-24.61886 z m 21.26174,0 0,-24.618857 -10.35111,0 -10.35111,0 0,24.618857 0,24.61886 10.35111,0 10.35111,0 0,-24.61886 z m 17.34511,0 0,-24.618857 -8.39279,0 -8.3928,0 0,24.618857 0,24.61886 8.3928,0 8.39279,0 0,-24.61886 z m 16.78558,0 0,-24.618857 -8.11303,0 -8.11303,0 0,24.618857 0,24.61886 8.11303,0 8.11303,0 0,-24.61886 z" />
      </g>
      <g
         id="g3049"
         transform="translate(-432.64,-7.04)">
        <path
           id="path3037"
           transform="matrix(0.80000001,0,0,0.80000001,-9.1964277e-7,0)"
           d="m 1566.9375,67.3125 0,0.6875 9.7813,0 10.4687,0 0,19.25 0,19.21875 -10.4687,0 -9.7813,0 0,0.6875 9.7813,0 10.4687,0 0,30.4375 0,30.4375 -10.4687,0 -9.7813,0 0,0.6875 9.7813,0 10.4687,0 0,30.78125 0,30.75 -10.4687,0 -9.7813,0 0,0.71875 9.7813,0 10.4687,0 0,30.78125 0,30.75 -10.4687,0 -9.7813,0 0,0.71875 9.7813,0 10.4687,0 0,30.78125 0,30.75 -10.4687,0 -9.7813,0 0,0.71875 9.7813,0 10.4687,0 0,30.40625 0,30.4375 -10.4687,0 -9.7813,0 0,0.6875 9.7813,0 10.4687,0 0,30.78125 0,30.78125 -10.4687,0 -9.7813,0 0,0.6875 9.7813,0 10.4687,0 0,30.78125 0,30.78125 -10.4687,0 -9.7813,0 0,0.6875 9.7813,0 10.4687,0 0,30.40625 0,30.4375 -10.4687,0 -9.7813,0 0,0.6875 9.7813,0 10.4687,0 0,30.78125 0,30.78125 -10.4687,0 -9.7813,0 0,0.6875 9.7813,0 10.4062,0 0.2812,9.9375 0.2188,10 0.125,-10 0.1562,-9.9375 10.125,0 10.0938,0 0.2812,9.9375 c 0.07,5.52525 0.2738,-73.92189 0.3438,-176.59375 0.07,-123.79369 0.3541,-186.53125 0.8438,-186.53125 0.4196,0 0.6874,-3.63249 0.6874,-9.4375 0,-5.80501 -0.2678,-9.4375 -0.6874,-9.4375 -0.4897,0 -0.7188,-38.13301 -0.7188,-112.96875 l 0,-112.9375 -41.9375,0 z m 20.9687,0.6875 10.125,0 10.1563,0 0,19.25 0,19.21875 -10.1563,0 -10.125,0 0,-19.21875 0,-19.25 z m 0,39.15625 10.125,0 10.1563,0 0,30.4375 0,30.4375 -10.1563,0 -10.125,0 0,-30.4375 0,-30.4375 z m 0,61.5625 10.125,0 10.1563,0 0,30.78125 0,30.75 -10.1563,0 -10.125,0 0,-30.75 0,-30.78125 z m 0,62.25 10.125,0 10.1563,0 0,30.78125 0,30.75 -10.1563,0 -10.125,0 0,-30.75 0,-30.78125 z m 0,62.25 10.125,0 10.1563,0 0,30.78125 0,30.75 -10.1563,0 -10.125,0 0,-30.75 0,-30.78125 z m 0,62.25 10.125,0 10.1563,0 0,30.40625 0,30.4375 -10.1563,0 -10.125,0 0,-30.4375 0,-30.40625 z m 0,61.53125 10.125,0 10.1563,0 0,30.78125 0,30.78125 -10.1563,0 -10.125,0 0,-30.78125 0,-30.78125 z m 0,62.25 10.125,0 10.1563,0 0,30.78125 0,30.78125 -10.1563,0 -10.125,0 0,-30.78125 0,-30.78125 z m 0,62.25 10.125,0 10.1563,0 0,30.40625 0,30.4375 -10.1563,0 -10.125,0 0,-30.4375 0,-30.40625 z m 0,61.53125 10.125,0 10.1563,0 0,30.78125 0,30.78125 -10.1563,0 -10.125,0 0,-30.78125 0,-30.78125 z"
           style="fill:#000000;stroke:none"
           inkscape:connector-curvature="0" />
        <path
           id="path3039"
           transform="matrix(0.80000001,0,0,0.80000001,-9.1964277e-7,0)"
           d="m 1587.625,86.21875 -0.2188,10 -0.2812,9.9375 -10.4062,0 -9.7813,0 0,0.6875 9.7813,0 10.4687,0 0,30.78125 0,30.78125 -10.4687,0 -9.7813,0 0,0.6875 9.7813,0 10.4687,0 0,30.40625 0,30.4375 -10.4687,0 -9.7813,0 0,0.6875 9.7813,0 10.4687,0 0,30.78125 0,30.78125 -10.4687,0 -9.7813,0 0,0.6875 9.7813,0 10.4687,0 0,30.78125 0,30.78125 -10.4687,0 -9.7813,0 0,0.6875 9.7813,0 10.4687,0 0,30.4375 0,30.40625 -10.4687,0 -9.7813,0 0,0.71875 9.7813,0 10.4687,0 0,30.75 0,30.78125 -10.4687,0 -9.7813,0 0,0.71875 9.7813,0 10.4687,0 0,30.75 0,30.78125 -10.4687,0 -9.7813,0 0,0.71875 9.7813,0 10.4687,0 0,30.75 0,30.78125 -10.4687,0 -9.7813,0 0,0.6875 9.7813,0 10.4687,0 0,30.4375 0,30.4375 -10.4687,0 -9.7813,0 0,0.6875 9.7813,0 10.4687,0 0,19.21875 0,19.25 -10.4687,0 -9.7813,0 0,0.6875 41.9375,0 0,-112.9375 c 0,-74.83574 0.2291,-112.96875 0.7188,-112.96875 0.4196,0 0.6874,-3.63249 0.6874,-9.4375 0,-5.80501 -0.2678,-9.4375 -0.6874,-9.4375 -0.4897,0 -0.7738,-62.73756 -0.8438,-186.53125 -0.07,-102.67186 -0.2738,-182.118999 -0.3438,-176.59375 l -0.2812,9.9375 -10.0938,0 -10.125,0 -0.1562,-9.9375 -0.125,-10 z m 0.2812,20.625 10.125,0 10.1563,0 0,30.78125 0,30.78125 -10.1563,0 -10.125,0 0,-30.78125 0,-30.78125 z m 0,62.25 10.125,0 10.1563,0 0,30.40625 0,30.4375 -10.1563,0 -10.125,0 0,-30.4375 0,-30.40625 z m 0,61.53125 10.125,0 10.1563,0 0,30.78125 0,30.78125 -10.1563,0 -10.125,0 0,-30.78125 0,-30.78125 z m 0,62.25 10.125,0 10.1563,0 0,30.78125 0,30.78125 -10.1563,0 -10.125,0 0,-30.78125 0,-30.78125 z m 0,62.25 10.125,0 10.1563,0 0,30.4375 0,30.40625 -10.1563,0 -10.125,0 0,-30.40625 0,-30.4375 z m 0,61.5625 10.125,0 10.1563,0 0,30.75 0,30.78125 -10.1563,0 -10.125,0 0,-30.78125 0,-30.75 z m 0,62.25 10.125,0 10.1563,0 0,30.75 0,30.78125 -10.1563,0 -10.125,0 0,-30.78125 0,-30.75 z m 0,62.25 10.125,0 10.1563,0 0,30.75 0,30.78125 -10.1563,0 -10.125,0 0,-30.78125 0,-30.75 z m 0,62.21875 10.125,0 10.1563,0 0,30.4375 0,30.4375 -10.1563,0 -10.125,0 0,-30.4375 0,-30.4375 z m 0,61.5625 10.125,0 10.1563,0 0,19.21875 0,19.25 -10.1563,0 -10.125,0 0,-19.25 0,-19.21875 z"
           style="fill:#000000;stroke:none"
           inkscape:connector-curvature="0" />
      </g>
    </g>
    <flowRoot
       transform="matrix(0.80000001,0,0,0.80000001,-9.1964277e-7,9.6)"
       style="font-size:22px;font-style:normal;font-weight:normal;line-height:125%;letter-spacing:0px;word-spacing:0px;fill:#000000;fill-opacity:1;stroke:none;font-family:Sans"
       id="flowRoot3061"
       xml:space="preserve"><flowRegion
         id="flowRegion3063"><rect
           style="font-size:22px"
           y="67.534714"
           x="5.6568542"
           height="45.254833"
           width="978.6358"
           id="rect3065" /></flowRegion><flowPara
         style="font-size:18px"
         id="flowPara3067"> №       Ф.И.О                 1   2   3   4  5   6  7   8   9  10 11 12 13 14  15 16 17 18  19  20 21 22 23 24  25 26 27  29 30 31</flowPara></flowRoot>    <text
       transform="matrix(0.80000001,0,0,0.80000001,-9.1964277e-7,0)"
       sodipodi:linespacing="125%"
       id="text3069"
       y="72.060196"
       x="121.05668"
       style="font-size:40px;font-style:normal;font-weight:normal;line-height:125%;letter-spacing:0px;word-spacing:0px;fill:#000000;fill-opacity:1;stroke:none;font-family:Sans"
       xml:space="preserve"><tspan
         y="72.060196"
         x="121.05668"
         id="tspan3071"
         sodipodi:role="line"> </tspan></text>
    <g
       transform="matrix(0.80000001,0,0,0.80000001,280.74101,16.366726)"
       id="g3077">
      <text
         xml:space="preserve"
         x="0"
         y="20.424282"
         style="font-size:19.14788437px;font-style:normal;font-weight:normal;text-align:start;text-anchor:start;fill:#000000;font-family:Times New Roman"
         id="text3079">Табель учёта </text>
      <text
         xml:space="preserve"
         x="111.05772"
         y="20.424282"
         style="font-size:19.14788437px;font-style:normal;font-weight:normal;text-align:start;text-anchor:start;fill:#000000;font-family:Times New Roman"
         id="text3081">использования</text>
      <text
         xml:space="preserve"
         x="231.56174"
         y="20.424282"
         style="font-size:19.14788437px;font-style:normal;font-weight:normal;text-align:start;text-anchor:start;fill:#000000;font-family:Times New Roman"
         id="text3083"> времени</text>
      <text
         xml:space="preserve"
         x="304.70667"
         y="20.424282"
         style="font-size:19.14788437px;font-style:normal;font-weight:normal;text-align:start;text-anchor:start;fill:#000000;font-family:Times New Roman"
         id="text3085"> </text>
      <text
         xml:space="preserve"
         x="338.91754"
         y="20.424282"
         style="font-size:19.14788437px;font-style:normal;font-weight:normal;text-align:start;text-anchor:start;fill:#000000;font-family:Times New Roman"
         id="text3087">За__________20__г.</text>
      <text
         xml:space="preserve"
         x="503.84464"
         y="20.424282"
         style="font-size:10.59516239px;font-style:normal;font-weight:normal;text-align:start;text-anchor:start;fill:#000000;font-family:Times New Roman"
         id="text3089"> </text>
    </g>
    <text
       sodipodi:linespacing="125%"
       id="text3102"
       y="39.546223"
       x="91.414772"
       style="font-size:32px;font-style:normal;font-weight:normal;line-height:125%;letter-spacing:0px;word-spacing:0px;fill:#000000;fill-opacity:1;stroke:none;font-family:Sans"
       xml:space="preserve"><tspan
         style="font-size:12.80000019px;font-family:Segoe Script;-inkscape-font-specification:Segoe Script"
         y="39.546223"
         x="91.414772"
         id="tspan3104"
         sodipodi:role="line">Центр здоровья</tspan></text>
    <rect
       transform="matrix(0.80000001,0,0,0.80000001,-9.1964277e-7,0)"
       y="695.44556"
       x="-56.568542"
       height="26.02153"
       width="100.69201"
       id="rect3106"
       style="fill:#ffffff;fill-opacity:1;fill-rule:evenodd;stroke:none" />
    <rect
       style="fill:#ffffff;fill-opacity:1;fill-rule:evenodd;stroke:none"
       id="rect3108"
       width="80.553612"
       height="20.817225"
       x="-47.065029"
       y="35.505466" />
    <text
       transform="matrix(0.80000001,0,0,0.80000001,-9.1964277e-7,0)"
       sodipodi:linespacing="125%"
       id="text3110"
       y="725.99255"
       x="30.547012"
       style="font-size:24px;font-style:normal;font-weight:normal;line-height:125%;letter-spacing:0px;word-spacing:0px;fill:#000000;fill-opacity:1;stroke:none;font-family:Sans"
       xml:space="preserve"><tspan
         y="725.99255"
         x="30.547012"
         id="tspan3112"
         sodipodi:role="line">Заведующая Ц.З.___________</tspan></text>
    <text
       sodipodi:linespacing="125%"
       id="text3114"
       y="578.07874"
       x="626.3269"
       style="font-size:16px;font-style:normal;font-weight:normal;line-height:125%;letter-spacing:0px;word-spacing:0px;fill:#000000;fill-opacity:1;stroke:none;font-family:Sans"
       xml:space="preserve"><tspan
         y="578.07874"
         x="626.3269"
         id="tspan3116"
         sodipodi:role="line">Табельщик___________</tspan></text>
  </g>
</svg>
