<?xml version="1.0" encoding="UTF-8" standalone="no"?>
<!-- Created with Inkscape (http://www.inkscape.org/) -->

<svg
   xmlns:dc="http://purl.org/dc/elements/1.1/"
   xmlns:cc="http://creativecommons.org/ns#"
   xmlns:rdf="http://www.w3.org/1999/02/22-rdf-syntax-ns#"
   xmlns:svg="http://www.w3.org/2000/svg"
   xmlns="http://www.w3.org/2000/svg"
   xmlns:xlink="http://www.w3.org/1999/xlink"
   xmlns:sodipodi="http://sodipodi.sourceforge.net/DTD/sodipodi-0.dtd"
   xmlns:inkscape="http://www.inkscape.org/namespaces/inkscape"
   width="1920"
   height="1080"
   id="svg11630"
   version="1.1"
   inkscape:version="0.48.5 r10040"
   sodipodi:docname="bear.svg"
   inkscape:export-filename="C:\Users\Максим\Documents\GitHub\UI-UX\Pictures\animal\bear.png"
   inkscape:export-xdpi="90"
   inkscape:export-ydpi="90">
  <defs
     id="defs11632">
    <filter
       color-interpolation-filters="sRGB"
       inkscape:collect="always"
       id="filter5383">
      <feGaussianBlur
         inkscape:collect="always"
         stdDeviation="2.4873778"
         id="feGaussianBlur5385" />
    </filter>
    <linearGradient
       inkscape:collect="always"
       xlink:href="#linearGradient5264"
       id="linearGradient11469"
       gradientUnits="userSpaceOnUse"
       gradientTransform="matrix(0.60944825,0,0,0.52047743,182.31937,97.042308)"
       x1="310.72882"
       y1="716.16754"
       x2="311.25723"
       y2="631.46857" />
    <linearGradient
       inkscape:collect="always"
       id="linearGradient5264">
      <stop
         style="stop-color:#ffffff;stop-opacity:1;"
         offset="0"
         id="stop5266" />
      <stop
         style="stop-color:#ffffff;stop-opacity:0;"
         offset="1"
         id="stop5268" />
    </linearGradient>
    <filter
       color-interpolation-filters="sRGB"
       inkscape:collect="always"
       id="filter5403">
      <feGaussianBlur
         inkscape:collect="always"
         stdDeviation="0.59499632"
         id="feGaussianBlur5405" />
    </filter>
    <filter
       color-interpolation-filters="sRGB"
       inkscape:collect="always"
       id="filter5305">
      <feGaussianBlur
         inkscape:collect="always"
         stdDeviation="1.5466471"
         id="feGaussianBlur5307" />
    </filter>
    <filter
       color-interpolation-filters="sRGB"
       inkscape:collect="always"
       id="filter5301"
       x="-0.13116682"
       width="1.2623336"
       y="-0.094612122"
       height="1.1892242">
      <feGaussianBlur
         inkscape:collect="always"
         stdDeviation="3.2665494"
         id="feGaussianBlur5303" />
    </filter>
    <linearGradient
       inkscape:collect="always"
       xlink:href="#linearGradient5264"
       id="linearGradient11471"
       gradientUnits="userSpaceOnUse"
       gradientTransform="matrix(0.60944825,0,0,0.52047743,182.31937,97.042308)"
       x1="310.72882"
       y1="716.16754"
       x2="309.22992"
       y2="653.48737" />
    <filter
       color-interpolation-filters="sRGB"
       inkscape:collect="always"
       id="filter5277">
      <feGaussianBlur
         inkscape:collect="always"
         stdDeviation="0.43245103"
         id="feGaussianBlur5279" />
    </filter>
    <linearGradient
       inkscape:collect="always"
       xlink:href="#linearGradient5264"
       id="linearGradient11463"
       gradientUnits="userSpaceOnUse"
       gradientTransform="matrix(0.60944825,0,0,0.52047743,182.31937,97.042308)"
       x1="310.72882"
       y1="716.16754"
       x2="311.25723"
       y2="631.46857" />
    <linearGradient
       inkscape:collect="always"
       xlink:href="#linearGradient5264"
       id="linearGradient11465"
       gradientUnits="userSpaceOnUse"
       gradientTransform="matrix(0.60944825,0,0,0.52047743,182.31937,97.042308)"
       x1="310.72882"
       y1="716.16754"
       x2="309.22992"
       y2="653.48737" />
  </defs>
  <sodipodi:namedview
     id="base"
     pagecolor="#ffffff"
     bordercolor="#666666"
     borderopacity="1.0"
     inkscape:pageopacity="0.0"
     inkscape:pageshadow="2"
     inkscape:zoom="0.35"
     inkscape:cx="281.72639"
     inkscape:cy="429.3296"
     inkscape:document-units="px"
     inkscape:current-layer="layer1"
     showgrid="false"
     inkscape:window-width="1920"
     inkscape:window-height="1057"
     inkscape:window-x="-8"
     inkscape:window-y="-8"
     inkscape:window-maximized="1"
     fit-margin-top="0"
     fit-margin-left="0"
     fit-margin-right="0"
     fit-margin-bottom="0" />
  <metadata
     id="metadata11635">
    <rdf:RDF>
      <cc:Work
         rdf:about="">
        <dc:format>image/svg+xml</dc:format>
        <dc:type
           rdf:resource="http://purl.org/dc/dcmitype/StillImage" />
        <dc:title></dc:title>
      </cc:Work>
    </rdf:RDF>
  </metadata>
  <g
     inkscape:label="Layer 1"
     inkscape:groupmode="layer"
     id="layer1"
     transform="translate(-43.273608,118.30824)">
    <rect
       style="fill:#800080;fill-opacity:1;stroke:none"
       id="rect3034"
       width="1924.9873"
       height="1082.8572"
       x="40.41647"
       y="-118.30823" />
    <g
       id="g3036"
       transform="translate(651.42857,-125.71429)">
      <path
         transform="matrix(3.4898414,0,0,3.3990937,182.41043,502.06738)"
         d="m 132.19745,-9.7531328 c 0,37.3895288 -37.682957,67.6997298 -84.167238,67.6997298 -46.4842807,0 -84.167236,-30.310201 -84.167236,-67.6997298 0,-37.3895282 37.6829553,-67.6997302 84.167236,-67.6997302 46.484281,0 84.167238,30.310202 84.167238,67.6997302 z"
         sodipodi:ry="67.69973"
         sodipodi:rx="84.167236"
         sodipodi:cy="-9.7531328"
         sodipodi:cx="48.030212"
         id="path9897-5"
         style="color:#000000;fill:#550000;fill-opacity:1;fill-rule:nonzero;stroke:none;stroke-width:4.71702814;marker:none;visibility:visible;display:inline;overflow:visible;enable-background:accumulate"
         sodipodi:type="arc" />
      <path
         transform="matrix(-6.2616914,0,0,6.2616914,908.63022,593.97825)"
         d="m 72.274036,-47.719872 c 0,9.600014 -7.782348,17.382363 -17.382362,17.382363 -9.600014,0 -17.382362,-7.782349 -17.382362,-17.382363 0,-9.600013 7.782348,-17.382362 17.382362,-17.382362 9.600014,0 17.382362,7.782349 17.382362,17.382362 z"
         sodipodi:ry="17.382362"
         sodipodi:rx="17.382362"
         sodipodi:cy="-47.719872"
         sodipodi:cx="54.891674"
         id="path11399"
         style="color:#000000;fill:#550000;fill-opacity:1;fill-rule:nonzero;stroke:none;stroke-width:2.95126557;marker:none;visibility:visible;display:inline;overflow:visible;enable-background:accumulate"
         sodipodi:type="arc" />
      <path
         sodipodi:type="arc"
         style="color:#000000;fill:#ffffff;fill-opacity:1;fill-rule:nonzero;stroke:none;stroke-width:2.95126557;marker:none;visibility:visible;display:inline;overflow:visible;enable-background:accumulate"
         id="path11401"
         sodipodi:cx="54.891674"
         sodipodi:cy="-47.719872"
         sodipodi:rx="17.382362"
         sodipodi:ry="17.382362"
         d="m 72.274036,-47.719872 c 0,9.600014 -7.782348,17.382363 -17.382362,17.382363 -9.600014,0 -17.382362,-7.782349 -17.382362,-17.382363 0,-9.600013 7.782348,-17.382362 17.382362,-17.382362 9.600014,0 17.382362,7.782349 17.382362,17.382362 z"
         transform="matrix(-5.1489014,0,0,5.1489014,847.54723,540.87605)" />
      <path
         sodipodi:type="arc"
         style="color:#000000;fill:#b3b3b3;fill-opacity:1;fill-rule:nonzero;stroke:#800000;stroke-width:0.05;stroke-miterlimit:4;stroke-opacity:1;stroke-dasharray:none;stroke-dashoffset:0;marker:none;visibility:visible;display:inline;overflow:visible;enable-background:accumulate"
         id="path11403"
         sodipodi:cx="59.008549"
         sodipodi:cy="-44.51786"
         sodipodi:rx="10.520905"
         sodipodi:ry="10.520905"
         d="m 69.529453,-44.51786 c 0,5.810535 -4.710369,10.520904 -10.520904,10.520904 -5.810535,0 -10.520905,-4.710369 -10.520905,-10.520904 0,-5.810536 4.71037,-10.520905 10.520905,-10.520905 5.810535,0 10.520904,4.710369 10.520904,10.520905 z"
         transform="matrix(-5.1489014,0,0,5.1489014,847.54731,540.87605)" />
      <path
         sodipodi:type="arc"
         style="color:#000000;fill:#550000;fill-opacity:1;fill-rule:nonzero;stroke:none;stroke-width:2.95126557;marker:none;visibility:visible;display:inline;overflow:visible;enable-background:accumulate"
         id="path11366"
         sodipodi:cx="54.891674"
         sodipodi:cy="-47.719872"
         sodipodi:rx="17.382362"
         sodipodi:ry="17.382362"
         d="m 72.274036,-47.719872 c 0,9.600014 -7.782348,17.382363 -17.382362,17.382363 -9.600014,0 -17.382362,-7.782349 -17.382362,-17.382363 0,-9.600013 7.782348,-17.382362 17.382362,-17.382362 9.600014,0 17.382362,7.782349 17.382362,17.382362 z"
         transform="matrix(6.2616914,0,0,6.2616914,-159.70597,565.70783)" />
      <path
         sodipodi:nodetypes="cssccsscssccsscc"
         inkscape:connector-curvature="0"
         id="path10876"
         d="m 188.41633,644.48483 c 0,0 -98.436256,221.84905 -66.11393,254.17145 32.3224,32.32233 105.78235,38.19915 129.28953,17.63037 23.50718,-20.56877 8.81515,-55.82958 8.81515,-55.82958 37.22304,15.19159 68.45332,12.40522 98.43633,5.87681 0,0 -7.34601,64.64473 20.56885,77.86756 27.91472,13.22276 132.22787,19.09957 139.57389,-23.50718 7.34594,-42.60675 -16.35727,-105.33552 -25.36213,-157.65115 40.2587,1.15746 44.05263,21.6523 74.85659,17.28572 30.85783,-4.37425 76.39836,-44.07595 71.99075,-105.78228 -4.40761,-61.70639 -183.19161,-52.0997 -183.19161,-52.0997 L 161.97082,597.47047 c 0,0 -89.05814,15.42614 -104.313179,33.7916 -19.312509,23.25015 5.387077,121.45376 47.014389,117.53591 28.40114,-2.67309 48.48357,-19.09957 48.48357,-19.09957 z"
         style="fill:#ffffff;fill-opacity:1;stroke:#550000;stroke-width:15.19577599;stroke-linecap:butt;stroke-linejoin:miter;stroke-miterlimit:4;stroke-opacity:1;stroke-dasharray:none" />
      <path
         transform="matrix(9.836025,0,0,8.7340205,-988.71947,-323.21921)"
         d="m 146.90511,121.89661 c 0,6.56677 -6.41796,11.8902 -14.33492,11.8902 -7.91695,0 -14.33491,-5.32343 -14.33491,-11.8902 0,-6.56678 6.41796,-11.89021 14.33491,-11.89021 7.91696,0 14.33492,5.32343 14.33492,11.89021 z"
         sodipodi:ry="11.890202"
         sodipodi:rx="14.334915"
         sodipodi:cy="121.89661"
         sodipodi:cx="132.57019"
         id="path11351"
         style="color:#000000;fill:#ffffff;fill-opacity:1;fill-rule:nonzero;stroke:none;stroke-width:5;marker:none;visibility:visible;display:inline;overflow:visible;enable-background:accumulate"
         sodipodi:type="arc" />
      <path
         transform="matrix(5.1489014,0,0,5.1489014,-98.623025,512.60563)"
         d="m 72.274036,-47.719872 c 0,9.600014 -7.782348,17.382363 -17.382362,17.382363 -9.600014,0 -17.382362,-7.782349 -17.382362,-17.382363 0,-9.600013 7.782348,-17.382362 17.382362,-17.382362 9.600014,0 17.382362,7.782349 17.382362,17.382362 z"
         sodipodi:ry="17.382362"
         sodipodi:rx="17.382362"
         sodipodi:cy="-47.719872"
         sodipodi:cx="54.891674"
         id="path10864"
         style="color:#000000;fill:#ffffff;fill-opacity:1;fill-rule:nonzero;stroke:none;stroke-width:2.95126557;marker:none;visibility:visible;display:inline;overflow:visible;enable-background:accumulate"
         sodipodi:type="arc" />
      <path
         transform="matrix(5.1489014,0,0,5.1489014,-98.623062,512.60563)"
         d="m 69.529453,-44.51786 c 0,5.810535 -4.710369,10.520904 -10.520904,10.520904 -5.810535,0 -10.520905,-4.710369 -10.520905,-10.520904 0,-5.810536 4.71037,-10.520905 10.520905,-10.520905 5.810535,0 10.520904,4.710369 10.520904,10.520905 z"
         sodipodi:ry="10.520905"
         sodipodi:rx="10.520905"
         sodipodi:cy="-44.51786"
         sodipodi:cx="59.008549"
         id="path10866"
         style="color:#000000;fill:#999999;fill-opacity:1;fill-rule:nonzero;stroke:#800000;stroke-width:0.05;stroke-miterlimit:4;stroke-opacity:1;stroke-dasharray:none;stroke-dashoffset:0;marker:none;visibility:visible;display:inline;overflow:visible;enable-background:accumulate"
         sodipodi:type="arc" />
      <path
         sodipodi:nodetypes="sssccs"
         inkscape:connector-curvature="0"
         id="path11477"
         d="m 369.33731,567.64838 c -92.62418,0 -167.75338,44.87259 -167.75338,100.33368 0,55.46116 75.1292,100.56328 167.75338,100.56328 43.67616,0 83.33432,-10.02267 113.17753,-26.40357 1.10656,-39.57922 12.91003,-86.34369 57.4683,-104.56654 -16.24786,-45.28265 -90.16535,-69.92685 -170.64583,-69.92685 z"
         style="opacity:0.2;color:#000000;fill:#000000;fill-opacity:1;fill-rule:nonzero;stroke:none;stroke-width:5;marker:none;visibility:visible;display:inline;overflow:visible;enable-background:accumulate" />
      <path
         transform="matrix(3.2641919,0,0,3.1793118,193.24844,499.92382)"
         d="m 132.19745,-9.7531328 c 0,37.3895288 -37.682957,67.6997298 -84.167238,67.6997298 -46.4842807,0 -84.167236,-30.310201 -84.167236,-67.6997298 0,-37.3895282 37.6829553,-67.6997302 84.167236,-67.6997302 46.484281,0 84.167238,30.310202 84.167238,67.6997302 z"
         sodipodi:ry="67.69973"
         sodipodi:rx="84.167236"
         sodipodi:cy="-9.7531328"
         sodipodi:cx="48.030212"
         id="path9897"
         style="color:#000000;fill:#ffffff;fill-opacity:1;fill-rule:nonzero;stroke:none;stroke-width:4.71702814;marker:none;visibility:visible;display:inline;overflow:visible;enable-background:accumulate"
         sodipodi:type="arc" />
      <g
         transform="matrix(7.1277689,0,0,7.1277689,-617.24283,-143.55571)"
         id="g11441">
        <path
           transform="matrix(0.32886558,0,0,0.25029457,14.966501,-77.104672)"
           d="m 343.67216,636.01624 c 0,22.88161 -13.37976,41.43083 -29.88453,41.43083 -16.50478,0 -29.88454,-18.54922 -29.88454,-41.43083 0,-22.88162 13.37976,-41.43084 29.88454,-41.43084 16.50477,0 29.88453,18.54922 29.88453,41.43084 z"
           sodipodi:ry="41.430836"
           sodipodi:rx="29.884537"
           sodipodi:cy="636.01624"
           sodipodi:cx="313.78763"
           id="path5317"
           style="opacity:0.15;fill:#ffffff;fill-opacity:1;stroke:none;filter:url(#filter5383)"
           sodipodi:type="arc" />
        <path
           sodipodi:type="arc"
           style="fill:#80e5ff;fill-opacity:1;stroke:#000000;stroke-width:3.5729239;stroke-miterlimit:4;stroke-dasharray:none"
           id="path5242"
           sodipodi:cx="313.78763"
           sodipodi:cy="636.01624"
           sodipodi:rx="29.884537"
           sodipodi:ry="41.430836"
           d="m 343.67216,636.01624 c 0,22.88161 -13.37976,41.43083 -29.88453,41.43083 -16.50478,0 -29.88454,-18.54922 -29.88454,-41.43083 0,-22.88162 13.37976,-41.43084 29.88454,-41.43084 16.50477,0 29.88453,18.54922 29.88453,41.43084 z"
           transform="matrix(0.25898071,0,0,0.20641459,36.491535,-49.276791)" />
        <path
           style="opacity:0.5;fill:url(#linearGradient11469);fill-opacity:1;stroke:none;filter:url(#filter5403)"
           d="m 373.5625,406.49892 c -10.05881,0 -18.21875,9.65738 -18.21875,21.56675 0,11.90936 8.15994,21.56674 18.21875,21.56674 10.05881,0 18.21875,-9.65738 18.21875,-21.56674 0,-11.90937 -8.15994,-21.56675 -18.21875,-21.56675 z m -0.3125,2.83028 c 9.27422,0 16.8125,8.2845 16.8125,18.48174 0,10.19725 -7.53828,18.45344 -16.8125,18.45344 -9.27422,0 -16.78125,-8.25619 -16.78125,-18.45344 0,-10.19724 7.50703,-18.48174 16.78125,-18.48174 z"
           id="path5262"
           inkscape:connector-curvature="0"
           transform="matrix(0.32696334,0,0,0.23532672,-4.3829755,-16.086349)" />
        <path
           sodipodi:type="arc"
           style="fill:#000000;fill-opacity:1;stroke:none;filter:url(#filter5305)"
           id="path5295"
           sodipodi:cx="313.78763"
           sodipodi:cy="636.01624"
           sodipodi:rx="29.884537"
           sodipodi:ry="41.430836"
           d="m 343.67216,636.01624 c 0,22.88161 -13.37976,41.43083 -29.88453,41.43083 -16.50478,0 -29.88454,-18.54922 -29.88454,-41.43083 0,-22.88162 13.37976,-41.43084 29.88454,-41.43084 16.50477,0 29.88453,18.54922 29.88453,41.43084 z"
           transform="matrix(0.15222923,0,0,0.13489555,69.467967,-2.8178385)" />
        <path
           transform="matrix(0.09211652,0,0,0.07632613,86.132371,30.843981)"
           d="m 343.67216,636.01624 c 0,22.88161 -13.37976,41.43083 -29.88453,41.43083 -16.50478,0 -29.88454,-18.54922 -29.88454,-41.43083 0,-22.88162 13.37976,-41.43084 29.88454,-41.43084 16.50477,0 29.88453,18.54922 29.88453,41.43084 z"
           sodipodi:ry="41.430836"
           sodipodi:rx="29.884537"
           sodipodi:cy="636.01624"
           sodipodi:cx="313.78763"
           id="path5244"
           style="fill:#ffffff;fill-opacity:1;stroke:none;filter:url(#filter5301)"
           sodipodi:type="arc" />
        <path
           transform="matrix(0.32696334,0,0,-0.24583454,-4.48397,183.92562)"
           inkscape:connector-curvature="0"
           id="path5313"
           d="m 373.5625,406.49892 c -10.05881,0 -18.21875,9.65738 -18.21875,21.56675 0,11.90936 8.15994,21.56674 18.21875,21.56674 10.05881,0 18.21875,-9.65738 18.21875,-21.56674 0,-11.90937 -8.15994,-21.56675 -18.21875,-21.56675 z m -0.3125,2.83028 c 9.27422,0 16.8125,8.2845 16.8125,18.48174 0,10.19725 -7.53828,18.45344 -16.8125,18.45344 -9.27422,0 -16.78125,-8.25619 -16.78125,-18.45344 0,-10.19724 7.50703,-18.48174 16.78125,-18.48174 z"
           style="fill:url(#linearGradient11471);fill-opacity:1;stroke:none;filter:url(#filter5277)" />
      </g>
      <path
         sodipodi:nodetypes="cc"
         inkscape:connector-curvature="0"
         id="path10874"
         d="m 232.45984,582.22502 c 56.43567,65.45198 109.05576,49.1748 150.0399,0"
         style="fill:none;stroke:#550000;stroke-width:13.59969711;stroke-linecap:butt;stroke-linejoin:miter;stroke-miterlimit:4;stroke-opacity:1;stroke-dasharray:none" />
      <path
         sodipodi:nodetypes="cscccc"
         inkscape:connector-curvature="0"
         id="path11349"
         d="m 61.109057,666.2853 c 0,0 16.886063,57.41252 43.903743,54.03534 27.01771,-3.37719 59.57124,-37.72435 59.57124,-37.72435 l -17.6208,43.54775 c 0,0 -30.15594,18.61194 -47.617022,14.94717 -17.401746,-2.43429 -39.6069,-37.65475 -38.237161,-74.80591 z"
         style="fill:#000000;fill-opacity:0.2;stroke:none" />
      <path
         inkscape:connector-curvature="0"
         id="path11412"
         d="m 350.06375,253.76064 c -7.68534,0 -15.26795,0.22748 -22.79366,0.7123 125.99174,8.5956 225.08742,96.82721 225.08742,204.6681 0,113.53158 -109.8473,205.61784 -245.26931,205.61784 -57.06804,0 -109.58099,-16.2784 -151.24546,-43.68785 49.71777,38.95049 118.3542,63.15744 194.22101,63.15744 151.73362,0 274.71113,-96.47965 274.71113,-215.35263 0,-118.87298 -122.97751,-215.1152 -274.71113,-215.1152 z"
         style="opacity:0.1;color:#000000;fill:#000000;fill-opacity:1;fill-rule:nonzero;stroke:none;stroke-width:4.71702814;marker:none;visibility:visible;display:inline;overflow:visible;enable-background:accumulate" />
      <g
         transform="matrix(7.1277689,0,0,7.1277689,-444.15717,-139.36815)"
         id="g11449">
        <path
           sodipodi:type="arc"
           style="opacity:0.15;fill:#ffffff;fill-opacity:1;stroke:none;filter:url(#filter5383)"
           id="path11451"
           sodipodi:cx="313.78763"
           sodipodi:cy="636.01624"
           sodipodi:rx="29.884537"
           sodipodi:ry="41.430836"
           d="m 343.67216,636.01624 c 0,22.88161 -13.37976,41.43083 -29.88453,41.43083 -16.50478,0 -29.88454,-18.54922 -29.88454,-41.43083 0,-22.88162 13.37976,-41.43084 29.88454,-41.43084 16.50477,0 29.88453,18.54922 29.88453,41.43084 z"
           transform="matrix(0.32886558,0,0,0.25029457,14.966501,-77.104672)" />
        <path
           transform="matrix(0.25898071,0,0,0.20641459,36.491535,-49.276791)"
           d="m 343.67216,636.01624 c 0,22.88161 -13.37976,41.43083 -29.88453,41.43083 -16.50478,0 -29.88454,-18.54922 -29.88454,-41.43083 0,-22.88162 13.37976,-41.43084 29.88454,-41.43084 16.50477,0 29.88453,18.54922 29.88453,41.43084 z"
           sodipodi:ry="41.430836"
           sodipodi:rx="29.884537"
           sodipodi:cy="636.01624"
           sodipodi:cx="313.78763"
           id="path11453"
           style="fill:#80e5ff;fill-opacity:1;stroke:#000000;stroke-width:3.5729239;stroke-miterlimit:4;stroke-dasharray:none"
           sodipodi:type="arc" />
        <path
           transform="matrix(0.32696334,0,0,0.23532672,-4.3829755,-16.086349)"
           inkscape:connector-curvature="0"
           id="path11455"
           d="m 373.5625,406.49892 c -10.05881,0 -18.21875,9.65738 -18.21875,21.56675 0,11.90936 8.15994,21.56674 18.21875,21.56674 10.05881,0 18.21875,-9.65738 18.21875,-21.56674 0,-11.90937 -8.15994,-21.56675 -18.21875,-21.56675 z m -0.3125,2.83028 c 9.27422,0 16.8125,8.2845 16.8125,18.48174 0,10.19725 -7.53828,18.45344 -16.8125,18.45344 -9.27422,0 -16.78125,-8.25619 -16.78125,-18.45344 0,-10.19724 7.50703,-18.48174 16.78125,-18.48174 z"
           style="opacity:0.5;fill:url(#linearGradient11463);fill-opacity:1;stroke:none;filter:url(#filter5403)" />
        <path
           transform="matrix(0.15222923,0,0,0.13489555,69.467967,-2.8178385)"
           d="m 343.67216,636.01624 c 0,22.88161 -13.37976,41.43083 -29.88453,41.43083 -16.50478,0 -29.88454,-18.54922 -29.88454,-41.43083 0,-22.88162 13.37976,-41.43084 29.88454,-41.43084 16.50477,0 29.88453,18.54922 29.88453,41.43084 z"
           sodipodi:ry="41.430836"
           sodipodi:rx="29.884537"
           sodipodi:cy="636.01624"
           sodipodi:cx="313.78763"
           id="path11457"
           style="fill:#000000;fill-opacity:1;stroke:none;filter:url(#filter5305)"
           sodipodi:type="arc" />
        <path
           sodipodi:type="arc"
           style="fill:#ffffff;fill-opacity:1;stroke:none;filter:url(#filter5301)"
           id="path11459"
           sodipodi:cx="313.78763"
           sodipodi:cy="636.01624"
           sodipodi:rx="29.884537"
           sodipodi:ry="41.430836"
           d="m 343.67216,636.01624 c 0,22.88161 -13.37976,41.43083 -29.88453,41.43083 -16.50478,0 -29.88454,-18.54922 -29.88454,-41.43083 0,-22.88162 13.37976,-41.43084 29.88454,-41.43084 16.50477,0 29.88453,18.54922 29.88453,41.43084 z"
           transform="matrix(0.09211652,0,0,0.07632613,86.132371,30.843981)" />
        <path
           style="fill:url(#linearGradient11465);fill-opacity:1;stroke:none;filter:url(#filter5277)"
           d="m 373.5625,406.49892 c -10.05881,0 -18.21875,9.65738 -18.21875,21.56675 0,11.90936 8.15994,21.56674 18.21875,21.56674 10.05881,0 18.21875,-9.65738 18.21875,-21.56674 0,-11.90937 -8.15994,-21.56675 -18.21875,-21.56675 z m -0.3125,2.83028 c 9.27422,0 16.8125,8.2845 16.8125,18.48174 0,10.19725 -7.53828,18.45344 -16.8125,18.45344 -9.27422,0 -16.78125,-8.25619 -16.78125,-18.45344 0,-10.19724 7.50703,-18.48174 16.78125,-18.48174 z"
           id="path11461"
           inkscape:connector-curvature="0"
           transform="matrix(0.32696334,0,0,-0.24583454,-4.48397,183.92562)" />
      </g>
      <path
         sodipodi:nodetypes="csssscssscc"
         inkscape:connector-curvature="0"
         id="path11467"
         d="m 484.39418,757.05506 c 0,0 26.37257,-2.23674 40.38931,4.23248 14.01673,6.46929 29.11168,12.93859 37.73741,12.93859 8.62566,0 31.42745,-9.15956 47.44129,-26.95533 18.65768,-20.7338 31.55525,-60.05021 20.40572,-82.43959 -11.07308,-22.2359 -57.3661,-27.03594 -57.06492,-27.53793 0,0 48.34521,16.34062 47.26699,38.98301 -1.07821,22.64247 -32.7959,61.50445 -47.26699,69.9163 -18.82513,10.94278 -25.74529,-3.49579 -55.4911,-7.7149 -12.72965,-1.80556 -37.73741,-0.18083 -37.73741,-0.18083 z"
         style="opacity:0.2;fill:#000000;stroke:none" />
      <path
         transform="matrix(11.49424,0,0,11.49424,-1175.712,-563.85756)"
         d="m 133.52286,95.684929 c 0,1.772004 -2.15474,3.208497 -4.81275,3.208497 -2.658,0 -4.81274,-1.436493 -4.81274,-3.208497 0,-1.772004 2.15474,-3.208498 4.81274,-3.208498 2.65801,0 4.81275,1.436494 4.81275,3.208498 z"
         sodipodi:ry="3.2084975"
         sodipodi:rx="4.8127465"
         sodipodi:cy="95.684929"
         sodipodi:cx="128.71011"
         id="path11473"
         style="color:#000000;fill:#2b0000;fill-opacity:1;fill-rule:nonzero;stroke:none;stroke-width:2;marker:none;visibility:visible;display:inline;overflow:visible;enable-background:accumulate"
         sodipodi:type="arc" />
      <path
         sodipodi:type="arc"
         style="color:#000000;fill:#550000;fill-opacity:1;fill-rule:nonzero;stroke:none;stroke-width:2;marker:none;visibility:visible;display:inline;overflow:visible;enable-background:accumulate"
         id="path11475"
         sodipodi:cx="128.71011"
         sodipodi:cy="95.684929"
         sodipodi:rx="4.8127465"
         sodipodi:ry="3.2084975"
         d="m 133.52286,95.684929 c 0,1.772004 -2.15474,3.208497 -4.81275,3.208497 -2.658,0 -4.81274,-1.436493 -4.81274,-3.208497 0,-1.772004 2.15474,-3.208498 4.81274,-3.208498 2.65801,0 4.81275,1.436494 4.81275,3.208498 z"
         transform="matrix(9.3965153,0,0,9.3965153,-915.80933,-367.33145)" />
      <path
         sodipodi:nodetypes="cscsccccc"
         inkscape:connector-curvature="0"
         id="path11482"
         d="m 184.20414,791.37487 c 0,0 51.12421,55.89454 123.43946,58.97663 69.13615,2.94661 128.9256,-27.43104 128.9256,-27.43104 0,0 -54.22597,42.23871 -128.84985,41.97203 -17.88269,-0.0608 -59.05237,-14.54099 -59.05237,-14.54099 11.87109,16.79277 15.53555,45.45497 -2.47631,61.46562 -6.11493,4.97464 -38.0525,13.28734 -58.43057,7.92467 18.52153,-13.41202 40.29935,-16.0785 44.99431,-75.11804 -21.92947,-18.89883 -33.1552,-35.65688 -48.55027,-53.24888 z"
         style="fill:#000000;fill-opacity:0.2;stroke:none" />
      <path
         sodipodi:type="arc"
         style="color:#000000;fill:#000000;fill-opacity:0.15;fill-rule:nonzero;stroke:#800000;stroke-width:0.05;stroke-miterlimit:4;stroke-opacity:1;stroke-dasharray:none;stroke-dashoffset:0;marker:none;visibility:visible;display:inline;overflow:visible;enable-background:accumulate"
         id="path11486"
         sodipodi:cx="59.008549"
         sodipodi:cy="-44.51786"
         sodipodi:rx="10.520905"
         sodipodi:ry="10.520905"
         d="m 69.529453,-44.51786 c 0,5.810535 -4.710369,10.520904 -10.520904,10.520904 -5.810535,0 -10.520905,-4.710369 -10.520905,-10.520904 0,-5.810536 4.71037,-10.520905 10.520905,-10.520905 5.810535,0 10.520904,4.710369 10.520904,10.520905 z"
         transform="matrix(-3.2965413,0,0,3.2965413,373.33806,696.73793)" />
      <path
         transform="matrix(-3.2965413,0,0,3.2965413,644.31429,703.06257)"
         d="m 69.529453,-44.51786 c 0,5.810535 -4.710369,10.520904 -10.520904,10.520904 -5.810535,0 -10.520905,-4.710369 -10.520905,-10.520904 0,-5.810536 4.71037,-10.520905 10.520905,-10.520905 5.810535,0 10.520904,4.710369 10.520904,10.520905 z"
         sodipodi:ry="10.520905"
         sodipodi:rx="10.520905"
         sodipodi:cy="-44.51786"
         sodipodi:cx="59.008549"
         id="path11488"
         style="color:#000000;fill:#000000;fill-opacity:0.15;fill-rule:nonzero;stroke:#800000;stroke-width:0.05;stroke-miterlimit:4;stroke-opacity:1;stroke-dasharray:none;stroke-dashoffset:0;marker:none;visibility:visible;display:inline;overflow:visible;enable-background:accumulate"
         sodipodi:type="arc" />
      <path
         sodipodi:nodetypes="cssssscc"
         inkscape:connector-curvature="0"
         id="path11490"
         d="m 463.66486,666.16646 c 0,0 44.40244,192.73707 47.70152,207.0331 3.29908,14.29596 0.47638,42.60273 -1.15891,48.80298 -4.42843,16.79164 -38.42996,25.97604 -48.3272,24.8764 -9.89724,-1.09972 -59.38334,-1.09972 -65.9815,-4.3988 -6.59816,-3.29908 85.77597,6.59816 85.77597,-25.29291 0,-31.89107 -25.58923,-248.40496 -25.58923,-248.40496 z"
         style="fill:#000000;fill-opacity:0.2;stroke:none" />
    </g>
  </g>
</svg>
