<?xml version="1.0" encoding="UTF-8" standalone="no"?>
<!-- Created with Inkscape (http://www.inkscape.org/) -->

<svg
   xmlns:dc="http://purl.org/dc/elements/1.1/"
   xmlns:cc="http://creativecommons.org/ns#"
   xmlns:rdf="http://www.w3.org/1999/02/22-rdf-syntax-ns#"
   xmlns:svg="http://www.w3.org/2000/svg"
   xmlns="http://www.w3.org/2000/svg"
   xmlns:sodipodi="http://sodipodi.sourceforge.net/DTD/sodipodi-0.dtd"
   xmlns:inkscape="http://www.inkscape.org/namespaces/inkscape"
   id="svg2"
   version="1.1"
   inkscape:version="0.48.4 r9939"
   width="2513.6233"
   height="2554.9204"
   sodipodi:docname="cow.svg"
   inkscape:export-filename="C:\git\UI-UX\Pictures\animal\cow.png"
   inkscape:export-xdpi="90"
   inkscape:export-ydpi="90">
  <metadata
     id="metadata8">
    <rdf:RDF>
      <cc:Work
         rdf:about="">
        <dc:format>image/svg+xml</dc:format>
        <dc:type
           rdf:resource="http://purl.org/dc/dcmitype/StillImage" />
        <dc:title></dc:title>
      </cc:Work>
    </rdf:RDF>
  </metadata>
  <defs
     id="defs6">
    <inkscape:path-effect
       effect="spiro"
       id="path-effect4152"
       is_visible="true" />
    <inkscape:path-effect
       is_visible="true"
       id="path-effect4008"
       effect="spiro" />
    <inkscape:path-effect
       effect="spiro"
       id="path-effect4004"
       is_visible="true" />
    <inkscape:path-effect
       effect="spiro"
       id="path-effect3184"
       is_visible="true" />
    <inkscape:path-effect
       effect="spiro"
       id="path-effect3180"
       is_visible="true" />
    <inkscape:path-effect
       effect="spiro"
       id="path-effect3176"
       is_visible="true" />
    <inkscape:path-effect
       effect="spiro"
       id="path-effect3172"
       is_visible="true" />
    <inkscape:path-effect
       effect="spiro"
       id="path-effect3907"
       is_visible="true" />
    <filter
       inkscape:collect="always"
       id="filter4204"
       x="-0.33491933"
       width="1.6698387"
       y="-1.0379943"
       height="3.0759885"
       color-interpolation-filters="sRGB">
      <feGaussianBlur
         inkscape:collect="always"
         stdDeviation="266.84095"
         id="feGaussianBlur4206" />
    </filter>
  </defs>
  <sodipodi:namedview
     pagecolor="#ffffff"
     bordercolor="#666666"
     borderopacity="1"
     objecttolerance="10"
     gridtolerance="10"
     guidetolerance="10"
     inkscape:pageopacity="0"
     inkscape:pageshadow="2"
     inkscape:window-width="1920"
     inkscape:window-height="1017"
     id="namedview4"
     showgrid="false"
     inkscape:zoom="0.21232569"
     inkscape:cx="1276.4433"
     inkscape:cy="1607.4903"
     inkscape:window-x="-8"
     inkscape:window-y="-8"
     inkscape:window-maximized="1"
     inkscape:current-layer="svg2"
     fit-margin-top="0"
     fit-margin-left="0"
     fit-margin-right="0"
     fit-margin-bottom="0" />
  <g
     id="g4208"
     transform="translate(286.94327,5.4809517)">
    <path
       transform="matrix(0.78477335,0,0,0.52488954,208.47886,1058.6648)"
       d="m 1926.286,1886.2532 c 0,170.3734 -428.0509,308.4883 -956.07836,308.4883 -528.0275,0 -956.078368,-138.1149 -956.078368,-308.4883 0,-170.3734 428.050868,-308.4884 956.078368,-308.4884 528.02746,0 956.07836,138.115 956.07836,308.4884 z"
       sodipodi:ry="308.48834"
       sodipodi:rx="956.07837"
       sodipodi:cy="1886.2532"
       sodipodi:cx="970.20764"
       id="path4158"
       style="fill:#000000;fill-opacity:1;stroke:#000000;stroke-width:10;stroke-miterlimit:4;stroke-opacity:1;stroke-dasharray:none;filter:url(#filter4204)"
       sodipodi:type="arc" />
    <g
       id="g4096">
      <g
         id="g4042">
        <g
           id="g4034">
          <g
             id="g4010">
            <path
               inkscape:connector-curvature="0"
               inkscape:original-d="m 585.99371,1590.5845 36.42178,449.8103 82.32786,-137.347 84.54113,148.0605 44.12559,-363.2531 z"
               inkscape:path-effect="#path-effect4004"
               id="path4002"
               d="m 585.99371,1590.5845 36.42178,449.8103 82.32786,-137.347 84.54113,148.0605 44.12559,-363.2531 -247.41636,-97.2707"
               style="fill:#000000;stroke:#000000;stroke-width:1px;stroke-linecap:butt;stroke-linejoin:miter;stroke-opacity:1" />
            <path
               style="fill:#ffffff;stroke:#000000;stroke-width:0.60201383px;stroke-linecap:butt;stroke-linejoin:miter;stroke-opacity:1"
               d="m 638.66099,1608.3855 21.92642,270.792 49.56251,-82.6848 50.89493,89.1345 26.56421,-218.6834 -148.94807,-58.5583"
               id="path4006"
               inkscape:path-effect="#path-effect4008"
               inkscape:original-d="m 638.66099,1608.3855 21.92642,270.792 49.56251,-82.6848 50.89493,89.1345 26.56421,-218.6834 z"
               inkscape:connector-curvature="0" />
          </g>
          <g
             id="g4014"
             transform="matrix(-1,0,0,1,1987.4038,-2)">
            <path
               style="fill:#000000;stroke:#000000;stroke-width:1px;stroke-linecap:butt;stroke-linejoin:miter;stroke-opacity:1"
               d="m 585.99371,1590.5845 36.42178,449.8103 82.32786,-137.347 84.54113,148.0605 44.12559,-363.2531 -247.41636,-97.2707"
               id="path4016"
               inkscape:path-effect="#path-effect4004"
               inkscape:original-d="m 585.99371,1590.5845 36.42178,449.8103 82.32786,-137.347 84.54113,148.0605 44.12559,-363.2531 z"
               inkscape:connector-curvature="0" />
            <path
               inkscape:connector-curvature="0"
               inkscape:original-d="m 638.66099,1608.3855 21.92642,270.792 49.56251,-82.6848 50.89493,89.1345 26.56421,-218.6834 z"
               inkscape:path-effect="#path-effect4008"
               id="path4018"
               d="m 638.66099,1608.3855 21.92642,270.792 49.56251,-82.6848 50.89493,89.1345 26.56421,-218.6834 -148.94807,-58.5583"
               style="fill:#ffffff;stroke:#000000;stroke-width:0.60201383px;stroke-linecap:butt;stroke-linejoin:miter;stroke-opacity:1" />
          </g>
        </g>
        <g
           id="g4024">
          <g
             id="g3021">
            <path
               sodipodi:type="arc"
               style="fill:#f9f9f9;fill-opacity:1;stroke:none"
               id="path3899"
               sodipodi:cx="1302.2448"
               sodipodi:cy="581.65363"
               sodipodi:rx="642.88031"
               sodipodi:ry="529.84637"
               d="m 1945.1251,581.65363 c 0,292.62607 -287.8274,529.84637 -642.8803,529.84637 -355.05304,0 -642.88036,-237.2203 -642.88036,-529.84637 0,-292.62608 287.82732,-529.846379 642.88036,-529.846379 355.0529,0 642.8803,237.220299 642.8803,529.846379 z"
               transform="matrix(1.3704362,0,0,1.5478379,-789.08151,-54.673175)" />
            <path
               transform="matrix(1.3704362,0,0,1.5478379,-789.08151,-54.673175)"
               d="m 1945.1251,581.65363 c 0,292.62607 -287.8274,529.84637 -642.8803,529.84637 -355.05304,0 -642.88036,-237.2203 -642.88036,-529.84637 0,-292.62608 287.82732,-529.846379 642.88036,-529.846379 355.0529,0 642.8803,237.220299 642.8803,529.846379 z"
               sodipodi:ry="529.84637"
               sodipodi:rx="642.88031"
               sodipodi:cy="581.65363"
               sodipodi:cx="1302.2448"
               id="path2987"
               style="fill:none;stroke:#030303;stroke-width:40.02444839;stroke-miterlimit:4;stroke-opacity:1;stroke-dasharray:none"
               sodipodi:type="arc" />
          </g>
          <g
             id="g3220">
            <path
               inkscape:connector-curvature="0"
               inkscape:original-d="m 133.77648,619.33156 c 131.88304,-94.03316 350.8437,18.80662 442.71611,110.67903 15.72408,15.72408 -7.17571,63.35938 2.35487,82.42055 4.13102,8.26204 11.0864,50.14029 2.35487,58.87182 C 534.6136,917.89169 337.39516,900.34473 333.94068,908.98093 320.21875,943.28575 211.70722,1042.1412 166.7447,1019.66 144.74967,1008.6624 144.85617,963.55513 136.13136,949.01377"
               inkscape:path-effect="#path-effect3172"
               id="path3170"
               d="m 133.77648,619.33156 c 26.67852,-42.55695 67.07203,-76.36539 113.66207,-95.13254 46.59004,-18.76714 99.1397,-22.39756 147.86788,-10.21551 48.72818,12.18204 93.38709,40.1146 125.66435,78.59857 32.27727,38.48397 52.00874,87.32366 55.52181,137.42851 1.92335,27.43167 -0.87135,55.11144 2.35487,82.42055 1.16108,9.82826 3.09754,19.55769 4.07213,29.40619 0.97459,9.84851 0.96232,19.93868 -1.71726,29.46563 -3.05632,10.86638 -9.54773,20.64089 -17.92875,28.20249 -8.38103,7.56159 -18.59889,12.95775 -29.38138,16.298 -21.56498,6.68049 -44.84542,5.18517 -67.05649,1.14217 -22.21106,-4.04299 -43.94894,-10.55312 -66.28879,-13.81017 -22.33985,-3.25705 -45.86767,-3.07577 -66.60624,5.84548 -16.18141,6.96087 -29.77624,18.85917 -41.6263,31.89251 -11.85005,13.03334 -22.21736,27.3435 -33.83469,40.5847 -11.61733,13.24121 -24.73126,25.57616 -40.52007,33.38666 -7.89441,3.9053 -16.41096,6.6334 -25.16488,7.6039 -8.75392,0.9705 -17.74904,0.1552 -26.05004,-2.7887 -13.5683,-4.8119 -24.95795,-15.4511 -30.68201,-28.66047 -5.72407,-13.20939 -5.69857,-28.79516 0.0687,-41.98576"
               style="fill:#000000;stroke:#000000;stroke-width:1px;stroke-linecap:butt;stroke-linejoin:miter;stroke-opacity:1" />
            <path
               inkscape:connector-curvature="0"
               inkscape:original-d="m 360.29555,273.16524 c -8.50458,78.62025 104.06485,270.58517 211.93856,216.64831 54.24875,-27.12437 64.12242,-76.80379 155.42161,-122.45339 71.92322,-35.96161 112.60926,49.87698 197.80933,-35.32309 4.24463,-4.24464 0,-29.89501 0,-37.67797 0,-83.85884 -50.0019,-100.35688 -117.74365,-134.22775 C 623.85574,68.198514 487.22261,171.6236 360.29555,273.16524 z"
               inkscape:path-effect="#path-effect3176"
               id="path3174"
               d="m 360.29555,273.16524 c -19.85901,29.22508 -29.25343,65.40719 -26.12058,100.60194 3.13285,35.19475 18.77043,69.14865 43.47923,94.40653 24.70879,25.25788 58.31085,41.63783 93.42825,45.54335 35.11741,3.90551 71.49723,-4.69153 101.15166,-23.90351 28.05506,-18.17581 49.34182,-44.78838 72.49405,-68.90104 11.57612,-12.05633 23.77582,-23.62019 37.4967,-33.16477 13.72088,-9.54458 29.05307,-17.05146 45.43086,-20.38758 17.73042,-3.61165 36.10322,-2.25305 54.00204,0.401 17.89883,2.65404 35.62799,6.58835 53.65773,8.11823 18.02973,1.52987 36.65526,0.54557 53.40052,-6.31068 8.37263,-3.42813 16.1906,-8.31714 22.62704,-14.67523 6.43643,-6.35809 11.46401,-14.2084 14.122,-22.85641 3.73103,-12.13922 2.69136,-25.26677 0,-37.67797 -6.52184,-30.07544 -22.51436,-57.66393 -43.48407,-80.18809 -20.9697,-22.52416 -46.78776,-40.17007 -74.25958,-54.03966 -74.87827,-37.80351 -163.4995,-47.5949 -244.82448,-27.04964 -81.32498,20.54525 -154.66235,71.2525 -202.60137,140.08353"
               style="fill:#000000;stroke:#000000;stroke-width:1px;stroke-linecap:butt;stroke-linejoin:miter;stroke-opacity:1" />
            <path
               sodipodi:nodetypes="cssssssc"
               inkscape:connector-curvature="0"
               inkscape:original-d="m 1350.6981,115.48516 c -88.5983,-11.72611 -367.469,115.17108 -306.1335,237.84216 28.7414,57.48273 67.4688,50.98468 105.9693,89.48517 13.7993,13.79929 21.3175,33.03002 44.7426,44.74259 42.8301,21.41507 124.3282,-39.87281 167.196,-54.16208 41.2482,-13.74942 86.1162,15.25222 124.8082,2.35487 40.6092,-13.5364 70.8791,-59.33768 87.1303,-91.84004 6.4118,-12.82358 -226.5808,-230.14342 -223.7129,-228.42267 z"
               inkscape:path-effect="#path-effect3180"
               id="path3178"
               d="m 1350.6981,115.48516 c -28.6654,-46.354186 -77.6027,-79.661166 -131.2409,-89.32328 -53.6383,-9.662114 -111.1218,4.474761 -154.1606,37.912535 -43.0387,33.437774 -70.94603,85.643075 -74.8424,140.005145 -3.89637,54.36207 16.2804,110.01377 54.1104,149.24776 32.1456,33.33858 75.5079,54.60108 105.9693,89.48517 6.9919,8.00708 13.2271,16.65226 20.254,24.62865 7.027,7.97638 14.9774,15.3665 24.4886,20.11394 13.6074,6.79206 29.6358,7.68816 44.5497,4.71012 14.9139,-2.97804 28.8657,-9.60609 42.0002,-17.27277 26.2691,-15.33337 50.8632,-35.42238 80.6461,-41.59943 20.4757,-4.24672 41.6764,-1.48979 62.407,1.25472 20.7306,2.74451 41.9468,5.44827 62.4012,1.10015 21.6886,-4.61048 41.3188,-17.1173 56.1117,-33.63462 14.793,-16.51731 24.9144,-36.88899 31.0186,-58.20542 8.892,-31.05129 9.4074,-64.45869 1.4778,-95.76955 -7.9297,-31.31086 -24.2844,-60.44576 -46.8844,-83.52153 -22.6,-23.07576 -51.3879,-40.03385 -82.5267,-48.61405 -31.1389,-8.58019 -64.5498,-8.76073 -95.7796,-0.51754"
               style="fill:#000000;stroke:#000000;stroke-width:1px;stroke-linecap:butt;stroke-linejoin:miter;stroke-opacity:1" />
            <path
               sodipodi:nodetypes="cssssc"
               inkscape:connector-curvature="0"
               inkscape:original-d="m 1867.9947,638.46186 c -21.9528,-5.83433 -42.4156,-15.61152 -63.5816,-23.54873 -229.3732,-86.01495 -330.2819,216.04852 -275.5201,270.81038 42.7448,42.74481 280.0831,238.13579 324.9725,148.35699 24.2562,-48.51238 -2.897,-172.18095 14.1293,-219.00317 21.3225,-58.63695 8.8025,-123.79973 -10e-5,-176.61547 z"
               inkscape:path-effect="#path-effect3184"
               id="path3182"
               d="m 1867.9947,638.46186 c -19.7146,-11.25794 -41.2899,-19.24878 -63.5816,-23.54873 -36.439,-7.0289 -74.6625,-4.06521 -109.8232,7.80631 -35.1607,11.87151 -67.2168,32.56012 -93.0502,59.20291 -51.667,53.28558 -76.913,129.70239 -72.6467,203.80116 2.269,39.40876 12.5493,78.58079 31.9032,112.98461 19.354,34.40378 47.9653,63.88308 82.8567,82.34338 34.8915,18.4604 76.0815,25.5154 114.7538,17.5998 38.6722,-7.9157 74.372,-31.201 95.4588,-64.5708 19.9661,-31.5964 26.2128,-70.16166 25.6784,-107.53401 -0.5345,-37.37235 -7.3655,-74.32787 -11.5491,-111.46916 -6.6035,-58.62472 -6.6035,-117.99075 -10e-5,-176.61547"
               style="fill:#000000;stroke:#000000;stroke-width:1px;stroke-linecap:butt;stroke-linejoin:miter;stroke-opacity:1" />
          </g>
        </g>
      </g>
      <g
         id="g4060">
        <g
           id="g4020">
          <path
             sodipodi:type="arc"
             style="fill:#f8f8f8;fill-opacity:1;stroke:#000000;stroke-width:10;stroke-miterlimit:4;stroke-opacity:1;stroke-dasharray:none"
             id="path3226"
             sodipodi:cx="1375.2457"
             sodipodi:cy="1006.7081"
             sodipodi:rx="58.871822"
             sodipodi:ry="43.565147"
             d="m 1434.1175,1006.7081 c 0,24.0604 -26.3578,43.5652 -58.8718,43.5652 -32.514,0 -58.8718,-19.5048 -58.8718,-43.5652 0,-24.06034 26.3578,-43.56512 58.8718,-43.56512 32.514,0 58.8718,19.50478 58.8718,43.56512 z"
             transform="matrix(2.8731773,1.5926414,-1.7115794,1.474536,-764.7105,-2631.4919)"
             inkscape:transform-center-x="21.193856"
             inkscape:transform-center-y="40.032839" />
          <path
             transform="matrix(-2.8942851,1.5539524,1.6916435,1.4973653,2807.2065,-2610.6871)"
             d="m 1434.1175,1006.7081 c 0,24.0604 -26.3578,43.5652 -58.8718,43.5652 -32.514,0 -58.8718,-19.5048 -58.8718,-43.5652 0,-24.06034 26.3578,-43.56512 58.8718,-43.56512 32.514,0 58.8718,19.50478 58.8718,43.56512 z"
             sodipodi:ry="43.565147"
             sodipodi:rx="58.871822"
             sodipodi:cy="1006.7081"
             sodipodi:cx="1375.2457"
             id="path3996"
             style="fill:#f8f8f8;fill-opacity:1;stroke:#000000;stroke-width:10;stroke-miterlimit:4;stroke-opacity:1;stroke-dasharray:none"
             sodipodi:type="arc"
             inkscape:transform-center-x="47.097458"
             inkscape:transform-center-y="16.48411" />
        </g>
        <g
           id="g3102">
          <g
             id="g3934">
            <g
               style="fill:#ffffff"
               id="g3919">
              <path
                 inkscape:connector-curvature="0"
                 inkscape:original-d="m 1262.2119,727.65572 42.3877,-14.12924 14.1292,-16.48411 25.9036,-32.96822 47.0975,-105.96928 35.3231,-91.84004 14.1292,-42.38771 14.1292,-11.77437 7.0647,-4.70974 11.7743,0 11.7744,4.70974 4.7097,9.41949 -18.8389,200.1642 -18.839,96.54979 -21.1939,84.77542 -9.4195,30.61335 -11.7743,28.25847 -23.5488,49.45233 -28.2584,25.90361 -58.8719,37.67796 -68.2913,-54.16207 -4.7097,-96.54979 z"
                 inkscape:path-effect="#path-effect3907"
                 id="path3909"
                 d="m 1262.2119,727.65572 42.3877,-14.12924 c 4.7894,-5.42578 9.4998,-10.92126 14.1292,-16.48411 8.9411,-10.74385 17.5802,-21.73904 25.9036,-32.96822 16.5908,-34.91775 32.2967,-70.25596 47.0975,-105.96928 12.5592,-30.30443 24.4686,-60.8841 35.3231,-91.84004 4.9283,-14.05511 9.6388,-28.18661 14.1292,-42.38771 l 14.1292,-11.77437 7.0647,-4.70974 11.7743,0 11.7744,4.70974 4.7097,9.41949 -18.8389,200.1642 c -5.5257,32.32429 -11.8077,64.51929 -18.839,96.54979 -6.2467,28.45592 -13.0875,56.79245 -21.1939,84.77542 -2.9709,10.25541 -6.1113,20.46172 -9.4195,30.61335 -3.7568,9.48833 -7.6823,18.90981 -11.7743,28.25847 -7.3221,16.72846 -15.177,33.22371 -23.5488,49.45233 l -28.2584,25.90361 -58.8719,37.67796 -68.2913,-54.16207 -4.7097,-96.54979 35.3231,-96.54979"
                 style="fill:#ffffff;fill-opacity:1;stroke:none" />
              <path
                 style="fill:#ffffff;stroke:#000000;stroke-width:40;stroke-linecap:round;stroke-linejoin:round;stroke-miterlimit:4;stroke-opacity:1;stroke-dasharray:none"
                 d="m 1262.2119,727.65572 42.3877,-14.12924 c 4.7894,-5.42578 9.4998,-10.92126 14.1292,-16.48411 8.9411,-10.74385 17.5802,-21.73904 25.9036,-32.96822 16.5908,-34.91775 32.2967,-70.25596 47.0975,-105.96928 12.5592,-30.30443 24.4686,-60.8841 35.3231,-91.84004 4.9283,-14.05511 9.6388,-28.18661 14.1292,-42.38771 l 14.1292,-11.77437 7.0647,-4.70974 11.7743,0 11.7744,4.70974 4.7097,9.41949 -18.8389,200.1642 c -5.5257,32.32429 -11.8077,64.51929 -18.839,96.54979 -6.2467,28.45592 -13.0875,56.79245 -21.1939,84.77542 -2.9709,10.25541 -6.1113,20.46172 -9.4195,30.61335 -3.7568,9.48833 -7.6823,18.90981 -11.7743,28.25847 -7.3221,16.72846 -15.177,33.22371 -23.5488,49.45233 l -28.2584,25.90361 -58.8719,37.67796 -68.2913,-54.16207 -4.7097,-96.54979 35.3231,-96.54979"
                 id="path3905"
                 inkscape:path-effect="#path-effect3907"
                 inkscape:original-d="m 1262.2119,727.65572 42.3877,-14.12924 14.1292,-16.48411 25.9036,-32.96822 47.0975,-105.96928 35.3231,-91.84004 14.1292,-42.38771 14.1292,-11.77437 7.0647,-4.70974 11.7743,0 11.7744,4.70974 4.7097,9.41949 -18.8389,200.1642 -18.839,96.54979 -21.1939,84.77542 -9.4195,30.61335 -11.7743,28.25847 -23.5488,49.45233 -28.2584,25.90361 -58.8719,37.67796 -68.2913,-54.16207 -4.7097,-96.54979 z"
                 inkscape:connector-curvature="0" />
            </g>
            <g
               transform="matrix(-1,0,0,1,1999.5233,0)"
               id="g3928"
               style="fill:#ffffff">
              <path
                 style="fill:#ffffff;fill-opacity:1;stroke:none"
                 d="m 1262.2119,727.65572 42.3877,-14.12924 c 4.7894,-5.42578 9.4998,-10.92126 14.1292,-16.48411 8.9411,-10.74385 17.5802,-21.73904 25.9036,-32.96822 16.5908,-34.91775 32.2967,-70.25596 47.0975,-105.96928 12.5592,-30.30443 24.4686,-60.8841 35.3231,-91.84004 4.9283,-14.05511 9.6388,-28.18661 14.1292,-42.38771 l 14.1292,-11.77437 7.0647,-4.70974 11.7743,0 11.7744,4.70974 4.7097,9.41949 -18.8389,200.1642 c -5.5257,32.32429 -11.8077,64.51929 -18.839,96.54979 -6.2467,28.45592 -13.0875,56.79245 -21.1939,84.77542 -2.9709,10.25541 -6.1113,20.46172 -9.4195,30.61335 -3.7568,9.48833 -7.6823,18.90981 -11.7743,28.25847 -7.3221,16.72846 -15.177,33.22371 -23.5488,49.45233 l -28.2584,25.90361 -58.8719,37.67796 -68.2913,-54.16207 -4.7097,-96.54979 35.3231,-96.54979"
                 id="path3930"
                 inkscape:path-effect="#path-effect3907"
                 inkscape:original-d="m 1262.2119,727.65572 42.3877,-14.12924 14.1292,-16.48411 25.9036,-32.96822 47.0975,-105.96928 35.3231,-91.84004 14.1292,-42.38771 14.1292,-11.77437 7.0647,-4.70974 11.7743,0 11.7744,4.70974 4.7097,9.41949 -18.8389,200.1642 -18.839,96.54979 -21.1939,84.77542 -9.4195,30.61335 -11.7743,28.25847 -23.5488,49.45233 -28.2584,25.90361 -58.8719,37.67796 -68.2913,-54.16207 -4.7097,-96.54979 z"
                 inkscape:connector-curvature="0" />
              <path
                 inkscape:connector-curvature="0"
                 inkscape:original-d="m 1262.2119,727.65572 42.3877,-14.12924 14.1292,-16.48411 25.9036,-32.96822 47.0975,-105.96928 35.3231,-91.84004 14.1292,-42.38771 14.1292,-11.77437 7.0647,-4.70974 11.7743,0 11.7744,4.70974 4.7097,9.41949 -18.8389,200.1642 -18.839,96.54979 -21.1939,84.77542 -9.4195,30.61335 -11.7743,28.25847 -23.5488,49.45233 -28.2584,25.90361 -58.8719,37.67796 -68.2913,-54.16207 -4.7097,-96.54979 z"
                 inkscape:path-effect="#path-effect3907"
                 id="path3932"
                 d="m 1262.2119,727.65572 42.3877,-14.12924 c 4.7894,-5.42578 9.4998,-10.92126 14.1292,-16.48411 8.9411,-10.74385 17.5802,-21.73904 25.9036,-32.96822 16.5908,-34.91775 32.2967,-70.25596 47.0975,-105.96928 12.5592,-30.30443 24.4686,-60.8841 35.3231,-91.84004 4.9283,-14.05511 9.6388,-28.18661 14.1292,-42.38771 l 14.1292,-11.77437 7.0647,-4.70974 11.7743,0 11.7744,4.70974 4.7097,9.41949 -18.8389,200.1642 c -5.5257,32.32429 -11.8077,64.51929 -18.839,96.54979 -6.2467,28.45592 -13.0875,56.79245 -21.1939,84.77542 -2.9709,10.25541 -6.1113,20.46172 -9.4195,30.61335 -3.7568,9.48833 -7.6823,18.90981 -11.7743,28.25847 -7.3221,16.72846 -15.177,33.22371 -23.5488,49.45233 l -28.2584,25.90361 -58.8719,37.67796 -68.2913,-54.16207 -4.7097,-96.54979 35.3231,-96.54979"
                 style="fill:#ffffff;stroke:#000000;stroke-width:40;stroke-linecap:round;stroke-linejoin:round;stroke-miterlimit:4;stroke-opacity:1;stroke-dasharray:none" />
            </g>
          </g>
          <g
             id="g3090">
            <g
               id="g3086">
              <path
                 sodipodi:type="arc"
                 style="fill:#f9f9f9;fill-opacity:1;stroke:none"
                 id="path3812"
                 sodipodi:cx="1018.4825"
                 sodipodi:cy="906.62604"
                 sodipodi:rx="217.82574"
                 sodipodi:ry="197.80933"
                 d="m 1236.3082,906.62604 c 0,109.24706 -97.5239,197.80936 -217.8257,197.80936 -120.30185,0 -217.82576,-88.5623 -217.82576,-197.80936 0,-109.24708 97.52391,-197.80933 217.82576,-197.80933 120.3018,0 217.8257,88.56225 217.8257,197.80933 z"
                 transform="matrix(1.4054054,0,0,1.375,-430.55985,-341.1622)" />
              <path
                 transform="matrix(1.4054054,0,0,1.375,-430.55985,-341.1622)"
                 d="m 1236.3082,906.62604 c 0,109.24706 -97.5239,197.80936 -217.8257,197.80936 -120.30185,0 -217.82576,-88.5623 -217.82576,-197.80936 0,-109.24708 97.52391,-197.80933 217.82576,-197.80933 120.3018,0 217.8257,88.56225 217.8257,197.80933 z"
                 sodipodi:ry="197.80933"
                 sodipodi:rx="217.82574"
                 sodipodi:cy="906.62604"
                 sodipodi:cx="1018.4825"
                 id="path3814"
                 style="fill:none;stroke:#000000;stroke-width:35.9681282;stroke-linecap:round;stroke-miterlimit:4;stroke-opacity:1;stroke-dasharray:none"
                 sodipodi:type="arc" />
            </g>
            <g
               id="g3866">
              <g
                 id="g3862">
                <path
                   transform="matrix(1.0984026,-0.08831444,0.09212905,1.0529231,-161.8142,23.510924)"
                   d="m 967.85275,891.3194 c 0,74.78222 -33.21084,135.4052 -74.17849,135.4052 -40.96766,0 -74.1785,-60.62298 -74.1785,-135.4052 0,-74.78223 33.21084,-135.4052 74.1785,-135.4052 40.96765,0 74.17849,60.62297 74.17849,135.4052 z"
                   sodipodi:ry="135.4052"
                   sodipodi:rx="74.178497"
                   sodipodi:cy="891.3194"
                   sodipodi:cx="893.67426"
                   id="path3822"
                   style="fill:#ffffff;fill-opacity:1;stroke:#000000;stroke-width:15;stroke-linecap:round;stroke-miterlimit:4;stroke-opacity:1;stroke-dasharray:none"
                   sodipodi:type="arc" />
                <path
                   d="m 937.23941,901.91632 c 0,41.61793 -15.28753,75.35593 -34.14566,75.35593 -18.85813,0 -34.14566,-33.738 -34.14566,-75.35593 0,-41.61793 15.28753,-75.35593 34.14566,-75.35593 18.85813,0 34.14566,33.738 34.14566,75.35593 z"
                   sodipodi:ry="75.355934"
                   sodipodi:rx="34.145657"
                   sodipodi:cy="901.91632"
                   sodipodi:cx="903.09375"
                   id="path3834"
                   style="fill:#000000;fill-opacity:1;stroke:#000000;stroke-width:15;stroke-linecap:round;stroke-miterlimit:4;stroke-opacity:1;stroke-dasharray:none"
                   sodipodi:type="arc" />
              </g>
              <g
                 id="g3858">
                <path
                   sodipodi:type="arc"
                   style="fill:#ffffff;fill-opacity:1;stroke:#000000;stroke-width:15;stroke-linecap:round;stroke-miterlimit:4;stroke-opacity:1;stroke-dasharray:none"
                   id="path3832"
                   sodipodi:cx="893.67426"
                   sodipodi:cy="891.3194"
                   sodipodi:rx="74.178497"
                   sodipodi:ry="135.4052"
                   d="m 967.85275,891.3194 c 0,74.78222 -33.21084,135.4052 -74.17849,135.4052 -40.96766,0 -74.1785,-60.62298 -74.1785,-135.4052 0,-74.78223 33.21084,-135.4052 74.1785,-135.4052 40.96765,0 74.17849,60.62297 74.17849,135.4052 z"
                   transform="matrix(-1.0984026,-0.08831444,-0.09212905,1.0529231,2163.6469,23.510924)" />
                <path
                   transform="translate(196,0)"
                   sodipodi:type="arc"
                   style="fill:#000000;fill-opacity:1;stroke:#000000;stroke-width:15;stroke-linecap:round;stroke-miterlimit:4;stroke-opacity:1;stroke-dasharray:none"
                   id="path3836"
                   sodipodi:cx="903.09375"
                   sodipodi:cy="901.91632"
                   sodipodi:rx="34.145657"
                   sodipodi:ry="75.355934"
                   d="m 937.23941,901.91632 c 0,41.61793 -15.28753,75.35593 -34.14566,75.35593 -18.85813,0 -34.14566,-33.738 -34.14566,-75.35593 0,-41.61793 15.28753,-75.35593 34.14566,-75.35593 18.85813,0 34.14566,33.738 34.14566,75.35593 z" />
              </g>
            </g>
          </g>
          <g
             id="g3886">
            <g
               id="g3805">
              <path
                 transform="matrix(1.1407568,0,0,1.1682613,-122.7483,-297.35966)"
                 d="m 1424.6981,1389.375 c 0,162.5701 -198.7379,294.3591 -443.89353,294.3591 -245.15563,0 -443.89353,-131.789 -443.89353,-294.3591 0,-162.5701 198.7379,-294.3591 443.89353,-294.3591 245.15563,0 443.89353,131.789 443.89353,294.3591 z"
                 sodipodi:ry="294.35913"
                 sodipodi:rx="443.89352"
                 sodipodi:cy="1389.375"
                 sodipodi:cx="980.80457"
                 id="path3777"
                 style="fill:#e7b56f;fill-opacity:1;stroke:none"
                 sodipodi:type="arc" />
              <g
                 id="g3809">
                <path
                   transform="matrix(1.1407568,0,0,1.1682613,-122.7483,-297.35966)"
                   d="m 1424.6981,1389.375 c 0,162.5701 -198.7379,294.3591 -443.89353,294.3591 -245.15563,0 -443.89353,-131.789 -443.89353,-294.3591 0,-162.5701 198.7379,-294.3591 443.89353,-294.3591 245.15563,0 443.89353,131.789 443.89353,294.3591 z"
                   sodipodi:ry="294.35913"
                   sodipodi:rx="443.89352"
                   sodipodi:cy="1389.375"
                   sodipodi:cx="980.80457"
                   id="path3775"
                   style="fill:none;stroke:#000000;stroke-width:60;stroke-miterlimit:4;stroke-opacity:1;stroke-dasharray:none"
                   sodipodi:type="arc" />
              </g>
            </g>
            <g
               id="g3797">
              <g
                 id="g3793">
                <path
                   sodipodi:type="arc"
                   style="fill:#ea7980;fill-opacity:1;stroke:none"
                   id="path3787"
                   sodipodi:cx="818.3183"
                   sodipodi:cy="1321.0837"
                   sodipodi:rx="100.08209"
                   sodipodi:ry="157.77649"
                   d="m 918.40039,1321.0837 c 0,87.1376 -44.80828,157.7765 -100.08209,157.7765 -55.27381,0 -100.08209,-70.6389 -100.08209,-157.7765 0,-87.1375 44.80828,-157.7764 100.08209,-157.7764 55.27381,0 100.08209,70.6389 100.08209,157.7764 z"
                   transform="matrix(1.0805715,0,0,1.140661,304.29249,-181.11525)" />
                <path
                   sodipodi:type="arc"
                   style="fill:none;stroke:#000000;stroke-width:48.02617645;stroke-linecap:round;stroke-miterlimit:4;stroke-opacity:1;stroke-dasharray:none"
                   id="path3781"
                   sodipodi:cx="720.59113"
                   sodipodi:cy="1328.1483"
                   sodipodi:rx="127.16313"
                   sodipodi:ry="216.6483"
                   d="m 847.75426,1328.1483 c 0,119.6516 -56.93288,216.6483 -127.16313,216.6483 -70.23026,0 -127.16314,-96.9967 -127.16314,-216.6483 0,-119.6515 56.93288,-216.6483 127.16314,-216.6483 70.23025,0 127.16313,96.9968 127.16313,216.6483 z"
                   transform="matrix(0.89938063,0,0,0.87572337,538.98959,165.05779)" />
              </g>
              <g
                 id="g3789">
                <path
                   transform="matrix(1.0805715,0,0,1.140661,-77.707509,-181.11525)"
                   d="m 918.40039,1321.0837 c 0,87.1376 -44.80828,157.7765 -100.08209,157.7765 -55.27381,0 -100.08209,-70.6389 -100.08209,-157.7765 0,-87.1375 44.80828,-157.7764 100.08209,-157.7764 55.27381,0 100.08209,70.6389 100.08209,157.7764 z"
                   sodipodi:ry="157.77649"
                   sodipodi:rx="100.08209"
                   sodipodi:cy="1321.0837"
                   sodipodi:cx="818.3183"
                   id="path3785"
                   style="fill:#ea7980;fill-opacity:1;stroke:none"
                   sodipodi:type="arc" />
                <path
                   transform="matrix(0.89938063,0,0,0.87572337,158.98959,165.05779)"
                   d="m 847.75426,1328.1483 c 0,119.6516 -56.93288,216.6483 -127.16313,216.6483 -70.23026,0 -127.16314,-96.9967 -127.16314,-216.6483 0,-119.6515 56.93288,-216.6483 127.16314,-216.6483 70.23025,0 127.16313,96.9968 127.16313,216.6483 z"
                   sodipodi:ry="216.6483"
                   sodipodi:rx="127.16313"
                   sodipodi:cy="1328.1483"
                   sodipodi:cx="720.59113"
                   id="path3783"
                   style="fill:none;stroke:#000000;stroke-width:48.02617645;stroke-linecap:round;stroke-miterlimit:4;stroke-opacity:1;stroke-dasharray:none"
                   sodipodi:type="arc" />
              </g>
            </g>
          </g>
        </g>
      </g>
    </g>
  </g>
</svg>
