<?xml version="1.0" encoding="UTF-8" standalone="no"?>
<svg
   xmlns:dc="http://purl.org/dc/elements/1.1/"
   xmlns:cc="http://creativecommons.org/ns#"
   xmlns:rdf="http://www.w3.org/1999/02/22-rdf-syntax-ns#"
   xmlns:svg="http://www.w3.org/2000/svg"
   xmlns="http://www.w3.org/2000/svg"
   xmlns:sodipodi="http://sodipodi.sourceforge.net/DTD/sodipodi-0.dtd"
   xmlns:inkscape="http://www.inkscape.org/namespaces/inkscape"
   version="1.0"
   width="381.22983"
   height="505.00266"
   viewBox="0 0 304.98386 404.00212"
   preserveAspectRatio="xMidYMid meet"
   id="svg2"
   inkscape:version="0.48.4 r9939"
   sodipodi:docname="boarding_beyond_logo_1x.svg">
  <defs
     id="defs42" />
  <sodipodi:namedview
     pagecolor="#ffffff"
     bordercolor="#666666"
     borderopacity="1"
     objecttolerance="10"
     gridtolerance="10"
     guidetolerance="10"
     inkscape:pageopacity="0"
     inkscape:pageshadow="2"
     inkscape:window-width="1920"
     inkscape:window-height="1057"
     id="namedview40"
     showgrid="false"
     fit-margin-top="0"
     fit-margin-left="0"
     fit-margin-right="0"
     fit-margin-bottom="0"
     inkscape:zoom="0.62933333"
     inkscape:cx="64.452628"
     inkscape:cy="-64.062497"
     inkscape:window-x="-8"
     inkscape:window-y="-8"
     inkscape:window-maximized="1"
     inkscape:current-layer="svg2" />
  <metadata
     id="metadata4">
Created by potrace 1.11, written by Peter Selinger 2001-2013
<rdf:RDF>
  <cc:Work
     rdf:about="">
    <dc:format>image/svg+xml</dc:format>
    <dc:type
       rdf:resource="http://purl.org/dc/dcmitype/StillImage" />
    <dc:title></dc:title>
  </cc:Work>
</rdf:RDF>
</metadata>
  <g
     id="g3081"
     transform="matrix(4.1919805,0,0,4.1919805,-139.27095,-431.77399)">
    <g
       id="g3075">
      <path
         style="fill:#000000;stroke:none"
         d="m 120.625,136.5625 c -2.87308,0 -4.62292,0.44654 -6.4375,1.65625 -6.95588,4.76327 -6.7946,13.76999 0.3125,19.0625 1.51215,1.13411 3.25192,1.59375 6.125,1.59375 11.41673,0 15.88844,-14.154 6.4375,-20.65625 -1.81458,-1.20971 -3.56442,-1.65625 -6.4375,-1.65625 z m -18.53125,33.96875 C 100.9375,170.64062 99.625,171.1875 97.5,172.25 c -4,1.875 -5.125,2.125 -6.5,0.75 -2.25,-2.25 -7.375,-3.125 -10.5,-1.75 -6.625,2.625 -8.75,12.25 -4.375,19.5 1.25,2.125 5,6 8.25,8.625 4.875,4.125 5.625,5.25 5,8 -1.75,6.875 -9.875,12 -16.75,10.625 -4.875,-1 -9.75,-5.625 -10.75,-10.125 -1.375,-6.125 -1.75,-6.625 -4.375,-6.625 -6,0 -3.75,11.25 3.625,17.875 5.5,5 11.375,6.625 18.875,5.375 l 5,-0.75 0,-0.125 c 4.57835,-0.2475 8.292386,-3.77114 8.78125,-8.28125 0.373942,4.16693 3.497938,7.56307 7.53125,8.34375 l 0,0.0625 6.5625,0.75 c 12.625,1.5 23,-6 24.375,-17.75 0.5,-5.25 0.375,-5.5 -2.75,-5.5 -2.5,0 -3.25,0.625 -3.25,2.75 0,4.625 -4.75,11 -9.625,13.125 -5.875,2.375 -12.75,0.625 -16.5,-4.25 -4.375,-5.375 -3.375,-8.625 4.75,-16.5 8.875,-8.5 10.875,-14.375 6.75,-19.875 -1.375,-1.875 -4,-4.125 -5.875,-5 -1.5,-0.75 -2.5,-1.07812 -3.65625,-0.96875 z"
         transform="scale(0.8,0.8)"
         id="path26"
         inkscape:connector-curvature="0" />
      <g
         id="g3070">
        <path
           d="m 40,105.2 c -9.2,6.3 -9,18.2 0.4,25.2 2,1.5 4.3,2.1 8.1,2.1 15.1,0 21,-18.7 8.5,-27.3 -2.4,-1.6 -4.7,-2.2 -8.5,-2.2 -3.8,0 -6.1,0.6 -8.5,2.2 z"
           id="path8"
           inkscape:connector-curvature="0"
           style="fill:#000000;stroke:none" />
        <path
           style="fill:#ffffff;stroke:none"
           inkscape:connector-curvature="0"
           id="path3046"
           d="m 43.360343,110.58478 c -5.564708,3.81062 -5.443736,11.00845 0.241943,15.24246 1.20972,0.90729 2.600897,1.27021 4.899363,1.27021 9.133379,0 12.702051,-11.31087 5.141306,-16.51267 -1.451663,-0.96777 -2.84284,-1.33069 -5.141306,-1.33069 -2.298466,0 -3.689643,0.36292 -5.141306,1.33069 z" />
      </g>
    </g>
    <path
       transform="scale(0.8,0.8)"
       id="rect3050"
       d="M 93.78125,215.34375 C 93.292386,219.85386 89.57835,223.3775 85,223.625 l 0,16.4375 c 0,5.07435 3.64473,9.15625 8.15625,9.15625 4.51152,0 8.15625,-4.0819 8.15625,-9.15625 l 0,-16.375 c -4.033312,-0.78068 -7.157308,-4.17682 -7.53125,-8.34375 z"
       style="fill:#ff0000;fill-opacity:1;fill-rule:evenodd;stroke:none"
       inkscape:connector-curvature="0" />
  </g>
</svg>
