<?xml version="1.0" encoding="UTF-8" standalone="no"?>
<svg
   xmlns:osb="http://www.openswatchbook.org/uri/2009/osb"
   xmlns:dc="http://purl.org/dc/elements/1.1/"
   xmlns:cc="http://creativecommons.org/ns#"
   xmlns:rdf="http://www.w3.org/1999/02/22-rdf-syntax-ns#"
   xmlns:svg="http://www.w3.org/2000/svg"
   xmlns="http://www.w3.org/2000/svg"
   xmlns:xlink="http://www.w3.org/1999/xlink"
   xmlns:sodipodi="http://sodipodi.sourceforge.net/DTD/sodipodi-0.dtd"
   xmlns:inkscape="http://www.inkscape.org/namespaces/inkscape"
   version="1.0"
   width="375.97913"
   height="374.99997"
   viewBox="0 0 300.7833 299.99998"
   preserveAspectRatio="xMidYMid meet"
   id="svg2"
   inkscape:version="0.48.4 r9939"
   sodipodi:docname="dolphin.svg"
   inkscape:export-filename="C:\git\UI-UX\Pictures\animal\dolphin.png"
   inkscape:export-xdpi="90"
   inkscape:export-ydpi="90">
  <defs
     id="defs18">
    <linearGradient
       id="linearGradient5255">
      <stop
         style="stop-color:#000080;stop-opacity:0.45549738;"
         offset="0"
         id="stop5257" />
      <stop
         id="stop5263"
         offset="0.84552848"
         style="stop-color:#000080;stop-opacity:1;" />
      <stop
         style="stop-color:#000080;stop-opacity:0;"
         offset="1"
         id="stop5259" />
    </linearGradient>
    <linearGradient
       id="linearGradient5245"
       osb:paint="solid">
      <stop
         style="stop-color:#000080;stop-opacity:1;"
         offset="0"
         id="stop5247" />
    </linearGradient>
    <radialGradient
       inkscape:collect="always"
       xlink:href="#linearGradient5255"
       id="radialGradient5261"
       cx="253.04555"
       cy="184.71927"
       fx="253.04555"
       fy="184.71927"
       r="170.41843"
       gradientTransform="matrix(0.88248463,0,0,0.88018649,-72.917161,-12.58741)"
       gradientUnits="userSpaceOnUse" />
  </defs>
  <sodipodi:namedview
     pagecolor="#ffffff"
     bordercolor="#666666"
     borderopacity="1"
     objecttolerance="10"
     gridtolerance="10"
     guidetolerance="10"
     inkscape:pageopacity="0"
     inkscape:pageshadow="2"
     inkscape:window-width="1920"
     inkscape:window-height="1057"
     id="namedview16"
     showgrid="false"
     inkscape:zoom="1.2586667"
     inkscape:cx="55.043608"
     inkscape:cy="180.34954"
     inkscape:window-x="-8"
     inkscape:window-y="-8"
     inkscape:window-maximized="1"
     inkscape:current-layer="svg2"
     fit-margin-top="0"
     fit-margin-left="0"
     fit-margin-right="0"
     fit-margin-bottom="0" />
  <metadata
     id="metadata4">
Created by potrace 1.11, written by Peter Selinger 2001-2013
<rdf:RDF>
  <cc:Work
     rdf:about="">
    <dc:format>image/svg+xml</dc:format>
    <dc:type
       rdf:resource="http://purl.org/dc/dcmitype/StillImage" />
    <dc:title></dc:title>
  </cc:Work>
</rdf:RDF>
</metadata>
  <rect
     style="fill:url(#radialGradient5261);fill-opacity:1;fill-rule:evenodd;stroke:none"
     id="rect3021"
     width="300.78329"
     height="299.99997"
     x="0"
     y="-5.6843419e-014"
     ry="60.925453" />
  <g
     id="g3012"
     style="fill:#00ffff"
     transform="translate(-45.360876,4.1203398)">
    <g
       id="g3003"
       style="fill:#00ffff">
      <path
         style="fill:#00ffff;stroke:none"
         inkscape:connector-curvature="0"
         id="path12"
         d="m 205.3,139.7 c -0.7,0.2 -1.3,1.5 -1.3,2.8 0,1.8 1.2,3.1 4.3,5 5.1,2.9 11.8,3.3 17.2,1.1 3.1,-1.3 3.9,-1.3 7,0 4.5,1.9 11.8,1.8 15.7,-0.2 2.8,-1.5 3.4,-1.5 6.9,0.1 7.1,3.3 17.7,0.9 21.3,-4.8 0.8,-1.3 0.7,-2.1 -0.7,-3.4 -1.6,-1.6 -1.8,-1.6 -4.8,0.6 -4.9,3.6 -10.6,3.9 -15.2,0.7 -2.1,-1.4 -4,-2.6 -4.2,-2.6 -0.2,0 -2.1,1.2 -4.2,2.6 -4.6,3.1 -10.4,2.9 -15.2,-0.5 l -3.1,-2.2 -3.7,2.5 c -4.9,3.4 -9.9,3.4 -14.7,0.1 -2,-1.4 -3.8,-2.5 -3.9,-2.4 -0.1,0 -0.8,0.3 -1.4,0.6 z" />
      <path
         style="fill:#00ffff;stroke:none"
         inkscape:connector-curvature="0"
         id="path14"
         d="m 248.5,158.2 c -4,3.1 -10.6,3.5 -15,0.9 -4.3,-2.5 -6.3,-2.7 -7.2,-0.6 -0.7,1.9 2.1,5.1 6.1,7.2 4,2.1 11.4,2.1 15.5,0 3,-1.5 3.5,-1.5 6.4,0 4.8,2.4 12.4,2.2 17.4,-0.7 4.8,-2.7 6.3,-5.5 4,-7.7 -1.3,-1.3 -1.9,-1.2 -5.3,1.1 -2.4,1.6 -5.2,2.6 -7.4,2.6 -3.3,0 -4.4,-0.5 -9.8,-3.7 -1.7,-1.1 -2.4,-0.9 -4.7,0.9 z" />
    </g>
    <g
       id="g3007"
       style="fill:#00ffff">
      <path
         style="fill:#00ffff;stroke:none"
         inkscape:connector-curvature="0"
         id="path8"
         d="m 141.7,70.5 c -5.1,1.9 -9.7,5.3 -9.7,7.1 0,0.8 2.2,2.8 4.8,4.4 2.7,1.6 5.4,4.1 6.2,5.4 1.2,2.3 0.9,2.8 -4.3,8.6 -6.3,7 -12.9,19.4 -15.4,29 -2.1,7.9 -2.3,25.2 -0.4,33 1.8,7.8 9.2,22.6 14.1,28.5 13.8,16.5 32.5,25.5 53.2,25.5 l 9.8,0 1.9,3.9 c 4.1,8 17.2,16.4 20.4,13.2 0.8,-0.8 1.2,-4.5 1.2,-10.4 0,-7.8 -0.4,-9.8 -2.3,-13.3 l -2.4,-4.1 2.3,-4.4 c 2.6,-5.1 3.7,-16.8 2,-21.2 -0.8,-2.1 -1.7,-2.8 -3.4,-2.5 -2.1,0.3 -2.2,0.7 -2.2,8.9 0,7.9 -0.2,9 -3.2,13.8 l -3.3,5.2 3,5.3 c 3.3,5.7 5.2,15.6 3.1,15.6 -2.1,0 -9.8,-8.6 -11,-12.3 -1.4,-4.2 -0.6,-4 -13.1,-3.8 -30.2,0.6 -56.1,-18.9 -63.5,-47.9 -2.1,-8.2 -2.1,-23.4 0,-31.5 2.4,-9.5 8.2,-19.9 15.2,-27.5 3.4,-3.7 6.3,-7.6 6.3,-8.6 0,-2.1 -3.2,-7.8 -6.2,-11.1 l -2,-2.2 4.3,-1.1 c 5.7,-1.6 12.1,-0.6 18.6,2.6 5,2.6 5.3,2.6 12,1.3 24.8,-4.8 46.3,4.8 55.9,25.2 1.6,3.3 3.9,6.3 5.6,7.3 3.1,1.9 3.6,3.7 1.4,5.5 -1.1,0.9 -2.8,0.7 -7.5,-0.9 -8.3,-2.8 -16.4,-3.5 -23.6,-2 -17.1,3.5 -30,14.8 -35.6,31.2 -1.7,5.2 -2,8 -1.7,16.5 0.3,9.6 0.6,10.6 4.5,18.2 l 4.1,8.1 -4.5,-3.3 c -9.7,-6.9 -15.1,-17.3 -16.5,-31.7 -0.2,-1.9 -0.9,-2.5 -2.8,-2.5 -2.1,0 -2.6,0.5 -2.8,3.3 -0.5,4.9 1.6,13.4 4.9,20 3.3,6.7 13.2,16.8 19.6,20.1 5.3,2.6 14.9,5.2 16.8,4.4 2.8,-1 1.7,-4.9 -2.2,-7.6 -4.9,-3.4 -8.8,-8.4 -12.1,-15.5 -2.4,-5 -2.7,-6.9 -2.7,-16.2 0,-9.5 0.3,-11.1 2.8,-16.2 9.6,-19.6 31.9,-28.4 51.2,-20.4 5.7,2.4 9.2,2 12.6,-1.3 4.3,-4.3 3.5,-11.4 -1.6,-14.1 -1.3,-0.7 -3.1,-3.1 -4.2,-5.3 -5.2,-11.8 -17.4,-22.8 -30.2,-27.4 -8.6,-3.2 -21.2,-4 -30.5,-2 -6.8,1.4 -6.9,1.4 -11.4,-1.1 -3.8,-2.1 -6.2,-2.7 -13.2,-2.9 -5.6,-0.2 -9.8,0.2 -12.3,1.2 z" />
      <path
         style="fill:#00ffff;stroke:none"
         inkscape:connector-curvature="0"
         id="path10"
         d="m 141.6,122.8 c -0.5,0.8 -6.6,17.3 -6.6,17.8 0,0.2 0.7,1 1.6,1.8 2,2 8.5,2.1 15.1,0.1 9.1,-2.7 20.5,-15.2 17.4,-18.9 -2.2,-2.6 -3.6,-1.9 -6.8,3.3 -1.9,3 -4.8,5.8 -7.4,7.4 -4.4,2.5 -11.9,4.4 -11.9,3.1 0,-0.4 1,-3.3 2.1,-6.5 1.2,-3.2 1.9,-6.5 1.6,-7.4 -0.7,-1.6 -4.2,-2.1 -5.1,-0.7 z" />
      <path
         sodipodi:type="arc"
         style="fill:#00ffff;fill-opacity:1;fill-rule:evenodd;stroke:none"
         id="path2997"
         sodipodi:cx="248.87447"
         sodipodi:cy="126.12553"
         sodipodi:rx="5.7600636"
         sodipodi:ry="5.7600636"
         d="m 254.63453,126.12553 c 0,3.18119 -2.57887,5.76006 -5.76006,5.76006 -3.1812,0 -5.76007,-2.57887 -5.76007,-5.76006 0,-3.1812 2.57887,-5.76007 5.76007,-5.76007 3.18119,0 5.76006,2.57887 5.76006,5.76007 z"
         transform="matrix(0.8,0,0,0.8,-3.1779661,-2.5423729)" />
    </g>
  </g>
</svg>
