<?xml version="1.0" encoding="UTF-8" standalone="no"?>
<svg
   xmlns:dc="http://purl.org/dc/elements/1.1/"
   xmlns:cc="http://creativecommons.org/ns#"
   xmlns:rdf="http://www.w3.org/1999/02/22-rdf-syntax-ns#"
   xmlns:svg="http://www.w3.org/2000/svg"
   xmlns="http://www.w3.org/2000/svg"
   xmlns:sodipodi="http://sodipodi.sourceforge.net/DTD/sodipodi-0.dtd"
   xmlns:inkscape="http://www.inkscape.org/namespaces/inkscape"
   version="1.0"
   width="400.000000pt"
   height="300.000000pt"
   viewBox="0 0 400.000000 300.000000"
   preserveAspectRatio="xMidYMid meet"
   id="svg2"
   inkscape:version="0.48.4 r9939"
   sodipodi:docname="elephant.svg"
   inkscape:export-filename="C:\git\UI-UX\Pictures\animal\elephant.png"
   inkscape:export-xdpi="90"
   inkscape:export-ydpi="90">
  <defs
     id="defs12" />
  <sodipodi:namedview
     pagecolor="#ffffff"
     bordercolor="#666666"
     borderopacity="1"
     objecttolerance="10"
     gridtolerance="10"
     guidetolerance="10"
     inkscape:pageopacity="0"
     inkscape:pageshadow="2"
     inkscape:window-width="640"
     inkscape:window-height="480"
     id="namedview10"
     showgrid="false"
     inkscape:zoom="0.62933333"
     inkscape:cx="250"
     inkscape:cy="187.5"
     inkscape:window-x="0"
     inkscape:window-y="0"
     inkscape:window-maximized="0"
     inkscape:current-layer="svg2" />
  <metadata
     id="metadata4">
Created by potrace 1.11, written by Peter Selinger 2001-2013
<rdf:RDF>
  <cc:Work
     rdf:about="">
    <dc:format>image/svg+xml</dc:format>
    <dc:type
       rdf:resource="http://purl.org/dc/dcmitype/StillImage" />
    <dc:title></dc:title>
  </cc:Work>
</rdf:RDF>
</metadata>
  <g
     id="g3020">
    <rect
       ry="55.932201"
       y="68.644066"
       x="103.62374"
       height="163.98306"
       width="200.84746"
       id="rect3018"
       style="fill:#800080;fill-opacity:1;fill-rule:evenodd;stroke:none" />
    <path
       id="rect2993"
       transform="scale(0.8,0.8)"
       d="M 240.21875 110.3125 C 231.29493 110.3769 226.46875 110.84375 222.625 111.875 C 207.5 116.125 196.375 125.25 190.25 138.5 C 187.5 144.5 186.875 147.375 187 156.25 C 187 170.375 191 179.75 201.375 189.25 C 222.25 208.625 252.375 204.75 258.75 181.875 C 260.625 175.125 260 171.875 256.875 171.875 C 255.125 171.875 254 173.375 252.5 178.125 C 249.75 187.25 248 189.75 242.25 192.625 C 238 194.75 235.5 195.25 228.875 194.75 C 214.75 193.75 204 186.375 197.5 173.5 C 194.25 167 193.75 164.5 193.75 156.375 C 193.75 145 197 137 204.5 129.625 C 215.125 119 228.25 115.5 253.625 116.5 C 274 117.375 281.5 120 291.375 129.875 C 302.25 140.75 302.875 143.375 303.5 181.375 C 303.75 201.25 303.5 216 302.625 220.625 C 298.875 240.5 285.625 253.375 267.375 254.75 C 253.25 255.75 245.25 249.625 244 237.125 C 243 226.875 249.5 218.75 258.75 218.75 C 265.125 218.75 268.75 222.25 271.75 231.5 C 272.125 232.75 273.625 233.75 275 233.75 C 278.375 233.75 278.375 227.125 275 221.5 C 268.625 211.125 253.25 209.25 243.875 217.875 C 240.125 221.375 236.375 229.5 236.25 234.25 C 236.125 246.25 246 258.625 257.625 261.25 C 276.25 265.375 298.625 252.375 306.5 232.75 C 309.125 226 309.375 223.75 309.75 189.75 C 310.125 159.875 309.875 152.5 308.125 146 C 304.375 131.125 293.875 119.625 278.75 113.5 C 272.75 111.125 269 110.75 250.625 110.375 C 246.625 110.3125 243.19336 110.291 240.21875 110.3125 z M 284.4375 168.4375 C 280.92722 168.4375 278.0625 171.27097 278.0625 174.78125 C 278.0625 178.29153 280.92722 181.15625 284.4375 181.15625 C 287.94778 181.15625 290.78125 178.29153 290.78125 174.78125 C 290.78125 171.27097 287.94778 168.4375 284.4375 168.4375 z "
       style="fill:#00ffff;fill-opacity:1;fill-rule:evenodd;stroke:none" />
  </g>
</svg>
