<?xml version="1.0" encoding="UTF-8" standalone="no"?>
<svg
   xmlns:dc="http://purl.org/dc/elements/1.1/"
   xmlns:cc="http://creativecommons.org/ns#"
   xmlns:rdf="http://www.w3.org/1999/02/22-rdf-syntax-ns#"
   xmlns:svg="http://www.w3.org/2000/svg"
   xmlns="http://www.w3.org/2000/svg"
   xmlns:sodipodi="http://sodipodi.sourceforge.net/DTD/sodipodi-0.dtd"
   xmlns:inkscape="http://www.inkscape.org/namespaces/inkscape"
   version="1.0"
   width="812.98627"
   height="821.56305"
   viewBox="0 0 650.38902 657.25044"
   preserveAspectRatio="xMidYMid meet"
   id="svg2"
   inkscape:version="0.48.4 r9939"
   sodipodi:docname="haired.svg"
   inkscape:export-filename="C:\git\UI-UX\Pictures\animal\haired.png"
   inkscape:export-xdpi="90"
   inkscape:export-ydpi="90">
  <defs
     id="defs26" />
  <sodipodi:namedview
     pagecolor="#ffffff"
     bordercolor="#666666"
     borderopacity="1"
     objecttolerance="10"
     gridtolerance="10"
     guidetolerance="10"
     inkscape:pageopacity="0"
     inkscape:pageshadow="2"
     inkscape:window-width="1920"
     inkscape:window-height="1057"
     id="namedview24"
     showgrid="false"
     inkscape:zoom="0.22250293"
     inkscape:cx="586.40925"
     inkscape:cy="471.84949"
     inkscape:window-x="-8"
     inkscape:window-y="-8"
     inkscape:window-maximized="1"
     inkscape:current-layer="svg2"
     fit-margin-top="0"
     fit-margin-left="0"
     fit-margin-right="0"
     fit-margin-bottom="0" />
  <metadata
     id="metadata4">
Created by potrace 1.11, written by Peter Selinger 2001-2013
<rdf:RDF>
  <cc:Work
     rdf:about="">
    <dc:format>image/svg+xml</dc:format>
    <dc:type
       rdf:resource="http://purl.org/dc/dcmitype/StillImage" />
    <dc:title></dc:title>
  </cc:Work>
</rdf:RDF>
</metadata>
  <g
     id="g3863"
     transform="matrix(4.258577,0,0,4.258577,-533.30234,-316.04976)">
    <g
       id="g3836">
      <g
         id="g3832"
         style="fill:#800080">
        <path
           d="m 165.5,75.7 -5,1.6 3.5,0.9 c 1.9,0.5 5.2,1.4 7.3,1.9 2.1,0.6 5.7,2.7 7.9,4.7 l 4.1,3.7 -6.2,0.7 c -3.9,0.4 -7.9,1.7 -10.6,3.3 -6.2,3.6 -6.5,4.6 -1.1,3.9 7.3,-1 11,0.3 19.8,6.9 l 8.3,6.2 7,0 7.1,0 8.3,-6.2 c 8.8,-6.7 12.4,-7.9 19.8,-6.9 4,0.5 4.4,0.4 3.2,-1 -2.3,-2.8 -9,-5.5 -15.2,-6.2 l -6,-0.7 4.1,-3.7 c 2.2,-2 5.8,-4.1 7.9,-4.7 2.1,-0.5 5.4,-1.4 7.3,-1.8 l 3.5,-0.9 -5.3,-1.8 c -9.2,-3.1 -14.9,-1.3 -26.9,8.5 -3.9,3.3 -7.4,5.9 -7.8,5.9 -0.4,0 -3.6,-2.5 -7.2,-5.5 C 182,74.9 174.9,72.6 165.5,75.7 z"
           id="path8"
           inkscape:connector-curvature="0"
           style="fill:#800080;fill-opacity:1;stroke:none" />
        <path
           d="m 181,131.1 c -4.1,3.4 -9.9,7.3 -12.9,8.7 -4.6,2.1 -6.3,2.4 -13,1.9 -4.2,-0.2 -8.5,-0.8 -9.6,-1.2 -3.7,-1.3 4.8,5.5 10.3,8.2 3.8,1.8 7.6,2.8 13.4,3.2 l 8.2,0.6 -5.3,4.7 c -5.2,4.7 -13.7,8.7 -18.9,8.9 -1.5,0.1 -3.8,0.4 -5.2,0.9 -2.5,0.7 -2.5,0.8 1.2,2.3 6.6,3 12.7,3.9 18.1,2.7 4.7,-1 5,-0.9 9,2.4 7,5.7 10.2,6.8 16.6,6.2 7,-0.7 8.2,-0.7 15.2,0 6.4,0.6 9.6,-0.5 16.6,-6.2 4.1,-3.3 4.3,-3.4 9.2,-2.3 5.3,1.1 14,-0.4 19.9,-3.5 2.6,-1.4 2.6,-1.4 -3.3,-2.1 -8.6,-1.1 -15.6,-4 -20.9,-8.6 -2.5,-2.2 -4.6,-4.4 -4.6,-4.9 0,-0.4 3.3,-1 7.4,-1.2 5.3,-0.4 9,-1.3 12.8,-3.1 5.5,-2.7 14,-9.5 10.3,-8.2 -1.1,0.4 -5.4,1 -9.6,1.2 -6.7,0.5 -8.4,0.2 -13,-1.9 -3,-1.4 -8.8,-5.3 -12.9,-8.7 l -7.5,-6.1 -1,3.1 c -1.7,4.9 -5.8,7.9 -11,7.9 -5.2,0 -9.3,-3 -11,-7.9 l -1,-3.1 -7.5,6.1 z m 29,27 c 4.7,3.8 9.7,7.8 11.3,8.7 3.5,2.1 3.4,2.8 -0.3,4.1 -4.9,1.6 -8.8,0.2 -14.8,-5.4 l -5.6,-5.2 -4.9,4.8 c -5.9,5.9 -10.3,7.5 -15.2,5.9 -4.2,-1.4 -4.3,-2.1 -0.7,-4.2 1.5,-0.9 6.5,-4.8 11.2,-8.7 4.7,-3.9 9,-7.1 9.5,-7.1 0.6,0 4.9,3.2 9.5,7.1 z"
           id="path10"
           inkscape:connector-curvature="0"
           style="fill:#800080;fill-opacity:1;stroke:none" />
      </g>
      <g
         id="g3798">
        <path
           transform="matrix(1.0476191,0,0,1.0476191,354.09218,-56.139102)"
           d="m -134.26789,173.31726 c 0,6.51563 -5.28197,11.7976 -11.7976,11.7976 -6.51563,0 -11.7976,-5.28197 -11.7976,-11.7976 0,-6.51563 5.28197,-11.7976 11.7976,-11.7976 6.51563,0 11.7976,5.28197 11.7976,11.7976 z"
           sodipodi:ry="11.797597"
           sodipodi:rx="11.797597"
           sodipodi:cy="173.31726"
           sodipodi:cx="-146.06549"
           id="path3794"
           style="fill:#ff6600;fill-opacity:1;fill-rule:evenodd;stroke:none"
           sodipodi:type="arc" />
        <path
           sodipodi:type="arc"
           style="fill:#f9a01b;fill-opacity:1;fill-rule:evenodd;stroke:none"
           id="path3796"
           sodipodi:cx="-146.06549"
           sodipodi:cy="173.31726"
           sodipodi:rx="11.797597"
           sodipodi:ry="11.797597"
           d="m -134.26789,173.31726 c 0,6.51563 -5.28197,11.7976 -11.7976,11.7976 -6.51563,0 -11.7976,-5.28197 -11.7976,-11.7976 0,-6.51563 5.28197,-11.7976 11.7976,-11.7976 6.51563,0 11.7976,5.28197 11.7976,11.7976 z"
           transform="matrix(0.51428576,0,0,0.51428576,278.43774,38.993367)" />
      </g>
      <g
         id="g3802">
        <path
           sodipodi:type="arc"
           style="fill:#ff6600;fill-opacity:1;fill-rule:evenodd;stroke:none"
           id="path3804"
           sodipodi:cx="-146.06549"
           sodipodi:cy="173.31726"
           sodipodi:rx="11.797597"
           sodipodi:ry="11.797597"
           d="m -134.26789,173.31726 c 0,6.51563 -5.28197,11.7976 -11.7976,11.7976 -6.51563,0 -11.7976,-5.28197 -11.7976,-11.7976 0,-6.51563 5.28197,-11.7976 11.7976,-11.7976 6.51563,0 11.7976,5.28197 11.7976,11.7976 z"
           transform="matrix(1.0476191,0,0,1.0476191,354.09218,-56.139102)" />
        <path
           transform="matrix(0.51428576,0,0,0.51428576,278.43774,38.993367)"
           d="m -134.26789,173.31726 c 0,6.51563 -5.28197,11.7976 -11.7976,11.7976 -6.51563,0 -11.7976,-5.28197 -11.7976,-11.7976 0,-6.51563 5.28197,-11.7976 11.7976,-11.7976 6.51563,0 11.7976,5.28197 11.7976,11.7976 z"
           sodipodi:ry="11.797597"
           sodipodi:rx="11.797597"
           sodipodi:cy="173.31726"
           sodipodi:cx="-146.06549"
           id="path3806"
           style="fill:#f9a01b;fill-opacity:1;fill-rule:evenodd;stroke:none"
           sodipodi:type="arc" />
      </g>
      <g
         id="g3822"
         transform="matrix(0.54545455,0,0,0.54545455,102.79627,55.213981)">
        <path
           sodipodi:type="arc"
           style="fill:#313094;fill-opacity:1;fill-rule:evenodd;stroke:none"
           id="path3816"
           sodipodi:cx="-146.06549"
           sodipodi:cy="173.31726"
           sodipodi:rx="11.797597"
           sodipodi:ry="11.797597"
           d="m -134.26789,173.31726 c 0,6.51563 -5.28197,11.7976 -11.7976,11.7976 -6.51563,0 -11.7976,-5.28197 -11.7976,-11.7976 0,-6.51563 5.28197,-11.7976 11.7976,-11.7976 6.51563,0 11.7976,5.28197 11.7976,11.7976 z"
           transform="matrix(1.0476191,0,0,1.0476191,384.49218,-68.939102)" />
        <path
           transform="matrix(0.51428576,0,0,0.51428576,308.83774,26.193367)"
           d="m -134.26789,173.31726 c 0,6.51563 -5.28197,11.7976 -11.7976,11.7976 -6.51563,0 -11.7976,-5.28197 -11.7976,-11.7976 0,-6.51563 5.28197,-11.7976 11.7976,-11.7976 6.51563,0 11.7976,5.28197 11.7976,11.7976 z"
           sodipodi:ry="11.797597"
           sodipodi:rx="11.797597"
           sodipodi:cy="173.31726"
           sodipodi:cx="-146.06549"
           id="path3818"
           style="fill:#00aeef;fill-opacity:1;fill-rule:evenodd;stroke:none"
           sodipodi:type="arc" />
      </g>
      <g
         transform="matrix(0.54545455,0,0,0.54545455,45.19627,55.213981)"
         id="g3826">
        <path
           transform="matrix(1.0476191,0,0,1.0476191,384.49218,-68.939102)"
           d="m -134.26789,173.31726 c 0,6.51563 -5.28197,11.7976 -11.7976,11.7976 -6.51563,0 -11.7976,-5.28197 -11.7976,-11.7976 0,-6.51563 5.28197,-11.7976 11.7976,-11.7976 6.51563,0 11.7976,5.28197 11.7976,11.7976 z"
           sodipodi:ry="11.797597"
           sodipodi:rx="11.797597"
           sodipodi:cy="173.31726"
           sodipodi:cx="-146.06549"
           id="path3828"
           style="fill:#313094;fill-opacity:1;fill-rule:evenodd;stroke:none"
           sodipodi:type="arc" />
        <path
           sodipodi:type="arc"
           style="fill:#00aeef;fill-opacity:1;fill-rule:evenodd;stroke:none"
           id="path3830"
           sodipodi:cx="-146.06549"
           sodipodi:cy="173.31726"
           sodipodi:rx="11.797597"
           sodipodi:ry="11.797597"
           d="m -134.26789,173.31726 c 0,6.51563 -5.28197,11.7976 -11.7976,11.7976 -6.51563,0 -11.7976,-5.28197 -11.7976,-11.7976 0,-6.51563 5.28197,-11.7976 11.7976,-11.7976 6.51563,0 11.7976,5.28197 11.7976,11.7976 z"
           transform="matrix(0.51428576,0,0,0.51428576,308.83774,26.193367)" />
      </g>
    </g>
    <flowRoot
       transform="matrix(1.2494323,0,0,1.2494323,-6.4784743,-129.09943)"
       style="font-size:40px;font-style:normal;font-variant:normal;font-weight:normal;font-stretch:normal;line-height:125%;letter-spacing:0px;word-spacing:0px;fill:#000080;fill-opacity:1;stroke:none;font-family:a_LCDNovaObl;-inkscape-font-specification:a_LCDNovaObl"
       id="flowRoot3853"
       xml:space="preserve"><flowRegion
         id="flowRegion3855"><rect
           style="fill:#000080"
           y="236.23778"
           x="103.36942"
           height="66.85305"
           width="283.70413"
           id="rect3857" /></flowRegion><flowPara
         id="flowPara3859">haired</flowPara></flowRoot>  </g>
</svg>
