<?xml version="1.0" encoding="UTF-8" standalone="no"?>
<svg
   xmlns:dc="http://purl.org/dc/elements/1.1/"
   xmlns:cc="http://creativecommons.org/ns#"
   xmlns:rdf="http://www.w3.org/1999/02/22-rdf-syntax-ns#"
   xmlns:svg="http://www.w3.org/2000/svg"
   xmlns="http://www.w3.org/2000/svg"
   xmlns:sodipodi="http://sodipodi.sourceforge.net/DTD/sodipodi-0.dtd"
   xmlns:inkscape="http://www.inkscape.org/namespaces/inkscape"
   version="1.0"
   width="400.000000pt"
   height="300.000000pt"
   viewBox="0 0 400.000000 300.000000"
   preserveAspectRatio="xMidYMid meet"
   id="svg2"
   inkscape:version="0.48.5 r10040"
   sodipodi:docname="silverback_1x.svg">
  <defs
     id="defs16" />
  <sodipodi:namedview
     pagecolor="#ffffff"
     bordercolor="#666666"
     borderopacity="1"
     objecttolerance="10"
     gridtolerance="10"
     guidetolerance="10"
     inkscape:pageopacity="0"
     inkscape:pageshadow="2"
     inkscape:window-width="1920"
     inkscape:window-height="1017"
     id="namedview14"
     showgrid="false"
     inkscape:zoom="3.5600469"
     inkscape:cx="200.56245"
     inkscape:cy="187.5"
     inkscape:window-x="-8"
     inkscape:window-y="-8"
     inkscape:window-maximized="1"
     inkscape:current-layer="svg2" />
  <metadata
     id="metadata4">
Created by potrace 1.11, written by Peter Selinger 2001-2013
<rdf:RDF>
  <cc:Work
     rdf:about="">
    <dc:format>image/svg+xml</dc:format>
    <dc:type
       rdf:resource="http://purl.org/dc/dcmitype/StillImage" />
    <dc:title></dc:title>
  </cc:Work>
</rdf:RDF>
</metadata>
  <g
     id="g3024">
    <path
       transform="scale(0.8,0.8)"
       inkscape:connector-curvature="0"
       id="path3006"
       d="m 310.64619,106.06462 -31.38242,90.96928 36.54661,62.76483 52.83369,-0.39725 25.42373,-61.17584 -22.64301,-92.16102 z"
       style="fill:#000000;stroke:#000000;stroke-width:1px;stroke-linecap:butt;stroke-linejoin:miter;stroke-opacity:1" />
    <path
       transform="scale(0.8,0.8)"
       id="rect2996"
       d="M 361.09375 119.84375 C 360.79688 119.78125 360.4375 120.15625 359.875 120.90625 C 359.125 122.15625 358.375 122.28125 357.875 121.53125 C 356.625 119.90625 328.875 119.65625 321.75 121.15625 C 318 121.90625 316.375 123.03125 315.75 124.90625 C 315.375 126.40625 315.375 127.90625 315.625 128.28125 C 316 128.53125 316.25 128.15625 316.25 127.40625 C 316.25 126.65625 317 126.15625 317.875 126.53125 C 318.625 126.78125 322.875 127.28125 327.125 127.65625 C 331.25 128.03125 336.25 128.90625 338 129.65625 C 340.375 130.53125 343.875 130.28125 350.25 128.90625 C 360.375 126.65625 363.25 124.78125 362 121.40625 C 361.625 120.40625 361.39062 119.90625 361.09375 119.84375 z M 318.3125 134.78125 C 315.02484 134.95868 313.75 136.71094 313.75 140.15625 C 313.75 143.90625 314 144.15625 318.5 144.28125 C 325.75 144.28125 333.25 146.28125 339.125 149.65625 C 340.75 150.65625 341.875 150.53125 343.25 149.03125 C 344.375 148.03125 346.625 146.90625 348.5 146.40625 C 350.375 146.03125 352.875 145.15625 354.125 144.53125 C 355.375 143.78125 357.5 143.65625 358.875 144.03125 C 360.125 144.53125 362.5 143.90625 364 142.90625 C 365.5 141.78125 366.125 140.90625 365.25 140.90625 C 364.25 140.90625 363.75 139.78125 364 138.15625 C 364.25 135.90625 363.625 135.40625 360.125 135.03125 C 355 134.40625 343.5 137.03125 344.5 138.53125 C 345.625 140.53125 338.125 139.78125 330 137.15625 C 324.64062 135.46094 320.86957 134.64325 318.3125 134.78125 z M 357.9375 152.59375 C 355.58404 152.70894 353.13281 153.64844 348.375 155.78125 C 341.5 158.90625 339 159.53125 334.625 158.90625 C 331.75 158.40625 328.25 157.15625 326.875 155.90625 C 325.5 154.78125 323.25 153.53125 321.875 153.28125 C 318 152.53125 310.75 153.40625 309.375 154.90625 C 308.5 155.90625 308.75 155.90625 310 155.28125 C 311.625 154.28125 311.625 154.53125 310.25 156.15625 C 308.125 158.90625 307.25 171.03125 309.125 173.40625 C 312.5 177.65625 314.875 178.78125 316.875 177.15625 C 319.5 174.90625 319.25 171.53125 316.125 169.40625 C 313.625 167.78125 313.5 167.40625 315.125 163.90625 C 317.625 158.90625 321.125 159.03125 331.25 164.90625 L 339.625 169.78125 L 348.125 163.90625 C 355.375 158.78125 357 158.15625 359.875 159.15625 C 363.5 160.53125 363.625 163.65625 360.375 167.40625 C 358.5 169.40625 358.625 169.90625 360.625 172.15625 C 363.25 175.03125 365.125 174.03125 367.5 168.40625 C 368.375 166.40625 369.5 165.03125 370.125 165.40625 C 371.875 166.40625 371.375 163.15625 369 158.40625 C 367.25 154.90625 365.875 153.78125 361.875 153.03125 C 360.78125 152.78125 359.8418 152.63672 358.9375 152.59375 C 358.59839 152.57764 358.27371 152.57729 357.9375 152.59375 z M 351.25 176.65625 L 345.375 180.78125 C 341.875 183.28125 339.375 184.40625 338.875 183.53125 C 338.375 182.78125 335.125 181.53125 331.5 180.53125 C 327.875 179.65625 325.375 178.53125 325.75 178.03125 C 326.25 177.53125 326.375 177.15625 325.875 177.15625 C 325.5 177.15625 324.75 177.65625 324.375 178.40625 C 324 179.03125 324 179.65625 324.625 179.65625 C 325.125 179.65625 324.375 180.53125 322.875 181.53125 C 316.125 186.28125 318.75 196.40625 328.125 200.90625 C 334.75 204.15625 335.625 207.65625 330.375 209.90625 C 325.375 212.03125 320 215.90625 320 217.28125 C 320 218.03125 324.25 218.15625 331.125 217.65625 C 340.625 217.03125 343.5 217.28125 350 219.53125 C 354.25 221.03125 358.125 221.90625 358.625 221.53125 C 359.25 221.28125 360 219.53125 360.25 217.78125 C 360.75 215.15625 360.25 214.53125 356.375 213.28125 C 347.875 210.53125 346.625 207.65625 352 203.03125 C 353.875 201.53125 356.875 198.15625 358.75 195.53125 C 363.125 189.65625 362.375 185.78125 355.875 180.40625 L 351.25 176.65625 z M 331.1875 184.8125 C 332.19687 184.80069 333.26562 185.53906 335.375 187.15625 C 339.125 190.15625 341 190.28125 344.25 187.78125 C 347.75 185.15625 352.125 185.40625 353.75 188.40625 C 354.875 190.53125 354.5 191.53125 351.625 194.15625 C 349.75 196.03125 346.875 197.90625 345.375 198.53125 C 343.75 199.15625 342.5 200.40625 342.5 201.53125 C 342.5 204.15625 340.875 203.90625 339.125 201.03125 C 338.375 199.78125 336.125 198.28125 334.125 197.90625 C 326.5 195.90625 323.625 190.15625 328.5 186.15625 C 329.64844 185.28125 330.40244 184.82169 331.1875 184.8125 z "
       style="fill:#ffffff;fill-opacity:1;stroke:none" />
  </g>
  <g
     id="g3018">
    <g
       style="fill:#ffffff"
       id="g3014">
      <rect
         style="fill:#ffffff;fill-opacity:1;stroke:none"
         id="rect3010"
         width="48.089256"
         height="93.257202"
         x="91.908897"
         y="99.553207" />
      <rect
         y="85.729202"
         x="-168.20399"
         height="63.369957"
         width="48.089256"
         id="rect3012"
         style="fill:#ffffff;fill-opacity:1;stroke:none"
         transform="matrix(0,-1,1,0,0,0)" />
    </g>
    <path
       sodipodi:nodetypes="ccccsscccccccccccccccccccssccccccccccccccccccsccscccscscccssccccccccccssscccccsccsccscscsccsccccsccccscccscccccccccccccc"
       d="m 117.60847,83.92881 c -0.6,0.4 -5.2,0.5 -10.2,0.3 -10.499995,-0.5 -9.899995,-0.9 -19.499995,12.5 -2.9,4.1 -5.7,7.6 -6.1,7.8 -0.5,0.2 -0.8,1.9 -0.8,3.8 0,1.9 -0.5,3.4 -1,3.4 -0.6,0 -0.9,3 -0.6,8 0.4,7.4 0.3,8 -1.7,8.7 -1.2,0.4 -2.6,0.6 -3.1,0.4 -0.8,-0.2 -0.2,17.8 0.9,24.9 0.2,1.4 0.4,3.2 0.4,4 9.587616,0.98481 1.462756,-2.30487 4.5,0.7 0.8,0.5 1.5,3.7 1.9,9.1 0.4,6.5 0.9,8.7 2.4,9.7 1,0.9 1.3,1.4 0.6,1.5 2.582293,2.91619 3.223936,11.44811 7,13.8 0.29325,2.15487 2.585199,3.59331 3.1,4.9 0.3,1 2,3.2 3.6,5 1.699995,1.8 2.899995,3.8 2.799995,4.5 -0.4,1.8 6.9,1.9 8.7,0.2 4.49659,0.89659 4.62812,0.44716 7.8,0 0.4,1 1.6,1.2 4.8,0.6 2.4,-0.5 5.8,-0.6 7.6,-0.3 2.8,0.5 3.4,0.2 4.2,-2 0.5,-1.4 1.5,-2.8 2,-3.2 0.6,-0.3 1.1,-1.5 1.1,-2.5 0,-1 2.7,-7.2 5.9,-13.7 3.2,-6.5 6.2,-13 6.5,-14.6 0.98763,-3.93861 1.73639,-5.37461 3,-8.3 -0.6,-4.4 -0.4,-5.5 0.7,-5.4 0.8,0.1 1.9,0.2 2.5,0.1 1.3,-0.1 3.1,-8.8 3.9,-19 0.5,-6.8 0.4,-7.3 -1.4,-6.8 -6.13677,-0.94909 -4.03006,-12.88905 -3.7,-23.8 l 0.3,-6.9 -4.2,-4.1 c -2.3,-2.2 -5.4,-5.9 -6.9,-8.3 -1.4,-2.3 -2.7,-4.3 -2.9,-4.3 -1.2,-0.6 -23.2,-1.2 -24.1,-0.7 z m 19.9,19.9 c 1.3,3.9 -0.4,5.1 -8.8,6.4 -3,0.5 -8.6,3.3 -10,5 -0.6,0.7 -1,0.6 -1.3,-0.1 -0.4,-0.9 -1.3,-0.9 -3.2,-0.2 -2.1,0.8 -4.3,0.5 -10.2,-1.5 -6.899995,-2.4 -7.499995,-2.8 -7.499995,-5.4 0,-3.1 -0.4,-3 19.999995,-4.8 4.4,-0.4 8.1,-0.8 8.2,-1 0.2,-0.1 3,-0.1 6.3,-0.1 4.7,0 6.1,0.4 6.5,1.7 z m 1,9.8 c -0.3,0.5 -0.1,1.2 0.5,1.6 0.5,0.3 1,2.1 1,3.9 0,2.7 -0.6,3.5 -3.6,4.9 -1.9,1 -3.3,1.3 -3,0.8 0.3,-0.5 -0.1,-1.1 -0.9,-1.5 -1.3,-0.5 -1.9,0.5 -1.7,2.6 0.1,0.3 -0.5,1.2 -1.3,1.8 -1.1,0.9 -1.5,0.9 -1.5,0.1 0,-0.6 0.5,-1.1 1.2,-1.1 0.6,0 0.9,-0.3 0.6,-0.6 -0.4,-0.3 -2,0.1 -3.6,1 -3.9,2 -13.6,3.5 -15.6,2.4 -0.8,-0.5 -1.7,-0.4 -2.1,0.2 -0.9,1.4 -4.6,1.3 -4.2,-0.2 0.2,-1.1 -2.1,-1.9 -8.399995,-3.2 -2.1,-0.5 -2.5,-1.1 -2.3,-3.3 0.1,-1.6 0.2,-3.3 0.3,-3.9 0.1,-0.8 2.6,-0.6 8.399995,0.8 10.6,2.6 16.9,2.5 21,-0.4 4.6,-3.3 7.7,-4.8 9.8,-4.8 1.1,0 1.9,-0.5 1.9,-1 0,-0.6 0.9,-1 2.1,-1 1.1,0 1.8,0.4 1.4,0.9 z m 4.9,20.2 c 0.5,3.2 0.3,4.4 -1,5.4 -1.1,0.7 -1.4,1.7 -0.9,2.5 0.6,1 0.4,1.2 -0.8,0.7 -1.2,-0.4 -1.7,-0.1 -1.7,1.1 0,1.5 -0.2,1.5 -1,0.2 -1.1,-1.7 -1,-2 -1.6,4.5 -0.2,2.7 -0.6,6.1 -0.8,7.5 -0.2,1.4 -0.5,3.6 -0.5,4.9 -0.1,2 -0.4,2.2 -2.8,1.6 -3.8,-0.9 -4.3,-2 -4.3,-10.1 0,-10.5 0.7,-12.9 4.3,-14.8 2.6,-1.3 2.7,-1.5 0.7,-1 -1.6,0.4 -2.2,0.3 -1.5,-0.3 2,-2 9,-6.3 10.1,-6.3 0.6,0 1.4,1.9 1.8,4.1 z m -22.2,2.6 c 0.2,1 0.3,6.3 0.3,11.7 0,7.5 -0.3,10 -1.4,10.4 -1,0.3 -1,0.6 -0.1,1.2 0.8,0.5 0.5,0.9 -0.9,1.3 -1.2,0.3 -1.9,0.1 -1.5,-0.4 0.3,-0.5 -0.2,-0.9 -1,-0.9 -2.4,0 -2.7,-1.4 -3.3,-12.9 -0.6,-10.9 -0.6,-10.9 1.8,-11.4 4.7,-0.9 5.7,-0.7 6.1,1 z m -22.199995,2 c 2.999995,1.5 5.599995,2.8 5.699995,2.8 0.1,0 0.5,4.3 0.8,9.5 l 0.6,9.5 -2.9,1.7 c -1.7,1 -3.2,1.8 -3.499995,1.8 -0.2,0 -0.7,-3.1 -1.1,-6.9 -0.8,-8.9 -2.1,-12.5 -4.2,-11.7 -3.5,1.4 -5.6,-3.3 -3.4,-7.5 1.4,-2.4 1.4,-2.4 8,0.8 z m 33.299995,35 c 4.3,1.9 4.4,2.4 1.6,6.9 -2.1,3.5 -3.3,4.1 -4.4,2.4 -0.3,-0.5 -2.6,-2.1 -5,-3.6 -3.9,-2.3 -4.9,-2.4 -7.8,-1.5 -1.8,0.6 -4.8,2.7 -6.7,4.6 -3.5,3.6 -4.3,3.5 -6.9,-1.4 -1.5,-2.6 -1.4,-2.7 5.1,-6.1 4.3,-2.3 12.9,-3.9 17.3,-3.3 1.7,0.3 4.7,1.2 6.8,2 z"
       id="path8"
       inkscape:connector-curvature="0"
       style="fill:#000000;stroke:none" />
  </g>
</svg>
