<?xml version="1.0" encoding="UTF-8" standalone="no"?>
<svg
   xmlns:dc="http://purl.org/dc/elements/1.1/"
   xmlns:cc="http://creativecommons.org/ns#"
   xmlns:rdf="http://www.w3.org/1999/02/22-rdf-syntax-ns#"
   xmlns:svg="http://www.w3.org/2000/svg"
   xmlns="http://www.w3.org/2000/svg"
   xmlns:sodipodi="http://sodipodi.sourceforge.net/DTD/sodipodi-0.dtd"
   xmlns:inkscape="http://www.inkscape.org/namespaces/inkscape"
   version="1.0"
   width="400.000000pt"
   height="300.000000pt"
   viewBox="0 0 400.000000 300.000000"
   preserveAspectRatio="xMidYMid meet"
   id="svg2"
   inkscape:version="0.48.5 r10040"
   sodipodi:docname="neg_cat.svg">
  <defs
     id="defs12" />
  <sodipodi:namedview
     pagecolor="#ffffff"
     bordercolor="#666666"
     borderopacity="1"
     objecttolerance="10"
     gridtolerance="10"
     guidetolerance="10"
     inkscape:pageopacity="0"
     inkscape:pageshadow="2"
     inkscape:window-width="640"
     inkscape:window-height="480"
     id="namedview10"
     showgrid="false"
     inkscape:zoom="0.62933333"
     inkscape:cx="250"
     inkscape:cy="187.5"
     inkscape:window-x="0"
     inkscape:window-y="0"
     inkscape:window-maximized="0"
     inkscape:current-layer="svg2" />
  <metadata
     id="metadata4">
Created by potrace 1.11, written by Peter Selinger 2001-2013
<rdf:RDF>
  <cc:Work
     rdf:about="">
    <dc:format>image/svg+xml</dc:format>
    <dc:type
       rdf:resource="http://purl.org/dc/dcmitype/StillImage" />
    <dc:title></dc:title>
  </cc:Work>
</rdf:RDF>
</metadata>
  <g
     id="g3026">
    <rect
       transform="scale(0.8,0.8)"
       y="38.135593"
       x="66.737289"
       height="309.85168"
       width="397.24576"
       id="rect3013"
       style="fill:#ffffff;fill-opacity:1;stroke:none" />
    <path
       inkscape:connector-curvature="0"
       d="m 208.24577,157.62713 c 0,1.56925 -2.05835,2.84138 -4.59746,2.84138 -2.5391,0 -4.59745,-1.27213 -4.59745,-2.84138 0,-1.56926 2.05835,-2.84138 4.59745,-2.84138 2.53911,0 4.59746,1.27212 4.59746,2.84138 z m -8.98035,8.03382 c 0,1.67227 -1.5542,3.02791 -3.47141,3.02791 -1.9172,0 -3.47141,-1.35564 -3.47141,-3.02791 0,-1.67228 1.55421,-3.02792 3.47141,-3.02792 1.91721,0 3.47141,1.35564 3.47141,3.02792 z m -7.01965,-8.03382 c 0,1.56925 -2.05835,2.84138 -4.59746,2.84138 -2.5391,0 -4.59745,-1.27213 -4.59745,-2.84138 0,-1.56926 2.05835,-2.84138 4.59745,-2.84138 2.53911,0 4.59746,1.27212 4.59746,2.84138 z m 4.21186,-66.127132 c -0.6,0.8 -1,2.2 -0.8,3.2 0.3,1.4 1.6,1.900003 6.9,2.300003 10.3,0.8 14.6,4.799999 11.4,10.899999 -1.7,3.3 -5.8,5.8 -14.4,8.6 -6.4,2.1 -12.1,6.9 -14.6,12.5 -1,2.2 -2.3,4 -2.9,4 -0.6,0 -2.8,1.1 -4.9,2.5 -10.6,7.3 -13.2,30.70001 -4.6,42.5 5.5,7.5 13.6,10.3 17.9,6 3.1,-3.1 2.6,-6.5 -1.4,-8.9 -7.5,-4.6 -12.6,-12.7 -12.6,-19.9 0,-4.2 2.2,-11.1 3.7,-11.6 0.9,-0.4 2.8,0.7 4.7,2.6 3.2,3.20001 3.6,3.3 11.6,3.3 8.1,0 8.4,-0.1 11.8,-3.5 l 3.4,-3.4 1.9,2.2 c 2.8,3.6 3.4,10.5 1.5,17.6 -2.3,8.00001 -6.3,14.9 -14.7,25.1 -7.6,9.2 -8.9,11.8 -8.2,15.7 0.8,4 3.9,6.3 8.5,6.3 3.5,0 4.6,-0.6 7.7,-4.1 4,-4.6 13.1,-20.4 16.7,-29.2 5.5,-13.2 1.2,-42.5 -7.7,-52.6 l -3.8,-4.3 3.5,-3.4 c 9.7,-9.4 5.3,-22.300002 -8.6,-24.900002 -7.3,-1.4 -10.5,-1.3 -12,0.5 z"
       style="fill:#414143;fill-opacity:1;stroke:none"
       id="path3006" />
  </g>
</svg>
