<?xml version="1.0" encoding="UTF-8" standalone="no"?>
<!-- Created with Inkscape (http://www.inkscape.org/) -->

<svg
   xmlns:dc="http://purl.org/dc/elements/1.1/"
   xmlns:cc="http://creativecommons.org/ns#"
   xmlns:rdf="http://www.w3.org/1999/02/22-rdf-syntax-ns#"
   xmlns:svg="http://www.w3.org/2000/svg"
   xmlns="http://www.w3.org/2000/svg"
   xmlns:sodipodi="http://sodipodi.sourceforge.net/DTD/sodipodi-0.dtd"
   xmlns:inkscape="http://www.inkscape.org/namespaces/inkscape"
   width="673.73083"
   height="905.40277"
   id="svg2"
   version="1.1"
   inkscape:version="0.48.4 r9939"
   sodipodi:docname="nosed.svg"
   inkscape:export-filename="C:\git\UI-UX\Pictures\animal\nosed1.png"
   inkscape:export-xdpi="90"
   inkscape:export-ydpi="90">
  <defs
     id="defs4" />
  <sodipodi:namedview
     id="base"
     pagecolor="#ffffff"
     bordercolor="#666666"
     borderopacity="1.0"
     inkscape:pageopacity="0.0"
     inkscape:pageshadow="2"
     inkscape:zoom="0.35"
     inkscape:cx="1771.8655"
     inkscape:cy="112.7014"
     inkscape:document-units="px"
     inkscape:current-layer="layer1"
     showgrid="false"
     fit-margin-top="0"
     fit-margin-left="0"
     fit-margin-right="0"
     fit-margin-bottom="0"
     inkscape:window-width="1920"
     inkscape:window-height="1057"
     inkscape:window-x="-8"
     inkscape:window-y="-8"
     inkscape:window-maximized="1" />
  <metadata
     id="metadata7">
    <rdf:RDF>
      <cc:Work
         rdf:about="">
        <dc:format>image/svg+xml</dc:format>
        <dc:type
           rdf:resource="http://purl.org/dc/dcmitype/StillImage" />
        <dc:title></dc:title>
      </cc:Work>
    </rdf:RDF>
  </metadata>
  <g
     inkscape:label="Layer 1"
     inkscape:groupmode="layer"
     id="layer1"
     transform="translate(1396.8655,260.33922)">
    <g
       id="g3062"
       transform="translate(8.5714286,-2.8571429)"
       inkscape:export-filename="C:\git\UI-UX\Pictures\animal\nosed1.png"
       inkscape:export-xdpi="90"
       inkscape:export-ydpi="90">
      <path
         transform="translate(-1414.8655,-260.33922)"
         d="m 517.14285,346.83133 c 0,90.7325 -74.8324,164.28572 -167.14285,164.28572 -92.31045,0 -167.14285,-73.55322 -167.14285,-164.28572 0,-90.7325 74.8324,-164.28572 167.14285,-164.28572 92.31045,0 167.14285,73.55322 167.14285,164.28572 z"
         sodipodi:ry="164.28572"
         sodipodi:rx="167.14285"
         sodipodi:cy="346.83133"
         sodipodi:cx="350"
         id="path3060"
         style="fill:#ffffff;fill-opacity:1;fill-rule:evenodd;stroke:none"
         sodipodi:type="arc" />
      <g
         id="g3045">
        <g
           id="g4018"
           transform="matrix(1.25,0,0,1.25,-2492.2054,-116.83444)">
          <path
             d="m 1164.1047,-104.28863 c -7.5109,16.8994 -47.6939,56.706882 -65.3444,64.59327 -12.7684,5.633134 -104.77627,18.777113 -131.81532,18.777113 -2.25325,0 2.25326,6.384219 9.7641,14.2706073 16.52386,16.8994027 17.27495,21.7814517 3.37988,24.4102477 -5.63313,1.126627 -15.02169,6.384219 -21.03037,12.017353 -9.38855,8.637472 -10.51518,11.641811 -8.63747,26.663502 1.50217,16.52386 1.12663,17.274944 -12.39289,25.912417 -17.27495,10.890721 -20.65483,15.397231 -13.14398,18.40157 9.38855,3.37988 6.38422,15.02169 -7.51085,28.54121 -15.02169,14.27061 -12.39289,18.77712 10.51518,18.77712 17.65049,0 18.02603,5.25759 3.00434,37.92977 -6.38422,13.14398 -12.39289,30.41892 -13.89506,38.30531 -2.25325,13.89506 -2.25325,14.27061 7.51084,11.64181 9.38856,-2.25325 9.7641,-1.50217 9.7641,13.14398 0,19.90378 -7.51084,37.92981 -21.03036,50.69825 l -10.89073,9.76409 37.92977,0 c 46.56724,0 48.44495,1.50217 44.68953,33.79881 l -2.62879,22.90808 12.39289,-7.51085 c 16.89939,-10.13964 18.40159,-9.7641 18.40159,3.37988 0,13.14398 1.5021,13.51953 18.026,3.75543 6.7598,-4.13097 14.6462,-7.51085 18.026,-7.51085 3.0044,0 13.8951,7.88639 24.0347,17.27495 18.0261,16.8994 18.4016,16.8994 27.7902,10.89072 9.013,-6.00868 9.7641,-6.00868 12.0173,-0.37554 3.0044,7.88639 23.6592,7.88639 40.9341,-0.37554 12.7685,-6.00868 13.5196,-6.00868 22.157,2.25325 8.6375,8.26193 9.3886,8.26193 21.4059,2.25325 18.4016,-9.38855 32.6722,-24.0347 35.301,-35.67651 1.8777,-7.88639 4.5065,-10.13964 11.6418,-10.51519 5.2576,0 13.5195,-3.75542 18.7771,-8.63747 9.0131,-8.63747 12.0174,-9.01301 50.6982,-8.26193 l 40.5586,0.75109 -12.7684,-11.26627 c -12.7685,-11.26627 -20.6549,-29.66784 -20.6549,-49.19604 0,-8.26197 2.2533,-10.13968 14.2707,-13.14402 l 13.895,-3.37988 -1.1266,-22.53254 c -1.1266,-20.65482 0,-25.53687 15.7728,-55.95579 9.3885,-18.40158 17.2749,-33.79881 17.2749,-34.54989 0,-0.75109 -4.882,-1.12663 -10.5152,-1.12663 -20.2793,0 -24.4102,-13.14398 -12.0173,-37.554229 4.1309,-8.261929 7.5108,-15.772774 7.5108,-16.899401 0,-1.126627 -7.5108,-1.877712 -16.5238,-1.877712 -9.3886,0 -17.6505,-1.502169 -19.1527,-3.37988 -1.1266,-1.877711 0.3755,-10.515184 3.3799,-18.777114 l 5.2576,-15.397233 -19.5282,0 c -27.0391,0 -35.301,-3.004339 -35.301,-12.392895 0,-4.506508 -2.2532,-14.646149 -4.882,-22.1569947 -4.8821,-13.8950642 -11.6419,-18.0260292 -28.5413,-18.0260292 -7.8863,0 -8.6374,-1.8777111 -8.6374,-18.7771141 l 0,-18.777114 -22.5326,11.266268 c -12.3929,6.008677 -24.7858,11.266269 -27.7901,11.266269 -7.1353,0 -12.3929,-19.152656 -15.7728,-59.33568 -1.1266,-16.899401 -3.3799,-30.794471 -4.882,-30.794471 -1.1266,0 -4.5065,4.88205 -7.1353,10.51519 z m -61.589,168.242938 c 6.3843,1.502169 18.0261,7.886388 26.288,14.646149 13.144,11.641811 14.6462,12.017353 18.4016,6.008677 6.0087,-9.7641 28.1656,-19.152657 45.065,-19.152657 40.5586,0 68.3487,42.060733 52.2004,80.366043 -2.6288,6.75976 -9.3885,15.77278 -15.0217,19.90374 -8.6374,7.13531 -9.7641,10.51519 -9.7641,31.17001 0,47.69387 -16.8994,73.98187 -52.5759,82.61934 -21.4059,5.25759 -51.4493,2.6288 -67.2221,-5.63313 -25.1613,-13.14402 -37.9297,-38.68089 -37.9297,-76.61066 0,-22.53254 -1.1267,-27.03905 -7.5109,-30.41893 -12.7684,-6.75976 -23.6591,-32.67218 -21.4059,-51.82483 2.2533,-21.030369 12.0174,-34.174349 32.6722,-45.065075 18.026,-9.013015 19.9037,-9.388557 36.8031,-6.008677 z"
             id="path14"
             inkscape:connector-curvature="0"
             style="fill:#5b0d5b;fill-opacity:1;stroke:none" />
          <g
             id="g4006">
            <g
               id="g3995">
              <g
                 id="g3971"
                 transform="matrix(2.9215024,0,0,4.258577,551.42619,-318.59214)">
                <path
                   sodipodi:type="arc"
                   style="fill:#ff6600;fill-opacity:1;fill-rule:evenodd;stroke:none"
                   id="path3973"
                   sodipodi:cx="-146.06549"
                   sodipodi:cy="173.31726"
                   sodipodi:rx="11.797597"
                   sodipodi:ry="11.797597"
                   d="m -134.26789,173.31726 c 0,6.51563 -5.28197,11.7976 -11.7976,11.7976 -6.51563,0 -11.7976,-5.28197 -11.7976,-11.7976 0,-6.51563 5.28197,-11.7976 11.7976,-11.7976 6.51563,0 11.7976,5.28197 11.7976,11.7976 z"
                   transform="matrix(1.0476191,0,0,1.0476191,354.09218,-56.139102)" />
                <path
                   transform="matrix(0.51428576,0,0,0.51428576,278.43774,38.993367)"
                   d="m -134.26789,173.31726 c 0,6.51563 -5.28197,11.7976 -11.7976,11.7976 -6.51563,0 -11.7976,-5.28197 -11.7976,-11.7976 0,-6.51563 5.28197,-11.7976 11.7976,-11.7976 6.51563,0 11.7976,5.28197 11.7976,11.7976 z"
                   sodipodi:ry="11.797597"
                   sodipodi:rx="11.797597"
                   sodipodi:cy="173.31726"
                   sodipodi:cx="-146.06549"
                   id="path3975"
                   style="fill:#f9a01b;fill-opacity:1;fill-rule:evenodd;stroke:none"
                   sodipodi:type="arc" />
              </g>
              <g
                 transform="matrix(2.3228602,0,0,2.3228602,660.59905,-139.39135)"
                 id="g3983">
                <path
                   transform="matrix(1.0476191,0,0,1.0476191,384.49218,-68.939102)"
                   d="m -134.26789,173.31726 c 0,6.51563 -5.28197,11.7976 -11.7976,11.7976 -6.51563,0 -11.7976,-5.28197 -11.7976,-11.7976 0,-6.51563 5.28197,-11.7976 11.7976,-11.7976 6.51563,0 11.7976,5.28197 11.7976,11.7976 z"
                   sodipodi:ry="11.797597"
                   sodipodi:rx="11.797597"
                   sodipodi:cy="173.31726"
                   sodipodi:cx="-146.06549"
                   id="path3985"
                   style="fill:#313094;fill-opacity:1;fill-rule:evenodd;stroke:none"
                   sodipodi:type="arc" />
                <path
                   sodipodi:type="arc"
                   style="fill:#00aeef;fill-opacity:1;fill-rule:evenodd;stroke:none"
                   id="path3987"
                   sodipodi:cx="-146.06549"
                   sodipodi:cy="173.31726"
                   sodipodi:rx="11.797597"
                   sodipodi:ry="11.797597"
                   d="m -134.26789,173.31726 c 0,6.51563 -5.28197,11.7976 -11.7976,11.7976 -6.51563,0 -11.7976,-5.28197 -11.7976,-11.7976 0,-6.51563 5.28197,-11.7976 11.7976,-11.7976 6.51563,0 11.7976,5.28197 11.7976,11.7976 z"
                   transform="matrix(0.51428576,0,0,0.51428576,308.83774,26.193367)" />
              </g>
              <g
                 id="g3989"
                 transform="matrix(2.3228602,0,0,2.3228602,544.96606,-139.39135)">
                <path
                   sodipodi:type="arc"
                   style="fill:#313094;fill-opacity:1;fill-rule:evenodd;stroke:none"
                   id="path3991"
                   sodipodi:cx="-146.06549"
                   sodipodi:cy="173.31726"
                   sodipodi:rx="11.797597"
                   sodipodi:ry="11.797597"
                   d="m -134.26789,173.31726 c 0,6.51563 -5.28197,11.7976 -11.7976,11.7976 -6.51563,0 -11.7976,-5.28197 -11.7976,-11.7976 0,-6.51563 5.28197,-11.7976 11.7976,-11.7976 6.51563,0 11.7976,5.28197 11.7976,11.7976 z"
                   transform="matrix(1.0476191,0,0,1.0476191,384.49218,-68.939102)" />
                <path
                   transform="matrix(0.51428576,0,0,0.51428576,308.83774,26.193367)"
                   d="m -134.26789,173.31726 c 0,6.51563 -5.28197,11.7976 -11.7976,11.7976 -6.51563,0 -11.7976,-5.28197 -11.7976,-11.7976 0,-6.51563 5.28197,-11.7976 11.7976,-11.7976 6.51563,0 11.7976,5.28197 11.7976,11.7976 z"
                   sodipodi:ry="11.797597"
                   sodipodi:rx="11.797597"
                   sodipodi:cy="173.31726"
                   sodipodi:cx="-146.06549"
                   id="path3993"
                   style="fill:#00aeef;fill-opacity:1;fill-rule:evenodd;stroke:none"
                   sodipodi:type="arc" />
              </g>
            </g>
          </g>
        </g>
      </g>
    </g>
    <flowRoot
       transform="matrix(6.6510046,0,0,6.6510046,-2097.9798,-1258.7865)"
       style="font-size:40px;font-style:normal;font-variant:normal;font-weight:normal;font-stretch:normal;line-height:125%;letter-spacing:0px;word-spacing:0px;fill:#000080;fill-opacity:1;stroke:none;font-family:a_LCDNovaObl;-inkscape-font-specification:a_LCDNovaObl"
       id="flowRoot3928"
       xml:space="preserve"><flowRegion
         id="flowRegion3930"><rect
           style="fill:#000080"
           y="236.23778"
           x="103.36942"
           height="66.85305"
           width="283.70413"
           id="rect3932" /></flowRegion><flowPara
         id="flowPara3934">nosed</flowPara></flowRoot>  </g>
</svg>
