<?xml version="1.0" encoding="UTF-8" standalone="no"?>
<!-- Created with Inkscape (http://www.inkscape.org/) -->

<svg
   xmlns:dc="http://purl.org/dc/elements/1.1/"
   xmlns:cc="http://creativecommons.org/ns#"
   xmlns:rdf="http://www.w3.org/1999/02/22-rdf-syntax-ns#"
   xmlns:svg="http://www.w3.org/2000/svg"
   xmlns="http://www.w3.org/2000/svg"
   xmlns:sodipodi="http://sodipodi.sourceforge.net/DTD/sodipodi-0.dtd"
   xmlns:inkscape="http://www.inkscape.org/namespaces/inkscape"
   width="2513.6233"
   height="2554.9204"
   id="svg2"
   version="1.1"
   inkscape:version="0.48.4 r9939"
   sodipodi:docname="pig.svg"
   inkscape:export-filename="C:\git\UI-UX\Pictures\animal\pig.png"
   inkscape:export-xdpi="90"
   inkscape:export-ydpi="90">
  <defs
     id="defs4">
    <inkscape:path-effect
       effect="spiro"
       id="path-effect4631"
       is_visible="true" />
    <inkscape:path-effect
       effect="spiro"
       id="path-effect4528"
       is_visible="true" />
    <inkscape:path-effect
       effect="spiro"
       id="path-effect4423"
       is_visible="true" />
    <inkscape:path-effect
       is_visible="true"
       id="path-effect4419"
       effect="spiro" />
    <inkscape:path-effect
       effect="spiro"
       id="path-effect4403"
       is_visible="true" />
    <inkscape:path-effect
       is_visible="true"
       id="path-effect4368"
       effect="spiro" />
    <inkscape:path-effect
       effect="spiro"
       id="path-effect4365"
       is_visible="true" />
    <filter
       inkscape:collect="always"
       id="filter4204"
       x="-0.33491933"
       width="1.6698387"
       y="-1.0379943"
       height="3.0759885"
       color-interpolation-filters="sRGB">
      <feGaussianBlur
         inkscape:collect="always"
         stdDeviation="266.84095"
         id="feGaussianBlur4206" />
    </filter>
    <inkscape:path-effect
       effect="spiro"
       id="path-effect4004"
       is_visible="true" />
    <inkscape:path-effect
       is_visible="true"
       id="path-effect4008"
       effect="spiro" />
    <inkscape:path-effect
       effect="spiro"
       id="path-effect4278"
       is_visible="true" />
    <inkscape:path-effect
       is_visible="true"
       id="path-effect4280"
       effect="spiro" />
    <inkscape:path-effect
       effect="spiro"
       id="path-effect3172"
       is_visible="true" />
    <inkscape:path-effect
       effect="spiro"
       id="path-effect3176"
       is_visible="true" />
    <inkscape:path-effect
       effect="spiro"
       id="path-effect3180"
       is_visible="true" />
    <inkscape:path-effect
       effect="spiro"
       id="path-effect3184"
       is_visible="true" />
    <inkscape:path-effect
       effect="spiro"
       id="path-effect3907"
       is_visible="true" />
    <inkscape:path-effect
       effect="spiro"
       id="path-effect4287"
       is_visible="true" />
    <inkscape:path-effect
       effect="spiro"
       id="path-effect4289"
       is_visible="true" />
    <inkscape:path-effect
       effect="spiro"
       id="path-effect4291"
       is_visible="true" />
  </defs>
  <sodipodi:namedview
     id="base"
     pagecolor="#ffffff"
     bordercolor="#666666"
     borderopacity="1.0"
     inkscape:pageopacity="0.0"
     inkscape:pageshadow="2"
     inkscape:zoom="0.0875"
     inkscape:cx="2183.749"
     inkscape:cy="1150.4534"
     inkscape:document-units="px"
     inkscape:current-layer="layer1"
     showgrid="false"
     fit-margin-top="0"
     fit-margin-left="0"
     fit-margin-right="0"
     fit-margin-bottom="0"
     inkscape:window-width="1920"
     inkscape:window-height="1017"
     inkscape:window-x="-8"
     inkscape:window-y="-8"
     inkscape:window-maximized="1" />
  <metadata
     id="metadata7">
    <rdf:RDF>
      <cc:Work
         rdf:about="">
        <dc:format>image/svg+xml</dc:format>
        <dc:type
           rdf:resource="http://purl.org/dc/dcmitype/StillImage" />
        <dc:title></dc:title>
      </cc:Work>
    </rdf:RDF>
  </metadata>
  <g
     inkscape:label="Layer 1"
     inkscape:groupmode="layer"
     id="layer1"
     transform="translate(2511.101,354.88471)">
    <g
       id="g4603">
      <path
         transform="matrix(0.78477335,0,0,0.52488954,-2015.6788,709.26104)"
         d="m 1926.286,1886.2532 a 956.07837,308.48834 0 1 1 -1912.156728,0 956.07837,308.48834 0 1 1 1912.156728,0 z"
         sodipodi:ry="308.48834"
         sodipodi:rx="956.07837"
         sodipodi:cy="1886.2532"
         sodipodi:cx="970.20764"
         id="path4158"
         style="fill:#d78389;fill-opacity:1;stroke:none;filter:url(#filter4204)"
         sodipodi:type="arc" />
      <g
         id="g4341">
        <g
           id="g4709">
          <g
             style="fill:#ffd0d0;fill-opacity:1;stroke:#d78389;stroke-opacity:1"
             id="g4308">
            <path
               transform="matrix(1.3704362,0,0,1.5478379,-3013.2392,-404.07693)"
               d="m 1945.1251,581.65363 a 642.88031,529.84637 0 1 1 -1285.76066,0 642.88031,529.84637 0 1 1 1285.76066,0 z"
               sodipodi:ry="529.84637"
               sodipodi:rx="642.88031"
               sodipodi:cy="581.65363"
               sodipodi:cx="1302.2448"
               id="path3899"
               style="fill:#ffd0d0;fill-opacity:1;stroke:#d78389;stroke-opacity:1"
               sodipodi:type="arc" />
            <path
               sodipodi:type="arc"
               style="fill:#ffd0d0;fill-opacity:1;stroke:#d78389;stroke-width:40.02444839;stroke-miterlimit:4;stroke-opacity:1;stroke-dasharray:none"
               id="path2987"
               sodipodi:cx="1302.2448"
               sodipodi:cy="581.65363"
               sodipodi:rx="642.88031"
               sodipodi:ry="529.84637"
               d="m 1945.1251,581.65363 a 642.88031,529.84637 0 1 1 -1285.76066,0 642.88031,529.84637 0 1 1 1285.76066,0 z"
               transform="matrix(1.3704362,0,0,1.5478379,-3013.2392,-404.07693)" />
          </g>
          <g
             id="g4701">
            <g
               id="g4697">
              <path
                 inkscape:connector-curvature="0"
                 inkscape:original-d="m -1638.164,1241.1807 36.4218,449.8103 82.3278,-137.347 84.5412,148.0605 44.1256,-363.2531 z"
                 inkscape:path-effect="#path-effect4004"
                 id="path4002"
                 d="m -1638.164,1241.1807 36.4218,449.8103 82.3278,-137.347 84.5412,148.0605 44.1256,-363.2531 -247.4164,-97.2707"
                 style="fill:#d78389;fill-opacity:1;stroke:#d78389;stroke-width:1px;stroke-linecap:butt;stroke-linejoin:miter;stroke-opacity:1" />
              <path
                 style="fill:#ffd0d0;fill-opacity:1;stroke:#d78389;stroke-width:0.60201383px;stroke-linecap:butt;stroke-linejoin:miter;stroke-opacity:1"
                 d="m -1585.4967,1258.9817 21.9264,270.792 49.5625,-82.6848 50.8949,89.1345 26.5643,-218.6834 -148.9481,-58.5583"
                 id="path4006"
                 inkscape:path-effect="#path-effect4008"
                 inkscape:original-d="m -1585.4967,1258.9817 21.9264,270.792 49.5625,-82.6848 50.8949,89.1345 26.5643,-218.6834 z"
                 inkscape:connector-curvature="0" />
            </g>
            <g
               id="g4693">
              <path
                 style="fill:#d78389;fill-opacity:1;stroke:#d78389;stroke-width:1px;stroke-linecap:butt;stroke-linejoin:miter;stroke-opacity:1"
                 d="m -822.74761,1239.1807 -36.42178,449.8103 -82.32786,-137.347 -84.54115,148.0605 -44.1256,-363.2531 247.41639,-97.2707"
                 id="path4016"
                 inkscape:path-effect="#path-effect4368"
                 inkscape:original-d="m -822.74761,1239.1807 -36.42178,449.8103 -82.32786,-137.347 -84.54115,148.0605 -44.1256,-363.2531 z"
                 inkscape:connector-curvature="0" />
              <path
                 inkscape:connector-curvature="0"
                 inkscape:original-d="m -875.41489,1256.9817 -21.92642,270.792 -49.56251,-82.6848 -50.89493,89.1345 -26.56425,-218.6834 z"
                 inkscape:path-effect="#path-effect4365"
                 id="path4018"
                 d="m -875.41489,1256.9817 -21.92642,270.792 -49.56251,-82.6848 -50.89493,89.1345 -26.56425,-218.6834 148.94811,-58.5583"
                 style="fill:#ffd0d0;fill-opacity:1;stroke:#d78389;stroke-width:0.60201383px;stroke-linecap:butt;stroke-linejoin:miter;stroke-opacity:1" />
            </g>
          </g>
        </g>
        <g
           id="g4305">
          <path
             transform="matrix(2.110081,0,0,2.2495177,-3372.4173,-1477.3656)"
             d="m 1236.3082,906.62604 a 217.82574,197.80933 0 1 1 -435.65146,0 217.82574,197.80933 0 1 1 435.65146,0 z"
             sodipodi:ry="197.80933"
             sodipodi:rx="217.82574"
             sodipodi:cy="906.62604"
             sodipodi:cx="1018.4825"
             id="path3812"
             style="fill:#f1dddd;fill-opacity:1;stroke:none"
             sodipodi:type="arc" />
          <g
             id="g4481">
            <path
               transform="matrix(2.110081,0,0,2.2495177,-3372.4173,-1477.3656)"
               d="m 1236.3082,906.62604 a 217.82574,197.80933 0 1 1 -435.65146,0 217.82574,197.80933 0 1 1 435.65146,0 z"
               sodipodi:ry="197.80933"
               sodipodi:rx="217.82574"
               sodipodi:cy="906.62604"
               sodipodi:cx="1018.4825"
               id="path3814"
               style="fill:#ffd0d0;fill-opacity:1;stroke:#d78389;stroke-width:22.94963264;stroke-linecap:round;stroke-miterlimit:4;stroke-opacity:1;stroke-dasharray:none"
               sodipodi:type="arc" />
            <g
               id="g4434">
              <g
                 id="g4430">
                <path
                   sodipodi:type="arc"
                   style="fill:#ffd0d0;fill-opacity:1;stroke:#d78389;stroke-width:10;stroke-miterlimit:4;stroke-opacity:1;stroke-dasharray:none"
                   id="path3226"
                   sodipodi:cx="1375.2457"
                   sodipodi:cy="1006.7081"
                   sodipodi:rx="58.871822"
                   sodipodi:ry="43.565147"
                   d="m 1434.1175,1006.7081 a 58.871822,43.565147 0 1 1 -117.7436,0 58.871822,43.565147 0 1 1 117.7436,0 z"
                   transform="matrix(1.871681,-2.6997156,-2.1874041,-0.56482199,-1280.1052,4441.7042)"
                   inkscape:transform-center-x="1.2890576"
                   inkscape:transform-center-y="45.278565" />
                <path
                   style="fill:#ffd0d0;fill-opacity:1;stroke:none"
                   d="m 1466.7415,533.60517 150.5127,110.10662 -85.8629,67.68022 -119.198,-63.63961 54.5482,-114.14723"
                   id="path4401"
                   inkscape:path-effect="#path-effect4403"
                   inkscape:original-d="m 1466.7415,533.60517 150.5127,110.10662 -85.8629,67.68022 -119.198,-63.63961 z"
                   inkscape:connector-curvature="0"
                   transform="translate(-2511.101,-354.88471)" />
              </g>
              <g
                 id="g4426">
                <path
                   inkscape:transform-center-y="45.278565"
                   inkscape:transform-center-x="-1.2890621"
                   transform="matrix(-1.871681,-2.6997156,2.1874041,-0.56482199,-1154.2176,4433.7042)"
                   d="m 1434.1175,1006.7081 a 58.871822,43.565147 0 1 1 -117.7436,0 58.871822,43.565147 0 1 1 117.7436,0 z"
                   sodipodi:ry="43.565147"
                   sodipodi:rx="58.871822"
                   sodipodi:cy="1006.7081"
                   sodipodi:cx="1375.2457"
                   id="path4223"
                   style="fill:#ffd0d0;fill-opacity:1;stroke:#d78389;stroke-width:10;stroke-miterlimit:4;stroke-opacity:1;stroke-dasharray:none"
                   sodipodi:type="arc" />
                <path
                   transform="translate(-2511.101,-354.88471)"
                   style="fill:#ffd0d0;fill-opacity:1;stroke:none"
                   d="m 966.71599,633.61027 55.05331,-77.27667 103.5407,-30.80965 47.4771,98.99495 -96.9746,86.87311 -109.09651,-77.78174"
                   id="path4421"
                   inkscape:connector-curvature="0"
                   sodipodi:nodetypes="cccccc" />
              </g>
            </g>
          </g>
          <g
             id="g4280">
            <g
               id="g3866"
               transform="translate(-2224.1577,-467.40376)">
              <g
                 id="g3862">
                <path
                   sodipodi:type="arc"
                   style="fill:#ffffff;fill-opacity:1;stroke:#000000;stroke-width:15;stroke-linecap:round;stroke-miterlimit:4;stroke-opacity:1;stroke-dasharray:none"
                   id="path3822"
                   sodipodi:cx="893.67426"
                   sodipodi:cy="891.3194"
                   sodipodi:rx="74.178497"
                   sodipodi:ry="135.4052"
                   d="m 967.85275,891.3194 c 0,74.78222 -33.21084,135.4052 -74.17849,135.4052 -40.96766,0 -74.1785,-60.62298 -74.1785,-135.4052 0,-74.78223 33.21084,-135.4052 74.1785,-135.4052 40.96765,0 74.17849,60.62297 74.17849,135.4052 z"
                   transform="matrix(1.0984026,-0.08831444,0.09212905,1.0529231,-161.8142,23.510924)" />
                <path
                   sodipodi:type="arc"
                   style="fill:#000000;fill-opacity:1;stroke:#000000;stroke-width:15;stroke-linecap:round;stroke-miterlimit:4;stroke-opacity:1;stroke-dasharray:none"
                   id="path3834"
                   sodipodi:cx="903.09375"
                   sodipodi:cy="901.91632"
                   sodipodi:rx="34.145657"
                   sodipodi:ry="75.355934"
                   d="m 937.23941,901.91632 c 0,41.61793 -15.28753,75.35593 -34.14566,75.35593 -18.85813,0 -34.14566,-33.738 -34.14566,-75.35593 0,-41.61793 15.28753,-75.35593 34.14566,-75.35593 18.85813,0 34.14566,33.738 34.14566,75.35593 z" />
              </g>
              <g
                 id="g3858">
                <path
                   transform="matrix(-1.0984026,-0.08831444,-0.09212905,1.0529231,2163.6469,23.510924)"
                   d="m 967.85275,891.3194 c 0,74.78222 -33.21084,135.4052 -74.17849,135.4052 -40.96766,0 -74.1785,-60.62298 -74.1785,-135.4052 0,-74.78223 33.21084,-135.4052 74.1785,-135.4052 40.96765,0 74.17849,60.62297 74.17849,135.4052 z"
                   sodipodi:ry="135.4052"
                   sodipodi:rx="74.178497"
                   sodipodi:cy="891.3194"
                   sodipodi:cx="893.67426"
                   id="path3832"
                   style="fill:#ffffff;fill-opacity:1;stroke:#000000;stroke-width:15;stroke-linecap:round;stroke-miterlimit:4;stroke-opacity:1;stroke-dasharray:none"
                   sodipodi:type="arc" />
                <path
                   d="m 937.23941,901.91632 c 0,41.61793 -15.28753,75.35593 -34.14566,75.35593 -18.85813,0 -34.14566,-33.738 -34.14566,-75.35593 0,-41.61793 15.28753,-75.35593 34.14566,-75.35593 18.85813,0 34.14566,33.738 34.14566,75.35593 z"
                   sodipodi:ry="75.355934"
                   sodipodi:rx="34.145657"
                   sodipodi:cy="901.91632"
                   sodipodi:cx="903.09375"
                   id="path3836"
                   style="fill:#000000;fill-opacity:1;stroke:#000000;stroke-width:15;stroke-linecap:round;stroke-miterlimit:4;stroke-opacity:1;stroke-dasharray:none"
                   sodipodi:type="arc"
                   transform="translate(196,0)" />
              </g>
            </g>
            <g
               id="g3886"
               transform="matrix(0.26996165,0,0,0.38086587,-1493.3322,142.83823)">
              <g
                 id="g3805">
                <path
                   transform="matrix(1.1407568,0,0,1.1682613,-122.7483,-297.35966)"
                   d="m 1424.6981,1389.375 c 0,162.5701 -198.7379,294.3591 -443.89353,294.3591 -245.15563,0 -443.89353,-131.789 -443.89353,-294.3591 0,-162.5701 198.7379,-294.3591 443.89353,-294.3591 245.15563,0 443.89353,131.789 443.89353,294.3591 z"
                   sodipodi:ry="294.35913"
                   sodipodi:rx="443.89352"
                   sodipodi:cy="1389.375"
                   sodipodi:cx="980.80457"
                   id="path3777"
                   style="fill:#e7b56f;fill-opacity:1;stroke:none"
                   sodipodi:type="arc" />
                <g
                   id="g3809">
                  <path
                     transform="matrix(1.1407568,0,0,1.1682613,-122.7483,-297.35966)"
                     d="m 1424.6981,1389.375 c 0,162.5701 -198.7379,294.3591 -443.89353,294.3591 -245.15563,0 -443.89353,-131.789 -443.89353,-294.3591 0,-162.5701 198.7379,-294.3591 443.89353,-294.3591 245.15563,0 443.89353,131.789 443.89353,294.3591 z"
                     sodipodi:ry="294.35913"
                     sodipodi:rx="443.89352"
                     sodipodi:cy="1389.375"
                     sodipodi:cx="980.80457"
                     id="path3775"
                     style="fill:none;stroke:#000000;stroke-width:60;stroke-miterlimit:4;stroke-opacity:1;stroke-dasharray:none"
                     sodipodi:type="arc" />
                </g>
              </g>
              <g
                 id="g3797">
                <g
                   id="g3793">
                  <path
                     sodipodi:type="arc"
                     style="fill:#ea7980;fill-opacity:1;stroke:none"
                     id="path3787"
                     sodipodi:cx="818.3183"
                     sodipodi:cy="1321.0837"
                     sodipodi:rx="100.08209"
                     sodipodi:ry="157.77649"
                     d="m 918.40039,1321.0837 c 0,87.1376 -44.80828,157.7765 -100.08209,157.7765 -55.27381,0 -100.08209,-70.6389 -100.08209,-157.7765 0,-87.1375 44.80828,-157.7764 100.08209,-157.7764 55.27381,0 100.08209,70.6389 100.08209,157.7764 z"
                     transform="matrix(1.0805715,0,0,1.140661,304.29249,-181.11525)" />
                  <path
                     sodipodi:type="arc"
                     style="fill:none;stroke:#000000;stroke-width:48.02617645;stroke-linecap:round;stroke-miterlimit:4;stroke-opacity:1;stroke-dasharray:none"
                     id="path3781"
                     sodipodi:cx="720.59113"
                     sodipodi:cy="1328.1483"
                     sodipodi:rx="127.16313"
                     sodipodi:ry="216.6483"
                     d="m 847.75426,1328.1483 c 0,119.6516 -56.93288,216.6483 -127.16313,216.6483 -70.23026,0 -127.16314,-96.9967 -127.16314,-216.6483 0,-119.6515 56.93288,-216.6483 127.16314,-216.6483 70.23025,0 127.16313,96.9968 127.16313,216.6483 z"
                     transform="matrix(0.89938063,0,0,0.87572337,538.98959,165.05779)" />
                </g>
                <g
                   id="g3789">
                  <path
                     transform="matrix(1.0805715,0,0,1.140661,-77.707509,-181.11525)"
                     d="m 918.40039,1321.0837 c 0,87.1376 -44.80828,157.7765 -100.08209,157.7765 -55.27381,0 -100.08209,-70.6389 -100.08209,-157.7765 0,-87.1375 44.80828,-157.7764 100.08209,-157.7764 55.27381,0 100.08209,70.6389 100.08209,157.7764 z"
                     sodipodi:ry="157.77649"
                     sodipodi:rx="100.08209"
                     sodipodi:cy="1321.0837"
                     sodipodi:cx="818.3183"
                     id="path3785"
                     style="fill:#ea7980;fill-opacity:1;stroke:none"
                     sodipodi:type="arc" />
                  <path
                     transform="matrix(0.89938063,0,0,0.87572337,158.98959,165.05779)"
                     d="m 847.75426,1328.1483 c 0,119.6516 -56.93288,216.6483 -127.16313,216.6483 -70.23026,0 -127.16314,-96.9967 -127.16314,-216.6483 0,-119.6515 56.93288,-216.6483 127.16314,-216.6483 70.23025,0 127.16313,96.9968 127.16313,216.6483 z"
                     sodipodi:ry="216.6483"
                     sodipodi:rx="127.16313"
                     sodipodi:cy="1328.1483"
                     sodipodi:cx="720.59113"
                     id="path3783"
                     style="fill:none;stroke:#000000;stroke-width:48.02617645;stroke-linecap:round;stroke-miterlimit:4;stroke-opacity:1;stroke-dasharray:none"
                     sodipodi:type="arc" />
                </g>
              </g>
            </g>
            <g
               id="g4442"
               transform="matrix(0.99942103,-0.03402361,0.03402361,0.99942103,-25.796719,-221.29241)">
              <path
                 transform="translate(-2511.101,-354.88471)"
                 d="m 1046.518,1088.179 c 0,49.0944 -18.9949,88.8934 -42.4264,88.8934 -23.43144,0 -42.42639,-39.799 -42.42639,-88.8934 0,-49.0945 18.99495,-88.89347 42.42639,-88.89347 23.4315,0 42.4264,39.79897 42.4264,88.89347 z"
                 sodipodi:ry="88.893425"
                 sodipodi:rx="42.426407"
                 sodipodi:cy="1088.179"
                 sodipodi:cx="1004.0916"
                 id="path4354"
                 style="fill:#ff5555;fill-opacity:1;stroke:none"
                 sodipodi:type="arc" />
              <path
                 sodipodi:type="arc"
                 style="fill:#ff5555;fill-opacity:1;stroke:none"
                 id="path4356"
                 sodipodi:cx="1004.0916"
                 sodipodi:cy="1088.179"
                 sodipodi:rx="42.426407"
                 sodipodi:ry="88.893425"
                 d="m 1046.518,1088.179 c 0,49.0944 -18.9949,88.8934 -42.4264,88.8934 -23.43144,0 -42.42639,-39.799 -42.42639,-88.8934 0,-49.0945 18.99495,-88.89347 42.42639,-88.89347 23.4315,0 42.4264,39.79897 42.4264,88.89347 z"
                 transform="translate(-1949.4562,-346.80349)" />
            </g>
            <path
               style="fill:none;stroke:#892525;stroke-width:6.48417902;stroke-linecap:round;stroke-linejoin:miter;stroke-miterlimit:4;stroke-opacity:1;stroke-dasharray:none"
               d="m -1412.5964,804.33803 c 6.1003,33.04993 28.8711,62.58089 59.2839,76.88382 18.1429,8.53248 38.3445,11.76618 58.3576,12.96836 76.0737,4.56973 153.5375,-20.0166 213.0516,-67.62072"
               id="path4629"
               inkscape:path-effect="#path-effect4631"
               inkscape:original-d="m -1412.5964,804.33803 c 19.977,24.76548 34.4356,52.03547 59.2839,76.88382 11.325,11.325 42.6816,9.04932 58.3576,12.96836 60.5246,15.13115 178.161,-15.28477 213.0516,-67.62072"
               inkscape:connector-curvature="0" />
          </g>
        </g>
      </g>
    </g>
  </g>
</svg>
