<?xml version="1.0" encoding="UTF-8" standalone="no"?>
<svg
   xmlns:dc="http://purl.org/dc/elements/1.1/"
   xmlns:cc="http://creativecommons.org/ns#"
   xmlns:rdf="http://www.w3.org/1999/02/22-rdf-syntax-ns#"
   xmlns:svg="http://www.w3.org/2000/svg"
   xmlns="http://www.w3.org/2000/svg"
   xmlns:sodipodi="http://sodipodi.sourceforge.net/DTD/sodipodi-0.dtd"
   xmlns:inkscape="http://www.inkscape.org/namespaces/inkscape"
   version="1.0"
   width="400.000000pt"
   height="300.000000pt"
   viewBox="0 0 400.000000 300.000000"
   preserveAspectRatio="xMidYMid meet"
   id="svg2"
   inkscape:version="0.48.5 r10040"
   sodipodi:docname="ping.svg">
  <defs
     id="defs12" />
  <sodipodi:namedview
     pagecolor="#ffffff"
     bordercolor="#666666"
     borderopacity="1"
     objecttolerance="10"
     gridtolerance="10"
     guidetolerance="10"
     inkscape:pageopacity="0"
     inkscape:pageshadow="2"
     inkscape:window-width="1920"
     inkscape:window-height="1017"
     id="namedview10"
     showgrid="false"
     inkscape:zoom="2.5173333"
     inkscape:cx="181.87235"
     inkscape:cy="244.64531"
     inkscape:window-x="-8"
     inkscape:window-y="-8"
     inkscape:window-maximized="1"
     inkscape:current-layer="svg2" />
  <metadata
     id="metadata4">
Created by potrace 1.11, written by Peter Selinger 2001-2013
<rdf:RDF>
  <cc:Work
     rdf:about="">
    <dc:format>image/svg+xml</dc:format>
    <dc:type
       rdf:resource="http://purl.org/dc/dcmitype/StillImage" />
    <dc:title></dc:title>
  </cc:Work>
</rdf:RDF>
</metadata>
  <g
     transform="translate(0.000000,300.000000) scale(0.100000,-0.100000)"
     fill="#000000"
     stroke="none"
     id="g6" />
  <g
     id="g3877"
     inkscape:export-xdpi="90"
     inkscape:export-ydpi="90">
    <g
       id="g3867">
      <g
         id="g3854"
         style="fill:#ffffff">
        <rect
           y="-48.189938"
           x="110.35886"
           height="42.902542"
           width="35.593216"
           id="rect3811"
           style="fill:#ffffff;fill-opacity:1;stroke:none"
           transform="matrix(0.69475573,0.71924577,0.71924577,-0.69475573,0,0)" />
        <rect
           transform="matrix(0.69475573,0.71924577,0.71924577,-0.69475573,0,0)"
           style="fill:#ffffff;fill-opacity:1;stroke:none"
           id="rect3807"
           width="35.593216"
           height="42.902542"
           x="93.732361"
           y="-48.477901" />
        <rect
           y="-74.653831"
           x="67.849571"
           height="42.902542"
           width="35.593216"
           id="rect3809"
           style="fill:#ffffff;fill-opacity:1;stroke:none"
           transform="matrix(0,1,-1,0,0,0)" />
        <rect
           y="-143.48537"
           x="1.9598421"
           height="42.902542"
           width="35.593216"
           id="rect3805"
           style="fill:#ffffff;fill-opacity:1;stroke:none"
           transform="matrix(-0.69475573,0.71924577,-0.71924577,-0.69475573,0,0)" />
        <rect
           transform="matrix(0,1,-1,0,0,0)"
           style="fill:#ffffff;fill-opacity:1;stroke:none"
           id="rect3803"
           width="35.593216"
           height="42.902542"
           x="67.849571"
           y="-101.85381" />
        <rect
           y="57.203388"
           x="42.902542"
           height="60.06356"
           width="46.716099"
           id="rect3801"
           style="fill:#ffffff;fill-opacity:1;stroke:none" />
      </g>
      <path
         inkscape:connector-curvature="0"
         d="m 53.14322,50.55678 c -14.4,5.3 -24.1,17.3 -26.5,32.8 -0.9,5.6 -0.8,7.8 0.5,12.3 2.4,8.1 8.2,17.2 17.2,26.8 8.4,8.9 20.9,20.2 22.5,20.2 1.3,0 12.5,-9.5 19.3,-16.4 12.1,-12.3 20.3,-25.5 21.4,-34.5 1.8,-15.4 -8.3,-32.4 -23.5,-39.7 -7.7,-3.8 -22.9,-4.5 -30.9,-1.5 z m 3.2,19 c 4.6,2.1 7.8,5.3 9.6,9.6 1.2,2.8 1.3,2.9 1.7,0.7 0.6,-3.6 7.2,-9.8 11.9,-11.2 5.3,-1.6 10.6,-0.3 15.4,3.7 4.2,3.6 5.9,8 5.9,15.5 0,7.5 -2.4,13.3 -9.3,22.4 -4.7,6.1 -23.1,24.4 -24.6,24.4 -1.5,0 -17.9,-16 -23,-22.4 -8,-10 -11.1,-16.7 -11.1,-23.7 0,-9.7 3.3,-15.7 10.5,-19 5,-2.3 8,-2.3 13,0 z"
         id="path8" />
    </g>
    <g
       transform="translate(-133.15678,-54.34322)"
       id="g3776">
      <path
         sodipodi:type="arc"
         style="fill:#000000;fill-opacity:1;stroke:none"
         id="path3002"
         sodipodi:cx="229.01218"
         sodipodi:cy="174.19226"
         sodipodi:rx="6.9518008"
         sodipodi:ry="6.9518008"
         d="m 235.96398,174.19226 c 0,3.83937 -3.11243,6.9518 -6.9518,6.9518 -3.83938,0 -6.9518,-3.11243 -6.9518,-6.9518 0,-3.83937 3.11242,-6.9518 6.9518,-6.9518 3.83937,0 6.9518,3.11243 6.9518,6.9518 z"
         transform="scale(0.8,0.8)" />
      <path
         transform="matrix(0.8,0,0,0.8,35.2,0)"
         d="m 235.96398,174.19226 c 0,3.83937 -3.11243,6.9518 -6.9518,6.9518 -3.83938,0 -6.9518,-3.11243 -6.9518,-6.9518 0,-3.83937 3.11242,-6.9518 6.9518,-6.9518 3.83937,0 6.9518,3.11243 6.9518,6.9518 z"
         sodipodi:ry="6.9518008"
         sodipodi:rx="6.9518008"
         sodipodi:cy="174.19226"
         sodipodi:cx="229.01218"
         id="path3004"
         style="fill:#000000;fill-opacity:1;stroke:none"
         sodipodi:type="arc" />
      <path
         style="fill:#f03e3e;fill-opacity:1;stroke:none"
         d="m 200.52675,143.00749 -6.26052,5.86925 6.26052,10.56466 6.65184,-10.56466 z"
         id="path3006"
         inkscape:connector-curvature="0" />
    </g>
  </g>
  <g
     style="fill:#ff8080"
     id="g3896"
     transform="translate(120.76272,3.8135593)">
    <rect
       transform="matrix(0.69475573,0.71924577,0.71924577,-0.69475573,0,0)"
       style="fill:#ff8080;fill-opacity:1;stroke:none"
       id="rect3898"
       width="35.593216"
       height="42.902542"
       x="110.35886"
       y="-48.189938" />
    <rect
       y="-48.477901"
       x="93.732361"
       height="42.902542"
       width="35.593216"
       id="rect3900"
       style="fill:#ff8080;fill-opacity:1;stroke:none"
       transform="matrix(0.69475573,0.71924577,0.71924577,-0.69475573,0,0)" />
    <rect
       transform="matrix(0,1,-1,0,0,0)"
       style="fill:#ff8080;fill-opacity:1;stroke:none"
       id="rect3902"
       width="35.593216"
       height="42.902542"
       x="67.849571"
       y="-74.653831" />
    <rect
       transform="matrix(-0.69475573,0.71924577,-0.71924577,-0.69475573,0,0)"
       style="fill:#ff8080;fill-opacity:1;stroke:none"
       id="rect3904"
       width="35.593216"
       height="42.902542"
       x="1.9598421"
       y="-143.48537" />
    <rect
       y="-101.85381"
       x="67.849571"
       height="42.902542"
       width="35.593216"
       id="rect3906"
       style="fill:#ff8080;fill-opacity:1;stroke:none"
       transform="matrix(0,1,-1,0,0,0)" />
    <rect
       style="fill:#ff8080;fill-opacity:1;stroke:none"
       id="rect3908"
       width="46.716099"
       height="60.06356"
       x="42.902542"
       y="57.203388" />
  </g>
  <path
     id="path3910"
     d="m 173.90594,54.370339 c -14.4,5.3 -24.1,17.3 -26.5,32.8 -0.9,5.6 -0.8,7.8 0.5,12.3 2.4,8.100001 8.2,17.200001 17.2,26.800001 8.4,8.9 20.9,20.2 22.5,20.2 1.3,0 12.5,-9.5 19.3,-16.4 12.1,-12.3 20.3,-25.5 21.4,-34.500001 1.8,-15.4 -8.3,-32.4 -23.5,-39.7 -7.7,-3.8 -22.9,-4.5 -30.9,-1.5 z m 3.2,19 c 4.6,2.1 7.8,5.3 9.6,9.6 1.2,2.8 1.3,2.9 1.7,0.7 0.6,-3.6 7.2,-9.8 11.9,-11.2 5.3,-1.6 10.6,-0.3 15.4,3.7 4.2,3.6 5.9,8 5.9,15.5 0,7.5 -2.4,13.300001 -9.3,22.400001 -4.7,6.1 -23.1,24.4 -24.6,24.4 -1.5,0 -17.9,-16 -23,-22.4 -8,-10 -11.1,-16.700001 -11.1,-23.700001 0,-9.7 3.3,-15.7 10.5,-19 5,-2.3 8,-2.3 13,0 z"
     inkscape:connector-curvature="0"
     style="fill:#ff5555" />
  <path
     transform="matrix(0.8,0,0,0.8,-12.39406,-50.529661)"
     d="m 235.96398,174.19226 a 6.9518008,6.9518008 0 1 1 -13.9036,0 6.9518008,6.9518008 0 1 1 13.9036,0 z"
     sodipodi:ry="6.9518008"
     sodipodi:rx="6.9518008"
     sodipodi:cy="174.19226"
     sodipodi:cx="229.01218"
     id="path3914"
     style="fill:#000000;fill-opacity:1;stroke:none"
     sodipodi:type="arc" />
  <path
     sodipodi:type="arc"
     style="fill:#000000;fill-opacity:1;stroke:none"
     id="path3916"
     sodipodi:cx="229.01218"
     sodipodi:cy="174.19226"
     sodipodi:rx="6.9518008"
     sodipodi:ry="6.9518008"
     d="m 235.96398,174.19226 a 6.9518008,6.9518008 0 1 1 -13.9036,0 6.9518008,6.9518008 0 1 1 13.9036,0 z"
     transform="matrix(0.8,0,0,0.8,22.80594,-50.529661)" />
  <path
     inkscape:connector-curvature="0"
     id="path3918"
     d="m 188.13269,92.477829 -6.26052,5.86925 6.26052,10.564661 6.65184,-10.564661 z"
     style="fill:#aa0000;fill-opacity:1;stroke:none" />
</svg>
