<?xml version="1.0" encoding="UTF-8" standalone="no"?>
<!-- Created with Inkscape (http://www.inkscape.org/) -->

<svg
   xmlns:osb="http://www.openswatchbook.org/uri/2009/osb"
   xmlns:dc="http://purl.org/dc/elements/1.1/"
   xmlns:cc="http://creativecommons.org/ns#"
   xmlns:rdf="http://www.w3.org/1999/02/22-rdf-syntax-ns#"
   xmlns:svg="http://www.w3.org/2000/svg"
   xmlns="http://www.w3.org/2000/svg"
   xmlns:xlink="http://www.w3.org/1999/xlink"
   xmlns:sodipodi="http://sodipodi.sourceforge.net/DTD/sodipodi-0.dtd"
   xmlns:inkscape="http://www.inkscape.org/namespaces/inkscape"
   id="svg2993"
   version="1.1"
   inkscape:version="0.48.4 r9939"
   width="3280.9753"
   height="2404.1631"
   sodipodi:docname="push.svg">
  <metadata
     id="metadata2999">
    <rdf:RDF>
      <cc:Work
         rdf:about="">
        <dc:format>image/svg+xml</dc:format>
        <dc:type
           rdf:resource="http://purl.org/dc/dcmitype/StillImage" />
        <dc:title></dc:title>
      </cc:Work>
    </rdf:RDF>
  </metadata>
  <defs
     id="defs2997">
    <linearGradient
       id="linearGradient5873"
       osb:paint="solid">
      <stop
         style="stop-color:#ffffff;stop-opacity:1;"
         offset="0"
         id="stop5875" />
    </linearGradient>
    <inkscape:path-effect
       effect="spiro"
       id="path-effect3820"
       is_visible="true" />
    <inkscape:path-effect
       effect="spiro"
       id="path-effect3816"
       is_visible="true" />
    <inkscape:path-effect
       effect="spiro"
       id="path-effect3812"
       is_visible="true" />
    <inkscape:path-effect
       effect="spiro"
       id="path-effect3808"
       is_visible="true" />
    <inkscape:path-effect
       effect="spiro"
       id="path-effect3804"
       is_visible="true" />
    <inkscape:path-effect
       effect="spiro"
       id="path-effect3800"
       is_visible="true" />
    <inkscape:path-effect
       effect="spiro"
       id="path-effect3796"
       is_visible="true" />
    <linearGradient
       inkscape:collect="always"
       xlink:href="#linearGradient5873"
       id="linearGradient5877"
       x1="1174.342"
       y1="500.49332"
       x2="2034.0985"
       y2="500.49332"
       gradientUnits="userSpaceOnUse" />
    <linearGradient
       inkscape:collect="always"
       xlink:href="#linearGradient5873"
       id="linearGradient5879"
       x1="1384.2867"
       y1="955.44659"
       x2="1831.7888"
       y2="955.44659"
       gradientUnits="userSpaceOnUse" />
    <linearGradient
       inkscape:collect="always"
       xlink:href="#linearGradient5873"
       id="linearGradient5889"
       gradientUnits="userSpaceOnUse"
       x1="1174.342"
       y1="500.49332"
       x2="2034.0985"
       y2="500.49332" />
    <linearGradient
       inkscape:collect="always"
       xlink:href="#linearGradient5873"
       id="linearGradient5891"
       gradientUnits="userSpaceOnUse"
       x1="1174.342"
       y1="500.49332"
       x2="2034.0985"
       y2="500.49332" />
    <linearGradient
       inkscape:collect="always"
       xlink:href="#linearGradient5873"
       id="linearGradient5897"
       gradientUnits="userSpaceOnUse"
       x1="1174.342"
       y1="500.49332"
       x2="2034.0985"
       y2="500.49332" />
    <linearGradient
       inkscape:collect="always"
       xlink:href="#linearGradient5873"
       id="linearGradient5903"
       gradientUnits="userSpaceOnUse"
       x1="1174.342"
       y1="500.49332"
       x2="2034.0985"
       y2="500.49332" />
    <linearGradient
       inkscape:collect="always"
       xlink:href="#linearGradient5873"
       id="linearGradient5905"
       gradientUnits="userSpaceOnUse"
       x1="1174.342"
       y1="500.49332"
       x2="2034.0985"
       y2="500.49332" />
    <linearGradient
       inkscape:collect="always"
       xlink:href="#linearGradient5873"
       id="linearGradient5924"
       gradientUnits="userSpaceOnUse"
       x1="1174.342"
       y1="500.49332"
       x2="2034.0985"
       y2="500.49332" />
    <linearGradient
       inkscape:collect="always"
       xlink:href="#linearGradient5873"
       id="linearGradient5930"
       gradientUnits="userSpaceOnUse"
       x1="1174.342"
       y1="500.49332"
       x2="2034.0985"
       y2="500.49332" />
    <linearGradient
       inkscape:collect="always"
       xlink:href="#linearGradient5873"
       id="linearGradient5932"
       gradientUnits="userSpaceOnUse"
       x1="1174.342"
       y1="500.49332"
       x2="2034.0985"
       y2="500.49332" />
    <linearGradient
       inkscape:collect="always"
       xlink:href="#linearGradient5873"
       id="linearGradient5942"
       gradientUnits="userSpaceOnUse"
       x1="1174.342"
       y1="500.49332"
       x2="2034.0985"
       y2="500.49332" />
    <linearGradient
       inkscape:collect="always"
       xlink:href="#linearGradient5873"
       id="linearGradient5944"
       gradientUnits="userSpaceOnUse"
       x1="1174.342"
       y1="500.49332"
       x2="2034.0985"
       y2="500.49332" />
    <linearGradient
       inkscape:collect="always"
       xlink:href="#linearGradient5873"
       id="linearGradient5946"
       gradientUnits="userSpaceOnUse"
       x1="1174.342"
       y1="500.49332"
       x2="2034.0985"
       y2="500.49332" />
    <linearGradient
       inkscape:collect="always"
       xlink:href="#linearGradient5873"
       id="linearGradient5948"
       gradientUnits="userSpaceOnUse"
       x1="1174.342"
       y1="500.49332"
       x2="2034.0985"
       y2="500.49332" />
    <linearGradient
       inkscape:collect="always"
       xlink:href="#linearGradient5873"
       id="linearGradient5950"
       gradientUnits="userSpaceOnUse"
       x1="1174.342"
       y1="500.49332"
       x2="2034.0985"
       y2="500.49332" />
    <linearGradient
       inkscape:collect="always"
       xlink:href="#linearGradient5873"
       id="linearGradient5957"
       gradientUnits="userSpaceOnUse"
       x1="1174.342"
       y1="500.49332"
       x2="2034.0985"
       y2="500.49332"
       gradientTransform="translate(158.39192,16.970563)" />
    <linearGradient
       inkscape:collect="always"
       xlink:href="#linearGradient5873"
       id="linearGradient5959"
       gradientUnits="userSpaceOnUse"
       x1="1174.342"
       y1="500.49332"
       x2="2034.0985"
       y2="500.49332" />
    <linearGradient
       inkscape:collect="always"
       xlink:href="#linearGradient5873"
       id="linearGradient5963"
       gradientUnits="userSpaceOnUse"
       x1="1174.342"
       y1="500.49332"
       x2="2034.0985"
       y2="500.49332" />
    <linearGradient
       inkscape:collect="always"
       xlink:href="#linearGradient5873"
       id="linearGradient5967"
       gradientUnits="userSpaceOnUse"
       x1="1174.342"
       y1="500.49332"
       x2="2034.0985"
       y2="500.49332" />
    <linearGradient
       inkscape:collect="always"
       xlink:href="#linearGradient5873"
       id="linearGradient5971"
       gradientUnits="userSpaceOnUse"
       x1="1174.342"
       y1="500.49332"
       x2="2034.0985"
       y2="500.49332" />
    <linearGradient
       inkscape:collect="always"
       xlink:href="#linearGradient5873"
       id="linearGradient6343"
       gradientUnits="userSpaceOnUse"
       x1="1384.2867"
       y1="955.44659"
       x2="1831.7888"
       y2="955.44659" />
    <linearGradient
       inkscape:collect="always"
       xlink:href="#linearGradient5873"
       id="linearGradient6345"
       gradientUnits="userSpaceOnUse"
       x1="1384.2867"
       y1="955.44659"
       x2="1831.7888"
       y2="955.44659" />
    <linearGradient
       inkscape:collect="always"
       xlink:href="#linearGradient5873"
       id="linearGradient6347"
       gradientUnits="userSpaceOnUse"
       x1="1384.2867"
       y1="955.44659"
       x2="1831.7888"
       y2="955.44659" />
    <linearGradient
       inkscape:collect="always"
       xlink:href="#linearGradient5873"
       id="linearGradient6349"
       gradientUnits="userSpaceOnUse"
       x1="1384.2867"
       y1="955.44659"
       x2="1831.7888"
       y2="955.44659" />
    <linearGradient
       inkscape:collect="always"
       xlink:href="#linearGradient5873"
       id="linearGradient6351"
       gradientUnits="userSpaceOnUse"
       gradientTransform="translate(158.39192,16.970563)"
       x1="1174.342"
       y1="500.49332"
       x2="2034.0985"
       y2="500.49332" />
    <linearGradient
       inkscape:collect="always"
       xlink:href="#linearGradient5873"
       id="linearGradient6353"
       gradientUnits="userSpaceOnUse"
       x1="1174.342"
       y1="500.49332"
       x2="2034.0985"
       y2="500.49332" />
    <linearGradient
       inkscape:collect="always"
       xlink:href="#linearGradient5873"
       id="linearGradient6355"
       gradientUnits="userSpaceOnUse"
       x1="1174.342"
       y1="500.49332"
       x2="2034.0985"
       y2="500.49332" />
    <linearGradient
       inkscape:collect="always"
       xlink:href="#linearGradient5873"
       id="linearGradient6357"
       gradientUnits="userSpaceOnUse"
       x1="1174.342"
       y1="500.49332"
       x2="2034.0985"
       y2="500.49332" />
    <linearGradient
       inkscape:collect="always"
       xlink:href="#linearGradient5873"
       id="linearGradient6359"
       gradientUnits="userSpaceOnUse"
       x1="1174.342"
       y1="500.49332"
       x2="2034.0985"
       y2="500.49332" />
    <linearGradient
       inkscape:collect="always"
       xlink:href="#linearGradient5873"
       id="linearGradient6361"
       gradientUnits="userSpaceOnUse"
       x1="1174.342"
       y1="500.49332"
       x2="2034.0985"
       y2="500.49332" />
    <linearGradient
       inkscape:collect="always"
       xlink:href="#linearGradient5873"
       id="linearGradient6363"
       gradientUnits="userSpaceOnUse"
       x1="1174.342"
       y1="500.49332"
       x2="2034.0985"
       y2="500.49332" />
  </defs>
  <sodipodi:namedview
     pagecolor="#ffffff"
     bordercolor="#666666"
     borderopacity="1"
     objecttolerance="10"
     gridtolerance="10"
     guidetolerance="10"
     inkscape:pageopacity="0"
     inkscape:pageshadow="2"
     inkscape:window-width="1920"
     inkscape:window-height="1017"
     id="namedview2995"
     showgrid="false"
     inkscape:zoom="0.1767767"
     inkscape:cx="58.339322"
     inkscape:cy="1475.47"
     inkscape:window-x="-8"
     inkscape:window-y="-8"
     inkscape:window-maximized="1"
     inkscape:current-layer="svg2993"
     fit-margin-top="0"
     fit-margin-left="0"
     fit-margin-right="0"
     fit-margin-bottom="0" />
  <rect
     style="fill:#000000;stroke:none"
     id="rect4256"
     width="3280.9753"
     height="2404.1631"
     x="0"
     y="0"
     ry="31.991526" />
  <g
     id="g6130"
     transform="translate(16.970562,-4.2389674)">
    <g
       id="g6044">
      <g
         id="g6028">
        <g
           transform="translate(158.39192,16.970563)"
           style="fill:#ffffff;stroke:#ffffff;stroke-opacity:1"
           id="g4038">
          <path
             style="fill:#ffffff;fill-opacity:1;fill-rule:evenodd;stroke:#ffffff;stroke-width:20;stroke-linecap:round;stroke-linejoin:round;stroke-miterlimit:4;stroke-opacity:1;stroke-dasharray:none;stroke-dashoffset:0"
             id="path3874"
             d="m 2487.1977,854.91708 c 15.7988,0.078 31.5979,0.0444 47.3968,0.0279 11.4461,0.49412 23.0619,-1.01311 34.4163,0.69916 8.666,1.77673 17.3047,2.95778 25.7529,5.59205 7.8015,2.66384 15.085,6.07067 23.2496,7.67591 9.6621,1.48303 19.466,1.52111 29.218,1.61444 10.3731,0.0455 20.7464,0.001 31.1195,-0.0193 11.3584,-0.16991 22.7257,0.47535 34.0339,-0.70367 15.0122,-1.4604 29.7209,-4.81554 44.6033,-7.1548 11.7405,-1.80489 23.612,-2.29059 35.4693,-2.52364 10.0032,0.0309 19.8162,0.35532 29.6295,-1.70498 9.25,-2.40647 18.2073,-5.4798 27.6827,-7.07402 11.6368,-1.39081 23.3729,-1.52651 35.0772,-1.64232 10.7085,-0.058 21.4172,-0.0167 32.1258,0.003 10.3064,0.43368 20.2193,-2.51706 29.3594,-7.0612 1.4727,-0.70934 5.8255,-2.95892 4.4179,-2.12801 -4.5196,2.66794 -9.1148,5.21059 -13.7642,7.64518 -1.296,0.67857 2.4275,-1.63696 3.6926,-2.3714 7.0987,-4.12112 14.1662,-8.30281 21.3942,-12.19267 2.2262,-1.19802 6.0463,-2.03287 8.4413,-2.65524 9.7123,-2.60052 15.4273,1.44429 18.7722,10.33218 2.3906,9.58678 2.1996,19.56783 2.244,29.38102 -0.4474,9.00782 -3.8425,16.92534 -9.2949,23.98115 -5.8428,6.94379 -10.2181,14.95045 -15.0158,22.62014 -5.4899,11.7959 -55.8209,36.90109 -18.0918,15.61703 -10.7203,9.87722 -23.444,18.19481 -37.8906,21.01606 -3.1159,0.38948 -5.728,0.49199 -8.6649,1.69948 -1.1807,0.48546 -4.4526,2.49797 -3.3165,1.91552 4.9846,-2.55563 9.6348,-5.83213 14.8654,-7.83672 1.125,-0.43114 -1.518,1.88716 -2.0974,2.94342 -0.6244,1.13811 -0.994,2.39844 -1.4909,3.59766 -1.5153,8.60244 -3.7722,17.06183 -5.3898,25.65366 -2.8383,8.16969 -5.0039,16.39636 -6.123,24.97493 -1.4244,9.6225 -4.5058,18.7374 -7.5228,27.9286 -2.9161,7.3867 -6.7718,14.3279 -12.8044,19.5696 -15.7612,11.0351 -26.1633,15.8591 -44.0015,13.3129 -9.659,-0.6074 -18.213,-3.6702 -26.6327,-8.1728 -0.7514,-4.1336 -12.3407,2.6899 -9.2109,1.0955 21.9923,-11.2036 16.3229,-9.9969 9.8022,-1.6302 -4.8134,6.9128 -7.8949,14.9968 -10.7826,22.8874 -5.5564,12.0436 -21.0729,24.9523 -34.6318,20.6113 -6.832,-2.8211 -9.7625,-9.7231 -16.0294,-13.5312 -1.1644,-0.2225 -2.3078,-0.6587 -3.4933,-0.6677 -1.3232,-0.01 -7.2174,1.2777 -8.2574,1.6446 -1.3822,0.4876 -5.2437,2.6172 -3.9636,1.9035 16.8448,-9.3907 18.0315,-10.6526 10.8889,-4.9826 -13.2305,16.2417 -11.7999,13.9155 -34.6166,26.5481 -9.0507,1.0776 -17.847,-0.5429 -25.7995,-4.9235 -7.3723,-4.5613 -15.5537,-7.0337 -24.207,-6.642 -1.5719,0.4225 -3.1879,0.706 -4.7157,1.2674 -0.534,0.1962 -9.5012,4.437 -9.89,4.6398 -1.7239,0.8988 -6.8072,3.7565 -5.072,2.8795 13.0315,-6.5859 17.4438,-10.1847 8.642,-3.6699 -7.0491,6.4355 -13.9667,13.0586 -20.6296,19.9011 -5.7762,5.2613 -10.0738,11.6616 -15.6261,17.147 -0.9363,0.815 -1.8726,1.63 -2.809,2.4451 0,0 -19.0889,7.6943 -19.0889,7.6943 l 0,0 c 0.9622,-0.7519 1.9244,-1.5037 2.8866,-2.2556 1.7162,-1.7652 3.6781,-3.2805 5.3863,-5.0535 3.675,-3.8146 5.5479,-9.1788 10.2846,-12.058 6.4982,-7.085 13.8242,-13.3674 20.5367,-20.2544 13.8391,-10.2491 29.5437,-21.0322 46.6975,-24.7714 8.9018,0.2037 17.2149,2.7427 24.807,7.4629 7.6714,3.8345 16.2539,5.4873 24.7122,3.413 -4.653,2.8354 -9.3059,5.6708 -13.9589,8.5062 1.0892,-0.6697 2.2532,-1.2309 3.2677,-2.0092 4.4473,-3.4122 6.1371,-8.7935 10.118,-12.6017 10.845,-8.9115 26.1148,-21.3482 41.2067,-16.695 5.8586,3.8936 9.0108,10.4986 15.6747,12.938 0.8939,0.1225 1.7816,0.4308 2.6815,0.3675 1.0995,-0.077 4.1092,-1.4232 3.2127,-0.7821 -27.1609,19.4216 -10.0127,7.1648 -6.8368,0.2355 2.7457,-8.0919 6.0816,-16.2122 10.5041,-23.5022 1.7164,-2.1562 2.6431,-5.0719 4.8913,-6.6659 10.6737,-7.5679 18.5001,-16.4907 30.627,-12.1522 8.2493,4.3647 16.8054,6.9145 26.1824,7.5875 3.4072,0.4037 6.2094,0.8931 9.649,0.6949 8.6997,-0.5012 27.1821,-10.1098 -1.514,5.4818 6.4731,-4.5285 10.1119,-11.3842 13.3249,-18.4614 2.8928,-9.1342 6.2624,-18.0371 7.6973,-27.5817 1.0053,-8.6167 2.7995,-17.00187 6.0639,-25.07614 1.5281,-8.7177 4.0958,-17.18417 5.2185,-25.96917 4.9357,-14.9883 21.2539,-21.21501 35.7104,-23.43757 8.3043,-2.02399 19.0534,-8.73136 -6.149,6.05494 -4.9081,2.87959 13.1163,-7.74044 8.5079,-7.15888 6.9306,-4.09502 13.8558,-8.19917 20.7918,-12.28507 4.7103,-2.77476 -9.3299,5.70739 -14.1146,8.35164 -6.8295,3.77425 19.1298,-12.83905 11.7908,-10.85854 4.7294,-7.76463 9.2706,-15.72541 14.8938,-22.88004 5.7353,-6.42562 9.1218,-14.08782 9.9348,-22.70213 -0.028,-9.5854 0.1883,-19.3219 -1.9563,-28.72156 -3.0168,-8.39415 -8.4635,-10.33129 -17.0678,-7.77908 -2.7742,0.85608 -10.6036,4.59433 -8.1761,3.00184 33.4702,-21.95717 -3.7849,5.09356 -15.7823,8.94466 -9.4907,4.16541 -19.4215,6.92206 -29.8976,6.33835 -10.698,-0.0211 -21.3963,-0.0663 -32.0942,0.007 -11.6485,0.1387 -23.3465,0.27274 -34.8986,1.93264 -9.4172,1.77548 -18.3535,5.04449 -27.6833,7.11902 -9.8708,1.804 -19.8067,1.23922 -29.8059,1.39549 -11.7844,0.27603 -23.5783,0.84134 -35.2374,2.69869 -14.897,2.39677 -29.653,5.67874 -44.7003,7.06176 -11.3767,0.93473 -22.7898,0.47031 -34.1982,0.59353 -10.3792,0.021 -20.7586,0.0681 -31.1378,-7.2e-4 -9.8443,-0.12476 -19.752,-0.2073 -29.4766,-1.92109 -8.1337,-1.79514 -15.4783,-5.31108 -23.3659,-7.82535 -8.3618,-2.52496 -16.9837,-3.59601 -25.5362,-5.32656 -11.3232,-1.27948 -22.7999,-0.12599 -34.1737,-0.54161 -15.8245,-0.0165 -31.6493,-0.0499 -47.4737,0.0279 0,0 16.6048,-12.06413 16.6048,-12.06413 z"
             inkscape:connector-curvature="0" />
          <path
             style="fill:#ffffff;fill-opacity:1;fill-rule:evenodd;stroke:#ffffff;stroke-width:20;stroke-linecap:round;stroke-linejoin:round;stroke-miterlimit:4;stroke-opacity:1;stroke-dasharray:none;stroke-dashoffset:0"
             id="path3876"
             d="m 769.27781,924.02394 c -17.1279,-0.0847 -34.2561,-0.0454 -51.3841,-0.0245 -14.3656,-0.24391 -28.7718,0.65315 -43.0879,-0.68913 -13.1411,-1.47771 -26.2001,-3.01621 -39.1759,-5.53546 -10.1773,-2.21591 -18.7856,-8.12145 -28.5275,-11.46769 -7.9995,-2.80222 -16.428,-4.66035 -24.3435,-7.68292 -7.673,-2.64333 -15.1172,-5.87752 -22.4991,-9.26268 -9.1507,-4.14912 -19.1528,-4.95035 -28.4535,-8.63795 -10.9903,-5.65707 -19.9322,-14.24568 -30.3913,-20.81194 -7.7898,-5.84518 -15.9467,-11.10041 -23.9014,-16.67743 -7.4365,-4.7214 -13.724,-11.2094 -19.9916,-17.37212 -6.3205,-7.04937 -12.4263,-14.34028 -18.3521,-21.73444 -4.1031,-7.06972 -6.5171,-14.76753 -13.6951,-19.37272 -0.7606,-0.0543 -1.5555,-0.39535 -2.2818,-0.16287 -0.6856,0.21949 -2.2789,1.72965 -1.6312,1.41551 5.4276,-2.63222 10.384,-6.27377 16.0297,-8.39837 0.9637,-0.36268 -0.9969,1.82953 -1.236,2.83111 -0.578,2.42171 -0.1586,5.41959 0.01,7.81039 0.5911,9.04817 4.6881,17.16973 9.2815,24.80677 5.185,8.32928 11.0441,16.27134 16.6708,24.32827 8.0303,8.28967 13.6764,17.5811 16.7266,28.66909 1.0673,9.29767 3.582,18.29848 5.2832,27.48334 1.5703,9.67993 1.7656,19.5043 1.9343,29.28729 0.5941,8.50785 2.8082,15.61576 7.8461,22.38504 5.7218,6.27488 14.0861,7.09977 22.0698,7.86746 9.6847,1.87259 19.2933,2.53475 26.4899,9.83958 4.3813,7.42646 6.1169,16.2669 8.2402,24.60068 2.5215,7.41365 8.3364,12.65685 14.703,16.86095 8.7168,3.7711 16.9073,8.6217 25.6369,12.337 9.4918,2.1258 14.6514,7.5111 17.6228,16.4837 2.4729,9.3962 1.3862,19.1809 2.6501,28.7087 1.4631,7.7323 4.8138,15.225 9.4557,21.5724 5.0967,7.8932 11.0063,15.2689 15.5207,23.5172 3.5731,8.469 3.9013,17.439 9.465,24.9867 6.8302,6.5713 16.2714,7.3297 25.2598,8.0212 10.0085,0.318 19.8438,-0.041 29.6914,1.9176 8.2164,3.082 14.3493,9.8578 18.8246,17.2079 4.3564,7.7982 11.6902,10.0088 19.9675,11.3614 1.5533,0.1522 3.1066,0.3044 4.6599,0.4566 0,0 -16.7431,11.8893 -16.7431,11.8893 l 0,0 c -1.5833,-0.1893 -3.1666,-0.3785 -4.75,-0.5678 -8.7282,-1.709 -16.332,-4.647 -20.9128,-12.8184 -4.2077,-6.8944 -9.9919,-13.2863 -17.8938,-15.7653 -9.7945,-1.7729 -19.6421,-1.1562 -29.5493,-1.7609 -9.5474,-0.9008 -19.2691,-2.2 -26.242,-9.4785 -5.5539,-7.7116 -6.3244,-16.5094 -9.5924,-25.2207 -4.4543,-8.178 -10.3248,-15.4806 -15.401,-23.2767 -4.8216,-6.6261 -8.3389,-14.4182 -9.9314,-22.4628 -1.3816,-9.4075 -0.2343,-19.0624 -2.4972,-28.3853 -2.7247,-8.6425 -7.8487,-12.7836 -16.7044,-15.0063 -8.7574,-3.9093 -17.175,-8.5578 -25.8523,-12.6459 -6.6946,-4.6266 -12.7591,-10.2532 -15.4654,-18.15036 -1.9975,-7.98018 -3.6874,-16.45183 -7.693,-23.62654 -6.9432,-6.66815 -16.6318,-6.94186 -25.7002,-8.70158 -8.5311,-0.99381 -17.1238,-2.39986 -23.0329,-9.26682 -5.283,-7.13658 -7.6664,-14.61474 -8.4095,-23.53394 -0.1516,-9.67615 -0.3136,-19.39262 -1.8028,-28.97545 -1.6481,-9.14597 -4.2543,-18.07619 -5.1798,-27.34686 -2.8758,-10.91614 -8.5023,-19.90677 -16.3295,-28.07252 -5.6911,-8.07076 -11.6491,-16.00858 -16.8052,-24.41837 -4.738,-7.89835 -9.0177,-16.2902 -9.7453,-25.62673 -1.42,-14.86668 4.3642,-28.92059 24.7046,-24.05212 6.9865,5.12842 10.0054,12.48648 13.9815,19.89888 5.8863,7.32008 11.8598,14.61756 18.2013,21.53711 6.2342,6.06177 12.4445,12.4246 19.8354,17.06204 7.9923,5.47074 15.9278,10.96321 23.775,16.65971 10.2763,6.58958 19.1895,15.10162 30.1964,20.44803 9.3849,3.44231 19.4693,4.35645 28.5577,8.70961 7.3987,3.24924 14.7599,6.57109 22.4287,9.13038 8.0206,2.77675 16.2728,4.96061 24.3172,7.6832 9.5499,3.52452 18.1694,9.22852 28.2821,11.25777 12.9164,2.46649 25.949,3.91051 39.0158,5.38315 14.2999,1.07031 28.6538,0.3364 42.9848,0.55164 17.1504,0.021 34.3011,0.0599 51.4515,-0.0245 0,0 -16.5825,12.04789 -16.5825,12.04789 z"
             inkscape:connector-curvature="0" />
        </g>
        <g
           transform="translate(158.39192,16.970563)"
           style="fill:#ffffff;stroke:#fff8f8;stroke-opacity:1"
           id="g4026">
          <g
             style="fill:#ffffff;stroke:#fff8f8;stroke-opacity:1"
             id="g3904"
             transform="translate(2892,4)">
            <path
               inkscape:connector-curvature="0"
               d="m -2010.1189,1711.6465 c -15.3589,-1.9176 -30.7726,-2.5474 -45.9736,-5.5334 -15.3506,-2.0362 -30.4925,-4.6973 -45.6521,-7.872 -16.2263,-3.7681 -32.0156,-9.0347 -47.7514,-14.4513 -12.993,-4.2874 -26.5179,-6.2218 -40.1074,-7.2519 -11.8645,-1.0816 -23.8555,0.2742 -35.6595,-1.2843 -8.9477,-0.774 -16.9098,-4.8861 -25.4814,-7.1442 -9.5855,-1.3813 -18.8956,-4.0245 -28.4425,-5.6533 -9.1667,-1.6172 -18.4201,-3.7906 -27.3388,-6.5367 -9.3449,-3.6271 -18.1769,-8.3848 -27.4499,-12.1459 -9.3579,-4.8502 -19.6643,-7.2314 -29.7957,-9.8739 -11.4635,-3.0092 -22.0029,-7.183 -33.9758,-7.4586 -13.6189,0.4267 -27.193,1.6619 -40.8003,2.3432 -12.1986,0.8489 -24.5097,-0.2658 -36.6392,1.3122 -10.4908,1.8836 -21.0407,2.3724 -31.0131,6.2864 -10.4134,4.0801 -20.4527,9.0361 -30.8103,13.232 -10.1349,5.4592 -21.5128,7.4297 -31.9445,12.1077 -10.1674,4.506 -19.7016,10.3827 -30.9376,11.594 -9.7551,-1.1979 -11.3275,-10.3784 -12.4308,-18.5942 -0.8555,-10.2292 -0.6414,-20.5109 -0.5754,-30.7652 1.1265,-15.9569 -8.14,-29.3384 -15.6921,-42.6034 -7.8579,-12.8631 -17.1378,-24.6414 -26.7447,-36.2125 -8.2941,-7.4314 -15.2367,-15.9416 -20.0388,-25.9916 -2.72,-8.1076 -5.977,-16.086 -11.2339,-22.8861 -5.0315,-6.6231 -9.3484,-13.7496 -14.811,-20.035 -7.1975,-6.1663 -13.9348,-12.4531 -19.8286,-19.9247 -6.0188,-8.281 -12.3769,-16.2799 -18.6708,-24.3485 -4.077,-7.5729 -10.2556,-13.4784 -16.8286,-18.872 -7.6177,-5.5482 -15.2214,-11.1177 -22.2588,-17.4163 -4.633,-3.6845 -2.2339,-2.0094 -7.1853,-5.0422 0,0 17.2765,-11.1259 17.2765,-11.1259 l 0,0 c 5.0809,3.2814 2.628,1.5048 7.3551,5.3343 7.0724,6.2302 14.6646,11.7721 22.2408,17.3501 6.6028,5.5717 12.9135,11.5488 17.0514,19.2518 6.2891,8.0645 12.5531,16.129 18.6353,24.3508 5.9107,7.4185 12.765,13.5574 19.8256,19.8309 5.422,6.3689 9.8348,13.4724 14.8848,20.1301 5.2618,6.9715 8.7352,14.9925 11.4016,23.2842 4.6859,9.9197 11.6688,18.171 19.7074,25.5992 9.6299,11.7031 19.0344,23.5267 26.8225,36.5774 7.6667,13.5056 17.3656,27.2155 16.3746,43.449 -0.069,10.1679 -0.2801,20.3585 0.4749,30.507 0.8759,7.1802 1.6983,15.7532 10.6971,15.8511 10.9708,-1.8884 20.4405,-7.6543 30.5614,-11.9986 10.5455,-4.351 21.8135,-6.7294 31.9692,-12.098 10.2802,-4.4137 20.4498,-9.0958 30.8703,-13.1686 10.1179,-3.4876 20.7887,-4.0687 31.2963,-5.8832 12.1909,-1.1757 24.4817,-0.385 36.7051,-1.2035 13.6238,-0.7037 27.2221,-1.9665 40.8668,-2.1645 11.9973,0.6522 22.732,4.7984 34.2707,7.7954 10.2187,2.6973 20.551,5.1944 30.0077,10.0695 9.1531,3.8874 17.9682,8.5264 27.3221,11.9685 8.9398,2.5256 18.0236,4.8992 27.1926,6.3556 9.5719,1.7327 18.99,4.187 28.5841,5.7882 8.4268,2.3948 16.4042,6.2504 25.2681,6.9169 11.8135,1.2155 23.7513,0.1292 35.5895,1.2428 13.6874,1.1789 27.2865,3.3148 40.3581,7.697 15.6726,5.3227 31.3215,10.7364 47.5106,14.31 15.1918,3.1493 30.4229,5.4948 45.7605,7.7631 15.1851,2.9181 30.607,3.5248 45.9434,5.3853 0,0 -16.7522,11.8558 -16.7522,11.8558 z"
               id="path3882"
               style="fill:#ffffff;fill-opacity:1;fill-rule:evenodd;stroke:#fff8f8;stroke-width:20;stroke-linecap:round;stroke-linejoin:round;stroke-miterlimit:4;stroke-opacity:1;stroke-dasharray:none;stroke-dashoffset:0" />
            <path
               inkscape:connector-curvature="0"
               d="m -2600.5006,1687.2295 c -11.9575,-10.4701 -24.1469,-20.4721 -35.6126,-31.4786 -8.5368,-9.89 -16.3863,-20.343 -24.3291,-30.7215 -6.737,-10.1736 -15.5031,-18.6947 -23.1897,-28.1215 -6.6094,-10.1842 -15.406,-18.6566 -24.5893,-26.4938 -6.4175,-6.3437 -11.9538,-13.558 -17.6167,-20.5848 -7.017,-8.0922 -12.5882,-17.2262 -18.8369,-25.865 -6.5728,-10.5954 -15.5845,-19.2434 -23.926,-28.3883 -7.1741,-7.8195 -15.7094,-14.0167 -23.5252,-21.156 -9.3565,-8.8202 -18.8915,-17.5512 -29.9224,-24.2304 -8.2852,-5.5203 -16.5429,-10.907 -25.251,-15.726 -9.2631,-4.737 -18.9501,-8.7027 -27.9078,-14.0044 -7.8894,-4.0647 -15.3117,-8.9258 -23.8185,-11.611 -1.2504,-0.5664 -2.5007,-1.1328 -3.751,-1.6992 0,0 17.1244,-11.3895 17.1244,-11.3895 l 0,0 c 1.2116,0.5153 2.4231,1.0307 3.6347,1.546 8.5043,2.9597 16.0819,7.8079 24.0217,11.9867 9.0202,5.1754 18.6599,9.1815 27.8982,13.952 8.7407,4.7994 16.9024,10.4023 25.2547,15.8431 11.0188,6.9177 20.6571,15.6544 30.0992,24.5638 7.9123,7.1234 16.5584,13.3155 23.6703,21.2962 8.3779,9.2109 17.3554,17.9928 24.0486,28.583 6.2322,8.6027 11.7608,17.7279 18.8054,25.7489 5.6552,6.8815 11.0165,14.0773 17.397,20.2962 9.182,8.0079 18.0712,16.5425 24.7631,26.806 7.7101,9.4293 16.4794,17.9796 23.1712,28.2099 7.862,10.3164 15.759,20.5999 24.1996,30.4411 11.4029,11.0985 23.6275,21.088 35.6769,31.4799 0,0 -17.4888,10.7172 -17.4888,10.7172 z"
               id="path3884"
               style="fill:#ffffff;fill-opacity:1;fill-rule:evenodd;stroke:#fff8f8;stroke-width:20;stroke-linecap:round;stroke-linejoin:round;stroke-miterlimit:4;stroke-opacity:1;stroke-dasharray:none;stroke-dashoffset:0" />
            <path
               inkscape:connector-curvature="0"
               d="m -2611.8148,1690.1774 c -15.7172,-4.3091 -31.9758,-5.7257 -47.9628,-8.5579 -12.446,-1.6636 -24.5244,-4.4704 -36.6513,-7.6018 -9.3079,-3.8903 -19.0036,-6.1516 -28.9797,-7.38 -8.4665,-2.0964 -16.9976,-3.7575 -25.6473,-4.8617 0,0 16.7538,-11.8367 16.7538,-11.8367 l 0,0 c 8.6363,1.1971 17.1347,2.9989 25.6504,4.8536 10.0187,1.3853 19.6967,3.9031 29.131,7.5891 12.0356,3.1872 24.1079,5.7439 36.4472,7.5325 16.0772,2.7056 32.3303,4.4879 48.1485,8.613 0,0 -16.8898,11.6499 -16.8898,11.6499 z"
               id="path3886"
               style="fill:#ffffff;fill-opacity:1;fill-rule:evenodd;stroke:#fff8f8;stroke-width:20;stroke-linecap:round;stroke-linejoin:round;stroke-miterlimit:4;stroke-opacity:1;stroke-dasharray:none;stroke-dashoffset:0" />
            <path
               inkscape:connector-curvature="0"
               d="m -2582.9602,1679.8331 c 4.2535,12.4996 9.7201,24.5004 14.4917,36.7907 3.0837,8.0997 10.2653,13.2114 15.1268,20.0703 5.443,5.7357 7.893,13.2537 11.0254,20.34 3.5026,8.5415 4.1582,17.7759 4.657,26.8867 1.7755,8.8164 3.5889,17.5695 4.5231,26.5258 0.9686,9.3972 1.384,18.6857 -1.825,27.677 -3.3827,7.3425 -8.4471,13.9068 -13.2804,20.3707 0,0 -18.8886,8.1024 -18.8886,8.1024 l 0,0 c 4.9848,-6.1801 9.6568,-12.9338 13.4994,-19.8381 3.8148,-8.5375 3.1302,-17.6729 2.2933,-26.804 -0.8949,-8.9953 -2.6617,-17.7899 -4.5615,-26.619 -0.448,-8.8667 -0.9866,-17.875 -4.3425,-26.2084 -3.0744,-6.9702 -5.4772,-14.3278 -10.8203,-19.9755 -4.9878,-6.9605 -12.268,-12.2432 -15.3082,-20.5614 -4.7254,-12.3684 -10.1344,-24.4589 -14.6289,-36.9244 0,0 18.0387,-9.8328 18.0387,-9.8328 z"
               id="path3888"
               style="fill:#ffffff;fill-opacity:1;fill-rule:evenodd;stroke:#fff8f8;stroke-width:20;stroke-linecap:round;stroke-linejoin:round;stroke-miterlimit:4;stroke-opacity:1;stroke-dasharray:none;stroke-dashoffset:0" />
          </g>
          <g
             style="fill:#ffffff;stroke:#fff8f8;stroke-opacity:1"
             id="g3914">
            <path
               inkscape:connector-curvature="0"
               d="m 2216.1808,1706.3747 c 15.7988,0.078 31.5979,0.044 47.3968,0.028 11.8523,-0.011 23.7045,-0.029 35.5568,-0.015 10.8968,-0.9727 21.4176,1.5354 32.0792,3.2447 11.2166,1.4405 22.5367,1.6963 33.8297,1.8836 10.6501,0.1209 21.3011,0.089 31.9516,0.076 10.4578,-0.3623 20.7381,-0.2457 30.702,3.2046 8.6935,3.2207 16.447,8.7489 22.9968,15.2489 7.0658,5.6577 11.2153,13.799 16.8221,20.7169 5.4606,6.1572 9.7393,12.171 12.0877,20.1319 2.1183,9.5724 2.1203,19.4364 2.2314,29.1914 0.053,11.176 -0.036,22.352 -0.064,33.5279 0.8016,12.9385 -0.2109,22.7186 -6.7268,33.9508 -5.1129,7.7828 -12.0013,14.254 -18.8679,20.483 -9.9169,10.0056 -18.8108,20.9803 -28.0539,31.6103 0,0 -18.7949,7.9439 -18.7949,7.9439 l 0,0 c 9.1954,-10.6699 18.2849,-21.4337 27.8011,-31.8132 7.0173,-5.9127 13.6793,-12.5402 19.1515,-19.8998 7.3134,-11.9709 7.9868,-18.843 7.245,-32.9838 0.026,-11.1617 0.06,-22.3234 0.039,-33.4851 -0.093,-9.5785 -0.06,-19.2581 -2.0087,-28.6799 -2.1883,-7.7361 -6.4474,-13.4292 -11.6926,-19.4222 -5.4924,-6.9059 -9.679,-14.9039 -16.6563,-20.5315 -6.4321,-6.2231 -14.0007,-11.4736 -22.4925,-14.4515 -9.8939,-3.03 -20.0425,-2.9558 -30.3128,-2.6834 -10.654,0.01 -21.3088,0.038 -31.9619,-0.1176 -11.363,-0.2291 -22.7556,-0.5413 -34.0288,-2.1034 -10.5725,-1.7599 -21.042,-3.917 -31.8455,-3.0035 -11.8382,0.013 -23.6765,0 -35.5147,-0.015 -15.8246,-0.017 -31.6493,-0.05 -47.4738,0.028 0,0 16.6049,-12.0641 16.6049,-12.0641 z"
               id="path3890"
               style="fill:#ffffff;fill-opacity:1;fill-rule:evenodd;stroke:#fff8f8;stroke-width:20;stroke-linecap:round;stroke-linejoin:round;stroke-miterlimit:4;stroke-opacity:1;stroke-dasharray:none;stroke-dashoffset:0" />
            <path
               inkscape:connector-curvature="0"
               d="m 2502.2108,1845.7466 c 15.4606,-4.1454 31.3653,-6.274 47.2721,-7.7775 5.5227,-1.3493 11.3179,-1.9144 16.7864,-3.4986 7.1277,-2.0649 21.977,-10.938 -6.0837,4.8243 12.5357,-7.3707 25.1421,-15.0449 38.8925,-19.9522 9.0018,-2.6456 18.4406,-2.9063 27.751,-3.179 12.5206,-0.1817 25.0431,-0.1073 37.5646,-0.088 13.0403,-0.1965 25.9551,-0.2231 38.8762,1.6316 9.3298,1.6295 19.5227,3.6483 27.09,9.6448 6.1931,4.8224 11.2396,10.5709 14.297,17.8139 1.5907,5.6277 0.9165,2.748 2.0025,8.6435 0,0 -18.1399,9.6504 -18.1399,9.6504 l 0,0 c -0.9754,-5.641 -0.3646,-2.897 -1.8064,-8.2378 -2.8644,-6.9346 -7.8408,-12.314 -13.7504,-16.8892 -7.5137,-5.519 -17.4045,-7.2771 -26.4166,-8.8249 -12.8623,-1.7342 -25.7422,-1.4835 -38.7019,-1.4128 -12.5258,-0.024 -25.0543,-0.093 -37.5778,0.1862 -9.2157,0.3444 -18.5773,0.7125 -27.3802,3.7438 -3.6429,1.4564 -7.1099,3.1949 -10.7051,4.7551 -1.2183,0.5287 -4.7992,2.2339 -3.6893,1.5046 3.5167,-2.3107 21.5919,-12.8216 10.8892,-6.3861 -18.1935,10.408 -26.4985,15.9952 -46.2984,18.2287 -15.8835,1.5691 -31.7693,3.7572 -47.1503,8.1526 0,0 16.2785,-12.5337 16.2785,-12.5337 z"
               id="path3892"
               style="fill:#ffffff;fill-opacity:1;fill-rule:evenodd;stroke:#fff8f8;stroke-width:20;stroke-linecap:round;stroke-linejoin:round;stroke-miterlimit:4;stroke-opacity:1;stroke-dasharray:none;stroke-dashoffset:0" />
            <path
               inkscape:connector-curvature="0"
               d="m 2496.2486,1872.3408 c 18.4219,0.6186 36.9414,-0.913 55.3121,0.7221 11.0659,1.3981 22.1781,2.6837 32.4684,7.1828 8.637,3.7314 16.5194,8.8615 24.256,14.1651 9.1538,4.6503 15.7153,12.4737 22.6414,19.7684 7.1707,7.562 11.8025,16.6964 15.9839,26.1214 2.3314,6.5056 1.0693,3.3931 3.7457,9.3541 0,0 -17.8834,10.0832 -17.8834,10.0832 l 0,0 c -2.7187,-6.0675 -1.4677,-2.946 -3.7341,-9.3721 -4.0732,-9.2228 -8.6049,-18.1392 -15.6365,-25.5157 -6.8098,-7.2392 -13.4204,-14.746 -22.421,-19.3822 -7.6743,-5.1762 -15.4567,-10.2406 -24.0311,-13.8238 -10.2123,-4.1182 -21.1351,-5.3873 -32.0026,-6.7205 -18.3817,-1.4216 -36.8833,-0.1977 -55.3037,-0.5187 0,0 16.6049,-12.0641 16.6049,-12.0641 z"
               id="path3894"
               style="fill:#ffffff;fill-opacity:1;fill-rule:evenodd;stroke:#fff8f8;stroke-width:20;stroke-linecap:round;stroke-linejoin:round;stroke-miterlimit:4;stroke-opacity:1;stroke-dasharray:none;stroke-dashoffset:0" />
            <path
               inkscape:connector-curvature="0"
               d="m 2474.1398,1892.3707 c 11.6397,13.0038 22.0805,26.9437 32.3203,41.0526 7.4803,10.5194 13.0635,22.1723 19.3785,33.3651 4.8986,7.8993 6.4166,16.8409 7.2876,25.9233 0.3009,4.3454 -1.1477,8.0652 -3.0176,11.8536 0,0 -18.8033,8.4029 -18.8033,8.4029 l 0,0 c 2.1308,-3.3659 3.7232,-6.6366 3.6109,-10.766 -0.7806,-8.8126 -2.1261,-17.495 -6.8741,-25.1692 -6.2144,-11.1582 -11.6882,-22.7789 -19.0966,-33.2533 -10.2112,-14.0823 -20.5947,-28.0358 -32.4069,-40.8413 0,0 17.6012,-10.5677 17.6012,-10.5677 z"
               id="path3896"
               style="fill:#ffffff;fill-opacity:1;fill-rule:evenodd;stroke:#fff8f8;stroke-width:20;stroke-linecap:round;stroke-linejoin:round;stroke-miterlimit:4;stroke-opacity:1;stroke-dasharray:none;stroke-dashoffset:0" />
          </g>
        </g>
      </g>
      <g
         id="g5994">
        <path
           sodipodi:nodetypes="csssssssssssssc"
           inkscape:connector-curvature="0"
           inkscape:original-d="m 1335.7139,584.88581 c -256.4485,21.25637 -294.7674,-12.07808 -342.30503,225.6102 -13.7617,68.8085 -84.95368,373.62949 -93.35594,440.84749 -9.97485,79.7989 -23.91224,189.5999 7.77967,259.3221 80.54566,177.2004 48.48977,167.0531 241.1695,282.6609 123.4623,74.0774 273.5238,49.5801 407.1356,82.9831 97.5826,24.3956 417.3158,33.8082 510.8644,-12.9661 79.2004,-39.6002 164.8321,-68.7746 246.3559,-95.9492 26.1892,-8.7297 48.6634,-43.7808 75.2034,-57.0508 114.0028,-57.0014 183.2445,-112.368 274.8814,-158.1865 52.8347,-26.4173 52.2992,-131.1103 67.4237,-181.5254 20.2066,-67.3553 15.236,-207.1272 5.1864,-277.4745 -51.5304,-360.71307 -444.3238,-500.49162 -775.3729,-500.49162 -36.0746,0 -137.4114,13.85002 -165.9661,-5.18645 -35.9497,-23.96647 -386.7911,-14.62803 -459,-2.59322 z"
           inkscape:path-effect="#path-effect3796"
           id="path3794"
           d="m 1335.7139,584.88581 c -140.6134,17.04674 -271.1942,103.11135 -342.30503,225.6102 -76.12854,131.14253 -82.78342,289.57909 -93.35594,440.84749 -6.05789,86.6744 -13.8784,175.1789 7.77967,259.3221 15.9203,61.8516 47.60363,119.2975 89.6622,167.3615 42.0586,48.064 94.3339,86.834 151.5073,115.2994 124.8557,62.1629 267.9431,74.1152 407.1356,82.9831 170.4611,10.8601 342.9951,18.5748 510.8644,-12.9661 87.3135,-16.4053 174.1848,-44.1408 246.3559,-95.9492 25.5667,-18.3531 49.0462,-39.5497 75.2034,-57.0508 44.2841,-29.6293 94.9811,-47.8752 143.7064,-69.4348 48.7254,-21.5597 97.2053,-47.7025 131.175,-88.7517 41.6537,-50.3346 56.7512,-117.0684 67.4237,-181.5254 15.1988,-91.794 23.9794,-186.3484 5.1864,-277.4745 -16.7278,-81.112 -55.1797,-157.14806 -107.4891,-221.35631 C 2576.2544,807.59254 2510.3364,755.03183 2438.0214,714.66455 2293.3914,633.93 2126.0228,602.54707 1960.68,592.66548 c -55.2552,-3.30229 -110.6187,-4.34108 -165.9661,-5.18645 -152.987,-2.33672 -305.9964,-3.20118 -459,-2.59322"
           style="fill:none;stroke:#ffffff;stroke-width:20;stroke-linecap:butt;stroke-linejoin:miter;stroke-miterlimit:4;stroke-opacity:1;stroke-dasharray:none" />
        <g
           transform="translate(158.39192,16.970563)"
           style="fill:#ffffff;stroke:#ffffff;stroke-opacity:1"
           id="g3994">
          <path
             style="fill:#ffffff;fill-opacity:1;fill-rule:evenodd;stroke:#ffffff;stroke-width:20;stroke-linecap:round;stroke-linejoin:round;stroke-miterlimit:4;stroke-opacity:1;stroke-dasharray:none;stroke-dashoffset:0"
             id="path3924"
             d="m 1077.6148,822.73807 c 12.5854,12.26406 25.8758,23.75089 38.9142,35.51739 0,0 -13.2316,8.19713 -13.2316,8.19713 l 0,0 c -13.0112,-11.86617 -26.2441,-23.48684 -39.1706,-35.44903 0,0 13.488,-8.26549 13.488,-8.26549 z"
             inkscape:connector-curvature="0" />
          <path
             style="fill:#ffffff;fill-opacity:1;fill-rule:evenodd;stroke:#ffffff;stroke-width:20;stroke-linecap:round;stroke-linejoin:round;stroke-miterlimit:4;stroke-opacity:1;stroke-dasharray:none;stroke-dashoffset:0"
             id="path3926"
             d="m 968.58017,947.37914 c 19.31044,0.12452 38.62153,0.0892 57.93213,0.0564 0,0 -12.5648,9.12891 -12.5648,9.12891 l 0,0 c -19.36247,-0.033 -38.72528,-0.0674 -58.08748,0.0564 0,0 12.72015,-9.24173 12.72015,-9.24173 z"
             inkscape:connector-curvature="0" />
          <path
             style="fill:#ffffff;fill-opacity:1;fill-rule:evenodd;stroke:#ffffff;stroke-width:20;stroke-linecap:round;stroke-linejoin:round;stroke-miterlimit:4;stroke-opacity:1;stroke-dasharray:none;stroke-dashoffset:0"
             id="path3928"
             d="m 1288.5077,1019.0269 c -16.3538,10.8407 -32.9345,21.3214 -49.1639,32.3474 -10.4293,7.2317 -20.8264,14.5103 -31.4146,21.5075 0,0 -14.5405,5.6778 -14.5405,5.6778 l 0,0 c 10.624,-6.9357 21.0138,-14.2196 31.4166,-21.4824 16.1724,-10.9803 32.691,-21.4168 48.9454,-32.2763 0,0 14.757,-5.774 14.757,-5.774 z"
             inkscape:connector-curvature="0" />
          <path
             style="fill:#ffffff;fill-opacity:1;fill-rule:evenodd;stroke:#ffffff;stroke-width:20;stroke-linecap:round;stroke-linejoin:round;stroke-miterlimit:4;stroke-opacity:1;stroke-dasharray:none;stroke-dashoffset:0"
             id="path3930"
             d="m 966.9389,1312.6849 c 19.65412,-10.1965 39.5312,-19.9607 59.2277,-30.0785 7.5013,-4.0703 15.3058,-7.4626 23.2255,-10.6078 0,0 -12.3256,9.6956 -12.3256,9.6956 l 0,0 c -7.8262,3.1828 -15.5451,6.5942 -22.9934,10.604 -19.80996,10.0873 -39.71536,19.986 -59.44263,30.2322 0,0 12.30843,-9.8455 12.30843,-9.8455 z"
             inkscape:connector-curvature="0" />
          <path
             style="fill:#ffffff;fill-opacity:1;fill-rule:evenodd;stroke:#ffffff;stroke-width:20;stroke-linecap:round;stroke-linejoin:round;stroke-miterlimit:4;stroke-opacity:1;stroke-dasharray:none;stroke-dashoffset:0"
             id="path3932"
             d="m 678.23093,1479.3478 c 17.08957,0.1112 34.17966,0.079 51.26945,0.052 12.99799,-0.017 25.996,-0.017 38.994,-0.024 14.18476,-0.015 28.36945,0.035 42.55421,0.035 0,0 -12.63419,9.1792 -12.63419,9.1792 l 0,0 c -14.21666,-5e-4 -28.43326,0.05 -42.64993,0.035 -12.97573,-0.01 -25.95147,-0.01 -38.92719,-0.024 -17.13755,-0.027 -34.27537,-0.058 -51.41271,0.052 0,0 12.80636,-9.3044 12.80636,-9.3044 z"
             inkscape:connector-curvature="0" />
          <path
             style="fill:#ffffff;fill-opacity:1;fill-rule:evenodd;stroke:#ffffff;stroke-width:20;stroke-linecap:round;stroke-linejoin:round;stroke-miterlimit:4;stroke-opacity:1;stroke-dasharray:none;stroke-dashoffset:0"
             id="path3934"
             d="m 1022.6854,1483.8729 c 9.3478,-16.479 22.3432,-30.5736 34.3267,-45.1603 8.9069,-11.8584 19.8776,-21.8862 29.5235,-33.0748 6.4683,-7.4899 11.9528,-15.747 18.2569,-23.3626 0,0 14.5727,-6.1721 14.5727,-6.1721 l 0,0 c -6.5417,7.4461 -11.8201,15.9069 -18.3344,23.3913 -9.5047,11.3775 -20.8276,21.1676 -29.7074,33.127 -11.9187,14.467 -24.931,28.4362 -34.1811,44.8071 0,0 -14.4569,6.4444 -14.4569,6.4444 z"
             inkscape:connector-curvature="0" />
          <path
             style="fill:#ffffff;fill-opacity:1;fill-rule:evenodd;stroke:#ffffff;stroke-width:20;stroke-linecap:round;stroke-linejoin:round;stroke-miterlimit:4;stroke-opacity:1;stroke-dasharray:none;stroke-dashoffset:0"
             id="path3936"
             d="m 1239.1895,1402.9149 c 13.3883,-18.5606 28.0266,-36.1564 42.0871,-54.1963 8.9517,-10.2439 17.2705,-21.0058 25.9256,-31.489 4.6446,-5.8282 2.3086,-3.0369 6.99,-8.3889 0,0 14.533,-6.1187 14.533,-6.1187 l 0,0 c -4.7708,5.264 -2.4129,2.4861 -7.0442,8.3583 -8.809,10.4112 -16.9173,21.4235 -26.124,31.5162 -14.0019,17.9475 -28.5797,35.4462 -41.9618,53.8761 0,0 -14.4057,6.4423 -14.4057,6.4423 z"
             inkscape:connector-curvature="0" />
          <path
             style="fill:#ffffff;fill-opacity:1;fill-rule:evenodd;stroke:#ffffff;stroke-width:20;stroke-linecap:round;stroke-linejoin:round;stroke-miterlimit:4;stroke-opacity:1;stroke-dasharray:none;stroke-dashoffset:0"
             id="path3938"
             d="m 1193.8006,1564.0496 c 2.673,-10.9626 6.9424,-21.3723 11.9663,-31.4374 2.7386,-7.2888 7.536,-13.4298 11.3621,-20.109 0,0 14.4723,-6.4806 14.4723,-6.4806 l 0,0 c -3.5946,6.8247 -8.8469,12.7161 -11.4702,20.094 -5.0339,9.958 -9.5406,20.1977 -12.0179,31.1352 0,0 -14.3126,6.7978 -14.3126,6.7978 z"
             inkscape:connector-curvature="0" />
          <path
             style="fill:#ffffff;fill-opacity:1;fill-rule:evenodd;stroke:#ffffff;stroke-width:20;stroke-linecap:round;stroke-linejoin:round;stroke-miterlimit:4;stroke-opacity:1;stroke-dasharray:none;stroke-dashoffset:0"
             id="path3940"
             d="m 1499.4804,1508.6404 c 1.3496,14.3074 2.3765,28.6411 3.0599,42.9952 0.2341,5.1072 0.3383,10.2186 0.4353,15.3297 0,0 -14.0573,7.1923 -14.0573,7.1923 l 0,0 c -0.075,-5.1074 -0.1551,-10.215 -0.3586,-15.3194 -0.6033,-14.3149 -1.5051,-28.6221 -3.0832,-42.8662 0,0 14.0039,-7.3316 14.0039,-7.3316 z"
             inkscape:connector-curvature="0" />
          <path
             style="fill:#ffffff;fill-opacity:1;fill-rule:evenodd;stroke:#ffffff;stroke-width:20;stroke-linecap:round;stroke-linejoin:round;stroke-miterlimit:4;stroke-opacity:1;stroke-dasharray:none;stroke-dashoffset:0"
             id="path3942"
             d="m 1633.9389,1545.044 c 12.7482,6.1873 25.4249,12.5854 37.0376,20.7399 10.9567,6.6101 20.8277,14.8335 28.1763,25.3386 5.7081,9.0794 7.05,19.4157 7.7717,29.8708 -0.2384,1.8131 -0.036,3.7414 -0.7151,5.4394 -3.1198,7.8014 -9.1052,14.1963 -14.5639,20.3048 -9.8716,11.0468 -20.8002,21.0086 -31.5505,31.1731 -2.74,2.4368 -5.4799,4.8736 -8.2199,7.3104 0,0 -14.3645,5.8456 -14.3645,5.8456 l 0,0 c 2.7763,-2.4334 5.5527,-4.8668 8.3291,-7.3002 10.7836,-10.1395 21.7256,-20.0554 31.6761,-31.0392 4.7238,-5.2142 11.5021,-12.4747 14.5458,-19.3461 0.7024,-1.5857 0.5681,-3.4218 0.8521,-5.1327 -0.6352,-10.1749 -1.8053,-20.2729 -7.3253,-29.1348 -7.2726,-10.3508 -17.0625,-18.3477 -27.8477,-24.8946 -11.6001,-8.0433 -24.1573,-14.5203 -36.9811,-20.3921 0,0 13.1793,-8.7829 13.1793,-8.7829 z"
             inkscape:connector-curvature="0" />
          <path
             style="fill:#ffffff;fill-opacity:1;fill-rule:evenodd;stroke:#ffffff;stroke-width:20;stroke-linecap:round;stroke-linejoin:round;stroke-miterlimit:4;stroke-opacity:1;stroke-dasharray:none;stroke-dashoffset:0"
             id="path3944"
             d="m 1918.1603,1288.8737 c -2.2176,10.7092 -3.6255,21.5583 -4.9471,32.4064 0,0 -14.0212,6.9307 -14.0212,6.9307 l 0,0 c 1.3305,-10.8587 2.7864,-21.7035 4.7338,-32.4721 0,0 14.2345,-6.865 14.2345,-6.865 z"
             inkscape:connector-curvature="0" />
          <path
             style="fill:#ffffff;fill-opacity:1;fill-rule:evenodd;stroke:#ffffff;stroke-width:20;stroke-linecap:round;stroke-linejoin:round;stroke-miterlimit:4;stroke-opacity:1;stroke-dasharray:none;stroke-dashoffset:0"
             id="path3946"
             d="m 1783.0521,1372.2345 c -0.7191,15.1609 0.7011,30.1825 3.4194,45.0751 0,0 -13.8463,7.3709 -13.8463,7.3709 l 0,0 c -2.6967,-14.9593 -4.1663,-30.0339 -3.6773,-45.2595 0,0 14.1042,-7.1865 14.1042,-7.1865 z"
             inkscape:connector-curvature="0" />
          <path
             style="fill:#ffffff;fill-opacity:1;fill-rule:evenodd;stroke:#ffffff;stroke-width:20;stroke-linecap:round;stroke-linejoin:round;stroke-miterlimit:4;stroke-opacity:1;stroke-dasharray:none;stroke-dashoffset:0"
             id="path3948"
             d="m 1953.5832,1246.1948 c 11.1063,9.3841 21.1114,19.8474 30.4399,30.9746 8.1099,11.0028 14.4446,23.1899 18.8483,36.1124 4.4618,16.2761 4.1132,33.4856 3.624,50.2201 -0.7326,12.5827 -0.3304,6.48 -1.1905,18.3093 0,0 -13.9674,6.984 -13.9674,6.984 l 0,0 c 0.934,-11.8223 0.4957,-5.7272 1.2988,-18.2866 0.558,-16.54 0.7191,-33.5204 -3.5377,-49.6337 -4.2821,-12.7613 -10.5015,-24.793 -18.4979,-35.6413 -9.276,-11.0635 -19.2418,-21.4917 -30.4423,-30.6437 0,0 13.4248,-8.3951 13.4248,-8.3951 z"
             inkscape:connector-curvature="0" />
          <path
             style="fill:#ffffff;fill-opacity:1;fill-rule:evenodd;stroke:#ffffff;stroke-width:20;stroke-linecap:round;stroke-linejoin:round;stroke-miterlimit:4;stroke-opacity:1;stroke-dasharray:none;stroke-dashoffset:0"
             id="path3950"
             d="m 1916.7694,1563.3953 c 6.259,12.1891 13.6849,23.6205 21.3417,34.9494 4.2909,6.055 9.7229,11.1262 15.4909,15.7399 0,0 -13.4128,8.4117 -13.4128,8.4117 l 0,0 c -5.8143,-4.7869 -11.3449,-9.962 -15.6523,-16.19 -7.6277,-11.3944 -14.9568,-22.9216 -21.4786,-35.003 0,0 13.7111,-7.908 13.7111,-7.908 z"
             inkscape:connector-curvature="0" />
          <path
             style="fill:#ffffff;fill-opacity:1;fill-rule:evenodd;stroke:#ffffff;stroke-width:20;stroke-linecap:round;stroke-linejoin:round;stroke-miterlimit:4;stroke-opacity:1;stroke-dasharray:none;stroke-dashoffset:0"
             id="path3952"
             d="m 2081.2026,1467.3291 c 7.6355,10.9629 16.1462,21.229 24.4308,31.6874 4.2412,5.1081 7.6034,10.8143 11.7775,15.9689 0,0 -13.56,8.1082 -13.56,8.1082 l 0,0 c -4.1346,-5.1877 -7.5208,-10.8796 -11.7363,-16.0092 -8.2647,-10.5091 -16.6817,-20.881 -24.5325,-31.7149 0,0 13.6205,-8.0404 13.6205,-8.0404 z"
             inkscape:connector-curvature="0" />
          <path
             style="fill:#ffffff;fill-opacity:1;fill-rule:evenodd;stroke:#ffffff;stroke-width:20;stroke-linecap:round;stroke-linejoin:round;stroke-miterlimit:4;stroke-opacity:1;stroke-dasharray:none;stroke-dashoffset:0"
             id="path3954"
             d="m 1039.0521,1752.2345 c 0.06,13.1276 0.299,26.2411 -2.2527,39.1682 -2.2505,12.4806 -10.3188,22.1338 -18.5348,31.3205 -5.3992,5.4519 -11.6871,9.9391 -18.0786,14.142 0,0 -14.67501,5.7105 -14.67501,5.7105 l 0,0 c 6.47201,-4.0318 12.69593,-8.5645 18.27711,-13.7718 8.1926,-8.9385 16.4161,-18.3035 18.8327,-30.5425 2.8433,-12.7745 2.5615,-25.8167 2.3271,-38.8404 0,0 14.1042,-7.1865 14.1042,-7.1865 z"
             inkscape:connector-curvature="0" />
          <path
             style="fill:#ffffff;fill-opacity:1;fill-rule:evenodd;stroke:#ffffff;stroke-width:20;stroke-linecap:round;stroke-linejoin:round;stroke-miterlimit:4;stroke-opacity:1;stroke-dasharray:none;stroke-dashoffset:0"
             id="path3956"
             d="m 1211.0521,1784.2345 c -0.1088,15.3843 -0.106,30.769 -0.079,46.1536 0.019,12.7388 0.029,25.4776 0.047,38.2164 -0.5152,8.1487 0.1551,15.7879 3.4397,23.2557 2.1474,2.4958 4.505,4.7958 6.8408,7.1115 0,0 -13.4998,8.282 -13.4998,8.282 l 0,0 c -2.478,-2.4496 -5.0031,-4.867 -7.1625,-7.6132 -3.3825,-7.6782 -4.2664,-15.4852 -3.657,-23.8828 0.018,-12.7547 0.028,-25.5094 0.047,-38.2641 0.026,-15.3576 0.03,-30.7154 -0.079,-46.0726 0,0 14.1042,-7.1865 14.1042,-7.1865 z"
             inkscape:connector-curvature="0" />
          <path
             style="fill:#ffffff;fill-opacity:1;fill-rule:evenodd;stroke:#ffffff;stroke-width:20;stroke-linecap:round;stroke-linejoin:round;stroke-miterlimit:4;stroke-opacity:1;stroke-dasharray:none;stroke-dashoffset:0"
             id="path3958"
             d="m 1410.1993,1819.9504 c -2.8462,11.4947 -5.5937,23.0312 -8.0294,34.6239 -1.4179,8.5924 -3.6326,17.0659 -6.9318,25.1252 -2.9398,6.4675 -3.1569,13.5806 -4.376,20.4531 -1.6597,7.284 -2.091,14.7617 -3.5495,22.0713 0,0 -14.2422,6.8823 -14.2422,6.8823 l 0,0 c 1.6638,-7.2565 1.8927,-14.7562 3.5558,-22.0305 1.3793,-6.9206 1.3185,-14.1623 4.2184,-20.741 3.3502,-7.9854 5.8228,-16.3295 7.1628,-24.9074 2.4039,-11.6094 5.2623,-23.1181 7.8794,-34.6791 0,0 14.3125,-6.7978 14.3125,-6.7978 z"
             inkscape:connector-curvature="0" />
          <path
             style="fill:#ffffff;fill-opacity:1;fill-rule:evenodd;stroke:#ffffff;stroke-width:20;stroke-linecap:round;stroke-linejoin:round;stroke-miterlimit:4;stroke-opacity:1;stroke-dasharray:none;stroke-dashoffset:0"
             id="path3960"
             d="m 1615.8915,1749.201 c -21.4322,25.0863 -41.8834,50.9774 -61.6407,77.3955 -9.9302,14.9727 -20.0168,30.0224 -27.0063,46.636 -3.4123,8.5368 -4.1555,17.6157 -4.4003,26.6999 -0.4671,8.631 0.1448,16.9796 2.7521,25.2261 2.5403,8.3059 6.8661,15.8054 12.1788,22.6171 0,0 -13.5791,8.084 -13.5791,8.084 l 0,0 c -5.3499,-7.0002 -9.7763,-14.6507 -12.4108,-23.1084 -2.7923,-8.3779 -3.5482,-16.8538 -3.0543,-25.6714 0.2062,-9.2584 0.8624,-18.5312 4.2384,-27.2691 6.9253,-16.8246 17.1724,-31.9723 27.1354,-47.1186 19.7821,-26.2735 40.2079,-52.0475 61.3053,-77.2806 0,0 14.4815,-6.2105 14.4815,-6.2105 z"
             inkscape:connector-curvature="0" />
          <path
             style="fill:#ffffff;fill-opacity:1;fill-rule:evenodd;stroke:#ffffff;stroke-width:20;stroke-linecap:round;stroke-linejoin:round;stroke-miterlimit:4;stroke-opacity:1;stroke-dasharray:none;stroke-dashoffset:0"
             id="path3962"
             d="m 1725.5434,1845.6415 c 14.9404,11.7754 27.6627,26.3923 38.9455,41.6506 1.5497,2.4685 3.0994,4.937 4.6491,7.4055 0,0 -13.4945,7.8532 -13.4945,7.8532 l 0,0 c -1.5154,-2.4418 -3.0309,-4.8836 -4.5464,-7.3253 -11.1547,-15.1457 -23.7562,-29.764 -38.8989,-41.0392 0,0 13.3452,-8.5448 13.3452,-8.5448 z"
             inkscape:connector-curvature="0" />
          <path
             style="fill:#ffffff;fill-opacity:1;fill-rule:evenodd;stroke:#ffffff;stroke-width:20;stroke-linecap:round;stroke-linejoin:round;stroke-miterlimit:4;stroke-opacity:1;stroke-dasharray:none;stroke-dashoffset:0"
             id="path3964"
             d="m 1871.4689,1789.6211 c 2.816,26.403 6.3381,52.7233 9.1231,79.1314 0.2944,3.1296 0.5888,6.2592 0.8832,9.3888 0,0 -13.8178,7.1969 -13.8178,7.1969 l 0,0 c -0.2673,-3.1368 -0.5346,-6.2737 -0.8019,-9.4105 -2.5814,-26.4054 -5.8908,-52.7219 -9.3675,-79.0225 0,0 13.9809,-7.2841 13.9809,-7.2841 z"
             inkscape:connector-curvature="0" />
          <path
             style="fill:#ffffff;fill-opacity:1;fill-rule:evenodd;stroke:#ffffff;stroke-width:20;stroke-linecap:round;stroke-linejoin:round;stroke-miterlimit:4;stroke-opacity:1;stroke-dasharray:none;stroke-dashoffset:0"
             id="path3966"
             d="m 2060.349,1743.9867 c 4.8694,12.7053 9.0733,25.6258 14.7224,38.0186 3.29,6.6509 5.8572,13.5389 8.0209,20.6235 0,0 -13.8135,7.5587 -13.8135,7.5587 l 0,0 c -2.1177,-7.0314 -4.69,-13.8359 -7.9204,-20.4418 -5.6293,-12.4372 -9.6939,-25.4436 -14.8366,-38.0769 0,0 13.8272,-7.6821 13.8272,-7.6821 z"
             inkscape:connector-curvature="0" />
          <path
             style="fill:#ffffff;fill-opacity:1;fill-rule:evenodd;stroke:#ffffff;stroke-width:20;stroke-linecap:round;stroke-linejoin:round;stroke-miterlimit:4;stroke-opacity:1;stroke-dasharray:none;stroke-dashoffset:0"
             id="path3968"
             d="m 2150.2309,747.34782 c 19.6641,0.11504 39.3288,0.10773 58.9931,0.0851 7.6206,0.42924 15.1857,-0.3994 22.7364,-1.26061 0,0 -12.6215,9.37742 -12.6215,9.37742 l 0,0 c -7.5402,0.75522 -15.095,1.40468 -22.6869,1.01727 -19.7424,-0.0227 -39.4852,-0.0291 -59.2274,0.0851 0,0 12.8063,-9.30436 12.8063,-9.30436 z"
             inkscape:connector-curvature="0" />
          <path
             style="fill:#ffffff;fill-opacity:1;fill-rule:evenodd;stroke:#ffffff;stroke-width:20;stroke-linecap:round;stroke-linejoin:round;stroke-miterlimit:4;stroke-opacity:1;stroke-dasharray:none;stroke-dashoffset:0"
             id="path3970"
             d="m 2146.7513,823.90394 c 16.8132,2.82886 33.5593,6.04849 50.287,9.34728 16.2938,4.53776 32.6846,8.79759 47.8328,16.44226 9.5399,5.29396 18.9204,10.84954 28.5609,15.95982 0,0 -13.0919,8.56456 -13.0919,8.56456 l 0,0 c -9.6026,-5.15439 -18.9813,-10.6954 -28.5476,-15.91619 -15.0964,-7.41823 -31.3395,-11.80196 -47.549,-16.12698 -16.7542,-3.25239 -33.4916,-6.64948 -50.3824,-9.12169 0,0 12.8902,-9.14906 12.8902,-9.14906 z"
             inkscape:connector-curvature="0" />
          <path
             style="fill:#ffffff;fill-opacity:1;fill-rule:evenodd;stroke:#ffffff;stroke-width:20;stroke-linecap:round;stroke-linejoin:round;stroke-miterlimit:4;stroke-opacity:1;stroke-dasharray:none;stroke-dashoffset:0"
             id="path3972"
             d="m 2059.9131,1179.5575 c 3.3121,10.9501 5.966,22.1417 9.4789,33.0272 2.4248,7.8525 5.5818,15.4364 7.5748,23.4174 0.3875,1.2696 0.775,2.5392 1.1626,3.8088 0,0 -13.8753,7.6007 -13.8753,7.6007 l 0,0 c -0.4033,-1.2955 -0.8067,-2.5911 -1.2101,-3.8867 -1.934,-7.9655 -5.1179,-15.5031 -7.4818,-23.3429 -3.4924,-10.9064 -6.0386,-22.1341 -9.5614,-33.041 0,0 13.9123,-7.5835 13.9123,-7.5835 z"
             inkscape:connector-curvature="0" />
          <path
             style="fill:#ffffff;fill-opacity:1;fill-rule:evenodd;stroke:#ffffff;stroke-width:20;stroke-linecap:round;stroke-linejoin:round;stroke-miterlimit:4;stroke-opacity:1;stroke-dasharray:none;stroke-dashoffset:0"
             id="path3974"
             d="m 2056.7499,1018.8651 c 8.696,12.631 19.3532,23.6957 28.2795,36.1468 3.6516,5.7968 6.9626,11.813 10.8467,17.4557 0,0 -13.6412,8.0117 -13.6412,8.0117 l 0,0 c -3.824,-5.6691 -7.1034,-11.6851 -10.7063,-17.4984 -8.8889,-12.511 -19.5253,-23.6122 -28.4507,-36.1044 0,0 13.672,-8.0114 13.672,-8.0114 z"
             inkscape:connector-curvature="0" />
          <path
             style="fill:#ffffff;fill-opacity:1;fill-rule:evenodd;stroke:#ffffff;stroke-width:20;stroke-linecap:round;stroke-linejoin:round;stroke-miterlimit:4;stroke-opacity:1;stroke-dasharray:none;stroke-dashoffset:0"
             id="path3976"
             d="m 2270.0805,1015.2244 c 11.0194,10.4484 22.244,20.6967 32.9974,31.4222 6.7277,6.8893 11.9059,14.9876 17.7856,22.5433 0.874,1.205 1.748,2.4101 2.6219,3.6152 0,0 -13.6027,8.0423 -13.6027,8.0423 l 0,0 c -0.8627,-1.1917 -1.7255,-2.3834 -2.5883,-3.5751 -5.8143,-7.5195 -11.0069,-15.5178 -17.6055,-22.4219 -10.7176,-10.7701 -21.9015,-21.0807 -33.0708,-31.3762 0,0 13.4624,-8.2498 13.4624,-8.2498 z"
             inkscape:connector-curvature="0" />
          <path
             style="fill:#ffffff;fill-opacity:1;fill-rule:evenodd;stroke:#ffffff;stroke-width:20;stroke-linecap:round;stroke-linejoin:round;stroke-miterlimit:4;stroke-opacity:1;stroke-dasharray:none;stroke-dashoffset:0"
             id="path3978"
             d="m 2249.5832,1118.1948 c 12.587,11.8215 25.1021,23.6896 38.0421,35.1315 7.7434,6.5431 15.0176,13.5992 22.5289,20.4009 0,0 -13.2726,8.2169 -13.2726,8.2169 l 0,0 c -7.4417,-6.8464 -14.6659,-13.9283 -22.4036,-20.4473 -12.9838,-11.4178 -25.5513,-23.2539 -38.3196,-34.9069 0,0 13.4248,-8.3951 13.4248,-8.3951 z"
             inkscape:connector-curvature="0" />
          <path
             style="fill:#ffffff;fill-opacity:1;fill-rule:evenodd;stroke:#ffffff;stroke-width:20;stroke-linecap:round;stroke-linejoin:round;stroke-miterlimit:4;stroke-opacity:1;stroke-dasharray:none;stroke-dashoffset:0"
             id="path3980"
             d="m 2358.7008,1247.3541 c 18.7144,0.1123 37.4293,0.087 56.1439,0.058 16.176,-0.9586 31.596,3.5394 46.6326,8.9543 13.1516,3.7369 23.0237,10.1729 32.8382,19.3268 7.402,6.3155 15.9484,10.8926 23.5239,16.979 5.5242,4.7073 10.7812,9.7124 16.0518,14.6977 0,0 -13.3385,8.2258 -13.3385,8.2258 l 0,0 c -5.2479,-4.9548 -10.4758,-9.9398 -16.0401,-14.544 -7.674,-5.9964 -16.287,-10.608 -23.6079,-17.0736 -9.6713,-8.9737 -19.4686,-15.1651 -32.3676,-18.871 -14.9676,-5.2833 -30.2761,-9.4404 -46.3214,-8.5196 -18.768,-0.029 -37.5363,-0.053 -56.304,0.058 0,0 12.7891,-9.2918 12.7891,-9.2918 z"
             inkscape:connector-curvature="0" />
          <path
             style="fill:#ffffff;fill-opacity:1;fill-rule:evenodd;stroke:#ffffff;stroke-width:20;stroke-linecap:round;stroke-linejoin:round;stroke-miterlimit:4;stroke-opacity:1;stroke-dasharray:none;stroke-dashoffset:0"
             id="path3982"
             d="m 2247.4619,1404.166 c 15.2592,13.9789 30.6823,27.789 46.175,41.5108 11.3667,10.1901 25.3036,15.7633 39.3575,21.0871 14.0603,5.4775 28.7644,8.3454 43.3977,11.6896 9.6103,2.4939 19.4039,3.933 29.2952,4.599 0,0 -12.8588,9.201 -12.8588,9.201 l 0,0 c -9.9139,-0.7686 -19.7132,-2.3474 -29.3471,-4.8536 -14.6827,-3.3162 -29.3634,-6.4442 -43.4577,-11.9134 -14.2047,-5.41 -28.2742,-11.1491 -39.6766,-21.5596 -15.4264,-13.8119 -30.6682,-27.8287 -46.2396,-41.4804 0,0 13.3544,-8.2805 13.3544,-8.2805 z"
             inkscape:connector-curvature="0" />
        </g>
      </g>
    </g>
    <g
       id="g6110">
      <g
         id="g5982">
        <g
           transform="translate(158.39192,16.970563)"
           id="g3989"
           style="stroke:url(#linearGradient6349);stroke-opacity:1">
          <path
             style="fill:none;stroke:url(#linearGradient6343);stroke-width:20;stroke-linecap:butt;stroke-linejoin:miter;stroke-miterlimit:4;stroke-opacity:1;stroke-dasharray:none"
             d="m 1396.3817,637.94754 c 22.4082,74.08526 -20.3179,204.20509 7.9639,273.97841 4.9755,12.27489 4.435,38.2931 14.8919,48.7499 9.1282,9.1283 10.1865,44.04445 21.1526,55.01055 31.4117,31.4118 79.4897,68.4876 113.6884,102.6863 40.3289,40.329 60.6574,58.4711 97.7223,95.5359 2.4706,2.4706 19.9608,65.5009 26.9681,58.4936 6.9106,-6.9106 -5.0031,-113.9395 4.1124,-141.2858 3.4461,-10.3383 12.0032,-17.8571 17.8919,-23.7458 16.0796,-16.0796 33.7706,-45.7404 58.6778,-62.3452 6.3299,-4.2199 15.7443,-23.5622 22.6334,-30.4513 10.2728,-10.2728 25.5365,-10.8779 32.3771,-24.55925 18.2546,-36.5091 -2.3155,-157.22998 -10.8177,-199.74125 2.14,-35.46373 -11.1163,-71.3904 7.1504,-111.98501"
             id="path3856"
             inkscape:connector-curvature="0"
             sodipodi:nodetypes="cssssssssssscc" />
          <path
             style="fill:#499dc3;fill-opacity:1;fill-rule:evenodd;stroke:url(#linearGradient6345);stroke-width:20;stroke-linecap:round;stroke-linejoin:round;stroke-miterlimit:4;stroke-opacity:1;stroke-dasharray:none;stroke-dashoffset:0"
             id="path3920"
             d="m 1712.4705,1007.4292 c -10.2663,9.3198 -19.5797,19.5908 -29.017,29.7232 -3.5453,3.4957 -6.2063,7.5617 -8.6408,11.8541 0,0 -14.4227,6.4623 -14.4227,6.4623 l 0,0 c 2.3488,-4.4637 4.9267,-8.6789 8.5634,-12.2569 9.5128,-10.0452 18.731,-20.377 28.8345,-29.8564 0,0 14.6826,-5.9263 14.6826,-5.9263 z"
             inkscape:connector-curvature="0" />
          <path
             style="fill:#499dc3;fill-opacity:1;fill-rule:evenodd;stroke:url(#linearGradient6347);stroke-width:20;stroke-linecap:round;stroke-linejoin:round;stroke-miterlimit:4;stroke-opacity:1;stroke-dasharray:none;stroke-dashoffset:0"
             id="path3922"
             d="m 1561.9389,1021.044 c 11.2845,4.4964 21.168,11.2396 31.1505,18.0002 7.2619,4.8386 13.2844,10.527 18.842,17.1663 0.6681,0.9437 1.3363,1.8875 2.0044,2.8312 0,0 -13.6509,8.051 -13.6509,8.051 l 0,0 c -0.6447,-0.9095 -1.2894,-1.8191 -1.9341,-2.7287 -5.428,-6.5461 -11.4483,-12.0426 -18.5354,-16.8386 -9.8906,-6.7663 -19.7784,-13.3748 -31.0558,-17.6985 0,0 13.1793,-8.7829 13.1793,-8.7829 z"
             inkscape:connector-curvature="0" />
        </g>
        <g
           id="g5975">
          <path
             style="fill:none;stroke:url(#linearGradient6351);stroke-width:20;stroke-linecap:butt;stroke-linejoin:miter;stroke-miterlimit:4;stroke-opacity:1;stroke-dasharray:none"
             d="m 1587.2563,584.88581 c -20.5254,-26.58725 -31.7382,-60.22322 -31.2717,-93.80826 0.4664,-33.58505 12.6091,-66.89664 33.8649,-92.9036 15.943,-19.50665 36.741,-34.81901 59.5598,-45.49579 22.8188,-10.67678 47.6294,-16.79872 72.6945,-19.33472 72.8875,-7.3745 148.4212,16.65947 203.6451,64.79763 55.224,48.13816 89.3409,119.68538 91.982,192.89737 l -430.4746,-6.15263"
             id="path3798"
             inkscape:path-effect="#path-effect3800"
             inkscape:original-d="m 1587.2563,584.88581 c 4.2214,-53.10318 -21.8148,-137.89584 2.5932,-186.71186 21.9398,-43.87945 70.4433,-64.83051 132.2543,-64.83051 227.4475,0 255.0036,13.95435 295.6271,257.695 -136.3958,-42.0075 -317.4383,12.68676 -430.4746,-6.15263 z"
             inkscape:connector-curvature="0"
             sodipodi:nodetypes="csscc" />
          <g
             style="stroke:url(#linearGradient6359);stroke-opacity:1"
             id="g3984"
             transform="translate(158.39192,16.970563)">
            <path
               inkscape:connector-curvature="0"
               d="m 1515.1144,351.84762 c -0.8687,-19.35003 -5.8639,-37.80361 -13.6117,-55.42552 -8.032,-13.95279 -19.0737,-26.04204 -31.5937,-36.07353 -10.255,-9.17742 -21.7571,-16.74101 -33.7436,-23.42913 0,0 17.1216,-11.14124 17.1216,-11.14124 l 0,0 c 11.996,6.86605 23.5034,14.55525 33.8715,23.74379 12.7222,10.30446 23.9522,22.63551 32.0878,36.91621 7.7699,17.80442 12.8468,36.40219 14.0257,55.90313 0,0 -18.1576,9.50629 -18.1576,9.50629 z"
               id="path3862"
               style="fill:#499dc3;fill-opacity:1;fill-rule:evenodd;stroke:url(#linearGradient6353);stroke-width:20;stroke-linecap:round;stroke-linejoin:round;stroke-miterlimit:4;stroke-opacity:1;stroke-dasharray:none;stroke-dashoffset:0" />
            <path
               inkscape:connector-curvature="0"
               d="m 1577.907,352.37388 c 0.1494,-18.27961 0.1025,-36.56024 0.067,-54.84024 -0.1683,-12.11919 0.7429,-24.22398 -1.4624,-36.18833 -2.0506,-11.34156 -5.3454,-22.42233 -8.5311,-33.48972 -2.117,-6.75028 -5.4446,-12.85249 -8.8984,-18.97242 0,0 17.7958,-10.24768 17.7958,-10.24768 l 0,0 c 3.5136,6.26881 6.8842,12.52803 9.0701,19.4203 3.2132,11.11999 6.5502,22.24783 8.6878,33.62943 2.2874,12.10677 1.4497,24.32229 1.4911,36.59911 -0.035,18.25709 -0.082,36.51482 0.067,54.77152 0,0 -18.2877,9.31803 -18.2877,9.31803 z"
               id="path3864"
               style="fill:#499dc3;fill-opacity:1;fill-rule:evenodd;stroke:url(#linearGradient6355);stroke-width:20;stroke-linecap:round;stroke-linejoin:round;stroke-miterlimit:4;stroke-opacity:1;stroke-dasharray:none;stroke-dashoffset:0" />
            <path
               inkscape:connector-curvature="0"
               d="m 1632.0243,362.88603 c 8.3719,-15.46753 16.108,-31.22758 23.531,-47.16449 5.4165,-12.81596 12.0777,-25.07537 18.7962,-37.24799 9.3115,-15.02266 19.8874,-29.16528 31.1947,-42.72796 10.3826,-11.78218 21.8259,-22.64011 33.359,-33.29317 0,0 18.9183,-7.7338 18.9183,-7.7338 l 0,0 c -11.662,10.4882 -22.9532,21.49818 -33.5303,33.06953 -11.3461,13.43066 -21.9071,27.46141 -31.2921,42.34635 -6.7882,12.10836 -13.4101,24.38316 -18.8965,37.13776 -7.4949,15.90225 -15.1787,31.67784 -23.3353,47.25797 0,0 -18.745,8.3558 -18.745,8.3558 z"
               id="path3866"
               style="fill:#499dc3;fill-opacity:1;fill-rule:evenodd;stroke:url(#linearGradient6357);stroke-width:20;stroke-linecap:round;stroke-linejoin:round;stroke-miterlimit:4;stroke-opacity:1;stroke-dasharray:none;stroke-dashoffset:0" />
          </g>
        </g>
      </g>
      <g
         id="g6102">
        <g
           id="g6098">
          <path
             transform="matrix(1.8172009,0,0,1.1520268,-371.63157,-47.916766)"
             d="m 1405.5254,571.80505 c 0,98.10543 -48.1825,177.63559 -107.6187,177.63559 -59.4361,0 -107.6186,-79.53016 -107.6186,-177.63559 0,-98.10542 48.1825,-177.63559 107.6186,-177.63559 59.4362,0 107.6187,79.53017 107.6187,177.63559 z"
             sodipodi:ry="177.63559"
             sodipodi:rx="107.61864"
             sodipodi:cy="571.80505"
             sodipodi:cx="1297.9067"
             id="path3005"
             style="fill:#ffffff;stroke:url(#linearGradient6361);stroke-width:13.82283878;stroke-linecap:round;stroke-linejoin:round;stroke-miterlimit:4;stroke-opacity:1;stroke-dasharray:none;stroke-dashoffset:0"
             sodipodi:type="arc" />
          <path
             sodipodi:type="arc"
             style="fill:#499dc3;fill-opacity:1;fill-rule:evenodd;stroke:#a1e5a7;stroke-width:20;stroke-linecap:round;stroke-linejoin:round;stroke-miterlimit:4;stroke-opacity:1;stroke-dasharray:none;stroke-dashoffset:0"
             id="path3790"
             sodipodi:cx="1716.7119"
             sodipodi:cy="604.22034"
             sodipodi:rx="46.677967"
             sodipodi:ry="46.677967"
             d="m 1757.5335,626.85733 c -12.5021,22.54512 -40.9135,30.68663 -63.4586,18.18456 -22.5451,-12.50206 -30.6866,-40.91342 -18.1845,-63.45854 12.502,-22.54512 40.9134,-30.68663 63.4585,-18.18457 17.5346,9.72354 26.9008,29.55876 23.2687,49.2772"
             sodipodi:start="0.50631845"
             sodipodi:end="6.4653394"
             sodipodi:open="true"
             transform="translate(158.39192,16.970563)" />
        </g>
        <g
           id="g6094">
          <path
             sodipodi:type="arc"
             style="fill:#ffffff;stroke:url(#linearGradient6363);stroke-width:13.82283878;stroke-linecap:round;stroke-linejoin:round;stroke-miterlimit:4;stroke-opacity:1;stroke-dasharray:none;stroke-dashoffset:0"
             id="path3786"
             sodipodi:cx="1297.9067"
             sodipodi:cy="571.80505"
             sodipodi:rx="107.61864"
             sodipodi:ry="177.63559"
             d="m 1405.5254,571.80505 c 0,98.10543 -48.1825,177.63559 -107.6187,177.63559 -59.4361,0 -107.6186,-79.53016 -107.6186,-177.63559 0,-98.10542 48.1825,-177.63559 107.6186,-177.63559 59.4362,0 107.6187,79.53017 107.6187,177.63559 z"
             transform="matrix(1.8172009,0,0,1.1520268,-820.25868,-40.137105)" />
          <path
             sodipodi:open="true"
             sodipodi:end="6.4653394"
             sodipodi:start="0.50631845"
             d="m 1757.5335,626.85733 c -12.5021,22.54512 -40.9135,30.68663 -63.4586,18.18456 -22.5451,-12.50206 -30.6866,-40.91342 -18.1845,-63.45854 12.502,-22.54512 40.9134,-30.68663 63.4585,-18.18457 17.5346,9.72354 26.9008,29.55876 23.2687,49.2772"
             sodipodi:ry="46.677967"
             sodipodi:rx="46.677967"
             sodipodi:cy="604.22034"
             sodipodi:cx="1716.7119"
             id="path3792"
             style="fill:#499dc3;fill-opacity:1;fill-rule:evenodd;stroke:#a7eaa3;stroke-width:20;stroke-linecap:round;stroke-linejoin:round;stroke-miterlimit:4;stroke-opacity:1;stroke-dasharray:none;stroke-dashoffset:0"
             sodipodi:type="arc"
             transform="translate(-77.60808,16.970563)" />
        </g>
      </g>
    </g>
  </g>
</svg>
