<?xml version="1.0" encoding="UTF-8" standalone="no"?>
<svg
   xmlns:dc="http://purl.org/dc/elements/1.1/"
   xmlns:cc="http://creativecommons.org/ns#"
   xmlns:rdf="http://www.w3.org/1999/02/22-rdf-syntax-ns#"
   xmlns:svg="http://www.w3.org/2000/svg"
   xmlns="http://www.w3.org/2000/svg"
   xmlns:sodipodi="http://sodipodi.sourceforge.net/DTD/sodipodi-0.dtd"
   xmlns:inkscape="http://www.inkscape.org/namespaces/inkscape"
   version="1.0"
   width="400.000000pt"
   height="300.000000pt"
   viewBox="0 0 400.000000 300.000000"
   preserveAspectRatio="xMidYMid meet"
   id="svg2"
   inkscape:version="0.48.4 r9939"
   sodipodi:docname="raccoon.svg"
   inkscape:export-filename="C:\git\UI-UX\Pictures\animal\raccoon.png"
   inkscape:export-xdpi="90"
   inkscape:export-ydpi="90">
  <defs
     id="defs18" />
  <sodipodi:namedview
     pagecolor="#ffffff"
     bordercolor="#666666"
     borderopacity="1"
     objecttolerance="10"
     gridtolerance="10"
     guidetolerance="10"
     inkscape:pageopacity="0"
     inkscape:pageshadow="2"
     inkscape:window-width="1920"
     inkscape:window-height="1057"
     id="namedview16"
     showgrid="false"
     inkscape:zoom="0.89001174"
     inkscape:cx="250"
     inkscape:cy="187.5"
     inkscape:window-x="-8"
     inkscape:window-y="-8"
     inkscape:window-maximized="1"
     inkscape:current-layer="svg2" />
  <metadata
     id="metadata4">
Created by potrace 1.11, written by Peter Selinger 2001-2013
<rdf:RDF>
  <cc:Work
     rdf:about="">
    <dc:format>image/svg+xml</dc:format>
    <dc:type
       rdf:resource="http://purl.org/dc/dcmitype/StillImage" />
    <dc:title></dc:title>
  </cc:Work>
</rdf:RDF>
</metadata>
  <rect
     style="fill:#000000;fill-opacity:1;fill-rule:evenodd;stroke:none"
     id="rect3060"
     width="225.43097"
     height="139.32401"
     x="139.32401"
     y="118.8236"
     transform="scale(0.8,0.8)"
     ry="44.75045" />
  <path
     style="fill:#ffffff;fill-opacity:1;fill-rule:evenodd;stroke:none"
     d="m 237.65,122.16705 c -2.59738,-0.0323 -5.75624,1.16251 -8.85,3.525 -2.5,1.9 -4.8,4.1 -5.1,4.9 -0.4,1 -2.8,1.6 -7.9,1.9 -4.1,0.3 -9.3,1.4 -11.8,2.4 -4.4,2 -4.5,2 -8.3,0.1 -2.1,-1 -7.1,-2.1 -11,-2.4 -6.6,-0.5 -7.5,-0.9 -11.2,-4.3 -2.2,-2.1 -5,-4.3 -6.2,-4.9 -3.3,-1.7 -7.8,-1.3 -9.7,0.8 -2,2.2 -2.3,10.2 -0.7,15.8 0.8,2.6 0.6,3.7 -1,5.7 -3.1,4 -5.7,10.6 -6.4,16.7 -1,7.8 -0.1,8.3 10.6,6.3 13.1,-2.5 21.1,-1.1 31.7,5.7 5.1,3.3 12.2,2.9 17.7,-1 4.7,-3.4 13.7,-6.1 20,-6.1 2.2,0 7.1,0.7 10.8,1.5 9.5,2 10.1,1.6 9.5,-6.4 -0.5,-6.4 -3.1,-13.4 -6.5,-17.3 -1.3,-1.4 -1.4,-2.5 -0.4,-6.2 1.5,-6.2 1.4,-11.8 -0.5,-14.4 -1.05,-1.53124 -2.7298,-2.29988 -4.75,-2.325 z m -22.15,17.075 c 10.15975,-0.23518 21.2125,6.04376 25.6,15.55 2.7,5.9 2.5,7.7 -0.8,6.9 -3.7,-1 -16.1,-1 -20.5,-0.1 -3.5,0.7 -3.7,0.7 -4.3,-2.5 -0.9,-4.3 -5.1,-12.7 -7.6,-15.4 l -2,-2.2 2.8,-1 c 2.15625,-0.7875 4.45545,-1.19572 6.8,-1.25 z m -33.075,0.425 c 4.4554,-0.0257 8.86251,0.51251 9.875,1.525 0.8,0.8 0.5,1.7 -1,3.3 -2.8,2.9 -7.3,12.6 -7.3,15.6 0,2.1 -0.3,2.2 -4.2,1.5 -5.2,-1 -16.3,-0.9 -20,0 -2.4,0.6 -2.8,0.4 -2.8,-1.3 0,-3.5 4.7,-11.6 8.7,-14.9 2,-1.7 5.5,-3.7 7.8,-4.6 1.96876,-0.74375 5.4597,-1.105 8.925,-1.125 z m 0,2.325 c -1.76059,0 -3.2,1.41441 -3.2,3.175 0,1.7606 1.43941,3.175 3.2,3.175 1.7606,0 3.175,-1.4144 3.175,-3.175 0,-1.76059 -1.4144,-3.175 -3.175,-3.175 z m 33.6,0 c -1.76059,0 -3.2,1.41441 -3.2,3.175 0,1.7606 1.43941,3.175 3.2,3.175 1.7606,0 3.175,-1.4144 3.175,-3.175 0,-1.76059 -1.4144,-3.175 -3.175,-3.175 z m -15.75,10.45 c 3.65918,0.0615 7.1,2.65 8.225,7.15 1.7,6.5 -6.3,12.4 -12.4,9.2 -5.9,-3 -6.8,-8.9 -2.2,-13.6 1.9125,-1.91249 4.1795,-2.78691 6.375,-2.75 z"
     id="rect3040"
     inkscape:connector-curvature="0" />
</svg>
