<?xml version="1.0" encoding="UTF-8" standalone="no"?>
<svg
   xmlns:dc="http://purl.org/dc/elements/1.1/"
   xmlns:cc="http://creativecommons.org/ns#"
   xmlns:rdf="http://www.w3.org/1999/02/22-rdf-syntax-ns#"
   xmlns:svg="http://www.w3.org/2000/svg"
   xmlns="http://www.w3.org/2000/svg"
   xmlns:sodipodi="http://sodipodi.sourceforge.net/DTD/sodipodi-0.dtd"
   xmlns:inkscape="http://www.inkscape.org/namespaces/inkscape"
   version="1.0"
   width="400.000000pt"
   height="300.000000pt"
   viewBox="0 0 400.000000 300.000000"
   preserveAspectRatio="xMidYMid meet"
   id="svg2"
   inkscape:version="0.48.5 r10040"
   sodipodi:docname="rhino.svg"
   inkscape:export-filename="C:\Users\Максим\Documents\GitHub\UI-UX\Pictures\animal\rhino.png"
   inkscape:export-xdpi="90"
   inkscape:export-ydpi="90">
  <defs
     id="defs12" />
  <sodipodi:namedview
     pagecolor="#ffffff"
     bordercolor="#666666"
     borderopacity="1"
     objecttolerance="10"
     gridtolerance="10"
     guidetolerance="10"
     inkscape:pageopacity="0"
     inkscape:pageshadow="2"
     inkscape:window-width="640"
     inkscape:window-height="480"
     id="namedview10"
     showgrid="false"
     inkscape:zoom="0.89001174"
     inkscape:cx="250"
     inkscape:cy="187.5"
     inkscape:window-x="1133"
     inkscape:window-y="163"
     inkscape:window-maximized="0"
     inkscape:current-layer="svg2" />
  <metadata
     id="metadata4">
Created by potrace 1.11, written by Peter Selinger 2001-2013
<rdf:RDF>
  <cc:Work
     rdf:about="">
    <dc:format>image/svg+xml</dc:format>
    <dc:type
       rdf:resource="http://purl.org/dc/dcmitype/StillImage" />
    <dc:title></dc:title>
  </cc:Work>
</rdf:RDF>
</metadata>
  <g
     id="g2991"
     transform="translate(15.280697,1.7977291)">
    <g
       id="g6"
       transform="matrix(0.1,0,0,-0.1,0,300)"
       style="fill:#000000;stroke:none">
      <path
         id="path8"
         d="m 2056,2163 c 19,-38 41,-95 49,-128 16,-62 20,-191 7,-212 -5,-8 -24,-1 -65,24 -32,19 -60,33 -63,30 -3,-2 0,-40 5,-83 5,-44 6,-83 1,-88 -13,-13 -119,-36 -168,-36 -43,0 -43,0 -28,22 19,27 21,82 3,96 -10,8 -22,-3 -52,-48 -22,-33 -43,-60 -47,-60 -3,0 -39,27 -79,60 -51,41 -76,56 -81,47 -11,-18 -10,-95 2,-118 14,-26 68,-52 96,-46 13,2 24,2 24,0 0,-3 -27,-48 -59,-101 -72,-118 -166,-312 -216,-445 -37,-102 -100,-313 -106,-357 l -4,-25 156,-3 157,-2 16,41 c 10,24 22,39 29,36 7,-2 35,-10 64,-17 50,-13 105,-8 164,15 13,5 20,-4 31,-37 l 15,-43 187,-3 186,-2 -15,36 c -22,53 -20,57 23,49 22,-4 44,-16 55,-31 18,-24 21,-24 169,-24 l 150,0 -7,33 c -6,27 -85,250 -110,310 -5,11 -3,17 7,17 8,0 23,9 33,21 16,17 17,25 8,49 -9,25 -8,30 6,35 9,2 22,14 29,26 11,18 11,24 -4,40 -16,17 -19,18 -27,4 -12,-22 -30,-7 -23,21 5,17 1,26 -13,34 -26,13 -38,13 -23,-2 9,-9 5,-20 -15,-47 l -27,-34 43,-37 c 49,-43 53,-73 8,-78 -15,-2 -27,2 -27,8 0,6 -50,63 -111,126 -94,95 -109,115 -93,120 67,22 126,58 140,87 43,81 -37,353 -155,533 -47,71 -178,199 -238,232 l -41,22 34,-67 z"
         inkscape:connector-curvature="0" />
    </g>
    <path
       transform="scale(0.8,0.8)"
       d="m 231.45763,188.76649 c 0,3.56809 -2.89251,6.46059 -6.46059,6.46059 -3.56808,0 -6.46059,-2.8925 -6.46059,-6.46059 0,-3.56808 2.89251,-6.46058 6.46059,-6.46058 3.56808,0 6.46059,2.8925 6.46059,6.46058 z"
       sodipodi:ry="6.4605889"
       sodipodi:rx="6.4605889"
       sodipodi:cy="188.76649"
       sodipodi:cx="224.99704"
       id="path2989"
       style="fill:#ffffff;fill-opacity:1;stroke:none"
       sodipodi:type="arc" />
  </g>
</svg>
