<?xml version="1.0" encoding="UTF-8" standalone="no"?>
<svg
   xmlns:dc="http://purl.org/dc/elements/1.1/"
   xmlns:cc="http://creativecommons.org/ns#"
   xmlns:rdf="http://www.w3.org/1999/02/22-rdf-syntax-ns#"
   xmlns:svg="http://www.w3.org/2000/svg"
   xmlns="http://www.w3.org/2000/svg"
   xmlns:sodipodi="http://sodipodi.sourceforge.net/DTD/sodipodi-0.dtd"
   xmlns:inkscape="http://www.inkscape.org/namespaces/inkscape"
   version="1.0"
   width="2505.7761"
   height="2590.1567"
   viewBox="0 0 2004.6209 2072.1254"
   preserveAspectRatio="xMidYMid meet"
   id="svg2"
   inkscape:version="0.48.4 r9939"
   sodipodi:docname="sheep.svg"
   inkscape:export-filename="C:\git\UI-UX\Pictures\animal\sheep.png"
   inkscape:export-xdpi="90"
   inkscape:export-ydpi="90">
  <defs
     id="defs72">
    <filter
       inkscape:collect="always"
       id="filter4204"
       x="-0.33491933"
       width="1.6698387"
       y="-1.0379943"
       height="3.0759885"
       color-interpolation-filters="sRGB">
      <feGaussianBlur
         inkscape:collect="always"
         stdDeviation="266.84095"
         id="feGaussianBlur4206" />
    </filter>
  </defs>
  <sodipodi:namedview
     pagecolor="#ffffff"
     bordercolor="#666666"
     borderopacity="1"
     objecttolerance="10"
     gridtolerance="10"
     guidetolerance="10"
     inkscape:pageopacity="0"
     inkscape:pageshadow="2"
     inkscape:window-width="1920"
     inkscape:window-height="1017"
     id="namedview70"
     showgrid="false"
     fit-margin-top="0"
     fit-margin-left="0"
     fit-margin-right="0"
     fit-margin-bottom="0"
     inkscape:zoom="0.14511061"
     inkscape:cx="2995.0808"
     inkscape:cy="1487.7242"
     inkscape:window-x="-8"
     inkscape:window-y="-8"
     inkscape:window-maximized="1"
     inkscape:current-layer="svg2" />
  <metadata
     id="metadata4">
Created by potrace 1.11, written by Peter Selinger 2001-2013
<rdf:RDF>
  <cc:Work
     rdf:about="">
    <dc:format>image/svg+xml</dc:format>
    <dc:type
       rdf:resource="http://purl.org/dc/dcmitype/StillImage" />
    <dc:title></dc:title>
  </cc:Work>
</rdf:RDF>
</metadata>
  <g
     id="g4703"
     transform="translate(1436.9714,815.80847)">
    <g
       id="g3918-1-1"
       transform="matrix(17.012228,0,0,17.012228,-1559.4478,-937.86759)">
      <path
         style="fill:#000000;stroke:none"
         inkscape:connector-curvature="0"
         id="path8-7-7"
         d="M 65.7,7.6 C 65.3,8 63.4,8.3 61.4,8.2 57.7,8.1 54.1,9.4 52.8,11.4 52.4,12 50.1,12.5 47.7,12.5 42.6,12.6 38.5,14.9 36.2,19.1 35.2,20.7 34,22 33.4,22 31,22 27,26.2 27,28.6 c 0,1.6 -1.3,3.8 -3.5,5.8 -4.1,3.9 -4.6,7.9 -1.5,11.9 1.8,2.3 1.9,2.7 0.5,5.3 -2.6,5.1 -1.9,7.6 4.2,15.1 2.6,3.1 3.3,4.8 2.8,6.3 -1.4,4.3 3.5,11 8,11 0.8,0 2,1.1 2.5,2.4 1.3,3.5 4.9,5.6 9.7,5.6 4.1,0 4.2,0.1 4.9,3.7 0.8,5 3,8.3 5.3,8.3 2.9,0 4.4,-2.6 3.9,-7 -0.3,-3.2 -0.1,-3.9 1.2,-3.5 0.8,0.2 2.7,0.7 4.3,1.1 2,0.5 2.7,1.2 2.7,3 0,2.9 3.3,6.4 5.9,6.4 2.6,0 5.3,-2.8 4.7,-4.9 -1.8,-6.6 -1.7,-6.8 1.6,-6.8 2.3,0 3.9,-0.8 5.8,-3.1 1.5,-1.8 3.6,-3.2 4.8,-3.2 2.2,0 6.2,-3.2 6.2,-5 0,-0.5 1.3,-1.6 3,-2.5 4.1,-2.1 6.4,-6.8 5.7,-11.9 -0.5,-3.3 -0.2,-4.5 1.6,-6.4 3.9,-4.2 3,-15.3 -1.7,-19.1 -1,-0.9 -1.4,-2.2 -1,-3.8 0.5,-1.7 0,-3.4 -1.5,-5.3 C 106,30.4 105,27.9 105,26.5 105,23.8 101,19 98.8,19 98.1,19 96.3,17.4 94.7,15.5 91.2,11.1 85.5,9.4 79.3,11 75.3,11.9 74.7,11.9 73.2,10.1 71.4,7.9 66.9,6.4 65.7,7.6 z m 4.8,2 c 0.9,0.4 2.1,1.8 2.6,3.1 0.8,2.3 1,2.3 3.8,0.8 6.1,-3.1 16,-0.6 17.5,4.3 0.4,1.1 1.9,2.3 3.4,2.7 4,1 5.2,2.4 5.2,6 0,2 0.8,3.9 2.1,5.1 1.4,1.2 1.9,2.8 1.7,5.1 -0.2,2.2 0.4,3.9 1.9,5.5 1.2,1.3 2.6,3.4 3.1,4.7 1.2,3.3 -0.1,10.7 -2.4,13.2 -1.5,1.7 -1.8,3.3 -1.6,7.5 0.3,4.6 0,5.6 -2.2,7.9 -1.4,1.4 -3.1,2.5 -3.8,2.5 -0.8,0 -1.9,1.3 -2.5,3 -0.9,2.4 -1.9,3.1 -5.2,3.6 -2.7,0.4 -4.2,1.3 -4.6,2.5 -0.9,2.7 -4.1,4.1 -7.5,3.4 -1.8,-0.4 -4,0 -6.1,1 -2.3,1.3 -4.3,1.5 -7.3,1 -2.3,-0.4 -6.1,-0.6 -8.4,-0.5 -2.4,0 -5,-0.4 -5.8,-1.1 -0.7,-0.6 -2.1,-0.8 -3,-0.5 C 50.5,90.7 48,90.5 45.9,90 42.7,89.1 41.8,88.4 41.3,86 41,84.3 40.2,83 39.4,83 34.5,83 30.2,77.4 31.4,72.6 31.8,71.1 31.4,69.8 30.5,69 29.7,68.3 29,67.2 29,66.6 29,66 27.7,64.2 26,62.7 22.6,59.4 22,54.9 24.6,51.2 26.1,49 26.1,48.7 24.1,46.6 20.5,42.8 21.4,36.9 26,34.5 c 2.1,-1.1 2.7,-2 2.3,-3.5 -0.7,-2.6 2.2,-7 4.7,-7 1.1,0 2.6,-1.2 3.4,-2.8 2.5,-4.9 5.4,-6.7 10.9,-6.8 3.6,-0.2 5.5,-0.7 6.4,-2 0.9,-1.2 3.2,-2.1 6.6,-2.5 7.8,-0.9 8.4,-1 10.2,-0.3 z" />
      <g
         id="g3907-4-1">
        <path
           d="m 54,19.3 c -3.5,1.8 -3.6,4.1 -0.4,8.3 1.9,2.4 2.5,4 1.8,4.8 -7,9.3 -9.4,15 -9.4,22.9 0,12 7.6,19.7 19.5,19.7 9.8,0 16.2,-4.6 18.6,-13.3 1.4,-5.1 0.6,-17 -1.4,-21.9 L 81.2,36.2 86.1,34 c 6.8,-3.2 7.6,-6.7 2,-9 -3.4,-1.4 -7.1,-0.1 -9.8,3.3 -1.8,2.3 -2.1,2.4 -4.8,1 -2.8,-1.5 -9.6,-2 -11.5,-0.8 -0.6,0.4 -1,-1.1 -1,-3.7 0,-6.4 -2.1,-8 -7,-5.5 z M 60,43 c 4,4 1.6,11.2 -4.2,12.6 -4.1,0.9 -8.3,-3.5 -7.4,-7.9 C 49.6,41.6 56,39 60,43 z"
           id="path10-0-1"
           inkscape:connector-curvature="0"
           style="fill:#363333;fill-opacity:1;stroke:#000000;stroke-opacity:1" />
        <g
           id="g3898-9-5">
          <g
             id="g3894-4-2">
            <path
               transform="matrix(0.8,0,0,0.8,1.9491525,-0.74724576)"
               d="m 76.595606,86.189087 c 0,1.093307 -0.477239,1.979608 -1.065943,1.979608 -0.588704,0 -1.065943,-0.886301 -1.065943,-1.979608 0,-1.093307 0.477239,-1.979608 1.065943,-1.979608 0.588704,0 1.065943,0.886301 1.065943,1.979608 z"
               sodipodi:ry="1.9796081"
               sodipodi:rx="1.0659428"
               sodipodi:cy="86.189087"
               sodipodi:cx="75.529663"
               id="path3880-8-7"
               style="fill:#000000;fill-opacity:1;fill-rule:evenodd;stroke:#000000;stroke-opacity:1"
               sodipodi:type="arc" />
            <path
               sodipodi:type="arc"
               style="fill:#000000;fill-opacity:1;fill-rule:evenodd;stroke:#000000;stroke-opacity:1"
               id="path3884-8-6"
               sodipodi:cx="75.529663"
               sodipodi:cy="86.189087"
               sodipodi:rx="1.0659428"
               sodipodi:ry="1.9796081"
               d="m 76.595606,86.189087 c 0,1.093307 -0.477239,1.979608 -1.065943,1.979608 -0.588704,0 -1.065943,-0.886301 -1.065943,-1.979608 0,-1.093307 0.477239,-1.979608 1.065943,-1.979608 0.588704,0 1.065943,0.886301 1.065943,1.979608 z"
               transform="matrix(0.8,0,0,0.8,6.749153,-0.74724576)" />
          </g>
          <path
             sodipodi:type="arc"
             style="fill:#363333;fill-opacity:1;fill-rule:evenodd;stroke:#000000;stroke-opacity:1"
             id="path3886-2-1"
             sodipodi:cx="72.179558"
             sodipodi:cy="65.327065"
             sodipodi:rx="1.2182204"
             sodipodi:ry="1.2182204"
             d="m 73.397778,65.327065 c 0,0.672804 -0.545416,1.21822 -1.21822,1.21822 -0.672805,0 -1.218221,-0.545416 -1.218221,-1.21822 0,-0.672805 0.545416,-1.218221 1.218221,-1.218221 0.672804,0 1.21822,0.545416 1.21822,1.218221 z"
             transform="matrix(0.8,0,0,0.8,-1.9491525,-2.5582627)" />
          <g
             id="g3890-4-4">
            <path
               transform="matrix(0.7346984,0,0,0.80198811,10.246315,-0.24186052)"
               d="m 98.828123,60.378044 c 0,4.49938 -3.647468,8.146849 -8.146849,8.146849 -4.49938,0 -8.146848,-3.647469 -8.146848,-8.146849 0,-4.49938 3.647468,-8.146849 8.146848,-8.146849 4.499381,0 8.146849,3.647469 8.146849,8.146849 z"
               sodipodi:ry="8.1468487"
               sodipodi:rx="8.1468487"
               sodipodi:cy="60.378044"
               sodipodi:cx="90.681274"
               id="path3878-5-2"
               style="fill:#ffffff;fill-opacity:1;fill-rule:evenodd;stroke:#000000;stroke-opacity:1"
               sodipodi:type="arc" />
            <path
               sodipodi:type="arc"
               style="fill:#363333;fill-opacity:1;fill-rule:evenodd;stroke:#000000;stroke-opacity:1"
               id="path3888-5-3"
               sodipodi:cx="72.179558"
               sodipodi:cy="65.327065"
               sodipodi:rx="1.2182204"
               sodipodi:ry="1.2182204"
               d="m 73.397778,65.327065 c 0,0.672804 -0.545416,1.21822 -1.21822,1.21822 -0.672805,0 -1.218221,-0.545416 -1.218221,-1.21822 0,-0.672805 0.545416,-1.218221 1.218221,-1.218221 0.672804,0 1.21822,0.545416 1.21822,1.218221 z"
               transform="matrix(0.8,0,0,0.8,19.369703,-0.85275424)" />
          </g>
        </g>
      </g>
    </g>
    <path
       sodipodi:type="arc"
       style="fill:#5e5b5b;fill-opacity:1;stroke:none;filter:url(#filter4204)"
       id="path4560"
       sodipodi:cx="970.20764"
       sodipodi:cy="1886.2532"
       sodipodi:rx="956.07837"
       sodipodi:ry="308.48834"
       d="m 1926.286,1886.2532 c 0,170.3734 -428.0509,308.4883 -956.07836,308.4883 -528.0275,0 -956.078368,-138.1149 -956.078368,-308.4883 0,-170.3734 428.050868,-308.4884 956.078368,-308.4884 528.02746,0 956.07836,138.115 956.07836,308.4884 z"
       transform="matrix(0.62781868,0,0,0.41991163,-1043.7755,65.800382)" />
  </g>
</svg>
