<?xml version="1.0" encoding="UTF-8" standalone="no"?>
<svg
   xmlns:dc="http://purl.org/dc/elements/1.1/"
   xmlns:cc="http://creativecommons.org/ns#"
   xmlns:rdf="http://www.w3.org/1999/02/22-rdf-syntax-ns#"
   xmlns:svg="http://www.w3.org/2000/svg"
   xmlns="http://www.w3.org/2000/svg"
   xmlns:sodipodi="http://sodipodi.sourceforge.net/DTD/sodipodi-0.dtd"
   xmlns:inkscape="http://www.inkscape.org/namespaces/inkscape"
   version="1.0"
   width="1003.3339"
   height="464.57611"
   viewBox="0 0 802.66709 371.66089"
   preserveAspectRatio="xMidYMid meet"
   id="svg2"
   inkscape:version="0.48.5 r10040"
   sodipodi:docname="smile.svg"
   inkscape:export-filename="C:\git\UI-UX\Pictures\animal\smile.png"
   inkscape:export-xdpi="90"
   inkscape:export-ydpi="90">
  <defs
     id="defs12">
    <inkscape:perspective
       sodipodi:type="inkscape:persp3d"
       inkscape:vp_x="0 : 187.5 : 1"
       inkscape:vp_y="0 : 1000 : 0"
       inkscape:vp_z="500 : 187.5 : 1"
       inkscape:persp3d-origin="250 : 125 : 1"
       id="perspective3778" />
  </defs>
  <sodipodi:namedview
     pagecolor="#ffffff"
     bordercolor="#666666"
     borderopacity="1"
     objecttolerance="10"
     gridtolerance="10"
     guidetolerance="10"
     inkscape:pageopacity="0"
     inkscape:pageshadow="2"
     inkscape:window-width="1920"
     inkscape:window-height="1057"
     id="namedview10"
     showgrid="false"
     fit-margin-top="0"
     fit-margin-left="0"
     fit-margin-right="0"
     fit-margin-bottom="0"
     inkscape:zoom="0.44500587"
     inkscape:cx="208.10939"
     inkscape:cy="94.776243"
     inkscape:window-x="-8"
     inkscape:window-y="-8"
     inkscape:window-maximized="1"
     inkscape:current-layer="svg2" />
  <metadata
     id="metadata4">
Created by potrace 1.11, written by Peter Selinger 2001-2013
<rdf:RDF>
  <cc:Work
     rdf:about="">
    <dc:format>image/svg+xml</dc:format>
    <dc:type
       rdf:resource="http://purl.org/dc/dcmitype/StillImage" />
    <dc:title></dc:title>
  </cc:Work>
</rdf:RDF>
</metadata>
  <g
     id="g3824"
     transform="matrix(2.4201353,0,0,2.4201353,-213.80255,-157.45349)">
    <g
       id="g3816">
      <path
         transform="scale(0.8,0.8)"
         style="fill:#ffffff;fill-opacity:1;stroke:none"
         d="m 149.92055,110.43432 341.31356,0 c 0.96833,0 1.74788,0.77955 1.74788,1.74788 l 0,96.61016 c 0,0.96833 -45.90856,36.65277 -68.48517,37.10276 l -139.51271,2.78072 c -0.96814,0.0193 -136.56043,-38.94825 -136.81144,-39.88348 L 126.7214,128.86652 c -0.25101,-0.93523 22.23082,-18.4322 23.19915,-18.4322 z"
         id="rect3813"
         inkscape:connector-curvature="0"
         sodipodi:nodetypes="sssssssss" />
      <g
         id="g3807">
        <path
           inkscape:connector-curvature="0"
           id="path8"
           d="m 142.94322,65.080085 c -5.09058,0.121826 -9.80625,0.7875 -14.4,1.975 -10.1,2.7 -18.6,7.4 -25.8,14.5 -9.9,9.8 -14.3,21.999995 -14.4,39.799995 0,12.5 2.3,22.6 7.6,33.6 3.8,7.7 6.1,10.8 13.2,18 22.5,22.5 54.8,36.3 103.2,43.8 16.1,2.5 61.4,2.5 82,0 51,-6.2 80.8,-17.8 103.6,-40.4 6.1,-6 8.2,-9.1 12.3,-17.5 7.8,-15.9 11.2,-34.2 9.2,-48.4 -2.9,-19.599995 -12.8,-33.799995 -27.5,-39.299995 -15.3,-5.7 -34.2,-5 -62.9,2.4 -20.6,5.2 -30.1,7.1 -46.7,9 -31.7,3.8 -62.5,0.6 -97.5,-10 -17.66875,-5.3625 -30.70074,-7.743018 -41.9,-7.475 z m 5.4,33.875 3.8,0.7 c 2,0.3 8,1.499995 13.2,2.499995 5.2,1.1 12.9,2.8 17,3.8 l 7.5,1.8 -0.4,16.9 c -0.2,9.3 -0.5,17.2 -0.8,17.6 -0.2,0.5 -9.1,0.8 -19.7,0.8 l -19.3,0 -0.7,-6.1 c -0.3,-3.4 -0.6,-13.3 -0.6,-22.1 l 0,-15.899995 z m -11.4,0.1 8.1,0 0.6,3.699995 c 0.3,2.1 0.7,11.9 0.8,21.8 l 0.2,18 -12.4,0.3 c -14.6,0.3 -14.6,0.3 -18,-11 -2.8,-9.2 -2.3,-17.8 1.6,-24.4 3.7,-6.3 8.4,-8.299995 19.1,-8.399995 z m 232.1,0 0.7,7.699995 c 0.3,4.2 0.6,14.1 0.6,22 l 0,14.3 -17.2,-0.2 -17.3,-0.3 -0.3,-19.6 -0.2,-19.6 8.7,-1.6 c 4.9,-0.9 9.7,-1.799995 10.8,-2.099995 1.1,-0.2 4.7,-0.4 8.1,-0.5 l 6.1,-0.1 z m 2.7,0 2.5,0 c 1.5,0 4.1,0.4 6,0.999995 12.3,3.5 16.3,20.9 8.6,37.7 l -2.4,5.3 -6.5,0 -6.5,0 -0.5,-4.3 c -0.3,-2.3 -0.7,-12.2 -0.9,-22 l -0.3,-17.699995 z m -40.2,5.899995 c 0.58282,-0.0297 0.975,0 1.1,0.1 0.4,0.3 0.6,8.8 0.5,18.9 l -0.3,18.2 -21.5,0 -21.5,0 -0.3,-14.4 -0.3,-14.3 11.8,-2.3 c 6.5,-1.2 16.1,-3.3 21.3,-4.5 3.9,-0.975 7.45156,-1.61093 9.2,-1.7 z m -138.9,3.3 6,1.4 c 3.3,0.8 11.5,2.3 18.1,3.4 6.7,1.1 13.8,2 15.9,2 l 3.7,0 0,14 0,14 -21.9,0 c -14.2,0 -22.2,-0.4 -22.6,-1 -0.4,-0.6 -0.4,-8.4 0,-17.4 l 0.8,-16.4 z m 94.7,5.8 0,14.5 0,14.5 -23.9,0 c -13.2,0 -24.2,-0.3 -24.4,-0.8 -0.3,-0.4 -0.2,-6.4 0.1,-13.5 l 0.5,-12.7 14.6,-0.1 c 8,-0.1 17.3,-0.5 20.6,-0.9 3.3,-0.4 7.5,-0.8 9.3,-0.9 l 3.2,-0.1 z m -152.7,31 12.7,0 0,9.5 c 0,5.2 -0.3,9.5 -0.6,9.5 -2.2,0 -12.8,-7.3 -18.3,-12.6 l -6.6,-6.3 12.8,-0.1 z m 14.6,0 20.1,0 20,0 0,15.5 c 0,15.4 0,15.5 -2.2,15.5 -3.5,0 -25,-5.6 -31.5,-8.2 l -5.8,-2.3 -0.3,-10.3 -0.3,-10.2 z m 42.1,0 22.5,0 22.5,0 0,18.9 0,18.9 -6.7,-0.5 c -7.4,-0.5 -33.7,-4.1 -36.5,-4.9 -1.6,-0.5 -1.8,-2.2 -1.8,-16.5 l 0,-15.9 z m 47,0 24.4,0 24.3,0 0.7,6.1 c 0.3,3.4 0.6,11.5 0.6,17.9 0,10.3 -0.2,11.9 -1.7,12.5 -1,0.4 -12.3,0.9 -25,1.2 l -23.3,0.6 0,-19.1 0,-19.2 z m 96.7,0 18.2,0 18.2,0 -0.3,6.7 -0.3,6.8 -10.1,5.1 c -9,4.5 -22.8,9.3 -23.9,8.3 -0.2,-0.2 -0.7,-6.4 -1.1,-13.7 l -0.7,-13.2 z m 39.325,0.175 10.8,0 c 0,0.13572 0.1607,0.10789 0.325,0 0,0.23688 -0.1575,0.48251 -0.325,0.65 -0.0749,0.0749 -0.2501,-0.0749 -0.325,0 -0.14981,0.14981 0.0947,0.43551 0,0.625 -0.067,0.134 -0.233,0.191 -0.3,0.325 -0.0474,0.0947 0.0749,0.2251 0,0.3 -0.0749,0.0749 -0.2501,-0.0749 -0.325,0 -0.0749,0.0749 0.0474,0.23031 0,0.325 -0.067,0.134 -0.258,0.19101 -0.325,0.325 -0.0948,0.18951 0.14981,0.47519 0,0.625 -0.0749,0.0749 -0.2776,-0.0948 -0.325,0 -0.0948,0.18951 0.067,0.44901 0,0.65 -0.0947,0.28424 -0.49101,0.35701 -0.625,0.625 -0.0474,0.0948 0.0749,0.2501 0,0.325 -0.0749,0.0749 -0.2501,-0.0749 -0.325,0 -0.14981,0.14982 0.0948,0.43551 0,0.625 -0.10121,0.20242 -1.32528,1.35029 -1.575,1.6 -0.10593,0.10595 -0.258,0.16601 -0.325,0.3 -0.0474,0.0948 0.0749,0.2501 0,0.325 -0.0749,0.0749 -0.2501,-0.0749 -0.325,0 -0.14981,0.14981 0.14982,0.50019 0,0.65 -0.0749,0.0749 -0.2053,-0.0474 -0.3,0 -0.42386,0.21193 -0.22615,0.41308 -0.65,0.625 -0.0947,0.0474 -0.2251,-0.0749 -0.3,0 -0.65754,0.6576 0.9976,-0.0363 -0.325,0.625 -0.1895,0.0948 -0.50018,-0.1498 -0.65,0 -0.0749,0.0749 0.0474,0.2303 0,0.325 -0.067,0.134 -0.233,0.19101 -0.3,0.325 -0.0474,0.0948 0.0749,0.2501 0,0.325 -0.0749,0.0749 -0.2501,-0.0749 -0.325,0 -0.0749,0.0749 0.0749,0.2251 0,0.3 -0.0749,0.0749 -0.2303,-0.0474 -0.325,0 -0.38117,0.38117 -0.32151,0.29791 -0.275,0.25 -0.003,-0.0464 -0.087,-0.0565 -0.35,0.075 -0.26798,0.134 -0.38201,0.49101 -0.65,0.625 -0.0947,0.0474 -0.2251,-0.0749 -0.3,0 -0.0749,0.0749 0.0749,0.2501 0,0.325 -0.14982,0.14981 -0.50018,-0.14981 -0.65,0 -0.0749,0.0749 0.0749,0.2501 0,0.325 -0.14981,0.14982 -0.47518,-0.1498 -0.625,0 l 0,-12.4 z m -56.575,9.75 c 3.0875,-0.025 6.1,0.725 8.05,2.275 3.4,2.7 5.5,7.5 5.5,12.7 0,3.8 -0.2,4.1 -3.7,5 -5.7,1.5 -21.2,4.1 -24.5,4.1 l -3,0 0.7,-5.3 c 0.9,-7.1 4.3,-13.7 8.4,-16.4 2.3,-1.55 5.4625,-2.35 8.55,-2.375 z m 56.575,2.975 c 0.0374,0.12145 0.0749,0.2251 0,0.3 l 0,-0.3 z"
           style="fill:#000000;stroke:none" />
        <path
           transform="matrix(0.8,0,0,0.8,-1.6,1.6)"
           d="m 408.7659,202.39671 c 0,1.64545 -1.33389,2.97935 -2.97934,2.97935 -1.64545,0 -2.97934,-1.3339 -2.97934,-2.97935 0,-1.64544 1.33389,-2.97934 2.97934,-2.97934 1.64545,0 2.97934,1.3339 2.97934,2.97934 z"
           sodipodi:ry="2.9793432"
           sodipodi:rx="2.9793432"
           sodipodi:cy="202.39671"
           sodipodi:cx="405.78656"
           id="path3801"
           style="fill:#000000;fill-opacity:1;stroke:none"
           sodipodi:type="arc" />
        <path
           sodipodi:type="arc"
           style="fill:#000000;fill-opacity:1;stroke:none"
           id="path3803"
           sodipodi:cx="405.78656"
           sodipodi:cy="202.39671"
           sodipodi:rx="2.9793432"
           sodipodi:ry="2.9793432"
           d="m 408.7659,202.39671 c 0,1.64545 -1.33389,2.97935 -2.97934,2.97935 -1.64545,0 -2.97934,-1.3339 -2.97934,-2.97935 0,-1.64544 1.33389,-2.97934 2.97934,-2.97934 1.64545,0 2.97934,1.3339 2.97934,2.97934 z"
           transform="matrix(0.8,0,0,0.8,-12.8,1.6)" />
        <rect
           ry="1.7478813"
           y="168.75002"
           x="313.02963"
           height="3.4957626"
           width="8.8983049"
           id="rect3805"
           style="fill:#000000;fill-opacity:1;stroke:none" />
      </g>
    </g>
  </g>
</svg>
