<?xml version="1.0" encoding="UTF-8" standalone="no"?>
<svg
   xmlns:dc="http://purl.org/dc/elements/1.1/"
   xmlns:cc="http://creativecommons.org/ns#"
   xmlns:rdf="http://www.w3.org/1999/02/22-rdf-syntax-ns#"
   xmlns:svg="http://www.w3.org/2000/svg"
   xmlns="http://www.w3.org/2000/svg"
   xmlns:sodipodi="http://sodipodi.sourceforge.net/DTD/sodipodi-0.dtd"
   xmlns:inkscape="http://www.inkscape.org/namespaces/inkscape"
   version="1.0"
   width="1729.4688"
   height="2086.5869"
   viewBox="0 0 1383.575 1669.2695"
   preserveAspectRatio="xMidYMid meet"
   id="svg2"
   inkscape:version="0.48.4 r9939"
   sodipodi:docname="20140719_170108.svg">
  <defs
     id="defs52" />
  <sodipodi:namedview
     pagecolor="#ffffff"
     bordercolor="#666666"
     borderopacity="1"
     objecttolerance="10"
     gridtolerance="10"
     guidetolerance="10"
     inkscape:pageopacity="0"
     inkscape:pageshadow="2"
     inkscape:window-width="1920"
     inkscape:window-height="1017"
     id="namedview50"
     showgrid="false"
     fit-margin-top="0"
     fit-margin-left="0"
     fit-margin-right="0"
     fit-margin-bottom="0"
     inkscape:zoom="0.30849673"
     inkscape:cx="771.55889"
     inkscape:cy="1049.9925"
     inkscape:window-x="-8"
     inkscape:window-y="-8"
     inkscape:window-maximized="1"
     inkscape:current-layer="svg2" />
  <metadata
     id="metadata4">
Created by potrace 1.11, written by Peter Selinger 2001-2013
<rdf:RDF>
  <cc:Work
     rdf:about="">
    <dc:format>image/svg+xml</dc:format>
    <dc:type
       rdf:resource="http://purl.org/dc/dcmitype/StillImage" />
    <dc:title></dc:title>
  </cc:Work>
</rdf:RDF>
</metadata>
  <g
     id="g3056">
    <path
       inkscape:connector-curvature="0"
       id="rect3052"
       d="M 503.12216,0.40317822 C 451.42912,0.55169022 397.28464,11.115675 345.17208,31.603179 c -27.2,10.6 -54,24.1 -75.5,37.9 -36,23.1 -61.6,42.699991 -87.1,66.799991 -3.89992,3.8 -7.7,6.8 -8.3,6.8 -0.6,0 -1.7,1.1 -2.3,2.5 -0.7,1.5 -1.7,2.4 -2.5,2.1 -0.8,-0.3 -1.19992,-0.2 -0.9,0.3 0.3,0.5 -1.2,2.5 -3.4,4.5 -2.2,2 -4,3.9 -4,4.3 0,0.3 -0.7,1.3 -1.4,2.2 -5,5.5 -11.89992,13.7 -30.8,37.1 -4.2,5.2 -9.1,11 -10.8,12.8 -1.6,1.9 -3.69992,4.7 -4.6,6.3 -0.79992,1.7 -2.4,3.9 -3.5,5 -1,1 -1.9,2.4 -1.9,3 0,0.5 -0.4,0.7 -1,0.4 -0.5,-0.3 -0.7,0 -0.4,0.8 0.3,0.8 0.1,1.8 -0.5,2.1 -0.59992,0.4 -2,2.6 -3.1,4.9 -1.1,2.3 -3.400009,6.5 -5.200009,9.2 -8.89992,14.2 -29.8,53.2 -29.8,55.8 0,0.7 -0.4,1.7 -0.9,2.2 -1.1,1.2 -13.7,36.4 -17.9,50 -8.5,27.9 -12.3,44.4 -16.1,70.5 -1.2,8 -2.6,17.4 -3.2,21 -2,11.9 -2.3,53.7 -0.6,73.5 0.9,9.9 1.6,18.7 1.6,19.5 0,0.8 1,6.7 2.1,13 1.2,6.3 2.5,14 3,17 1.6,10.8 6.2,29.7 10,41.5 2.1,6.6 5.5,17.4 7.5,24 6.5,21.4 14.50008,40.4 29.6,70.5 8.2,16.2 16.800089,32.8 19.100009,36.7 7.4,12.4 29.2,43.8 40.6,58.3 2.4,3 5.6,7.1 7,9 1.5,1.9 6,7.3 9.9,11.9 10,11.7 9.9,12 -2.9,6.5 -4.5,-2 -10.8,-4.5 -13.8,-5.6 -3,-1.1 -6.4,-2.3 -7.5,-2.8 -1.1,-0.5 -6.8,-2.8 -12.7,-5 -5.9,-2.3 -11,-4.6 -11.4,-5.1 -0.6,-1 -7.1,-3.9 -8.2,-3.7 -0.4,0.1 -1.4,-0.1 -2.2,-0.5 -0.8,-0.3 -2.599929,-0.8 -4.000009,-1 -3.8,-0.8 -15.2,-5.3 -24.3,-9.6 -4.5,-2.1 -10.7,-4.8 -13.7,-6.1 -3,-1.2 -7,-2.8 -8.8,-3.6 -1.79992,-0.8 -4.1,-1.4 -5.1,-1.4 -1,0 -2.1,-0.3 -2.5,-0.7 -1.1,-1.2 -9.8,-4.4 -13.2,-4.9 -3.4,-0.6 -2.8,-1.7 -9,16.1 -1.5,4.4 -3.1,8.4 -3.6,9 -0.39992,0.5 -0.8,1.9 -0.8,3 0,1.2 -0.3,2.5 -0.7,2.9 -0.4,0.4 -0.8,2.3 -1,4.2 -0.1,2 -0.6,4.1 -1.1,4.7 -1.79992,2.4 -4.1999994,23.9 -4.3999994,39.2 -0.1,20.7 2.1999994,33.9 10.8999994,60.5 1.70008,5.2 9.5,21 12.3,25.1 1.1,1.5 2,3 2,3.4 0,0.9 5.8,9.1 8.6,12.2 1.2,1.2 3.4,4.2 5,6.5 7.5,11.1 26.9,28.1 48.7,42.70003 14.300009,9.6 14.800009,9.8 28.200009,11.1 6.6,0.6 13.8,1.5 16,2 2.2,0.5 5.5,1 7.3,1 3.5,0 5.2,2.1 3.4,4.3 -1.1,1.3 -3.7,6.2 -13.2,24.2 -3.4,6.6 -6.7,12.6 -7.2,13.2 -2.1,2.6 -34.200009,66.6 -35.300009,70.3 -0.4,1.4 -1.7,4.8 -3,7.5 -2.8,6.3 -6.7,16.1 -9.9,24.6 -2.8,7.6 -8.6,20.2 -9.7,20.9 -0.5,0.3 -1.2,2.6 -1.8,5 -0.6,2.5 -2.4,8.6 -4.1,13.5 -1.7,5 -3.4,10.4 -3.9,12 -1.4,4.7 -14.1,44.7 -15.1,47.5 -0.5,1.4 -1.8,5.9 -2.9,10 -1.1,4.1 -3.2,11.6 -4.7,16.5 -1.5,5 -3.9,14.6 -5.5,21.5 -1.5,6.9 -3.9,17.5 -5.4,23.5 -9.6,40.5 -17.49992,89.4 -22.4999994,138.5 -2,20.1 -2.29992,25.1 -4,67 -0.5,13.5 -1.2,29.5 -1.5,35.5 -1.39999999,32.3 -1.69999999,56.3 -0.6,58.3 0.7,1.4 2.4,2.2 5.8,2.6 5.8999994,0.8 41.4999994,1.9 90.4999994,3 l 11.800009,0.2 0,-3.2 c 0,-1.8 0.4,-4.3 0.9,-5.6 1.10008,-2.9 2,-16.2 2.2,-32.3 0.1,-6.6 0.4,-12.3 0.6,-12.8 0.2,-0.4 4.1,3 8.6,7.6 13.2,13.4 26.6,18.5 45.7,17.3 9.4,-0.5 13.3,-1.3 20,-4.3 2.8,-1.3 3.9,-1.4 6.5,-0.3 16.6,6.8 25.9,8.2 39.2,6 7.9,-1.4 19.8,-6.6 25.6,-11.2 2.4,-1.9 2.9,-2 3.7,-0.8 0.6,0.8 0.8,3.3 0.5,5.5 -0.19992,2.2 -0.69992,10.8 -1.1,19.1 -0.6,14.8 -0.5,15.1 1.8,17.7 2.3,2.6 2.5,2.6 19.8,3.1 9.6,0.4 22.9,0.8 29.5,1.1 6.6,0.3 19.9,0.8 29.5,1.1 9.6,0.3 19.5,0.7 22,0.7 l 4.5,0.2 0.3,-4 c 0.2,-2.2 0.7,-4.4 1.2,-5 0.9,-1.2 1.6,-12 3,-48 0.6,-14.8 1.30008,-27.8 1.6,-28.8 0.60008,-2 0.3,-2 40.4,-0.2 5.8,0.2 19.5,0.7 30.5,1 11,0.3 30.1,1 42.5,1.6 27.6,1.1 43.5,1.8 60.5,2.4 7.1,0.3 17.9,0.7 24,1 25.7,1.2 56.1,2.5 70.5,3 8.5,0.3 30.8,1.2 49.5,2 18.7,0.8 45.2,1.9 59,2.5 46,1.9 49.9,2 68.5,3 10.2,0.5 25.5,1.2 34,1.5 8.5,0.3 18.6,0.8 22.5,1 3.8,0.3 11.5,0.7 17,1.1 5.8,0.3 10.3,1.1 10.8,1.7 0.4,0.7 0.5,3 0.3,5.2 -0.3,2.2 -1,11.9 -1.6,21.5 -0.6,9.6 -1.5,23.6 -2,31 -1.6,22.5 -1.5,23.7 2.1,25.9 3.5,2.2 11.1,2.7 63.4,4.6 8.2,0.3 20.2,0.8 26.6,1.1 6.4,0.3 11.90002,0.2 12.20002,-0.3 1,-1.6 3.5,-15.8 4.1,-22.8 0.3,-3.8 0.8,-12.6 1.1,-19.5 0.4,-6.9 0.9,-14.5 1.1,-17 0.2,-2.5 0.8001,-11 1.4,-19 0.5,-8 1.1,-17 1.4,-20 0.3,-3 0.8,-11.3 1.2,-18.5 0.3,-7.1 0.7,-13.2 0.9,-13.5 0.2,-0.3 0.8,-6.6 1.5,-14 1.3,-15.2 9.4,-87.8 11,-98.5 0.6,-3.8 1.2,-9.2 1.5,-12 0.5,-5.9 2.4,-21.7 3.1,-26 0.3,-1.6 0.7,-6.3 1,-10.3 0.2001,-4 0.8,-8.2 1.4,-9.3 0.6,-1 0.8001,-2.4 0.5,-2.9 -0.3,-0.5 0.4,-8.2 1.6,-17.2 1.2,-9 2.2,-17.4 2.2,-18.8 0,-1.4 0.4,-5.6 0.9,-9.4 0.5,-3.8 1.1001,-10.4 1.3,-14.5 0.3,-4.2 1,-11.4 1.6,-16.1 1.8,-14.2 2,-16.1 3.4,-40.5 0.3001,-4.4 0.7,-10.2 1,-13 1.9,-17.9 2.8001,-43 2.9,-82.2 l 0.1,-31.3 3,0 c 2.8001,0 17.6,1.4 43,4.1 9.6,1 12,1 18,-0.5 3.9,-0.9 7.9,-2.1 9,-2.6 1.1,-0.5 5.8001,-2.3 10.5,-4.2 4.7,-1.8 10.1,-4.2 12,-5.4 1.9,-1.1 4.2,-2.3 5.1,-2.6 0.8,-0.3 6.1,-3.8 11.7,-7.7 5.6,-3.9 10.6,-7.1 11.1,-7.1 0.6001,0 1.4,-0.6 1.8,-1.4 0.4001,-0.8 3.6,-3.8 7.1,-6.7 3.4,-2.9 8,-8 10.1,-11.3 2.1,-3.4 4.6,-6.7 5.5,-7.5 0.9,-0.7 1.6,-1.9 1.6,-2.5 0,-0.6 1,-2.2 2.3,-3.6 1.2,-1.4 2.9,-4 3.6,-5.7 0.7,-1.8 1.7,-3.3 2,-3.3 0.8,0 4.1,-6.5 4.1,-8.1 0,-0.5 1.5,-4.2 3.4,-8.2 7.7001,-16.5 10.5,-40.70003 8.3,-71.70003 -1.0999,-14.4 -1,-14.2 -5.9,-16.2 -3.5,-1.5 -5.4,-1.6 -10.3,-0.9 -7.1,1.1 -25.7,3.6 -37,5 -7.5,1 -13.9999,1.4 -15.8,1.2 -1,-0.1 5.8,-6.1 6.9,-6.1 0.5,0 1.4,-0.8 2,-1.7 0.7,-1 2.9,-2.7 5,-3.8 2.2,-1.1 6.6,-4.4 9.9,-7.5 3.4,-3 9.9,-8.2 14.5,-11.4 4.6,-3.3 10,-7.5 12,-9.5 1.9,-2 7.1,-6.7 11.4,-10.6 4.3,-3.8 12.8,-12.1 19,-18.4 6.1,-6.3 15.1,-15.5 19.9,-20.5 4.9,-4.9 10,-10.6 11.5,-12.5 1.4,-2 3.1,-4.1 3.6,-4.6 0.6,-0.6 3.1,-3.5 5.6,-6.5 2.4,-3 6.1001,-7.3 8.2,-9.5 4.6,-5 11.2,-13.7 18.2,-24.1 6.1,-9 14.6,-22.3 14.6,-22.8 0,-0.3 2.5,-4.5 5.6,-9.3 5.2001,-8.1 18.1,-34 23.9,-48.3 1.4001,-3.6 3.3,-8 4.1,-9.8 3.2001,-7 15.4,-45.5 18.8,-59.2 4.8,-19.9 8.5001,-38.7 9.7,-50 0.5,-5.2 1.4,-13.3 1.9,-18 1.6,-13.9 1.2,-61.1 -0.5,-75.2 -4.2,-34.1 -7.3,-50.7 -13.3,-72 -1.6,-5.7 -3.2999,-11.6 -3.6,-13.2 -0.7999,-3.2 -9.8,-27.9 -12.2,-33.6 -0.9,-1.9 -1.9,-4.4 -2.4,-5.5 -1.4,-3.2 -5,-11.7 -6.3,-15 -7.5,-18.4 -35.5,-66.1 -49.8,-84.7 -2.4,-3.2 -7,-9.2 -10.2,-13.5 -3.1,-4.3 -7.2,-9.4 -9,-11.3 -1.7,-2 -7.3,-8.3 -12.3,-14 -9.4,-10.8 -18.2,-19.5 -33.8,-33.5 -12.1,-10.9 -36,-32.8 -36.6,-33.5 -0.3,-0.3 -4.3,-3.9 -8.9,-7.9 -7.4,-6.3 -8.6,-7 -9.9,-5.7 -1.2,1.2 -1.3,2.2 -0.3,6.3 1.4,5.8 5.2,18.6 9.1,30.8 2.7,8.4 12.4,40.1 19.1,62.7 6,20.2 14.4,59.2 16.4,75.8 0.3,3 1.2,9.6 2,14.5 4.7,30.4 5.1,77 1.1,112 -4.7,39.9 -15.5,76.6 -33.9,114.5 -4.9,10.3 -17.1,30 -19.7,32 -0.3,0.3 -2.8,3.4 -5.5,7 -5.2,6.8 -31.8,34 -33.3,34 -0.5,0 -2.2,1.2 -3.8,2.6 -9.1999,8.1 -26.6,20.3 -43.2,30.2 -14.4,8.6 -38.5,20.8 -45.2,22.7 -2.7,0.8 -6.5,2.4 -18.3,7.9 -10,4.7 -19.29994,8.2 -28.20002,10.6 -3.9,1.1 -11.7,3.3 -17.5,5 -13.4,4 -30.29992,8.3 -40.5,10.4 -4.4,0.9 -11,2.3 -14.7,3.2 -11.8,2.5 -25.8,4.5 -41.3,5.6 -18.29992,1.4 -62.59992,1.7 -79,0.6 -23.4,-1.6 -26.4,-1.9 -36,-3.2 -18.5,-2.5 -27.7,-4 -32.6,-5.2 -3,-0.8 -6.9,-1.4 -8.5,-1.4 -3.1,0 -23.69992,-4.6 -33.4,-7.5 -3,-0.9 -7.29992,-2 -9.5,-2.5 -29.5,-6.5 -99.3,-35.5 -133.5,-55.4 -4.1,-2.5 -10.7,-6.2 -14.5,-8.4 -11.6,-6.6 -30.5,-19.3 -45,-30.2 -32.2,-24.1 -51.6,-43 -83.3,-81.1 -6.9,-8.2 -26.1,-36.9 -30.7,-45.6 -1.9,-3.8 -3.9,-7.5 -4.4,-8.3 -0.5,-0.8 -1.8,-3.3 -2.9,-5.5 -1,-2.2 -3.3,-6.5 -5.1,-9.6 -4.89992,-8.8 -17.1,-41.6 -20.1,-54.3 -5.89992,-24.9 -8.1,-42.3 -8.1,-63.5 0,-28.4 3.8,-55.2 10.7,-76 8.4,-25.1 25.6,-55.3 46.3,-81.1 17.8,-22.3 53.3,-54.9 82.1,-75.5 19.7,-14.2 47.9,-32.4 52.6,-34.2 1.10008,-0.3 3,-1.4 4.4,-2.3 12.9,-8.8 67.3,-34.599991 93.5,-44.499991 11.1,-4.1 14.9,-5.6 16.9,-6.7 1,-0.5 2.6,-1.1 3.5,-1.3 2.3,-0.5 18.9,-7.3 23.2,-9.6 2,-1 4.4,-1.9 5.3,-1.9 0.9,0 1.9,-0.8 2.3,-1.7 0.3,-1 1.3,-2.6 2.1,-3.5 1.7,-2 3,-1.3 -13.3,-7.1 -22.7,-8.1 -60.6,-20.8 -68.5,-23 -3,-0.9000007 -11.4,-2.7000007 -18.5,-4.1000007 C 549.6096,2.4219303 526.61896,0.33567422 503.12216,0.40317822 z"
       style="fill:#ececec;fill-opacity:1;fill-rule:evenodd;stroke:#000000;stroke-width:0.80000001;stroke-opacity:1" />
    <path
       d="m 981.96932,1637.4032 c 0.5,-1 1.2,-6.7 1.5,-12.8 2.7,-54.6 8.1,-118.4 14.7,-174.5 3.89998,-33.6 5.79998,-49.9 6.49998,-57.5 0.3,-3.3 1,-9.6 1.5,-14 0.5,-4.4 1.7,-14.7 2.5,-23 0.8,-8.2 1.7,-16.1 2,-17.5 0.5,-2.7 2.2,-19.9 3.1,-31.5 0.3,-3.8 1.1,-14 1.9,-22.5 0.8,-8.5 1.9,-22.2 2.5,-30.5 0.6,-8.2 1.5,-21.5 2.1,-29.5 0.5,-8 1.3,-40.6 1.6,-72.5 0.3,-31.9 0.9,-58.4 1.3,-58.9 0.5,-0.4 4.3,-0.3 8.7,0.3 4.3,0.6 12.5,1.6 18.3,2.1 5.8,0.6 12.3,1.2 14.5,1.5 2.2,0.2 11.7,1.2 21.1,2.1 l 17.2,1.7 7.8,-2.7 c 20.4,-7.3 37.6,-17.6 51.9,-31.3 13.2,-12.6 25.4,-35 29.9,-54.8 3.7,-16.60003 4.5,-30.10003 2,-32.50003 -0.5,-0.4 -7.4,0.1 -15.4,1.1 -25.7,3.4 -58.3,7.9 -67.5,9.4 -5,0.8 -11.5,1.7 -14.5,2 -3,0.4 -13.4,1.8 -23,3.1 -9.6,1.3 -22.7,3.1 -29,3.9 -6.3,0.9 -14.5,2.00003 -18.1,2.60003 -8.2,1.3 -14.9,-0.1 -14.9,-3.10003 0,-1.1 1,-2.2 2.2,-2.6 15,-4.5 72,-31.7 84.8,-40.4 1.4,-0.9 3.2,-2 4,-2.3 0.8,-0.4 2.8,-1.6 4.5,-2.7 1.6,-1.1 3.7,-2.3 4.5,-2.7 0.8,-0.4 4.7,-2.8 8.7,-5.5 4,-2.6 7.5,-4.8 7.8,-4.8 0.2,0 4.3,-2.8 9.1,-6.2 4.7,-3.5 10.5,-7.6 12.8,-9.2 2.2,-1.5 7,-5.2 10.6,-8 3.6,-2.9 8.5,-6.7 11,-8.6 10.6,-8 27.7,-23.6 46,-42 18,-18.2 29,-30.3 29,-31.9 0,-0.6 0.4,-1.1 0.8,-1.1 2.9,0 38.5,-48.6 43.6,-59.5 0.8,-1.6 2.3,-4.1 3.4,-5.5 1.1,-1.4 4.5,-7.4 7.7,-13.5 3.1,-6 6.5,-12.3 7.5,-14 1,-1.6 2.1,-4.1 2.5,-5.5 0.4,-1.4 2.5,-6.1 4.7,-10.4 2.1,-4.3 4.8,-10.4 5.8,-13.5 1.1,-3.1 3.1,-8.7 4.5,-12.6 1.5,-3.8 3.7,-10.4 5,-14.5 1.3,-4.1 3.1,-9.5 4,-12 0.9,-2.5 2.1,-7 2.6,-10 0.6,-3 1.4,-6.8 1.9,-8.5 2,-6.6 6,-25.6 7.5,-36 4.2,-28.3 4.7,-35.9 4.7,-63.5 -0.1,-31.4 -4,-64.4 -10.3,-87.5 -1,-3.8 -1.9,-7.7 -1.9,-8.6 0,-0.9 -0.9,-4.5 -2.1,-8 -1.2,-3.5 -2.3,-7.5 -2.6,-8.9 -0.6,-3.2 -9.1,-28.6 -10.3,-30.8 -0.5,-0.9 -2.8,-6.2 -5,-11.7 -4.6,-11.2 -14.2,-30.9 -19.5,-40 -1.9,-3.3 -4.4,-7.8 -5.6,-10 -8.1,-14.9 -33.7,-50.8 -47.7,-67 -7.4,-8.5 -22.4,-23.6 -22.9,-23.1 -0.3,0.3 0.8,5.4 2.5,11.3 8.7,30.2 13.6,53 18.1,84.3 4.6,31.7 5.4,43.1 5.4,76 0,38.1 -1.9,57.7 -8.8,91.5 -3.6,17.7 -11.3,41.6 -19.1,59.5 -14.4,33.4 -19.4,42.4 -32.2,59 -23.4,30.3 -53.4,56.4 -90.4,78.7 -49.2,29.7 -111.09998,53 -168.99998,63.8 -7.9,1.4 -17.2,3.3 -20.8,4.1 -3.6,0.8 -8.4,1.4 -10.7,1.4 -2.2,0 -10.1,0.8 -17.5,1.7 -10.4,1.3 -21.7,1.7 -51.8,1.7 -33.2,0 -41.3,-0.3 -58.5,-2.2 -89.5,-10 -169.1,-35.7 -247.5,-80 -22.1,-12.5 -59.5,-38.2 -76.6,-52.7 -21.5,-18.3 -52.9,-50.5 -68.7,-70.5 -42.5,-54 -67,-107.9 -75.8,-167 -2.7,-18.1 -3.7,-52.9 -2,-68.1 1.8,-15.6 4.7,-31.4 7.6,-40.7 1.4,-4.5 3.6,-11.9 5,-16.4 2.2,-7.2 12.8,-31.8 15.5,-35.8 0.5,-0.8 2,-3.5 3.3,-6 2.8,-5.5 11.4,-19 18.1,-28.5 30.9,-43.7 82.7,-89.3 141.6,-124.699991 24.5,-14.7 31.7,-18.7 51.5,-28.6 18.4,-9.2 24.3,-11.9 42.5,-19.7 3.6,-1.5 6.9,-3.1 7.4,-3.5 1.8,-1.8 -8.8,-4.8 -35.4,-10.1 -18.4,-3.7 -61.2,-5.2 -86,-3 -32.8,3 -66.9,10.3 -98,21.2 -27.8,9.7 -33.3,12 -56.1,23.4 -71,35.499991 -131.5,87.299991 -180.5,154.499991 -42.000009,57.6 -69.800009,128.4 -80.000009,203.5 -1.9,14.1 -2.8,64.5 -1.4,80 6.8,76.3 29,143.3 70.300009,212 33.6,56 83.1,111.7 138.2,155.5 11.1,8.8 14.8,12.9 13.4,14.6 -1.3,1.6 -1.6,1.5 -69.4,-24.8 -9.9,-3.8 -22.5,-8.7 -28,-10.8 -5.5,-2.2 -19.2,-7.5 -30.5,-11.9 -11.3,-4.3 -30.6,-11.8 -43,-16.6 -26.200009,-10 -48.000009,-18.6 -56.500009,-22.1 -7.2,-3 -7.5,-2.7 -10.3,7.6 -3.2,11.6 -4.5,26.5 -4,43.8 0.5,13.4 1,17.4 3.6,27.3 3.4,12.7 10,28.4 15.8,37.6 6.7,10.5 18.3,24 28.4,33.1 8.8,8 24.400009,19.5 30.900009,23 1.9,1 43.1,7.2 57.6,8.6 13,1.2 20.1,2.9 22.2,5.2 1.3,1.3 2.3,2.6 2.3,2.9 0,0.6 -6.8,11.60003 -15.4,25.00003 -2.9,4.4 -9.3,15.2 -14.3,24 -5,8.8 -10.5,18.5 -12.2,21.5 -2.9,5 -22.6,44.5 -26.4,53 -11.2,24.4 -17.1,38.7 -29.6,71.5 -10.300009,26.7 -23.100009,65.5 -30.100009,91 -0.5,1.7 -2,6.8 -3.4,11.5 -8.2,27.7 -19.4,79.3 -24.6,114 -5.1,33.4 -6.3,42.7 -7.5,58.5 -0.3,3.9 -0.7,9.3 -1,12 -0.8,8.3 -1.4,19.3 -2,34 -0.5,15.6 -2.4,62.2 -2.9,75.8 -0.3,7.8 -0.2,8.9 1.5,9.8 1.1,0.5 13,1.2 26.8,1.5 19.4,0.3 25,0.2 25.8,-0.8 0.5,-0.7 1.5,-14.6 2.2,-30.8 1.8,-46.4 2,-48.1 4.6,-51.4 1.9,-2.3 3.1,-2.8 7.6,-3.1 3.000009,-0.1 7.900009,0.1 10.900009,0.6 3,0.4 12.4,0.9 20.7,1.1 8.4,0.2 15.3,0.5 15.3,0.9 0,0.3 -0.7,1.4 -1.5,2.5 -0.8,1 -1.5,3 -1.5,4.4 0,1.4 -1.4,4.5 -3,6.9 -7,10.3 -6.6,24.5 0.8,32.3 3.6,3.8 14.5,10.2 15.5,9.1 0.4,-0.3 1.2,-0.1 1.9,0.5 0.7,0.6 4.6,0.9 8.9,0.7 9.7,-0.3 15.7,-3 22.7,-9.8 4.3,-4.3 5.4,-4.9 6.2,-3.7 0.5,0.8 1,2 1,2.5 0.1,1.3 9.4,8.6 14,11.1 5.2,2.8 20.8,2.7 27.1,-0.2 16.9,-7.8 21.6,-25.7 10.8,-40.8 -3.8,-5.3 -4.8,-7.3 -3.1,-6.2 0.5,0.3 2.2,-0.8 3.7,-2.4 l 2.9,-3 14,0.7 c 7.8,0.3 16.8,0.7 20.1,0.7 3.3,0.1 5.9,0.6 5.8,1.1 -0.1,0.6 0.4,3.3 1,6.1 0.8,3.5 1,10.4 0.5,21.5 -1.9,50 -2.1,56.6 -1.1,57.2 2.3,1.4 51.7,2.6 53,1.3 0.6,-0.6 1.6,-16.1 2.8,-45.6 1.1,-26 2,-33.8 4.2,-36.8 1.9,-2.6 2.3,-2.7 10.9,-2.5 4.9,0.2 11.6,0.4 14.9,0.6 6.6,0.5 29.6,1.5 50,2.2 7.1,0.3 24.7,1 39,1.5 14.3,0.6 33.6,1.3 43,1.7 9.3,0.3 21.7,0.8 27.5,1 5.8,0.3 15.9,0.6 22.5,0.9 22,0.9 31.9,1.4 32.3,1.8 0.2,0.3 1.5,0 2.9,-0.5 1.4,-0.5 3,-0.6 3.6,-0.2 0.7,0.4 3.2,0.8 5.7,0.9 2.5,0.1 11.7,0.5 20.5,0.9 8.8,0.4 21.8,0.8 29,1 7.1,0.1 14.1,0.5 15.5,0.8 2.4,0.6 45.8,2.2 55.2,2.1 2.7,-0.1 4.8,0.2 4.8,0.6 0,0.3 2.6,0.6 5.7,0.6 7.3,0 56.4,1.9 75.3,2.9 5.2,0.3 17.8,0.8 27.9,1 10.1,0.3 18.7,0.7 19,1 0.4,0.2 10.1,0.6 21.7,1 48.5,1.3 54.9,1.8 54,4.2 -0.4,0.9 -0.1,3 0.5,4.8 1.2,3.2 0.7,15.8 -2.2,60 l -1.1,16.9 2.2,1.8 c 1.4,1.1 3.7,1.8 5.9,1.7 5.1,-0.3 35.9,1 40.3,1.7 2.9,0.4 3.9,0.2 4.6,-1.3 z m -549.2,-455.8 c -58.1,-8.6 -107.8,-41.1 -140,-91.4 -12.5,-19.5 -23.7,-48.1 -27.7,-70.7 -3,-17.3 -3.7,-44.50003 -1.5,-58.90003 4.1,-26.3 7.8,-39.4 16.5,-57.8 6.5,-13.7 6.9,-14.2 10.6,-12.5 1.7,0.7 11.1,6.2 21,12.2 9.9,6 27,16.3 38,22.9 20.8,12.5 28.5,18 28.5,20.1 0,0.7 -0.9,3.1 -2.1,5.5 -1.1,2.3 -3.2,8.8 -4.7,14.4 -4.7,18.4 -3.4,38.80003 3.8,56.00003 10.7,25.8 31.5,45 57.3,52.8 20.8,6.3 49,4.2 67.1,-5.2 11.9,-6.2 20.2,-12.2 28.6,-20.9 l 8.5,-8.7 7,3.9 c 9.5,5.3 17.7,10.3 25.7,15.5 3.7,2.4 7,4.3 7.3,4.3 0.3,0 7,4 14.8,8.8 7.8,4.8 17.4,10.7 21.2,13 3.9,2.3 8.6,5.7 10.4,7.6 l 3.3,3.4 -2.6,3.5 c -1.4,1.8 -2.6,3.9 -2.6,4.5 0,0.6 -0.8,1.7 -1.8,2.4 -0.9,0.7 -3.7,3.9 -6.2,7.2 -4.7,6.2 -21.9,22.6 -30.3,28.9 -2.9,2.2 -5.4,4.2 -5.7,4.6 -0.7,0.9 -8.4,5.8 -13.4,8.5 -2.2,1.3 -7.5,4.1 -11.6,6.4 -19,10.3 -46.9,18.7 -70.6,21.1 -11.9,1.3 -35.4,0.6 -48.8,-1.4 z m 434.7,-4.4 c -29.5,-7.4 -57.4,-25.9 -71.8,-47.7 -5.5,-8.3 -5.4,-8.4 9.5,-16 3,-1.5 7.1,-3.7 9,-4.9 1.9,-1.2 8.9,-5 15.5,-8.5 6.6,-3.4 14,-7.4 16.5,-8.7 4.3,-2.4 4.5,-2.4 7.5,-0.7 1.6,0.9 4.8,3.4 7.1,5.4 7,6.4 16.1,10.8 23.9,11.7 33.3,3.9 60.9,-19.7 60.8,-51.7 0,-4.7 -0.5,-10.3 -1.1,-12.4 -1,-3.4 -0.9,-4.3 0.5,-5.8 0.9,-1 1.9,-1.8 2.3,-1.8 0.4,0 8.3,-4.2 17.6,-9.3 9.3,-5.2 21.6,-11.9 27.4,-14.9 l 10.49998,-5.6 3.4,1.9 c 4.3,2.3 4.4,2.5 8,13.4 2.6,8 3.7,12.6 4.7,19 1.9,12.3 0.3,35.2 -3.5,49.8 -2.2,8.5 -12.7,31.4 -15.39998,33.6 -0.9,0.7 -1.7,1.9 -1.7,2.5 0,4.3 -30.5,33.6 -35,33.6 -0.6,0 -2,0.9 -3.2,1.9 -5,4.7 -24.2,12.6 -37.8,15.6 -10.3,2.3 -11.5,2.3 -29.5,2 -13.1,-0.2 -18.9,-0.8 -25.2,-2.4 z m 5.1,-84.1 c -3.6,-1.3 -7.8,-7.4 -7,-10.4 0.3,-1.3 3,-3.4 7.3,-5.7 l 6.8,-3.6 3.4,2.4 c 3.6,2.4 7.4,7.8 6.9,9.5 -0.3,0.8 -12.5,8.5 -13.9,8.7 -0.3,0.1 -1.9,-0.4 -3.5,-0.9 z m -473.3,-107.90003 c -11.6,-6.7 -14.1,-8.7 -14.1,-11.2 0,-1.9 6.1,-13 8.8,-16.2 2.2,-2.5 4.5,-1.7 16.1,4.9 13.9,8 16.4,11 12.6,14.8 -0.8,0.8 -1.5,1.7 -1.5,2 0,0.2 -1.6,3.2 -3.7,6.6 -4.3,7.4 -3.9,7.4 -18.2,-0.9 z m 598.2,-45.3 c -0.6,-0.5 -2.6,-5.3 -4.4,-10.6 -11.9,-36 -24.8,-60 -50.2,-92.7 -1,-1.3 -1.4,-2.5 -1,-2.8 0.8,-0.4 15.2,-4.2 29.1,-7.7 21,-5.2 66.09998,-19.9 79.69998,-26 1.1,-0.5 5.8,-2.5 10.5,-4.5 13.5,-5.9 26.4,-11.7 27.5,-12.5 0.5,-0.4 3.5,-2.1 6.5,-3.7 24.9,-13.6 44.7,-26.6 62.8,-41 10.6,-8.5 34.5,-31.2 41,-38.9 1.7,-2.1 5.3,-6.4 8,-9.5 8,-9.5 19.4,-25.1 24.7,-33.8 0.5,-0.9 2.1,-3.4 3.5,-5.6 1.5,-2.2 2.9,-4.8 3.3,-5.7 0.3,-0.9 1.8,-3.6 3.3,-6 5.6,-8.7 18.6,-37.4 24.6,-54.3 6.7,-18.6 13.6,-42.8 15.8,-55.7 0.5,-2.7 1.1,-5.2 1.5,-5.7 0.3,-0.5 1,-4 1.5,-7.8 0.5,-3.7 1.7,-10.8 2.6,-15.8 0.8,-4.9 1.7,-11 2,-13.5 0.7,-7.3 1.3,-9 2.9,-8.4 1,0.4 1.8,-0.4 2.6,-2.2 1.4,-4 2.2,-2.4 5.4,11.6 10.9,47.2 10.1,108.9 -2,157 -8.9,35.5 -17.6,57.5 -35.5,90.5 -7.5,13.8 -24.3,38.3 -34.6,50.4 -26.3,31 -54.6,57.7 -83.4,78.6 -9.3,6.7 -15.6,11.2 -18.1,12.7 -1.5,0.9 -3.7,2.6 -4.8,3.7 -1.1,1.1 -3.5,2.7 -5.3,3.7 -1.8,0.9 -5.4,3.1 -8,5 -2.5,1.8 -6.6,4.3 -9,5.5 -2.3,1.2 -5,2.7 -5.8,3.4 -1.6,1.3 -7.5,4.7 -18,10.3 -3.6,1.9 -7,3.8 -7.5,4.3 -2.5,1.9 -38.6,19.3 -53,25.5 -10.1,4.4 -14.9,4.9 -18.19998,2.2 z m -681.2,-91.2 c -27.8,-18.7 -73.4,-62 -101.1,-96.1 -11,-13.5 -15.9,-19.9 -20.9,-27 -46.4,-65.9 -71.9,-128.5 -80.7,-198 -2.4,-18.8 -2.4,-73 0,-91 3.1,-23.7 12,-66.4 14.5,-70 0.4,-0.5 1.3,-3 2,-5.5 1.7,-6.2 14.1,-36.9 16.1,-40 0.9,-1.4 2.4,-4.4 3.3,-6.6 0.9,-2.3 3.7,-8 6.3,-12.5 2.6,-4.6 5.5,-10 6.4,-11.9 2.5,-4.8 17.3,-26.9 24.6,-36.4 3.2,-4.3 7.5,-10.1 9.6,-12.8 5.2,-7 17.5,-20.5 30.8,-33.8 15.3,-15.2 20.8,-20.2 37.5,-33.4 14.9,-11.8 18,-14.1 29,-21.4 3.8,-2.6 7.2,-5 7.5,-5.3 2.4,-2.9 36.9,-22.7 54.9,-31.5 16.1,-7.9 33.7,-15.4 36.1,-15.4 3.3,0 -2.5,8.2 -10.5,15 -9.4,7.9 -37.2,36.3 -45.3,46.3 -8.1,10 -28.9,39.7 -34.5,49.5 -6.4,11.1 -18.8,35.9 -23,46.2 -16.8,41.1 -25,79.4 -26.3,123 -1.3,43.7 6.6,88.8 22.8,130 3.2,8 3.5,8.7 9.7,22.3 2.3,4.9 4.1,9.1 4.1,9.3 0,0.3 2.7,5.5 6.1,11.6 29.2,53.6 69.9,101.6 124.9,147.4 9.1,7.6 37.3,28.9 45.5,34.4 8.5,5.6 13.5,10.1 13.5,11.8 0,1.2 -3.8,3.7 -12.3,8 -6.7,3.4 -14.5,7.5 -17.2,9.1 -2.8,1.5 -9.3,5.2 -14.5,8 -5.2,2.9 -11.8,6.7 -14.5,8.5 -2.8,1.8 -8.2,5.3 -12,7.6 -18.6,11.5 -36.9,24.5 -57,40.5 -5.5,4.4 -13.8,11.7 -18.5,16.2 -4.7,4.5 -8.9,8.3 -9.4,8.3 -0.4,0 -3.8,-2 -7.5,-4.4 z"
       id="path20"
       inkscape:connector-curvature="0"
       style="fill:#000000;stroke:none" />
  </g>
</svg>
