<?xml version="1.0" encoding="UTF-8" standalone="no"?>
<svg
   xmlns:dc="http://purl.org/dc/elements/1.1/"
   xmlns:cc="http://creativecommons.org/ns#"
   xmlns:rdf="http://www.w3.org/1999/02/22-rdf-syntax-ns#"
   xmlns:svg="http://www.w3.org/2000/svg"
   xmlns="http://www.w3.org/2000/svg"
   xmlns:sodipodi="http://sodipodi.sourceforge.net/DTD/sodipodi-0.dtd"
   xmlns:inkscape="http://www.inkscape.org/namespaces/inkscape"
   version="1.0"
   width="308.28244"
   height="308.28244"
   viewBox="0 0 246.62595 246.62595"
   preserveAspectRatio="xMidYMid meet"
   id="svg2"
   inkscape:version="0.48.4 r9939"
   sodipodi:docname="turd.svg"
   inkscape:export-filename="C:\Users\Максим\Desktop\turd.png"
   inkscape:export-xdpi="90"
   inkscape:export-ydpi="90">
  <defs
     id="defs34" />
  <sodipodi:namedview
     pagecolor="#ffffff"
     bordercolor="#666666"
     borderopacity="1"
     objecttolerance="10"
     gridtolerance="10"
     guidetolerance="10"
     inkscape:pageopacity="0"
     inkscape:pageshadow="2"
     inkscape:window-width="640"
     inkscape:window-height="480"
     id="namedview32"
     showgrid="false"
     fit-margin-top="0"
     fit-margin-left="0"
     fit-margin-right="0"
     fit-margin-bottom="0"
     inkscape:zoom="0.89001174"
     inkscape:cx="156.45974"
     inkscape:cy="153.036"
     inkscape:window-x="0"
     inkscape:window-y="0"
     inkscape:window-maximized="0"
     inkscape:current-layer="svg2" />
  <metadata
     id="metadata4">
Created by potrace 1.11, written by Peter Selinger 2001-2013
<rdf:RDF>
  <cc:Work
     rdf:about="">
    <dc:format>image/svg+xml</dc:format>
    <dc:type
       rdf:resource="http://purl.org/dc/dcmitype/StillImage" />
    <dc:title></dc:title>
  </cc:Work>
</rdf:RDF>
</metadata>
  <g
     id="g3087"
     transform="scale(8.220974,8.220974)">
    <rect
       ry="5.7864399"
       y="1.1657342e-015"
       x="0"
       height="29.999603"
       width="29.999603"
       id="rect3055"
       style="fill:#e6e6e6;fill-opacity:1;fill-rule:evenodd;stroke:none" />
    <g
       transform="translate(-185.50317,-208.76524)"
       id="g3075">
      <path
         style="fill:#aa4400;stroke:none"
         inkscape:connector-curvature="0"
         id="path8"
         d="m 200.17422,214.94553 c 0,0.7484 -0.52388,1.87101 -1.14755,2.39489 -0.22452,0.19957 -0.92304,0.52388 -1.57165,0.74841 -1.19745,0.42409 -1.39702,0.89808 -0.92303,2.02069 0.14968,0.32431 0.0499,0.47398 -0.44905,0.59872 -0.34925,0.0748 -0.94797,0.49894 -1.29723,0.92303 -0.52388,0.62367 -0.62367,0.94798 -0.52388,1.77122 0.0499,0.57378 0.19957,1.24735 0.29936,1.54671 0.12473,0.44904 0.0499,0.54883 -0.57378,0.67357 -2.39489,0.47398 -3.54245,3.56739 -2.07058,5.63797 0.97292,1.37208 1.87101,1.52176 8.65654,1.52176 6.63586,0 7.28447,-0.0998 8.28234,-1.37208 1.57165,-1.99574 0.44905,-5.28872 -1.97079,-5.78765 -0.82325,-0.14969 -0.8482,-0.22453 -0.34926,-1.07272 0.7983,-1.37208 0.0748,-3.21814 -1.44691,-3.71707 -0.67357,-0.22453 -0.8482,-0.39915 -0.74841,-0.77336 0.3742,-1.44691 -0.87313,-3.49255 -3.06846,-5.01431 l -1.09766,-0.7484 0,0.64862 z" />
      <g
         id="g3065">
        <path
           sodipodi:nodetypes="sssss"
           inkscape:connector-curvature="0"
           id="path3036"
           d="m 257.01801,285.71902 c 0,1.7003 -2.75672,3.07866 -6.15731,3.07866 -3.40059,0 -6.15731,-1.37836 -6.15731,-3.07866 0,-1.70029 2.95534,0.69518 6.35593,0.69518 3.40059,0 5.95869,-2.39547 5.95869,-0.69518 z"
           style="fill:#ffffff;fill-opacity:1;fill-rule:evenodd;stroke:none"
           transform="scale(0.8,0.8)" />
        <g
           id="g3057">
          <g
             id="g3045">
            <path
               transform="scale(0.8,0.8)"
               d="m 250.46345,279.16446 c 0,0.98727 -0.80034,1.78761 -1.78761,1.78761 -0.98727,0 -1.7876,-0.80034 -1.7876,-1.78761 0,-0.98727 0.80033,-1.78761 1.7876,-1.78761 0.98727,0 1.78761,0.80034 1.78761,1.78761 z"
               sodipodi:ry="1.7876059"
               sodipodi:rx="1.7876059"
               sodipodi:cy="279.16446"
               sodipodi:cx="248.67584"
               id="path3039"
               style="fill:#ffffff;fill-opacity:1;fill-rule:evenodd;stroke:none"
               sodipodi:type="arc" />
            <path
               sodipodi:type="arc"
               style="fill:#000000;fill-opacity:1;fill-rule:evenodd;stroke:none"
               id="path3043"
               sodipodi:cx="248.67584"
               sodipodi:cy="279.16446"
               sodipodi:rx="1.7876059"
               sodipodi:ry="1.7876059"
               d="m 250.46345,279.16446 c 0,0.98727 -0.80034,1.78761 -1.78761,1.78761 -0.98727,0 -1.7876,-0.80034 -1.7876,-1.78761 0,-0.98727 0.80033,-1.78761 1.7876,-1.78761 0.98727,0 1.78761,0.80034 1.78761,1.78761 z"
               transform="matrix(0.44444443,0,0,0.44444443,88.179733,99.496825)" />
          </g>
          <g
             id="g3049"
             transform="translate(3.2,0)">
            <path
               sodipodi:type="arc"
               style="fill:#ffffff;fill-opacity:1;fill-rule:evenodd;stroke:none"
               id="path3051"
               sodipodi:cx="248.67584"
               sodipodi:cy="279.16446"
               sodipodi:rx="1.7876059"
               sodipodi:ry="1.7876059"
               d="m 250.46345,279.16446 c 0,0.98727 -0.80034,1.78761 -1.78761,1.78761 -0.98727,0 -1.7876,-0.80034 -1.7876,-1.78761 0,-0.98727 0.80033,-1.78761 1.7876,-1.78761 0.98727,0 1.78761,0.80034 1.78761,1.78761 z"
               transform="scale(0.8,0.8)" />
            <path
               transform="matrix(0.44444443,0,0,0.44444443,88.179733,99.496825)"
               d="m 250.46345,279.16446 c 0,0.98727 -0.80034,1.78761 -1.78761,1.78761 -0.98727,0 -1.7876,-0.80034 -1.7876,-1.78761 0,-0.98727 0.80033,-1.78761 1.7876,-1.78761 0.98727,0 1.78761,0.80034 1.78761,1.78761 z"
               sodipodi:ry="1.7876059"
               sodipodi:rx="1.7876059"
               sodipodi:cy="279.16446"
               sodipodi:cx="248.67584"
               id="path3053"
               style="fill:#000000;fill-opacity:1;fill-rule:evenodd;stroke:none"
               sodipodi:type="arc" />
          </g>
        </g>
      </g>
    </g>
  </g>
  <flowRoot
     xml:space="preserve"
     id="flowRoot3101"
     style="font-size:40px;font-style:normal;font-variant:normal;font-weight:bold;font-stretch:normal;line-height:125%;letter-spacing:0px;word-spacing:0px;fill:#000000;fill-opacity:1;stroke:none;font-family:a_LCDNovaObl;-inkscape-font-specification:a_LCDNovaObl Bold"
     transform="matrix(0.45922204,0,0,0.45922204,8.2560971,11.200099)"><flowRegion
       id="flowRegion3103"><rect
         id="rect3105"
         width="334.82706"
         height="111.23449"
         x="1.1235807"
         y="26.263687"
         style="font-style:normal;font-variant:normal;font-weight:bold;font-stretch:normal;font-family:a_LCDNovaObl;-inkscape-font-specification:a_LCDNovaObl Bold" /></flowRegion><flowPara
       id="flowPara3107">тЫ МНЕ НРАВИШЬСЯ :) </flowPara></flowRoot></svg>
