<?xml version="1.0" encoding="UTF-8" standalone="no"?>
<svg
   xmlns:dc="http://purl.org/dc/elements/1.1/"
   xmlns:cc="http://creativecommons.org/ns#"
   xmlns:rdf="http://www.w3.org/1999/02/22-rdf-syntax-ns#"
   xmlns:svg="http://www.w3.org/2000/svg"
   xmlns="http://www.w3.org/2000/svg"
   xmlns:sodipodi="http://sodipodi.sourceforge.net/DTD/sodipodi-0.dtd"
   xmlns:inkscape="http://www.inkscape.org/namespaces/inkscape"
   version="1.0"
   width="295.81567"
   height="221.86176"
   viewBox="0 0 236.65254 177.4894"
   preserveAspectRatio="xMidYMid meet"
   id="svg2"
   inkscape:version="0.48.4 r9939"
   sodipodi:docname="dna1.svg">
  <defs
     id="defs12" />
  <sodipodi:namedview
     pagecolor="#ffffff"
     bordercolor="#666666"
     borderopacity="1"
     objecttolerance="10"
     gridtolerance="10"
     guidetolerance="10"
     inkscape:pageopacity="0"
     inkscape:pageshadow="2"
     inkscape:window-width="1920"
     inkscape:window-height="1003"
     id="namedview10"
     showgrid="false"
     fit-margin-top="0"
     fit-margin-left="0"
     fit-margin-right="0"
     fit-margin-bottom="0"
     inkscape:zoom="1.2586667"
     inkscape:cx="291.38676"
     inkscape:cy="185.91101"
     inkscape:window-x="-9"
     inkscape:window-y="-9"
     inkscape:window-maximized="1"
     inkscape:current-layer="svg2" />
  <metadata
     id="metadata4">
Created by potrace 1.11, written by Peter Selinger 2001-2013
<rdf:RDF>
  <cc:Work
     rdf:about="">
    <dc:format>image/svg+xml</dc:format>
    <dc:type
       rdf:resource="http://purl.org/dc/dcmitype/StillImage" />
    <dc:title></dc:title>
  </cc:Work>
</rdf:RDF>
</metadata>
  <path
     style="fill:#800080;fill-opacity:1;stroke:none"
     d="m 0,0 0,88.7447 0,88.7447 118.32626,0 118.32627,0 0,-88.7447 0,-88.7447 L 118.32626,0 0,0 z m 86.703569,70.43371 c 0.865391,-0.0392 2.163152,0.22926 4.052675,0.7987 1.538241,0.47331 4.555561,1.95238 6.744597,3.31314 l 3.963929,2.48485 2.66234,-1.53824 c 6.15297,-3.66812 9.05196,-4.73306 12.72007,-4.73306 4.08226,0 5.85715,0.82829 15.97405,7.27707 l 6.50795,4.14142 0.17749,-2.36653 c 0.11832,-1.36075 0.0592,-2.54401 -0.0592,-2.66234 -0.11832,-0.17749 -0.94661,0.0592 -1.83406,0.41415 -1.30158,0.65079 -1.71573,0.59163 -2.54401,-0.23666 -0.94661,-0.94661 -0.94661,-1.06493 0.11833,-1.83405 2.66234,-2.01155 8.46032,-4.4964 10.64936,-4.67389 2.07071,-0.11833 2.36653,0.0592 2.54402,1.24242 0.23665,1.41992 -0.11833,1.59741 -3.54979,2.18904 l -2.2482,0.35498 0,4.67389 c 0,5.14719 -0.11833,4.9697 4.14142,5.443 1.00577,0.11833 1.53824,0.59164 1.65657,1.47908 0.17748,1.24243 -0.0592,1.36076 -2.42569,1.36076 -2.54402,0 -4.79222,-0.94661 -11.47765,-4.79222 -2.2482,-1.30159 -2.66234,-1.36075 -3.84561,-0.59163 -0.76912,0.4733 -3.31313,1.89322 -5.67966,3.13565 -3.54978,1.83405 -4.91054,2.2482 -7.6912,2.2482 -4.08226,0 -6.86293,-1.24243 -15.91488,-6.98125 -3.668119,-2.36653 -6.803765,-4.25975 -6.981255,-4.25975 -0.177489,0 -0.295815,1.18326 -0.295815,2.66234 0,2.7215 0.414141,3.19481 1.597404,2.01155 0.887447,-0.88745 3.904767,-0.17749 3.608951,0.82828 -0.473305,1.47908 -8.164512,5.32468 -11.181832,5.6205 -2.780667,0.23665 -2.898994,0.23665 -2.898994,-1.30159 0,-1.24243 0.295816,-1.53824 1.419916,-1.53824 0.828283,0 2.129872,-0.23665 3.017319,-0.59163 1.479079,-0.59163 1.538242,-0.70996 1.360752,-5.1472 L 90.815377,74.24973 88.03471,73.71726 c -2.011547,-0.41414 -2.839831,-0.82828 -2.839831,-1.53824 0,-1.13149 0.396015,-1.69487 1.50866,-1.74531 z m -23.339856,26.4755 c 0.584466,-0.0207 1.560433,1.00208 2.425688,2.89899 l 1.242426,2.83983 1.183263,-2.83983 c 0.828283,-1.83405 1.597404,-2.78066 2.307362,-2.78066 1.419915,0 1.360752,0.70995 -0.532468,5.50217 -1.834058,4.61472 -2.839831,5.38384 -4.437235,3.3723 l -1.183263,-1.41992 -1.064937,1.36075 c -1.538239,2.07071 -2.603176,1.24243 -4.37807,-3.31313 -1.834057,-4.85138 -1.89322,-5.50217 -0.414142,-5.50217 0.828284,0 1.360758,0.65079 1.834057,2.18903 0.414142,1.24243 1.005774,2.48485 1.301589,2.83983 0.887447,0.94661 1.656566,-0.94661 1.301588,-3.13564 -0.258833,-1.34596 -0.04047,-1.99547 0.414142,-2.01155 z m 23.014459,0.11833 c 3.135646,0 3.549788,0.11832 3.549788,1.18326 0,1.00577 -0.414142,1.18326 -2.662341,1.18326 -3.194809,0 -3.549788,1.06494 -0.414142,1.30159 3.076483,0.23665 3.01732,1.89322 -0.05916,2.12987 -3.076483,0.23666 -2.544015,1.53825 0.709958,1.7749 1.952383,0.17749 2.484851,0.41414 2.307362,1.18326 -0.17749,0.82828 -0.887447,1.00577 -3.727278,1.00577 l -3.549788,0 -0.177489,-4.08225 c -0.118326,-2.2482 -0.05916,-4.43724 0.118326,-4.91054 0.236653,-0.53247 1.419915,-0.76912 3.904767,-0.76912 z m 17.689778,0 3.90476,0 c 3.43147,0 3.84561,0.11832 3.84561,1.18326 0,1.00577 -0.41414,1.18326 -2.66234,1.18326 -1.47908,0 -2.66234,0.23665 -2.66234,0.59163 0,0.29582 0.94661,0.59163 2.07071,0.59163 1.65656,0 2.07071,0.23666 2.07071,1.18327 0,0.94661 -0.41415,1.18326 -2.12988,1.18326 -3.01732,0 -2.30736,1.41992 0.88745,1.65657 1.95238,0.17749 2.48485,0.41414 2.30736,1.18326 -0.17749,0.82828 -0.88745,1.00577 -3.72728,1.00577 l -3.54978,0 -0.17749,-4.91054 -0.17749,-4.85137 z m 10.47187,0 c 0.53247,0 1.95239,1.1241 3.13565,2.48485 l 2.12987,2.48485 0.29582,-2.30736 c 0.23665,-1.89322 0.53247,-2.36653 1.47908,-2.36653 1.06493,0 1.18326,0.47331 1.36075,4.61473 0.11832,3.8456 0,4.61472 -0.82829,4.9697 -0.70995,0.23665 -1.65656,-0.35498 -3.13564,-2.07071 -1.18327,-1.36075 -2.30737,-2.48485 -2.54402,-2.48485 -0.23665,0 -0.4733,1.00577 -0.59163,2.18903 -0.11833,1.53825 -0.4733,2.2482 -1.06494,2.2482 -0.70995,0 -0.94661,-1.00577 -1.06493,-4.91054 -0.11833,-4.25974 -0.0592,-4.85137 0.82828,-4.85137 z m 14.82037,0 c 1.05466,-0.0304 2.09289,0.22556 2.86941,0.76912 1.65657,1.24242 0.59163,2.2482 -2.07071,1.83405 -1.89322,-0.29581 -2.36653,-0.17748 -2.89899,0.82829 -0.35498,0.65079 -0.6508,1.47908 -0.6508,1.83406 0,0.94661 1.7749,2.42568 3.01732,2.42568 1.53824,0 1.41992,-1.53824 -0.11832,-1.95238 -2.07071,-0.53247 -0.94661,-1.89322 1.5974,-1.89322 2.18904,0 2.30736,0.11833 2.48485,1.95238 0.23665,2.42569 -0.59163,3.54979 -3.13564,4.0231 -5.02887,0.94661 -8.34201,-4.79222 -4.73306,-8.342 0.89855,-0.93182 2.28254,-1.43995 3.63854,-1.47908 z m 18.54764,0 c 1.06494,0 1.18326,0.41414 1.18326,4.67388 0,2.95816 -0.23665,4.91054 -0.70995,5.1472 -0.35498,0.23665 -1.59741,-0.59163 -2.95816,-2.01155 -1.24243,-1.36075 -2.42569,-2.48485 -2.54402,-2.48485 -0.11832,0 -0.29581,1.00577 -0.41414,2.18903 -0.11832,1.7749 -0.41414,2.2482 -1.36075,2.2482 -1.06494,0 -1.18326,-0.4733 -1.36075,-4.08225 -0.11833,-2.2482 -0.0592,-4.43724 0.11832,-4.91054 0.53247,-1.41992 2.01155,-0.82829 3.96393,1.5974 2.12988,2.66234 2.899,2.60318 2.899,-0.35498 0,-1.5974 0.23665,-2.01154 1.18326,-2.01154 z m -71.543019,0.0148 c 2.098937,0.0273 4.392863,0.4696 4.392863,1.16847 0,0.59163 -0.769121,0.94661 -2.484851,1.06494 -3.076483,0.23665 -3.431462,1.30158 -0.473306,1.30158 1.656568,0 2.07071,0.23666 2.07071,1.18327 0,0.94661 -0.414142,1.18326 -2.07071,1.18326 -1.419915,0 -2.070709,0.29582 -2.070709,0.88745 0,0.65079 0.709957,0.88744 2.721504,0.88744 2.248199,0 2.662341,0.17749 2.484852,1.00578 -0.17749,0.88744 -0.828284,1.06493 -4.023094,1.06493 l -3.845603,0 -0.17749,-4.08225 c -0.118326,-2.2482 -0.05916,-4.43724 0.118327,-4.91054 0.20707,-0.54356 1.725007,-0.77557 3.357507,-0.75433 z m 78.095339,0 c 2.09893,0.0273 4.39286,0.4696 4.39286,1.16847 0,0.59163 -0.76912,0.94661 -2.48485,1.06494 -3.07648,0.23665 -3.43146,1.30158 -0.47331,1.30158 1.65657,0 2.07071,0.23666 2.07071,1.18327 0,0.94661 -0.41414,1.18326 -2.07071,1.18326 -1.41991,0 -2.07071,0.29582 -2.07071,0.88745 0,0.65079 0.70996,0.88744 2.72151,0.88744 2.2482,0 2.66234,0.17749 2.48485,1.00578 -0.17749,0.88744 -0.82828,1.06493 -4.02309,1.06493 l -3.84561,0 -0.17749,-4.08225 c -0.11832,-2.2482 -0.0592,-4.43724 0.11833,-4.91054 0.20707,-0.54356 1.72501,-0.77557 3.35751,-0.75433 z m 9.4661,0 c 2.09894,0.0273 4.39286,0.4696 4.39286,1.16847 0,0.59163 -0.76912,0.94661 -2.48485,1.06494 -3.07648,0.23665 -3.43146,1.30158 -0.47331,1.30158 1.65657,0 2.07071,0.23666 2.07071,1.18327 0,0.94661 -0.41414,1.18326 -2.07071,1.18326 -1.41991,0 -2.0707,0.29582 -2.0707,0.88745 0,0.65079 0.70995,0.88744 2.7215,0.88744 2.2482,0 2.66234,0.17749 2.48485,1.00578 -0.17749,0.88744 -0.82828,1.06493 -4.02309,1.06493 l -3.84561,0 -0.17749,-4.08225 c -0.11832,-2.2482 -0.0592,-4.43724 0.11833,-4.91054 0.20707,-0.54356 1.72501,-0.77557 3.35751,-0.75433 z m 8.48991,0 c 1.54606,-0.0457 3.43146,0.26623 4.36328,0.93182 1.53824,1.06493 1.71573,2.95815 0.35498,4.43723 -1.1241,1.24243 -0.6508,2.30736 1.00577,2.30736 0.82829,0 1.1241,0.35498 1.00578,1.00578 -0.29582,1.5974 -1.89323,1.5974 -3.90477,-0.11833 -2.18904,-1.83406 -2.95816,-1.89322 -3.19481,-0.17749 -0.11833,0.76912 -0.59163,1.36075 -1.06494,1.36075 -0.70995,0 -0.94661,-0.94661 -1.06493,-4.08225 -0.11833,-2.2482 -0.0592,-4.43724 0.11832,-4.91054 0.18119,-0.46591 1.17883,-0.71874 2.38132,-0.75433 z"
     id="rect2990"
     inkscape:connector-curvature="0" />
</svg>
