<?xml version="1.0" encoding="UTF-8" standalone="no"?>
<!-- Created with Inkscape (http://www.inkscape.org/) -->

<svg
   xmlns:dc="http://purl.org/dc/elements/1.1/"
   xmlns:cc="http://creativecommons.org/ns#"
   xmlns:rdf="http://www.w3.org/1999/02/22-rdf-syntax-ns#"
   xmlns:svg="http://www.w3.org/2000/svg"
   xmlns="http://www.w3.org/2000/svg"
   xmlns:sodipodi="http://sodipodi.sourceforge.net/DTD/sodipodi-0.dtd"
   xmlns:inkscape="http://www.inkscape.org/namespaces/inkscape"
   id="svg3657"
   sodipodi:docname="thegemini_Pointing_Hand.svg"
   viewBox="0 0 348.98 571.25"
   sodipodi:version="0.32"
   version="1.0"
   inkscape:output_extension="org.inkscape.output.svg.inkscape"
   inkscape:version="0.48.4 r9939"
   width="100%"
   height="100%">
  <defs
     id="defs13" />
  <sodipodi:namedview
     id="base"
     bordercolor="#666666"
     inkscape:pageshadow="2"
     inkscape:window-y="22"
     pagecolor="#ffffff"
     inkscape:window-height="994"
     inkscape:zoom="0.7"
     inkscape:window-x="0"
     borderopacity="1.0"
     inkscape:current-layer="layer1"
     inkscape:cx="350"
     inkscape:cy="517.49599"
     inkscape:window-width="1400"
     inkscape:pageopacity="0.0"
     inkscape:document-units="px"
     showgrid="false"
     inkscape:window-maximized="0" />
  <g
     id="layer1"
     inkscape:label="Ebene 1"
     inkscape:groupmode="layer"
     transform="translate(-207.3 -200.26)">
    <g
       id="g3042"
       transform="translate(-91.428572,58.571429)">
      <path
         transform="translate(412.35151,191.38459)"
         d="m 217.10497,95.25219 c 0,75.82509 -61.46838,137.29347 -137.293469,137.29347 -75.8250914,0 -137.293473,-61.46838 -137.293473,-137.29347 0,-75.825091 61.4683816,-137.293473 137.293473,-137.293473 75.825089,0 137.293469,61.468382 137.293469,137.293473 z"
         sodipodi:ry="137.29347"
         sodipodi:rx="137.29347"
         sodipodi:cy="95.25219"
         sodipodi:cx="79.811501"
         id="path2995"
         style="fill:#800080;fill-opacity:1;stroke:none"
         sodipodi:type="arc" />
      <g
         style="fill:#ffb380"
         transform="matrix(0.28086851,0,0,0.28086851,381.9281,149.10284)"
         id="g2997">
        <path
           inkscape:connector-curvature="0"
           id="path3726"
           sodipodi:nodetypes="csccccccccccccc"
           style="fill:#ffb380;fill-rule:evenodd;stroke:#000000;stroke-width:4"
           d="M 354.29,769.51 C 348.45,743.7 263.88,631.2 224.72,590.31 c -6.41,-6.7 -7.66,-8.46 -12.7,-18.24 1.53,-26.34 9.69,-40.71 14.06,-61.18 -0.67,-24.51 -23.36,-88.51 -14.9,-101.38 10,-6.08 15.96,-7.72 25.96,-5.72 -0.95,-73.46 -24.2,-199.87 42.86,-201.43 63.31,-3.72 38.8,91.35 42.86,154.29 l 8.57,31.43 c 32.83,-12.18 58.24,-5.99 93.76,11.43 16.19,-13.04 41.48,-6.63 57.67,7.14 3.81,2.58 23.45,13.57 42.85,15.71 52.91,8.42 16.87,129.24 12.86,198.57 -0.52,27.62 0.86,55.24 5.72,82.86 l -190,65.72 z" />
        <path
           inkscape:connector-curvature="0"
           id="path3728"
           sodipodi:nodetypes="cccc"
           style="fill:#ffb380;stroke:#000000;stroke-width:3"
           d="m 251.53,284.65 c 7.07,-4.77 55.56,-7.67 59.6,-3.03 -2.23,-26.13 0.61,-61.02 -30.31,-62.63 -21.63,1.65 -25.75,38.93 -29.29,65.66 z" />
        <path
           inkscape:connector-curvature="0"
           id="path5668"
           sodipodi:nodetypes="cccc"
           style="fill:#ffb380;stroke:#000000;stroke-width:3"
           d="m 219.2,466.47 c 8.08,0 18.19,-8.08 18.19,-8.08 -3.24,-23.5 -12.26,-35.42 -26.27,-37.37 0.74,15.15 2.61,30.3 8.08,45.45 z" />
        <path
           inkscape:connector-curvature="0"
           id="path7608"
           sodipodi:nodetypes="csc"
           style="fill:#ffb380;stroke:#000000;stroke-width:4"
           d="m 237.39,404.85 c 3.1,15.11 4.77,29.73 6.82,44.48 2.83,20.44 6.37,41.11 15.4,63.61" />
        <path
           inkscape:connector-curvature="0"
           id="path8579"
           style="fill:#ffb380;stroke:#000000;stroke-width:4"
           d="m 331.33,389.7 9.09,37.38" />
        <path
           inkscape:connector-curvature="0"
           id="path8581"
           sodipodi:nodetypes="cc"
           style="fill:#ffb380;stroke:#000000;stroke-width:4"
           d="m 425.27,399.8 c 5.85,5.39 13.35,10.78 14.15,16.17" />
      </g>
    </g>
    <g
       id="g3030"
       transform="translate(-68.571429,28.571429)">
      <path
         transform="translate(790.34564,161.97209)"
         d="m 217.10497,95.25219 c 0,75.82509 -61.46838,137.29347 -137.293469,137.29347 -75.8250914,0 -137.293473,-61.46838 -137.293473,-137.29347 0,-75.825091 61.4683816,-137.293473 137.293473,-137.293473 75.825089,0 137.293469,61.468382 137.293469,137.293473 z"
         sodipodi:ry="137.29347"
         sodipodi:rx="137.29347"
         sodipodi:cy="95.25219"
         sodipodi:cx="79.811501"
         id="path2995-1"
         style="fill:#800080;fill-opacity:1;stroke:none"
         sodipodi:type="arc" />
      <g
         inkscape:export-ydpi="297.51999"
         inkscape:export-xdpi="297.51999"
         inkscape:export-filename="/home/mark/Desktop/Current Projects/Cooking Spaces/CAR Lan Files/Book/detailed-design.png"
         id="g4139"
         transform="matrix(0.3318769,0,0,0.3355653,13.032559,15.203864)">
        <path
           sodipodi:nodetypes="cccccccccccccccccccccc"
           id="path4141"
           d="m 2739.1256,694.12088 c 0.4428,-18.4384 -10.5496,-35.2262 -24.8125,-46.12502 -9.7059,-8.1085 -21.3517,-13.7064 -34.1875,-13.625 -29.2241,-5.05347 -60.6472,-11.11896 -91.6836,-22.43516 -13.2075,-3.5535 -30.5943,-3.32654 -40.6914,-12.59612 -13.4667,-7.34479 -28.7834,0.48127 -42.3125,3.78128 -22.4568,8.0398 -45.411,16.3083 -64.6875,30.6562 -10.5259,4.0054 -9.9178,14.589 -14.0625,21.53132 5.2455,4.17279 0.8708,8.12335 -3.75,10.4062 -0.1957,3.0729 -0.063,6.2318 -0.4688,9.1875 -0.7821,23.7433 3.0293,48.9317 17.75,68.3125 4.1239,5.5074 8.957,10.4212 13.875,15.2188 11.4557,13.16944 5.7534,4.63099 12.4376,12.375 0.5792,11.994 10.4245,22.4055 22.1562,24.4374 5.7132,2.4592 11.6527,3.2453 17.4062,2.5313 9.8811,-10.5598 23.355,-17.8092 37.9376,-18.7813 15.8587,-3.1829 31.0407,-9.4123 45.5312,-16.5312 3.9284,-1.5135 8.5731,-3.1765 13.125,-4.9688 6.3999,-4.06 13.3657,-7.2716 19.9062,-11.125 11.0327,3.3291 22.8318,6.0879 34.5626,3.8438 23.0806,-3.8131 46.92,-5.8949 68.875,-14.2812 8.193,-5.9078 7.4468,-19.4529 15.7955,-25.1192"
           style="fill:#e8c9aa;fill-opacity:1;fill-rule:nonzero;stroke:none;stroke-width:20;marker:none;visibility:visible;display:inline;overflow:visible;enable-background:accumulate"
           inkscape:connector-curvature="0" />
        <path
           id="path4143"
           d="m 2680.7379,736.27646 -0.6209,0.23719 c -6.0054,4.12966 -12.0215,8.24888 -18.3593,11.92904 -0.2774,0.16081 -0.5528,0.3265 -0.8295,0.48833 -0.8059,0.39992 -1.7958,0.89084 -2.3247,1.12547 -1.0271,0.4555 -2.0711,0.87984 -3.1245,1.27895 -0.9749,0.36933 -1.9694,0.6813 -2.9556,1.02315 -4.9059,1.35179 -9.9833,2.04619 -14.7927,3.68801 -6.87,3.6819 -13.7792,7.29959 -20.6096,11.04542 -5.1719,2.83624 -9.0734,7.42542 -13.5559,11.0454 -3.2746,2.97346 -6.5449,5.96163 -10.0141,8.73866 -0.077,0.0619 -0.1632,0.12747 -0.2435,0.19068 -1.7652,0.31208 -3.5961,0.37685 -5.5385,0.10697 -5.3285,-0.4364 -10.4681,-0.33871 -15.3293,2.09747 -7.0539,3.81739 -14.1522,7.56043 -21.1609,11.45002 -6.1157,3.39396 -11.1007,8.3704 -16.5711,12.54295 -2.6382,2.17759 -5.2646,4.37994 -7.9776,6.47841 -2.2739,0.53243 -4.627,0.76411 -7.0983,0.55344 -4.1173,-0.30623 -8.3749,-0.90726 -12.3737,0.36274 -16.4063,8.86765 -20.9355,8.79851 -29.5557,20.97933 -2.7935,4.04728 -5.4479,8.17507 -8.2557,12.21272 -0.946,-1.62535 -1.5769,-3.5139 -2.2105,-4.86463 -2.0856,-6.58991 -3.0482,-13.40798 -3.4026,-20.26775 -0.057,-1.83492 -0.1358,-3.66651 -0.1789,-5.50177 -0.016,-0.6644 0.034,-1.33249 -0.02,-1.99515 -0.013,-0.16069 0.01,-0.38779 0.025,-0.61856 -0.2942,0.14904 -0.5831,0.29459 -0.8692,0.43718 0.1058,-0.18982 0.2176,-0.37897 0.3377,-0.5674 0.125,0.012 0.377,9e-5 0.5415,0.005 0.033,-0.47773 0.031,-0.92732 -0.303,-0.80923 -20.6708,7.31368 -19.9672,1.93399 -20.6642,9.63161 -1.254,5.23106 -2.7552,10.40845 -4.0087,15.64029 -2.2922,9.26188 -4.7901,18.47835 -7.3963,27.66702 -1.6755,5.87295 -3.5383,11.69775 -4.9674,17.63082 l 18.9007,-8.48288 c 1.7466,-5.80922 3.2245,-11.68115 4.7936,-17.53317 0.1793,-0.67619 0.3618,-1.35153 0.5414,-2.02772 0.976,2.30937 2.2676,4.52962 4.4855,5.83669 0.4871,0.28703 1.0598,0.42189 1.5896,0.63247 1.3379,0.12689 2.1856,0.39358 3.4721,-0.28837 16.8456,-8.92936 17.8793,-7.2356 25.2888,-17.45404 3.9463,-5.70645 7.5952,-11.58946 11.6633,-17.22156 0.4516,-0.59155 0.9096,-1.18383 1.376,-1.76727 1.1957,0.0242 2.3987,0.0995 3.5963,0.16278 5.4881,0.53074 10.5734,-0.59155 15.5528,-2.6602 16.1843,-6.86983 24.3483,-13.39878 36.4107,-23.5279 2.5681,-2.10917 5.1296,-4.23879 7.7789,-6.26448 2.5937,-0.52597 5.2765,-0.60358 8.057,-0.45577 5.7068,0.87053 10.3146,-0.40127 15.3889,-2.76718 17.9846,-7.98069 24.8583,-14.14092 37.5879,-25.71835 1.5695,-1.40646 3.1305,-2.83099 4.7338,-4.21355 2.6138,-0.63124 5.2771,-1.12559 7.8733,-1.79982 11.335,-3.3669 21.3591,-9.7837 31.3887,-15.54728 0.7681,-0.44144 5.1985,-4.23987 5.7075,-4.6693 2.9387,-2.55388 5.5856,-5.37298 8.2209,-8.19455 z m -217.0681,84.20094 c 0,0.0415 -0.01,0.084 -0.01,0.12555 0.043,-0.0215 0.082,-0.0435 0.1242,-0.0651 0.084,-0.0426 0.011,-0.057 -0.1142,-0.0605 z m 194.1091,-69.7047 c -0.8119,0.47236 -1.6268,0.9433 -2.4489,1.39987 -2.1253,1.18025 -8.5685,4.61014 -6.4477,3.42291 2.9411,-1.64643 5.9303,-3.21628 8.8966,-4.82278 z m 60.4576,1.36267 -0.6209,0.23717 c -5.2987,3.54921 -10.5139,7.19657 -15.8708,10.66871 -1.9709,1.21997 -3.9574,2.4179 -5.9458,3.60893 -8.4504,4.18937 -16.7582,8.62752 -23.9626,14.50089 -3.8125,3.31608 -7.2928,6.93344 -10.8486,10.48268 -3.0025,-0.41562 -5.7929,-1.42089 -8.9264,-2.52068 -2.224,-0.63155 -2.9623,-0.95044 -5.315,-1.15337 -1.322,-0.11401 -4.6774,-0.15848 -5.8913,0.4232 -19.459,9.32472 -17.9611,8.49867 -28.0457,14.8869 -8.7875,7.00133 -15.7673,15.62006 -22.6113,24.26736 -7.0502,8.85732 -13.9169,17.93327 -22.07,25.94159 -0.026,-3.7e-4 -0.053,5.3e-4 -0.079,0 -5.4506,-0.59409 -10.3425,-2.7357 -15.6174,-4.01821 -11.6953,-0.93869 -15.4847,5.17018 -28.7212,12.2453 -3.0065,1.60705 -5.3336,4.18541 -7.7292,6.45054 -4.4546,4.77762 -8.6392,9.75837 -12.9449,14.64966 -1.123,-0.79225 -2.2088,-1.67209 -3.3927,-2.39509 -2.3176,-1.13903 -5.4474,-2.31054 -8.0421,-0.98127 -20.6834,10.596 -16.1334,7.24146 -24.7077,13.93813 -5.6776,5.42389 -10.1496,11.75782 -13.5955,18.63536 -2.8224,5.69261 -5.4379,11.5723 -6.9047,17.7145 l 21.7669,-9.9618 c 1.0957,-5.84548 3.5211,-11.32091 6.085,-16.70997 1.7384,-3.36865 3.7546,-6.5797 6.0851,-9.56644 2.472,1.52425 4.5588,3.48877 7.3665,4.52046 0.5558,0.084 1.1061,0.24982 1.6691,0.2511 0.6181,10e-4 1.2888,0.0282 1.8329,-0.24646 18.5561,-9.3672 20.0353,-8.29776 29.3322,-18.83066 4.5304,-5.37321 8.9478,-10.82095 13.7248,-15.9938 4.6,0.797 8.9044,2.67314 13.4913,3.62757 4.3357,0.57732 8.5628,-0.2299 12.3439,-2.32072 24.9187,-13.7793 17.8993,-7.85343 28.0059,-17.04945 8.7718,-8.95067 16.1839,-18.97191 23.9078,-28.70877 4.6289,-5.489 9.1157,-11.24162 14.311,-16.32395 1.3764,0.0721 2.7315,0.32824 4.1576,0.61852 4.5994,1.50079 9.0293,3.18497 13.9285,3.50665 14.6417,-1.56942 27.4292,-11.08834 37.5432,-20.76538 4.7274,-4.86592 9.4017,-9.77367 14.7133,-14.09162 0.6194,-0.44159 1.1191,-0.80586 1.5995,-1.14873 3.0581,-1.68629 7.1449,-3.96942 13.9483,-7.77598 0.6373,-0.35658 2.7097,-2.02991 3.1741,-2.6602 0.5692,-0.77243 0.6893,-1.76156 1.0631,-2.63228 0.3575,-1.2795 1.3743,-2.34218 1.7236,-3.6229 0.1497,-0.54871 0.047,-1.13157 0.07,-1.69749 z m -9.2442,7.90618 c 0.6683,-0.36223 0.104,-0.055 -2.3397,1.27428 -0.052,0.0258 -0.1024,0.0533 -0.154,0.0791 0.851,-0.4613 2.1645,-1.17498 2.4937,-1.35335 z m -5.5039,7.34811 c -0.01,0.006 -0.053,0.0322 -0.1391,0.079 -1.0846,0.59117 -1.7421,0.94565 -2.7469,1.49287 0.2107,-0.12803 0.4315,-0.25633 0.6705,-0.3953 0.5912,-0.34373 2.2667,-1.21556 2.2155,-1.17662 z m -22.8498,12.39411 c -2.1703,1.16602 -3.5086,1.87734 -3.6808,1.96259 0.2641,-0.14996 1.7653,-0.95888 3.6808,-1.96259 z m -104.4882,10.81752 c 0.052,-0.0216 -0.9958,0.56423 -3.7553,2.09282 1.956,-1.11084 3.6895,-2.06548 3.7553,-2.09282 z m 63.8851,1.92075 c -0.2154,0.12057 -1.998,1.07455 -4.4309,2.39045 0.2062,-0.1354 0.4119,-0.27122 0.616,-0.40926 2.9458,-1.53204 4.0122,-2.09164 3.8149,-1.98119 z m 88.6423,11.12447 -0.6209,0.23718 c -2.3671,1.48339 -4.7362,2.96269 -7.1033,4.44607 -11.6033,7.47442 -23.4583,14.65266 -34.5131,22.83494 -0.4481,0.32736 -0.9365,0.68319 -1.4257,1.04176 -1.6228,0.25805 -3.2762,0.27355 -4.9524,-0.13952 -1.2911,-0.35289 -2.5576,-0.83359 -3.8646,-1.13012 -10.8293,-2.45668 -25.7728,19.42735 -29.5558,14.2823 -4.4585,3.7175 -7.9724,8.27118 -11.8073,12.52899 -3.8977,4.27161 -7.8569,8.5473 -12.2495,12.38013 -0.8983,0.16655 -1.8031,0.2971 -2.7172,0.39533 -6.3306,0.572 -12.8591,0.36392 -18.8461,2.68346 -8.6815,4.68264 -17.4417,9.23569 -26.0438,14.0451 -1.0715,0.59909 -2.0082,1.39657 -2.9506,2.16258 -4.8838,3.96976 -8.7699,8.87816 -12.4979,13.78468 -5.7725,7.57641 -11.3422,15.35073 -17.8924,22.36518 -4.6538,0.4411 -9.3562,0.5715 -13.839,1.958 -7.9667,4.1949 -15.9885,8.3039 -23.9028,12.5848 -4.6856,2.5343 -7.8141,7.0231 -10.2378,11.3942 -2.0799,4.5247 -3.8623,9.2259 -3.8248,14.2218 l 20.3363,-9.6827 c 0.5122,-4.8751 2.5478,-9.3998 4.9723,-13.6824 0.5279,-0.7994 1.0821,-1.5824 1.669,-2.3486 2.5487,-0.2715 5.1349,-0.3685 7.6895,-0.5395 2.7285,-0.3593 5.6894,-0.7136 8.1415,-2.009 17.6026,-9.2993 21.0751,-9.2054 30.8174,-18.96562 7.0015,-7.84221 12.9137,-16.45915 19.3131,-24.72778 2.0464,-2.45461 4.1176,-4.92941 6.3483,-7.25977 2.84,-0.3693 5.7372,-0.49953 8.6084,-0.66969 5.7989,-0.30365 11.3539,-1.83732 16.3724,-4.58558 9.069,-4.96648 18.0707,-10.04003 27.1068,-15.05895 6.8713,-5.08559 12.5865,-11.32724 18.25,-17.54244 2.9434,0.0845 5.842,-0.56475 8.7475,-1.44172 11.9108,-4.92899 23.3971,-12.12864 34.1555,-18.24469 3.1386,-1.78428 7.0565,-5.25694 9.895,-7.52485 5.693,-4.43465 10.0407,-10.06721 14.7281,-15.38452 0.564,-0.80309 1.13,-1.60594 1.6939,-2.40905 z m -217.0781,17.73776 c 0.1219,-0.0337 -1.0732,0.69702 -4.406,2.59975 2.1823,-1.39601 4.2551,-2.55804 4.406,-2.59975 z m 68.2067,28.28556 c 0.1099,-0.007 -2.3596,1.43778 -3.2934,1.90212 -0.7235,0.35982 -1.457,0.66613 -2.2055,0.92553 1.6173,-0.85153 3.3722,-1.75905 5.2803,-2.72531 0.1328,-0.0673 0.2028,-0.10127 0.2186,-0.10234 z m -33.3259,3.70659 c -0.01,0.009 -0.068,0.0417 -0.1838,0.10702 -1.319,0.7404 -2.5427,1.4192 -3.7206,2.06951 0.2759,-0.1847 0.5708,-0.37419 0.8891,-0.57205 0.7902,-0.4909 3.0785,-1.66757 3.0153,-1.60448 z m -69.235,2.29745 c 0.058,0.008 -1.0043,0.7036 -1.4157,0.92084 -0.4096,0.21638 -0.8717,0.33878 -1.3064,0.50692 -0.01,-10e-5 -0.017,1.1e-4 -0.025,0 0.8804,-0.46641 1.7612,-0.92967 2.6476,-1.38587 0.059,-0.0305 0.091,-0.043 0.099,-0.0419 z m 47.8406,8.85493 c -0.3375,0.13972 -0.3372,0.12662 0,0 z m 110.7818,0.32091 c 0.1034,-0.0243 -2.4724,1.43469 -3.4325,1.92537 -0.7586,0.38778 -1.531,0.74579 -2.3148,1.07898 1.8391,-0.97009 3.6795,-1.93582 5.5237,-2.89739 0.1366,-0.0712 0.2088,-0.10345 0.2236,-0.10696 z m -82.7014,57.34306 c -0.1913,0.10514 -0.6605,0.3586 -1.1674,0.6232 0.3616,-0.1931 0.7209,-0.38886 1.083,-0.58128 0.052,-0.0274 0.056,-0.0268 0.084,-0.0419 z m -26.1134,9.4411 c -0.01,0.009 -0.067,0.0446 -0.1788,0.1069 -1.2099,0.6762 -2.4192,1.35 -3.6311,2.023 0.3001,-0.2057 0.6022,-0.4073 0.9139,-0.5999 0.7585,-0.4685 2.9563,-1.5914 2.896,-1.53 z"
           style="fill:#9bd1d3;fill-opacity:1;fill-rule:nonzero;stroke:none;stroke-width:20;marker:none;visibility:visible;display:inline;overflow:visible;enable-background:accumulate"
           inkscape:connector-curvature="0" />
        <path
           sodipodi:nodetypes="ccccccccccccccccccccccccccccccccccccccccccccccccccccccccccccccccccccccccscccccccccccccc"
           style="fill:#000000;fill-opacity:1;fill-rule:nonzero;stroke:none"
           d="m 2549.0111,581.94942 c -34.926,6.92818 -67.3322,22.90278 -98.375,39.84375 -15.7347,9.26762 -32.2856,18.87904 -43.9063,33.15625 -2.0033,3.82883 -1.7252,6.89684 -0.2812,8.75 -1.8238,1.51035 -3.2102,3.32651 -3.375,6.0625 -1.1925,16.05512 -0.7623,32.29692 1.7188,48.21875 2.1549,15.2105 7.6944,29.976 16.75,42.4375 5.0049,7.6269 12.337,13.436 16.625,21.5625 0.7941,2.7845 2.3971,4.0486 4.3437,4.2188 0.01,0.0522 0.023,0.1039 0.031,0.1562 2.8012,13.2831 14.3547,23.6291 27.7187,25.5625 12.5142,5.3682 25.526,0.9993 36.0937,-6.375 5.6963,-3.1408 11.3594,-6.4185 16.5938,-10.2187 5.3541,-0.8908 11.3229,-1.857 15.4688,-3.8438 16.4932,-4.6764 31.1184,-13.9318 47.5312,-18.8125 6.1601,-3.3011 12.6835,-6.1137 18.9688,-9.3437 5.3311,1.2642 18.0422,4.6628 24.9374,3.4062 18.4104,-2.0345 36.8291,-4.6579 54.9376,-8.5938 17.9963,-2.9634 34.3931,-11.1376 49.5624,-20.9687 5.1411,-4.7505 26.7931,-11.691 16.0313,-19.28125 -8.3487,5.66635 -16.1507,12.15475 -24.3437,18.06255 -21.955,8.3864 -45.7944,10.4681 -68.875,14.2812 -11.7308,2.2441 -23.5299,-0.5147 -34.5626,-3.8438 -6.5405,3.8534 -13.5063,7.065 -19.9062,11.125 -4.5519,1.7923 -9.1966,3.4553 -13.125,4.9688 -14.4905,7.1189 -29.6725,13.3483 -45.5312,16.5312 -14.5826,0.9721 -28.0565,8.2215 -37.9376,18.7813 -5.7535,0.714 -11.693,-0.0721 -17.4062,-2.5313 -11.7317,-2.0319 -21.577,-12.4434 -22.1562,-24.4374 0.7957,-4.2805 2.4238,-8.4086 4.5937,-12.2813 0.7501,-0.3657 1.4999,-0.7281 2.25,-1.0937 6.5673,-1.7584 11.1546,-6.9966 13.9687,-13 7.701,-7.6825 15.8201,-15.0757 24.6563,-21.4376 3.2811,-1.4744 6.6222,-2.797 10,-4.0312 10.0881,-4.63554 21.4161,-4.91491 31.8125,-8.53125 3.673,-1.69448 7.2067,-3.6504 10.6875,-5.71875 5.1483,-2.38005 10.3354,-4.61319 15.5,-6.875 2.2437,-14.18257 -8.4104,-1.32515 -43.0625,6.96875 -17.3278,7.58773 -34.0882,16.74415 -49.3438,27.96875 0.246,-7.0921 1.1898,-14.36282 -1.6562,-21.09375 -1.6158,-4.53253 -5.2315,-7.92244 -8.9062,-10.84375 1.9214,-3.18547 0.1939,-8.61072 4.7187,-9.375 3.2979,-2.6068 5.1484,-8.20152 10.2813,-5.0625 11.2793,2.36786 22.9859,-1.14797 34.1874,1.625 5.055,2.28524 10.6178,2.11845 15.875,3.65625 6.7307,2.22925 22.433,-3.25405 23.8594,-7.56081 1.0336,-6.17081 -22.4269,-10.0602 -26.8281,-10.43919 -12.8467,-0.44184 -25.8447,1.96619 -38.5937,-0.5625 -3.0337,2.12337 2.5639,-3.50201 2.8124,-5.15625 3.3444,-4.86252 2.5779,-11.07643 -3.3124,-13.3125 -1.6032,-1.34347 -3.4997,-2.13856 -5.5313,-2.5625 -3.5796,3.73954 -4.7777,9.24228 -7.8125,13.46875 -3.4059,4.52388 -3.5607,10.62267 -7.375,14.90625 -1.7366,2.39256 -3.7837,5.62159 -5.6562,1.53125 -3.1472,-5.47578 -9.5466,-7.01573 -14.7813,-3.4375 -4.4807,2.82623 -9.6654,5.29409 -12.4375,10.03125 0.4073,4.90805 6.4245,7.13095 8.875,11.15625 3.9431,4.28742 -3.8804,4.9665 -6.3125,7.28125 -3.9163,1.8958 -0.017,7.05913 3.4687,7 6.0866,3.5053 11.0601,9.4565 11.875,16.625 0.7146,4.1582 2.0866,11.0578 2.7813,16.25 -4.07,2.5457 -7.8581,5.3273 -10.1563,7.75 -0.9184,1.2415 -1.8887,2.4946 -2.875,3.7813 -4.918,-4.7976 -9.7511,-9.7114 -13.875,-15.2188 -14.7207,-19.3808 -18.5321,-44.56925 -17.75,-68.3125 0.4056,-2.95568 0.2731,-6.11462 0.4688,-9.1875 3.3622,-1.5631 6.4461,-3.28286 6.4688,-6.71875 -0.5775,-1.56503 -1.534,-2.80007 -2.7188,-3.6875 4.1447,-6.94229 3.5366,-17.52584 14.0625,-21.53125 19.2765,-14.34794 42.2307,-22.61643 64.6875,-30.65625 13.5291,-3.29998 28.8458,-11.12604 42.3125,-3.78125 10.0971,9.26957 22.2611,15.54031 35.4687,19.09375 14.5346,-1.4121 28.3824,5.19908 42.4135,10.88622 16.9011,6.85042 36.2875,4.34172 54.4928,5.05128 12.8358,-0.0813 24.4816,5.51649 34.1875,13.625 14.2629,10.89882 25.2553,27.68665 24.8125,46.125 -0.01,10.97374 17.3213,33.85815 19.7813,12.3125 10.224,-24.80121 0.9918,-54.477 -19.6563,-70.9375 -11.3939,-9.80072 -25.159,-18.52974 -40.875,-17.03125 -36.3893,-0.008 -72.5581,-6.80331 -106.9063,-18.6875 l -42.4687,-17.84375 z m 69.5,167.62505 c -1.7988,1.4084 -4.2231,2.7924 -6.9687,4.125 2.385,-1.4062 4.8985,-2.8923 6.9687,-4.125 z m -94.8125,40.875 c -2.7264,2.0684 -5.6443,3.7556 -8.6875,5 4.5458,-2.6115 10.9204,-6.2899 8.6875,-5 z"
           id="path4145"
           inkscape:connector-curvature="0" />
        <path
           sodipodi:nodetypes="cccccc"
           id="path4147"
           d="m 2435.7296,828.45944 187.4948,-379.16318 18.2784,9.83954 -184.0813,381.84988 -27.3887,25.71445 5.6968,-38.24069 z"
           inkscape:transform-center-y="190.81433"
           inkscape:transform-center-x="91.831828"
           style="fill:#8bbcbe;fill-opacity:1;fill-rule:nonzero;stroke:none;stroke-width:1.52884305;marker:none;visibility:visible;display:inline;overflow:visible;enable-background:accumulate"
           inkscape:connector-curvature="0" />
        <g
           transform="translate(-380.06646,136.65874)"
           id="g4149">
          <path
             sodipodi:nodetypes="csccccccccccccc"
             id="path4151"
             d="m 3115.881,554.62591 c -20.4408,-37.69529 -148.6765,7.49138 -158.9073,10.49087 -5.0044,1.46722 -13.3991,4.86271 4.2052,-3.59725 -16.3611,5.62895 -57.1753,18.00121 -62.4417,18.4806 4.1239,5.5074 -81.5003,43.36033 -76.5823,48.15793 11.4557,13.16944 5.7534,4.63099 12.4376,12.375 0.5792,11.994 10.4245,22.4055 22.1562,24.4374 5.7132,2.4592 11.6527,3.2453 17.4062,2.5313 9.8811,-10.5598 23.355,-17.8092 37.9376,-18.7813 15.8587,-3.1829 31.0407,-9.4123 45.5312,-16.5312 3.9284,-1.5135 8.5731,-3.1765 13.125,-4.9688 6.3999,-4.06 13.3657,-7.2716 19.9062,-11.125 11.0327,3.3291 22.8318,6.0879 34.5626,3.8438 23.0806,-3.8131 47.0659,-10.02179 69.0209,-18.40809 21.5269,-8.77613 23.5364,-11.09499 35.3863,-18.51741"
             style="fill:#e8c9aa;fill-opacity:1;fill-rule:nonzero;stroke:none;stroke-width:20;marker:none;visibility:visible;display:inline;overflow:visible;enable-background:accumulate"
             inkscape:connector-curvature="0" />
          <g
             id="g4153">
            <path
               sodipodi:nodetypes="cccccccccccccccccccccccccccccccccccccccc"
               id="path4155"
               d="m 2809.4272,645.85107 c 0.7941,2.7845 -0.5912,9.86761 1.3554,10.03781 0.01,0.0522 0.023,0.1039 0.031,0.1562 2.8012,13.2831 14.3547,23.6291 27.7187,25.5625 12.5142,5.3682 25.526,0.9993 36.0937,-6.375 5.6963,-3.1408 11.3594,-6.4185 16.5938,-10.2187 5.3541,-0.8908 11.3229,-1.857 15.4688,-3.8438 16.4932,-4.6764 31.1184,-13.9318 47.5312,-18.8125 6.1601,-3.3011 12.6835,-6.1137 18.9688,-9.3437 5.3311,1.2642 18.0422,4.6628 24.9374,3.4062 18.4104,-2.0345 36.8291,-4.6579 54.9376,-8.5938 17.9963,-2.9634 34.3931,-11.1376 49.5624,-20.9687 5.1411,-4.7505 6.9298,2.7331 -3.832,-4.85715 -8.3487,5.66635 3.7126,-2.26935 -4.4804,3.63845 -21.955,8.3864 -45.7944,10.4681 -68.875,14.2812 -11.7308,2.2441 -23.5299,-0.5147 -34.5626,-3.8438 -6.5405,3.8534 -13.5063,7.065 -19.9062,11.125 -4.5519,1.7923 -9.1966,3.4553 -13.125,4.9688 -14.4905,7.1189 -29.6725,13.3483 -45.5312,16.5312 -14.5826,0.9721 -28.0565,8.2215 -37.9376,18.7813 -5.7535,0.714 -11.693,-0.0721 -17.4062,-2.5313 -11.7317,-2.0319 -21.577,-12.4434 -22.1562,-24.4374 0.7957,-4.2805 2.4238,-8.4086 4.5937,-12.2813 0.7501,-0.3657 1.4999,-0.7281 2.25,-1.0937 6.5673,-1.7584 11.1546,-6.9966 13.9687,-13 7.701,-7.6825 15.8201,-15.0757 24.6563,-21.4376 3.2811,-1.4744 6.6222,-2.797 10,-4.0312 10.0881,-4.63554 21.4161,-4.91491 31.8125,-8.53125 3.673,-1.69448 7.2067,-3.6504 10.6875,-5.71875 5.1483,-2.38005 16.3167,-11.40353 21.4813,-13.66534 2.2437,-14.18257 -14.3917,5.46519 -49.0438,13.75909 -17.3278,7.58773 -34.0882,16.74415 -49.3438,27.96875 -16.9295,14.08547 11.1859,-4.04714 -20.4687,14.125 -31.4482,14.51318 -17.3942,8.13698 -25.9804,29.24349 z m 177.3554,-26.58719 c -1.7988,1.4084 -4.2231,2.7924 -6.9687,4.125 2.385,-1.4062 4.8985,-2.8923 6.9687,-4.125 z m -94.8125,40.875 c -2.7264,2.0684 -5.6443,3.7556 -8.6875,5 4.5458,-2.6115 10.9204,-6.2899 8.6875,-5 z"
               style="fill:#000000;fill-opacity:1;fill-rule:nonzero;stroke:none"
               inkscape:connector-curvature="0" />
          </g>
        </g>
      </g>
    </g>
  </g>
  <metadata
     id="metadata11">
    <rdf:RDF>
      <cc:Work>
        <dc:format>image/svg+xml</dc:format>
        <dc:type
           rdf:resource="http://purl.org/dc/dcmitype/StillImage" />
        <cc:license
           rdf:resource="http://creativecommons.org/licenses/publicdomain/" />
        <dc:publisher>
          <cc:Agent
             rdf:about="http://openclipart.org/">
            <dc:title>Openclipart</dc:title>
          </cc:Agent>
        </dc:publisher>
        <dc:title></dc:title>
        <dc:date>2007-10-19T08:28:37</dc:date>
        <dc:description />
        <dc:source>https://openclipart.org/detail/7196/pointing-hand-by-thegemini</dc:source>
        <dc:creator>
          <cc:Agent>
            <dc:title>thegemini</dc:title>
          </cc:Agent>
        </dc:creator>
        <dc:subject>
          <rdf:Bag>
            <rdf:li>finger</rdf:li>
            <rdf:li>hand</rdf:li>
          </rdf:Bag>
        </dc:subject>
      </cc:Work>
      <cc:License
         rdf:about="http://creativecommons.org/licenses/publicdomain/">
        <cc:permits
           rdf:resource="http://creativecommons.org/ns#Reproduction" />
        <cc:permits
           rdf:resource="http://creativecommons.org/ns#Distribution" />
        <cc:permits
           rdf:resource="http://creativecommons.org/ns#DerivativeWorks" />
      </cc:License>
    </rdf:RDF>
  </metadata>
</svg>
