<?xml version="1.0" encoding="UTF-8" standalone="no"?>
<!-- Created with Inkscape (http://www.inkscape.org/) -->

<svg
   xmlns:dc="http://purl.org/dc/elements/1.1/"
   xmlns:cc="http://creativecommons.org/ns#"
   xmlns:rdf="http://www.w3.org/1999/02/22-rdf-syntax-ns#"
   xmlns:svg="http://www.w3.org/2000/svg"
   xmlns="http://www.w3.org/2000/svg"
   xmlns:xlink="http://www.w3.org/1999/xlink"
   xmlns:sodipodi="http://sodipodi.sourceforge.net/DTD/sodipodi-0.dtd"
   xmlns:inkscape="http://www.inkscape.org/namespaces/inkscape"
   version="1.0"
   width="70.900429"
   height="129.73633"
   id="svg3217"
   inkscape:version="0.48.4 r9939"
   sodipodi:docname="Drink.svg">
  <metadata
     id="metadata45">
    <rdf:RDF>
      <cc:Work
         rdf:about="">
        <dc:format>image/svg+xml</dc:format>
        <dc:type
           rdf:resource="http://purl.org/dc/dcmitype/StillImage" />
      </cc:Work>
    </rdf:RDF>
  </metadata>
  <sodipodi:namedview
     pagecolor="#ffffff"
     bordercolor="#666666"
     borderopacity="1"
     objecttolerance="10"
     gridtolerance="10"
     guidetolerance="10"
     inkscape:pageopacity="0"
     inkscape:pageshadow="2"
     inkscape:window-width="1855"
     inkscape:window-height="1056"
     id="namedview43"
     showgrid="false"
     inkscape:zoom="5.1451186"
     inkscape:cx="84.782434"
     inkscape:cy="64.868162"
     inkscape:window-x="65"
     inkscape:window-y="24"
     inkscape:window-maximized="1"
     inkscape:current-layer="svg3217" />
  <defs
     id="defs3219">
    <linearGradient
       id="linearGradient3845">
      <stop
         id="stop3847"
         style="stop-color:#808080;stop-opacity:0.9375"
         offset="0" />
      <stop
         id="stop3849"
         style="stop-color:#808080;stop-opacity:0"
         offset="1" />
    </linearGradient>
    <linearGradient
       id="linearGradient3774">
      <stop
         id="stop3776"
         style="stop-color:#e6e6e6;stop-opacity:1"
         offset="0" />
      <stop
         id="stop3778"
         style="stop-color:#e6e6e6;stop-opacity:0"
         offset="1" />
    </linearGradient>
    <linearGradient
       id="linearGradient3758">
      <stop
         id="stop3760"
         style="stop-color:#ff5555;stop-opacity:1"
         offset="0" />
      <stop
         id="stop3762"
         style="stop-color:#ff5555;stop-opacity:0"
         offset="1" />
    </linearGradient>
    <linearGradient
       id="linearGradient3748">
      <stop
         id="stop3750"
         style="stop-color:#550000;stop-opacity:1"
         offset="0" />
      <stop
         id="stop3752"
         style="stop-color:#550000;stop-opacity:0"
         offset="1" />
    </linearGradient>
    <linearGradient
       x1="-66.670067"
       y1="811.94592"
       x2="373.75644"
       y2="716.99152"
       id="linearGradient3754"
       xlink:href="#linearGradient3748"
       gradientUnits="userSpaceOnUse"
       gradientTransform="matrix(0.171349,0,0,0.171349,280.23412,523.58674)" />
    <linearGradient
       x1="518.64185"
       y1="411.92545"
       x2="449.29791"
       y2="446.27063"
       id="linearGradient3764"
       xlink:href="#linearGradient3758"
       gradientUnits="userSpaceOnUse"
       gradientTransform="matrix(0.171349,0,0,0.171349,280.23412,523.58674)" />
    <radialGradient
       cx="251.66321"
       cy="187.33006"
       r="120.31351"
       fx="251.66321"
       fy="187.33006"
       id="radialGradient3780"
       xlink:href="#linearGradient3774"
       gradientUnits="userSpaceOnUse"
       gradientTransform="matrix(0.1344368,0.1172785,-0.1230737,0.1410842,312.57898,518.88349)" />
    <filter
       id="filter3826">
      <feGaussianBlur
         id="feGaussianBlur3828"
         stdDeviation="7.374811"
         inkscape:collect="always" />
    </filter>
    <linearGradient
       x1="-624.7442"
       y1="201.70345"
       x2="-606.19714"
       y2="326.22226"
       id="linearGradient3851"
       xlink:href="#linearGradient3845"
       gradientUnits="userSpaceOnUse"
       gradientTransform="matrix(0.0250343,-0.1684948,0.1696242,0.03114446,280.23412,523.58675)" />
    <linearGradient
       inkscape:collect="always"
       xlink:href="#linearGradient3845"
       id="linearGradient3030"
       gradientUnits="userSpaceOnUse"
       gradientTransform="matrix(0.0250343,-0.1684948,0.1696242,0.03114446,-22.49679,-43.39945)"
       x1="-624.7442"
       y1="201.70345"
       x2="-606.19714"
       y2="326.22226" />
    <linearGradient
       inkscape:collect="always"
       xlink:href="#linearGradient3758"
       id="linearGradient3038"
       gradientUnits="userSpaceOnUse"
       gradientTransform="matrix(0.171349,0,0,0.171349,-22.49679,-43.39946)"
       x1="518.64185"
       y1="411.92545"
       x2="449.29791"
       y2="446.27063" />
    <linearGradient
       inkscape:collect="always"
       xlink:href="#linearGradient3748"
       id="linearGradient3041"
       gradientUnits="userSpaceOnUse"
       gradientTransform="matrix(0.171349,0,0,0.171349,-22.49679,-43.39946)"
       x1="-66.670067"
       y1="811.94592"
       x2="373.75644"
       y2="716.99152" />
    <radialGradient
       inkscape:collect="always"
       xlink:href="#linearGradient3774"
       id="radialGradient3044"
       gradientUnits="userSpaceOnUse"
       gradientTransform="matrix(0.1344368,0.1172785,-0.1230737,0.1410842,9.84807,-48.10271)"
       cx="251.66321"
       cy="187.33006"
       fx="251.66321"
       fy="187.33006"
       r="120.31351" />
    <linearGradient
       inkscape:collect="always"
       xlink:href="#linearGradient3758"
       id="linearGradient3044"
       gradientUnits="userSpaceOnUse"
       gradientTransform="matrix(0.171349,-0.00323105,0,0.171349,-22.49679,-42.306781)"
       x1="518.64185"
       y1="411.92545"
       x2="449.29791"
       y2="446.27063" />
    <linearGradient
       inkscape:collect="always"
       xlink:href="#linearGradient3748"
       id="linearGradient3047"
       gradientUnits="userSpaceOnUse"
       gradientTransform="matrix(0.171349,0,0,0.171349,-22.49679,-43.39946)"
       x1="-66.670067"
       y1="811.94592"
       x2="373.75644"
       y2="716.99152" />
    <radialGradient
       inkscape:collect="always"
       xlink:href="#linearGradient3774"
       id="radialGradient3050"
       gradientUnits="userSpaceOnUse"
       gradientTransform="matrix(0.1344368,0.1172785,-0.1230737,0.1410842,9.84807,-48.10271)"
       cx="251.66321"
       cy="187.33006"
       fx="251.66321"
       fy="187.33006"
       r="120.31351" />
  </defs>
  <flowRoot
     xml:space="preserve"
     id="flowRoot3050"
     style="fill:black;stroke:none;stroke-opacity:1;stroke-width:1px;stroke-linejoin:miter;stroke-linecap:butt;fill-opacity:1;font-family:Sans;font-style:normal;font-weight:normal;font-size:40px;line-height:125%;letter-spacing:0px;word-spacing:0px"><flowRegion
       id="flowRegion3052"><rect
         id="rect3054"
         width="20.889748"
         height="69.815735"
         x="40.130306"
         y="42.878956" /></flowRegion><flowPara
       id="flowPara3056" /></flowRoot>  <path
     inkscape:connector-curvature="0"
     style="fill:#b3b3b3;fill-rule:evenodd;stroke:#cccccc;stroke-width:1.52258718;stroke-linecap:butt;stroke-linejoin:miter;stroke-miterlimit:4;stroke-opacity:1;stroke-dasharray:none"
     id="path3786"
     d="m 14.69994,117.23829 c 13.85729,6.75965 44.48013,2.82467 47.64722,-5.21627 0.80889,-0.98768 1.15684,-3.38353 -1.76857,-5.07529 -14.53436,7.56908 -29.26888,11.70215 -44.63024,5.07529 -1.18048,0.41478 -3.54403,2.86505 -1.24841,5.21627 z" />
  <path
     inkscape:connector-curvature="0"
     style="fill:#666666;fill-rule:evenodd;stroke:#cccccc;stroke-width:1.56557989;stroke-linecap:butt;stroke-linejoin:miter;stroke-miterlimit:4;stroke-opacity:1;stroke-dasharray:none"
     id="path3784"
     d="m 13.02278,113.21379 c 14.24039,8.44532 46.923,3.72744 50.52348,-5.20104 0.85773,-0.9848 1.22669,-3.37366 -1.87532,-5.06048 -15.41174,7.547 -31.03573,11.66799 -47.3244,5.06048 -1.25174,0.41357 -3.75796,2.85668 -1.32376,5.20104 z" />
  <path
     inkscape:connector-curvature="0"
     style="fill:#d40000;fill-rule:evenodd;stroke:#800000;stroke-width:1.71349001;stroke-linecap:butt;stroke-linejoin:miter;stroke-miterlimit:4;stroke-opacity:1;stroke-dasharray:none"
     id="path3227"
     d="m 5.54357,28.56828 2.76942,74.42811 c -0.47292,3.0002 4.45501,7.73129 8.65443,9.00061 13.67195,4.23032 27.98822,2.66177 42.5798,-1.38471 3.60144,-2.18639 6.50123,-4.89437 5.88502,-8.30826 L 61.27811,26.14504 c -0.54016,-3.47571 -5.13494,-6.4235 -10.38532,-11.42385 -11.01674,1.7091 -14.57282,6.40246 -38.07949,3.11559 -4.4774,4.26188 -8.2577,8.2914 -7.26973,10.7315 z" />
  <path
     inkscape:connector-curvature="0"
     style="fill:url(#linearGradient3047);fill-opacity:1;fill-rule:evenodd;stroke:#800000;stroke-width:1.71349001;stroke-linecap:butt;stroke-linejoin:miter;stroke-miterlimit:4;stroke-opacity:1;stroke-dasharray:none"
     id="path3738"
     d="m 5.54357,28.56828 2.76942,74.42811 c -0.47292,3.0002 4.45501,7.73129 8.65443,9.00061 13.67195,4.23032 27.98822,2.66177 42.5798,-1.38471 3.60144,-2.18639 6.50123,-4.89437 5.88502,-8.30826 L 61.27811,26.14504 c -0.54016,-3.47571 -5.13494,-6.4235 -10.38532,-11.42385 -11.01674,1.7091 -14.57282,6.40246 -38.07949,3.11559 -4.4774,4.26188 -8.2577,8.2914 -7.26973,10.7315 z" />
  <path
     inkscape:connector-curvature="0"
     style="opacity:0.84999994;fill:#ffd5d5;fill-rule:evenodd;stroke:#000000;stroke-width:0;stroke-linecap:butt;stroke-linejoin:miter;stroke-miterlimit:4;stroke-opacity:1;stroke-dasharray:none;filter:url(#filter3826)"
     id="path3788"
     transform="matrix(0.171349,0,0,0.171349,-22.49679,-43.39945)"
     d="m 184.56828,866.32907 c 62.92958,66.52978 297.62167,38.77471 309.07863,1.46483 0.48827,-33.20276 2.7674,-282.16836 -20.50759,-464.35036 9.77506,-7.53691 -25.3694,-35.03804 -48.33931,-57.12827 15.27765,10.77876 28.31474,18.80379 58.59311,48.33931 10.98401,156.61339 21.57934,313.03243 24.90207,465.81518 -1.29935,17.44275 -15.05397,32.80963 -62.98759,42.48 -82.59249,15.51312 -209.12881,29.8979 -260.73932,-36.62069 z" />
  <text
     xml:space="preserve"
     style="font-size:22.48703575px;font-style:normal;font-variant:normal;font-weight:bold;font-stretch:normal;line-height:125%;letter-spacing:0px;word-spacing:0px;fill:#ffffff;fill-opacity:1;stroke:none;font-family:Segoe Print;-inkscape-font-specification:Sans"
     x="-89.654419"
     y="44.091114"
     id="text3058"
     sodipodi:linespacing="125%"
     transform="matrix(0.22998148,-0.97319501,0.97319501,0.22998148,0,0)"><tspan
       sodipodi:role="line"
       id="tspan3060"
       x="-89.654419"
       y="44.091114">SODA </tspan><tspan
       sodipodi:role="line"
       x="-89.654419"
       y="72.199905"
       id="tspan3062"> labs</tspan></text>
  <path
     inkscape:connector-curvature="0"
     style="fill:url(#linearGradient3044);fill-opacity:1;fill-rule:evenodd;stroke:#800000;stroke-width:1.71349001;stroke-linecap:butt;stroke-linejoin:miter;stroke-miterlimit:4;stroke-opacity:1;stroke-dasharray:none"
     id="path3756"
     d="M 5.54357,29.132215 8.31299,103.5081 c -0.47292,3.00912 4.45501,7.64729 8.65443,8.83742 13.67195,3.97252 27.98822,2.13401 42.5798,-2.18762 3.60144,-2.2543 6.50123,-5.01696 5.88502,-8.41923 L 61.27811,25.658016 C 60.73795,22.192491 56.14317,19.331343 50.89279,14.429997 39.87605,16.346834 36.31997,21.107249 12.8133,18.263633 8.3359,22.609942 4.5556,26.710745 5.54357,29.132215 z" />
  <g
     id="g3070">
    <path
       d="M 11.18053,12.61141 C 15.4355,10.11612 46.04111,7.98799 50.48665,9.1769 c 7.55805,7.59416 -39.5757,6.42074 -39.30612,3.43451 z"
       id="path3770"
       style="fill:#666666;fill-rule:evenodd;stroke:#cccccc;stroke-width:1.10314488;stroke-linecap:butt;stroke-linejoin:miter;stroke-miterlimit:4;stroke-opacity:1;stroke-dasharray:none"
       inkscape:connector-curvature="0" />
    <path
       d="M 11.18053,12.61141 C 15.4355,10.11612 46.04111,7.98799 50.48665,9.1769 c 7.55805,7.59416 -39.5757,6.42074 -39.30612,3.43451 z"
       id="path3772"
       style="fill:url(#radialGradient3050);fill-opacity:1;fill-rule:evenodd;stroke:#cccccc;stroke-width:1.10314488;stroke-linecap:butt;stroke-linejoin:miter;stroke-miterlimit:4;stroke-opacity:1;stroke-dasharray:none"
       inkscape:connector-curvature="0" />
    <path
       d="m 9.91808,18.62449 c 13.17858,3.9804 27.43965,2.9281 42.86432,-3.534 0.72769,-0.66915 1.04072,-2.29233 -1.59104,-3.43849 -13.07537,5.12803 -26.33082,7.92815 -40.1502,3.43849 -1.06198,0.28101 -3.18827,1.94105 -1.12308,3.534 z"
       id="path3766"
       style="fill:#666666;fill-rule:evenodd;stroke:#cccccc;stroke-width:1.1886791;stroke-linecap:butt;stroke-linejoin:miter;stroke-miterlimit:4;stroke-opacity:1;stroke-dasharray:none"
       inkscape:connector-curvature="0" />
    <path
       d="m 10.23235,15.68959 c 12.80624,3.52756 26.6644,2.59499 41.65328,-3.13195 0.70713,-0.59302 1.01132,-2.03154 -1.54608,-3.0473 1.60452,4.25842 -40.4698,7.4078 -39.01584,3.0473 -1.03198,0.24905 -3.0982,1.72022 -1.09136,3.13195 z"
       id="path3768"
       style="fill:#4d4d4d;fill-rule:evenodd;stroke:#cccccc;stroke-width:1.10310066;stroke-linecap:butt;stroke-linejoin:miter;stroke-miterlimit:4;stroke-opacity:1;stroke-dasharray:none"
       inkscape:connector-curvature="0" />
    <path
       d="m 10.23235,15.68959 c 12.80624,3.52756 26.6644,2.59499 41.65328,-3.13195 0.70713,-0.59302 1.01132,-2.03154 -1.54608,-3.0473 1.60452,4.25842 -40.4698,7.4078 -39.01584,3.0473 -1.03198,0.24905 -3.0982,1.72022 -1.09136,3.13195 z"
       id="path3782"
       style="fill:#4d4d4d;fill-rule:evenodd;stroke:#cccccc;stroke-width:1.10310066;stroke-linecap:butt;stroke-linejoin:miter;stroke-miterlimit:4;stroke-opacity:1;stroke-dasharray:none"
       inkscape:connector-curvature="0" />
    <path
       d="m 30.29237,11.13823 c 6.86972,-0.76725 11.90984,-1.15158 11.43339,0.096 -1.3553,1.85197 -7.6534,1.41783 -12.44279,1.71572 l 1.0094,-1.81172 z"
       id="path3857"
       style="fill:none;stroke:#333333;stroke-width:0.68539602;stroke-linecap:butt;stroke-linejoin:miter;stroke-miterlimit:4;stroke-opacity:1;stroke-dasharray:none"
       inkscape:connector-curvature="0" />
    <path
       d="m 29.3885,10.85208 11.41345,-0.32987 c 0.11961,0 0.21591,0.0963 0.21591,0.21592 l 0,0.70772 c 0,0.11961 -0.0963,0.21591 -0.21591,0.21591 L 29.3885,11.99163 c -0.11962,0 -0.21591,-0.0963 -0.21591,-0.21591 l 0,-0.70773 c 0,-0.11961 0.0963,-0.21591 0.21591,-0.21591 z"
       id="rect3863"
       style="opacity:0.9375;fill:#000000;fill-opacity:1;fill-rule:nonzero;stroke:#999999;stroke-width:0;stroke-linecap:butt;stroke-linejoin:miter;stroke-miterlimit:4;stroke-opacity:1;stroke-dashoffset:0;marker:none;visibility:visible;display:inline;overflow:visible;enable-background:accumulate"
       inkscape:connector-curvature="0" />
    <path
       d="m 30.2315,11.02975 c 6.63288,-0.67837 11.49922,-1.01817 11.0392,0.0849 -1.30857,1.63743 -7.38953,1.25358 -12.01379,1.51696 l 0.97459,-1.60184 z"
       id="path3859"
       style="fill:none;stroke:#333333;stroke-width:0.63326585;stroke-linecap:butt;stroke-linejoin:miter;stroke-miterlimit:4;stroke-opacity:1;stroke-dasharray:none"
       inkscape:connector-curvature="0" />
    <path
       d="m 30.4762,11.06787 c -0.28014,0.59854 -0.62316,1.21804 -1.4466,1.99768 C 14.78305,13.5418 11.46309,12.19694 15.94135,9.55238 20.0209,8.65431 25.34224,10.03287 30.4762,11.06787 z"
       id="path3853"
       style="fill:#999999;fill-rule:evenodd;stroke:#666666;stroke-width:0.51404703;stroke-linecap:butt;stroke-linejoin:miter;stroke-miterlimit:4;stroke-opacity:1;stroke-dasharray:none"
       inkscape:connector-curvature="0" />
    <path
       d="m 22.07216,10.03459 c -2.73084,-0.28406 -5.50467,-0.64692 -7.1641,1.03328 -0.58105,0.83136 2.45864,0.88074 5.30419,1.17105 l 1.85991,-2.20433 z"
       id="path3861"
       style="fill:#808080;fill-rule:evenodd;stroke:#000000;stroke-width:0.171349px;stroke-linecap:butt;stroke-linejoin:miter;stroke-opacity:1"
       inkscape:connector-curvature="0" />
    <path
       d="m 27.74397,11.24303 -4.92715,-0.94293 -1.06879,1.87345 c 1.02872,0.18253 3.31037,0.0497 5.00798,0.19449 l 0.98796,-1.12501 z"
       id="path3866"
       style="fill:#808080;fill-rule:evenodd;stroke:#000000;stroke-width:0.15696573px;stroke-linecap:butt;stroke-linejoin:miter;stroke-opacity:1"
       inkscape:connector-curvature="0" />
    <path
       d="m 30.29237,11.13823 c 6.86972,-0.76725 11.90984,-1.15158 11.43339,0.096 -1.3553,1.85197 -7.6534,1.41783 -12.44279,1.71572 l 1.0094,-1.81172 z"
       id="path3855"
       style="fill:none;stroke:#999999;stroke-width:0.34269801;stroke-linecap:butt;stroke-linejoin:miter;stroke-miterlimit:4;stroke-opacity:1;stroke-dasharray:none"
       inkscape:connector-curvature="0" />
  </g>
</svg>
