<?xml version="1.0" encoding="UTF-8" standalone="no"?>
<!-- Created with Inkscape (http://www.inkscape.org/) -->

<svg
   xmlns:dc="http://purl.org/dc/elements/1.1/"
   xmlns:cc="http://creativecommons.org/ns#"
   xmlns:rdf="http://www.w3.org/1999/02/22-rdf-syntax-ns#"
   xmlns:svg="http://www.w3.org/2000/svg"
   xmlns="http://www.w3.org/2000/svg"
   xmlns:sodipodi="http://sodipodi.sourceforge.net/DTD/sodipodi-0.dtd"
   xmlns:inkscape="http://www.inkscape.org/namespaces/inkscape"
   width="744.09448819"
   height="1052.3622047"
   id="svg2"
   version="1.1"
   inkscape:version="0.48.4 r9939"
   sodipodi:docname="Новый документ 1">
  <defs
     id="defs4" />
  <sodipodi:namedview
     id="base"
     pagecolor="#ffffff"
     bordercolor="#666666"
     borderopacity="1.0"
     inkscape:pageopacity="0.0"
     inkscape:pageshadow="2"
     inkscape:zoom="0.35"
     inkscape:cx="375"
     inkscape:cy="520"
     inkscape:document-units="px"
     inkscape:current-layer="layer1"
     showgrid="false"
     inkscape:window-width="632"
     inkscape:window-height="442"
     inkscape:window-x="192"
     inkscape:window-y="192"
     inkscape:window-maximized="0" />
  <metadata
     id="metadata7">
    <rdf:RDF>
      <cc:Work
         rdf:about="">
        <dc:format>image/svg+xml</dc:format>
        <dc:type
           rdf:resource="http://purl.org/dc/dcmitype/StillImage" />
        <dc:title></dc:title>
      </cc:Work>
    </rdf:RDF>
  </metadata>
  <g
     inkscape:label="Layer 1"
     inkscape:groupmode="layer"
     id="layer1">
    <g
       transform="translate(-817.85717,508.57141)"
       id="g3118">
      <g
         transform="matrix(0.55555557,0,0,0.55223885,1129.3651,-450.60545)"
         id="g3215">
        <path
           style="fill:#7f2aff;fill-opacity:1;stroke:none"
           d="m 300,918.07645 c 0,36.293 -30.06088,65.71429 -67.14286,65.71429 -37.08197,0 -67.14286,-29.42129 -67.14286,-65.71429 0,-36.29299 30.06089,-65.71428 67.14286,-65.71428 37.08198,0 67.14286,29.42129 67.14286,65.71428 z"
           id="path3180"
           inkscape:connector-curvature="0" />
        <path
           inkscape:connector-curvature="0"
           style="fill:#7f2aff;fill-opacity:1;stroke:none"
           d="m 358.57143,906.64789 c 0,36.293 -30.06088,65.71429 -67.14286,65.71429 -37.08197,0 -67.14286,-29.42129 -67.14286,-65.71429 0,-36.29299 30.06089,-65.71428 67.14286,-65.71428 37.08198,0 67.14286,29.42129 67.14286,65.71428 z"
           id="path3180-7" />
        <path
           inkscape:connector-curvature="0"
           style="fill:#7f2aff;fill-opacity:1;stroke:none"
           d="m 335.71429,966.64789 c 0,36.29301 -30.06088,65.71431 -67.14286,65.71431 -37.08197,0 -67.14286,-29.4213 -67.14286,-65.71431 0,-36.29299 30.06089,-65.71428 67.14286,-65.71428 37.08198,0 67.14286,29.42129 67.14286,65.71428 z"
           id="path3180-1" />
        <path
           inkscape:connector-curvature="0"
           style="fill:#ffff00;fill-opacity:1;stroke:none"
           d="m 304.28572,928.07646 c 0,21.30242 -16.62943,38.57144 -37.14286,38.57144 C 246.62943,966.6479 230,949.37888 230,928.07646 c 0,-21.3024 16.62943,-38.57142 37.14286,-38.57142 20.51343,0 37.14286,17.26902 37.14286,38.57142 z"
           id="path3180-15" />
      </g>
    </g>
  </g>
</svg>
