<?xml version="1.0" encoding="UTF-8" standalone="no"?>
<svg
   xmlns:osb="http://www.openswatchbook.org/uri/2009/osb"
   xmlns:dc="http://purl.org/dc/elements/1.1/"
   xmlns:cc="http://creativecommons.org/ns#"
   xmlns:rdf="http://www.w3.org/1999/02/22-rdf-syntax-ns#"
   xmlns:svg="http://www.w3.org/2000/svg"
   xmlns="http://www.w3.org/2000/svg"
   xmlns:xlink="http://www.w3.org/1999/xlink"
   xmlns:sodipodi="http://sodipodi.sourceforge.net/DTD/sodipodi-0.dtd"
   xmlns:inkscape="http://www.inkscape.org/namespaces/inkscape"
   version="1.0"
   width="514.59998"
   height="514.59998"
   viewBox="0 0 411.67999 411.67999"
   preserveAspectRatio="xMidYMid meet"
   id="svg2"
   inkscape:version="0.48.4 r9939"
   sodipodi:docname="neg_fox.svg">
  <defs
     id="defs12">
    <linearGradient
       inkscape:collect="always"
       id="linearGradient6112">
      <stop
         style="stop-color:#44aa00;stop-opacity:1;"
         offset="0"
         id="stop6114" />
      <stop
         style="stop-color:#44aa00;stop-opacity:0;"
         offset="1"
         id="stop6116" />
    </linearGradient>
    <linearGradient
       id="linearGradient6090"
       osb:paint="solid">
      <stop
         style="stop-color:#00ff00;stop-opacity:1;"
         offset="0"
         id="stop6092" />
    </linearGradient>
    <linearGradient
       inkscape:collect="always"
       id="linearGradient4472">
      <stop
         style="stop-color:#00ff00;stop-opacity:1;"
         offset="0"
         id="stop4474" />
      <stop
         style="stop-color:#00ff00;stop-opacity:0;"
         offset="1"
         id="stop4476" />
    </linearGradient>
    <linearGradient
       inkscape:collect="always"
       id="linearGradient4288">
      <stop
         style="stop-color:#aa0000;stop-opacity:1;"
         offset="0"
         id="stop4290" />
      <stop
         style="stop-color:#aa0000;stop-opacity:0;"
         offset="1"
         id="stop4292" />
    </linearGradient>
    <linearGradient
       inkscape:collect="always"
       id="linearGradient4190">
      <stop
         style="stop-color:#2ad4ff;stop-opacity:1;"
         offset="0"
         id="stop4192" />
      <stop
         style="stop-color:#2ad4ff;stop-opacity:0;"
         offset="1"
         id="stop4194" />
    </linearGradient>
    <linearGradient
       inkscape:collect="always"
       id="linearGradient3840">
      <stop
         style="stop-color:#006680;stop-opacity:1;"
         offset="0"
         id="stop3842" />
      <stop
         style="stop-color:#006680;stop-opacity:0;"
         offset="1"
         id="stop3844" />
    </linearGradient>
    <linearGradient
       inkscape:collect="always"
       xlink:href="#linearGradient3840"
       id="linearGradient3850"
       x1="-2.4128326e-009"
       y1="175.11014"
       x2="324.62027"
       y2="175.11014"
       gradientUnits="userSpaceOnUse" />
    <linearGradient
       inkscape:collect="always"
       xlink:href="#linearGradient3840"
       id="linearGradient3906"
       gradientUnits="userSpaceOnUse"
       x1="-2.4128326e-009"
       y1="175.11014"
       x2="324.62027"
       y2="175.11014" />
    <linearGradient
       inkscape:collect="always"
       xlink:href="#linearGradient3840"
       id="linearGradient3924"
       gradientUnits="userSpaceOnUse"
       x1="-2.4128326e-009"
       y1="175.11014"
       x2="324.62027"
       y2="175.11014" />
    <linearGradient
       inkscape:collect="always"
       xlink:href="#linearGradient3840"
       id="linearGradient3926"
       gradientUnits="userSpaceOnUse"
       x1="-2.4128326e-009"
       y1="175.11014"
       x2="324.62027"
       y2="175.11014" />
    <linearGradient
       inkscape:collect="always"
       xlink:href="#linearGradient3840"
       id="linearGradient4006"
       gradientUnits="userSpaceOnUse"
       x1="-2.4128326e-009"
       y1="175.11014"
       x2="324.62027"
       y2="175.11014" />
    <linearGradient
       inkscape:collect="always"
       xlink:href="#linearGradient3840"
       id="linearGradient4008"
       gradientUnits="userSpaceOnUse"
       x1="-2.4128326e-009"
       y1="175.11014"
       x2="324.62027"
       y2="175.11014" />
    <linearGradient
       inkscape:collect="always"
       xlink:href="#linearGradient3840"
       id="linearGradient4010"
       gradientUnits="userSpaceOnUse"
       x1="-2.4128326e-009"
       y1="175.11014"
       x2="324.62027"
       y2="175.11014" />
    <linearGradient
       inkscape:collect="always"
       xlink:href="#linearGradient3840"
       id="linearGradient4012"
       gradientUnits="userSpaceOnUse"
       x1="-2.4128326e-009"
       y1="175.11014"
       x2="324.62027"
       y2="175.11014" />
    <linearGradient
       inkscape:collect="always"
       xlink:href="#linearGradient3840"
       id="linearGradient4014"
       gradientUnits="userSpaceOnUse"
       x1="-2.4128326e-009"
       y1="175.11014"
       x2="324.62027"
       y2="175.11014" />
    <linearGradient
       inkscape:collect="always"
       xlink:href="#linearGradient3840"
       id="linearGradient4016"
       gradientUnits="userSpaceOnUse"
       x1="-2.4128326e-009"
       y1="175.11014"
       x2="324.62027"
       y2="175.11014" />
    <linearGradient
       inkscape:collect="always"
       xlink:href="#linearGradient3840"
       id="linearGradient4018"
       gradientUnits="userSpaceOnUse"
       x1="-2.4128326e-009"
       y1="175.11014"
       x2="324.62027"
       y2="175.11014" />
    <linearGradient
       inkscape:collect="always"
       xlink:href="#linearGradient3840"
       id="linearGradient4020"
       gradientUnits="userSpaceOnUse"
       x1="-2.4128326e-009"
       y1="175.11014"
       x2="324.62027"
       y2="175.11014" />
    <linearGradient
       inkscape:collect="always"
       xlink:href="#linearGradient3840"
       id="linearGradient4022"
       gradientUnits="userSpaceOnUse"
       x1="-2.4128326e-009"
       y1="175.11014"
       x2="324.62027"
       y2="175.11014" />
    <linearGradient
       inkscape:collect="always"
       xlink:href="#linearGradient3840"
       id="linearGradient4024"
       gradientUnits="userSpaceOnUse"
       x1="-2.4128326e-009"
       y1="175.11014"
       x2="324.62027"
       y2="175.11014" />
    <linearGradient
       inkscape:collect="always"
       xlink:href="#linearGradient3840"
       id="linearGradient4026"
       gradientUnits="userSpaceOnUse"
       x1="-2.4128326e-009"
       y1="175.11014"
       x2="324.62027"
       y2="175.11014" />
    <linearGradient
       inkscape:collect="always"
       xlink:href="#linearGradient3840"
       id="linearGradient4028"
       gradientUnits="userSpaceOnUse"
       x1="-2.4128326e-009"
       y1="175.11014"
       x2="324.62027"
       y2="175.11014" />
    <linearGradient
       inkscape:collect="always"
       xlink:href="#linearGradient3840"
       id="linearGradient4030"
       gradientUnits="userSpaceOnUse"
       x1="-2.4128326e-009"
       y1="175.11014"
       x2="324.62027"
       y2="175.11014" />
    <linearGradient
       inkscape:collect="always"
       xlink:href="#linearGradient3840"
       id="linearGradient4032"
       gradientUnits="userSpaceOnUse"
       x1="-2.4128326e-009"
       y1="175.11014"
       x2="324.62027"
       y2="175.11014" />
    <linearGradient
       inkscape:collect="always"
       xlink:href="#linearGradient3840"
       id="linearGradient4034"
       gradientUnits="userSpaceOnUse"
       x1="-2.4128326e-009"
       y1="175.11014"
       x2="324.62027"
       y2="175.11014" />
    <linearGradient
       inkscape:collect="always"
       xlink:href="#linearGradient3840"
       id="linearGradient4036"
       gradientUnits="userSpaceOnUse"
       x1="-2.4128326e-009"
       y1="175.11014"
       x2="324.62027"
       y2="175.11014" />
    <linearGradient
       inkscape:collect="always"
       xlink:href="#linearGradient3840"
       id="linearGradient4038"
       gradientUnits="userSpaceOnUse"
       x1="-2.4128326e-009"
       y1="175.11014"
       x2="324.62027"
       y2="175.11014" />
    <linearGradient
       inkscape:collect="always"
       xlink:href="#linearGradient3840"
       id="linearGradient4040"
       gradientUnits="userSpaceOnUse"
       x1="-2.4128326e-009"
       y1="175.11014"
       x2="324.62027"
       y2="175.11014" />
    <linearGradient
       inkscape:collect="always"
       xlink:href="#linearGradient3840"
       id="linearGradient4042"
       gradientUnits="userSpaceOnUse"
       x1="-2.4128326e-009"
       y1="175.11014"
       x2="324.62027"
       y2="175.11014" />
    <linearGradient
       inkscape:collect="always"
       xlink:href="#linearGradient3840"
       id="linearGradient4060"
       gradientUnits="userSpaceOnUse"
       x1="-2.4128326e-009"
       y1="175.11014"
       x2="324.62027"
       y2="175.11014" />
    <linearGradient
       inkscape:collect="always"
       xlink:href="#linearGradient3840"
       id="linearGradient4078"
       gradientUnits="userSpaceOnUse"
       x1="-2.4128326e-009"
       y1="175.11014"
       x2="324.62027"
       y2="175.11014" />
    <linearGradient
       inkscape:collect="always"
       xlink:href="#linearGradient3840"
       id="linearGradient4080"
       gradientUnits="userSpaceOnUse"
       x1="-2.4128326e-009"
       y1="175.11014"
       x2="324.62027"
       y2="175.11014" />
    <linearGradient
       inkscape:collect="always"
       xlink:href="#linearGradient4190"
       id="linearGradient4200"
       x1="-2.4128326e-009"
       y1="175.11014"
       x2="324.62027"
       y2="175.11014"
       gradientUnits="userSpaceOnUse" />
    <linearGradient
       inkscape:collect="always"
       xlink:href="#linearGradient4190"
       id="linearGradient4218"
       gradientUnits="userSpaceOnUse"
       x1="-2.4128326e-009"
       y1="175.11014"
       x2="324.62027"
       y2="175.11014" />
    <linearGradient
       inkscape:collect="always"
       xlink:href="#linearGradient4190"
       id="linearGradient4236"
       gradientUnits="userSpaceOnUse"
       x1="-2.4128326e-009"
       y1="175.11014"
       x2="324.62027"
       y2="175.11014" />
    <linearGradient
       inkscape:collect="always"
       xlink:href="#linearGradient4190"
       id="linearGradient4258"
       x1="29.644075"
       y1="212.25601"
       x2="354.26437"
       y2="212.25601"
       gradientUnits="userSpaceOnUse" />
    <linearGradient
       inkscape:collect="always"
       xlink:href="#linearGradient4288"
       id="linearGradient4294"
       x1="-2.4128326e-009"
       y1="175.11014"
       x2="324.62028"
       y2="175.11014"
       gradientUnits="userSpaceOnUse" />
    <linearGradient
       inkscape:collect="always"
       xlink:href="#linearGradient4288"
       id="linearGradient4398"
       gradientUnits="userSpaceOnUse"
       x1="-2.4128326e-009"
       y1="175.11014"
       x2="324.62028"
       y2="175.11014" />
    <linearGradient
       inkscape:collect="always"
       xlink:href="#linearGradient4288"
       id="linearGradient4416"
       gradientUnits="userSpaceOnUse"
       x1="-2.4128326e-009"
       y1="175.11014"
       x2="324.62028"
       y2="175.11014" />
    <linearGradient
       inkscape:collect="always"
       xlink:href="#linearGradient4288"
       id="linearGradient4418"
       gradientUnits="userSpaceOnUse"
       x1="-2.4128326e-009"
       y1="175.11014"
       x2="324.62028"
       y2="175.11014" />
    <linearGradient
       inkscape:collect="always"
       xlink:href="#linearGradient4472"
       id="linearGradient4572"
       gradientUnits="userSpaceOnUse"
       x1="-2.4128326e-009"
       y1="175.11014"
       x2="324.62028"
       y2="175.11014" />
    <linearGradient
       inkscape:collect="always"
       xlink:href="#linearGradient4472"
       id="linearGradient4590"
       gradientUnits="userSpaceOnUse"
       x1="-2.4128326e-009"
       y1="175.11014"
       x2="324.62028"
       y2="175.11014" />
    <linearGradient
       inkscape:collect="always"
       xlink:href="#linearGradient4472"
       id="linearGradient4592"
       gradientUnits="userSpaceOnUse"
       x1="-2.4128326e-009"
       y1="175.11014"
       x2="324.62028"
       y2="175.11014" />
    <linearGradient
       inkscape:collect="always"
       xlink:href="#linearGradient4472"
       id="linearGradient4628"
       gradientUnits="userSpaceOnUse"
       x1="-2.4128326e-009"
       y1="175.11014"
       x2="324.62028"
       y2="175.11014" />
    <linearGradient
       inkscape:collect="always"
       xlink:href="#linearGradient6090"
       id="linearGradient6094"
       x1="-407.69318"
       y1="664.52977"
       x2="-283.48156"
       y2="664.52977"
       gradientUnits="userSpaceOnUse" />
    <linearGradient
       inkscape:collect="always"
       xlink:href="#linearGradient6112"
       id="linearGradient6118"
       x1="-2.4128326e-009"
       y1="175.11014"
       x2="324.62028"
       y2="175.11014"
       gradientUnits="userSpaceOnUse" />
    <linearGradient
       inkscape:collect="always"
       xlink:href="#linearGradient6112"
       id="linearGradient6142"
       gradientUnits="userSpaceOnUse"
       x1="-2.4128326e-009"
       y1="175.11014"
       x2="324.62028"
       y2="175.11014" />
    <linearGradient
       inkscape:collect="always"
       xlink:href="#linearGradient6112"
       id="linearGradient6144"
       gradientUnits="userSpaceOnUse"
       x1="-2.4128326e-009"
       y1="175.11014"
       x2="324.62028"
       y2="175.11014" />
    <linearGradient
       inkscape:collect="always"
       xlink:href="#linearGradient6112"
       id="linearGradient6146"
       gradientUnits="userSpaceOnUse"
       x1="-2.4128326e-009"
       y1="175.11014"
       x2="324.62028"
       y2="175.11014" />
    <linearGradient
       inkscape:collect="always"
       xlink:href="#linearGradient6112"
       id="linearGradient6148"
       gradientUnits="userSpaceOnUse"
       x1="-2.4128326e-009"
       y1="175.11014"
       x2="324.62028"
       y2="175.11014" />
    <linearGradient
       inkscape:collect="always"
       xlink:href="#linearGradient6112"
       id="linearGradient6150"
       gradientUnits="userSpaceOnUse"
       x1="-2.4128326e-009"
       y1="175.11014"
       x2="324.62028"
       y2="175.11014" />
    <linearGradient
       inkscape:collect="always"
       xlink:href="#linearGradient6112"
       id="linearGradient6152"
       gradientUnits="userSpaceOnUse"
       x1="-2.4128326e-009"
       y1="175.11014"
       x2="324.62028"
       y2="175.11014" />
    <linearGradient
       inkscape:collect="always"
       xlink:href="#linearGradient6112"
       id="linearGradient6154"
       gradientUnits="userSpaceOnUse"
       x1="-2.4128326e-009"
       y1="175.11014"
       x2="324.62028"
       y2="175.11014" />
    <linearGradient
       inkscape:collect="always"
       xlink:href="#linearGradient6112"
       id="linearGradient6156"
       gradientUnits="userSpaceOnUse"
       x1="-2.4128326e-009"
       y1="175.11014"
       x2="324.62028"
       y2="175.11014" />
    <linearGradient
       inkscape:collect="always"
       xlink:href="#linearGradient6112"
       id="linearGradient6158"
       gradientUnits="userSpaceOnUse"
       x1="-2.4128326e-009"
       y1="175.11014"
       x2="324.62028"
       y2="175.11014" />
    <linearGradient
       inkscape:collect="always"
       xlink:href="#linearGradient6112"
       id="linearGradient6160"
       gradientUnits="userSpaceOnUse"
       x1="-2.4128326e-009"
       y1="175.11014"
       x2="324.62028"
       y2="175.11014" />
    <linearGradient
       inkscape:collect="always"
       xlink:href="#linearGradient6112"
       id="linearGradient6162"
       gradientUnits="userSpaceOnUse"
       x1="-2.4128326e-009"
       y1="175.11014"
       x2="324.62028"
       y2="175.11014" />
    <linearGradient
       inkscape:collect="always"
       xlink:href="#linearGradient6112"
       id="linearGradient6164"
       gradientUnits="userSpaceOnUse"
       x1="-2.4128326e-009"
       y1="175.11014"
       x2="324.62028"
       y2="175.11014" />
    <linearGradient
       inkscape:collect="always"
       xlink:href="#linearGradient6112"
       id="linearGradient6166"
       gradientUnits="userSpaceOnUse"
       x1="-2.4128326e-009"
       y1="175.11014"
       x2="324.62028"
       y2="175.11014" />
    <linearGradient
       inkscape:collect="always"
       xlink:href="#linearGradient6112"
       id="linearGradient6168"
       gradientUnits="userSpaceOnUse"
       x1="-2.4128326e-009"
       y1="175.11014"
       x2="324.62028"
       y2="175.11014" />
    <linearGradient
       inkscape:collect="always"
       xlink:href="#linearGradient6112"
       id="linearGradient6170"
       gradientUnits="userSpaceOnUse"
       x1="-2.4128326e-009"
       y1="175.11014"
       x2="324.62028"
       y2="175.11014" />
    <linearGradient
       inkscape:collect="always"
       xlink:href="#linearGradient6112"
       id="linearGradient6172"
       gradientUnits="userSpaceOnUse"
       x1="-2.4128326e-009"
       y1="175.11014"
       x2="324.62028"
       y2="175.11014" />
    <linearGradient
       inkscape:collect="always"
       xlink:href="#linearGradient6112"
       id="linearGradient6174"
       gradientUnits="userSpaceOnUse"
       x1="-2.4128326e-009"
       y1="175.11014"
       x2="324.62028"
       y2="175.11014" />
    <linearGradient
       inkscape:collect="always"
       xlink:href="#linearGradient6112"
       id="linearGradient6176"
       gradientUnits="userSpaceOnUse"
       x1="-2.4128326e-009"
       y1="175.11014"
       x2="324.62028"
       y2="175.11014" />
    <linearGradient
       inkscape:collect="always"
       xlink:href="#linearGradient6112"
       id="linearGradient6178"
       gradientUnits="userSpaceOnUse"
       x1="-2.4128326e-009"
       y1="175.11014"
       x2="324.62028"
       y2="175.11014" />
  </defs>
  <sodipodi:namedview
     pagecolor="#ffffff"
     bordercolor="#666666"
     borderopacity="1"
     objecttolerance="10"
     gridtolerance="10"
     guidetolerance="10"
     inkscape:pageopacity="0"
     inkscape:pageshadow="2"
     inkscape:window-width="1920"
     inkscape:window-height="1017"
     id="namedview10"
     showgrid="false"
     inkscape:zoom="0.44500587"
     inkscape:cx="-44.107529"
     inkscape:cy="5.3668349"
     inkscape:window-x="-8"
     inkscape:window-y="-8"
     inkscape:window-maximized="1"
     inkscape:current-layer="svg2"
     fit-margin-top="0"
     fit-margin-left="0"
     fit-margin-right="0"
     fit-margin-bottom="0" />
  <metadata
     id="metadata4">
Created by potrace 1.11, written by Peter Selinger 2001-2013
<rdf:RDF>
  <cc:Work
     rdf:about="">
    <dc:format>image/svg+xml</dc:format>
    <dc:type
       rdf:resource="http://purl.org/dc/dcmitype/StillImage" />
    <dc:title></dc:title>
  </cc:Work>
</rdf:RDF>
</metadata>
  <g
     id="g4296">
    <path
       transform="matrix(0.80000003,0,0,0.80000003,35.954591,22.12512)"
       d="m 469.65674,229.64359 a 257.29999,257.29999 0 1 1 -514.599977,0 257.29999,257.29999 0 1 1 514.599977,0 z"
       sodipodi:ry="257.29999"
       sodipodi:rx="257.29999"
       sodipodi:cy="229.64359"
       sodipodi:cx="212.35675"
       id="path3062"
       style="fill:#000000;fill-opacity:1;fill-rule:nonzero;stroke:none"
       sodipodi:type="arc" />
    <g
       style="fill:url(#linearGradient4294);fill-opacity:1"
       transform="matrix(-0.35681414,-0.92420063,-0.86347615,0.38190731,411.23166,287.27017)"
       id="g3042">
      <g
         style="fill:url(#linearGradient4294);fill-opacity:1"
         id="g3014"
         transform="translate(-29.644075,-37.145872)">
        <path
           d="m 250.44407,264.71371 c -3,-0.5 -9.3,-2.7 -13.9,-5 -18.4,-9.1 -29.3,-26.7 -29.3,-47.4 0,-20.1 10.5,-37.6 28,-46.8 17.2,-9.1 30.7,-8.7 73.6,1.9 20.9,5.1 31.50001,6.2 39.60001,4.1 3,-0.9 5.7,-1.4 5.8,-1.2 0.2,0.2 -1.1,3.4 -3,7.2 -4,8.2 -12.90001,17.9 -19.70001,21.7 -13.8,7.4 -31.7,6.9 -48.1,-1.4 -4.7,-2.4 -14.7,-9.7 -16.9,-12.4 -2.1,-2.6 -5.1,-1.9 -10.1,2.3 -6.7,5.7 -16.8,11.9 -21.3,13.3 -3.7,1.1 -3.9,1.3 -3.4,4.7 0.3,2 1.6,10.5 2.8,18.9 1.7,11.3 2.6,15.6 3.8,16 1,0.4 3.4,-1.5 7.1,-5.6 6.5,-7 8.9,-8.2 16.5,-8.2 7.5,0 9.4,1 16.9,8.6 4.5,4.6 6.9,6.5 7.6,5.8 0.6,-0.6 1.9,-4.3 3,-8.3 3.8,-13.6 8.4,-20.1 14.3,-20.1 4.3,0 5.8,1.8 6.5,7.5 1,9 -6.6,25.8 -15.2,33.3 -10.7,9.4 -28.2,13.7 -44.6,11.1 z m 86.1,-74.6 c 3.4,-3.1 9.90001,-11.3 9.90001,-12.5 0,-0.2 -5.2,-0.3 -11.40001,-0.3 l -11.5,0 2.5,2.6 c 3.3,3.5 4.3,9.9 2,13.3 -0.9,1.4 -1.6,2.8 -1.6,3.1 0,1.1 6.2,-2.7 10.1,-6.2 z"
           id="path8"
           inkscape:connector-curvature="0"
           style="fill:url(#linearGradient4294);fill-opacity:1;stroke:none" />
        <path
           style="fill:url(#linearGradient4294);fill-opacity:1;stroke:none"
           inkscape:connector-curvature="0"
           id="path2982"
           d="m 133.46435,159.79831 c 3,0.5 9.3,2.7 13.9,5 18.4,9.1 29.3,26.7 29.3,47.4 0,20.1 -10.5,37.6 -28,46.8 -17.2,9.1 -30.7,8.7 -73.6,-1.9 -20.9,-5.1 -31.5,-6.2 -39.6,-4.1 -3,0.9 -5.7,1.4 -5.8,1.2 -0.2,-0.2 1.1,-3.4 3,-7.2 4,-8.2 12.9,-17.9 19.7,-21.7 13.8,-7.4 31.7,-6.9 48.1,1.4 4.7,2.4 14.7,9.7 16.9,12.4 2.1,2.6 5.1,1.9 10.1,-2.3 6.7,-5.7 16.8,-11.9 21.3,-13.3 3.7,-1.1 3.9,-1.3 3.4,-4.7 -0.3,-2 -1.6,-10.5 -2.8,-18.9 -1.7,-11.3 -2.6,-15.6 -3.8,-16 -1,-0.4 -3.4,1.5 -7.1,5.6 -6.5,7 -8.9,8.2 -16.5,8.2 -7.5,0 -9.4,-1 -16.9,-8.6 -4.5,-4.6 -6.9,-6.5 -7.6,-5.8 -0.6,0.6 -1.9,4.3 -3,8.3 -3.8,13.6 -8.4,20.1 -14.3,20.1 -4.3,0 -5.8,-1.8 -6.5,-7.5 -1,-9 6.6,-25.8 15.2,-33.3 10.7,-9.4 28.2,-13.7 44.6,-11.1 z m -86.1,74.6 c -3.4,3.1 -9.9,11.3 -9.9,12.5 0,0.2 5.2,0.3 11.4,0.3 l 11.5,0 -2.5,-2.6 c -3.3,-3.5 -4.3,-9.9 -2,-13.3 0.9,-1.4 1.6,-2.8 1.6,-3.1 0,-1.1 -6.2,2.7 -10.1,6.2 z" />
        <path
           style="fill:url(#linearGradient4294);fill-opacity:1;stroke:none"
           inkscape:connector-curvature="0"
           id="path2998"
           d="m 139.49652,283.54587 c 0.5,-3 2.7,-9.3 5,-13.9 9.1,-18.4 26.7,-29.3 47.4,-29.3 20.1,0 37.6,10.5 46.8,28 9.1,17.2 8.7,30.7 -1.9,73.6 -5.1,20.9 -6.2,31.50001 -4.1,39.60001 0.9,3 1.4,5.7 1.2,5.8 -0.2,0.2 -3.4,-1.1 -7.2,-3 -8.2,-4 -17.9,-12.90001 -21.7,-19.70001 -7.4,-13.8 -6.9,-31.7 1.4,-48.1 2.4,-4.7 9.7,-14.7 12.4,-16.9 2.6,-2.1 1.9,-5.1 -2.3,-10.1 -5.7,-6.7 -11.9,-16.8 -13.3,-21.3 -1.1,-3.7 -1.3,-3.9 -4.7,-3.4 -2,0.3 -10.5,1.6 -18.9,2.8 -11.3,1.7 -15.6,2.6 -16,3.8 -0.4,1 1.5,3.4 5.6,7.1 7,6.5 8.2,8.9 8.2,16.5 0,7.5 -1,9.4 -8.6,16.9 -4.6,4.5 -6.5,6.9 -5.8,7.6 0.6,0.6 4.3,1.9 8.3,3 13.6,3.8 20.1,8.4 20.1,14.3 0,4.3 -1.8,5.8 -7.5,6.5 -9,1 -25.8,-6.6 -33.3,-15.2 -9.4,-10.7 -13.7,-28.2 -11.1,-44.6 z m 74.6,86.1 c 3.1,3.4 11.3,9.90001 12.5,9.90001 0.2,0 0.3,-5.2 0.3,-11.40001 l 0,-11.5 -2.6,2.5 c -3.5,3.3 -9.9,4.3 -13.3,2 -1.4,-0.9 -2.8,-1.6 -3.1,-1.6 -1.1,0 2.7,6.2 6.2,10.1 z" />
        <path
           d="m 244.41192,140.96615 c -0.5,3 -2.7,9.3 -5,13.9 -9.1,18.4 -26.7,29.3 -47.4,29.3 -20.1,0 -37.6,-10.5 -46.8,-28 -9.1,-17.2 -8.7,-30.7 1.9,-73.6 5.1,-20.900003 6.2,-31.500003 4.1,-39.600003 -0.9,-3 -1.4,-5.7 -1.2,-5.8 0.2,-0.2 3.4,1.1 7.2,3 8.2,4 17.9,12.9 21.7,19.7 7.4,13.8 6.9,31.700003 -1.4,48.100003 -2.4,4.7 -9.7,14.7 -12.4,16.9 -2.6,2.1 -1.9,5.1 2.3,10.1 5.7,6.7 11.9,16.8 13.3,21.3 1.1,3.7 1.3,3.9 4.7,3.4 2,-0.3 10.5,-1.6 18.9,-2.8 11.3,-1.7 15.6,-2.6 16,-3.8 0.4,-1 -1.5,-3.4 -5.6,-7.1 -7,-6.5 -8.2,-8.9 -8.2,-16.5 0,-7.5 1,-9.4 8.6,-16.9 4.6,-4.5 6.5,-6.9 5.8,-7.6 -0.6,-0.6 -4.3,-1.9 -8.3,-3 -13.6,-3.8 -20.1,-8.4 -20.1,-14.3 0,-4.3 1.8,-5.800003 7.5,-6.500003 9,-1 25.8,6.600003 33.3,15.200003 9.4,10.7 13.7,28.2 11.1,44.6 z m -74.6,-86.100003 c -3.1,-3.4 -11.3,-9.9 -12.5,-9.9 -0.2,0 -0.3,5.2 -0.3,11.4 l 0,11.5 2.6,-2.5 c 3.5,-3.3 9.9,-4.3 13.3,-2 1.4,0.9 2.8,1.6 3.1,1.6 1.1,0 -2.7,-6.2 -6.2,-10.1 z"
           id="path3000"
           inkscape:connector-curvature="0"
           style="fill:url(#linearGradient4294);fill-opacity:1;stroke:none" />
        <path
           style="fill:url(#linearGradient4294);fill-opacity:1;stroke:none"
           inkscape:connector-curvature="0"
           id="path3006"
           d="m 250.44407,159.79831 c -3,0.5 -9.3,2.7 -13.9,5 -18.4,9.1 -29.3,26.7 -29.3,47.4 0,20.1 10.5,37.6 28,46.8 17.2,9.1 30.7,8.7 73.6,-1.9 20.9,-5.1 31.50001,-6.2 39.60001,-4.1 3,0.9 5.7,1.4 5.8,1.2 0.2,-0.2 -1.1,-3.4 -3,-7.2 -4,-8.2 -12.90001,-17.9 -19.70001,-21.7 -13.8,-7.4 -31.7,-6.9 -48.1,1.4 -4.7,2.4 -14.7,9.7 -16.9,12.4 -2.1,2.6 -5.1,1.9 -10.1,-2.3 -6.7,-5.7 -16.8,-11.9 -21.3,-13.3 -3.7,-1.1 -3.9,-1.3 -3.4,-4.7 0.3,-2 1.6,-10.5 2.8,-18.9 1.7,-11.3 2.6,-15.6 3.8,-16 1,-0.4 3.4,1.5 7.1,5.6 6.5,7 8.9,8.2 16.5,8.2 7.5,0 9.4,-1 16.9,-8.6 4.5,-4.6 6.9,-6.5 7.6,-5.8 0.6,0.6 1.9,4.3 3,8.3 3.8,13.6 8.4,20.1 14.3,20.1 4.3,0 5.8,-1.8 6.5,-7.5 1,-9 -6.6,-25.8 -15.2,-33.3 -10.7,-9.4 -28.2,-13.7 -44.6,-11.1 z m 86.1,74.6 c 3.4,3.1 9.90001,11.3 9.90001,12.5 0,0.2 -5.2,0.3 -11.40001,0.3 l -11.5,0 2.5,-2.6 c 3.3,-3.5 4.3,-9.9 2,-13.3 -0.9,-1.4 -1.6,-2.8 -1.6,-3.1 0,-1.1 6.2,2.7 10.1,6.2 z" />
        <path
           d="m 133.46435,264.71371 c 3,-0.5 9.3,-2.7 13.9,-5 18.4,-9.1 29.3,-26.7 29.3,-47.4 0,-20.1 -10.5,-37.6 -28,-46.8 -17.2,-9.1 -30.7,-8.7 -73.6,1.9 -20.9,5.1 -31.5,6.2 -39.6,4.1 -3,-0.9 -5.7,-1.4 -5.8,-1.2 -0.2,0.2 1.1,3.4 3,7.2 4,8.2 12.9,17.9 19.7,21.7 13.8,7.4 31.7,6.9 48.1,-1.4 4.7,-2.4 14.7,-9.7 16.9,-12.4 2.1,-2.6 5.1,-1.9 10.1,2.3 6.7,5.7 16.8,11.9 21.3,13.3 3.7,1.1 3.9,1.3 3.4,4.7 -0.3,2 -1.6,10.5 -2.8,18.9 -1.7,11.3 -2.6,15.6 -3.8,16 -1,0.4 -3.4,-1.5 -7.1,-5.6 -6.5,-7 -8.9,-8.2 -16.5,-8.2 -7.5,0 -9.4,1 -16.9,8.6 -4.5,4.6 -6.9,6.5 -7.6,5.8 -0.6,-0.6 -1.9,-4.3 -3,-8.3 -3.8,-13.6 -8.4,-20.1 -14.3,-20.1 -4.3,0 -5.8,1.8 -6.5,7.5 -1,9 6.6,25.8 15.2,33.3 10.7,9.4 28.2,13.7 44.6,11.1 z m -86.1,-74.6 c -3.4,-3.1 -9.9,-11.3 -9.9,-12.5 0,-0.2 5.2,-0.3 11.4,-0.3 l 11.5,0 -2.5,2.6 c -3.3,3.5 -4.3,9.9 -2,13.3 0.9,1.4 1.6,2.8 1.6,3.1 0,1.1 -6.2,-2.7 -10.1,-6.2 z"
           id="path3008"
           inkscape:connector-curvature="0"
           style="fill:url(#linearGradient4294);fill-opacity:1;stroke:none" />
        <path
           style="fill:url(#linearGradient4294);fill-opacity:1;stroke:none"
           inkscape:connector-curvature="0"
           id="path3010"
           d="m 139.49652,140.96615 c 0.5,3 2.7,9.3 5,13.9 9.1,18.4 26.7,29.3 47.4,29.3 20.1,0 37.6,-10.5 46.8,-28 9.1,-17.2 8.7,-30.7 -1.9,-73.600003 -5.1,-20.9 -6.2,-31.5 -4.1,-39.6 0.9,-3 1.4,-5.7 1.2,-5.8 -0.2,-0.2 -3.4,1.1 -7.2,3 -8.2,4 -17.9,12.9 -21.7,19.7 -7.4,13.8 -6.9,31.7 1.4,48.100003 2.4,4.7 9.7,14.7 12.4,16.9 2.6,2.1 1.9,5.1 -2.3,10.1 -5.7,6.7 -11.9,16.8 -13.3,21.3 -1.1,3.7 -1.3,3.9 -4.7,3.4 -2,-0.3 -10.5,-1.6 -18.9,-2.8 -11.3,-1.7 -15.6,-2.6 -16,-3.8 -0.4,-1 1.5,-3.4 5.6,-7.1 7,-6.5 8.2,-8.9 8.2,-16.5 0,-7.5 -1,-9.4 -8.6,-16.9 -4.6,-4.5 -6.5,-6.9 -5.8,-7.6 0.6,-0.6 4.3,-1.9 8.3,-3 13.6,-3.800003 20.1,-8.400003 20.1,-14.300003 0,-4.3 -1.8,-5.8 -7.5,-6.5 -9,-1 -25.8,6.6 -33.3,15.2 -9.4,10.700003 -13.7,28.200003 -11.1,44.600003 z m 74.6,-86.100003 c 3.1,-3.4 11.3,-9.9 12.5,-9.9 0.2,0 0.3,5.2 0.3,11.4 l 0,11.5 -2.6,-2.5 c -3.5,-3.3 -9.9,-4.3 -13.3,-2 -1.4,0.9 -2.8,1.6 -3.1,1.6 -1.1,0 2.7,-6.2 6.2,-10.1 z" />
        <path
           d="m 244.41192,283.54587 c -0.5,-3 -2.7,-9.3 -5,-13.9 -9.1,-18.4 -26.7,-29.3 -47.4,-29.3 -20.1,0 -37.6,10.5 -46.8,28 -9.1,17.2 -8.7,30.7 1.9,73.6 5.1,20.9 6.2,31.50001 4.1,39.60001 -0.9,3 -1.4,5.7 -1.2,5.8 0.2,0.2 3.4,-1.1 7.2,-3 8.2,-4 17.9,-12.90001 21.7,-19.70001 7.4,-13.8 6.9,-31.7 -1.4,-48.1 -2.4,-4.7 -9.7,-14.7 -12.4,-16.9 -2.6,-2.1 -1.9,-5.1 2.3,-10.1 5.7,-6.7 11.9,-16.8 13.3,-21.3 1.1,-3.7 1.3,-3.9 4.7,-3.4 2,0.3 10.5,1.6 18.9,2.8 11.3,1.7 15.6,2.6 16,3.8 0.4,1 -1.5,3.4 -5.6,7.1 -7,6.5 -8.2,8.9 -8.2,16.5 0,7.5 1,9.4 8.6,16.9 4.6,4.5 6.5,6.9 5.8,7.6 -0.6,0.6 -4.3,1.9 -8.3,3 -13.6,3.8 -20.1,8.4 -20.1,14.3 0,4.3 1.8,5.8 7.5,6.5 9,1 25.8,-6.6 33.3,-15.2 9.4,-10.7 13.7,-28.2 11.1,-44.6 z m -74.6,86.1 c -3.1,3.4 -11.3,9.90001 -12.5,9.90001 -0.2,0 -0.3,-5.2 -0.3,-11.40001 l 0,-11.5 2.6,2.5 c 3.5,3.3 9.9,4.3 13.3,2 1.4,-0.9 2.8,-1.6 3.1,-1.6 1.1,0 -2.7,6.2 -6.2,10.1 z"
           id="path3012"
           inkscape:connector-curvature="0"
           style="fill:url(#linearGradient4294);fill-opacity:1;stroke:none" />
      </g>
      <g
         style="fill:url(#linearGradient4294);fill-opacity:1"
         transform="matrix(0.70840897,-0.70580219,0.70580219,0.70840897,-123.48271,160.22778)"
         id="g3024">
        <path
           style="fill:url(#linearGradient4294);fill-opacity:1;stroke:none"
           inkscape:connector-curvature="0"
           id="path3026"
           d="m 250.44407,264.71371 c -3,-0.5 -9.3,-2.7 -13.9,-5 -18.4,-9.1 -29.3,-26.7 -29.3,-47.4 0,-20.1 10.5,-37.6 28,-46.8 17.2,-9.1 30.7,-8.7 73.6,1.9 20.9,5.1 31.50001,6.2 39.60001,4.1 3,-0.9 5.7,-1.4 5.8,-1.2 0.2,0.2 -1.1,3.4 -3,7.2 -4,8.2 -12.90001,17.9 -19.70001,21.7 -13.8,7.4 -31.7,6.9 -48.1,-1.4 -4.7,-2.4 -14.7,-9.7 -16.9,-12.4 -2.1,-2.6 -5.1,-1.9 -10.1,2.3 -6.7,5.7 -16.8,11.9 -21.3,13.3 -3.7,1.1 -3.9,1.3 -3.4,4.7 0.3,2 1.6,10.5 2.8,18.9 1.7,11.3 2.6,15.6 3.8,16 1,0.4 3.4,-1.5 7.1,-5.6 6.5,-7 8.9,-8.2 16.5,-8.2 7.5,0 9.4,1 16.9,8.6 4.5,4.6 6.9,6.5 7.6,5.8 0.6,-0.6 1.9,-4.3 3,-8.3 3.8,-13.6 8.4,-20.1 14.3,-20.1 4.3,0 5.8,1.8 6.5,7.5 1,9 -6.6,25.8 -15.2,33.3 -10.7,9.4 -28.2,13.7 -44.6,11.1 z m 86.1,-74.6 c 3.4,-3.1 9.90001,-11.3 9.90001,-12.5 0,-0.2 -5.2,-0.3 -11.40001,-0.3 l -11.5,0 2.5,2.6 c 3.3,3.5 4.3,9.9 2,13.3 -0.9,1.4 -1.6,2.8 -1.6,3.1 0,1.1 6.2,-2.7 10.1,-6.2 z" />
        <path
           d="m 133.46435,159.79831 c 3,0.5 9.3,2.7 13.9,5 18.4,9.1 29.3,26.7 29.3,47.4 0,20.1 -10.5,37.6 -28,46.8 -17.2,9.1 -30.7,8.7 -73.6,-1.9 -20.9,-5.1 -31.5,-6.2 -39.6,-4.1 -3,0.9 -5.7,1.4 -5.8,1.2 -0.2,-0.2 1.1,-3.4 3,-7.2 4,-8.2 12.9,-17.9 19.7,-21.7 13.8,-7.4 31.7,-6.9 48.1,1.4 4.7,2.4 14.7,9.7 16.9,12.4 2.1,2.6 5.1,1.9 10.1,-2.3 6.7,-5.7 16.8,-11.9 21.3,-13.3 3.7,-1.1 3.9,-1.3 3.4,-4.7 -0.3,-2 -1.6,-10.5 -2.8,-18.9 -1.7,-11.3 -2.6,-15.6 -3.8,-16 -1,-0.4 -3.4,1.5 -7.1,5.6 -6.5,7 -8.9,8.2 -16.5,8.2 -7.5,0 -9.4,-1 -16.9,-8.6 -4.5,-4.6 -6.9,-6.5 -7.6,-5.8 -0.6,0.6 -1.9,4.3 -3,8.3 -3.8,13.6 -8.4,20.1 -14.3,20.1 -4.3,0 -5.8,-1.8 -6.5,-7.5 -1,-9 6.6,-25.8 15.2,-33.3 10.7,-9.4 28.2,-13.7 44.6,-11.1 z m -86.1,74.6 c -3.4,3.1 -9.9,11.3 -9.9,12.5 0,0.2 5.2,0.3 11.4,0.3 l 11.5,0 -2.5,-2.6 c -3.3,-3.5 -4.3,-9.9 -2,-13.3 0.9,-1.4 1.6,-2.8 1.6,-3.1 0,-1.1 -6.2,2.7 -10.1,6.2 z"
           id="path3028"
           inkscape:connector-curvature="0"
           style="fill:url(#linearGradient4294);fill-opacity:1;stroke:none" />
        <path
           d="m 139.49652,283.54587 c 0.5,-3 2.7,-9.3 5,-13.9 9.1,-18.4 26.7,-29.3 47.4,-29.3 20.1,0 37.6,10.5 46.8,28 9.1,17.2 8.7,30.7 -1.9,73.6 -5.1,20.9 -6.2,31.50001 -4.1,39.60001 0.9,3 1.4,5.7 1.2,5.8 -0.2,0.2 -3.4,-1.1 -7.2,-3 -8.2,-4 -17.9,-12.90001 -21.7,-19.70001 -7.4,-13.8 -6.9,-31.7 1.4,-48.1 2.4,-4.7 9.7,-14.7 12.4,-16.9 2.6,-2.1 1.9,-5.1 -2.3,-10.1 -5.7,-6.7 -11.9,-16.8 -13.3,-21.3 -1.1,-3.7 -1.3,-3.9 -4.7,-3.4 -2,0.3 -10.5,1.6 -18.9,2.8 -11.3,1.7 -15.6,2.6 -16,3.8 -0.4,1 1.5,3.4 5.6,7.1 7,6.5 8.2,8.9 8.2,16.5 0,7.5 -1,9.4 -8.6,16.9 -4.6,4.5 -6.5,6.9 -5.8,7.6 0.6,0.6 4.3,1.9 8.3,3 13.6,3.8 20.1,8.4 20.1,14.3 0,4.3 -1.8,5.8 -7.5,6.5 -9,1 -25.8,-6.6 -33.3,-15.2 -9.4,-10.7 -13.7,-28.2 -11.1,-44.6 z m 74.6,86.1 c 3.1,3.4 11.3,9.90001 12.5,9.90001 0.2,0 0.3,-5.2 0.3,-11.40001 l 0,-11.5 -2.6,2.5 c -3.5,3.3 -9.9,4.3 -13.3,2 -1.4,-0.9 -2.8,-1.6 -3.1,-1.6 -1.1,0 2.7,6.2 6.2,10.1 z"
           id="path3030"
           inkscape:connector-curvature="0"
           style="fill:url(#linearGradient4294);fill-opacity:1;stroke:none" />
        <path
           style="fill:url(#linearGradient4294);fill-opacity:1;stroke:none"
           inkscape:connector-curvature="0"
           id="path3032"
           d="m 244.41192,140.96615 c -0.5,3 -2.7,9.3 -5,13.9 -9.1,18.4 -26.7,29.3 -47.4,29.3 -20.1,0 -37.6,-10.5 -46.8,-28 -9.1,-17.2 -8.7,-30.7 1.9,-73.6 5.1,-20.900003 6.2,-31.500003 4.1,-39.600003 -0.9,-3 -1.4,-5.7 -1.2,-5.8 0.2,-0.2 3.4,1.1 7.2,3 8.2,4 17.9,12.9 21.7,19.7 7.4,13.8 6.9,31.700003 -1.4,48.100003 -2.4,4.7 -9.7,14.7 -12.4,16.9 -2.6,2.1 -1.9,5.1 2.3,10.1 5.7,6.7 11.9,16.8 13.3,21.3 1.1,3.7 1.3,3.9 4.7,3.4 2,-0.3 10.5,-1.6 18.9,-2.8 11.3,-1.7 15.6,-2.6 16,-3.8 0.4,-1 -1.5,-3.4 -5.6,-7.1 -7,-6.5 -8.2,-8.9 -8.2,-16.5 0,-7.5 1,-9.4 8.6,-16.9 4.6,-4.5 6.5,-6.9 5.8,-7.6 -0.6,-0.6 -4.3,-1.9 -8.3,-3 -13.6,-3.8 -20.1,-8.4 -20.1,-14.3 0,-4.3 1.8,-5.800003 7.5,-6.500003 9,-1 25.8,6.600003 33.3,15.200003 9.4,10.7 13.7,28.2 11.1,44.6 z m -74.6,-86.100003 c -3.1,-3.4 -11.3,-9.9 -12.5,-9.9 -0.2,0 -0.3,5.2 -0.3,11.4 l 0,11.5 2.6,-2.5 c 3.5,-3.3 9.9,-4.3 13.3,-2 1.4,0.9 2.8,1.6 3.1,1.6 1.1,0 -2.7,-6.2 -6.2,-10.1 z" />
        <path
           d="m 250.44407,159.79831 c -3,0.5 -9.3,2.7 -13.9,5 -18.4,9.1 -29.3,26.7 -29.3,47.4 0,20.1 10.5,37.6 28,46.8 17.2,9.1 30.7,8.7 73.6,-1.9 20.9,-5.1 31.50001,-6.2 39.60001,-4.1 3,0.9 5.7,1.4 5.8,1.2 0.2,-0.2 -1.1,-3.4 -3,-7.2 -4,-8.2 -12.90001,-17.9 -19.70001,-21.7 -13.8,-7.4 -31.7,-6.9 -48.1,1.4 -4.7,2.4 -14.7,9.7 -16.9,12.4 -2.1,2.6 -5.1,1.9 -10.1,-2.3 -6.7,-5.7 -16.8,-11.9 -21.3,-13.3 -3.7,-1.1 -3.9,-1.3 -3.4,-4.7 0.3,-2 1.6,-10.5 2.8,-18.9 1.7,-11.3 2.6,-15.6 3.8,-16 1,-0.4 3.4,1.5 7.1,5.6 6.5,7 8.9,8.2 16.5,8.2 7.5,0 9.4,-1 16.9,-8.6 4.5,-4.6 6.9,-6.5 7.6,-5.8 0.6,0.6 1.9,4.3 3,8.3 3.8,13.6 8.4,20.1 14.3,20.1 4.3,0 5.8,-1.8 6.5,-7.5 1,-9 -6.6,-25.8 -15.2,-33.3 -10.7,-9.4 -28.2,-13.7 -44.6,-11.1 z m 86.1,74.6 c 3.4,3.1 9.90001,11.3 9.90001,12.5 0,0.2 -5.2,0.3 -11.40001,0.3 l -11.5,0 2.5,-2.6 c 3.3,-3.5 4.3,-9.9 2,-13.3 -0.9,-1.4 -1.6,-2.8 -1.6,-3.1 0,-1.1 6.2,2.7 10.1,6.2 z"
           id="path3034"
           inkscape:connector-curvature="0"
           style="fill:url(#linearGradient4294);fill-opacity:1;stroke:none" />
        <path
           style="fill:url(#linearGradient4294);fill-opacity:1;stroke:none"
           inkscape:connector-curvature="0"
           id="path3036"
           d="m 133.46435,264.71371 c 3,-0.5 9.3,-2.7 13.9,-5 18.4,-9.1 29.3,-26.7 29.3,-47.4 0,-20.1 -10.5,-37.6 -28,-46.8 -17.2,-9.1 -30.7,-8.7 -73.6,1.9 -20.9,5.1 -31.5,6.2 -39.6,4.1 -3,-0.9 -5.7,-1.4 -5.8,-1.2 -0.2,0.2 1.1,3.4 3,7.2 4,8.2 12.9,17.9 19.7,21.7 13.8,7.4 31.7,6.9 48.1,-1.4 4.7,-2.4 14.7,-9.7 16.9,-12.4 2.1,-2.6 5.1,-1.9 10.1,2.3 6.7,5.7 16.8,11.9 21.3,13.3 3.7,1.1 3.9,1.3 3.4,4.7 -0.3,2 -1.6,10.5 -2.8,18.9 -1.7,11.3 -2.6,15.6 -3.8,16 -1,0.4 -3.4,-1.5 -7.1,-5.6 -6.5,-7 -8.9,-8.2 -16.5,-8.2 -7.5,0 -9.4,1 -16.9,8.6 -4.5,4.6 -6.9,6.5 -7.6,5.8 -0.6,-0.6 -1.9,-4.3 -3,-8.3 -3.8,-13.6 -8.4,-20.1 -14.3,-20.1 -4.3,0 -5.8,1.8 -6.5,7.5 -1,9 6.6,25.8 15.2,33.3 10.7,9.4 28.2,13.7 44.6,11.1 z m -86.1,-74.6 c -3.4,-3.1 -9.9,-11.3 -9.9,-12.5 0,-0.2 5.2,-0.3 11.4,-0.3 l 11.5,0 -2.5,2.6 c -3.3,3.5 -4.3,9.9 -2,13.3 0.9,1.4 1.6,2.8 1.6,3.1 0,1.1 -6.2,-2.7 -10.1,-6.2 z" />
        <path
           d="m 139.49652,140.96615 c 0.5,3 2.7,9.3 5,13.9 9.1,18.4 26.7,29.3 47.4,29.3 20.1,0 37.6,-10.5 46.8,-28 9.1,-17.2 8.7,-30.7 -1.9,-73.600003 -5.1,-20.9 -6.2,-31.5 -4.1,-39.6 0.9,-3 1.4,-5.7 1.2,-5.8 -0.2,-0.2 -3.4,1.1 -7.2,3 -8.2,4 -17.9,12.9 -21.7,19.7 -7.4,13.8 -6.9,31.7 1.4,48.100003 2.4,4.7 9.7,14.7 12.4,16.9 2.6,2.1 1.9,5.1 -2.3,10.1 -5.7,6.7 -11.9,16.8 -13.3,21.3 -1.1,3.7 -1.3,3.9 -4.7,3.4 -2,-0.3 -10.5,-1.6 -18.9,-2.8 -11.3,-1.7 -15.6,-2.6 -16,-3.8 -0.4,-1 1.5,-3.4 5.6,-7.1 7,-6.5 8.2,-8.9 8.2,-16.5 0,-7.5 -1,-9.4 -8.6,-16.9 -4.6,-4.5 -6.5,-6.9 -5.8,-7.6 0.6,-0.6 4.3,-1.9 8.3,-3 13.6,-3.800003 20.1,-8.400003 20.1,-14.300003 0,-4.3 -1.8,-5.8 -7.5,-6.5 -9,-1 -25.8,6.6 -33.3,15.2 -9.4,10.700003 -13.7,28.200003 -11.1,44.600003 z m 74.6,-86.100003 c 3.1,-3.4 11.3,-9.9 12.5,-9.9 0.2,0 0.3,5.2 0.3,11.4 l 0,11.5 -2.6,-2.5 c -3.5,-3.3 -9.9,-4.3 -13.3,-2 -1.4,0.9 -2.8,1.6 -3.1,1.6 -1.1,0 2.7,-6.2 6.2,-10.1 z"
           id="path3038"
           inkscape:connector-curvature="0"
           style="fill:url(#linearGradient4294);fill-opacity:1;stroke:none" />
        <path
           style="fill:url(#linearGradient4294);fill-opacity:1;stroke:none"
           inkscape:connector-curvature="0"
           id="path3040"
           d="m 244.41192,283.54587 c -0.5,-3 -2.7,-9.3 -5,-13.9 -9.1,-18.4 -26.7,-29.3 -47.4,-29.3 -20.1,0 -37.6,10.5 -46.8,28 -9.1,17.2 -8.7,30.7 1.9,73.6 5.1,20.9 6.2,31.50001 4.1,39.60001 -0.9,3 -1.4,5.7 -1.2,5.8 0.2,0.2 3.4,-1.1 7.2,-3 8.2,-4 17.9,-12.90001 21.7,-19.70001 7.4,-13.8 6.9,-31.7 -1.4,-48.1 -2.4,-4.7 -9.7,-14.7 -12.4,-16.9 -2.6,-2.1 -1.9,-5.1 2.3,-10.1 5.7,-6.7 11.9,-16.8 13.3,-21.3 1.1,-3.7 1.3,-3.9 4.7,-3.4 2,0.3 10.5,1.6 18.9,2.8 11.3,1.7 15.6,2.6 16,3.8 0.4,1 -1.5,3.4 -5.6,7.1 -7,6.5 -8.2,8.9 -8.2,16.5 0,7.5 1,9.4 8.6,16.9 4.6,4.5 6.5,6.9 5.8,7.6 -0.6,0.6 -4.3,1.9 -8.3,3 -13.6,3.8 -20.1,8.4 -20.1,14.3 0,4.3 1.8,5.8 7.5,6.5 9,1 25.8,-6.6 33.3,-15.2 9.4,-10.7 13.7,-28.2 11.1,-44.6 z m -74.6,86.1 c -3.1,3.4 -11.3,9.90001 -12.5,9.90001 -0.2,0 -0.3,-5.2 -0.3,-11.40001 l 0,-11.5 2.6,2.5 c 3.5,3.3 9.9,4.3 13.3,2 1.4,-0.9 2.8,-1.6 3.1,-1.6 1.1,0 -2.7,6.2 -6.2,10.1 z" />
      </g>
    </g>
  </g>
  <g
     id="g4318">
    <path
       sodipodi:type="arc"
       style="fill:#000000;fill-opacity:1;fill-rule:nonzero;stroke:none"
       id="path3928"
       sodipodi:cx="212.35675"
       sodipodi:cy="229.64359"
       sodipodi:rx="257.29999"
       sodipodi:ry="257.29999"
       d="m 469.65674,229.64359 a 257.29999,257.29999 0 1 1 -514.599977,0 257.29999,257.29999 0 1 1 514.599977,0 z"
       transform="matrix(0.80000003,0,0,-0.80000003,-448.04817,387.03784)" />
    <g
       id="g3930"
       transform="matrix(-0.35681414,-0.92420063,-0.86347615,0.38190731,-72.771106,288.15536)"
       style="fill:url(#linearGradient4042);fill-opacity:1">
      <g
         transform="translate(-29.644075,-37.145872)"
         id="g3932"
         style="fill:url(#linearGradient4022);fill-opacity:1">
        <path
           style="fill:url(#linearGradient4006);fill-opacity:1;stroke:none"
           inkscape:connector-curvature="0"
           id="path3934"
           d="m 250.44407,264.71371 c -3,-0.5 -9.3,-2.7 -13.9,-5 -18.4,-9.1 -29.3,-26.7 -29.3,-47.4 0,-20.1 10.5,-37.6 28,-46.8 17.2,-9.1 30.7,-8.7 73.6,1.9 20.9,5.1 31.50001,6.2 39.60001,4.1 3,-0.9 5.7,-1.4 5.8,-1.2 0.2,0.2 -1.1,3.4 -3,7.2 -4,8.2 -12.90001,17.9 -19.70001,21.7 -13.8,7.4 -31.7,6.9 -48.1,-1.4 -4.7,-2.4 -14.7,-9.7 -16.9,-12.4 -2.1,-2.6 -5.1,-1.9 -10.1,2.3 -6.7,5.7 -16.8,11.9 -21.3,13.3 -3.7,1.1 -3.9,1.3 -3.4,4.7 0.3,2 1.6,10.5 2.8,18.9 1.7,11.3 2.6,15.6 3.8,16 1,0.4 3.4,-1.5 7.1,-5.6 6.5,-7 8.9,-8.2 16.5,-8.2 7.5,0 9.4,1 16.9,8.6 4.5,4.6 6.9,6.5 7.6,5.8 0.6,-0.6 1.9,-4.3 3,-8.3 3.8,-13.6 8.4,-20.1 14.3,-20.1 4.3,0 5.8,1.8 6.5,7.5 1,9 -6.6,25.8 -15.2,33.3 -10.7,9.4 -28.2,13.7 -44.6,11.1 z m 86.1,-74.6 c 3.4,-3.1 9.90001,-11.3 9.90001,-12.5 0,-0.2 -5.2,-0.3 -11.40001,-0.3 l -11.5,0 2.5,2.6 c 3.3,3.5 4.3,9.9 2,13.3 -0.9,1.4 -1.6,2.8 -1.6,3.1 0,1.1 6.2,-2.7 10.1,-6.2 z" />
        <path
           d="m 133.46435,159.79831 c 3,0.5 9.3,2.7 13.9,5 18.4,9.1 29.3,26.7 29.3,47.4 0,20.1 -10.5,37.6 -28,46.8 -17.2,9.1 -30.7,8.7 -73.6,-1.9 -20.9,-5.1 -31.5,-6.2 -39.6,-4.1 -3,0.9 -5.7,1.4 -5.8,1.2 -0.2,-0.2 1.1,-3.4 3,-7.2 4,-8.2 12.9,-17.9 19.7,-21.7 13.8,-7.4 31.7,-6.9 48.1,1.4 4.7,2.4 14.7,9.7 16.9,12.4 2.1,2.6 5.1,1.9 10.1,-2.3 6.7,-5.7 16.8,-11.9 21.3,-13.3 3.7,-1.1 3.9,-1.3 3.4,-4.7 -0.3,-2 -1.6,-10.5 -2.8,-18.9 -1.7,-11.3 -2.6,-15.6 -3.8,-16 -1,-0.4 -3.4,1.5 -7.1,5.6 -6.5,7 -8.9,8.2 -16.5,8.2 -7.5,0 -9.4,-1 -16.9,-8.6 -4.5,-4.6 -6.9,-6.5 -7.6,-5.8 -0.6,0.6 -1.9,4.3 -3,8.3 -3.8,13.6 -8.4,20.1 -14.3,20.1 -4.3,0 -5.8,-1.8 -6.5,-7.5 -1,-9 6.6,-25.8 15.2,-33.3 10.7,-9.4 28.2,-13.7 44.6,-11.1 z m -86.1,74.6 c -3.4,3.1 -9.9,11.3 -9.9,12.5 0,0.2 5.2,0.3 11.4,0.3 l 11.5,0 -2.5,-2.6 c -3.3,-3.5 -4.3,-9.9 -2,-13.3 0.9,-1.4 1.6,-2.8 1.6,-3.1 0,-1.1 -6.2,2.7 -10.1,6.2 z"
           id="path3936"
           inkscape:connector-curvature="0"
           style="fill:url(#linearGradient4008);fill-opacity:1;stroke:none" />
        <path
           d="m 139.49652,283.54587 c 0.5,-3 2.7,-9.3 5,-13.9 9.1,-18.4 26.7,-29.3 47.4,-29.3 20.1,0 37.6,10.5 46.8,28 9.1,17.2 8.7,30.7 -1.9,73.6 -5.1,20.9 -6.2,31.50001 -4.1,39.60001 0.9,3 1.4,5.7 1.2,5.8 -0.2,0.2 -3.4,-1.1 -7.2,-3 -8.2,-4 -17.9,-12.90001 -21.7,-19.70001 -7.4,-13.8 -6.9,-31.7 1.4,-48.1 2.4,-4.7 9.7,-14.7 12.4,-16.9 2.6,-2.1 1.9,-5.1 -2.3,-10.1 -5.7,-6.7 -11.9,-16.8 -13.3,-21.3 -1.1,-3.7 -1.3,-3.9 -4.7,-3.4 -2,0.3 -10.5,1.6 -18.9,2.8 -11.3,1.7 -15.6,2.6 -16,3.8 -0.4,1 1.5,3.4 5.6,7.1 7,6.5 8.2,8.9 8.2,16.5 0,7.5 -1,9.4 -8.6,16.9 -4.6,4.5 -6.5,6.9 -5.8,7.6 0.6,0.6 4.3,1.9 8.3,3 13.6,3.8 20.1,8.4 20.1,14.3 0,4.3 -1.8,5.8 -7.5,6.5 -9,1 -25.8,-6.6 -33.3,-15.2 -9.4,-10.7 -13.7,-28.2 -11.1,-44.6 z m 74.6,86.1 c 3.1,3.4 11.3,9.90001 12.5,9.90001 0.2,0 0.3,-5.2 0.3,-11.40001 l 0,-11.5 -2.6,2.5 c -3.5,3.3 -9.9,4.3 -13.3,2 -1.4,-0.9 -2.8,-1.6 -3.1,-1.6 -1.1,0 2.7,6.2 6.2,10.1 z"
           id="path3938"
           inkscape:connector-curvature="0"
           style="fill:url(#linearGradient4010);fill-opacity:1;stroke:none" />
        <path
           style="fill:url(#linearGradient4012);fill-opacity:1;stroke:none"
           inkscape:connector-curvature="0"
           id="path3940"
           d="m 244.41192,140.96615 c -0.5,3 -2.7,9.3 -5,13.9 -9.1,18.4 -26.7,29.3 -47.4,29.3 -20.1,0 -37.6,-10.5 -46.8,-28 -9.1,-17.2 -8.7,-30.7 1.9,-73.6 5.1,-20.900003 6.2,-31.500003 4.1,-39.600003 -0.9,-3 -1.4,-5.7 -1.2,-5.8 0.2,-0.2 3.4,1.1 7.2,3 8.2,4 17.9,12.9 21.7,19.7 7.4,13.8 6.9,31.700003 -1.4,48.100003 -2.4,4.7 -9.7,14.7 -12.4,16.9 -2.6,2.1 -1.9,5.1 2.3,10.1 5.7,6.7 11.9,16.8 13.3,21.3 1.1,3.7 1.3,3.9 4.7,3.4 2,-0.3 10.5,-1.6 18.9,-2.8 11.3,-1.7 15.6,-2.6 16,-3.8 0.4,-1 -1.5,-3.4 -5.6,-7.1 -7,-6.5 -8.2,-8.9 -8.2,-16.5 0,-7.5 1,-9.4 8.6,-16.9 4.6,-4.5 6.5,-6.9 5.8,-7.6 -0.6,-0.6 -4.3,-1.9 -8.3,-3 -13.6,-3.8 -20.1,-8.4 -20.1,-14.3 0,-4.3 1.8,-5.800003 7.5,-6.500003 9,-1 25.8,6.600003 33.3,15.200003 9.4,10.7 13.7,28.2 11.1,44.6 z m -74.6,-86.100003 c -3.1,-3.4 -11.3,-9.9 -12.5,-9.9 -0.2,0 -0.3,5.2 -0.3,11.4 l 0,11.5 2.6,-2.5 c 3.5,-3.3 9.9,-4.3 13.3,-2 1.4,0.9 2.8,1.6 3.1,1.6 1.1,0 -2.7,-6.2 -6.2,-10.1 z" />
        <path
           d="m 250.44407,159.79831 c -3,0.5 -9.3,2.7 -13.9,5 -18.4,9.1 -29.3,26.7 -29.3,47.4 0,20.1 10.5,37.6 28,46.8 17.2,9.1 30.7,8.7 73.6,-1.9 20.9,-5.1 31.50001,-6.2 39.60001,-4.1 3,0.9 5.7,1.4 5.8,1.2 0.2,-0.2 -1.1,-3.4 -3,-7.2 -4,-8.2 -12.90001,-17.9 -19.70001,-21.7 -13.8,-7.4 -31.7,-6.9 -48.1,1.4 -4.7,2.4 -14.7,9.7 -16.9,12.4 -2.1,2.6 -5.1,1.9 -10.1,-2.3 -6.7,-5.7 -16.8,-11.9 -21.3,-13.3 -3.7,-1.1 -3.9,-1.3 -3.4,-4.7 0.3,-2 1.6,-10.5 2.8,-18.9 1.7,-11.3 2.6,-15.6 3.8,-16 1,-0.4 3.4,1.5 7.1,5.6 6.5,7 8.9,8.2 16.5,8.2 7.5,0 9.4,-1 16.9,-8.6 4.5,-4.6 6.9,-6.5 7.6,-5.8 0.6,0.6 1.9,4.3 3,8.3 3.8,13.6 8.4,20.1 14.3,20.1 4.3,0 5.8,-1.8 6.5,-7.5 1,-9 -6.6,-25.8 -15.2,-33.3 -10.7,-9.4 -28.2,-13.7 -44.6,-11.1 z m 86.1,74.6 c 3.4,3.1 9.90001,11.3 9.90001,12.5 0,0.2 -5.2,0.3 -11.40001,0.3 l -11.5,0 2.5,-2.6 c 3.3,-3.5 4.3,-9.9 2,-13.3 -0.9,-1.4 -1.6,-2.8 -1.6,-3.1 0,-1.1 6.2,2.7 10.1,6.2 z"
           id="path3942"
           inkscape:connector-curvature="0"
           style="fill:url(#linearGradient4014);fill-opacity:1;stroke:none" />
        <path
           style="fill:url(#linearGradient4016);fill-opacity:1;stroke:none"
           inkscape:connector-curvature="0"
           id="path3944"
           d="m 133.46435,264.71371 c 3,-0.5 9.3,-2.7 13.9,-5 18.4,-9.1 29.3,-26.7 29.3,-47.4 0,-20.1 -10.5,-37.6 -28,-46.8 -17.2,-9.1 -30.7,-8.7 -73.6,1.9 -20.9,5.1 -31.5,6.2 -39.6,4.1 -3,-0.9 -5.7,-1.4 -5.8,-1.2 -0.2,0.2 1.1,3.4 3,7.2 4,8.2 12.9,17.9 19.7,21.7 13.8,7.4 31.7,6.9 48.1,-1.4 4.7,-2.4 14.7,-9.7 16.9,-12.4 2.1,-2.6 5.1,-1.9 10.1,2.3 6.7,5.7 16.8,11.9 21.3,13.3 3.7,1.1 3.9,1.3 3.4,4.7 -0.3,2 -1.6,10.5 -2.8,18.9 -1.7,11.3 -2.6,15.6 -3.8,16 -1,0.4 -3.4,-1.5 -7.1,-5.6 -6.5,-7 -8.9,-8.2 -16.5,-8.2 -7.5,0 -9.4,1 -16.9,8.6 -4.5,4.6 -6.9,6.5 -7.6,5.8 -0.6,-0.6 -1.9,-4.3 -3,-8.3 -3.8,-13.6 -8.4,-20.1 -14.3,-20.1 -4.3,0 -5.8,1.8 -6.5,7.5 -1,9 6.6,25.8 15.2,33.3 10.7,9.4 28.2,13.7 44.6,11.1 z m -86.1,-74.6 c -3.4,-3.1 -9.9,-11.3 -9.9,-12.5 0,-0.2 5.2,-0.3 11.4,-0.3 l 11.5,0 -2.5,2.6 c -3.3,3.5 -4.3,9.9 -2,13.3 0.9,1.4 1.6,2.8 1.6,3.1 0,1.1 -6.2,-2.7 -10.1,-6.2 z" />
        <path
           d="m 139.49652,140.96615 c 0.5,3 2.7,9.3 5,13.9 9.1,18.4 26.7,29.3 47.4,29.3 20.1,0 37.6,-10.5 46.8,-28 9.1,-17.2 8.7,-30.7 -1.9,-73.600003 -5.1,-20.9 -6.2,-31.5 -4.1,-39.6 0.9,-3 1.4,-5.7 1.2,-5.8 -0.2,-0.2 -3.4,1.1 -7.2,3 -8.2,4 -17.9,12.9 -21.7,19.7 -7.4,13.8 -6.9,31.7 1.4,48.100003 2.4,4.7 9.7,14.7 12.4,16.9 2.6,2.1 1.9,5.1 -2.3,10.1 -5.7,6.7 -11.9,16.8 -13.3,21.3 -1.1,3.7 -1.3,3.9 -4.7,3.4 -2,-0.3 -10.5,-1.6 -18.9,-2.8 -11.3,-1.7 -15.6,-2.6 -16,-3.8 -0.4,-1 1.5,-3.4 5.6,-7.1 7,-6.5 8.2,-8.9 8.2,-16.5 0,-7.5 -1,-9.4 -8.6,-16.9 -4.6,-4.5 -6.5,-6.9 -5.8,-7.6 0.6,-0.6 4.3,-1.9 8.3,-3 13.6,-3.800003 20.1,-8.400003 20.1,-14.300003 0,-4.3 -1.8,-5.8 -7.5,-6.5 -9,-1 -25.8,6.6 -33.3,15.2 -9.4,10.700003 -13.7,28.200003 -11.1,44.600003 z m 74.6,-86.100003 c 3.1,-3.4 11.3,-9.9 12.5,-9.9 0.2,0 0.3,5.2 0.3,11.4 l 0,11.5 -2.6,-2.5 c -3.5,-3.3 -9.9,-4.3 -13.3,-2 -1.4,0.9 -2.8,1.6 -3.1,1.6 -1.1,0 2.7,-6.2 6.2,-10.1 z"
           id="path3946"
           inkscape:connector-curvature="0"
           style="fill:url(#linearGradient4018);fill-opacity:1;stroke:none" />
        <path
           style="fill:url(#linearGradient4020);fill-opacity:1;stroke:none"
           inkscape:connector-curvature="0"
           id="path3948"
           d="m 244.41192,283.54587 c -0.5,-3 -2.7,-9.3 -5,-13.9 -9.1,-18.4 -26.7,-29.3 -47.4,-29.3 -20.1,0 -37.6,10.5 -46.8,28 -9.1,17.2 -8.7,30.7 1.9,73.6 5.1,20.9 6.2,31.50001 4.1,39.60001 -0.9,3 -1.4,5.7 -1.2,5.8 0.2,0.2 3.4,-1.1 7.2,-3 8.2,-4 17.9,-12.90001 21.7,-19.70001 7.4,-13.8 6.9,-31.7 -1.4,-48.1 -2.4,-4.7 -9.7,-14.7 -12.4,-16.9 -2.6,-2.1 -1.9,-5.1 2.3,-10.1 5.7,-6.7 11.9,-16.8 13.3,-21.3 1.1,-3.7 1.3,-3.9 4.7,-3.4 2,0.3 10.5,1.6 18.9,2.8 11.3,1.7 15.6,2.6 16,3.8 0.4,1 -1.5,3.4 -5.6,7.1 -7,6.5 -8.2,8.9 -8.2,16.5 0,7.5 1,9.4 8.6,16.9 4.6,4.5 6.5,6.9 5.8,7.6 -0.6,0.6 -4.3,1.9 -8.3,3 -13.6,3.8 -20.1,8.4 -20.1,14.3 0,4.3 1.8,5.8 7.5,6.5 9,1 25.8,-6.6 33.3,-15.2 9.4,-10.7 13.7,-28.2 11.1,-44.6 z m -74.6,86.1 c -3.1,3.4 -11.3,9.90001 -12.5,9.90001 -0.2,0 -0.3,-5.2 -0.3,-11.40001 l 0,-11.5 2.6,2.5 c 3.5,3.3 9.9,4.3 13.3,2 1.4,-0.9 2.8,-1.6 3.1,-1.6 1.1,0 -2.7,6.2 -6.2,10.1 z" />
      </g>
      <g
         id="g3950"
         transform="matrix(0.70840897,-0.70580219,0.70580219,0.70840897,-123.48271,160.22778)"
         style="fill:url(#linearGradient4040);fill-opacity:1">
        <path
           d="m 250.44407,264.71371 c -3,-0.5 -9.3,-2.7 -13.9,-5 -18.4,-9.1 -29.3,-26.7 -29.3,-47.4 0,-20.1 10.5,-37.6 28,-46.8 17.2,-9.1 30.7,-8.7 73.6,1.9 20.9,5.1 31.50001,6.2 39.60001,4.1 3,-0.9 5.7,-1.4 5.8,-1.2 0.2,0.2 -1.1,3.4 -3,7.2 -4,8.2 -12.90001,17.9 -19.70001,21.7 -13.8,7.4 -31.7,6.9 -48.1,-1.4 -4.7,-2.4 -14.7,-9.7 -16.9,-12.4 -2.1,-2.6 -5.1,-1.9 -10.1,2.3 -6.7,5.7 -16.8,11.9 -21.3,13.3 -3.7,1.1 -3.9,1.3 -3.4,4.7 0.3,2 1.6,10.5 2.8,18.9 1.7,11.3 2.6,15.6 3.8,16 1,0.4 3.4,-1.5 7.1,-5.6 6.5,-7 8.9,-8.2 16.5,-8.2 7.5,0 9.4,1 16.9,8.6 4.5,4.6 6.9,6.5 7.6,5.8 0.6,-0.6 1.9,-4.3 3,-8.3 3.8,-13.6 8.4,-20.1 14.3,-20.1 4.3,0 5.8,1.8 6.5,7.5 1,9 -6.6,25.8 -15.2,33.3 -10.7,9.4 -28.2,13.7 -44.6,11.1 z m 86.1,-74.6 c 3.4,-3.1 9.90001,-11.3 9.90001,-12.5 0,-0.2 -5.2,-0.3 -11.40001,-0.3 l -11.5,0 2.5,2.6 c 3.3,3.5 4.3,9.9 2,13.3 -0.9,1.4 -1.6,2.8 -1.6,3.1 0,1.1 6.2,-2.7 10.1,-6.2 z"
           id="path3952"
           inkscape:connector-curvature="0"
           style="fill:url(#linearGradient4024);fill-opacity:1;stroke:none" />
        <path
           style="fill:url(#linearGradient4026);fill-opacity:1;stroke:none"
           inkscape:connector-curvature="0"
           id="path3954"
           d="m 133.46435,159.79831 c 3,0.5 9.3,2.7 13.9,5 18.4,9.1 29.3,26.7 29.3,47.4 0,20.1 -10.5,37.6 -28,46.8 -17.2,9.1 -30.7,8.7 -73.6,-1.9 -20.9,-5.1 -31.5,-6.2 -39.6,-4.1 -3,0.9 -5.7,1.4 -5.8,1.2 -0.2,-0.2 1.1,-3.4 3,-7.2 4,-8.2 12.9,-17.9 19.7,-21.7 13.8,-7.4 31.7,-6.9 48.1,1.4 4.7,2.4 14.7,9.7 16.9,12.4 2.1,2.6 5.1,1.9 10.1,-2.3 6.7,-5.7 16.8,-11.9 21.3,-13.3 3.7,-1.1 3.9,-1.3 3.4,-4.7 -0.3,-2 -1.6,-10.5 -2.8,-18.9 -1.7,-11.3 -2.6,-15.6 -3.8,-16 -1,-0.4 -3.4,1.5 -7.1,5.6 -6.5,7 -8.9,8.2 -16.5,8.2 -7.5,0 -9.4,-1 -16.9,-8.6 -4.5,-4.6 -6.9,-6.5 -7.6,-5.8 -0.6,0.6 -1.9,4.3 -3,8.3 -3.8,13.6 -8.4,20.1 -14.3,20.1 -4.3,0 -5.8,-1.8 -6.5,-7.5 -1,-9 6.6,-25.8 15.2,-33.3 10.7,-9.4 28.2,-13.7 44.6,-11.1 z m -86.1,74.6 c -3.4,3.1 -9.9,11.3 -9.9,12.5 0,0.2 5.2,0.3 11.4,0.3 l 11.5,0 -2.5,-2.6 c -3.3,-3.5 -4.3,-9.9 -2,-13.3 0.9,-1.4 1.6,-2.8 1.6,-3.1 0,-1.1 -6.2,2.7 -10.1,6.2 z" />
        <path
           style="fill:url(#linearGradient4028);fill-opacity:1;stroke:none"
           inkscape:connector-curvature="0"
           id="path3956"
           d="m 139.49652,283.54587 c 0.5,-3 2.7,-9.3 5,-13.9 9.1,-18.4 26.7,-29.3 47.4,-29.3 20.1,0 37.6,10.5 46.8,28 9.1,17.2 8.7,30.7 -1.9,73.6 -5.1,20.9 -6.2,31.50001 -4.1,39.60001 0.9,3 1.4,5.7 1.2,5.8 -0.2,0.2 -3.4,-1.1 -7.2,-3 -8.2,-4 -17.9,-12.90001 -21.7,-19.70001 -7.4,-13.8 -6.9,-31.7 1.4,-48.1 2.4,-4.7 9.7,-14.7 12.4,-16.9 2.6,-2.1 1.9,-5.1 -2.3,-10.1 -5.7,-6.7 -11.9,-16.8 -13.3,-21.3 -1.1,-3.7 -1.3,-3.9 -4.7,-3.4 -2,0.3 -10.5,1.6 -18.9,2.8 -11.3,1.7 -15.6,2.6 -16,3.8 -0.4,1 1.5,3.4 5.6,7.1 7,6.5 8.2,8.9 8.2,16.5 0,7.5 -1,9.4 -8.6,16.9 -4.6,4.5 -6.5,6.9 -5.8,7.6 0.6,0.6 4.3,1.9 8.3,3 13.6,3.8 20.1,8.4 20.1,14.3 0,4.3 -1.8,5.8 -7.5,6.5 -9,1 -25.8,-6.6 -33.3,-15.2 -9.4,-10.7 -13.7,-28.2 -11.1,-44.6 z m 74.6,86.1 c 3.1,3.4 11.3,9.90001 12.5,9.90001 0.2,0 0.3,-5.2 0.3,-11.40001 l 0,-11.5 -2.6,2.5 c -3.5,3.3 -9.9,4.3 -13.3,2 -1.4,-0.9 -2.8,-1.6 -3.1,-1.6 -1.1,0 2.7,6.2 6.2,10.1 z" />
        <path
           d="m 244.41192,140.96615 c -0.5,3 -2.7,9.3 -5,13.9 -9.1,18.4 -26.7,29.3 -47.4,29.3 -20.1,0 -37.6,-10.5 -46.8,-28 -9.1,-17.2 -8.7,-30.7 1.9,-73.6 5.1,-20.900003 6.2,-31.500003 4.1,-39.600003 -0.9,-3 -1.4,-5.7 -1.2,-5.8 0.2,-0.2 3.4,1.1 7.2,3 8.2,4 17.9,12.9 21.7,19.7 7.4,13.8 6.9,31.700003 -1.4,48.100003 -2.4,4.7 -9.7,14.7 -12.4,16.9 -2.6,2.1 -1.9,5.1 2.3,10.1 5.7,6.7 11.9,16.8 13.3,21.3 1.1,3.7 1.3,3.9 4.7,3.4 2,-0.3 10.5,-1.6 18.9,-2.8 11.3,-1.7 15.6,-2.6 16,-3.8 0.4,-1 -1.5,-3.4 -5.6,-7.1 -7,-6.5 -8.2,-8.9 -8.2,-16.5 0,-7.5 1,-9.4 8.6,-16.9 4.6,-4.5 6.5,-6.9 5.8,-7.6 -0.6,-0.6 -4.3,-1.9 -8.3,-3 -13.6,-3.8 -20.1,-8.4 -20.1,-14.3 0,-4.3 1.8,-5.800003 7.5,-6.500003 9,-1 25.8,6.600003 33.3,15.200003 9.4,10.7 13.7,28.2 11.1,44.6 z m -74.6,-86.100003 c -3.1,-3.4 -11.3,-9.9 -12.5,-9.9 -0.2,0 -0.3,5.2 -0.3,11.4 l 0,11.5 2.6,-2.5 c 3.5,-3.3 9.9,-4.3 13.3,-2 1.4,0.9 2.8,1.6 3.1,1.6 1.1,0 -2.7,-6.2 -6.2,-10.1 z"
           id="path3958"
           inkscape:connector-curvature="0"
           style="fill:url(#linearGradient4030);fill-opacity:1;stroke:none" />
        <path
           style="fill:url(#linearGradient4032);fill-opacity:1;stroke:none"
           inkscape:connector-curvature="0"
           id="path3960"
           d="m 250.44407,159.79831 c -3,0.5 -9.3,2.7 -13.9,5 -18.4,9.1 -29.3,26.7 -29.3,47.4 0,20.1 10.5,37.6 28,46.8 17.2,9.1 30.7,8.7 73.6,-1.9 20.9,-5.1 31.50001,-6.2 39.60001,-4.1 3,0.9 5.7,1.4 5.8,1.2 0.2,-0.2 -1.1,-3.4 -3,-7.2 -4,-8.2 -12.90001,-17.9 -19.70001,-21.7 -13.8,-7.4 -31.7,-6.9 -48.1,1.4 -4.7,2.4 -14.7,9.7 -16.9,12.4 -2.1,2.6 -5.1,1.9 -10.1,-2.3 -6.7,-5.7 -16.8,-11.9 -21.3,-13.3 -3.7,-1.1 -3.9,-1.3 -3.4,-4.7 0.3,-2 1.6,-10.5 2.8,-18.9 1.7,-11.3 2.6,-15.6 3.8,-16 1,-0.4 3.4,1.5 7.1,5.6 6.5,7 8.9,8.2 16.5,8.2 7.5,0 9.4,-1 16.9,-8.6 4.5,-4.6 6.9,-6.5 7.6,-5.8 0.6,0.6 1.9,4.3 3,8.3 3.8,13.6 8.4,20.1 14.3,20.1 4.3,0 5.8,-1.8 6.5,-7.5 1,-9 -6.6,-25.8 -15.2,-33.3 -10.7,-9.4 -28.2,-13.7 -44.6,-11.1 z m 86.1,74.6 c 3.4,3.1 9.90001,11.3 9.90001,12.5 0,0.2 -5.2,0.3 -11.40001,0.3 l -11.5,0 2.5,-2.6 c 3.3,-3.5 4.3,-9.9 2,-13.3 -0.9,-1.4 -1.6,-2.8 -1.6,-3.1 0,-1.1 6.2,2.7 10.1,6.2 z" />
        <path
           d="m 133.46435,264.71371 c 3,-0.5 9.3,-2.7 13.9,-5 18.4,-9.1 29.3,-26.7 29.3,-47.4 0,-20.1 -10.5,-37.6 -28,-46.8 -17.2,-9.1 -30.7,-8.7 -73.6,1.9 -20.9,5.1 -31.5,6.2 -39.6,4.1 -3,-0.9 -5.7,-1.4 -5.8,-1.2 -0.2,0.2 1.1,3.4 3,7.2 4,8.2 12.9,17.9 19.7,21.7 13.8,7.4 31.7,6.9 48.1,-1.4 4.7,-2.4 14.7,-9.7 16.9,-12.4 2.1,-2.6 5.1,-1.9 10.1,2.3 6.7,5.7 16.8,11.9 21.3,13.3 3.7,1.1 3.9,1.3 3.4,4.7 -0.3,2 -1.6,10.5 -2.8,18.9 -1.7,11.3 -2.6,15.6 -3.8,16 -1,0.4 -3.4,-1.5 -7.1,-5.6 -6.5,-7 -8.9,-8.2 -16.5,-8.2 -7.5,0 -9.4,1 -16.9,8.6 -4.5,4.6 -6.9,6.5 -7.6,5.8 -0.6,-0.6 -1.9,-4.3 -3,-8.3 -3.8,-13.6 -8.4,-20.1 -14.3,-20.1 -4.3,0 -5.8,1.8 -6.5,7.5 -1,9 6.6,25.8 15.2,33.3 10.7,9.4 28.2,13.7 44.6,11.1 z m -86.1,-74.6 c -3.4,-3.1 -9.9,-11.3 -9.9,-12.5 0,-0.2 5.2,-0.3 11.4,-0.3 l 11.5,0 -2.5,2.6 c -3.3,3.5 -4.3,9.9 -2,13.3 0.9,1.4 1.6,2.8 1.6,3.1 0,1.1 -6.2,-2.7 -10.1,-6.2 z"
           id="path3962"
           inkscape:connector-curvature="0"
           style="fill:url(#linearGradient4034);fill-opacity:1;stroke:none" />
        <path
           style="fill:url(#linearGradient4036);fill-opacity:1;stroke:none"
           inkscape:connector-curvature="0"
           id="path3964"
           d="m 139.49652,140.96615 c 0.5,3 2.7,9.3 5,13.9 9.1,18.4 26.7,29.3 47.4,29.3 20.1,0 37.6,-10.5 46.8,-28 9.1,-17.2 8.7,-30.7 -1.9,-73.600003 -5.1,-20.9 -6.2,-31.5 -4.1,-39.6 0.9,-3 1.4,-5.7 1.2,-5.8 -0.2,-0.2 -3.4,1.1 -7.2,3 -8.2,4 -17.9,12.9 -21.7,19.7 -7.4,13.8 -6.9,31.7 1.4,48.100003 2.4,4.7 9.7,14.7 12.4,16.9 2.6,2.1 1.9,5.1 -2.3,10.1 -5.7,6.7 -11.9,16.8 -13.3,21.3 -1.1,3.7 -1.3,3.9 -4.7,3.4 -2,-0.3 -10.5,-1.6 -18.9,-2.8 -11.3,-1.7 -15.6,-2.6 -16,-3.8 -0.4,-1 1.5,-3.4 5.6,-7.1 7,-6.5 8.2,-8.9 8.2,-16.5 0,-7.5 -1,-9.4 -8.6,-16.9 -4.6,-4.5 -6.5,-6.9 -5.8,-7.6 0.6,-0.6 4.3,-1.9 8.3,-3 13.6,-3.800003 20.1,-8.400003 20.1,-14.300003 0,-4.3 -1.8,-5.8 -7.5,-6.5 -9,-1 -25.8,6.6 -33.3,15.2 -9.4,10.700003 -13.7,28.200003 -11.1,44.600003 z m 74.6,-86.100003 c 3.1,-3.4 11.3,-9.9 12.5,-9.9 0.2,0 0.3,5.2 0.3,11.4 l 0,11.5 -2.6,-2.5 c -3.5,-3.3 -9.9,-4.3 -13.3,-2 -1.4,0.9 -2.8,1.6 -3.1,1.6 -1.1,0 2.7,-6.2 6.2,-10.1 z" />
        <path
           d="m 244.41192,283.54587 c -0.5,-3 -2.7,-9.3 -5,-13.9 -9.1,-18.4 -26.7,-29.3 -47.4,-29.3 -20.1,0 -37.6,10.5 -46.8,28 -9.1,17.2 -8.7,30.7 1.9,73.6 5.1,20.9 6.2,31.50001 4.1,39.60001 -0.9,3 -1.4,5.7 -1.2,5.8 0.2,0.2 3.4,-1.1 7.2,-3 8.2,-4 17.9,-12.90001 21.7,-19.70001 7.4,-13.8 6.9,-31.7 -1.4,-48.1 -2.4,-4.7 -9.7,-14.7 -12.4,-16.9 -2.6,-2.1 -1.9,-5.1 2.3,-10.1 5.7,-6.7 11.9,-16.8 13.3,-21.3 1.1,-3.7 1.3,-3.9 4.7,-3.4 2,0.3 10.5,1.6 18.9,2.8 11.3,1.7 15.6,2.6 16,3.8 0.4,1 -1.5,3.4 -5.6,7.1 -7,6.5 -8.2,8.9 -8.2,16.5 0,7.5 1,9.4 8.6,16.9 4.6,4.5 6.5,6.9 5.8,7.6 -0.6,0.6 -4.3,1.9 -8.3,3 -13.6,3.8 -20.1,8.4 -20.1,14.3 0,4.3 1.8,5.8 7.5,6.5 9,1 25.8,-6.6 33.3,-15.2 9.4,-10.7 13.7,-28.2 11.1,-44.6 z m -74.6,86.1 c -3.1,3.4 -11.3,9.90001 -12.5,9.90001 -0.2,0 -0.3,-5.2 -0.3,-11.40001 l 0,-11.5 2.6,2.5 c 3.5,3.3 9.9,4.3 13.3,2 1.4,-0.9 2.8,-1.6 3.1,-1.6 1.1,0 -2.7,6.2 -6.2,10.1 z"
           id="path3966"
           inkscape:connector-curvature="0"
           style="fill:url(#linearGradient4038);fill-opacity:1;stroke:none" />
      </g>
    </g>
  </g>
  <g
     id="g6120"
     transform="translate(478.19595,-420.66862)">
    <path
       sodipodi:type="arc"
       style="fill:#000000;fill-opacity:1;fill-rule:nonzero;stroke:none"
       id="path4342"
       sodipodi:cx="212.35675"
       sodipodi:cy="229.64359"
       sodipodi:rx="257.29999"
       sodipodi:ry="257.29999"
       d="m 469.65674,229.64359 c 0,142.10285 -115.19713,257.29998 -257.29999,257.29998 -142.102859,0 -257.299987,-115.19713 -257.299987,-257.29998 0,-142.102864 115.197128,-257.299993 257.299987,-257.299993 142.10286,0 257.29999,115.197129 257.29999,257.299993 z"
       transform="matrix(0.80000003,0,0,0.80000003,41.347779,449.98465)" />
    <g
       id="g4344"
       transform="matrix(-0.35681414,-0.92420063,-0.86347615,0.38190731,416.62485,715.1297)"
       style="fill:url(#linearGradient6178);fill-opacity:1">
      <g
         transform="translate(-29.644075,-37.145872)"
         id="g4346"
         style="fill:url(#linearGradient6158);fill-opacity:1">
        <path
           style="fill:url(#linearGradient6142);fill-opacity:1;stroke:none"
           inkscape:connector-curvature="0"
           id="path4348"
           d="m 250.44407,264.71371 c -3,-0.5 -9.3,-2.7 -13.9,-5 -18.4,-9.1 -29.3,-26.7 -29.3,-47.4 0,-20.1 10.5,-37.6 28,-46.8 17.2,-9.1 30.7,-8.7 73.6,1.9 20.9,5.1 31.50001,6.2 39.60001,4.1 3,-0.9 5.7,-1.4 5.8,-1.2 0.2,0.2 -1.1,3.4 -3,7.2 -4,8.2 -12.90001,17.9 -19.70001,21.7 -13.8,7.4 -31.7,6.9 -48.1,-1.4 -4.7,-2.4 -14.7,-9.7 -16.9,-12.4 -2.1,-2.6 -5.1,-1.9 -10.1,2.3 -6.7,5.7 -16.8,11.9 -21.3,13.3 -3.7,1.1 -3.9,1.3 -3.4,4.7 0.3,2 1.6,10.5 2.8,18.9 1.7,11.3 2.6,15.6 3.8,16 1,0.4 3.4,-1.5 7.1,-5.6 6.5,-7 8.9,-8.2 16.5,-8.2 7.5,0 9.4,1 16.9,8.6 4.5,4.6 6.9,6.5 7.6,5.8 0.6,-0.6 1.9,-4.3 3,-8.3 3.8,-13.6 8.4,-20.1 14.3,-20.1 4.3,0 5.8,1.8 6.5,7.5 1,9 -6.6,25.8 -15.2,33.3 -10.7,9.4 -28.2,13.7 -44.6,11.1 z m 86.1,-74.6 c 3.4,-3.1 9.90001,-11.3 9.90001,-12.5 0,-0.2 -5.2,-0.3 -11.40001,-0.3 l -11.5,0 2.5,2.6 c 3.3,3.5 4.3,9.9 2,13.3 -0.9,1.4 -1.6,2.8 -1.6,3.1 0,1.1 6.2,-2.7 10.1,-6.2 z" />
        <path
           d="m 133.46435,159.79831 c 3,0.5 9.3,2.7 13.9,5 18.4,9.1 29.3,26.7 29.3,47.4 0,20.1 -10.5,37.6 -28,46.8 -17.2,9.1 -30.7,8.7 -73.6,-1.9 -20.9,-5.1 -31.5,-6.2 -39.6,-4.1 -3,0.9 -5.7,1.4 -5.8,1.2 -0.2,-0.2 1.1,-3.4 3,-7.2 4,-8.2 12.9,-17.9 19.7,-21.7 13.8,-7.4 31.7,-6.9 48.1,1.4 4.7,2.4 14.7,9.7 16.9,12.4 2.1,2.6 5.1,1.9 10.1,-2.3 6.7,-5.7 16.8,-11.9 21.3,-13.3 3.7,-1.1 3.9,-1.3 3.4,-4.7 -0.3,-2 -1.6,-10.5 -2.8,-18.9 -1.7,-11.3 -2.6,-15.6 -3.8,-16 -1,-0.4 -3.4,1.5 -7.1,5.6 -6.5,7 -8.9,8.2 -16.5,8.2 -7.5,0 -9.4,-1 -16.9,-8.6 -4.5,-4.6 -6.9,-6.5 -7.6,-5.8 -0.6,0.6 -1.9,4.3 -3,8.3 -3.8,13.6 -8.4,20.1 -14.3,20.1 -4.3,0 -5.8,-1.8 -6.5,-7.5 -1,-9 6.6,-25.8 15.2,-33.3 10.7,-9.4 28.2,-13.7 44.6,-11.1 z m -86.1,74.6 c -3.4,3.1 -9.9,11.3 -9.9,12.5 0,0.2 5.2,0.3 11.4,0.3 l 11.5,0 -2.5,-2.6 c -3.3,-3.5 -4.3,-9.9 -2,-13.3 0.9,-1.4 1.6,-2.8 1.6,-3.1 0,-1.1 -6.2,2.7 -10.1,6.2 z"
           id="path4350"
           inkscape:connector-curvature="0"
           style="fill:url(#linearGradient6144);fill-opacity:1;stroke:none" />
        <path
           d="m 139.49652,283.54587 c 0.5,-3 2.7,-9.3 5,-13.9 9.1,-18.4 26.7,-29.3 47.4,-29.3 20.1,0 37.6,10.5 46.8,28 9.1,17.2 8.7,30.7 -1.9,73.6 -5.1,20.9 -6.2,31.50001 -4.1,39.60001 0.9,3 1.4,5.7 1.2,5.8 -0.2,0.2 -3.4,-1.1 -7.2,-3 -8.2,-4 -17.9,-12.90001 -21.7,-19.70001 -7.4,-13.8 -6.9,-31.7 1.4,-48.1 2.4,-4.7 9.7,-14.7 12.4,-16.9 2.6,-2.1 1.9,-5.1 -2.3,-10.1 -5.7,-6.7 -11.9,-16.8 -13.3,-21.3 -1.1,-3.7 -1.3,-3.9 -4.7,-3.4 -2,0.3 -10.5,1.6 -18.9,2.8 -11.3,1.7 -15.6,2.6 -16,3.8 -0.4,1 1.5,3.4 5.6,7.1 7,6.5 8.2,8.9 8.2,16.5 0,7.5 -1,9.4 -8.6,16.9 -4.6,4.5 -6.5,6.9 -5.8,7.6 0.6,0.6 4.3,1.9 8.3,3 13.6,3.8 20.1,8.4 20.1,14.3 0,4.3 -1.8,5.8 -7.5,6.5 -9,1 -25.8,-6.6 -33.3,-15.2 -9.4,-10.7 -13.7,-28.2 -11.1,-44.6 z m 74.6,86.1 c 3.1,3.4 11.3,9.90001 12.5,9.90001 0.2,0 0.3,-5.2 0.3,-11.40001 l 0,-11.5 -2.6,2.5 c -3.5,3.3 -9.9,4.3 -13.3,2 -1.4,-0.9 -2.8,-1.6 -3.1,-1.6 -1.1,0 2.7,6.2 6.2,10.1 z"
           id="path4352"
           inkscape:connector-curvature="0"
           style="fill:url(#linearGradient6146);fill-opacity:1;stroke:none" />
        <path
           style="fill:url(#linearGradient6148);fill-opacity:1;stroke:none"
           inkscape:connector-curvature="0"
           id="path4354"
           d="m 244.41192,140.96615 c -0.5,3 -2.7,9.3 -5,13.9 -9.1,18.4 -26.7,29.3 -47.4,29.3 -20.1,0 -37.6,-10.5 -46.8,-28 -9.1,-17.2 -8.7,-30.7 1.9,-73.6 5.1,-20.900003 6.2,-31.500003 4.1,-39.600003 -0.9,-3 -1.4,-5.7 -1.2,-5.8 0.2,-0.2 3.4,1.1 7.2,3 8.2,4 17.9,12.9 21.7,19.7 7.4,13.8 6.9,31.700003 -1.4,48.100003 -2.4,4.7 -9.7,14.7 -12.4,16.9 -2.6,2.1 -1.9,5.1 2.3,10.1 5.7,6.7 11.9,16.8 13.3,21.3 1.1,3.7 1.3,3.9 4.7,3.4 2,-0.3 10.5,-1.6 18.9,-2.8 11.3,-1.7 15.6,-2.6 16,-3.8 0.4,-1 -1.5,-3.4 -5.6,-7.1 -7,-6.5 -8.2,-8.9 -8.2,-16.5 0,-7.5 1,-9.4 8.6,-16.9 4.6,-4.5 6.5,-6.9 5.8,-7.6 -0.6,-0.6 -4.3,-1.9 -8.3,-3 -13.6,-3.8 -20.1,-8.4 -20.1,-14.3 0,-4.3 1.8,-5.800003 7.5,-6.500003 9,-1 25.8,6.600003 33.3,15.200003 9.4,10.7 13.7,28.2 11.1,44.6 z m -74.6,-86.100003 c -3.1,-3.4 -11.3,-9.9 -12.5,-9.9 -0.2,0 -0.3,5.2 -0.3,11.4 l 0,11.5 2.6,-2.5 c 3.5,-3.3 9.9,-4.3 13.3,-2 1.4,0.9 2.8,1.6 3.1,1.6 1.1,0 -2.7,-6.2 -6.2,-10.1 z" />
        <path
           d="m 250.44407,159.79831 c -3,0.5 -9.3,2.7 -13.9,5 -18.4,9.1 -29.3,26.7 -29.3,47.4 0,20.1 10.5,37.6 28,46.8 17.2,9.1 30.7,8.7 73.6,-1.9 20.9,-5.1 31.50001,-6.2 39.60001,-4.1 3,0.9 5.7,1.4 5.8,1.2 0.2,-0.2 -1.1,-3.4 -3,-7.2 -4,-8.2 -12.90001,-17.9 -19.70001,-21.7 -13.8,-7.4 -31.7,-6.9 -48.1,1.4 -4.7,2.4 -14.7,9.7 -16.9,12.4 -2.1,2.6 -5.1,1.9 -10.1,-2.3 -6.7,-5.7 -16.8,-11.9 -21.3,-13.3 -3.7,-1.1 -3.9,-1.3 -3.4,-4.7 0.3,-2 1.6,-10.5 2.8,-18.9 1.7,-11.3 2.6,-15.6 3.8,-16 1,-0.4 3.4,1.5 7.1,5.6 6.5,7 8.9,8.2 16.5,8.2 7.5,0 9.4,-1 16.9,-8.6 4.5,-4.6 6.9,-6.5 7.6,-5.8 0.6,0.6 1.9,4.3 3,8.3 3.8,13.6 8.4,20.1 14.3,20.1 4.3,0 5.8,-1.8 6.5,-7.5 1,-9 -6.6,-25.8 -15.2,-33.3 -10.7,-9.4 -28.2,-13.7 -44.6,-11.1 z m 86.1,74.6 c 3.4,3.1 9.90001,11.3 9.90001,12.5 0,0.2 -5.2,0.3 -11.40001,0.3 l -11.5,0 2.5,-2.6 c 3.3,-3.5 4.3,-9.9 2,-13.3 -0.9,-1.4 -1.6,-2.8 -1.6,-3.1 0,-1.1 6.2,2.7 10.1,6.2 z"
           id="path4356"
           inkscape:connector-curvature="0"
           style="fill:url(#linearGradient6150);fill-opacity:1;stroke:none" />
        <path
           style="fill:url(#linearGradient6152);fill-opacity:1;stroke:none"
           inkscape:connector-curvature="0"
           id="path4358"
           d="m 133.46435,264.71371 c 3,-0.5 9.3,-2.7 13.9,-5 18.4,-9.1 29.3,-26.7 29.3,-47.4 0,-20.1 -10.5,-37.6 -28,-46.8 -17.2,-9.1 -30.7,-8.7 -73.6,1.9 -20.9,5.1 -31.5,6.2 -39.6,4.1 -3,-0.9 -5.7,-1.4 -5.8,-1.2 -0.2,0.2 1.1,3.4 3,7.2 4,8.2 12.9,17.9 19.7,21.7 13.8,7.4 31.7,6.9 48.1,-1.4 4.7,-2.4 14.7,-9.7 16.9,-12.4 2.1,-2.6 5.1,-1.9 10.1,2.3 6.7,5.7 16.8,11.9 21.3,13.3 3.7,1.1 3.9,1.3 3.4,4.7 -0.3,2 -1.6,10.5 -2.8,18.9 -1.7,11.3 -2.6,15.6 -3.8,16 -1,0.4 -3.4,-1.5 -7.1,-5.6 -6.5,-7 -8.9,-8.2 -16.5,-8.2 -7.5,0 -9.4,1 -16.9,8.6 -4.5,4.6 -6.9,6.5 -7.6,5.8 -0.6,-0.6 -1.9,-4.3 -3,-8.3 -3.8,-13.6 -8.4,-20.1 -14.3,-20.1 -4.3,0 -5.8,1.8 -6.5,7.5 -1,9 6.6,25.8 15.2,33.3 10.7,9.4 28.2,13.7 44.6,11.1 z m -86.1,-74.6 c -3.4,-3.1 -9.9,-11.3 -9.9,-12.5 0,-0.2 5.2,-0.3 11.4,-0.3 l 11.5,0 -2.5,2.6 c -3.3,3.5 -4.3,9.9 -2,13.3 0.9,1.4 1.6,2.8 1.6,3.1 0,1.1 -6.2,-2.7 -10.1,-6.2 z" />
        <path
           d="m 139.49652,140.96615 c 0.5,3 2.7,9.3 5,13.9 9.1,18.4 26.7,29.3 47.4,29.3 20.1,0 37.6,-10.5 46.8,-28 9.1,-17.2 8.7,-30.7 -1.9,-73.600003 -5.1,-20.9 -6.2,-31.5 -4.1,-39.6 0.9,-3 1.4,-5.7 1.2,-5.8 -0.2,-0.2 -3.4,1.1 -7.2,3 -8.2,4 -17.9,12.9 -21.7,19.7 -7.4,13.8 -6.9,31.7 1.4,48.100003 2.4,4.7 9.7,14.7 12.4,16.9 2.6,2.1 1.9,5.1 -2.3,10.1 -5.7,6.7 -11.9,16.8 -13.3,21.3 -1.1,3.7 -1.3,3.9 -4.7,3.4 -2,-0.3 -10.5,-1.6 -18.9,-2.8 -11.3,-1.7 -15.6,-2.6 -16,-3.8 -0.4,-1 1.5,-3.4 5.6,-7.1 7,-6.5 8.2,-8.9 8.2,-16.5 0,-7.5 -1,-9.4 -8.6,-16.9 -4.6,-4.5 -6.5,-6.9 -5.8,-7.6 0.6,-0.6 4.3,-1.9 8.3,-3 13.6,-3.800003 20.1,-8.400003 20.1,-14.300003 0,-4.3 -1.8,-5.8 -7.5,-6.5 -9,-1 -25.8,6.6 -33.3,15.2 -9.4,10.700003 -13.7,28.200003 -11.1,44.600003 z m 74.6,-86.100003 c 3.1,-3.4 11.3,-9.9 12.5,-9.9 0.2,0 0.3,5.2 0.3,11.4 l 0,11.5 -2.6,-2.5 c -3.5,-3.3 -9.9,-4.3 -13.3,-2 -1.4,0.9 -2.8,1.6 -3.1,1.6 -1.1,0 2.7,-6.2 6.2,-10.1 z"
           id="path4360"
           inkscape:connector-curvature="0"
           style="fill:url(#linearGradient6154);fill-opacity:1;stroke:none" />
        <path
           style="fill:url(#linearGradient6156);fill-opacity:1;stroke:none"
           inkscape:connector-curvature="0"
           id="path4362"
           d="m 244.41192,283.54587 c -0.5,-3 -2.7,-9.3 -5,-13.9 -9.1,-18.4 -26.7,-29.3 -47.4,-29.3 -20.1,0 -37.6,10.5 -46.8,28 -9.1,17.2 -8.7,30.7 1.9,73.6 5.1,20.9 6.2,31.50001 4.1,39.60001 -0.9,3 -1.4,5.7 -1.2,5.8 0.2,0.2 3.4,-1.1 7.2,-3 8.2,-4 17.9,-12.90001 21.7,-19.70001 7.4,-13.8 6.9,-31.7 -1.4,-48.1 -2.4,-4.7 -9.7,-14.7 -12.4,-16.9 -2.6,-2.1 -1.9,-5.1 2.3,-10.1 5.7,-6.7 11.9,-16.8 13.3,-21.3 1.1,-3.7 1.3,-3.9 4.7,-3.4 2,0.3 10.5,1.6 18.9,2.8 11.3,1.7 15.6,2.6 16,3.8 0.4,1 -1.5,3.4 -5.6,7.1 -7,6.5 -8.2,8.9 -8.2,16.5 0,7.5 1,9.4 8.6,16.9 4.6,4.5 6.5,6.9 5.8,7.6 -0.6,0.6 -4.3,1.9 -8.3,3 -13.6,3.8 -20.1,8.4 -20.1,14.3 0,4.3 1.8,5.8 7.5,6.5 9,1 25.8,-6.6 33.3,-15.2 9.4,-10.7 13.7,-28.2 11.1,-44.6 z m -74.6,86.1 c -3.1,3.4 -11.3,9.90001 -12.5,9.90001 -0.2,0 -0.3,-5.2 -0.3,-11.40001 l 0,-11.5 2.6,2.5 c 3.5,3.3 9.9,4.3 13.3,2 1.4,-0.9 2.8,-1.6 3.1,-1.6 1.1,0 -2.7,6.2 -6.2,10.1 z" />
      </g>
      <g
         id="g4364"
         transform="matrix(0.70840897,-0.70580219,0.70580219,0.70840897,-123.48271,160.22778)"
         style="fill:url(#linearGradient6176);fill-opacity:1">
        <path
           d="m 250.44407,264.71371 c -3,-0.5 -9.3,-2.7 -13.9,-5 -18.4,-9.1 -29.3,-26.7 -29.3,-47.4 0,-20.1 10.5,-37.6 28,-46.8 17.2,-9.1 30.7,-8.7 73.6,1.9 20.9,5.1 31.50001,6.2 39.60001,4.1 3,-0.9 5.7,-1.4 5.8,-1.2 0.2,0.2 -1.1,3.4 -3,7.2 -4,8.2 -12.90001,17.9 -19.70001,21.7 -13.8,7.4 -31.7,6.9 -48.1,-1.4 -4.7,-2.4 -14.7,-9.7 -16.9,-12.4 -2.1,-2.6 -5.1,-1.9 -10.1,2.3 -6.7,5.7 -16.8,11.9 -21.3,13.3 -3.7,1.1 -3.9,1.3 -3.4,4.7 0.3,2 1.6,10.5 2.8,18.9 1.7,11.3 2.6,15.6 3.8,16 1,0.4 3.4,-1.5 7.1,-5.6 6.5,-7 8.9,-8.2 16.5,-8.2 7.5,0 9.4,1 16.9,8.6 4.5,4.6 6.9,6.5 7.6,5.8 0.6,-0.6 1.9,-4.3 3,-8.3 3.8,-13.6 8.4,-20.1 14.3,-20.1 4.3,0 5.8,1.8 6.5,7.5 1,9 -6.6,25.8 -15.2,33.3 -10.7,9.4 -28.2,13.7 -44.6,11.1 z m 86.1,-74.6 c 3.4,-3.1 9.90001,-11.3 9.90001,-12.5 0,-0.2 -5.2,-0.3 -11.40001,-0.3 l -11.5,0 2.5,2.6 c 3.3,3.5 4.3,9.9 2,13.3 -0.9,1.4 -1.6,2.8 -1.6,3.1 0,1.1 6.2,-2.7 10.1,-6.2 z"
           id="path4366"
           inkscape:connector-curvature="0"
           style="fill:url(#linearGradient6160);fill-opacity:1;stroke:none" />
        <path
           style="fill:url(#linearGradient6162);fill-opacity:1;stroke:none"
           inkscape:connector-curvature="0"
           id="path4368"
           d="m 133.46435,159.79831 c 3,0.5 9.3,2.7 13.9,5 18.4,9.1 29.3,26.7 29.3,47.4 0,20.1 -10.5,37.6 -28,46.8 -17.2,9.1 -30.7,8.7 -73.6,-1.9 -20.9,-5.1 -31.5,-6.2 -39.6,-4.1 -3,0.9 -5.7,1.4 -5.8,1.2 -0.2,-0.2 1.1,-3.4 3,-7.2 4,-8.2 12.9,-17.9 19.7,-21.7 13.8,-7.4 31.7,-6.9 48.1,1.4 4.7,2.4 14.7,9.7 16.9,12.4 2.1,2.6 5.1,1.9 10.1,-2.3 6.7,-5.7 16.8,-11.9 21.3,-13.3 3.7,-1.1 3.9,-1.3 3.4,-4.7 -0.3,-2 -1.6,-10.5 -2.8,-18.9 -1.7,-11.3 -2.6,-15.6 -3.8,-16 -1,-0.4 -3.4,1.5 -7.1,5.6 -6.5,7 -8.9,8.2 -16.5,8.2 -7.5,0 -9.4,-1 -16.9,-8.6 -4.5,-4.6 -6.9,-6.5 -7.6,-5.8 -0.6,0.6 -1.9,4.3 -3,8.3 -3.8,13.6 -8.4,20.1 -14.3,20.1 -4.3,0 -5.8,-1.8 -6.5,-7.5 -1,-9 6.6,-25.8 15.2,-33.3 10.7,-9.4 28.2,-13.7 44.6,-11.1 z m -86.1,74.6 c -3.4,3.1 -9.9,11.3 -9.9,12.5 0,0.2 5.2,0.3 11.4,0.3 l 11.5,0 -2.5,-2.6 c -3.3,-3.5 -4.3,-9.9 -2,-13.3 0.9,-1.4 1.6,-2.8 1.6,-3.1 0,-1.1 -6.2,2.7 -10.1,6.2 z" />
        <path
           style="fill:url(#linearGradient6164);fill-opacity:1;stroke:none"
           inkscape:connector-curvature="0"
           id="path4370"
           d="m 139.49652,283.54587 c 0.5,-3 2.7,-9.3 5,-13.9 9.1,-18.4 26.7,-29.3 47.4,-29.3 20.1,0 37.6,10.5 46.8,28 9.1,17.2 8.7,30.7 -1.9,73.6 -5.1,20.9 -6.2,31.50001 -4.1,39.60001 0.9,3 1.4,5.7 1.2,5.8 -0.2,0.2 -3.4,-1.1 -7.2,-3 -8.2,-4 -17.9,-12.90001 -21.7,-19.70001 -7.4,-13.8 -6.9,-31.7 1.4,-48.1 2.4,-4.7 9.7,-14.7 12.4,-16.9 2.6,-2.1 1.9,-5.1 -2.3,-10.1 -5.7,-6.7 -11.9,-16.8 -13.3,-21.3 -1.1,-3.7 -1.3,-3.9 -4.7,-3.4 -2,0.3 -10.5,1.6 -18.9,2.8 -11.3,1.7 -15.6,2.6 -16,3.8 -0.4,1 1.5,3.4 5.6,7.1 7,6.5 8.2,8.9 8.2,16.5 0,7.5 -1,9.4 -8.6,16.9 -4.6,4.5 -6.5,6.9 -5.8,7.6 0.6,0.6 4.3,1.9 8.3,3 13.6,3.8 20.1,8.4 20.1,14.3 0,4.3 -1.8,5.8 -7.5,6.5 -9,1 -25.8,-6.6 -33.3,-15.2 -9.4,-10.7 -13.7,-28.2 -11.1,-44.6 z m 74.6,86.1 c 3.1,3.4 11.3,9.90001 12.5,9.90001 0.2,0 0.3,-5.2 0.3,-11.40001 l 0,-11.5 -2.6,2.5 c -3.5,3.3 -9.9,4.3 -13.3,2 -1.4,-0.9 -2.8,-1.6 -3.1,-1.6 -1.1,0 2.7,6.2 6.2,10.1 z" />
        <path
           d="m 244.41192,140.96615 c -0.5,3 -2.7,9.3 -5,13.9 -9.1,18.4 -26.7,29.3 -47.4,29.3 -20.1,0 -37.6,-10.5 -46.8,-28 -9.1,-17.2 -8.7,-30.7 1.9,-73.6 5.1,-20.900003 6.2,-31.500003 4.1,-39.600003 -0.9,-3 -1.4,-5.7 -1.2,-5.8 0.2,-0.2 3.4,1.1 7.2,3 8.2,4 17.9,12.9 21.7,19.7 7.4,13.8 6.9,31.700003 -1.4,48.100003 -2.4,4.7 -9.7,14.7 -12.4,16.9 -2.6,2.1 -1.9,5.1 2.3,10.1 5.7,6.7 11.9,16.8 13.3,21.3 1.1,3.7 1.3,3.9 4.7,3.4 2,-0.3 10.5,-1.6 18.9,-2.8 11.3,-1.7 15.6,-2.6 16,-3.8 0.4,-1 -1.5,-3.4 -5.6,-7.1 -7,-6.5 -8.2,-8.9 -8.2,-16.5 0,-7.5 1,-9.4 8.6,-16.9 4.6,-4.5 6.5,-6.9 5.8,-7.6 -0.6,-0.6 -4.3,-1.9 -8.3,-3 -13.6,-3.8 -20.1,-8.4 -20.1,-14.3 0,-4.3 1.8,-5.800003 7.5,-6.500003 9,-1 25.8,6.600003 33.3,15.200003 9.4,10.7 13.7,28.2 11.1,44.6 z m -74.6,-86.100003 c -3.1,-3.4 -11.3,-9.9 -12.5,-9.9 -0.2,0 -0.3,5.2 -0.3,11.4 l 0,11.5 2.6,-2.5 c 3.5,-3.3 9.9,-4.3 13.3,-2 1.4,0.9 2.8,1.6 3.1,1.6 1.1,0 -2.7,-6.2 -6.2,-10.1 z"
           id="path4372"
           inkscape:connector-curvature="0"
           style="fill:url(#linearGradient6166);fill-opacity:1;stroke:none" />
        <path
           style="fill:url(#linearGradient6168);fill-opacity:1;stroke:none"
           inkscape:connector-curvature="0"
           id="path4374"
           d="m 250.44407,159.79831 c -3,0.5 -9.3,2.7 -13.9,5 -18.4,9.1 -29.3,26.7 -29.3,47.4 0,20.1 10.5,37.6 28,46.8 17.2,9.1 30.7,8.7 73.6,-1.9 20.9,-5.1 31.50001,-6.2 39.60001,-4.1 3,0.9 5.7,1.4 5.8,1.2 0.2,-0.2 -1.1,-3.4 -3,-7.2 -4,-8.2 -12.90001,-17.9 -19.70001,-21.7 -13.8,-7.4 -31.7,-6.9 -48.1,1.4 -4.7,2.4 -14.7,9.7 -16.9,12.4 -2.1,2.6 -5.1,1.9 -10.1,-2.3 -6.7,-5.7 -16.8,-11.9 -21.3,-13.3 -3.7,-1.1 -3.9,-1.3 -3.4,-4.7 0.3,-2 1.6,-10.5 2.8,-18.9 1.7,-11.3 2.6,-15.6 3.8,-16 1,-0.4 3.4,1.5 7.1,5.6 6.5,7 8.9,8.2 16.5,8.2 7.5,0 9.4,-1 16.9,-8.6 4.5,-4.6 6.9,-6.5 7.6,-5.8 0.6,0.6 1.9,4.3 3,8.3 3.8,13.6 8.4,20.1 14.3,20.1 4.3,0 5.8,-1.8 6.5,-7.5 1,-9 -6.6,-25.8 -15.2,-33.3 -10.7,-9.4 -28.2,-13.7 -44.6,-11.1 z m 86.1,74.6 c 3.4,3.1 9.90001,11.3 9.90001,12.5 0,0.2 -5.2,0.3 -11.40001,0.3 l -11.5,0 2.5,-2.6 c 3.3,-3.5 4.3,-9.9 2,-13.3 -0.9,-1.4 -1.6,-2.8 -1.6,-3.1 0,-1.1 6.2,2.7 10.1,6.2 z" />
        <path
           d="m 133.46435,264.71371 c 3,-0.5 9.3,-2.7 13.9,-5 18.4,-9.1 29.3,-26.7 29.3,-47.4 0,-20.1 -10.5,-37.6 -28,-46.8 -17.2,-9.1 -30.7,-8.7 -73.6,1.9 -20.9,5.1 -31.5,6.2 -39.6,4.1 -3,-0.9 -5.7,-1.4 -5.8,-1.2 -0.2,0.2 1.1,3.4 3,7.2 4,8.2 12.9,17.9 19.7,21.7 13.8,7.4 31.7,6.9 48.1,-1.4 4.7,-2.4 14.7,-9.7 16.9,-12.4 2.1,-2.6 5.1,-1.9 10.1,2.3 6.7,5.7 16.8,11.9 21.3,13.3 3.7,1.1 3.9,1.3 3.4,4.7 -0.3,2 -1.6,10.5 -2.8,18.9 -1.7,11.3 -2.6,15.6 -3.8,16 -1,0.4 -3.4,-1.5 -7.1,-5.6 -6.5,-7 -8.9,-8.2 -16.5,-8.2 -7.5,0 -9.4,1 -16.9,8.6 -4.5,4.6 -6.9,6.5 -7.6,5.8 -0.6,-0.6 -1.9,-4.3 -3,-8.3 -3.8,-13.6 -8.4,-20.1 -14.3,-20.1 -4.3,0 -5.8,1.8 -6.5,7.5 -1,9 6.6,25.8 15.2,33.3 10.7,9.4 28.2,13.7 44.6,11.1 z m -86.1,-74.6 c -3.4,-3.1 -9.9,-11.3 -9.9,-12.5 0,-0.2 5.2,-0.3 11.4,-0.3 l 11.5,0 -2.5,2.6 c -3.3,3.5 -4.3,9.9 -2,13.3 0.9,1.4 1.6,2.8 1.6,3.1 0,1.1 -6.2,-2.7 -10.1,-6.2 z"
           id="path4376"
           inkscape:connector-curvature="0"
           style="fill:url(#linearGradient6170);fill-opacity:1;stroke:none" />
        <path
           style="fill:url(#linearGradient6172);fill-opacity:1;stroke:none"
           inkscape:connector-curvature="0"
           id="path4378"
           d="m 139.49652,140.96615 c 0.5,3 2.7,9.3 5,13.9 9.1,18.4 26.7,29.3 47.4,29.3 20.1,0 37.6,-10.5 46.8,-28 9.1,-17.2 8.7,-30.7 -1.9,-73.600003 -5.1,-20.9 -6.2,-31.5 -4.1,-39.6 0.9,-3 1.4,-5.7 1.2,-5.8 -0.2,-0.2 -3.4,1.1 -7.2,3 -8.2,4 -17.9,12.9 -21.7,19.7 -7.4,13.8 -6.9,31.7 1.4,48.100003 2.4,4.7 9.7,14.7 12.4,16.9 2.6,2.1 1.9,5.1 -2.3,10.1 -5.7,6.7 -11.9,16.8 -13.3,21.3 -1.1,3.7 -1.3,3.9 -4.7,3.4 -2,-0.3 -10.5,-1.6 -18.9,-2.8 -11.3,-1.7 -15.6,-2.6 -16,-3.8 -0.4,-1 1.5,-3.4 5.6,-7.1 7,-6.5 8.2,-8.9 8.2,-16.5 0,-7.5 -1,-9.4 -8.6,-16.9 -4.6,-4.5 -6.5,-6.9 -5.8,-7.6 0.6,-0.6 4.3,-1.9 8.3,-3 13.6,-3.800003 20.1,-8.400003 20.1,-14.300003 0,-4.3 -1.8,-5.8 -7.5,-6.5 -9,-1 -25.8,6.6 -33.3,15.2 -9.4,10.700003 -13.7,28.200003 -11.1,44.600003 z m 74.6,-86.100003 c 3.1,-3.4 11.3,-9.9 12.5,-9.9 0.2,0 0.3,5.2 0.3,11.4 l 0,11.5 -2.6,-2.5 c -3.5,-3.3 -9.9,-4.3 -13.3,-2 -1.4,0.9 -2.8,1.6 -3.1,1.6 -1.1,0 2.7,-6.2 6.2,-10.1 z" />
        <path
           d="m 244.41192,283.54587 c -0.5,-3 -2.7,-9.3 -5,-13.9 -9.1,-18.4 -26.7,-29.3 -47.4,-29.3 -20.1,0 -37.6,10.5 -46.8,28 -9.1,17.2 -8.7,30.7 1.9,73.6 5.1,20.9 6.2,31.50001 4.1,39.60001 -0.9,3 -1.4,5.7 -1.2,5.8 0.2,0.2 3.4,-1.1 7.2,-3 8.2,-4 17.9,-12.90001 21.7,-19.70001 7.4,-13.8 6.9,-31.7 -1.4,-48.1 -2.4,-4.7 -9.7,-14.7 -12.4,-16.9 -2.6,-2.1 -1.9,-5.1 2.3,-10.1 5.7,-6.7 11.9,-16.8 13.3,-21.3 1.1,-3.7 1.3,-3.9 4.7,-3.4 2,0.3 10.5,1.6 18.9,2.8 11.3,1.7 15.6,2.6 16,3.8 0.4,1 -1.5,3.4 -5.6,7.1 -7,6.5 -8.2,8.9 -8.2,16.5 0,7.5 1,9.4 8.6,16.9 4.6,4.5 6.5,6.9 5.8,7.6 -0.6,0.6 -4.3,1.9 -8.3,3 -13.6,3.8 -20.1,8.4 -20.1,14.3 0,4.3 1.8,5.8 7.5,6.5 9,1 25.8,-6.6 33.3,-15.2 9.4,-10.7 13.7,-28.2 11.1,-44.6 z m -74.6,86.1 c -3.1,3.4 -11.3,9.90001 -12.5,9.90001 -0.2,0 -0.3,-5.2 -0.3,-11.40001 l 0,-11.5 2.6,2.5 c 3.5,3.3 9.9,4.3 13.3,2 1.4,-0.9 2.8,-1.6 3.1,-1.6 1.1,0 -2.7,6.2 -6.2,10.1 z"
           id="path4380"
           inkscape:connector-curvature="0"
           style="fill:url(#linearGradient6174);fill-opacity:1;stroke:none" />
      </g>
    </g>
  </g>
</svg>
