<?xml version="1.0" encoding="UTF-8" standalone="no"?>
<svg
   xmlns:dc="http://purl.org/dc/elements/1.1/"
   xmlns:cc="http://creativecommons.org/ns#"
   xmlns:rdf="http://www.w3.org/1999/02/22-rdf-syntax-ns#"
   xmlns:svg="http://www.w3.org/2000/svg"
   xmlns="http://www.w3.org/2000/svg"
   xmlns:sodipodi="http://sodipodi.sourceforge.net/DTD/sodipodi-0.dtd"
   xmlns:inkscape="http://www.inkscape.org/namespaces/inkscape"
   version="1.0"
   width="250.000000pt"
   height="212.000000pt"
   viewBox="0 0 250.000000 212.000000"
   preserveAspectRatio="xMidYMid meet"
   id="svg2"
   inkscape:version="0.48.4 r9939"
   sodipodi:docname="ballet_font_15.svg">
  <defs
     id="defs12" />
  <sodipodi:namedview
     pagecolor="#ffffff"
     bordercolor="#666666"
     borderopacity="1"
     objecttolerance="10"
     gridtolerance="10"
     guidetolerance="10"
     inkscape:pageopacity="0"
     inkscape:pageshadow="2"
     inkscape:window-width="1855"
     inkscape:window-height="1056"
     id="namedview10"
     showgrid="false"
     inkscape:zoom="1.7811321"
     inkscape:cx="156.25"
     inkscape:cy="172.02421"
     inkscape:window-x="65"
     inkscape:window-y="24"
     inkscape:window-maximized="1"
     inkscape:current-layer="svg2" />
  <metadata
     id="metadata4">
Created by potrace 1.11, written by Peter Selinger 2001-2013
<rdf:RDF>
  <cc:Work
     rdf:about="">
    <dc:format>image/svg+xml</dc:format>
    <dc:type
       rdf:resource="http://purl.org/dc/dcmitype/StillImage" />
    <dc:title></dc:title>
  </cc:Work>
</rdf:RDF>
</metadata>
  <g
     id="g2998">
    <rect
       ry="15.360827"
       transform="scale(0.8,0.8)"
       y="28.633474"
       x="56.14407"
       height="201.55721"
       width="177.9767"
       id="rect2996"
       style="fill:#ff7f2a;stroke:none" />
    <path
       id="rect2993"
       transform="scale(0.8,0.8)"
       d="M 19.59375 0.1875 C 8.9563769 0.1875 0.40625 8.7688769 0.40625 19.40625 L 0.40625 245.40625 C 0.40625 256.04362 8.9563769 264.59375 19.59375 264.59375 L 292.84375 264.59375 C 303.48112 264.59375 312.03125 256.04362 312.03125 245.40625 L 312.03125 19.40625 C 312.03125 8.7688769 303.48112 0.1875 292.84375 0.1875 L 19.59375 0.1875 z M 150.75 51.65625 C 161.4791 51.587769 174.47656 52.65625 179.375 54.375 C 187.125 57 193.125 61.5 195.625 66.25 C 198.5 71.875 195.75 78.875 190 80.75 C 187.375 81.625 184.25 81.75 181.875 81.125 C 176.5 79.625 170 72.125 170 67.5 C 170 62.75 167 61.875 154 63 C 122.75 65.625 100.125 77.75 94.625 95 C 87.75 116.375 99.375 134.25 123.125 138.625 C 133.5 140.5 144.375 140.25 162.5 137.625 C 187.625 133.875 203.375 135.5 214 142.75 C 215.875 144 218.875 148.125 220.75 151.875 C 231.375 173.875 212.875 204.375 184.375 211.875 C 164.25 217.125 128.375 211 117.875 200.625 C 113.125 195.875 110.5 187.375 112.25 182 L 113.5 178.125 L 113.625 182.5 C 113.75 185 115 189.5 116.625 192.5 C 118.875 197.125 120.75 198.875 126.875 201.875 C 134.125 205.5 135 205.625 150.625 205.5 C 175 205.375 190.25 200.375 202.625 188.75 C 214.125 178 218.375 161.625 212.125 152.375 C 205.25 142.125 193.75 139.25 165.875 140.625 C 135.75 142.125 134.25 142.125 126.125 141 C 116.75 139.75 104.875 134.5 98.375 128.875 C 83.375 115.625 83 89.875 97.625 73.125 C 106 63.625 122.125 55.375 138.5 52.5 C 141.46875 51.953125 145.87314 51.687378 150.75 51.65625 z "
       style="fill:#000000;stroke:none" />
  </g>
</svg>
