<?xml version="1.0" encoding="UTF-8" standalone="no"?>
<svg
   xmlns:dc="http://purl.org/dc/elements/1.1/"
   xmlns:cc="http://creativecommons.org/ns#"
   xmlns:rdf="http://www.w3.org/1999/02/22-rdf-syntax-ns#"
   xmlns:svg="http://www.w3.org/2000/svg"
   xmlns="http://www.w3.org/2000/svg"
   xmlns:sodipodi="http://sodipodi.sourceforge.net/DTD/sodipodi-0.dtd"
   xmlns:inkscape="http://www.inkscape.org/namespaces/inkscape"
   version="1.0"
   width="600.000000pt"
   height="600.000000pt"
   viewBox="0 0 600.000000 600.000000"
   preserveAspectRatio="xMidYMid meet"
   id="svg2"
   inkscape:version="0.48.4 r9939"
   sodipodi:docname="sa2.svg">
  <defs
     id="defs14" />
  <sodipodi:namedview
     pagecolor="#ffffff"
     bordercolor="#666666"
     borderopacity="1"
     objecttolerance="10"
     gridtolerance="10"
     guidetolerance="10"
     inkscape:pageopacity="0"
     inkscape:pageshadow="2"
     inkscape:window-width="1855"
     inkscape:window-height="1056"
     id="namedview12"
     showgrid="false"
     inkscape:zoom="0.31466667"
     inkscape:cx="375"
     inkscape:cy="375"
     inkscape:window-x="65"
     inkscape:window-y="24"
     inkscape:window-maximized="1"
     inkscape:current-layer="svg2" />
  <metadata
     id="metadata4">
Created by potrace 1.11, written by Peter Selinger 2001-2013
<rdf:RDF>
  <cc:Work
     rdf:about="">
    <dc:format>image/svg+xml</dc:format>
    <dc:type
       rdf:resource="http://purl.org/dc/dcmitype/StillImage" />
  </cc:Work>
</rdf:RDF>
</metadata>
  <g
     id="g3772">
    <path
       id="rect3767"
       transform="scale(0.8,0.8)"
       d="M 111.625 0 C 51.547945 0 3.1875 48.360445 3.1875 108.4375 L 3.1875 654.28125 C 3.1875 714.3583 51.547945 762.71875 111.625 762.71875 L 641.5625 762.71875 C 701.63955 762.71875 750 714.3583 750 654.28125 L 750 108.4375 C 750 48.360445 701.63955 0 641.5625 0 L 111.625 0 z M 361.125 69.90625 L 378 69.90625 C 381.73529 72.713224 385.9131 75.43523 389.125 77 C 394.375 79.5 400.625 81.375 405.375 81.875 C 419 83.375 436.75 78.5 445.75 70.875 C 446.16268 70.531096 446.55012 70.217981 446.9375 69.90625 L 450.3125 69.90625 C 450.17868 70.579139 449.99359 71.313046 449.75 72.125 C 448 78.75 449.125 94.375 452.25 102.75 C 455.125 110.75 460.25 118.75 466.75 125.25 L 471.25 129.75 L 462.5 136.125 C 457.75 139.625 453.75 142.75 453.75 143.125 C 453.75 143.5 455.125 150.125 456.75 158 C 460.375 175.25 464.625 184.375 472.25 192.25 C 479.25 199.25 487.75 203.625 503.75 208.125 C 524.5 214.125 528.75 217.75 528.75 229.875 C 528.75 244.875 513.25 263.625 503.375 260.5 C 501.875 260 493.75 254.625 485.375 248.5 C 460.75 230.5 458.5 229.625 430.625 227.625 C 421.625 226.875 411.875 225.5 408.75 224.375 C 392.125 218.5 376.5 201.875 374.25 187.625 C 373.5 182.875 373.25 182.625 369.5 183.25 C 356.625 185.5 348.625 190.75 342.375 200.875 C 338.375 207.625 338.125 208.625 338.125 219.375 C 338.125 232.375 339.625 237 348.375 250.5 C 361.875 271.5 382.25 291.5 419.75 320.5 C 430.25 328.625 438.75 335.625 438.75 336.125 C 438.75 337.25 433 342.625 428.75 345.375 L 425.75 347.5 L 430.75 347.5 C 433.75 347.5 438.25 346.25 441.75 344.375 L 447.5 341.25 L 464.375 353.875 C 473.625 360.75 481.25 366.75 481.25 367.375 C 481.25 370.25 468.625 378.75 464.375 378.75 C 463.25 378.75 462.75 379.25 463.125 380 C 463.5 380.625 467.25 381.25 471.375 381.25 C 478.625 381.25 484.5 379.375 488.875 375.5 C 490.625 374 491.75 374.625 498.25 380.375 C 507.25 388.125 520 402 520 403.75 C 520 406.625 516.125 412.25 511.25 416.75 C 505.75 421.75 502.25 423.375 494.375 424.875 L 489.375 425.875 L 494 428 C 503.625 432.25 515.875 429.625 525.25 421.375 C 528.625 418.375 530 417.875 531 419.125 C 533.75 422.375 542.375 441 545.125 449.625 L 548 458.75 L 544.125 463.375 C 542.125 466 537.75 469.75 534.5 471.875 C 529.625 474.875 527.125 475.5 520.75 475.625 C 516.625 475.625 511.75 475.125 510 474.625 C 507.25 473.75 507.375 474.125 511.5 478 C 519.75 485.875 533.25 487 545.125 480.75 L 551 477.75 L 551.75 481.5 C 552.75 486.5 552.75 511.125 551.75 516 C 551.125 519.25 550 520.125 545.25 521.75 C 536.375 524.875 528.875 524.375 520.75 520.125 L 513.75 516.375 L 516.25 521.125 C 521 530.5 529.875 535.375 542.25 535.5 L 549 535.625 L 548.25 541.5 C 547.75 544.875 545.625 553.875 543.375 561.5 C 539.5 575 539.25 575.625 535.75 576 C 530.875 576.625 521.875 573 516.5 568.25 L 512.125 564.375 L 513 568.125 C 515 576.25 522.25 584.375 530.375 587.375 L 533.875 588.75 L 528.125 599.875 C 521.125 613.375 513 625 510.5 625 C 509.625 625 506.5 622.75 503.75 620 L 498.75 615 L 498.75 618.375 C 498.75 621.75 500.125 625 503.875 630.875 C 505.5 633.5 505.25 634.125 500 639.5 C 492.875 646.75 477.75 659.125 468.875 664.75 C 420.25 696 349.5 705.875 288.25 690 C 221.875 672.875 173.625 631.875 153.875 575.625 C 148.25 559.75 146.125 549.125 145.375 531.75 C 144.5 513.75 146.25 499.875 151.125 486.125 C 156.125 471.875 161.875 463.125 173.75 451.25 C 190.25 434.625 206.125 427.5 226.125 427.5 C 244.125 427.5 256.5 432.25 266.5 442.75 C 274.125 450.75 277.625 459.75 277.625 472.25 C 277.625 480.25 277.125 482.75 273.75 489.5 C 267.75 501.75 257.75 508.875 246.625 508.625 L 240.625 508.625 L 246.875 506.625 C 259.375 502.875 264.875 495.375 265 482.5 C 265 472.875 263.25 467.5 258 461.5 C 250.5 452.625 245.25 450.625 230 450.625 C 218.625 450.625 216 451 210.625 453.625 C 192.375 462.625 182.5 484.375 182.5 515.25 C 182.5 547.375 191.375 569.5 213.5 592.625 C 241.625 622 276.375 639 316.125 642.375 C 344.375 644.875 367.375 639 390.25 623.5 C 407.125 612.125 424 590.25 430.625 571.25 L 432.125 566.875 L 423.25 560.25 C 418.375 556.5 413.625 553.125 412.625 552.5 C 411.125 551.75 411.5 550 414.75 542.625 C 423.375 523.25 422.125 501.875 411.125 484.875 C 406.75 478 397.125 468.625 391.5 465.75 C 387.625 463.75 387.5 463.5 387.5 455.25 C 387.375 426.875 367.25 401.625 340 396 L 332.875 394.625 L 332.125 384.75 C 331 367.375 321 350.875 305.75 341 C 297.5 335.625 284.75 331.25 277.5 331.25 C 273.5 331.25 272.375 331.875 269.75 335.875 C 268.125 338.5 265.625 343.25 264.25 346.5 C 263 349.875 261.5 352.5 261 352.5 C 259.75 352.5 246.875 330.375 243 321.75 C 239.875 314.5 240.125 312.625 244.75 312.5 C 249.625 312.5 261.125 303.625 264.375 297.5 C 265.25 295.75 266.375 292 266.875 289 L 267.75 283.625 L 261 290.375 C 254.125 297.375 247.75 300 238.125 300 C 233 300 233 300.125 227.5 280.625 C 221.625 259.5 221.5 261.25 228.625 261.25 C 240.125 261.25 250.125 256 254.875 247.375 C 258 241.875 257.5 241.375 252.375 245 C 246.25 249.5 236.75 250.75 228.375 248.25 C 219.25 245.625 218.875 244.75 217.875 221.625 L 217.125 203.625 L 220.75 205 C 222.625 205.75 227.5 206.5 231.5 206.5 C 239.625 206.625 249 202.75 252.25 197.75 C 254.125 195 254 195 250.75 196.25 C 246.375 197.875 236.125 197.875 231.625 196.125 C 229.75 195.5 226 193.375 223.25 191.5 L 218.375 188.25 L 219.25 179 C 220 170 224.5 145.5 225.75 143.5 C 226.125 142.875 228 144.75 229.875 147.75 C 233.25 153 245.625 165.125 250 167.5 C 254.5 169.875 268.5 156.75 274.75 144.125 C 280.125 133.5 281.75 125.125 280.875 112.375 L 280.125 101.5 L 285.875 104 C 293.375 107.25 309.75 108.375 318.875 106.25 C 333.5 102.75 348.375 92.375 356 80.375 C 357.76452 77.551775 359.518 73.918544 361.125 69.90625 z "
       style="fill:#800080;stroke:none" />
    <path
       d="m 334.1,130.6 c -4.3,3.6 -5.8,8.9 -3.8,13.7 1.8,4.2 6.8,7.7 11.2,7.7 7,0 13.4,-7.7 12,-14.4 -1.7,-8.8 -12.6,-12.8 -19.4,-7 z"
       id="path10"
       inkscape:connector-curvature="0"
       style="fill:#800080;stroke:none" />
  </g>
</svg>
