<?xml version="1.0" encoding="UTF-8" standalone="no"?>
<svg
   xmlns:dc="http://purl.org/dc/elements/1.1/"
   xmlns:cc="http://creativecommons.org/ns#"
   xmlns:rdf="http://www.w3.org/1999/02/22-rdf-syntax-ns#"
   xmlns:svg="http://www.w3.org/2000/svg"
   xmlns="http://www.w3.org/2000/svg"
   xmlns:sodipodi="http://sodipodi.sourceforge.net/DTD/sodipodi-0.dtd"
   xmlns:inkscape="http://www.inkscape.org/namespaces/inkscape"
   version="1.0"
   width="1920"
   height="1080"
   viewBox="0 0 1536.0001 864"
   preserveAspectRatio="xMidYMid meet"
   id="svg2"
   inkscape:version="0.91 r13725"
   sodipodi:docname="einstein.svg"
   inkscape:export-filename="C:\Users\gygio\Documents\GitHub\UI-UX\Pictures\people\einstein.png"
   inkscape:export-xdpi="90"
   inkscape:export-ydpi="90">
  <defs
     id="defs12">
    <filter
       inkscape:collect="always"
       style="color-interpolation-filters:sRGB"
       id="filter4689"
       x="-0.090128265"
       width="1.1802565"
       y="-0.085209705"
       height="1.1704195">
      <feGaussianBlur
         inkscape:collect="always"
         stdDeviation="5.4905351"
         id="feGaussianBlur4691" />
    </filter>
  </defs>
  <sodipodi:namedview
     pagecolor="#ffffff"
     bordercolor="#666666"
     borderopacity="1"
     objecttolerance="10"
     gridtolerance="10"
     guidetolerance="10"
     inkscape:pageopacity="0"
     inkscape:pageshadow="2"
     inkscape:window-width="1920"
     inkscape:window-height="1017"
     id="namedview10"
     showgrid="false"
     inkscape:zoom="0.62933332"
     inkscape:cx="924.00557"
     inkscape:cy="550.78543"
     inkscape:window-x="-8"
     inkscape:window-y="-8"
     inkscape:window-maximized="1"
     inkscape:current-layer="svg2"
     fit-margin-top="0"
     fit-margin-left="0"
     fit-margin-right="0"
     fit-margin-bottom="0"
     units="px"
     showguides="true"
     inkscape:guide-bbox="true" />
  <metadata
     id="metadata4">
Created by potrace 1.11, written by Peter Selinger 2001-2013
<rdf:RDF>
  <cc:Work
     rdf:about="">
    <dc:format>image/svg+xml</dc:format>
    <dc:type
       rdf:resource="http://purl.org/dc/dcmitype/StillImage" />
    <dc:title />
  </cc:Work>
</rdf:RDF>
</metadata>
  <rect
     style="fill:#8000d6;fill-opacity:1;stroke:none"
     id="rect4178"
     width="1535.9083"
     height="863.98468"
     x="0.15889832"
     y="0.91409791" />
  <g
     id="g4697"
     transform="matrix(3.1818182,0,0,3.1818182,143.81834,-40.209071)">
    <path
       inkscape:connector-curvature="0"
       id="path4660"
       d="m 183.82954,74.559783 c -0.66093,0.03926 -0.88594,0.259376 -0.88594,0.634376 0,0.5 0.90001,2.1 1.9,3.6 1,1.6 1.6,3.7 1.4,4.7 -0.3,1 -3.9,5 -8,9 -4.1,3.9 -7.99999,8.400001 -8.6,10.000001 l -1.3,2.9 -6.1,-4 c -7.5,-4.700001 -8.6,-4.900001 -7.2,-1.2 1.2,3.2 0.7,5.6 -2.1,10.1 l -2.1,3.4 -2.8,-3.6 c -2.19999,-2.7 -3.09999,-3.3 -3.9,-2.3 -1.39999,1.8 -6.2,11.4 -7.9,16.1 -1.8,4.7 -3.6,19.7 -3.7,30.6 -0.1,8.5 1.90001,13.7 7.9,20.7 1.9,2.3 3.5,4.7 3.5,5.5 0,3.9 2.6,9.5 6.1,13.3 5,5.4 14.1,12.5 16.1,12.5 2,0 11.2,10.8 11.8,13.9 0.4,2.2 1.10001,2.6 4,2.7 1.9,0.1 5.5,1.1 8,2.2 2.5,1.2 7.9,2.7 11.9,3.3 8.7,1.5 17.4,0.2 26.3,-3.8 4.4,-1.9 6.60001,-2.4 9.4,-1.9 l 3.6,0.7 -0.7,-3.1 c -0.6,-2.7 -0.19999,-3.7 2.2,-6.3 1.7,-1.8 3.7,-4.2 4.5,-5.4 0.8,-1.2 4.2,-4 7.5,-6.3 8.60001,-5.7 13.40001,-12.4 14.8,-20.7 0.4,-2.4 1.10001,-4.5 1.6,-4.9 2.1,-1.2 6,-10.7 7,-17.1 0.9,-4.8 0.9,-8.8 0.2,-13.8 -0.69999,-4.5 -0.7,-8.2 -0.1,-10.4 1.3,-4.6 0.3,-11.2 -2.5,-17.5 -2.3,-5 -12,-17.6 -13.5,-17.6 -0.5,0 -1.6,2.3 -2.7,5.2 -1.69999,4.7 -1.89999,4.9 -2.7,2.8 -0.5,-1.3 -0.4,-2.7 0.2,-3.5 0.7,-0.8 0.10001,-2 -2,-4 -1.6,-1.600001 -4.19999,-4.600001 -5.6,-6.700001 -1.5,-2.1 -2.9,-3.8 -3.3,-3.8 -0.3,0 -1.4,2 -2.5,4.5 l -1.8,4.5 -5.7,-5.8 c -4.9,-5.2 -12.2,-9.4 -13.7,-8 -0.2,0.3 0.3,2.1 1.1,4.1 0.80001,2 1.50001,4.9 1.5,6.4 0,2.6 -0.5,2.3 -7.3,-4.8 -8.1,-8.499992 -15.59999,-13 -25.9,-15.4 -4.5,-1.062496 -6.8125,-1.4998 -7.91406,-1.434376 z"
       style="fill:#000000;fill-opacity:0.77777782;fill-rule:evenodd;stroke:none;stroke-width:0.80000001px;stroke-linecap:butt;stroke-linejoin:miter;stroke-opacity:1;filter:url(#filter4689)" />
    <g
       inkscape:export-ydpi="90"
       inkscape:export-xdpi="90"
       inkscape:export-filename="C:\Users\gygio\Desktop\einstein.png"
       id="g4180">
      <path
         style="fill:#ffff00;fill-opacity:1;fill-rule:evenodd;stroke:none;stroke-width:0.80000001px;stroke-linecap:butt;stroke-linejoin:miter;stroke-opacity:1"
         d="m 158.58051,183.05084 10.16949,22.24577 13.02966,12.71186 21.61017,4.76695 23.19915,-5.72033 17.16102,-18.11441 3.17797,-11.44068 0,-9.5339 -8.89831,1.90678 3.81356,-18.11441 -1.58898,-9.53389 -7.62712,-7.62712 -10.48729,-6.99152 -8.26271,6.35592 -12.71186,1.27119 -8.89831,-4.44915 -6.67373,-1.90678 -12.07627,5.40254 -7.30933,9.5339 -1.58897,7.62712 3.17796,19.06779 -9.2161,-2.54237 z"
         id="path4168"
         inkscape:connector-curvature="0"
         sodipodi:nodetypes="ccccccccccccccccccccccc" />
      <path
         style="fill:#ffffff;fill-opacity:1;fill-rule:evenodd;stroke:none;stroke-width:0.80000001px;stroke-linecap:butt;stroke-linejoin:miter;stroke-opacity:1"
         d="m 227.22458,214.83051 -22.24576,-4.13136 -28.28391,4.44915 5.08475,-14.93644 18.11441,-4.76695 17.47881,1.27119 10.1695,3.49576 4.13135,12.39408 z"
         id="path4172"
         inkscape:connector-curvature="0" />
      <path
         style="fill:#ffffff;fill-opacity:1;fill-rule:evenodd;stroke:none;stroke-width:0.80000001px;stroke-linecap:butt;stroke-linejoin:miter;stroke-opacity:1"
         d="m 157.30932,178.2839 2.86017,4.44915 2.54237,13.66525 -4.76695,0.9534 -12.39406,-9.8517 -3.49576,-7.62712 -2.22458,-7.94491 -9.2161,-14.61865 -0.3178,-16.84322 2.22457,-17.47881 6.35594,-15.57203 5.08474,9.53389 6.67373,-12.07627 4.44915,-6.991528 10.1695,7.309328 3.81356,-9.851696 14.30085,-16.525425 -2.22459,-6.991525 23.51696,9.851694 15.57203,14.618648 2.22457,-11.44068 10.48729,9.216104 1.27119,9.85169 8.26272,-13.66525 8.5805,20.97458 6.99153,-11.440684 12.39406,19.067804 0,10.80508 0.6356,11.12288 -1.58898,15.88983 -10.1695,28.28389 -12.71186,11.12289 1.58898,-18.11441 -9.53389,2.54237 3.81356,-22.56356 -3.17797,-7.62711 -16.52543,-12.71186 -13.34745,7.30932 -10.1695,-0.3178 -9.85169,-4.76695 -4.13136,-0.6356 -7.94491,2.22458 -10.48729,11.44068 -2.54237,6.67373 1.58898,10.48728 1.90678,10.1695 z"
         id="path3366"
         inkscape:connector-curvature="0" />
      <path
         style="fill:#000000;stroke:none"
         inkscape:connector-curvature="0"
         id="path8"
         d="m 178,70.7 c 0,0.5 0.9,2.1 1.9,3.6 1,1.6 1.6,3.7 1.4,4.7 -0.3,1 -3.9,5 -8,9 -4.1,3.9 -8,8.4 -8.6,10 l -1.3,2.9 -6.1,-4 c -7.5,-4.7 -8.6,-4.9 -7.2,-1.2 1.2,3.2 0.7,5.6 -2.1,10.1 l -2.1,3.4 -2.8,-3.6 c -2.2,-2.7 -3.1,-3.3 -3.9,-2.3 -1.4,1.8 -6.2,11.4 -7.9,16.1 -1.8,4.7 -3.6,19.7 -3.7,30.6 -0.1,8.5 1.9,13.7 7.9,20.7 1.9,2.3 3.5,4.7 3.5,5.5 0,3.9 2.6,9.5 6.1,13.3 5,5.4 14.1,12.5 16.1,12.5 2,0 11.2,10.8 11.8,13.9 0.4,2.2 1.1,2.6 4,2.7 1.9,0.1 5.5,1.1 8,2.2 2.5,1.2 7.9,2.7 11.9,3.3 8.7,1.5 17.4,0.2 26.3,-3.8 4.4,-1.9 6.6,-2.4 9.4,-1.9 l 3.6,0.7 -0.7,-3.1 c -0.6,-2.7 -0.2,-3.7 2.2,-6.3 1.7,-1.8 3.7,-4.2 4.5,-5.4 0.8,-1.2 4.2,-4 7.5,-6.3 8.6,-5.7 13.4,-12.4 14.8,-20.7 0.4,-2.4 1.1,-4.5 1.6,-4.9 2.1,-1.2 6,-10.7 7,-17.1 0.9,-4.8 0.9,-8.8 0.2,-13.8 -0.7,-4.5 -0.7,-8.2 -0.1,-10.4 1.3,-4.6 0.3,-11.2 -2.5,-17.5 -2.3,-5 -12,-17.6 -13.5,-17.6 -0.5,0 -1.6,2.3 -2.7,5.2 -1.7,4.7 -1.9,4.9 -2.7,2.8 -0.5,-1.3 -0.4,-2.7 0.2,-3.5 0.7,-0.8 0.1,-2 -2,-4 -1.6,-1.6 -4.2,-4.6 -5.6,-6.7 -1.5,-2.1 -2.9,-3.8 -3.3,-3.8 -0.3,0 -1.4,2 -2.5,4.5 l -1.8,4.5 -5.7,-5.8 c -4.9,-5.2 -12.2,-9.4 -13.7,-8 -0.2,0.3 0.3,2.1 1.1,4.1 0.8,2 1.5,4.9 1.5,6.4 0,2.6 -0.5,2.3 -7.3,-4.8 -8.1,-8.5 -15.6,-13 -25.9,-15.4 -7.2,-1.7 -8.8,-1.8 -8.8,-0.8 z m 18.8,8.8 c 9.8,4.9 16,12.5 17.7,21.8 0.4,2 1,3.7 1.4,3.7 0.4,0 2.2,-1.5 4,-3.4 2.7,-2.8 3.5,-4.5 3.9,-8.6 l 0.5,-5.1 2.9,2.7 c 3.7,3.6 5.8,10.9 5.2,17.7 l -0.5,5.2 4.8,-9.3 c 2.6,-5 5.1,-9.2 5.4,-9.2 0.4,0 1.4,2.1 2.3,4.7 2.2,6.4 2,15.2 -0.4,21.5 -1.1,2.8 -1.8,5.3 -1.6,5.5 1,1 10.7,-11.2 13.2,-16.5 1.5,-3.4 3.1,-6.2 3.4,-6.2 1,0 6.7,9.5 8.5,14.2 1.3,3.5 1.6,6 1.1,9.5 -0.9,5.9 -0.9,5.8 0,16.4 0.8,10.7 -0.6,17.2 -5.2,23.9 -1.9,2.7 -3.4,6.2 -3.4,7.7 0,4.1 -3.7,10.8 -8.1,14.8 -2.3,2 -4.3,3.5 -4.5,3.3 -0.2,-0.3 0.1,-2 0.6,-3.9 0.6,-1.8 1,-5.2 1,-7.5 0,-2.8 0.6,-4.7 2,-5.9 3,-2.7 2.4,-3.9 -0.7,-1.7 -1.6,1 -4.3,2.4 -6,3 -3.2,1.1 -3.3,1 -3.3,-1.8 0,-1.6 0.7,-5.9 1.6,-9.7 1.3,-5.5 1.4,-7.8 0.4,-11.9 -1,-4.9 -3.9,-10.3 -4,-7.6 0,1 -7.5,-4.4 -12.3,-8.8 -0.5,-0.4 1.1,-1.7 3.5,-2.9 3,-1.5 3.7,-2.1 2.2,-2.1 -1.2,0 -6.7,2.3 -12.3,5.1 -13.4,6.7 -16.2,7.1 -25.2,2.9 -5.6,-2.6 -7.7,-3.1 -10.7,-2.5 -4.9,0.9 -8.5,2.9 -13.4,7.3 -3.6,3.2 -4.1,3.4 -3.6,1.4 0.9,-3.4 0.1,-2.7 -2.3,2 -1.8,3.6 -2.1,5.3 -1.5,11.7 0.3,4.2 0.9,9.7 1.4,12.3 0.5,2.7 0.7,5 0.5,5.2 -0.8,0.8 -7.2,-1.9 -9.7,-4.1 -3.3,-2.9 -3.4,-1.4 -0.1,2.5 1.7,2 2.5,4.2 2.5,6.8 0.1,2.2 0.7,5.6 1.4,7.6 1.7,4.9 0.6,4.9 -5.8,0.4 -6.3,-4.4 -9.7,-9.3 -10.1,-14.5 -0.2,-3.1 -1.2,-5.1 -4,-8.2 -7.4,-8.2 -10.5,-19.7 -7.4,-27.6 0.6,-1.5 1.2,-6 1.3,-9.8 0.2,-6.6 3.7,-18.5 5.4,-18.5 0.4,0 1.5,2 2.5,4.4 1,2.3 3.1,5.5 4.7,7.1 l 2.9,2.8 -0.6,-5.7 c -0.5,-5 -0.2,-6.5 2.8,-13.1 1.9,-4.1 3.9,-7.4 4.6,-7.5 0.6,0 3.7,2.4 6.9,5.2 l 5.7,5.3 -0.5,-4.1 c -0.8,-6 1.8,-10.9 9.2,-17.3 5.9,-5.2 9.8,-11.1 8.5,-13.1 -1.3,-2.2 4.6,-0.8 11.3,2.5 z m -3.3,64.1 c 6.3,3.3 7.4,3.6 13.1,3.1 4.2,-0.3 7.7,-1.3 11.2,-3.3 l 5,-2.8 5.1,3.3 c 5.7,3.7 11.9,10.3 12.7,13.7 0.3,1.2 -0.1,4.5 -1,7.3 -0.8,2.8 -1.8,7.9 -2.2,11.3 l -0.7,6.1 4.8,-0.7 4.7,-0.8 -0.7,4.4 c -1.2,7.8 -9.5,22.8 -12.6,22.8 -0.4,0 -1.5,-2.1 -2.2,-4.7 -1.3,-4.6 -1.6,-4.8 -7.3,-6.7 -9,-2.9 -26.6,-2.8 -36.1,0.2 -7.1,2.2 -7.1,2.2 -8.8,7.2 -0.9,2.7 -2,5.2 -2.5,5.5 -1.4,0.9 -8.1,-7.6 -11,-13.9 -1.6,-3.3 -3.1,-8 -3.5,-10.4 l -0.7,-4.3 4.1,0.7 4.1,0.7 0,-3.9 c 0,-2.2 -0.9,-7.3 -1.9,-11.4 -2.1,-8.6 -1.7,-10.1 4.7,-17.2 3.8,-4.2 11.6,-9.8 13.7,-9.8 0.7,0 4.3,1.6 8,3.6 z m 28.1,55.8 c 4.8,1.5 5.2,1.9 6.4,6.1 1.4,4.9 0.8,8 -1.4,7.2 -0.8,-0.3 -6.1,-1.3 -11.8,-2.3 -10,-1.6 -10.7,-1.6 -22.7,0.5 -6.8,1.2 -12.6,1.9 -12.9,1.7 -0.4,-0.5 2.7,-9.6 3.8,-10.8 0.3,-0.5 3.9,-1.7 8,-2.8 8.7,-2.4 22.1,-2.2 30.6,0.4 z m -7.6,14.7 c 3.8,0.7 6.7,1.5 6.5,1.9 -1.2,1.9 -13.6,4.3 -19.7,3.7 -7.2,-0.7 -13.8,-2.4 -13.8,-3.6 0,-0.9 10.6,-2.7 16.8,-3 1.8,0 6.4,0.4 10.2,1 z" />
    </g>
  </g>
  <g
     id="g4146"
     transform="translate(4.471187,0)">
    <circle
       r="6.3559327"
       cy="504.88983"
       cx="773.88977"
       id="path4142"
       style="fill:#000000;fill-opacity:1;stroke:none" />
    <circle
       style="fill:#000000;fill-opacity:1;stroke:none"
       id="circle4144"
       cx="797.8894"
       cy="504.88983"
       r="6.3559327" />
  </g>
</svg>
