<?xml version="1.0" encoding="UTF-8" standalone="no"?>
<svg
   xmlns:dc="http://purl.org/dc/elements/1.1/"
   xmlns:cc="http://creativecommons.org/ns#"
   xmlns:rdf="http://www.w3.org/1999/02/22-rdf-syntax-ns#"
   xmlns:svg="http://www.w3.org/2000/svg"
   xmlns="http://www.w3.org/2000/svg"
   xmlns:xlink="http://www.w3.org/1999/xlink"
   xmlns:sodipodi="http://sodipodi.sourceforge.net/DTD/sodipodi-0.dtd"
   xmlns:inkscape="http://www.inkscape.org/namespaces/inkscape"
   id="svg2"
   viewBox="0 0 908.15 1379.8"
   version="1.1"
   inkscape:version="0.48.4 r9939"
   width="100%"
   height="100%"
   sodipodi:docname="i.svg"
   inkscape:export-filename="C:\git\UI-UX\people\i.png"
   inkscape:export-xdpi="90"
   inkscape:export-ydpi="90">
  <sodipodi:namedview
     pagecolor="#ffffff"
     bordercolor="#666666"
     borderopacity="1"
     objecttolerance="10"
     gridtolerance="10"
     guidetolerance="10"
     inkscape:pageopacity="0"
     inkscape:pageshadow="2"
     inkscape:window-width="1920"
     inkscape:window-height="1017"
     id="namedview80"
     showgrid="false"
     inkscape:zoom="0.34207856"
     inkscape:cx="452.99852"
     inkscape:cy="598.13882"
     inkscape:window-x="-8"
     inkscape:window-y="-8"
     inkscape:window-maximized="1"
     inkscape:current-layer="svg2" />
  <title
     id="title10066">Male cartoon avatar</title>
  <defs
     id="defs4">
    <linearGradient
       id="linearGradient18943">
      <stop
         id="stop18945"
         stop-color="#d39f86"
         offset="0" />
      <stop
         id="stop18947"
         stop-color="#d39f86"
         stop-opacity="0"
         offset="1" />
    </linearGradient>
    <linearGradient
       id="linearGradient10463"
       x1="340.82"
       xlink:href="#linearGradient18943"
       gradientUnits="userSpaceOnUse"
       y1="356.84"
       gradientTransform="matrix(-1,0,0,1,645.99,104.2)"
       x2="316.22"
       y2="371.76" />
    <linearGradient
       id="linearGradient10465"
       x1="428.26"
       gradientUnits="userSpaceOnUse"
       x2="429.86"
       y1="337.01"
       y2="360.72">
      <stop
         id="stop18294"
         stop-color="#5d401c"
         offset="0" />
      <stop
         id="stop18296"
         stop-color="#704e22"
         offset="1" />
    </linearGradient>
    <linearGradient
       id="linearGradient10467"
       x1="340.82"
       xlink:href="#linearGradient18943"
       gradientUnits="userSpaceOnUse"
       y1="356.84"
       gradientTransform="translate(-94.543,104.2)"
       x2="316.22"
       y2="371.76" />
    <linearGradient
       id="linearGradient10471"
       x1="371.12"
       gradientUnits="userSpaceOnUse"
       y1="430.8"
       gradientTransform="translate(-94.543,104.2)"
       x2="371.12"
       y2="433.57">
      <stop
         id="stop19090"
         stop-color="#c58c88"
         offset="0" />
      <stop
         id="stop19092"
         stop-color="#c58c88"
         stop-opacity="0"
         offset="1" />
    </linearGradient>
    <linearGradient
       id="linearGradient10473"
       x1="370.41"
       gradientUnits="userSpaceOnUse"
       y1="446.98"
       gradientTransform="matrix(0.85649,0,0,0.27744,-41.042,421.53)"
       x2="370.63"
       y2="429.63">
      <stop
         id="stop19082"
         stop-color="#c58c88"
         offset="0" />
      <stop
         id="stop19084"
         stop-color="#c58c88"
         stop-opacity="0"
         offset="1" />
    </linearGradient>
    <linearGradient
       id="linearGradient10475"
       x1="370.14"
       gradientUnits="userSpaceOnUse"
       y1="377.32"
       gradientTransform="matrix(.99815 .060791 -.060791 .99815 -70.704 79.956)"
       x2="370.93"
       y2="390.93">
      <stop
         id="stop18929"
         stop-color="#f1d5c5"
         offset="0" />
      <stop
         id="stop18931"
         stop-color="#f1d5c5"
         stop-opacity="0"
         offset="1" />
    </linearGradient>
    <linearGradient
       inkscape:collect="always"
       xlink:href="#linearGradient10471"
       id="linearGradient3128"
       gradientUnits="userSpaceOnUse"
       gradientTransform="translate(-94.543,104.2)"
       x1="371.12"
       y1="430.8"
       x2="371.12"
       y2="433.57" />
    <linearGradient
       inkscape:collect="always"
       xlink:href="#linearGradient10473"
       id="linearGradient3130"
       gradientUnits="userSpaceOnUse"
       gradientTransform="matrix(0.85649,0,0,0.27744,-41.042,421.53)"
       x1="370.41"
       y1="446.98"
       x2="370.63"
       y2="429.63" />
    <linearGradient
       inkscape:collect="always"
       xlink:href="#linearGradient18943"
       id="linearGradient4041"
       gradientUnits="userSpaceOnUse"
       gradientTransform="matrix(-3.2824,0,0,3.2824,1665.7976,-665.47392)"
       x1="340.82"
       y1="356.84"
       x2="316.22"
       y2="371.76" />
    <linearGradient
       inkscape:collect="always"
       xlink:href="#linearGradient18943"
       id="linearGradient4054"
       gradientUnits="userSpaceOnUse"
       gradientTransform="matrix(3.2824,0,0,3.2824,-764.92794,-651.0043)"
       x1="340.82"
       y1="356.84"
       x2="316.22"
       y2="371.76" />
    <linearGradient
       inkscape:collect="always"
       xlink:href="#linearGradient10475"
       id="linearGradient4074"
       gradientUnits="userSpaceOnUse"
       gradientTransform="matrix(3.2763276,0.19954038,-0.19954038,3.2763276,-679.57881,-745.05243)"
       x1="370.14"
       y1="377.32"
       x2="370.93"
       y2="390.93" />
    <linearGradient
       inkscape:collect="always"
       xlink:href="#linearGradient10473"
       id="linearGradient4142"
       gradientUnits="userSpaceOnUse"
       gradientTransform="matrix(2.8113428,0,0,0.91066906,-586.91626,376.13007)"
       x1="370.41"
       y1="446.98"
       x2="370.63"
       y2="429.63" />
    <linearGradient
       inkscape:collect="always"
       xlink:href="#linearGradient10471"
       id="linearGradient4145"
       gradientUnits="userSpaceOnUse"
       gradientTransform="matrix(3.2824,0,0,3.2824,-762.52794,-665.47392)"
       x1="371.12"
       y1="430.8"
       x2="371.12"
       y2="433.57" />
    <linearGradient
       inkscape:collect="always"
       xlink:href="#linearGradient18943"
       id="linearGradient4259"
       gradientUnits="userSpaceOnUse"
       gradientTransform="matrix(-3.2824,0,0,3.2824,1665.7976,-665.47392)"
       x1="340.82"
       y1="356.84"
       x2="316.22"
       y2="371.76" />
    <linearGradient
       inkscape:collect="always"
       xlink:href="#linearGradient18943"
       id="linearGradient4261"
       gradientUnits="userSpaceOnUse"
       gradientTransform="matrix(3.2824,0,0,3.2824,-764.92794,-651.0043)"
       x1="340.82"
       y1="356.84"
       x2="316.22"
       y2="371.76" />
    <linearGradient
       inkscape:collect="always"
       xlink:href="#linearGradient10471"
       id="linearGradient4263"
       gradientUnits="userSpaceOnUse"
       gradientTransform="matrix(3.2824,0,0,3.2824,-762.52794,-665.47392)"
       x1="371.12"
       y1="430.8"
       x2="371.12"
       y2="433.57" />
    <linearGradient
       inkscape:collect="always"
       xlink:href="#linearGradient10473"
       id="linearGradient4265"
       gradientUnits="userSpaceOnUse"
       gradientTransform="matrix(2.8113428,0,0,0.91066906,-586.91626,376.13007)"
       x1="370.41"
       y1="446.98"
       x2="370.63"
       y2="429.63" />
    <linearGradient
       inkscape:collect="always"
       xlink:href="#linearGradient10475"
       id="linearGradient4267"
       gradientUnits="userSpaceOnUse"
       gradientTransform="matrix(3.2763276,0.19954038,-0.19954038,3.2763276,-679.57881,-745.05243)"
       x1="370.14"
       y1="377.32"
       x2="370.93"
       y2="390.93" />
  </defs>
  <metadata
     id="metadata78">
    <rdf:RDF>
      <cc:Work>
        <dc:format>image/svg+xml</dc:format>
        <dc:type
           rdf:resource="http://purl.org/dc/dcmitype/StillImage" />
        <cc:license
           rdf:resource="http://creativecommons.org/licenses/publicdomain/" />
        <dc:publisher>
          <cc:Agent
             rdf:about="http://openclipart.org/">
            <dc:title>Openclipart</dc:title>
          </cc:Agent>
        </dc:publisher>
        <dc:title>Male cartoon avatar</dc:title>
        <dc:date>2013-08-15T22:48:36</dc:date>
        <dc:description>Male cartoon avatar example for tutorial http://ahninniah.blogspot.ru/2013/08/creating-male-cartoon-avatar-in-inkscape.html</dc:description>
        <dc:source>http://openclipart.org/detail/181856/male-cartoon-avatar--by-ahninniah-181856</dc:source>
        <dc:creator>
          <cc:Agent>
            <dc:title>AhNinniah</dc:title>
          </cc:Agent>
        </dc:creator>
        <dc:subject>
          <rdf:Bag>
            <rdf:li>Male</rdf:li>
            <rdf:li>avatar</rdf:li>
            <rdf:li>cartoon</rdf:li>
            <rdf:li>image</rdf:li>
            <rdf:li>svg</rdf:li>
            <rdf:li>vector</rdf:li>
          </rdf:Bag>
        </dc:subject>
      </cc:Work>
      <cc:License
         rdf:about="http://creativecommons.org/licenses/publicdomain/">
        <cc:permits
           rdf:resource="http://creativecommons.org/ns#Reproduction" />
        <cc:permits
           rdf:resource="http://creativecommons.org/ns#Distribution" />
        <cc:permits
           rdf:resource="http://creativecommons.org/ns#DerivativeWorks" />
      </cc:License>
    </rdf:RDF>
  </metadata>
  <g
     id="g4355">
    <g
       id="g4068">
      <path
         id="path10361"
         style="opacity:0.99100001;color:#000000;fill:#ecc8b2"
         d="m 454,84.5 c -225.77,0 -372.84,249.42 -372.66,316.45 0.061,22.532 -1.3858,49.866 -2.0515,78.676 -16.364,-14.228 -47.019,-36.29 -66.059,-21.028 -26.902,21.564 -8.8288,107.53 20.618,121.76 15.418,7.451 32.055,-2.559 44.518,-13.745 0.4207,66.793 4.3607,127.51 17.848,147.5 79.191,117.41 330.68,188.02 357.79,188.02 27.104,0 290.11,-62.751 353.58,-188.02 8.465,-16.707 16.864,-77.424 20.823,-146.38 12.317,10.716 28.385,19.819 43.287,12.617 29.447,-14.23 47.52,-100.19 20.618,-121.76 -17.42,-13.963 -44.606,3.288 -61.648,17.233 -0.3053,-26.661 -1.3683,-52.374 -3.8979,-74.881 -9.0722,-80.718 -146.99,-316.45 -372.76,-316.45 z"
         inkscape:connector-curvature="0" />
      <path
         id="path10367"
         d="m 877.5,474.5 c -0.3303,4.095 0.024,10.455 0.7496,17.699 a 10.701,10.701 0 0 1 0.027,0.228 c 0.2218,2.738 0.5364,5.517 0.7269,8.322 a 10.701,10.701 0 0 1 -12.026,11.385 c -3.6313,-0.448 -10.28,0.594 -16.003,3.317 -5.9465,2.83 -9.9235,6.374 -12.08,9.406 -2.1401,3.008 -1.7831,4.257 -1.872,4.014 -0.2943,-0.803 -0.4512,0.124 3.3324,0.43 3.6928,0.299 10.115,-0.866 15.651,-3.552 0.3641,-0.177 0.9383,-0.571 2.2018,-1.282 a 10.701,10.701 0 0 1 15.816,11.214 c -0.1857,1.035 -0.2202,1.841 -0.3188,2.718 2.8859,-1.873 6.422,-4.908 10.086,-10.227 3.0015,-4.342 5.8202,-10.658 6.634,-18.544 0.063,-0.899 0.041,-1.659 0.05,-2.27 0.1011,-7.112 -1.4387,-13.092 -3.4405,-17.79 a 10.701,10.701 0 0 1 0.035,-0.1 c -2.9937,-7.207 -6.6666,-12.124 -9.569,-14.971 z"
         inkscape:connector-curvature="0"
         style="opacity:0.99100001;fill:#d39f86;fill-rule:evenodd" />
      <path
         id="path10453"
         d="m 31.5,474.5 c 0.3303,4.095 -0.024,10.455 -0.7495,17.699 a 10.701,10.701 0 0 0 -0.027,0.228 c -0.2218,2.738 -0.5365,5.517 -0.7269,8.322 a 10.701,10.701 0 0 0 12.026,11.385 c 3.6314,-0.448 10.28,0.594 16.003,3.317 5.9465,2.83 9.9236,6.374 12.08,9.406 2.1401,3.008 1.7832,4.257 1.8721,4.014 0.2943,-0.803 0.4512,0.124 -3.3325,0.43 -3.6927,0.299 -10.115,-0.866 -15.651,-3.552 -0.3641,-0.177 -0.9383,-0.571 -2.2018,-1.282 a 10.701,10.701 0 0 0 -15.816,11.214 c 0.1857,1.035 0.2203,1.841 0.3188,2.718 -2.8859,-1.873 -6.4219,-4.908 -10.086,-10.227 -3.0015,-4.342 -5.8202,-10.658 -6.6339,-18.544 -0.063,-0.899 -0.041,-1.659 -0.049,-2.27 -0.1012,-7.112 1.4387,-13.092 3.4405,-17.79 a 10.701,10.701 0 0 0 -0.035,-0.1 c 2.9938,-7.207 6.6667,-12.124 9.569,-14.971 z"
         inkscape:connector-curvature="0"
         style="opacity:0.99100001;fill:#d39f86;fill-rule:evenodd" />
    </g>
    <g
       id="g4115">
      <g
         id="g4102">
        <path
           id="path10379"
           d="m 542.03511,395.95577 c -1.18583,-1.29186 -1.02014,-3.76098 0.46548,-7.1924 1.48561,-3.43175 4.29436,-7.82819 8.50076,-12.80004 4.20607,-4.97186 9.81602,-10.52075 16.93521,-16.04372 7.11887,-5.52296 15.75519,-11.01672 25.93359,-15.67083 h 3e-5 c 11.96862,-5.44025 26.11182,-9.37027 41.35168,-10.22895 5.88994,-0.33178 11.73852,-0.19563 17.45121,0.38683 9.94042,1.08185 19.2132,3.50265 27.50913,6.74337 8.29594,3.24042 15.61635,7.29513 21.83945,11.63709 12.39533,8.65996 20.4336,18.10769 24.86057,25.4212 4.42697,7.31319 5.35064,12.48757 3.29717,14.32702 -2.05324,1.83936 -6.8356,0.20679 -13.78378,-3.21176 -6.94819,-3.41855 -16.13825,-8.6186 -27.42117,-13.19328 -11.22417,-4.54645 -24.6656,-8.51619 -39.12621,-9.3509 -4.13779,-0.27736 -8.399,-0.28951 -12.75212,-0.0351 -11.26356,0.65828 -22.16736,3.02942 -32.0743,6.11445 h -4e-5 c -8.5792,2.65592 -16.45106,5.91587 -23.5499,9.1172 -7.09852,3.20126 -13.42141,6.34061 -18.8505,8.88381 -10.8585,5.08641 -18.21272,7.67983 -20.58458,5.09626 z"
           inkscape:connector-curvature="0"
           style="opacity:0.99100001;fill:#bdb490;fill-opacity:1;fill-rule:evenodd" />
        <g
           id="g4077">
          <path
             inkscape:connector-curvature="0"
             style="opacity:0.99100001;fill:url(#linearGradient4259)"
             d="m 558.47994,475.75091 c -32.46721,40.17658 22.6305,70.39435 65.28365,70.39435 0,0 -74.75994,-54.94737 -65.28365,-70.39435 z"
             id="path10375" />
          <path
             style="opacity:0.99100001;fill:#d39f86"
             inkscape:connector-curvature="0"
             d="m 550.83194,481.889 c 3.00527,21.68485 47.11886,52.61687 86.25819,53.22083 43.00601,0.66065 86.63895,-38.80453 86.25819,-71.56945 -0.24749,-21.25912 -54.63226,-50.29293 -86.25819,-47.71296 -34.10085,2.78065 -90.35134,36.52654 -86.25819,66.06486 z"
             id="path10377" />
          <path
             style="opacity:0.99100001;fill:#ffffff"
             inkscape:connector-curvature="0"
             d="m 555.49295,481.46229 c 2.25475,20.27899 43.30799,41.1416 79.78858,41.70289 40.08139,0.61575 81.35757,-28.26836 81.00307,-58.80748 -0.23043,-19.81388 -50.30935,-39.58246 -79.78858,-37.17974 -31.78381,2.59162 -83.12022,35.24641 -81.00307,54.28433 z"
             id="path10381" />
          <path
             style="opacity:0.99100001;fill:#214478;fill-opacity:0.07843101"
             inkscape:connector-curvature="0"
             d="m 555.49295,481.46229 c 0,0 40.06826,-19.80239 73.98202,-26.08359 39.41834,-7.30072 86.80963,8.97966 86.80963,8.97966 3.42092,-13.68334 -45.66803,-40.91184 -78.67585,-36.82525 -50.92972,6.30812 -84.67935,44.94919 -82.11252,53.92655 z"
             id="path10387" />
        </g>
        <g
           id="g4062">
          <path
             inkscape:connector-curvature="0"
             d="m 677.92976,478.77072 c 0,22.71027 -18.41033,41.12191 -41.12191,41.12191 -22.71027,0 -41.12191,-18.41033 -41.12191,-41.12191 0,-22.71027 18.41033,-41.12191 41.12191,-41.12191 22.71027,0 41.12191,18.41033 41.12191,41.12191 z"
             style="opacity:0.99100001;color:#000000;fill:#818181;fill-opacity:1"
             id="path10383" />
          <path
             inkscape:connector-curvature="0"
             d="m 653.9856,478.78137 c 0,9.48563 -7.68962,17.1758 -17.1758,17.1758 -9.48562,0 -17.17579,-7.68963 -17.17579,-17.1758 0,-9.48562 7.68962,-17.1758 17.17579,-17.1758 9.48563,0 17.1758,7.68963 17.1758,17.1758 z"
             style="opacity:0.99100001;color:#000000;fill:#1a1a1a"
             id="path10385" />
          <path
             inkscape:connector-curvature="0"
             d="m 653.21,466.78996 c 0,3.10935 -2.52065,5.62997 -5.62997,5.62997 -3.10939,0 -5.62997,-2.52065 -5.62997,-5.62997 0,-3.10938 2.52062,-5.62997 5.62997,-5.62997 3.10935,0 5.62997,2.52062 5.62997,5.62997 z"
             style="opacity:0.99100001;color:#000000;fill:#ffffff"
             id="path10389" />
          <path
             inkscape:connector-curvature="0"
             d="m 600.85572,481.39664 c 0.0489,19.82865 16.05881,35.89961 35.89961,35.89961 19.84014,0 35.939,-16.0703 35.98823,-35.89961 h -15.424 c 0,0 -3.59225,20.33119 -20.5767,20.9509 -16.98478,0.61972 -23.56993,-20.9509 -23.56993,-20.9509 z"
             style="opacity:0.99100001;color:#000000;fill:#018080;fill-opacity:1"
             id="path10391" />
        </g>
      </g>
      <g
         id="g4089">
        <path
           id="path10397"
           d="m 363.34126,410.42539 c -2.37167,2.58367 -9.72608,-0.01 -20.58459,-5.09626 -5.42942,-2.54327 -11.75198,-5.68249 -18.8505,-8.88381 -7.09851,-3.20126 -14.97069,-6.46108 -23.5499,-9.1172 h -4e-5 c -9.90694,-3.08506 -20.81074,-5.456 -32.0743,-6.11445 -4.35311,-0.25439 -8.61433,-0.24224 -12.75212,0.0351 -14.46225,0.83462 -27.90335,4.80445 -39.12621,9.3509 -11.28325,4.57468 -20.47298,9.77466 -27.42117,13.19328 -6.94818,3.41862 -11.73064,5.05096 -13.78378,3.21176 -2.05324,-1.83936 -1.12967,-7.01383 3.2975,-14.32702 4.42697,-7.31318 12.46524,-16.76092 24.86057,-25.42087 6.22343,-4.34229 13.54351,-8.39671 21.83945,-11.63709 8.29594,-3.24042 17.56872,-5.66149 27.50914,-6.74337 5.71268,-0.58259 11.56126,-0.71861 17.4512,-0.38683 15.23953,0.85845 29.38273,4.78837 41.35168,10.22895 h 3e-5 c 10.1784,4.65444 18.81472,10.14819 25.93359,15.67083 7.11887,5.52297 12.72882,11.07154 16.93521,16.04371 4.20607,4.97186 7.01515,9.36863 8.50076,12.80005 1.48562,3.43175 1.65131,5.90044 0.46548,7.1924 z"
           inkscape:connector-curvature="0"
           style="opacity:0.99100001;fill:#bdb490;fill-opacity:1;fill-rule:evenodd" />
        <g
           id="g4083">
          <path
             inkscape:connector-curvature="0"
             style="opacity:0.99100001;fill:url(#linearGradient4261)"
             d="m 342.39954,490.22053 c 32.46721,40.17658 -22.6305,70.39435 -65.28365,70.39435 0,0 74.75994,-54.94737 65.28365,-70.39435 z"
             id="path10395" />
          <path
             style="opacity:0.99100001;fill:#d39f86"
             inkscape:connector-curvature="0"
             d="m 352.67346,496.35862 c -2.21359,21.78004 -47.11886,52.61687 -86.25819,53.22083 -43.00601,0.66065 -86.63895,-38.80453 -86.25819,-71.56945 0.24749,-21.25912 54.63226,-50.29293 86.25819,-47.71296 34.10085,2.78065 89.13685,37.74103 86.25819,66.06486 z"
             id="path10399" />
          <path
             style="opacity:0.99100001;fill:#ffffff"
             inkscape:connector-curvature="0"
             d="m 349.88342,495.93191 c -2.25475,20.27899 -41.48626,41.74884 -77.96357,42.31013 -40.08139,0.61575 -83.1793,-28.87593 -82.8248,-59.41472 0.23043,-19.81388 50.00737,-41.10221 79.48332,-38.69949 31.78381,2.59161 83.42219,36.76616 81.30505,55.80408 z"
             id="path10401" />
          <path
             style="opacity:0.99100001;fill:#214478;fill-opacity:0.07843101"
             inkscape:connector-curvature="0"
             d="m 349.88342,495.93191 c 0,0 -40.06826,-19.80239 -73.98202,-26.08359 -39.41834,-7.30072 -86.80963,8.97966 -86.80963,8.97966 -3.42092,-13.68334 47.38801,-42.17884 80.39582,-38.09225 50.92972,6.30811 82.95938,46.21619 80.39583,55.19355 z"
             id="path10407" />
        </g>
        <g
           id="g4056">
          <path
             inkscape:connector-curvature="0"
             d="m 227.4499,493.24034 c 0,22.71027 18.41032,41.12191 41.1219,41.12191 22.71027,0 41.12191,-18.41033 41.12191,-41.12191 0,-22.71027 -18.41032,-41.12191 -41.12191,-41.12191 -22.71027,0 -41.1219,18.41033 -41.1219,41.12191 z"
             style="opacity:0.99100001;color:#000000;fill:#808080"
             id="path10403" />
          <path
             inkscape:connector-curvature="0"
             d="m 251.39074,493.25101 c 0,9.48561 7.68964,17.17578 17.17581,17.17578 9.48561,0 17.17578,-7.68961 17.17578,-17.17578 0,-9.48565 -7.68961,-17.17582 -17.17578,-17.17582 -9.48561,0 -17.17581,7.68965 -17.17581,17.17582 z"
             style="opacity:0.99100001;color:#000000;fill:#1a1a1a"
             id="path10405" />
          <path
             inkscape:connector-curvature="0"
             d="m 274.49959,481.24917 c 0,3.10926 2.52055,5.62998 5.63,5.62998 3.10926,0 5.63001,-2.52056 5.63001,-5.62998 0,-3.10928 -2.52056,-5.63 -5.63001,-5.63 -3.10925,0 -5.63,2.52055 -5.63,5.63 z"
             style="opacity:0.99100001;color:#000000;fill:#ffffff"
             id="path10409" />
          <path
             inkscape:connector-curvature="0"
             d="m 304.52065,495.86626 c -0.0489,19.82865 -16.05882,35.89961 -35.89961,35.89961 -19.84014,0 -35.939,-16.0703 -35.98823,-35.89961 h 15.42399 c 0,0 3.59226,20.33119 20.57671,20.9509 16.98478,0.61972 23.56993,-20.9509 23.56993,-20.9509 z"
             style="opacity:0.99100001;color:#000000;fill:#008080"
             id="path10411" />
        </g>
      </g>
    </g>
    <g
       id="g4183">
      <g
         id="g4162">
        <path
           id="path10415"
           d="m 368.03894,758.62814 c 39.5923,-14.66215 127.37353,-19.48793 169.32916,3.42092 -41.22037,34.93458 -122.20703,38.37782 -169.32916,-3.42092 z"
           inkscape:connector-curvature="0"
           style="opacity:0.99100001;fill:#b9736e" />
        <path
           id="path10419"
           d="m 369.87708,757.97166 c 40.66237,-20.9404 124.33075,-23.8033 165.07518,3.35199 -23.10744,6.71579 -77.33991,-2.0646 -85.94965,-1.76376 -8.60973,0.30099 -49.74805,7.09064 -79.12881,-1.58829 z"
           inkscape:connector-curvature="0"
           style="opacity:0.99100001;fill:#b9736e" />
      </g>
      <path
         style="opacity:0.99100001;fill:#a65750"
         inkscape:connector-curvature="0"
         d="m 449.5081,767.09674 c -11.48479,0.28983 -50.07629,9.37519 -77.28739,-7.43661 48.00182,-5.60667 123.83839,0.79582 162.78735,1.68863 -19.46037,17.37145 -74.01484,5.45798 -85.49996,5.74814 z"
         id="path10417" />
      <g
         id="g4150">
        <path
           id="path10421"
           d="m 452.36379,744.21841 c -27.41493,-0.0538 -54.4386,4.81134 -74.05751,13.02719 12.54008,2.49098 26.44761,2.88181 38.77171,2.35922 14.88437,-0.63107 26.97542,-2.39576 31.79825,-2.56437 2.67299,-0.0935 7.49471,0.45389 14.15535,1.12832 6.66065,0.67444 14.97726,1.50091 23.69499,2.15408 14.19835,1.06379 29.35516,1.45591 40.41291,-0.10241 -19.61464,-10.65369 -46.95145,-15.94689 -74.77635,-16.0017 z"
           style="opacity:0.99100001;fill:url(#linearGradient4263)"
           inkscape:connector-curvature="0" />
        <path
           id="path10423"
           d="m 451.08366,783.93545 c -27.52687,0.0486 -59.32282,-12.65726 -59.32282,-12.65726 l 125.6076,0.93912 c 0,0 -38.75858,11.66926 -66.28478,11.71817 z"
           style="opacity:0.99100001;fill:url(#linearGradient4265)"
           inkscape:connector-curvature="0" />
      </g>
    </g>
    <g
       transform="translate(1.9999999,0)"
       style="fill:#bdb490;fill-opacity:1"
       id="g3964">
      <path
         id="path10369"
         d="m 829.4,482.5 c 0,0 82.019,-105.39 78.679,-166.77 -4.6199,-84.896 -96.209,-216.92 -133.22,-217.51 -21.809,-0.348 -61.007,23.662 -61.007,23.662 0,0 2.17,-62.243 -20.38,-74.986 -72.756,-41.114 -342.24,-78.739 -486.66,-4.838 -99.419,50.874 -182.52,188.78 -193.28,273.67 -10.762,84.888 63.286,166.77 63.286,166.77 0,0 1.0905,-91.773 39.687,-162.57 24.23,-44.445 63.52,-79.622 103.11,-83.913 41.058,-4.449 204.68,84.366 236.91,85.522 32.235,1.155 164.22,-87.056 215.51,-85.522 42.626,1.276 83.334,52.07 116.51,111.84 33.179,59.774 40.846,134.64 40.846,134.64 z"
         inkscape:connector-curvature="0"
         style="opacity:0.99100001;fill:#bdb490;fill-opacity:1" />
      <path
         id="path10435"
         d="m 564.1,10.5 c 123.8,43.533 116.49,141.18 85.344,228.74 5.5651,-1.463 10.684,-2.494 15.386,-2.974 52.489,-47.762 107.15,-96.121 181.46,-71.906 -26.215,-38.161 -54.571,-65.892 -71.496,-66.162 -21.809,-0.347 -60.93,23.593 -60.93,23.593 0,0 2.1379,-62.241 -20.413,-74.984 C 668.784,32.868 621.457,19.422 564.101,10.495 z"
         inkscape:connector-curvature="0"
         style="opacity:0.99100001;fill:#bdb490;fill-opacity:1" />
    </g>
    <g
       id="g4192">
      <path
         style="opacity:0.99100001;fill:#d39f86"
         inkscape:connector-curvature="0"
         d="m 520.74235,619.81545 c -1.71213,4.43583 -8.78552,21.39988 -18.37341,26.62284 -13.04525,7.10639 -34.69216,10.12166 -49.54699,10.32878 -13.92001,0.19399 -30.53456,-1.70526 -42.96928,-7.96644 -10.20695,-5.13958 -22.68102,-22.49555 -24.95047,-26.24175 -4.15749,-6.86219 31.19593,-42.91082 31.19593,-42.91082 l -18.36799,33.39514 c 0,0 11.15451,14.24093 17.99142,17.39892 11.71653,5.41203 24.19662,9.48295 37.09973,9.22233 13.30915,-0.26916 28.01367,-4.28404 39.95275,-10.17267 6.69576,-3.30242 15.13905,-18.58345 15.13905,-18.58345 l -14.66707,-31.26027 c 0,0 30.44819,32.51808 27.49502,40.17001 z"
         id="path10445"
         sodipodi:nodetypes="cssscccscscccc" />
      <path
         inkscape:connector-curvature="0"
         style="opacity:0.99100001;fill:url(#linearGradient4267)"
         d="m 432.64274,568.8726 -23.34772,29.99818 39.64155,20.4917 47.29282,-20.36204 -19.84802,-27.46417 c -11.18839,-10.88444 -24.22017,-16.33651 -43.74126,-2.6639 z"
         id="path10447" />
    </g>
    <g
       style="fill:#bdb490;fill-opacity:1"
       id="g3958">
      <path
         id="path10437"
         d="m 208.9,173.5 c -0.3754,-1.063 0.8024,-2.697 3.6364,-4.582 2.8339,-1.886 7.3395,-3.998 13.499,-5.64 6.1593,-1.643 13.986,-2.784 23.118,-2.787 9.1317,0 19.576,1.164 30.464,3.631 11.586,2.474 24.068,6.172 37.064,11.073 12.996,4.901 26.504,11.006 40.223,17.897 21.049,10.527 42.645,23.154 64.88,35.785 4.0352,2.282 8.0001,4.534 11.93,6.658 3.5824,1.936 7.0919,3.741 10.561,5.351 5.5546,2.021 8.4039,4.091 8.9215,3.486 0.2058,0.493 2.138,-0.669 5.5727,-1.919 4.4683,-2.082 9.0784,-5.092 14.07,-8.34 14.149,-9.334 28.015,-19.209 42.215,-27.487 9.9024,-5.791 19.838,-10.75 29.546,-14.703 9.7075,-3.953 19.185,-6.903 28.166,-8.888 10.78,-2.36 20.716,-3.193 29.364,-3.119 8.6479,0.07 16.013,1.047 21.894,2.342 5.8812,1.295 10.285,2.903 13.155,4.399 2.8693,1.497 4.2101,2.874 4.0046,3.958 -0.2055,1.084 -1.9428,1.829 -4.9867,2.413 -3.044,0.584 -7.3997,1.018 -12.875,1.671 -5.4756,0.653 -12.078,1.534 -19.556,3.084 -7.4777,1.551 -15.837,3.777 -24.67,7.101 -7.4509,2.776 -15.282,6.34 -23.409,10.733 -8.1264,4.392 -16.548,9.615 -25.208,15.51 -12.25,8.375 -25.028,18.64 -39.686,29.107 -5.0818,3.676 -10.836,7.592 -17.642,11.121 -4.4941,2.696 -11.123,5.089 -19.939,5.587 -10.472,-0.6 -18.068,-3.62 -22.69,-6.303 -4.2554,-1.96 -8.3767,-4.052 -12.386,-6.208 -4.3982,-2.365 -8.6014,-4.772 -12.655,-7.129 -22.668,-13.117 -43.441,-26.193 -62.941,-37.321 -12.89,-7.32 -25.118,-13.995 -36.672,-19.652 -11.553,-5.658 -22.434,-10.301 -32.533,-13.943 -9.5327,-3.291 -18.317,-5.895 -26.042,-7.608 -7.7247,-1.714 -14.404,-2.562 -19.931,-2.965 -5.5274,-0.403 -9.9166,-0.392 -13.055,-0.596 -3.1387,-0.204 -5.034,-0.654 -5.4095,-1.717 z"
         inkscape:connector-curvature="0"
         style="opacity:0.99100001;fill:#bdb490;fill-opacity:1;fill-rule:evenodd" />
      <path
         id="path10439"
         d="M 41.4,409.5 C 19.448,365.597 29.952,316.308 51.704,272.14 c 18.182,-36.549 47.174,-69.199 84.793,-86.233 5.0773,-3.022 25.437,-8.887 17.682,2.915 -14.009,16.358 -30.246,30.799 -43.047,48.228 -35.006,44.918 -61.404,101.48 -58.19,162.66 0.6727,12.807 10.085,37.127 10.085,37.127 0,0 -16.43,-16.946 -21.626,-27.339 z"
         inkscape:connector-curvature="0"
         style="opacity:0.99100001;fill:#bdb490;fill-opacity:1;fill-rule:evenodd" />
      <path
         id="path10441"
         d="m 207.1,70.5 c -0.046,-1.252 1.8468,-2.567 5.5609,-3.775 3.714,-1.208 9.2526,-2.3 16.427,-2.918 7.1745,-0.617 15.987,-0.75 26.136,-0.01 10.148,0.733 21.633,2.341 34.013,5.076 11.056,2.432 22.838,5.722 35.091,9.889 12.252,4.167 24.973,9.213 37.927,15.003 18.301,8.174 36.841,17.864 55.72,27.497 2.7719,1.408 5.4972,2.795 8.1884,4.122 3.6498,1.801 7.1899,3.467 10.66,4.915 4.5674,1.64 7.45,3.127 8.8829,2.948 -0.1487,0.487 1.4413,-0.428 4.4129,-1.354 3.9056,-1.659 8.0335,-4.323 12.608,-7.264 13.043,-8.548 25.819,-17.912 39.048,-25.87 9.4006,-5.669 18.838,-10.552 28.076,-14.503 9.238,-3.95 18.275,-6.971 26.865,-9.092 10.568,-2.583 20.325,-3.699 28.852,-3.925 8.5265,-0.225 15.827,0.435 21.69,1.454 5.8632,1.019 10.295,2.392 13.212,3.735 2.9168,1.343 4.324,2.65 4.1829,3.766 -0.1411,1.115 -1.8193,1.988 -4.8053,2.769 -2.986,0.781 -7.284,1.476 -12.684,2.412 -5.4001,0.935 -11.908,2.116 -19.258,3.944 -7.35,1.827 -15.547,4.306 -24.193,7.836 -7.0952,2.87 -14.534,6.464 -22.234,10.818 -7.7,4.354 -15.662,9.47 -23.831,15.217 -11.311,7.987 -23.149,17.78 -36.988,27.635 -4.7663,3.453 -10.292,7.132 -16.953,10.373 -4.6289,2.598 -11.328,4.603 -19.993,4.569 -8.3235,-0.777 -14.822,-3.022 -19.451,-5.197 -4.3519,-1.798 -8.5429,-3.738 -12.599,-5.73 -2.9905,-1.468 -5.8791,-2.95 -8.6823,-4.408 -19.281,-9.978 -37.148,-19.965 -54.089,-28.515 -12.089,-6.093 -23.742,-11.625 -34.858,-16.468 -11.115,-4.843 -21.693,-8.998 -31.604,-12.486 -11.09,-3.893 -21.342,-6.985 -30.467,-9.433 -9.1253,-2.448 -17.127,-4.261 -23.75,-5.739 -6.6233,-1.479 -11.871,-2.634 -15.482,-3.77 -3.6115,-1.135 -5.5875,-2.262 -5.6335,-3.514 z"
         inkscape:connector-curvature="0"
         style="opacity:0.99100001;fill:#bdb490;fill-opacity:1;fill-rule:evenodd" />
      <path
         id="path10455"
         d="m 863.6,409.5 c 21.952,-43.903 11.448,-93.192 -10.304,-137.36 -18.182,-36.549 -47.174,-69.199 -84.793,-86.233 -5.0773,-3.022 -25.437,-8.887 -17.682,2.915 14.009,16.358 30.246,30.799 43.047,48.228 35.006,44.918 61.404,101.48 58.19,162.66 -0.6727,12.807 -10.085,37.127 -10.085,37.127 0,0 16.43,-16.946 21.626,-27.339 z"
         inkscape:connector-curvature="0"
         style="opacity:0.99100001;fill:#bdb490;fill-opacity:1;fill-rule:evenodd" />
    </g>
    <g
       id="g4341">
      <path
         id="path10355"
         style="opacity:0.99100001;color:#000000;fill:#e6e6e6"
         d="m 275.9,938.5 81.585,74.609 h 191.1 L 630.171,938.5 z"
         inkscape:connector-curvature="0" />
      <path
         id="path10357"
         style="opacity:0.99100001;color:#000000;fill:#ecc8b2"
         d="m 386.8,838.5 h 135.38 l 33.08,194.76 H 353.72 z"
         inkscape:connector-curvature="0" />
      <path
         id="path10359"
         style="opacity:0.99100001;color:#000000;fill:#d39f86"
         d="m 379.9,886.5 -9.8645,52.816 c 42.119,13.725 75.939,21.098 84.049,21.098 8.0473,0 42.733,-6.452 85.332,-19.279 L 529.1505,886.5 h -149.25 z"
         inkscape:connector-curvature="0" />
      <path
         id="path10363"
         style="opacity:0.99100001;color:#000000;fill:#ecc8b2"
         d="m 200.9,1016.5 h 506.9 v 361.54 H 200.9 z"
         inkscape:connector-curvature="0" />
      <path
         id="path10365"
         style="opacity:0.99100001;color:#000000;fill:#ececec"
         d="m 201,1014.5 v 364.97 H 707.87 V 1014.5 l -107.84,0.879 -150,87.222 -142.27,-87.885 -106.77,-0.216 z"
         inkscape:connector-curvature="0" />
      <path
         id="path10425"
         d="m 227.6,1014.5 h -18.227 l 159.19,255.58 47.391,-83.788 22.421,22.555 30.614,0.642 17.444,-23.197 41.677,83.788 168.1,-254.21 -33.582,-3.645 -113.01,167.69 -290.42,-188.35 z"
         inkscape:connector-curvature="0"
         style="opacity:0.99100001;fill:#b3b3b3" />
      <path
         id="path10427"
         style="opacity:0.99100001;color:#000000;fill:#0088aa"
         d="m 452,1144.5 -47.903,116.73 8.8215,118.99 h 79.907 l 10.258,-118.99 -51.083,-116.73 z"
         inkscape:connector-curvature="0" />
      <path
         id="path10429"
         style="opacity:0.99100001;color:#000000;fill:#0088aa"
         d="m 402.6,1148.5 49.504,-49.504 49.504,49.504 -49.504,49.504 z"
         inkscape:connector-curvature="0" />
      <path
         id="path10431"
         d="m 196.7,978.5 174.62,250.28 81.218,-129.55 -173.87,-160.62 z"
         inkscape:connector-curvature="0"
         style="opacity:0.99100001;fill:#f9f9f9" />
      <path
         id="path10433"
         d="M 709.4,978.5 534.78,1228.78 453.562,1099.23 627.432,938.61 z"
         inkscape:connector-curvature="0"
         style="opacity:0.99100001;fill:#f9f9f9" />
      <path
         id="path10449"
         style="opacity:0.99100001;color:#000000;fill:#00a4cd"
         d="m 432.3,1145.5 19.735,43.127 19.735,-43.127 -19.735,-43.127 -19.735,43.127 z"
         inkscape:connector-curvature="0" />
      <path
         id="path10451"
         style="opacity:0.99100001;color:#000000;fill:#00a4cd"
         d="m 452,1179.5 -32.824,78.676 22.054,121.24 h 26.567 l 17.13,-121.24 L 452,1179.5 z"
         inkscape:connector-curvature="0" />
    </g>
  </g>
</svg>
