<?xml version="1.0" encoding="UTF-8" standalone="no"?>
<svg
   xmlns:dc="http://purl.org/dc/elements/1.1/"
   xmlns:cc="http://creativecommons.org/ns#"
   xmlns:rdf="http://www.w3.org/1999/02/22-rdf-syntax-ns#"
   xmlns:svg="http://www.w3.org/2000/svg"
   xmlns="http://www.w3.org/2000/svg"
   xmlns:sodipodi="http://sodipodi.sourceforge.net/DTD/sodipodi-0.dtd"
   xmlns:inkscape="http://www.inkscape.org/namespaces/inkscape"
   version="1.0"
   width="400.000000pt"
   height="300.000000pt"
   viewBox="0 0 400.000000 300.000000"
   preserveAspectRatio="xMidYMid meet"
   id="svg2"
   inkscape:version="0.48.4 r9939"
   sodipodi:docname="K.A.svg">
  <defs
     id="defs14">
    <inkscape:path-effect
       is_visible="true"
       id="path-effect3917"
       effect="spiro" />
    <inkscape:path-effect
       effect="spiro"
       id="path-effect3805"
       is_visible="true" />
    <inkscape:path-effect
       effect="spiro"
       id="path-effect3793"
       is_visible="true" />
  </defs>
  <sodipodi:namedview
     pagecolor="#ffffff"
     bordercolor="#666666"
     borderopacity="1"
     objecttolerance="10"
     gridtolerance="10"
     guidetolerance="10"
     inkscape:pageopacity="0"
     inkscape:pageshadow="2"
     inkscape:window-width="1920"
     inkscape:window-height="1057"
     id="namedview12"
     showgrid="false"
     inkscape:zoom="0.89001174"
     inkscape:cx="237.75973"
     inkscape:cy="214.11547"
     inkscape:window-x="-8"
     inkscape:window-y="-8"
     inkscape:window-maximized="1"
     inkscape:current-layer="svg2" />
  <metadata
     id="metadata4">
Created by potrace 1.11, written by Peter Selinger 2001-2013
<rdf:RDF>
  <cc:Work
     rdf:about="">
    <dc:format>image/svg+xml</dc:format>
    <dc:type
       rdf:resource="http://purl.org/dc/dcmitype/StillImage" />
    <dc:title></dc:title>
  </cc:Work>
</rdf:RDF>
</metadata>
  <g
     id="g3850"
     transform="translate(375.72538,-6.2920519)">
    <rect
       ry="54.025421"
       y="1.2711862"
       x="41.599995"
       height="296.18646"
       width="296.18646"
       id="rect3810"
       style="fill:#046172;fill-opacity:1;fill-rule:evenodd;stroke:none" />
    <g
       id="g3834">
      <path
         sodipodi:type="arc"
         style="fill:#f8e1c4;fill-opacity:1;fill-rule:evenodd;stroke:none"
         id="path3013"
         sodipodi:cx="51.122921"
         sodipodi:cy="196.35068"
         sodipodi:rx="83.144974"
         sodipodi:ry="83.144974"
         d="m 134.26789,196.35068 c 0,45.9197 -37.225268,83.14497 -83.144969,83.14497 -45.919701,0 -83.144974,-37.22527 -83.144974,-83.14497 0,-45.9197 37.225273,-83.14498 83.144974,-83.14498 45.919701,0 83.144969,37.22528 83.144969,83.14498 z"
         transform="matrix(0.8,0,0,0.8,146.51492,-2.4988646)" />
      <g
         id="g3828">
        <path
           inkscape:connector-curvature="0"
           inkscape:original-d="m 142.44407,106.17712 1.27118,-0.4767 1.58899,-1.43008 1.43008,-1.11229 c 0,0 0.3178,-0.79449 1.11229,-0.95339 0.79449,-0.1589 2.70127,-2.06568 2.70127,-2.06568 l 2.54237,-1.747876 c 0,0 1.74789,-0.476696 2.38348,-0.794496 0.63559,-0.317792 4.44915,-0.953384 4.44915,-0.953384 l 3.65466,0.317792 4.92585,0.3178 3.33686,0.794488 4.44916,2.065676 0.63559,-0.953388 -0.3178,-2.383472 -1.43008,-2.224576 -0.95339,-1.271192 0.63559,-0.953384 2.54238,0 2.22457,0.794488 5.24364,2.701272 2.86017,2.224576 3.65467,3.813556 2.38347,3.33687 0,2.38347 -1.11229,2.06568 -1.90678,1.90678 3.49576,-1.11228 2.70128,-3.17797 1.27118,-2.38348 1.43009,-3.81355 0.31779,-3.654668 -0.15889,-4.766952 0.95339,-1.112288 3.49576,0.794496 1.90678,0.953384 2.70127,1.906784 2.22458,1.906776 1.27118,3.336868 -0.63559,1.58898 1.43008,-0.1589 2.70128,-1.27118 1.43008,-1.906784 0.95339,-1.74788 1.27119,-0.317792 2.70127,1.74788 9.2161,7.309316 -10.48729,-11.28178 -0.79449,-1.906776 -0.63559,-3.019064 -0.4767,-3.972464 0.1589,-3.336862 0.47669,-3.019068 -2.38347,0.317797 -4.13136,2.542373 -2.38347,2.542373 -1.58898,1.906779 -1.43009,2.383472 -2.38347,0.6356 -4.76695,-1.271192 -3.01907,-2.383472 -1.90678,-1.906781 -1.74788,-2.542373 -1.27119,-1.74788 0,-2.86017 0.95339,-3.972458 -2.22457,1.112288 -3.01907,2.701272 -1.90678,3.019068 -1.58898,3.177965 -0.6356,0.794492 c -1.43008,1.906777 -1.58898,1.906777 -1.58898,1.906777 l -4.13136,-2.065675 -2.22457,-2.065679 -1.90678,-2.383474 -0.1589,-2.86017 -0.1589,-1.74788 -0.63559,-0.794492 -1.11229,2.383474 -1.74788,3.019068 -1.43009,3.336865 -1.43008,1.906779 -1.58899,4.290256 -1.11228,0.953392 -1.74788,0.476688 c 0,0 -2.86017,0.953392 -3.81356,0.6356 -0.95339,-0.3178 -2.54238,-1.430088 -2.54238,-1.430088 l -1.43008,-1.112288 -0.79449,-1.906784 -0.6356,-4.29025 -0.31779,-2.542373 -2.22458,3.019068 -2.38347,4.449155 -1.58899,4.131352 -1.11228,3.019072 -1.58899,5.24364 z"
           inkscape:path-effect="#path-effect3805"
           id="path3803"
           d="m 142.44407,106.17712 1.27118,-0.4767 1.58899,-1.43008 1.43008,-1.11229 c 0.36539,-0.32399 0.73623,-0.64185 1.11229,-0.95339 0.87312,-0.72332 1.77446,-1.41257 2.70127,-2.06568 l 2.54237,-1.747876 c 0.78366,-0.295959 1.57898,-0.561065 2.38348,-0.794496 1.45787,-0.42301 2.94595,-0.741883 4.44915,-0.953384 1.21718,0.117514 2.43547,0.223451 3.65466,0.317792 1.6405,0.126942 3.28263,0.232887 4.92585,0.3178 l 3.33686,0.794488 4.44916,2.065676 0.63559,-0.953388 -0.3178,-2.383472 -1.43008,-2.224576 -0.95339,-1.271192 0.63559,-0.953384 2.54238,0 2.22457,0.794488 5.24364,2.701272 2.86017,2.224576 3.65467,3.813556 2.38347,3.33687 0,2.38347 -1.11229,2.06568 -1.90678,1.90678 3.49576,-1.11228 2.70128,-3.17797 1.27118,-2.38348 1.43009,-3.81355 0.31779,-3.654668 -0.15889,-4.766952 0.95339,-1.112288 3.49576,0.794496 1.90678,0.953384 2.70127,1.906784 2.22458,1.906776 1.27118,3.336868 -0.63559,1.58898 1.43008,-0.1589 2.70128,-1.27118 1.43008,-1.906784 0.95339,-1.74788 1.27119,-0.317792 2.70127,1.74788 9.2161,7.309316 -10.48729,-11.28178 -0.79449,-1.906776 -0.63559,-3.019064 -0.4767,-3.972464 0.1589,-3.336862 0.47669,-3.019068 -2.38347,0.317797 -4.13136,2.542373 c -0.82309,0.820024 -1.6182,1.668139 -2.38347,2.542373 -0.545,0.622599 -1.07487,1.258442 -1.58898,1.906779 l -1.43009,2.383472 -2.38347,0.6356 -4.76695,-1.271192 -3.01907,-2.383472 -1.90678,-1.906781 c -0.56937,-0.856472 -1.15209,-1.704067 -1.74788,-2.542373 -0.41735,-0.587231 -0.84111,-1.169904 -1.27119,-1.74788 l 0,-2.86017 0.95339,-3.972458 -2.22457,1.112288 -3.01907,2.701272 -1.90678,3.019068 -1.58898,3.177965 -0.6356,0.794492 c -0.51691,0.646132 -1.04043,1.287277 -1.58898,1.906777 l -4.13136,-2.065675 -2.22457,-2.065679 -1.90678,-2.383474 c -0.0322,-0.954394 -0.0851,-1.908086 -0.1589,-2.86017 -0.0452,-0.5833 -0.0981,-1.165996 -0.1589,-1.74788 l -0.63559,-0.794492 -1.11229,2.383474 -1.74788,3.019068 -1.43009,3.336865 -1.43008,1.906779 -1.58899,4.290256 -1.11228,0.953392 -1.74788,0.476688 c -0.6269,0.170972 -1.24994,0.357321 -1.88266,0.505316 -0.63272,0.147995 -1.29216,0.24964 -1.9309,0.130284 -0.48264,-0.09019 -0.93433,-0.305322 -1.35105,-0.564982 -0.41672,-0.259661 -0.80376,-0.563662 -1.19133,-0.865106 l -1.43008,-1.112288 -0.79449,-1.906784 c -0.23228,-1.426959 -0.44418,-2.857237 -0.6356,-4.29025 -0.11308,-0.846543 -0.21902,-1.694041 -0.31779,-2.542373 l -2.22458,3.019068 -2.38347,4.449155 c -0.53121,1.376522 -1.06087,2.75364 -1.58899,4.131352 -0.3839,1.001493 -0.76709,2.003587 -1.11228,3.019072 -0.58785,1.72933 -1.06438,3.494087 -1.58899,5.24364 -0.70736,2.359008 -1.50258,4.691678 -2.38347,6.991528"
           style="fill:#cc9a74;fill-opacity:1;stroke:none" />
        <path
           sodipodi:type="arc"
           style="fill:#5a939b;fill-opacity:1;fill-rule:evenodd;stroke:none"
           id="path3787"
           sodipodi:cx="20.505348"
           sodipodi:cy="176.40712"
           sodipodi:rx="5.8987985"
           sodipodi:ry="5.8987985"
           d="m 26.404147,176.40712 c 0,3.25782 -2.640982,5.8988 -5.898799,5.8988 -3.257816,0 -5.898798,-2.64098 -5.898798,-5.8988 0,-3.25782 2.640982,-5.8988 5.898798,-5.8988 3.257817,0 5.898799,2.64098 5.898799,5.8988 z"
           transform="matrix(0.8,0,0,0.8,148.8,0)" />
        <path
           transform="matrix(0.8,0,0,0.8,192,0)"
           d="m 26.404147,176.40712 c 0,3.25782 -2.640982,5.8988 -5.898799,5.8988 -3.257816,0 -5.898798,-2.64098 -5.898798,-5.8988 0,-3.25782 2.640982,-5.8988 5.898798,-5.8988 3.257817,0 5.898799,2.64098 5.898799,5.8988 z"
           sodipodi:ry="5.8987985"
           sodipodi:rx="5.8987985"
           sodipodi:cy="176.40712"
           sodipodi:cx="20.505348"
           id="path3789"
           style="fill:#5a939b;fill-opacity:1;fill-rule:evenodd;stroke:none"
           sodipodi:type="arc" />
        <path
           sodipodi:nodetypes="sssss"
           inkscape:connector-curvature="0"
           id="path3807"
           d="m 224.02949,173.54839 c 6.33242,-2.5597 -16.21642,24.55926 -36.22037,24.55926 -20.00395,0 -42.78012,-26.0256 -36.22036,-24.55926 13.94048,3.11618 16.21641,5.33897 36.22036,5.33897 20.00395,0 27.75649,-1.9177 36.22037,-5.33897 z"
           style="fill:#ffffff;fill-opacity:1;fill-rule:evenodd;stroke:none" />
      </g>
    </g>
    <rect
       ry="8.7394066"
       transform="scale(0.8,0.8)"
       y="166.84322"
       x="240.73093"
       height="17.478813"
       width="39.724575"
       id="rect3842"
       style="fill:none;stroke:none" />
    <rect
       style="fill:none;stroke:#000000;stroke-opacity:1"
       id="rect3844"
       width="39.724575"
       height="17.478813"
       x="240.73093"
       y="166.84322"
       transform="scale(0.8,0.8)"
       ry="8.7394066" />
    <rect
       ry="6.9915252"
       y="133.47458"
       x="146.18457"
       height="13.98305"
       width="31.779659"
       id="rect3846"
       style="fill:none;stroke:#000000;stroke-opacity:1" />
    <rect
       ry="1.6049532"
       y="138.83415"
       x="175.42374"
       height="3.2099063"
       width="19.067797"
       id="rect3848"
       style="fill:#000000;fill-opacity:1;stroke:none" />
  </g>
  <g
     id="g3969"
     inkscape:export-filename="C:\git\UI-UX\Pictures\people\K.A.png"
     inkscape:export-xdpi="90"
     inkscape:export-ydpi="90">
    <rect
       style="fill:#046172;fill-opacity:1;fill-rule:evenodd;stroke:none"
       id="rect3866"
       width="296.18646"
       height="296.18646"
       x="41.599995"
       y="1.2711862"
       ry="54.025421" />
    <g
       id="g3930">
      <path
         transform="matrix(0.8,0,0,0.8,146.51492,-2.4988646)"
         d="m 134.26789,196.35068 a 83.144974,83.144974 0 1 1 -166.289943,0 83.144974,83.144974 0 1 1 166.289943,0 z"
         sodipodi:ry="83.144974"
         sodipodi:rx="83.144974"
         sodipodi:cy="196.35068"
         sodipodi:cx="51.122921"
         id="path3870"
         style="fill:#f8e1c4;fill-opacity:1;fill-rule:evenodd;stroke:none"
         sodipodi:type="arc" />
      <g
         id="g3923">
        <path
           style="fill:#7e4121;fill-opacity:1;stroke:none"
           d="m 142.44407,106.17712 1.27118,-0.4767 1.58899,-1.43008 1.43008,-1.11229 c 0.36539,-0.32399 0.73623,-0.64185 1.11229,-0.95339 0.87312,-0.72332 1.77446,-1.41257 2.70127,-2.06568 l 2.54237,-1.747876 c 0.78366,-0.295959 1.57898,-0.561065 2.38348,-0.794496 1.45787,-0.42301 2.94595,-0.741883 4.44915,-0.953384 1.21718,0.117514 2.43547,0.223451 3.65466,0.317792 1.6405,0.126942 3.28263,0.232887 4.92585,0.3178 l 3.33686,0.794488 4.44916,2.065676 0.63559,-0.953388 -0.3178,-2.383472 -1.43008,-2.224576 -0.95339,-1.271192 0.63559,-0.953384 2.54238,0 2.22457,0.794488 5.24364,2.701272 2.86017,2.224576 3.65467,3.813556 2.38347,3.33687 0,2.38347 -1.11229,2.06568 -1.90678,1.90678 3.49576,-1.11228 2.70128,-3.17797 1.27118,-2.38348 1.43009,-3.81355 0.31779,-3.654668 -0.15889,-4.766952 0.95339,-1.112288 3.49576,0.794496 1.90678,0.953384 2.70127,1.906784 2.22458,1.906776 1.27118,3.336868 -0.63559,1.58898 1.43008,-0.1589 2.70128,-1.27118 1.43008,-1.906784 0.95339,-1.74788 1.27119,-0.317792 2.70127,1.74788 9.2161,7.309316 -10.48729,-11.28178 -0.79449,-1.906776 -0.63559,-3.019064 -0.4767,-3.972464 0.1589,-3.336862 0.47669,-3.019068 -2.38347,0.317797 -4.13136,2.542373 c -0.82309,0.820024 -1.6182,1.668139 -2.38347,2.542373 -0.545,0.622599 -1.07487,1.258442 -1.58898,1.906779 l -1.43009,2.383472 -2.38347,0.6356 -4.76695,-1.271192 -3.01907,-2.383472 -1.90678,-1.906781 c -0.56937,-0.856472 -1.15209,-1.704067 -1.74788,-2.542373 -0.41735,-0.587231 -0.84111,-1.169904 -1.27119,-1.74788 l 0,-2.86017 0.95339,-3.972458 -2.22457,1.112288 -3.01907,2.701272 -1.90678,3.019068 -1.58898,3.177965 -0.6356,0.794492 c -0.51691,0.646132 -1.04043,1.287277 -1.58898,1.906777 l -4.13136,-2.065675 -2.22457,-2.065679 -1.90678,-2.383474 c -0.0322,-0.954394 -0.0851,-1.908086 -0.1589,-2.86017 -0.0452,-0.5833 -0.0981,-1.165996 -0.1589,-1.74788 l -0.63559,-0.794492 -1.11229,2.383474 -1.74788,3.019068 -1.43009,3.336865 -1.43008,1.906779 -1.58899,4.290256 -1.11228,0.953392 -1.74788,0.476688 c -0.6269,0.170972 -1.24994,0.357321 -1.88266,0.505316 -0.63272,0.147995 -1.29216,0.24964 -1.9309,0.130284 -0.48264,-0.09019 -0.93433,-0.305322 -1.35105,-0.564982 -0.41672,-0.259661 -0.80376,-0.563662 -1.19133,-0.865106 l -1.43008,-1.112288 -0.79449,-1.906784 c -0.23228,-1.426959 -0.44418,-2.857237 -0.6356,-4.29025 -0.11308,-0.846543 -0.21902,-1.694041 -0.31779,-2.542373 l -2.22458,3.019068 -2.38347,4.449155 c -0.53121,1.376522 -1.06087,2.75364 -1.58899,4.131352 -0.3839,1.001493 -0.76709,2.003587 -1.11228,3.019072 -0.58785,1.72933 -1.06438,3.494087 -1.58899,5.24364 -0.70736,2.359008 -1.50258,4.691678 -2.38347,6.991528"
           id="path3874"
           inkscape:path-effect="#path-effect3917"
           inkscape:original-d="m 142.44407,106.17712 1.27118,-0.4767 1.58899,-1.43008 1.43008,-1.11229 c 0,0 0.3178,-0.79449 1.11229,-0.95339 0.79449,-0.1589 2.70127,-2.06568 2.70127,-2.06568 l 2.54237,-1.747876 c 0,0 1.74789,-0.476696 2.38348,-0.794496 0.63559,-0.317792 4.44915,-0.953384 4.44915,-0.953384 l 3.65466,0.317792 4.92585,0.3178 3.33686,0.794488 4.44916,2.065676 0.63559,-0.953388 -0.3178,-2.383472 -1.43008,-2.224576 -0.95339,-1.271192 0.63559,-0.953384 2.54238,0 2.22457,0.794488 5.24364,2.701272 2.86017,2.224576 3.65467,3.813556 2.38347,3.33687 0,2.38347 -1.11229,2.06568 -1.90678,1.90678 3.49576,-1.11228 2.70128,-3.17797 1.27118,-2.38348 1.43009,-3.81355 0.31779,-3.654668 -0.15889,-4.766952 0.95339,-1.112288 3.49576,0.794496 1.90678,0.953384 2.70127,1.906784 2.22458,1.906776 1.27118,3.336868 -0.63559,1.58898 1.43008,-0.1589 2.70128,-1.27118 1.43008,-1.906784 0.95339,-1.74788 1.27119,-0.317792 2.70127,1.74788 9.2161,7.309316 -10.48729,-11.28178 -0.79449,-1.906776 -0.63559,-3.019064 -0.4767,-3.972464 0.1589,-3.336862 0.47669,-3.019068 -2.38347,0.317797 -4.13136,2.542373 -2.38347,2.542373 -1.58898,1.906779 -1.43009,2.383472 -2.38347,0.6356 -4.76695,-1.271192 -3.01907,-2.383472 -1.90678,-1.906781 -1.74788,-2.542373 -1.27119,-1.74788 0,-2.86017 0.95339,-3.972458 -2.22457,1.112288 -3.01907,2.701272 -1.90678,3.019068 -1.58898,3.177965 -0.6356,0.794492 c -1.43008,1.906777 -1.58898,1.906777 -1.58898,1.906777 l -4.13136,-2.065675 -2.22457,-2.065679 -1.90678,-2.383474 -0.1589,-2.86017 -0.1589,-1.74788 -0.63559,-0.794492 -1.11229,2.383474 -1.74788,3.019068 -1.43009,3.336865 -1.43008,1.906779 -1.58899,4.290256 -1.11228,0.953392 -1.74788,0.476688 c 0,0 -2.86017,0.953392 -3.81356,0.6356 -0.95339,-0.3178 -2.54238,-1.430088 -2.54238,-1.430088 l -1.43008,-1.112288 -0.79449,-1.906784 -0.6356,-4.29025 -0.31779,-2.542373 -2.22458,3.019068 -2.38347,4.449155 -1.58899,4.131352 -1.11228,3.019072 -1.58899,5.24364 z"
           inkscape:connector-curvature="0" />
        <g
           style="fill:#af5f48;fill-opacity:1"
           id="g3919">
          <path
             sodipodi:type="arc"
             style="fill:#af5f48;fill-opacity:1;fill-rule:evenodd;stroke:none"
             id="path3876"
             sodipodi:cx="20.505348"
             sodipodi:cy="176.40712"
             sodipodi:rx="5.8987985"
             sodipodi:ry="5.8987985"
             d="m 26.404147,176.40712 a 5.8987985,5.8987985 0 1 1 -11.797597,0 5.8987985,5.8987985 0 1 1 11.797597,0 z"
             transform="matrix(0.8,0,0,0.8,148.8,0)" />
          <path
             transform="matrix(0.8,0,0,0.8,192,0)"
             d="m 26.404147,176.40712 a 5.8987985,5.8987985 0 1 1 -11.797597,0 5.8987985,5.8987985 0 1 1 11.797597,0 z"
             sodipodi:ry="5.8987985"
             sodipodi:rx="5.8987985"
             sodipodi:cy="176.40712"
             sodipodi:cx="20.505348"
             id="path3878"
             style="fill:#af5f48;fill-opacity:1;fill-rule:evenodd;stroke:none"
             sodipodi:type="arc" />
        </g>
        <path
           style="fill:#ffffff;fill-opacity:1;fill-rule:evenodd;stroke:none"
           d="m 224.02949,173.54839 c 6.33242,-2.5597 -16.21642,24.55926 -36.22037,24.55926 -20.00395,0 -42.78012,-26.0256 -36.22036,-24.55926 13.94048,3.11618 16.21641,5.33897 36.22036,5.33897 20.00395,0 27.75649,-1.9177 36.22037,-5.33897 z"
           id="path3880"
           inkscape:connector-curvature="0"
           sodipodi:nodetypes="sssss" />
      </g>
    </g>
    <g
       transform="translate(1.7977291,0.89886455)"
       id="g3902">
      <rect
         style="fill:none;stroke:#000000;stroke-width:0.80000001;stroke-opacity:1"
         id="rect3884"
         width="31.779659"
         height="13.98305"
         x="192.58475"
         y="133.47458"
         ry="6.9915252" />
      <rect
         ry="6.9915252"
         y="133.47458"
         x="146.18457"
         height="13.98305"
         width="31.779659"
         id="rect3886"
         style="fill:none;stroke:#000000;stroke-opacity:1" />
      <rect
         ry="1.6049532"
         y="138.83415"
         x="175.42374"
         height="3.2099063"
         width="19.067797"
         id="rect3888"
         style="fill:#000000;fill-opacity:1;stroke:none" />
    </g>
    <rect
       style="fill:none;stroke:none"
       id="rect3882"
       width="31.779659"
       height="13.98305"
       x="192.58475"
       y="133.47458"
       ry="6.9915252" />
  </g>
</svg>
